<?xml version="1.0" encoding="UTF-8"?>
<svg width="20px" height="19px" viewBox="0 0 20 19" version="1.1" xmlns="http://www.w3.org/2000/svg" xmlns:xlink="http://www.w3.org/1999/xlink">
    <!-- Generator: Sketch 60.1 (88133) - https://sketch.com -->
    <title>API KEYS@3x</title>
    <desc>Created with Sketch.</desc>
    <g id="Page-1" stroke="none" stroke-width="1" fill="none" fill-rule="evenodd">
        <g id="API-KEYS">
            <polygon id="Rectangle-Copy-11" fill="#F94045" fill-rule="nonzero" points="7 15 13 15 13 18 14 19 6 19 7 18"></polygon>
            <path d="M1,0 L19,0 C19.5522847,-1.01453063e-16 20,0.44771525 20,1 L20,15 C20,15.5522847 19.5522847,16 19,16 L1,16 C0.44771525,16 6.76353751e-17,15.5522847 0,15 L0,1 C-6.76353751e-17,0.44771525 0.44771525,1.01453063e-16 1,0 Z" id="Rectangle" fill="#F94045" fill-rule="nonzero"></path>
            <polygon id="Rectangle-Copy-15" fill="#FF7B7F" fill-rule="nonzero" points="1 1 19 1 19 15 1 15"></polygon>
            <path d="M13.3469896,5.01176355 C12.3769343,3.83219828 10.6763791,3.66196027 9.55117736,4.61745162 C8.87257718,5.197052 8.52541665,6.09310672 8.63605369,7.00418495 L6.22926967,9.07079372 L6.22926967,9.07079372 C6.18340915,9.10621553 6.1518079,9.15808675 6.137297,9.2161915 L6.12858773,9.27599573 C6.11516516,9.44964963 6.00971853,10.8601868 6.00103239,10.9876422 C5.99435529,11.0744079 6.02033351,11.1527725 6.07122217,11.2110456 C6.12212961,11.2694932 6.19521316,11.3131208 6.28058416,11.3221711 L7.97023894,11.4997329 L7.97023894,11.4997329 C8.13353033,11.5063655 8.27571446,11.3888185 8.28620673,11.2204124 L8.33059225,10.6673901 L8.33059225,10.6673901 L8.87500988,10.7269849 L8.87500988,10.7269849 C9.03835357,10.7336487 9.18046797,10.6160601 9.19623855,10.4508982 L9.20839389,10.2312457 C9.21823589,10.0942611 9.23068826,9.93865488 9.23251449,9.89986857 L9.79477872,9.93986641 L9.79477872,9.93986641 C9.87782052,9.94059923 9.94591223,9.91848342 10.0071377,9.87111439 L10.4445581,9.48754075 C10.5250656,9.41860864 10.5846985,9.36859666 10.5864419,9.36963739 C11.4486293,9.63287376 12.3826952,9.4433011 13.0665953,8.86686455 C14.1916359,7.91137032 14.3175078,6.17784435 13.3469896,5.01176355 Z" id="Path" fill="#FFFFFF"></path>
        </g>
    </g>
</svg>