<?xml version="1.0" encoding="UTF-8"?>
<svg width="19px" height="19px" viewBox="0 0 19 19" version="1.1" xmlns="http://www.w3.org/2000/svg" xmlns:xlink="http://www.w3.org/1999/xlink">
    <!-- Generator: Sketch 54.1 (76490) - https://sketchapp.com -->
    <title>api@3x</title>
    <desc>Created with Sketch.</desc>
    <defs>
        <linearGradient x1="0%" y1="50.0007167%" x2="100%" y2="50.0007167%" id="linearGradient-1">
            <stop stop-color="#F6A320" offset="0%"></stop>
            <stop stop-color="#F47E1F" offset="100%"></stop>
        </linearGradient>
        <linearGradient x1="7.82963961e-06%" y1="50%" x2="100.000008%" y2="50%" id="linearGradient-2">
            <stop stop-color="#FCD635" offset="0%"></stop>
            <stop stop-color="#F7A928" offset="100%"></stop>
        </linearGradient>
        <linearGradient x1="7.444328e-06%" y1="50%" x2="99.9999926%" y2="50%" id="linearGradient-3">
            <stop stop-color="#FC6A28" offset="0%"></stop>
            <stop stop-color="#F94045" offset="100%"></stop>
        </linearGradient>
    </defs>
    <g id="Page-1" stroke="none" stroke-width="1" fill="none" fill-rule="evenodd">
        <g id="Setting-main-Page-" transform="translate(-818.000000, -116.000000)">
            <g id="api" transform="translate(818.000000, 116.750353)">
                <polygon id="Rectangle-Copy-11" fill="url(#linearGradient-1)" points="6 14 13 14 14 18 5 18"></polygon>
                <rect id="Rectangle" fill="url(#linearGradient-2)" x="0" y="0" width="19" height="15" rx="1"></rect>
                <path d="M10.513703,4.39358315 C9.33942727,3.94694531 8.04481791,4.57538865 7.6182367,5.785679 C7.36231814,6.51808803 7.47276368,7.33871089 7.91932229,7.96724097 C7.89424998,8.04516752 7.01606553,10.57301 7.01606553,10.57301 C6.99099322,10.6352888 6.99597081,10.708063 7.02608775,10.7703418 C7.08632163,10.9054643 7.57816458,12.0014322 7.62321429,12.1000895 C7.65333123,12.16759 7.70360993,12.2143425 7.76376,12.2350905 C7.82399388,12.25596 7.89424998,12.25596 7.95944469,12.2247859 C8.09496253,12.157216 9.24411562,11.6066298 9.24914349,11.6066298 C9.36954421,11.5390599 9.42473346,11.3884979 9.36449958,11.2585798 C9.3444719,11.2171184 9.19893184,10.8846642 9.17385953,10.8275377 C9.21902656,10.8066682 9.58539065,10.6301365 9.59036824,10.6301365 C9.71081923,10.5625666 9.76594144,10.4120046 9.71081923,10.2821559 C9.68574692,10.2405557 9.54015658,9.90810147 9.51513455,9.85619669 C9.5602513,9.8302443 9.93157622,9.6362953 9.93662085,9.6362953 C9.99678769,9.59996889 10.0369771,9.55328582 10.0620494,9.49086824 C10.0771163,9.43374176 10.272801,8.86065542 10.2778288,8.86065542 C11.0054286,8.67362821 11.6025551,8.11788973 11.8635686,7.3854807 C12.2900325,6.17525974 11.6828837,4.82998575 10.513703,4.39358315 Z" id="Fill-2" fill="url(#linearGradient-3)" transform="translate(9.500000, 8.249647) rotate(-330.000000) translate(-9.500000, -8.249647) "></path>
            </g>
        </g>
    </g>
</svg>