<?xml version="1.0" encoding="UTF-8"?>
<svg width="37px" height="37px" viewBox="0 0 37 37" version="1.1" xmlns="http://www.w3.org/2000/svg" xmlns:xlink="http://www.w3.org/1999/xlink">
    <title>Automatic Update@2x</title>
    <g id="Page-1" stroke="none" stroke-width="1" fill="none" fill-rule="evenodd">
        <g id="Setting-main-Page--Copy-7" transform="translate(-1013.000000, -347.000000)" fill="#FFFFFF">
            <path d="M1031.5,347 C1036.44152,347 1041.08726,348.924361 1044.58152,352.418477 C1048.07564,355.912736 1050,360.558477 1050,365.5 C1050,370.441523 1048.07564,375.087264 1044.58152,378.581523 C1041.08726,382.075639 1036.44152,384 1031.5,384 C1026.55848,384 1021.91274,382.075639 1018.41848,378.581523 C1014.92436,375.087264 1013,370.441523 1013,365.5 C1013,360.558477 1014.92436,355.912736 1018.41848,352.418477 C1021.91274,348.924361 1026.55848,347 1031.5,347 Z M1031.5,349.167969 C1027.13754,349.167969 1023.03625,350.866789 1019.95152,353.95152 C1016.86679,357.03625 1015.16797,361.137541 1015.16797,365.5 C1015.16797,369.862531 1016.86679,373.96375 1019.95152,377.04848 C1023.03625,380.133283 1027.13754,381.832031 1031.5,381.832031 C1035.86253,381.832031 1039.96375,380.133283 1043.04848,377.04848 C1046.13328,373.96375 1047.83203,369.862531 1047.83203,365.5 C1047.83203,361.137541 1046.13328,357.03625 1043.04848,353.95152 C1039.96375,350.866789 1035.86253,349.167969 1031.5,349.167969 Z M1040.7928,358.484244 L1046.05568,360.827529 L1045.17397,362.807968 L1043.37904,362.008783 C1044.62996,366.276068 1043.50283,371.00354 1040.25326,374.253109 C1038.31726,376.189033 1035.8632,377.404613 1033.15627,377.768109 C1032.61291,377.841169 1032.06549,377.877302 1031.51873,377.877302 C1029.42989,377.877302 1027.34908,377.350847 1025.52437,376.344331 L1025.52437,376.344331 L1026.5715,374.445913 C1028.46977,375.493042 1030.7056,375.909726 1032.86764,375.619435 C1035.09942,375.319677 1037.12329,374.317136 1038.72022,372.720138 C1041.39217,370.048261 1042.32483,366.16514 1041.30921,362.654621 L1041.30921,362.654621 L1040.43017,364.62899 L1038.44966,363.747277 L1040.7928,358.484244 Z M1029.84378,353.231848 C1032.46305,352.880203 1035.17337,353.385701 1037.47568,354.655625 L1037.47568,354.655625 L1036.42855,356.554043 C1034.53021,355.506914 1032.29438,355.090375 1030.13241,355.380522 C1027.90063,355.680279 1025.87683,356.682821 1024.27983,358.279819 C1021.60788,360.951768 1020.67522,364.834817 1021.69084,368.345336 L1021.69084,368.345336 L1022.56988,366.371039 L1024.5504,367.252752 L1022.20725,372.515785 L1016.94437,370.1725 L1017.82615,368.191988 L1019.62108,368.991174 C1018.37017,364.723961 1019.49737,359.996416 1022.74679,356.746848 C1024.68279,354.810924 1027.13685,353.595416 1029.84378,353.231848 Z" id="Automatic-Update"></path>
        </g>
    </g>
</svg>