<svg xmlns="http://www.w3.org/2000/svg" xmlns:xlink="http://www.w3.org/1999/xlink" width="1140" height="260" viewBox="0 0 1140 260">
  <defs>
    <clipPath id="clip-path">
      <rect id="Rectangle_Copy_4" data-name="Rectangle Copy 4" width="1140" height="260" rx="20" fill="#6a36ff"/>
    </clipPath>
  </defs>
  <g id="Group" clip-path="url(#clip-path)">
    <g id="Group_36_Copy" data-name="Group 36 Copy" transform="translate(-112 -182)" opacity="0.182">
      <path id="Stroke_17" data-name="Stroke 17" d="M705.159,1108.873a125.7,125.7,0,0,1,17.147,2.657,149.6,149.6,0,0,1,24.4,7.856c15.871,6.606,32.074,16.106,49.53,29.042,13.57,10.055,27.854,22.151,44.953,38.07,3.506,3.264,7.081,6.621,10.54,9.866,38.155,35.822,77.609,72.861,126.839,83.5a94.036,94.036,0,0,0,12.031,1.786,110.165,110.165,0,0,0,44.825-5.939,122.762,122.762,0,0,0,25.908-12.442,111.931,111.931,0,0,0,21.571-17.7,81.392,81.392,0,0,0,14.876-21.8,70.643,70.643,0,0,0,6.331-25.691,99.882,99.882,0,0,0-2.8-27.972c-2.1-9.119-5.141-18.28-8.081-27.139-3.245-9.776-6.6-19.885-8.81-30.214-4.554-21.28-3.754-44.428,2.313-66.941a146.54,146.54,0,0,1,32.515-60.325c9.576-10.542,20.966-20.074,35.847-30,3.194-2.134,6.484-4.236,9.663-6.269,2.11-1.35,4.293-2.744,6.4-4.117,9.9-6.456,18.782-12.536,27.373-18.416l3.8-2.6c6.26-4.283,11.313-7.937,15.9-11.5,3.87-3.027,7.814-6.413,12.058-10.356a239.557,239.557,0,0,0,19.333-20.038,156.727,156.727,0,0,0,16.693-23.4,100.458,100.458,0,0,0,10.706-26.172,73.64,73.64,0,0,0,1.377-28.341,76.829,76.829,0,0,0-9.8-27.72,103.657,103.657,0,0,0-18.31-22.668c-14.438-13.82-33.138-25.7-51.223-37.19-15.77-10.019-32.078-20.378-46.005-32.214a143.323,143.323,0,0,1-18.961-19.144,98.181,98.181,0,0,1-13.925-22.668,92.735,92.735,0,0,1-7.262-29.356c-1.479-17.457,1.421-36.679,8.39-55.592,6.426-17.457,15.849-34.609,28.806-52.436,12.289-16.908,26.487-32.63,38.753-45.779,4.893-5.263,9.885-10.54,14.714-15.644,5.306-5.61,10.793-11.409,16.07-17.11,10.448-11.292,19.187-21.427,26.717-30.983a290.652,290.652,0,0,0,23.171-33.654,194.571,194.571,0,0,0,16.788-36.684,151.218,151.218,0,0,0,7.571-40.084,117.121,117.121,0,0,0-5.257-39.591,140.6,140.6,0,0,0-17.56-37.026,117.67,117.67,0,0,0-26.909-28.869c-10.641-7.972-21.846-13.06-33.3-15.122a63.847,63.847,0,0,0-12.045-.984c-10.471.153-21.085,2.739-32.449,7.912-10.142,4.615-19.956,10.828-29.446,16.837-5.393,3.413-10.968,6.942-16.56,10.154a122.861,122.861,0,0,1-27.646,11.664,88.732,88.732,0,0,1-31.1,3.548l-.271-.023a57.247,57.247,0,0,1-29.006-10.342,55.5,55.5,0,0,1-19.732-25.536c-6.989-17.861-6.259-39.111-5.485-61.61.372-10.8.755-21.969.229-32.84a131.079,131.079,0,0,0-4.005-27.828,77.773,77.773,0,0,0-11.641-25.282C979.057,12.579,960.033,2.5,935.076.41q-4.122-.345-8.456-.4A170.91,170.91,0,0,0,887.608,4.5a273.026,273.026,0,0,0-36.955,11.229C829.2,26.111,806.35,37.514,784.7,50.5,760.044,65.284,742.57,78.388,729.7,91.74a118.475,118.475,0,0,0-18.295,24.383c-1.3,2.289-2.548,4.646-3.7,7.007-6.735,13.961-10.734,29.584-14.968,46.123q-.682,2.662-1.371,5.337c-1.012,3.923-1.965,7.846-2.886,11.639-2.817,11.6-5.479,22.559-9.718,33.424a77.848,77.848,0,0,1-5.138,10.577c-7.932,13.515-19.783,24.83-32.515,31.04a50.123,50.123,0,0,1-20.1,5.325,38.931,38.931,0,0,1-20.045-4.574c-9.054-4.773-15.9-12.6-22.519-20.16-4.767-5.446-9.7-11.079-15.488-15.678-10.484-8.323-19.983-13.17-29.042-14.814a34.347,34.347,0,0,0-19.327,1.864c-5.552,2.2-10.909,5.818-16.377,11.063-10.12,9.709-18.8,23.318-27.2,36.478-4.848,7.6-9.428,14.773-14.19,21.106-6.33,8.42-11.812,13.694-17.25,16.6-20.945,11.187-42.189,14.645-62.734,17.989-7.422,1.21-14.432,2.349-21.385,3.835a139.027,139.027,0,0,0-22.378,6.515,87.94,87.94,0,0,0-20.623,11.4c-14.15,10.574-25.77,26.325-35.525,48.149-12.239,27.374-17.027,58.206-21.656,88.019-3.814,24.56-7.757,49.954-15.852,73.089a159.372,159.372,0,0,1-12.74,28.031,149.771,149.771,0,0,1-18.274,24.89,203.588,203.588,0,0,1-22.187,21.034c-15.81,13.024-33.686,24.549-50.975,35.7-18.165,11.711-36.948,23.818-53.523,37.766a228.969,228.969,0,0,0-37.37,40.181,235.791,235.791,0,0,0-27.213,48.367C2.293,819.134-3.055,857.19,1.669,893.494a189.106,189.106,0,0,0,7.925,34.92,172.513,172.513,0,0,0,14.752,32.815,174.455,174.455,0,0,0,56.4,58.527c23.114,14.826,48.962,23.8,74.75,25.961,5.947.5,11.966.672,17.787.837,5.408.155,11,.315,16.416.738l1.335.108c9.674.81,17.176,2.329,24.181,4.885,11.448,4.176,22.518,11.577,33.842,22.63,10.077,9.836,19.361,21.527,28.339,32.833,4.7,5.916,9.555,12.034,14.433,17.76,24.367,28.609,52,51.792,79.907,67.042a181.587,181.587,0,0,0,46.68,18.078,137.165,137.165,0,0,0,49.042,2.392,142.137,142.137,0,0,0,25.448-5.982c29.745-9.852,56.622-28.553,82.616-46.64,18.621-12.957,37.876-26.356,57.752-36.11a163.5,163.5,0,0,1,30.707-11.682,122.163,122.163,0,0,1,33.042-4.132Q701.061,1108.53,705.159,1108.873Z" transform="translate(0.534)" fill="none" stroke="#e7dffb" stroke-miterlimit="10" stroke-width="1.122"/>
      <path id="Stroke_21" data-name="Stroke 21" d="M685.654,1045.546a128.612,128.612,0,0,1,29.365,6.09,182.639,182.639,0,0,1,36.54,17.089A299.877,299.877,0,0,1,785.7,1092.9c9.66,7.8,19.979,16.88,31.544,27.755,3.793,3.559,7.661,7.228,11.4,10.777,36.675,34.8,74.6,70.774,121.877,81.518a94.279,94.279,0,0,0,27.55,1.759c23.206-1.558,46.288-10.1,63.329-23.446a78.027,78.027,0,0,0,20.9-24.142,61.465,61.465,0,0,0,7.517-30.887c-.178-8.321-1.952-17.111-5.427-26.874a276.292,276.292,0,0,0-11.263-25.819c-4.449-9.325-9.052-18.969-12.305-28.78a121.55,121.55,0,0,1-5.951-31.362,126.9,126.9,0,0,1,2.162-31.637c4.167-21.271,13.531-40.47,27.075-55.52,8.275-9.193,18.6-17.612,31.557-25.742,11.556-7.247,24.1-13.6,36.229-19.747,10.482-5.311,21.32-10.8,31.488-16.851a162.217,162.217,0,0,0,24.321-17.649,127.314,127.314,0,0,0,20.207-22.332,89.044,89.044,0,0,0,12.819-26.235,70.479,70.479,0,0,0,2.163-29.355,74.051,74.051,0,0,0-9.275-27.02,99.123,99.123,0,0,0-17.628-22.064c-13.945-13.443-31.281-24.479-49.636-36.161-15.247-9.7-31.012-19.74-44.511-31.224a139.851,139.851,0,0,1-18.4-18.583,96.334,96.334,0,0,1-13.568-22.023c-5.46-12.426-8.017-26.367-7.6-41.434a134.452,134.452,0,0,1,8.02-41.281,187.429,187.429,0,0,1,15.123-32.166,257.425,257.425,0,0,1,19.99-29.05c14.569-18.54,31.442-35.841,47.759-52.574,4.191-4.3,8.524-8.74,12.73-13.114,15.516-16.13,35.288-37.827,50.6-62.654a195.411,195.411,0,0,0,17.589-35.876,150.018,150.018,0,0,0,8.623-39.4c2.456-31.881-10.874-67.693-33.957-91.235a87.68,87.68,0,0,0-26.59-18.943,66.33,66.33,0,0,0-31.2-5.927c-10.7.622-21.619,3.783-33.369,9.668-10.466,5.241-20.568,12.086-30.337,18.706-5.216,3.535-10.609,7.189-15.964,10.533-9.928,6.193-25.4,14.088-42.739,16.524a64.19,64.19,0,0,1-22.209-.5,50.067,50.067,0,0,1-20.377-9.34,52.052,52.052,0,0,1-14.782-17.577,68.109,68.109,0,0,1-6.655-21.551c-2.327-15.423-1.065-32.348.271-50.265C967.076,83.4,969.42,51.976,953,28.069,939.676,8.672,918.414-.753,889.823.047a167.015,167.015,0,0,0-38.4,6.109,274.59,274.59,0,0,0-36.537,12.873l-.02-.048.02.048c-13.03,5.592-26.984,11.713-40.743,18.58a319.463,319.463,0,0,0-38.685,22.414c-27.422,18.879-45.732,40.127-55.972,64.955-5.946,14.4-9.091,30.156-12.132,45.386-3.232,16.18-6.573,32.911-13.277,48.074-8.188,18.548-24.831,34.052-42.4,39.5-12.283,3.809-24.158,2.493-34.339-3.811-8.667-5.354-15.057-13.688-21.236-21.748-4.536-5.916-9.227-12.034-14.814-16.995a89.812,89.812,0,0,0-14.877-10.959,47.7,47.7,0,0,0-12.153-5.045,32,32,0,0,0-10.88-.841c-6.452.656-12.536,3.4-18.6,8.381-11.216,9.219-20.281,24.48-29.049,39.241-9.521,16.03-18.514,31.17-29.274,36.808-21,11.056-42.6,13.313-63.48,15.5-18.834,1.97-36.625,3.829-53.059,11.842a78.358,78.358,0,0,0-23.346,17.383c-7.7,8.266-14.328,18.479-20.259,31.227-5.494,11.85-9.821,25.49-13.229,41.7-3.038,14.452-5.079,29.551-7.054,44.153-2.238,16.562-4.554,33.687-8.33,49.874-4.235,18.149-9.907,33.2-17.343,46.007A135.656,135.656,0,0,1,202.7,564.487a185.193,185.193,0,0,1-21.656,19.924c-15.478,12.271-33.063,23.007-50.067,33.387-17.663,10.782-35.926,21.931-52.037,34.9A213.031,213.031,0,0,0,42.3,690.679a216.181,216.181,0,0,0-26.532,46.184C1.349,771.234-3.3,807.807,2.316,842.624a169.907,169.907,0,0,0,14.381,46,186.456,186.456,0,0,0,26.28,40.732,178.224,178.224,0,0,0,35.481,32.133,150.525,150.525,0,0,0,41.983,20.2,129.109,129.109,0,0,0,29.915,5.189c6.379.334,12.893.212,19.192.1,12.959-.24,26.359-.488,39.2,3.212,28.727,8.288,48.936,33.683,68.478,58.242,2.342,2.941,4.763,5.984,7.138,8.917,23.326,28.9,49.922,52.63,76.912,68.637a178.6,178.6,0,0,0,45.218,19.415,128.385,128.385,0,0,0,47.473,3.755,129.729,129.729,0,0,0,28.6-6.725,181.021,181.021,0,0,0,26.725-12.114c17.329-9.473,34.066-21.515,50.251-33.161,19.242-13.847,39.138-28.161,59.991-38.094,19.612-9.357,38.178-13.906,56.759-13.911Q680.935,1045.15,685.654,1045.546Z" transform="translate(31.534 34)" fill="none" stroke="#e7dffb" stroke-miterlimit="10" stroke-width="1.122"/>
      <path id="Stroke_25" data-name="Stroke 25" d="M638.614,979.795a124.58,124.58,0,0,1,29.64,6.338,180.766,180.766,0,0,1,34.062,16.077c23.608,14.082,45.331,32.834,61.62,47.6,4.155,3.745,8.388,7.621,12.481,11.371,34.025,31.166,69.208,63.392,112.409,70.161,1.243.2,2.494.343,3.747.449,7.633.639,15.353-.286,22.643-1.426,23.014-3.6,46.04-12.694,63.176-24.955,19.987-14.3,31.078-31.928,32.077-50.979.395-7.531-.777-15.5-3.58-24.361A221.6,221.6,0,0,0,997.4,1006.6c-3.791-8.433-7.71-17.156-10.3-26.031a114.01,114.01,0,0,1-1.487-57.277,110.808,110.808,0,0,1,26.2-50.732c7.713-8.35,17.258-16.056,29.176-23.565,10.625-6.691,22.115-12.61,33.227-18.335,9.977-5.141,20.3-10.456,29.953-16.313,11.974-7.27,28.841-19.671,41.184-37.454a84.6,84.6,0,0,0,11.944-24.451,67.151,67.151,0,0,0,2.241-27.336A70,70,0,0,0,1151.3,700a92.35,92.35,0,0,0-15.811-20.637c-12.535-12.617-28.163-23.057-44.709-34.111-27.509-18.379-55.956-37.38-68.747-67.088a91.213,91.213,0,0,1-7.021-38.324,128,128,0,0,1,6.979-38.179c14.193-41.8,44.122-74.112,73.065-105.359,3.823-4.127,7.775-8.393,11.607-12.594,13.744-15.039,31.237-35.239,44.625-58.157a180.79,180.79,0,0,0,15.321-33.154,140.388,140.388,0,0,0,7.219-36.309c.88-14.559-1.7-30.19-7.471-45.207A114.984,114.984,0,0,0,1141.843,172a83.254,83.254,0,0,0-24.452-17.69,62.244,62.244,0,0,0-28.609-5.963c-9.808.363-19.825,3-30.622,8.054-9.619,4.5-18.918,10.454-27.911,16.206-4.8,3.071-9.768,6.248-14.7,9.15-9.182,5.39-23.451,12.21-39.29,14.1a60.424,60.424,0,0,1-20.409-.829,47.585,47.585,0,0,1-18.764-8.773,49.8,49.8,0,0,1-13.8-16.234,64.366,64.366,0,0,1-6.478-19.8c-2.419-14.147-1.6-29.622-.74-46.007C917.535,76.505,919.045,47.844,903.7,26,892.938,10.722,876.812,2.117,855.675.345A102.714,102.714,0,0,0,845.2.019c-19.789.353-43.055,5.843-69.153,16.311l-.019-.048.019.048c-25.234,10.123-51.817,21.257-75.076,36.2-26.1,16.774-43.814,35.8-54.153,58.167-6.023,13-9.534,27.254-12.93,41.038-3.6,14.618-7.326,29.736-14.06,43.471a73.5,73.5,0,0,1-16.888,22.162,64.106,64.106,0,0,1-23.658,13.8c-11.606,3.55-22.844,2.478-32.5-3.1-8.266-4.747-14.484-12.18-20.495-19.37-4.364-5.219-8.877-10.616-14.167-15a86.169,86.169,0,0,0-14.156-9.68c-7.594-4.053-14.894-5.726-21.7-4.978-6.108.675-11.893,3.215-17.685,7.765-10.719,8.424-19.494,22.264-27.981,35.651-9.269,14.62-18.025,28.431-28.4,33.725-19.772,10.09-40.087,12.359-59.734,14.552-17.845,1.993-34.7,3.875-50.335,11.32a76.26,76.26,0,0,0-22.258,16.019c-7.363,7.579-13.72,16.911-19.436,28.53-5.3,10.771-9.567,23.177-13.049,37.928-3.105,13.152-5.311,26.907-7.445,40.207-2.41,15.027-4.9,30.564-8.7,45.272-4.258,16.493-9.747,30.187-16.781,41.858a129.149,129.149,0,0,1-16.5,21.684,177.223,177.223,0,0,1-20.031,18.226c-14.273,11.255-30.415,21.158-46.026,30.734-16.527,10.139-33.618,20.622-48.679,32.8a198.705,198.705,0,0,0-33.869,35.217,201.385,201.385,0,0,0-24.54,42.721c-13.335,31.7-17.793,65.559-12.893,97.907a159.9,159.9,0,0,0,13.522,43.983A177.227,177.227,0,0,0,40.476,854.1a172.591,172.591,0,0,0,33.875,30.849,147.916,147.916,0,0,0,40.083,19.693A129.824,129.824,0,0,0,141.839,910c.357.03.713.058,1.071.084,6.079.457,12.288.5,18.293.546,12.322.089,25.059.179,37.279,3.833,28.229,8.451,48.291,33.2,67.692,57.14,1.723,2.125,3.5,4.324,5.249,6.456,22.01,26.9,46.677,49.141,71.329,64.309a172.761,172.761,0,0,0,41.522,18.918,120.746,120.746,0,0,0,43.5,4.869,119.488,119.488,0,0,0,26.185-5.168,163.163,163.163,0,0,0,24.5-10.015c15.9-7.936,31.285-18.186,46.166-28.1,17.724-11.807,36.052-24.017,55.3-32.333,18.078-7.86,35.219-11.489,52.4-11.093Q635.447,979.529,638.614,979.795Z" transform="translate(65.534 83)" fill="none" stroke="#e7dffb" stroke-miterlimit="10" stroke-width="1.122"/>
      <path id="Stroke_29" data-name="Stroke 29" d="M591.057,911.261c42.986,3.6,82.932,33.363,119.76,65.132,4.01,3.46,8.022,6.984,12.047,10.518,31.807,27.937,64.656,56.842,104.02,59.967,7.914.632,15.573-1.31,23.681-3.365l1.282-.325c44.088-11.128,93.031-36.042,98.169-72.585,2.065-14.676-3.51-28.141-9.41-42.4-3.141-7.589-6.39-15.439-8.347-23.446-8.43-33.986,1.916-72.534,26.361-98.2,16.032-16.807,36.973-27.782,57.225-38.4,9.486-4.973,19.295-10.114,28.438-15.775,35.218-21.844,54.228-52.487,50.848-81.969-3.878-33.836-31.43-53.268-60.6-73.841-24.488-17.272-49.811-35.133-61.372-62.586-8.477-20.1-8.666-45.249-.532-70.826,12.292-38.334,38.311-68.2,63.473-97.085q5.279-6.059,10.485-12.1c48.617-56.549,56.269-90.7,57.342-116.646,1.082-26.524-10.609-56.433-29.785-76.193-9.917-10.222-26.259-22.375-47.729-22.147-19.653.224-36.586,10.278-52.963,20-4.4,2.61-8.94,5.309-13.461,7.771-13.341,7.229-47.113,21.921-72.6,2.242-22.739-17.567-22-45.615-21.221-75.31.654-24.873,1.33-50.592-12.79-70.108-20.063-27.65-59.17-31.01-116.235-9.982-51.909,19.123-100.35,39.806-122.657,82.281-6.073,11.527-9.945,24.238-13.689,36.527-3.985,13.079-8.1,26.6-14.908,38.968-13.834,25.341-45.493,43.589-70.565,30.361-7.979-4.209-14.067-10.768-19.955-17.109-4.182-4.5-8.506-9.161-13.463-12.923a81.171,81.171,0,0,0-13.3-8.3c-29.317-14.338-46.409,10.646-62.94,34.8-9.1,13.3-17.7,25.869-27.914,30.907-18.693,9.219-37.822,11.506-56.323,13.718-32.955,3.939-64.082,7.66-86.755,50.727-11.3,21.459-16.036,46.164-20.617,70.059-5.188,27.05-10.551,55.02-25.438,78.631-18.046,28.623-47.512,46.767-76.008,64.315-15.393,9.477-31.31,19.28-45.3,30.637C18.344,577.009-6.833,638.62,1.61,697.991c8.126,57.138,51.856,109.373,106.342,127.026a129.7,129.7,0,0,0,26.867,5.661c5.763.576,11.656.788,17.361.991,11.746.422,23.89.857,35.6,4.484,28.082,8.733,48.155,32.982,67.566,56.433l3.159,3.812c26.825,32.3,81,86.173,142.468,83.976,32.8-1.294,60.867-18.173,88.006-34.494,16.176-9.729,32.9-19.788,50.525-26.511,16.765-6.4,32.607-9.121,48.432-8.326Q589.5,911.13,591.057,911.261Z" transform="translate(100.534 133)" fill="none" stroke="#e7dffb" stroke-miterlimit="10" stroke-width="1.122"/>
      <path id="Stroke_33" data-name="Stroke 33" d="M544.719,847.066l.194.016c18.606,1.594,38.057,8.5,59.467,21.1,18.784,11.061,36.839,25.223,53.553,38.883,3.724,3.043,7.519,6.2,11.189,9.259,28.151,23.44,57.2,47.628,90.42,50.409q3.267.274,6.588.266c6.872-.025,13.186-2.39,19.87-4.892,1.377-.516,2.8-1.05,4.224-1.559,21.388-7.653,43.8-16.279,62.808-27.471,10.512-6.189,19.079-12.7,25.466-19.343,7.293-7.588,12.031-15.648,14.082-23.957a42.641,42.641,0,0,0-.025-19.151,137.784,137.784,0,0,0-5.873-18.836c-2.435-6.682-4.954-13.591-6.257-20.574-5.62-30.1,5.2-64.193,27.569-86.871,14.628-14.8,33.365-24.829,51.485-34.528,9.043-4.842,18.394-9.848,27.094-15.374,10.043-6.4,24.2-17.2,34.587-32.36a75.587,75.587,0,0,0,10.207-20.861,59.962,59.962,0,0,0,2.329-23.261,61.672,61.672,0,0,0-6.037-21.313,78.747,78.747,0,0,0-12.174-17.8c-9.73-10.972-21.99-20.232-34.969-30.033-21.238-16.041-43.2-32.627-53.333-57.387a82.779,82.779,0,0,1-5.864-32.06,116,116,0,0,1,4.9-31.942c10.273-34.531,32.246-61.821,53.495-88.214,3.09-3.837,6.284-7.8,9.369-11.707,10.2-12.834,23.133-30.014,32.7-49.1,9.891-19.724,14.865-38.619,15.206-57.762a94.73,94.73,0,0,0-5.265-31.751,106.5,106.5,0,0,0-15.284-29.073,82.9,82.9,0,0,0-22.94-21.38,57.027,57.027,0,0,0-25.062-8.513q-1.581-.132-3.167-.165c-17.9-.353-33.336,7.973-48.261,16.023-3.968,2.14-8.071,4.354-12.146,6.361-7.7,3.765-19.571,8.422-32.416,9.238-12.65.8-23.54-2.259-32.372-9.1a45.665,45.665,0,0,1-11.828-13.518,57.455,57.455,0,0,1-6.133-16.268c-2.611-11.57-2.691-24.127-2.777-37.42-.143-22.352-.291-45.463-13.524-63.162A51.519,51.519,0,0,0,783.917,5C776.089,1.778,766.9.1,756.624,0c-16-.146-34.848,3.447-57.608,10.986-22.286,7.379-45.776,15.512-66.456,26.571-23.447,12.54-39.972,27.11-50.52,44.547-6.23,10.252-10.513,21.56-14.657,32.493-4.324,11.412-8.8,23.21-15.518,34.029a70.007,70.007,0,0,1-28.871,25.751,50.176,50.176,0,0,1-18.387,4.914,37.385,37.385,0,0,1-18.432-3.48c-7.437-3.528-13.293-9.111-18.957-14.508a105.488,105.488,0,0,0-12.96-11.072,78.187,78.187,0,0,0-12.724-7.111c-6.676-2.935-12.891-3.976-19-3.178a35.134,35.134,0,0,0-15.842,6.526c-9.717,6.826-17.921,17.821-25.853,28.452-8.805,11.8-17.122,22.947-26.761,27.527-17.329,8.235-35.109,10.521-52.3,12.733-31.245,4.02-60.757,7.816-82.8,46.563-10.9,19.167-15.994,41.229-20.917,62.566-2.758,11.952-5.609,24.309-9.452,36.051-4.311,13.172-9.439,24.143-15.675,33.537-7.5,11.3-17.607,21.805-30.892,32.114-11.849,9.194-25.1,17.4-37.912,25.342C89.811,460.227,75,469.4,61.993,480.032a171.657,171.657,0,0,0-49.039,65.426,162.732,162.732,0,0,0-11.3,39.919,152.623,152.623,0,0,0-.377,42.161A138.358,138.358,0,0,0,13,667.463a157.739,157.739,0,0,0,22.533,35.329,161.468,161.468,0,0,0,30.74,28.234,144.29,144.29,0,0,0,36.339,18.649,132.141,132.141,0,0,0,25.614,5.954c5.5.7,11.111,1.084,16.538,1.452,11.05.751,22.471,1.52,33.441,5.058,12.375,4.01,24.388,11.439,36.727,22.708,10.919,9.973,20.8,21.7,30.359,33.032l.557.661a355.547,355.547,0,0,0,28.39,30.083,254.517,254.517,0,0,0,31.781,25.588c21.788,14.64,43.041,22.892,63.276,24.586q3.262.273,6.488.318c13.348.189,26.983-2.382,41.685-7.858,13.12-4.887,25.893-11.6,38.245-18.089,14.56-7.651,29.617-15.561,45.478-20.636C516.38,847.676,530.622,845.885,544.719,847.066Z" transform="translate(134.534 181)" fill="none" stroke="#e7dffb" stroke-miterlimit="10" stroke-width="1.122"/>
      <path id="Stroke_37" data-name="Stroke 37" d="M496.582,781.251q2.073.174,4.136.434c16.7,2.112,34.415,8.748,54.157,20.287,16.934,9.9,33.056,22,49.456,34.556,3.145,2.412,6.354,4.908,9.457,7.325,28.4,22.1,57.756,44.956,90.29,41.865,6.212-.591,11.633-3.409,17.37-6.39,1.8-.934,3.658-1.9,5.552-2.8,4.028-1.91,8.11-3.813,12.433-5.831,18.163-8.47,36.945-17.226,53.776-27.437,19.236-11.668,32.19-23.112,39.6-34.985,1.858-11.459-.55-21.853-3.1-32.858a156.04,156.04,0,0,1-3.437-18.1c-1.407-12.816.48-26.67,5.457-40.066a99.047,99.047,0,0,1,23.516-36.31c13.268-12.874,29.818-21.96,45.822-30.748,8.622-4.732,17.537-9.627,25.794-15.041,12.992-8.546,23.8-18.864,31.24-29.837,8.865-13.064,12.807-26.634,11.716-40.333a58.088,58.088,0,0,0-4.96-19.444,72.8,72.8,0,0,0-10.354-16.407c-8.323-10.168-18.882-18.856-30.061-28.053-18.071-14.868-36.758-30.241-45.549-52.53a79.513,79.513,0,0,1-5.3-28.957,109.969,109.969,0,0,1,3.87-28.849c8.2-30.792,26.147-55.476,43.5-79.349,2.773-3.817,5.641-7.761,8.4-11.641,8.409-11.74,19.045-27.418,26.712-44.616,7.949-17.829,11.718-34.826,11.524-51.964a89.113,89.113,0,0,0-5.337-28.421,100.421,100.421,0,0,0-13.963-26.1,78.6,78.6,0,0,0-20.559-19.471,53.058,53.058,0,0,0-24.093-8.47q-.515-.043-1.031-.074c-15.835-.93-29.6,5.568-42.907,11.852-3.6,1.7-7.327,3.459-11.028,5.039-9.941,4.242-19.949,6.6-28.942,6.829-11.284.273-21.02-2.7-28.945-8.872a43.994,43.994,0,0,1-10.832-12.169,54.528,54.528,0,0,1-5.955-14.509c-2.707-10.288-3.261-21.909-3.8-33.146-.941-19.7-1.914-40.065-14.08-55.714A48.621,48.621,0,0,0,736.189,4.832,69.117,69.117,0,0,0,711.625.037c-18.612-.515-38.456,4.518-51.762,8.35C639.1,14.363,617.2,20.968,597.758,30.156c-22.08,10.432-37.989,22.792-48.634,37.789-6.356,8.9-11.043,18.766-15.578,28.307-4.655,9.8-9.47,19.931-16.162,29.277A70.091,70.091,0,0,1,489.8,148.075a51.028,51.028,0,0,1-17.166,4.495,37.543,37.543,0,0,1-17.207-2.671c-7.021-2.913-12.695-7.571-18.182-12.076a103.628,103.628,0,0,0-12.33-9.131,76.083,76.083,0,0,0-11.994-5.832,34.553,34.553,0,0,0-17.608-2.3,36.142,36.142,0,0,0-14.9,5.916c-9.2,6.042-17.118,15.632-24.77,24.908-8.575,10.395-16.675,20.213-25.943,24.435-16.082,7.327-32.572,9.621-48.52,11.838-29.277,4.074-56.93,7.921-78.124,41.946-10.447,16.772-15.885,36.143-21.144,54.877-5.855,20.859-11.909,42.426-24.894,60.837-6.936,9.833-16.09,19.06-27.986,28.209-10.609,8.158-22.384,15.512-33.771,22.624-13.237,8.266-26.924,16.817-38.931,26.711a157.506,157.506,0,0,0-44.324,59.231A149.4,149.4,0,0,0,1.658,518.149,141.311,141.311,0,0,0,.98,556.324a128.077,128.077,0,0,0,10.8,37.936,147.979,147.979,0,0,0,21.269,33.549,155.958,155.958,0,0,0,29.148,26.95A142.865,142.865,0,0,0,96.63,672.9a135.346,135.346,0,0,0,24.157,6.213c5.2.831,10.519,1.38,15.66,1.913,10.392,1.074,21.139,2.185,31.473,5.668,11.929,4.044,23.52,11.135,35.435,21.678,10.629,9.406,20.4,20.557,29.495,31.171,18.359,21.427,36.7,38.717,54.522,51.391,21.462,15.265,42.214,23.83,61.684,25.462.134.012.267.022.4.032,11.88.941,24.041-.437,37.175-4.209,11.73-3.37,23.2-8.314,34.284-13.094,12.942-5.581,26.326-11.352,40.46-14.806A108.53,108.53,0,0,1,496.582,781.251Z" transform="translate(168.534 229)" fill="none" stroke="#e7dffb" stroke-miterlimit="10" stroke-width="1.122"/>
      <path id="Stroke_41" data-name="Stroke 41" d="M448.024,714.734q4.55.381,9.012,1.172c32.023,5.665,63.314,27.777,90.923,47.286q1.7,1.2,3.384,2.391c2.219,1.565,4.483,3.178,6.673,4.738,27.229,19.392,55.389,39.441,84.721,33.671,5.81-1.14,10.586-4.421,15.643-7.892,1.972-1.356,4.012-2.755,6.133-4.034,11.908-7.172,25.693-14.1,39.024-20.811,26.935-13.548,54.787-27.559,70.344-44.884,2.512-9.724,1.449-18.6.322-28a136.084,136.084,0,0,1-1.244-15.339c-.076-11.018,2.611-22.887,7.77-34.325a98.282,98.282,0,0,1,22.635-31.508c11.843-10.908,26.166-18.988,40.015-26.8,8.275-4.668,16.832-9.494,24.709-14.851,11.591-7.911,21.245-17.349,27.918-27.3,7.937-11.829,11.608-24.115,10.911-36.516a54.877,54.877,0,0,0-3.894-17.587,67.177,67.177,0,0,0-8.549-15.028c-6.927-9.377-15.8-17.5-25.2-26.105-14.914-13.659-30.337-27.78-37.788-47.549-7.086-18.7-4.939-38.369-1.89-51.578,6.294-27.256,20.4-49.487,34.05-70.986,2.292-3.613,4.664-7.349,6.938-11.021,7.043-11.365,15.011-25.017,20.725-40.117,6.027-15.931,8.6-31.016,7.876-46.121a82.862,82.862,0,0,0-5.414-25.083,94.7,94.7,0,0,0-12.654-23.124,74.662,74.662,0,0,0-18.2-17.554,49.669,49.669,0,0,0-22.048-8.378c-.431-.048-.861-.09-1.289-.126-13.3-1.114-25.052,3.445-36.433,7.856-3.2,1.241-6.509,2.524-9.8,3.658a73.307,73.307,0,0,1-25.5,4.4c-9.928-.231-18.521-3.138-25.541-8.626a42.721,42.721,0,0,1-9.842-10.808,52.037,52.037,0,0,1-5.785-12.732c-2.805-9-3.833-19.081-4.826-28.835-1.737-17.041-3.531-34.665-14.65-48.263A46.069,46.069,0,0,0,689.193,4.725,63.426,63.426,0,0,0,670.027.3q-1.336-.111-2.7-.182c-15.772-.81-32.843,2.636-45.953,5.726l-.012-.05.012.05c-19.207,4.531-39.493,9.569-57.832,16.935C542.825,31.1,527.524,41.25,516.763,53.806c-6.533,7.57-11.668,16.02-16.634,24.191-4.954,8.151-10.077,16.581-16.7,24.424a72.048,72.048,0,0,1-26.318,19.327c-11.349,4.755-22.4,5.515-31.956,2.209-6.618-2.29-12.116-6.016-17.433-9.62a105.42,105.42,0,0,0-11.705-7.2,76.678,76.678,0,0,0-11.278-4.554,34.734,34.734,0,0,0-16.218-1.439,38.032,38.032,0,0,0-13.957,5.3c-8.7,5.261-16.33,13.457-23.712,21.382-8.364,8.979-16.263,17.46-25.175,21.318-14.844,6.424-30.054,8.721-44.763,10.941-27.338,4.128-53.159,8.027-73.546,37.3-10.015,14.382-15.822,31.07-21.438,47.209-6.184,17.771-12.578,36.146-24.636,52-6.354,8.348-14.543,16.277-25.036,24.242-9.356,7.1-19.648,13.577-29.6,19.842-12.217,7.688-24.849,15.639-35.9,24.829a143.463,143.463,0,0,0-39.669,53,135.734,135.734,0,0,0-9.427,32.178A129.541,129.541,0,0,0,.7,484.849a117.467,117.467,0,0,0,9.871,35.926A138.074,138.074,0,0,0,30.6,552.526a150.443,150.443,0,0,0,27.593,25.649,139.1,139.1,0,0,0,55.3,24.1c4.924.958,9.955,1.682,14.822,2.38,9.742,1.4,19.816,2.842,29.514,6.265,25.694,9.128,45.62,30.218,62.278,49.272,17.388,19.888,33.39,35.288,48.919,47.084a166.249,166.249,0,0,0,26.816,16.876,99.285,99.285,0,0,0,27.659,9.191,96,96,0,0,0,32.794-.542c10.379-1.851,20.583-5.024,30.451-8.094,11.28-3.509,22.943-7.137,35.3-8.98A111.766,111.766,0,0,1,448.024,714.734Z" transform="translate(202.534 278)" fill="none" stroke="#e7dffb" stroke-miterlimit="10" stroke-width="1.122"/>
      <path id="Stroke_45" data-name="Stroke 45" d="M397,647.157a107.452,107.452,0,0,1,16.35,2.631c11.413,2.749,23.835,7.811,37.975,15.471,12.477,6.76,24.66,14.619,36.443,22.217,3.649,2.354,7.1,4.579,10.573,6.784q1.192.759,2.389,1.517c26.6,16.9,54.1,34.381,80.645,26.1,5.538-1.727,9.809-5.468,14.33-9.429,2.007-1.759,4.084-3.578,6.3-5.223,17.033-12.668,38.406-22.952,59.074-32.9,20.538-9.882,39.937-19.216,53.851-30.2,3.192-8.017,3.479-15.4,3.784-23.211.157-4.025.32-8.189.911-12.468A82.573,82.573,0,0,1,729.7,579.894,101.538,101.538,0,0,1,751.457,553.2c10.291-8.877,22.288-15.85,33.89-22.595,8.039-4.672,16.35-9.5,23.934-14.889,10.185-7.265,18.688-15.819,24.592-24.735,7.006-10.584,10.407-21.58,10.109-32.683a52.221,52.221,0,0,0-2.829-15.753,62.576,62.576,0,0,0-6.751-13.679c-5.535-8.6-12.729-16.186-20.343-24.218-11.747-12.389-23.894-25.2-30-42.38-5.857-16.388-4.511-33.685-2.351-45.314,4.346-23.4,14.5-42.924,24.323-61.808,1.9-3.661,3.872-7.446,5.745-11.162,5.128-10.178,10.892-22.365,14.751-35.577a105.437,105.437,0,0,0,4.209-40.261c-1.4-14.237-7.533-29.488-16.836-41.844-9.9-13.148-22.258-21.618-34.806-23.854-11.847-2.114-22.394.812-32.6,3.636-2.777.771-5.648,1.566-8.5,2.245a69.609,69.609,0,0,1-21.851,1.994l-.209-.018a40.916,40.916,0,0,1-22.132-8.373c-6.47-5.089-11.194-11.746-14.441-20.35-2.9-7.682-4.394-16.212-5.841-24.462C671,42.707,668.391,27.8,658.274,16.258A43.868,43.868,0,0,0,642.2,4.729,62.258,62.258,0,0,0,623.143.313L623.016.3C609.951-.77,596,1.182,582.873,3.449l-.009-.051.009.051C566.144,6.34,546.829,9.9,529.313,15.535c-19.3,6.214-33.993,14.147-44.913,24.25-6.771,6.265-12.173,13.005-17.892,20.141A205.381,205.381,0,0,1,449.473,79.4c-11.833,11.5-30.485,21.3-47.9,19.845a38.214,38.214,0,0,1-6.684-1.153c-6.221-1.662-11.546-4.448-16.7-7.143a114.337,114.337,0,0,0-11.067-5.285,79.737,79.737,0,0,0-10.561-3.271c-9.476-2.3-18.577-.972-27.817,4.087-8.188,4.484-15.544,11.293-22.656,17.878-8.162,7.556-15.871,14.691-24.426,18.172-13.595,5.53-27.514,7.823-40.974,10.04-12.834,2.114-24.957,4.112-36.6,8.688a76.756,76.756,0,0,0-16.885,9.093,77.652,77.652,0,0,0-15.506,14.844c-9.613,12.006-15.824,26.036-21.831,39.6-6.483,14.643-13.188,29.785-24.278,43.035-12.772,15.254-30.317,26.385-47.286,37.151-11.273,7.153-22.93,14.55-33.087,23.087a129.534,129.534,0,0,0-35.029,46.746,121.713,121.713,0,0,0-8.5,28.274A117.3,117.3,0,0,0,.457,413.214c1.991,22.394,11.574,44.466,27.714,63.823a145.236,145.236,0,0,0,26.045,24.328A142.656,142.656,0,0,0,84.925,518.46a151.11,151.11,0,0,0,21.293,6.719c4.653,1.092,9.412,1.991,14.014,2.861,9.079,1.714,18.469,3.489,27.52,6.844,10.924,4.076,21.48,10.293,32.27,19,8.588,6.934,17.28,15.4,27.354,26.649,16.592,18.526,30.352,32.109,43.3,42.747,16.911,13.9,32.243,22.6,46.869,26.622,20.246,5.565,37.328,2.925,55.412.133,9.492-1.466,19.309-2.983,29.739-3.253A130.179,130.179,0,0,1,397,647.157Z" transform="translate(237.534 327)" fill="none" stroke="#e7dffb" stroke-miterlimit="10" stroke-width="1.122"/>
      <path id="Stroke_49" data-name="Stroke 49" d="M332.344,578.119c3.44.288,6.955.657,10.569,1.158a149.741,149.741,0,0,1,26.259,5.823c18.705,6.1,37.729,17.3,56.126,28.135,6.736,3.965,13.1,7.709,19.44,11.215,12.235,6.762,25.249,13.684,38.029,17.512,14.181,4.252,26.136,4.039,36.54-.641,5.3-2.387,9.153-6.586,13.228-11.033,1.968-2.145,4-4.364,6.225-6.375,9.238-8.355,21-16.167,35.953-23.886,13.192-6.808,27.1-12.67,40.542-18.338,14.578-6.145,28.349-11.954,39.837-18.381,3.948-6.4,5.629-12.371,7.407-18.692.852-3.031,1.734-6.164,2.893-9.4,5.717-15.953,18.137-32.687,33.225-44.765,8.479-6.751,17.946-12.451,27.1-17.964a277.141,277.141,0,0,0,23.748-15.419c11.284-8.534,30.254-26.524,30.53-51.125.223-20.049-10.676-34.112-22.215-49-8.554-11.039-17.4-22.454-22.123-36.964a77.15,77.15,0,0,1-3.558-19.6,107.742,107.742,0,0,1,.747-19.53c2.434-19.344,8.67-35.99,14.7-52.087,1.474-3.93,3-8,4.413-11.977,3.2-8.981,6.737-19.7,8.765-31.1a101.587,101.587,0,0,0,.536-34.479,76.872,76.872,0,0,0-5.562-18.4,85.84,85.84,0,0,0-10.018-17.152c-8.452-11.213-18.866-18.963-29.322-21.82-9.882-2.7-18.844-1.552-27.516-.447-2.323.3-4.725.6-7.11.832a68.666,68.666,0,0,1-18.591-.451,41.152,41.152,0,0,1-18.693-8.134,46.522,46.522,0,0,1-13.224-17.162c-2.99-6.369-4.95-13.348-6.846-20.1-3.325-11.83-6.762-24.063-15.855-33.608C601.087,6.96,591.07,2.364,577.9.716c-11.154-1.393-22.56-.512-34.248.6C527.625,2.84,510.562,4.765,494.4,8.51c-17.826,4.129-31.875,9.881-42.95,17.583C444.2,31.13,438.1,36.657,431.655,42.508c-5.2,4.717-10.58,9.6-16.683,14.265-11.884,9.092-30.108,17.785-47.127,16.358q-1.865-.156-3.7-.477a95.6,95.6,0,0,1-15.931-4.645c-3.336-1.193-6.784-2.427-10.418-3.411a91.06,91.06,0,0,0-9.831-1.991q-1.456-.229-2.879-.347c-17.479-1.465-31,8.975-44.105,19.086-7.956,6.139-15.468,11.938-23.66,15.039-12.315,4.664-24.91,6.954-37.091,9.166-11.815,2.148-22.973,4.176-33.82,8.184a83.888,83.888,0,0,0-15.82,7.715,76.9,76.9,0,0,0-14.753,12.106c-9.273,9.7-15.663,20.651-22.429,32.24-6.7,11.484-13.636,23.361-23.654,33.973C98.557,211.624,84.195,220.841,70.3,229.757c-10.469,6.717-21.294,13.665-30.664,21.684a117.8,117.8,0,0,0-17.467,18.647,113.34,113.34,0,0,0-12.9,21.928A108,108,0,0,0,1.712,316.44,105.181,105.181,0,0,0,.25,342.577c1.445,20.97,10.253,41.75,25.474,60.089A139.956,139.956,0,0,0,50.2,425.715a143.952,143.952,0,0,0,28.816,16.592,164.718,164.718,0,0,0,19.833,6.98c4.4,1.242,8.909,2.33,13.265,3.383,8.38,2.025,17.047,4.12,25.414,7.4a126.249,126.249,0,0,1,30.639,17.7A205.709,205.709,0,0,1,194.417,502.2c12.6,13.722,24.965,26.991,37.621,38.486,14.474,13.148,27.3,22.052,39.218,27.224,17.523,7.608,32.578,8.469,48.512,9.381C323.868,577.52,328.048,577.759,332.344,578.119Z" transform="translate(271.534 375)" fill="none" stroke="#e7dffb" stroke-miterlimit="10" stroke-width="1.122"/>
      <path id="Stroke_53" data-name="Stroke 53" d="M305.507,43.933c-1.866-.157-3.743-.257-5.741-.358-16.622-.836-30.314,7.483-43.555,15.526-7.754,4.711-15.077,9.161-22.908,11.862-11.017,3.8-22.267,6.08-33.148,8.283-10.813,2.188-21.026,4.255-31.1,7.7A89.859,89.859,0,0,0,140.193,102.6c-9.173,7.515-16.255,16.145-23.754,25.282-6.708,8.172-13.645,16.626-22.347,24.436C84.879,160.584,74.012,167.6,63.5,174.391c-10.052,6.492-20.447,13.205-29.331,20.978a105.9,105.9,0,0,0-14.762,15.893,99.3,99.3,0,0,0-11,18.471A92.14,92.14,0,0,0,.094,272.4a86.122,86.122,0,0,0,6.95,29.937,107.607,107.607,0,0,0,16.279,26.367,135.031,135.031,0,0,0,22.951,21.746,147.208,147.208,0,0,0,26.965,16.075,190.225,190.225,0,0,0,18.393,7.238c4.191,1.406,8.479,2.7,12.626,3.956a242.669,242.669,0,0,1,23.239,7.9c19.4,8.114,37.642,21.083,54.218,38.549,4.627,4.877,9.286,9.924,13.792,14.806,17.078,18.507,33.21,35.984,49.805,47.192,16.161,10.91,29.852,15.748,45.7,21.349,4.028,1.426,8.194,2.9,12.544,4.522l2.561.955c5.791,2.153,12.355,4.593,19.337,7.686,11,4.871,22.611,11.25,33.842,17.421,10.733,5.9,21.832,11.992,32.381,16.766,18.32,8.294,28.474,10.47,34.519,11.387q2.309.351,4.522.537c10.533.884,19.447-1.038,27.145-5.825,5.039-3.132,8.539-7.762,12.245-12.663,1.9-2.515,3.866-5.114,6.054-7.485,23.208-25.143,60.173-37.573,92.788-48.541,9.6-3.227,18.662-6.275,27.062-9.521a97.749,97.749,0,0,0,11.991-14.937c1.243-1.786,2.528-3.635,3.923-5.541a158.585,158.585,0,0,1,34.639-34.224c6.114-4.367,12.617-8.393,18.906-12.287,8.51-5.27,17.312-10.718,25.027-16.962a82.506,82.506,0,0,0,17.878-19.682,52.98,52.98,0,0,0,8.513-25.1c1.1-17.613-6.526-30.978-14.6-45.128-5.366-9.412-10.916-19.146-14.223-30.692-2.719-9.4-3.82-20.473-3.271-32.9.646-14.642,3.139-27.8,5.551-40.521.948-5.01,1.845-9.739,2.638-14.568a189.317,189.317,0,0,0,2.8-26.593,105.009,105.009,0,0,0-3.135-28.665,84.872,84.872,0,0,0-14.344-29.222c-7.117-9.4-15.372-16.239-23.875-19.772-8-3.325-15.466-3.973-22.687-4.6-1.8-.155-3.663-.317-5.51-.517-9.723-1.057-20.941-3.162-30.418-10.77-10.247-8.239-15.07-19.024-19.733-29.453-4.162-9.308-8.465-18.931-16.612-26.524C544.585.214,522.673.1,505.066.01c-28.385-.15-60.807,1.3-86.047,13.182A238.332,238.332,0,0,0,395.48,26.33c-4.626,2.818-9.408,5.73-14.515,8.577-9.7,5.411-28.728,14.3-47.125,13.051q-.657-.046-1.306-.1c-4.891-.41-9.434-1.217-13.838-2-3.166-.564-6.438-1.144-9.818-1.574C307.743,44.141,306.627,44.026,305.507,43.933Z" transform="translate(306.534 422)" fill="none" stroke="#e7dffb" stroke-miterlimit="10" stroke-width="1.122"/>
      <path id="Stroke_57" data-name="Stroke 57" d="M448.185.929c-23.608-1.981-44.4-.792-62,3.559-11.717,2.865-22.641,6.735-34.2,10.831l-5.367,1.9c-11.233,3.953-27.982,9.317-43.676,10.276-4.827.294-9.458.381-13.936.463-3.2.059-6.391.118-9.671.249-2.521.1-5.049.305-7.493.5l-.871.069C256.661,29.914,243.589,35.6,230.948,41.1a212.253,212.253,0,0,1-22.107,8.652c-9.644,2.95-19.453,5.2-28.939,7.372-19.587,4.488-38.087,8.727-55.667,18.673C114.028,81.567,105.1,88.5,95.659,95.843c-5.55,4.315-11.292,8.776-17.49,13.142-5.82,4.1-12.026,8.024-18.027,11.821-10.964,6.937-22.3,14.112-31.65,22.556C9.814,160.286-.3,182.412.007,205.664c.54,40.587,35,71.964,67.068,87.795,5.268,2.595,10.8,5.038,16.9,7.473,4.1,1.636,8.311,3.208,12.379,4.724,6.82,2.546,13.871,5.178,20.719,8.222,20.238,9.021,37.678,20.858,51.838,35.186,10.874,11,20.678,22.965,30.157,34.533,6.99,8.532,13.594,16.589,20.247,23.808,15.225,16.521,28.186,28.194,44.736,40.29,4.888,3.572,10.526,7.152,17.489,11.426,17.434,10.705,37.633,22.655,56.723,28.954,27.755,9.155,46.365,7.715,56.889-4.413,3.749-4.321,7.111-9.051,10.362-13.625,2.165-3.047,4.4-6.2,6.767-9.249,20.508-26.3,54.717-35.706,87.8-44.8,12.757-3.507,24.808-6.817,36.018-11.038,6.33-2.385,11.341-5.866,16.644-9.549,1.537-1.069,3.1-2.152,4.721-3.231,2.639-1.754,5.412-3.623,8.3-5.568,8.38-5.645,17.879-12.043,27.791-18.146q2.789-1.71,5.581-3.4c10.865-6.587,22.1-13.4,31.328-21.638,12.553-11.252,20.154-24.368,21.981-37.928,2.158-16.024-2.316-29.671-7.051-44.118-2.213-6.749-4.5-13.726-6.241-21.275a175.15,175.15,0,0,1-3.753-26.819c-.547-7.313-.869-14.358-1.181-21.169-.393-8.624-.767-16.771-1.552-24.953-1.253-13.046-3.411-28.561-9.923-44.712-6.746-16.641-18.709-32.06-31.219-40.235-6.353-4.152-12.3-6.643-18.606-9.281l-3.356-1.413c-7.417-3.15-15.825-6.721-23.452-12.947-7.92-6.475-13.436-13.9-18.769-21.073-5.445-7.326-10.587-14.245-18-20.025C496.159,7.193,478.6,4.722,465.774,2.918Q456.74,1.646,448.185.929Z" transform="translate(340.534 466)" fill="none" stroke="#e7dffb" stroke-miterlimit="10" stroke-width="1.122"/>
      <path id="Stroke_65" data-name="Stroke 65" d="M378.014.829A269.841,269.841,0,0,0,334.166.96C303,3.43,271.375,10.375,241.846,17.511c-43.01,10.4-86.7,21.949-133.574,35.318C78.462,61.313,54.344,71.986,36.587,84.55,25.545,92.365,16.883,101,10.844,110.215a64.465,64.465,0,0,0-6.367,59.372,84.817,84.817,0,0,0,13.4,22.632c13.1,16.175,30.261,27.447,42.345,34.055,9.507,5.2,19.591,9.936,29.343,14.519,22.466,10.556,45.7,21.472,63.979,38.941,8.07,7.728,15.554,17.212,22.883,28.993,6.537,10.511,12.36,21.86,17.993,32.836,8.076,15.735,16.427,32.008,27.09,46.268a97.9,97.9,0,0,0,14.239,15.125,107.445,107.445,0,0,0,17.306,12.179c11.8,6.668,24.058,10.662,35.648,11.634.949.079,1.89.138,2.828.177,16.038.664,29.638-4.735,39.332-15.611,4.044-4.537,7.165-9.585,10.47-14.928,1.907-3.084,3.879-6.271,6.049-9.361,11.881-16.921,29.939-29.428,55.2-38.238,22.14-7.719,46.263-11.542,69.591-15.237l2.789-.443c80.619-12.8,105.007-46.315,111.269-72.177,5.786-23.9,4.893-49.858-2.655-77.17a222.249,222.249,0,0,0-14.627-38.194,271.963,271.963,0,0,0-21.422-36.205,302.64,302.64,0,0,0-57.009-61.234C469.089,30.823,446.431,17.8,425,10.474h0A192.753,192.753,0,0,0,378.014.829Z" transform="translate(381.534 508)" fill="none" stroke="#e7dffb" stroke-miterlimit="10" stroke-width="1.122"/>
      <path id="Stroke_69" data-name="Stroke 69" d="M330.678.744A238.862,238.862,0,0,0,293.8.68c-28.158,2-56.873,8.245-81.249,14.094-36.383,8.735-74.81,19.055-117.48,31.553C68.972,53.937,47.85,63.441,32.291,74.57c-9.672,6.919-17.275,14.551-22.6,22.684A57.816,57.816,0,0,0,.051,126.839c-.62,14.806,4.466,29.181,15.116,42.728,8.858,11.267,21.45,21.686,36.415,30.131,8.233,4.645,17,8.92,25.472,13.053,19.522,9.523,39.709,19.37,55.9,34.8a128.583,128.583,0,0,1,19.966,25.281c5.705,9.163,10.793,19.054,15.711,28.62,7.131,13.868,14.506,28.211,23.962,40.746a92.089,92.089,0,0,0,27.653,24.076c10.535,6.029,21.531,9.648,31.916,10.519q.858.072,1.71.12c14.089.772,26.139-3.7,34.849-12.937a111.389,111.389,0,0,0,9.947-12.841c1.665-2.377,3.386-4.833,5.261-7.316,11.194-14.832,27.854-26.027,50.933-34.225,20.167-7.165,42.767-11.155,62.706-14.675l.236-.042C442.089,290.589,462.318,283.9,477.93,275A87.645,87.645,0,0,0,501.3,256.275a62.19,62.19,0,0,0,13.512-26.336c4.971-21.006,4.121-43.813-2.525-67.787a196.651,196.651,0,0,0-12.843-33.532,240.177,240.177,0,0,0-18.761-31.791,267.384,267.384,0,0,0-49.863-53.84c-18.73-15.249-38.542-26.779-57.294-33.341A172.434,172.434,0,0,0,330.678.744Z" transform="translate(427.534 528)" fill="none" stroke="#e7dffb" stroke-miterlimit="10" stroke-width="1.122"/>
      <path id="Stroke_73" data-name="Stroke 73" d="M292.243.674A214.55,214.55,0,0,0,261.368.443C235.7,2,210.377,7.392,188.993,12.462,157.248,20,124.027,29.07,84.442,41.013,61.335,47.938,42.63,56.5,28.844,66.464c-8.569,6.192-15.32,13.009-20.067,20.255A52.286,52.286,0,0,0,.066,113.025c-.663,13.206,3.643,26.019,12.8,38.08,7.591,10,18.486,19.321,31.506,26.943,7.2,4.216,14.9,8.141,22.353,11.937C83.815,198.694,101.488,207.7,116,221.45c13.851,13.231,22.847,30.62,31.546,47.436,6.358,12.293,12.933,25,21.381,36.1a79.466,79.466,0,0,0,22.32,19.842,71.56,71.56,0,0,0,27.107,9.682c13.745,1.791,26.227-1.312,36.073-8.974,3.847-2.991,6.807-6.881,9.939-11,1.365-1.794,2.777-3.648,4.344-5.55,10.613-12.874,25.941-22.9,46.863-30.661,17.632-6.536,36.705-10.572,56.327-14.466,21.586-4.283,39.431-10.54,53.044-18.6a78.509,78.509,0,0,0,20.521-16.979,56.584,56.584,0,0,0,11.83-23.671c4.294-18.637,3.47-38.852-2.451-60.082a175.574,175.574,0,0,0-11.4-29.71,214.357,214.357,0,0,0-16.605-28.168,238.6,238.6,0,0,0-44.071-47.776c-16.537-13.548-34.045-23.847-50.632-29.778A156.269,156.269,0,0,0,292.243.674Z" transform="translate(462.534 543)" fill="none" stroke="#e7dffb" stroke-miterlimit="10" stroke-width="1.122"/>
      <path id="Stroke_77" data-name="Stroke 77" d="M253.745.6A189.6,189.6,0,0,0,228.937.24c-18.14.863-37.723,3.934-63.5,9.961-27.033,6.33-56.147,14.458-91.622,25.579C53.707,42.023,37.417,49.654,25.4,58.467,9.549,70.092,1.033,83.855.089,99.375-.619,111,2.906,122.265,10.567,132.856c6.33,8.752,15.528,16.976,26.6,23.783,6.2,3.811,12.581,7.245,19.337,10.878,14.642,7.875,29.781,16.02,42.553,28.121,12.066,11.433,19.892,26.5,27.462,41.068,5.567,10.718,11.326,21.8,18.75,31.445a67.662,67.662,0,0,0,16.084,15.019,65.312,65.312,0,0,0,19.325,8.819c14.126,3.786,28.138,2.2,39.459-4.489,4.719-2.787,8.714-6.662,13.356-12.958,8.138-11.039,20.685-19.768,38.357-26.684,15.387-6.022,32.572-9.857,47.732-13.241,2.22-.5,4.315-.963,6.417-1.439,19.134-4.337,34.168-10.01,45.956-17.34a69.4,69.4,0,0,0,17.67-15.25,51.092,51.092,0,0,0,10.148-21.034c3.619-16.288,2.821-33.933-2.371-52.45a154.881,154.881,0,0,0-9.961-25.92A188.792,188.792,0,0,0,372.994,76.6a210.03,210.03,0,0,0-38.279-41.765c-14.346-11.864-29.549-20.941-43.97-26.248A139.9,139.9,0,0,0,253.745.6Z" transform="translate(496.534 558)" fill="none" stroke="#e7dffb" stroke-miterlimit="10" stroke-width="1.122"/>
      <path id="Stroke_81" data-name="Stroke 81" d="M214.23.544C188.516-1.611,162.674,3,141.21,7.95c-28.4,6.555-55.685,15.14-78.633,22.671C22.862,43.66,1.848,62.023.119,85.2-1.7,109.61,17.782,126.285,29.558,134.05c5.211,3.436,10.646,6.593,16.4,9.935,12.191,7.082,24.8,14.4,35.89,24.9,10.365,9.806,17.066,22.652,23.546,35.076,4.77,9.144,9.7,18.6,16.061,26.774,14.726,18.933,40.128,26.13,63.207,17.9,4.77-1.7,8.36-4.421,12.008-9.105,16.3-20.934,48.811-29.366,74.937-36.139,2.527-.654,5-1.3,7.4-1.934,36.7-9.74,56.818-25.269,61.5-47.479,9.759-46.311-29.257-121.736-92.345-145.936A123.072,123.072,0,0,0,214.23.544Z" transform="translate(531.534 573)" fill="none" stroke="#e7dffb" stroke-miterlimit="10" stroke-width="1.122"/>
      <path id="Stroke_85" data-name="Stroke 85" d="M176.471.467q-6.006-.5-12.394-.464c-13.52.081-28.48,2.007-45.732,5.89C95.065,11.151,72.047,18.826,52.6,25.64,19.654,37.187,2.016,53.013.173,72.68A39.16,39.16,0,0,0,6.008,97.1,61.788,61.788,0,0,0,22.79,114.67c4.351,3.164,8.967,6.133,13.854,9.278,9.544,6.138,19.412,12.487,28.539,21.08,8.429,7.939,13.927,18.387,19.244,28.492,4.007,7.615,8.15,15.49,13.534,22.294a65.558,65.558,0,0,0,17.326,15.1c6.766,4.055,13.6,6.466,19.774,6.984.106.009.21.018.317.025,6.633.489,12.069-1.212,16.159-5.059l.009-.01.013,0A27.563,27.563,0,0,0,163.073,207c15.113-12.335,39.037-23.777,71.108-34.01,13.745-4.384,23.84-9.114,31.768-14.883a51.855,51.855,0,0,0,11.973-11.866,40.971,40.971,0,0,0,6.786-15.869c2.28-11.649,1.541-24.23-2.2-37.4A125.437,125.437,0,0,0,265.3,57.011a153.588,153.588,0,0,0-26.7-29.934c-9.964-8.547-20.56-15.221-30.642-19.3A106.831,106.831,0,0,0,176.471.467Z" transform="translate(564.534 586)" fill="none" stroke="#e7dffb" stroke-miterlimit="10" stroke-width="1.122"/>
      <path id="Stroke_89" data-name="Stroke 89" d="M137.556.387C124.688-.689,110.519.479,94.821,3.878,76.361,7.895,58.539,14.3,42.029,20.627c-11.148,4.272-20.186,9.152-26.86,14.5C6.368,42.188,1.354,50.282.266,59.19a33.7,33.7,0,0,0,3.51,19.794A47.359,47.359,0,0,0,15.647,93.366c3.693,3.113,7.779,6.148,12.106,9.362a229.9,229.9,0,0,1,20.529,16.551c6.613,6.165,10.951,14.271,15.147,22.108,3.221,6.02,6.553,12.245,10.905,17.6A59.784,59.784,0,0,0,88.9,171.719c5.721,3.54,11.414,5.673,16.462,6.169.118.012.236.022.354.032,4.686.392,8.565-.657,11.538-3.117l.018-.014h.022l.682.053a13.593,13.593,0,0,0,9.9-2.311c17.9-11.652,43.724-23.548,60.394-30.192,14.244-5.679,20.9-10.466,24.66-13.572,7.978-6.584,12.632-14.227,14.228-23.364,3.114-17.82-2.464-38.51-15.7-58.261C199.544,29.378,182.762,14.562,166.562,7.5A90.978,90.978,0,0,0,137.556.387Z" transform="translate(599.534 601)" fill="none" stroke="#e7dffb" stroke-miterlimit="10" stroke-width="1.122"/>
      <path id="Stroke_93" data-name="Stroke 93" d="M98.651.29a96.7,96.7,0,0,0-27.3,1.838c-8.273,1.688-18.82,4.518-39.8,13.723-8.241,3.617-14.673,7.445-19.664,11.7C5.437,33.06,1.6,39.23.477,45.9c-1.659,9.856,1,18.468,8.14,26.33C12.787,76.821,18.1,81.6,24.251,87.12c2.323,2.087,4.726,4.246,7.216,6.53,4.8,4.4,7.983,10.169,11.06,15.749,2.431,4.407,4.945,8.965,8.249,12.85a54.129,54.129,0,0,0,16.631,13.168c6.485,3.182,12.029,3.673,15.616,1.389l.029-.019.03.018c.146.087.295.177.444.269,2.206,1.333,4.951,2.985,9.183,1.025,10.288-4.774,23.382-11.973,34.936-18.323,5.3-2.914,10.309-5.668,14.692-7.993,5.349-2.842,12.175-6.8,17.538-12.2a32.775,32.775,0,0,0,9.692-18.994c1.871-13.2-2.378-28.513-11.965-43.108-8.575-13.054-20.7-24.27-32.436-30A73.865,73.865,0,0,0,98.651.29Z" transform="translate(633.534 616)" fill="none" stroke="#e7dffb" stroke-miterlimit="10" stroke-width="1.122"/>
      <path id="Stroke_97" data-name="Stroke 97" d="M49.552,100.883l.022.032c1.346,1.978,3.26,4.794,6.485,5.063a6.808,6.808,0,0,0,2.228-.2c14.493-3.631,33.5-18.344,38.975-22.769,12.772-10.311,15.07-18.852,15.633-25.846a39.28,39.28,0,0,0-1.758-14.514,59.151,59.151,0,0,0-6.442-13.97C99.325,20.03,92,12.476,84.589,7.954,73.143.968,61.025-1.433,48.569.817,38.727,2.611,29.827,7.1,21.674,11.688A59.62,59.62,0,0,0,9.142,20.735a27.619,27.619,0,0,0-7.924,12.85C-.66,41.008-.376,46.81,2.138,52.4,3.657,55.765,7.38,62.481,15.254,69.584c3.008,2.712,5.058,6.239,7.04,9.646a47.065,47.065,0,0,0,5.568,8.186c6.188,6.8,14.525,13.149,19.827,13.594a5.635,5.635,0,0,0,1.827-.118Z" transform="translate(666.534 629)" fill="none" stroke="#e7dffb" stroke-miterlimit="10" stroke-width="1.122"/>
      <path id="Stroke_101" data-name="Stroke 101" d="M33.86.053a15.643,15.643,0,0,0-3.2.066c-4.509.56-9.052,3.144-13.887,7.9A49.383,49.383,0,0,0,6.991,21.544a52.885,52.885,0,0,1-3.5,6.083,28.827,28.827,0,0,0-2.8,5.021A11.682,11.682,0,0,0,4.034,45.407,20.436,20.436,0,0,1,7.11,48.96,21.7,21.7,0,0,0,9.9,52.25a87.95,87.95,0,0,1,8.552,9.37c.962,1.172,1.8,2.185,2.474,2.932l.011.02c1.683,5.377,4.087,8.131,7.338,8.406.146.012.292.018.442.019,4.737.073,10.475-2.172,16.158-6.324A46.345,46.345,0,0,0,56.876,53.993c3.327-5.579,4.558-11.824,3.991-20.25a35.209,35.209,0,0,0-4.227-13.6A51.439,51.439,0,0,0,48.746,9a36.469,36.469,0,0,0-7.984-6.7A16.556,16.556,0,0,0,33.86.053Z" transform="translate(695.534 643)" fill="none" stroke="#e7dffb" stroke-miterlimit="10" stroke-width="1.122"/>
    </g>
  </g>
</svg>
