<?xml version="1.0" encoding="UTF-8"?>
<svg width="301px" height="91px" viewBox="0 0 301 91" version="1.1" xmlns="http://www.w3.org/2000/svg" xmlns:xlink="http://www.w3.org/1999/xlink">
    <!-- Generator: Sketch 60.1 (88133) - https://sketch.com -->
    <title>Asset 4@3x</title>
    <desc>Created with Sketch.</desc>
    <g id="Page-1" stroke="none" stroke-width="1" fill="none" fill-rule="evenodd">
        <g id="Asset-4" fill-rule="nonzero">
            <rect id="Rectangle" fill="#FFFFFF" x="0" y="0" width="90.74" height="90.74" rx="31.58"></rect>
            <path d="M64.56,57.67 C62.3523043,57.6759072 60.2006737,56.9750503 58.42,55.67 L56.2,58.27 C62.0912774,62.7412442 70.4569086,61.7905157 75.1946194,56.1113194 C79.9323302,50.432123 79.3677243,42.0315939 73.9126511,37.0374623 C68.4575779,32.0433306 60.0399631,32.2206167 54.8,37.44 L37.17,54.49 C31.6677229,59.990898 22.9453431,60.5748581 16.7588917,55.856516 C10.5724403,51.1381739 8.828836,42.5719167 12.6787097,35.8107478 C16.5285835,29.0495789 24.785246,26.1775685 32,29.09 L33.28,25.93 C24.4626694,22.3181727 14.333737,25.7958268 9.59461976,34.0621067 C4.85550256,42.3283867 6.97204993,52.8264616 14.54393,58.6106856 C22.1158101,64.3949097 32.8009759,63.676173 39.53,56.93 L57.19,39.87 C60.1682574,36.8738976 64.6607831,35.9725016 68.5642925,37.5878224 C72.4678018,39.2031433 75.0097253,43.0154821 75,47.24 C75.0000013,50.0079415 73.8997568,52.6623694 71.941589,54.6186615 C69.9834213,56.5749537 67.3279402,57.6726538 64.56,57.67 Z" id="Path" fill="#6555FF"></path>
            <path d="M78,33.84 C70.5904567,26.4798764 58.6295433,26.4798764 51.22,33.84 L33.59,50.84 C30.2548788,54.1733579 25.096901,54.8515893 21.0134298,52.4937148 C16.9299586,50.1358404 14.9388318,45.3295792 16.1585144,40.7747265 C17.378197,36.2198738 21.5046733,33.051763 26.22,33.05 C28.9614141,33.0390711 31.5947435,34.1183045 33.54,36.05 L20.66,48.54 L20.89,48.79 C21.6414859,49.5469988 22.5493337,50.1306152 23.55,50.5 L38.08,36.42 C37.5123926,35.426772 36.8126804,34.5151277 36,33.71 L36,33.71 C30.5944712,28.3218284 21.8458879,28.3312073 16.4519244,33.7309566 C11.0579608,39.1307058 11.0579608,47.8792942 16.4519244,53.2790434 C21.8458879,58.6787927 30.5944712,58.6881716 36,53.3 L53.63,36.3 C58.9939157,30.9262091 67.4543546,30.2118337 73.6433972,34.6101256 C79.8324398,39.0084175 81.9402127,47.233176 78.629391,54.0660143 C75.3185694,60.8988527 67.557343,64.3416312 60.27,62.21 L58.93,65.38 C67.2582293,67.9372856 76.2586031,64.5029081 80.7662446,57.0476898 C85.2738861,49.5924714 84.1337068,40.026821 78,33.84 L78,33.84 Z" id="Path" fill="#6555FF"></path>
            <polygon id="Path" fill="#FFFFFF" points="110.29 23.69 110.29 30.54 119 30.54 119 34.59 110.32 34.59 110.32 41.81 120.13 41.81 120.13 45.81 105 45.81 105 19.65 120.1 19.65 120.1 23.65"></polygon>
            <polygon id="Path" fill="#FFFFFF" points="138.7 32.79 146.87 45.86 140.87 45.86 135.48 37.24 130.48 45.86 124.48 45.86 132.68 32.79 124.48 19.72 130.48 19.72 135.87 28.33 140.87 19.72 146.79 19.72"></polygon>
            <path d="M171,21.52 C173.205455,22.9769062 174.868181,25.1212248 175.73,27.62 L169.4,27.62 C168.286845,25.3587548 165.913822,23.9982218 163.4,24.18 C161.941233,24.151842 160.501482,24.5143691 159.23,25.23 C158.013218,25.9312618 157.029169,26.974423 156.4,28.23 C155.710729,29.6245728 155.367711,31.1647235 155.4,32.72 C155.366492,34.2786026 155.709532,35.8222811 156.4,37.22 C157.040434,38.4676562 158.021781,39.5079536 159.23,40.22 C160.497845,40.9467525 161.938871,41.3165121 163.4,41.29 C165.914225,41.4616577 168.283568,40.0992856 169.4,37.84 L175.73,37.84 C174.872978,40.3387244 173.208906,42.4812607 171,43.93 C166.64587,46.6263968 161.184732,46.7978911 156.67,44.38 C154.650649,43.267248 152.976251,41.6205259 151.83,39.62 C150.623963,37.5195031 150.008886,35.1317602 150.05,32.71 C150.014129,30.3015243 150.629095,27.9280301 151.83,25.84 C152.981705,23.8411165 154.654551,22.1924646 156.67,21.07 C161.178303,18.624834 166.653997,18.7967853 171,21.52 L171,21.52 Z" id="Path" fill="#FFFFFF"></path>
            <polygon id="Path" fill="#FFFFFF" points="185.62 41.85 194 41.85 194 45.85 180.34 45.85 180.34 19.72 185.62 19.72"></polygon>
            <path d="M202.77,19.72 L202.77,35.82 C202.658839,37.3072275 203.148735,38.7769146 204.13,39.9 C205.188961,40.884269 206.60753,41.387282 208.05,41.29 C209.501483,41.3873038 210.929325,40.8848478 212,39.9 C212.992482,38.7823848 213.490288,37.3106108 213.38,35.82 L213.38,19.72 L218.62,19.72 L218.62,35.82 C218.685039,37.807009 218.170826,39.7700494 217.14,41.47 C216.201916,42.9970814 214.844711,44.2223838 213.23,45 C211.573801,45.7825299 209.761661,46.1791492 207.93,46.16 C206.124122,46.1782316 204.338192,45.7813583 202.71,45 C201.131857,44.2295454 199.811649,43.0170383 198.91,41.51 C197.917263,39.7966604 197.425276,37.8391086 197.49,35.86 L197.49,19.72 L202.77,19.72 Z" id="Path" fill="#FFFFFF"></path>
            <path d="M241.27,42.15 C240.459755,43.3799527 239.32911,44.3653765 238,45 C236.468848,45.7562538 234.777257,46.1302567 233.07,46.09 C230.604242,46.2188794 228.166826,45.514424 226.15,44.09 C224.40167,42.7602233 223.421461,40.6538967 223.53,38.46 L229.14,38.46 C229.180078,39.4256764 229.596427,40.3373369 230.3,41 C231.089245,41.6281315 232.083194,41.941635 233.09,41.88 C234.122822,41.9369256 235.139541,41.6051544 235.94,40.95 C236.627755,40.3438372 237.015188,39.4666295 237,38.55 C237.024469,37.8319648 236.761752,37.133787 236.27,36.61 C235.760813,36.0978789 235.146732,35.7021375 234.47,35.45 C233.486722,35.0856033 232.485407,34.7718581 231.47,34.51 C230.077442,34.1821156 228.713146,33.7440698 227.39,33.2 C226.321637,32.7390055 225.391281,32.0085036 224.69,31.08 C223.886194,29.9403694 223.491473,28.5623706 223.57,27.17 C223.523044,25.6943109 223.927751,24.2394593 224.73,23 C225.539674,21.8060844 226.674441,20.8691208 228,20.3 C229.500635,19.6470956 231.123702,19.3231641 232.76,19.35 C235.087082,19.2321295 237.388432,19.8821291 239.31,21.2 C241.02419,22.5679563 242.015763,24.6469417 242,26.84 L236.24,26.84 C236.198866,25.9234485 235.791193,25.0618591 235.108586,24.4488289 C234.425979,23.8357987 233.525686,23.5227413 232.61,23.58 C231.673741,23.5374218 230.751584,23.8200751 230,24.38 C229.30214,24.999794 228.932508,25.9090873 229,26.84 C228.971579,27.5766115 229.233752,28.2948926 229.73,28.84 C230.245799,29.3583768 230.871083,29.754732 231.56,30 C232.28,30.27 233.28,30.57 234.56,30.9 C235.952558,31.2278844 237.316854,31.6659302 238.64,32.21 C239.703027,32.6659471 240.627322,33.393657 241.32,34.32 C242.114594,35.4635942 242.505192,36.8394845 242.43,38.23 C242.437189,39.6223019 242.0337,40.9858184 241.27,42.15 L241.27,42.15 Z" id="Path" fill="#FFFFFF"></path>
            <polygon id="Path" fill="#FFFFFF" points="252.75 19.72 252.75 45.86 247.47 45.86 247.47 19.72"></polygon>
            <polygon id="Path" fill="#FFFFFF" points="261.66 19.72 268.81 40.58 276 19.72 281.62 19.72 272 45.86 265.64 45.86 256.09 19.72"></polygon>
            <polygon id="Path" fill="#FFFFFF" points="290.19 23.69 290.19 30.54 298.88 30.54 298.88 34.59 290.19 34.59 290.19 41.81 300 41.81 300 45.81 284.91 45.81 284.91 19.65 300 19.65 300 23.65"></polygon>
            <path d="M113.45,68.66 L108.11,68.66 L107.19,71.26 L105,71.26 L109.57,58.5 L112,58.5 L116.56,71.26 L114.36,71.26 L113.45,68.66 Z M112.88,67 L110.79,61 L108.68,67 L112.88,67 Z" id="Shape" fill="#FFFFFF"></path>
            <path d="M152.49,68.31 C151.935773,69.2597705 151.110502,70.0223622 150.12,70.5 C149.009034,71.0280661 147.789754,71.2883619 146.56,71.26 L142.39,71.26 L142.39,58.52 L146.56,58.52 C147.790552,58.4947564 149.009871,58.7584855 150.12,59.29 C151.113682,59.7865111 151.93828,60.5658781 152.49,61.53 C153.064289,62.5729034 153.350754,63.7498279 153.32,64.94 C153.352391,66.1176375 153.065594,67.2821035 152.49,68.31 Z M150,68.4 C151.598929,66.3629535 151.598929,63.4970465 150,61.46 C149.088716,60.5764706 147.846682,60.1188791 146.58,60.2 L144.5,60.2 L144.5,69.67 L146.58,69.67 C147.848736,69.7523066 149.092491,69.2904444 150,68.4 L150,68.4 Z" id="Shape" fill="#FFFFFF"></path>
            <path d="M189.34,68.31 C188.797614,69.2584169 187.98222,70.0215425 187,70.5 C185.885402,71.0278289 184.662941,71.2880727 183.43,71.26 L179.26,71.26 L179.26,58.52 L183.43,58.52 C184.663736,58.4950471 185.886235,58.7587233 187,59.29 C187.992789,59.78412 188.81479,60.5643235 189.36,61.53 C189.937769,62.5719357 190.2277,63.7489167 190.2,64.94 C190.22326,66.1204231 189.926051,67.2850686 189.34,68.31 L189.34,68.31 Z M186.83,68.4 C188.428929,66.3629535 188.428929,63.4970465 186.83,61.46 C185.918716,60.5764706 184.676682,60.1188791 183.41,60.2 L181.34,60.2 L181.34,69.67 L183.41,69.67 C184.678736,69.7523066 185.922491,69.2904444 186.83,68.4 L186.83,68.4 Z" id="Shape" fill="#FFFFFF"></path>
            <path d="M225.2,59.18 C226.187698,59.7225418 227.004867,60.5293232 227.56,61.51 C228.14488,62.528128 228.442135,63.6860411 228.42,64.86 C228.440776,66.0401347 228.143733,67.2041317 227.56,68.23 C227.004867,69.2106768 226.187698,70.0174582 225.2,70.56 C223.153168,71.6659308 220.686832,71.6659308 218.64,70.56 C217.651754,70.0147283 216.832013,69.2088221 216.27,68.23 C215.682778,67.2051166 215.382265,66.0410593 215.4,64.86 C215.381403,63.6851671 215.682097,62.5273241 216.27,61.51 C216.832013,60.5311779 217.651754,59.7252717 218.64,59.18 C220.686832,58.0740692 223.153168,58.0740692 225.2,59.18 L225.2,59.18 Z M219.66,60.83 C218.997168,61.2069996 218.455908,61.7656078 218.1,62.44 C217.366519,63.9734716 217.366519,65.7565284 218.1,67.29 C218.45126,67.975458 218.99295,68.5449272 219.66,68.93 C221.067485,69.6891906 222.762515,69.6891906 224.17,68.93 C224.830234,68.5394992 225.367345,67.9712004 225.72,67.29 C226.466751,65.7595658 226.466751,63.9704342 225.72,62.44 C225.366794,61.7669672 224.82914,61.2085003 224.17,60.83 C222.762515,60.0708094 221.067485,60.0708094 219.66,60.83 L219.66,60.83 Z" id="Shape" fill="#FFFFFF"></path>
            <polygon id="Path" fill="#FFFFFF" points="264.8 71.26 262.71 71.26 256.42 61.74 256.42 71.26 254.32 71.26 254.32 58.5 256.42 58.5 262.71 68 262.71 58.5 264.8 58.5"></polygon>
            <path d="M299.48,69.47 C299.120314,70.0577283 298.60911,70.5378455 298,70.86 C297.265561,71.228752 296.451551,71.4107879 295.63,71.39 C294.486996,71.4401558 293.359169,71.1134024 292.42,70.46 C291.599724,69.8572811 291.131525,68.8871738 291.17,67.87 L293.41,67.87 C293.438194,68.379395 293.659989,68.8587591 294.03,69.21 C294.483809,69.5666823 295.054282,69.7413896 295.63,69.7 C296.245698,69.7372022 296.852772,69.5407958 297.33,69.15 C297.736133,68.7964565 297.960399,68.2780712 297.94,67.74 C297.959527,67.347158 297.82293,66.9625305 297.56,66.67 C297.297537,66.3973373 296.975928,66.1886336 296.62,66.06 C296.108613,65.881607 295.587832,65.7313816 295.06,65.61 C294.378586,65.458601 293.70992,65.2546579 293.06,65 C292.54126,64.7858422 292.08659,64.4413955 291.74,64 C291.349938,63.4419382 291.15646,62.7700414 291.19,62.09 C291.168908,61.3832973 291.360515,60.6865442 291.74,60.09 C292.118254,59.5181371 292.65277,59.0669224 293.28,58.79 C293.996666,58.470054 294.775344,58.3129522 295.56,58.33 C296.630277,58.2795452 297.686568,58.5893905 298.56,59.21 C299.342102,59.8294311 299.81059,60.7627467 299.84,61.76 L297.53,61.76 C297.486769,61.2840129 297.261001,60.843227 296.9,60.53 C296.493952,60.1858827 295.971435,60.0105174 295.44,60.04 C294.887861,60.0146616 294.343898,60.1806763 293.9,60.51 C293.492222,60.8651165 293.273941,61.3904722 293.31,61.93 C293.289488,62.3290125 293.425872,62.7202195 293.69,63.02 C293.949228,63.2988826 294.271583,63.5114998 294.63,63.64 C295.147867,63.8193352 295.675357,63.9695697 296.21,64.09 C296.890154,64.2461514 297.558473,64.4499886 298.21,64.7 C298.724435,64.9167939 299.175246,65.2609241 299.52,65.7 C299.909315,66.2542191 300.099637,66.9238682 300.06,67.6 C300.049053,68.2659056 299.847799,68.9147756 299.48,69.47 L299.48,69.47 Z" id="Path" fill="#FFFFFF"></path>
        </g>
    </g>
</svg>