<svg xmlns="http://www.w3.org/2000/svg" width="285.599" height="204.483" viewBox="0 0 285.599 204.483">
  <g id="Downloading-popup-svg" transform="translate(0.228 -0.104)">
    <g id="color_shadow" transform="translate(115 82.7)">
      <g id="Group">
        <path id="Path" d="M0,.709c-.03,2.805.165,6.51.135,9.315-.015.72,62.385.7,63.015-.225,1.47-2.13,4.275-6.705,5.67-8.88C69.408.049.018-.521,0,.709Z" transform="translate(0.057 0.011)" fill="#dafadd"/>
        <path id="Path-2" data-name="Path" d="M15.349.049C11.074,1.309-1.091,1.219.079,3.484A8.41,8.41,0,0,1,.5,6.034a1.312,1.312,0,0,0,.945.945c3.315.57,14.235,0,14.805-.585.63-.63.75-4.155.81-5.04A1.369,1.369,0,0,0,15.349.049Z" transform="translate(91.586 103.061)" fill="#dafadd"/>
        <path id="Path-3" data-name="Path" d="M0,1.21C0,5.23.75,9.205,1.14,13.2a1.4,1.4,0,0,0,1.35,1.35A57.916,57.916,0,0,0,17.835,13.3a17.185,17.185,0,0,0,3.6-.945C22.77,11.71,23.37,2.845,23.37.16,18.33.16,0-.6,0,1.21Z" transform="translate(87.9 72.17)" fill="#dafadd"/>
      </g>
    </g>
    <g id="shadow" transform="translate(7.15 24.5)">
      <g id="Group-2" data-name="Group">
        <path id="Path-4" data-name="Path" d="M2.929,31.445C4.624,34.175,5,41.87,8.7,42.53c5.115.915,5.385-7.815,5.145-10.695-.435-4.935-3.075-10.5-.87-15.39,2.19-4.845,7.875-5.01,10.71-8.985,7.425-10.4-10.11-7.845-14.52-4.7C.274,9.14-2.846,22.13,2.929,31.445Z" transform="translate(43.271 5.095)" fill="#ebf2ff"/>
        <path id="Path-5" data-name="Path" d="M.647,7.811c4.02,2.28,16.455,2.055,15.915-4.875-.45-5.775-6.315-1.47-8.835-.195C6.827,3.191-2.5,6.026.647,7.811Z" transform="translate(70.528 0.079)" fill="#ebf2ff"/>
        <path id="Path-6" data-name="Path" d="M4.658.819c-4.815-3.24-6.7,4.065-1.725,5.835C7.6,8.319,8.138,3.159,4.658.819Z" transform="translate(70.912 34.581)" fill="#ebf2ff"/>
        <path id="Path-7" data-name="Path" d="M.358.919C-1.382,2.9,3.733,4.984,4.873,2.524,6.1-.086,1.843-.761.358.919Z" transform="translate(81.692 50.036)" fill="#ebf2ff"/>
        <path id="Path-8" data-name="Path" d="M42.42,13.238c5.85-1.38-.63-4.7-2.19-5.34a91.436,91.436,0,0,0-13.2-3.93C22.56,2.873,2.925-2.737.63,1.658c-3.7,7.08,10.005,6.915,13.4,7.32,5.295.63,10.56,1.53,15.81,2.445C33.48,12.053,38.8,14.093,42.42,13.238Z" transform="translate(40.38 58.027)" fill="#ebf2ff"/>
        <path id="Path-9" data-name="Path" d="M23.3.87C11.822,11,11.657,27.315,7.517,40.95,5.462,47.715,1.637,53.955.407,60.96c-.8,4.47-.975,21.645,4.755,23.7C9.077,86.07,8,67.905,8.282,64.245A217.437,217.437,0,0,1,17.447,16.11a34.217,34.217,0,0,1,5.58-11.13C22.712,5.37,27.212-2.58,23.3.87Z" transform="translate(0.043 84.36)" fill="#ebf2ff"/>
        <path id="Path-10" data-name="Path" d="M23.133,45.556A243,243,0,0,1,9.9,9.481C8.973,6.2,4.383-4.964.948,2.551-.927,6.646.543,15,.633,19.456c.255,12.51,1.68,27.975,9.915,38.13,3.075,3.795,10.035,9.135,14.265,3.855C28.308,57.046,25.053,49.771,23.133,45.556Z" transform="translate(38.187 105.524)" fill="#ebf2ff"/>
        <path id="Path-11" data-name="Path" d="M46.441,93.758c-9.54-4.62-18.7-11.28-24.12-20.58-5.67-9.735-6.27-21.675-10.815-31.95C6.6,30.158,5.371,20.9,7.816,8.993c.42-2.01,3.09-11.085-1.44-8.55C3.271,2.183,1.576,12.5.916,15.5c-2.58,11.88.8,21.765,3.9,33.1C7.786,59.423,6.751,71.6,12.061,81.7c4.83,9.165,14.34,16.455,24.09,19.695,3.48,1.155,10.1,2.85,13.6.81C55.351,98.978,50.281,95.618,46.441,93.758Z" transform="translate(76.994 76.387)" fill="#ebf2ff"/>
        <path id="Path-12" data-name="Path" d="M7.212,17.39c3.7,2.925,11.82,6.735,15.135,1.23,3.285-5.445-3.84-12.045-7.755-14.82C10.992,1.25,4.467-2.455,1.047,2.285-2.418,7.1,3.522,14.48,7.212,17.39Z" transform="translate(97.608 127.975)" fill="#ebf2ff"/>
        <path id="Path-13" data-name="Path" d="M22.052,30.488c-1.125-8.055-3.72-23.28-10.92-28.17C9.107.953,2.462-1.162.677.788c-2.04,2.22,1.095,6.225,2.025,8.37a88.908,88.908,0,0,1,5.01,14.955c.825,3.42.495,9.135,2.01,12.225s6.285,4.305,10.02,2.79C23.762,37.493,22.667,34.973,22.052,30.488Z" transform="translate(162.208 137.722)" fill="#ebf2ff"/>
        <path id="Path-14" data-name="Path" d="M146,1.584c-.465-3.15-71.13-.63-78.63-.63q-21.06,0-42.1-.06C18.33.879,11.1.219,4.2.834c-8.775.78-1.605,4.7,1.77,9.105.33.435-1.86,1.38.4,2.64,2.025,1.125,7.98-.03,10.17-.045q10.17-.023,20.325-.03,20.835,0,41.685.105,20.52.112,41.025.345,10.192.112,20.37.27C148.545,13.359,147.2,9.894,146,1.584Z" transform="translate(113.655 88.206)" fill="#ebf2ff"/>
        <path id="Path-15" data-name="Path" d="M45.193,1.572C45.118-.243,19.093,0,16.168.027c-9.045.09-7.08-.69-7.35,5.55-.27,6.36-5.715,6.69-8.25,11.79-2.82,5.655,5.565,3.405,9.75,3.345,5.76-.075,11.505-.12,17.265-.12,6.24.015,8.475-1.11,13-5.43C45.658,10.317,45.478,8.682,45.193,1.572Z" transform="translate(141.392 104.223)" fill="#ebf2ff"/>
      </g>
    </g>
    <g id="color_outline" transform="translate(107.2 0.8)">
      <rect id="Rectangle" width="108.36" height="9.93" stroke-width="1.05" transform="translate(8.01 82.02)" stroke="#00b60f" stroke-linecap="round" stroke-linejoin="round" stroke-miterlimit="10" fill="none"/>
      <path id="Path-16" data-name="Path" d="M0,0V4.89H29.085" transform="translate(55.035 62.52)" fill="none" stroke="#00b60f" stroke-linecap="round" stroke-linejoin="round" stroke-miterlimit="10" stroke-width="1.05"/>
      <path id="Path-17" data-name="Path" d="M.075,0V4.89" transform="translate(84.045 62.52)" fill="none" stroke="#00b60f" stroke-linecap="round" stroke-linejoin="round" stroke-miterlimit="10" stroke-width="1.05"/>
      <path id="Path-18" data-name="Path" d="M0,10.875l5.34,7.38V0" transform="translate(64.245 43.56)" fill="none" stroke="#00b60f" stroke-linecap="round" stroke-linejoin="round" stroke-miterlimit="10" stroke-width="1.05"/>
      <path id="Path-19" data-name="Path" d="M5.34,0,0,7.38" transform="translate(69.585 54.435)" fill="none" stroke="#00b60f" stroke-linecap="round" stroke-linejoin="round" stroke-miterlimit="10" stroke-width="1.05"/>
      <g id="Group-3" data-name="Group" transform="translate(10.95 82.2)">
        <path id="Path-20" data-name="Path" d="M5.97,0,0,9.495" transform="translate(0.03 0.03)" fill="none" stroke="#00b60f" stroke-linecap="round" stroke-linejoin="round" stroke-miterlimit="10" stroke-width="1.05"/>
        <path id="Path-21" data-name="Path" d="M5.955,0,0,9.495" transform="translate(8.61 0.03)" fill="none" stroke="#00b60f" stroke-linecap="round" stroke-linejoin="round" stroke-miterlimit="10" stroke-width="1.05"/>
        <path id="Path-22" data-name="Path" d="M5.955,0,0,9.495" transform="translate(17.19 0.03)" fill="none" stroke="#00b60f" stroke-linecap="round" stroke-linejoin="round" stroke-miterlimit="10" stroke-width="1.05"/>
        <path id="Path-23" data-name="Path" d="M5.955,0,0,9.495" transform="translate(25.77 0.03)" fill="none" stroke="#00b60f" stroke-linecap="round" stroke-linejoin="round" stroke-miterlimit="10" stroke-width="1.05"/>
        <path id="Path-24" data-name="Path" d="M5.97,0,0,9.495" transform="translate(34.335 0.03)" fill="none" stroke="#00b60f" stroke-linecap="round" stroke-linejoin="round" stroke-miterlimit="10" stroke-width="1.05"/>
        <path id="Path-25" data-name="Path" d="M5.97,0,0,9.495" transform="translate(42.915 0.03)" fill="none" stroke="#00b60f" stroke-linecap="round" stroke-linejoin="round" stroke-miterlimit="10" stroke-width="1.05"/>
        <path id="Path-26" data-name="Path" d="M5.97,0,0,9.495" transform="translate(51.495 0.03)" fill="none" stroke="#00b60f" stroke-linecap="round" stroke-linejoin="round" stroke-miterlimit="10" stroke-width="1.05"/>
        <path id="Path-27" data-name="Path" d="M5.97,0,0,9.495" transform="translate(60.075 0.03)" fill="none" stroke="#00b60f" stroke-linecap="round" stroke-linejoin="round" stroke-miterlimit="10" stroke-width="1.05"/>
      </g>
      <path id="Path-28" data-name="Path" d="M0,0,18.57,5.61" transform="translate(0 10.11)" fill="none" stroke="#00b60f" stroke-linecap="round" stroke-linejoin="round" stroke-miterlimit="10" stroke-width="1.05"/>
      <path id="Path-29" data-name="Path" d="M0,0,8.325,12.885" transform="translate(16.77 0.03)" fill="none" stroke="#00b60f" stroke-linecap="round" stroke-linejoin="round" stroke-miterlimit="10" stroke-width="1.05"/>
      <path id="Path-30" data-name="Path" d="M0,.075H34.71" transform="translate(91.575 154.155)" fill="none" stroke="#00b60f" stroke-linecap="round" stroke-linejoin="round" stroke-miterlimit="10" stroke-width="1.05"/>
      <path id="Path-31" data-name="Path" d="M0,.075H34.71" transform="translate(91.575 152.37)" fill="none" stroke="#00b60f" stroke-linecap="round" stroke-linejoin="round" stroke-miterlimit="10" stroke-width="1.05"/>
      <path id="Path-32" data-name="Path" d="M0,0,1.53,13.17" transform="translate(95.235 154.875)" fill="none" stroke="#00b60f" stroke-linecap="round" stroke-linejoin="round" stroke-miterlimit="10" stroke-width="1.05"/>
      <path id="Path-33" data-name="Path" d="M0,0,.33,2.865" transform="translate(99.375 187.23)" fill="none" stroke="#00b60f" stroke-linecap="round" stroke-linejoin="round" stroke-miterlimit="10" stroke-width="1.05"/>
      <path id="Path-34" data-name="Path" d="M1.23,0,0,10.515" transform="translate(120.675 154.665)" fill="none" stroke="#00b60f" stroke-linecap="round" stroke-linejoin="round" stroke-miterlimit="10" stroke-width="1.05"/>
      <path id="Path-35" data-name="Path" d="M.75,0,0,6.495" transform="translate(118.53 183.795)" fill="none" stroke="#00b60f" stroke-linecap="round" stroke-linejoin="round" stroke-miterlimit="10" stroke-width="1.05"/>
      <path id="Path-36" data-name="Path" d="M0,.075H18.69" transform="translate(99.54 191.895)" fill="none" stroke="#00b60f" stroke-linecap="round" stroke-linejoin="round" stroke-miterlimit="10" stroke-width="1.05"/>
      <path id="Path-37" data-name="Path" d="M0,.075H18.225" transform="translate(100.005 193.785)" fill="none" stroke="#00b60f" stroke-linecap="round" stroke-linejoin="round" stroke-miterlimit="10" stroke-width="1.05"/>
    </g>
    <g id="outline" transform="translate(0.25 16.55)">
      <path id="Path-38" data-name="Path" d="M17.235.194A19.2,19.2,0,0,0,0,6.914" transform="translate(55.485 12.256)" fill="none" stroke="#003188" stroke-linecap="round" stroke-linejoin="round" stroke-miterlimit="10" stroke-width="1.05"/>
      <path id="Path-39" data-name="Path" d="M.99,5.58A31.981,31.981,0,0,1,0,0" transform="translate(52.365 14.055)" fill="none" stroke="#003188" stroke-linecap="round" stroke-linejoin="round" stroke-miterlimit="10" stroke-width="1.05"/>
      <path id="Path-40" data-name="Path" d="M0,0A6.2,6.2,0,0,1,3.645,2.13" transform="translate(47.385 18.405)" fill="none" stroke="#003188" stroke-linecap="round" stroke-linejoin="round" stroke-miterlimit="10" stroke-width="1.05"/>
      <path id="Path-41" data-name="Path" d="M3.961,0A23.783,23.783,0,0,0,.241,9.45a14.046,14.046,0,0,0,.285,6.465c.8,2.535,2.535,4.665,3.87,6.96a24.3,24.3,0,0,1,3.165,9.78" transform="translate(48.839 22.92)" fill="none" stroke="#003188" stroke-linecap="round" stroke-linejoin="round" stroke-miterlimit="10" stroke-width="1.05"/>
      <path id="Path-42" data-name="Path" d="M0,0,.315,6.885" transform="translate(56.925 57.915)" fill="none" stroke="#003188" stroke-linecap="round" stroke-linejoin="round" stroke-miterlimit="10" stroke-width="1.05"/>
      <path id="Path-43" data-name="Path" d="M0,8.67A16.809,16.809,0,0,0,7.845,6.51,9.358,9.358,0,0,0,12.4,0" transform="translate(60.12 47.61)" fill="none" stroke="#003188" stroke-linecap="round" stroke-linejoin="round" stroke-miterlimit="10" stroke-width="1.05"/>
      <path id="Path-44" data-name="Path" d="M8.431,2.827A5.606,5.606,0,0,0,4.906.1a4.044,4.044,0,0,0-4.1,1.44A4.714,4.714,0,0,0,0,4.222a7.161,7.161,0,0,0,4.935,6.81" transform="translate(68.819 36.503)" fill="none" stroke="#003188" stroke-linecap="round" stroke-linejoin="round" stroke-miterlimit="10" stroke-width="1.05"/>
      <path id="Path-45" data-name="Path" d="M0,0A5.082,5.082,0,0,1,2.04,2.2" transform="translate(72.3 40.305)" fill="none" stroke="#003188" stroke-linecap="round" stroke-linejoin="round" stroke-miterlimit="10" stroke-width="1.05"/>
      <path id="Path-46" data-name="Path" d="M.51,12.93a5.548,5.548,0,0,0,.615-2.745C1.3,6.735,1.47,3.12,0,0" transform="translate(76.53 24.93)" fill="none" stroke="#003188" stroke-linecap="round" stroke-linejoin="round" stroke-miterlimit="10" stroke-width="1.05"/>
      <path id="Path-47" data-name="Path" d="M0,15.52a15.342,15.342,0,0,0,11.67,1.95,15.392,15.392,0,0,0,9.525-7.02A8.964,8.964,0,0,0,22.5,6.805,6.34,6.34,0,0,0,20.43,1.57,6.358,6.358,0,0,0,14.985.13C11.445.9,9.165,4.51,5.73,5.635c-1.38.45-3.36.105-3.555-1.335" transform="translate(73.8 7.985)" fill="none" stroke="#003188" stroke-linecap="round" stroke-linejoin="round" stroke-miterlimit="10" stroke-width="1.05"/>
      <path id="Path-48" data-name="Path" d="M6.9,0A8.941,8.941,0,0,1,0,6.45" transform="translate(84.33 13.185)" fill="none" stroke="#003188" stroke-linecap="round" stroke-linejoin="round" stroke-miterlimit="10" stroke-width="1.05"/>
      <path id="Path-49" data-name="Path" d="M0,1.817A7.8,7.8,0,0,1,5.49.017" transform="translate(85.44 32.113)" fill="none" stroke="#003188" stroke-linecap="round" stroke-linejoin="round" stroke-miterlimit="10" stroke-width="1.05"/>
      <path id="Path-50" data-name="Path" d="M.09,0A9.557,9.557,0,0,1,0,2.265,5.228,5.228,0,0,0,.09,0" transform="translate(89.655 39.585)" fill="none" stroke="#003188" stroke-linecap="round" stroke-linejoin="round" stroke-miterlimit="10" stroke-width="1.05"/>
      <path id="Path-51" data-name="Path" d="M12.345,0a15.866,15.866,0,0,1,2.22,8.145c-.03,3.75-1.32,7.83.6,11.055.615,1.035,1.515,1.875,2.085,2.925a2.953,2.953,0,0,1-.06,3.36c-.48.51-1.215.75-1.62,1.32a3.186,3.186,0,0,0-.435,1.545c-.27,2.55-.54,5.085-.81,7.635a6.37,6.37,0,0,1-.645,2.6c-.855,1.485-2.715,2.025-4.41,2.28A28.686,28.686,0,0,1,0,40.74" transform="translate(79.2 23.145)" fill="none" stroke="#003188" stroke-linecap="round" stroke-linejoin="round" stroke-miterlimit="10" stroke-width="1.05"/>
      <path id="Path-52" data-name="Path" d="M5.049,1.345A26.972,26.972,0,0,0,1.494.1c-.48-.135-1.11-.2-1.38.225A1.066,1.066,0,0,0,.129,1.3,4.6,4.6,0,0,0,4.254,4.21" transform="translate(89.001 51.23)" fill="none" stroke="#003188" stroke-linecap="round" stroke-linejoin="round" stroke-miterlimit="10" stroke-width="1.05"/>
      <path id="Path-53" data-name="Path" d="M.03,0C.06,1.92.09,3.855.12,5.775" transform="translate(85.305 64.47)" fill="none" stroke="#003188" stroke-linecap="round" stroke-linejoin="round" stroke-miterlimit="10" stroke-width="1.05"/>
      <path id="Path-54" data-name="Path" d="M0,0A63.643,63.643,0,0,1,5.715,4.275c.015-.99.015-1.98.03-2.97A1.013,1.013,0,0,0,5.67.825a1.014,1.014,0,0,0-.72-.39A19.508,19.508,0,0,0,1.59.075" transform="translate(79.365 64.125)" fill="#003188" stroke="#003188" stroke-linecap="round" stroke-linejoin="round" stroke-miterlimit="10" stroke-width="1.05"/>
      <path id="Path-55" data-name="Path" d="M0,0A12.787,12.787,0,0,1,.8,10.5" transform="translate(59.235 41.58)" fill="none" stroke="#003188" stroke-linecap="round" stroke-linejoin="round" stroke-miterlimit="10" stroke-width="1.05"/>
      <path id="Path-56" data-name="Path" d="M1.965,0A15.545,15.545,0,0,1,0,4.725" transform="translate(61.74 47.505)" fill="none" stroke="#003188" stroke-linecap="round" stroke-linejoin="round" stroke-miterlimit="10" stroke-width="1.05"/>
      <path id="Path-57" data-name="Path" d="M1.725,6.7A32.251,32.251,0,0,0,0,.01a58.956,58.956,0,0,1,7.095.3c2.595.27,5.16.7,7.725,1.14C24.885,3.145,34.995,4.87,44.655,8.125a.762.762,0,0,1,.48.315.751.751,0,0,1,0,.48c-.36,1.545-.735,3.075-1.095,4.62" transform="translate(47.415 65.06)" fill="none" stroke="#003188" stroke-linecap="round" stroke-linejoin="round" stroke-miterlimit="10" stroke-width="1.05"/>
      <path id="Path-58" data-name="Path" d="M0,.158a41.73,41.73,0,0,1,13.83,1.11" transform="translate(52.545 69.322)" fill="none" stroke="#003188" stroke-linecap="round" stroke-linejoin="round" stroke-miterlimit="10" stroke-width="1.05"/>
      <path id="Path-59" data-name="Path" d="M45.749,0A171.142,171.142,0,0,0,28.2,13.635c-5.07,4.5-10.1,9.63-11.805,16.2-1.08,4.155-.75,8.535-1.485,12.765-1.515,8.715-7.38,15.945-10.995,24.015A45.183,45.183,0,0,0,.209,79.92c-.48,4.23-.24,8.715,1.86,12.42C5.2,97.86,12,100.845,14.234,106.785" transform="translate(0.046 73.065)" fill="none" stroke="#003188" stroke-linecap="round" stroke-linejoin="round" stroke-miterlimit="10" stroke-width="1.05"/>
      <path id="Path-60" data-name="Path" d="M1.494,0a14.193,14.193,0,0,0-.9,10.4,48.39,48.39,0,0,0,2.8,6.24A12.366,12.366,0,0,1,4.824,23.25" transform="translate(5.646 144.36)" fill="none" stroke="#003188" stroke-linecap="round" stroke-linejoin="round" stroke-miterlimit="10" stroke-width="1.05"/>
      <path id="Path-61" data-name="Path" d="M0,0C.57,2.73,2.73,5.085,2.61,7.875" transform="translate(9.69 154.17)" fill="none" stroke="#003188" stroke-linecap="round" stroke-linejoin="round" stroke-miterlimit="10" stroke-width="1.05"/>
      <path id="Path-62" data-name="Path" d="M17.282,0c-4.74,4.965-7.29,11.64-8.91,18.3C7.2,23.085,6.467,27.975,5.717,32.85,2.657,52.935-.418,73.14.047,93.435" transform="translate(14.638 94.065)" fill="none" stroke="#003188" stroke-linecap="round" stroke-linejoin="round" stroke-miterlimit="10" stroke-width="1.05"/>
      <path id="Path-63" data-name="Path" d="M0,0C.075,2.025.315,4.035.555,6.045c1.95,16.23,4.35,32.865,12.33,47.115" transform="translate(48.66 116.175)" fill="none" stroke="#003188" stroke-linecap="round" stroke-linejoin="round" stroke-miterlimit="10" stroke-width="1.05"/>
      <path id="Path-64" data-name="Path" d="M0,0C.375.7.735,1.41,1.11,2.1" transform="translate(63.435 171.765)" fill="none" stroke="#003188" stroke-linecap="round" stroke-linejoin="round" stroke-miterlimit="10" stroke-width="1.05"/>
      <path id="Path-65" data-name="Path" d="M0,0A91.864,91.864,0,0,0,14.07,28.545" transform="translate(55.515 138.03)" fill="none" stroke="#003188" stroke-linecap="round" stroke-linejoin="round" stroke-miterlimit="10" stroke-width="1.05"/>
      <path id="Path-66" data-name="Path" d="M0,0C8.025.915,16.23,2.31,23.1,6.555a42.955,42.955,0,0,1,8.88,7.605,73.683,73.683,0,0,1,7.29,9.27c5.43,8.2,9.15,17.4,12.84,26.52,2.775,6.87,5.6,13.965,5.475,21.375-.015,1.365-.84,3.225-2.115,2.745a1.529,1.529,0,0,1-.465-2.265,3.855,3.855,0,0,1,2.28-1.275c4.35-1.155,8.94-.795,13.44-.42,2.79.225,5.58.465,8.37.69" transform="translate(83.76 78.165)" fill="none" stroke="#003188" stroke-linecap="round" stroke-linejoin="round" stroke-miterlimit="10" stroke-width="1.05"/>
      <path id="Path-67" data-name="Path" d="M4.985,0A41.187,41.187,0,0,0,2.12,32.67C4.25,38.94,7.9,44.655,9.71,51.03c1.185,4.11,1.575,8.415,2.61,12.57,3.3,13.1,13.185,24.045,25.305,29.985s26.235,7.17,39.54,4.9c3.6-.615,7.155-1.47,10.695-2.325" transform="translate(87.985 82.68)" fill="none" stroke="#003188" stroke-linecap="round" stroke-linejoin="round" stroke-miterlimit="10" stroke-width="1.05"/>
      <path id="Path-68" data-name="Path" d="M0,0A93.563,93.563,0,0,1,10.785,37.965" transform="translate(167.61 145.05)" fill="none" stroke="#003188" stroke-linecap="round" stroke-linejoin="round" stroke-miterlimit="10" stroke-width="1.05"/>
      <path id="Path-69" data-name="Path" d="M0,0A89.707,89.707,0,0,1,11.535,39.555" transform="translate(179.385 144.105)" fill="none" stroke="#003188" stroke-linecap="round" stroke-linejoin="round" stroke-miterlimit="10" stroke-width="1.05"/>
      <path id="Path-70" data-name="Path" d="M0,0A16.178,16.178,0,0,0,4.755,10.665,3.614,3.614,0,0,0,7.62,12,2.52,2.52,0,0,0,9.555,9.99,4.973,4.973,0,0,0,9.15,7.095c-.315-.735-1-1.545-1.755-1.275-.81.3-.72,1.47-.45,2.295A15.07,15.07,0,0,0,9.3,12.945a6.161,6.161,0,0,0,4.59,2.49" transform="translate(101.535 168.09)" fill="none" stroke="#003188" stroke-linecap="round" stroke-linejoin="round" stroke-miterlimit="10" stroke-width="1.05"/>
      <path id="Path-71" data-name="Path" d="M0,0A26.053,26.053,0,0,0,13.545,7.83" transform="translate(108.735 148.275)" fill="none" stroke="#003188" stroke-linecap="round" stroke-linejoin="round" stroke-miterlimit="10" stroke-width="1.05"/>
      <path id="Path-72" data-name="Path" d="M0,0A20.5,20.5,0,0,0,14.505,9.87" transform="translate(106.8 140.895)" fill="none" stroke="#003188" stroke-linecap="round" stroke-linejoin="round" stroke-miterlimit="10" stroke-width="1.05"/>
      <path id="Path-73" data-name="Path" d="M2.14,0A28.2,28.2,0,0,0,.04,12.27" transform="translate(92.42 84.585)" fill="none" stroke="#003188" stroke-linecap="round" stroke-linejoin="round" stroke-miterlimit="10" stroke-width="1.05"/>
      <path id="Path-74" data-name="Path" d="M0,7.53A52.725,52.725,0,0,0,16.14,0" transform="translate(185.415 145.005)" fill="none" stroke="#003188" stroke-linecap="round" stroke-linejoin="round" stroke-miterlimit="10" stroke-width="1.05"/>
      <path id="Path-75" data-name="Path" d="M0,2.91A63.3,63.3,0,0,0,25.215,0" transform="translate(202.185 149.865)" fill="none" stroke="#003188" stroke-linecap="round" stroke-linejoin="round" stroke-miterlimit="10" stroke-width="1.05"/>
      <path id="Path-76" data-name="Path" d="M14.085,0A4.269,4.269,0,0,1,16.71,5.7c-.78,1.635-2.535,2.565-4.2,3.255A39.927,39.927,0,0,1,0,11.865" transform="translate(214.155 146.865)" fill="none" stroke="#003188" stroke-linecap="round" stroke-linejoin="round" stroke-miterlimit="10" stroke-width="1.05"/>
      <path id="Path-77" data-name="Path" d="M12.8,0a2.1,2.1,0,0,1,.135,2.22c-.765,1.74-2.625,2.715-4.41,3.39A61.385,61.385,0,0,1,0,7.86" transform="translate(217.125 154.725)" fill="none" stroke="#003188" stroke-linecap="round" stroke-linejoin="round" stroke-miterlimit="10" stroke-width="1.05"/>
      <path id="Path-78" data-name="Path" d="M11.865,0h0c1.05.87.84,2.655-.075,3.675a7.68,7.68,0,0,1-3.6,1.86C5.46,6.375,2.73,7.23,0,8.07" transform="translate(217.59 158.94)" fill="none" stroke="#003188" stroke-linecap="round" stroke-linejoin="round" stroke-miterlimit="10" stroke-width="1.05"/>
      <path id="Path-79" data-name="Path" d="M37.83,0a3.029,3.029,0,0,1-.75,3.27,7.633,7.633,0,0,1-3.09,1.71C23.115,8.745,10.89,6.9,0,10.65" transform="translate(191.085 163.515)" fill="none" stroke="#003188" stroke-linecap="round" stroke-linejoin="round" stroke-miterlimit="10" stroke-width="1.05"/>
      <path id="Path-80" data-name="Path" d="M0,.161A1.341,1.341,0,0,1,.9.026" transform="translate(209.955 158.794)" fill="none" stroke="#003188" stroke-linecap="round" stroke-linejoin="round" stroke-miterlimit="10" stroke-width="1.05"/>
      <path id="Path-81" data-name="Path" d="M0,.075H.45" transform="translate(212.355 163.815)" fill="none" stroke="#003188" stroke-linecap="round" stroke-linejoin="round" stroke-miterlimit="10" stroke-width="1.05"/>
      <path id="Path-82" data-name="Path" d="M78.765.075H0" transform="translate(133.59 112.26)" fill="none" stroke="#003188" stroke-linecap="round" stroke-linejoin="round" stroke-miterlimit="10" stroke-width="1.05"/>
      <path id="Path-83" data-name="Path" d="M0,0H170.4V101.67H128.64" transform="translate(98.745 10.665)" fill="none" stroke="#003188" stroke-linecap="round" stroke-linejoin="round" stroke-miterlimit="10" stroke-width="1.05"/>
      <path id="Path-84" data-name="Path" d="M0,.075H34.95" transform="translate(233.235 96.795)" fill="none" stroke="#003188" stroke-linecap="round" stroke-linejoin="round" stroke-miterlimit="10" stroke-width="1.05"/>
      <path id="Path-85" data-name="Path" d="M0,.075H95.52" transform="translate(124.395 96.795)" fill="none" stroke="#003188" stroke-linecap="round" stroke-linejoin="round" stroke-miterlimit="10" stroke-width="1.05"/>
      <path id="Path-86" data-name="Path" d="M12.165,0V9.855L0,22.035H37.29l11.46-11.46V0" transform="translate(144.765 112.335)" fill="none" stroke="#003188" stroke-linecap="round" stroke-linejoin="round" stroke-miterlimit="10" stroke-width="1.05"/>
      <path id="Path-87" data-name="Path" d="M0,.075H14.7" transform="translate(160.095 122.115)" fill="none" stroke="#003188" stroke-linecap="round" stroke-linejoin="round" stroke-miterlimit="10" stroke-width="1.05"/>
      <path id="Path-88" data-name="Path" d="M5.576,2.66c-.51.915-1.29,2.52-2.58,2.445C1.661,5.03,1.481,3.65,2.111,2.69,4.916-1.525,10.346-.535,12.266,3.905a10.753,10.753,0,0,1,.09,7.41A32.323,32.323,0,0,1,9,18.08c-1.485,2.46-2.955,4.935-4.44,7.4C2.636,28.67.686,31.97.131,35.66s.645,7.89,3.84,9.81" transform="translate(213.724 83.8)" fill="none" stroke="#003188" stroke-linecap="round" stroke-linejoin="round" stroke-miterlimit="10" stroke-width="1.05"/>
      <path id="Path-89" data-name="Path" d="M.637,35.07c-1.38-3.93-.345-8.34,1.455-12.1S6.442,15.84,8.287,12.09,11.272,3.99,10.027,0" transform="translate(218.528 91.755)" fill="none" stroke="#003188" stroke-linecap="round" stroke-linejoin="round" stroke-miterlimit="10" stroke-width="1.05"/>
      <path id="Path-90" data-name="Path" d="M1.914,0A14.66,14.66,0,0,0,.5,11.055" transform="translate(220.971 117.33)" fill="none" stroke="#003188" stroke-linecap="round" stroke-linejoin="round" stroke-miterlimit="10" stroke-width="1.05"/>
      <path id="Path-91" data-name="Path" d="M6.9,0,0,12.45" transform="translate(256.005 25.245)" fill="none" stroke="#003188" stroke-linecap="round" stroke-linejoin="round" stroke-miterlimit="10" stroke-width="1.05"/>
      <path id="Path-92" data-name="Path" d="M6.885,0,0,12.45" transform="translate(257.355 31.47)" fill="none" stroke="#003188" stroke-linecap="round" stroke-linejoin="round" stroke-miterlimit="10" stroke-width="1.05"/>
      <path id="Path-93" data-name="Path" d="M4.32,0,0,7.8" transform="translate(257.355 81.105)" fill="none" stroke="#003188" stroke-linecap="round" stroke-linejoin="round" stroke-miterlimit="10" stroke-width="1.05"/>
      <path id="Path-94" data-name="Path" d="M.811.542a.587.587,0,0,0-.57.675.792.792,0,0,0,.51.63A.587.587,0,0,0,1.2,1.8a.659.659,0,0,0,.3-.345A1.065,1.065,0,0,0,1.486.482C1.321.167.9-.133.541.062A.958.958,0,0,0,.061.9a.747.747,0,0,0,.675.735.8.8,0,0,0,.735-.585.573.573,0,0,0-.81-.69A1.259,1.259,0,0,0,0,1.427a.451.451,0,0,0,.45.45.461.461,0,0,0,.45-.45.369.369,0,0,1,.255-.3H.706C.616,1.082.6.9.586.827.616.782.616.767.6.8S.586.812.616.782L.646.767a.229.229,0,0,1,.27.06c.015.03.015.06.03.09V.887c0,.03,0,.03.015-.03,0,.015,0,.015-.015.03.03-.045.03-.045,0-.015C1.021.812.9.887.991.842L.646.887C.706.9.661.9.661.887.646.887.646.872.631.872L.661.9c0,.015.045.06.015.015.015.03.03.06.015.015.015.03.015.06.03.09-.015-.045,0-.03,0,.015h0c-.015.075.015-.015-.015.03s.075-.09-.03.045c-.045.06-.045.06-.015.03a.164.164,0,0,1,.18-.06c.255-.06.1-.03.255,0,.045.015.03.015,0-.015.015.015.03.03.03.045-.015-.06,0,.09,0,.045a.365.365,0,0,1-.315.315.461.461,0,0,0,.45-.45.478.478,0,0,0-.45-.48Z" transform="translate(26.834 48.748)" fill="#003188"/>
      <path id="Path-95" data-name="Path" d="M1,.977a.078.078,0,0,1,.06-.03c-.045.015-.045.015-.015.015H1.028C.938.917,1.073.992.983.947.878.887,1.028.992.938.917.923.9.863.827.908.887A.328.328,0,0,1,.863.812C.878.857.878.857.878.827S.863.8.878.857h0c0,.015-.015.015-.015.03.03-.045.03-.045,0-.015.075-.03-.03,0-.045.015.03-.03.1-.03.03-.015H.893c.015,0,.045.015.06.015h0c.015,0,.12.06.045.015.015,0,.105.105.03.015.03.045.03.09.015.03.015.1.03-.135,0-.015.255-.06.5-.135.75-.195A.926.926,0,0,0,.353,1.832a.451.451,0,0,0,.78-.45c.03.06,0-.045.015.045s.015,0,0,.03c-.03.045.045-.045-.015.015.015-.015.105-.09.03-.03.015,0,.105-.06.045-.03-.045.03.045-.015.06-.015-.045,0-.06.015-.03.015h-.03c-.03-.015-.1-.075-.045-.015a.449.449,0,0,0,.75-.2A1.012,1.012,0,0,0,.143.377a.932.932,0,0,0,.21,1.215.966.966,0,0,0,1.29.045.448.448,0,0,0,0-.63A.454.454,0,0,0,1,.977Z" transform="translate(195.082 0.148)" fill="#003188"/>
      <path id="Path-96" data-name="Path" d="M.987.084a.659.659,0,0,0-.78.1.662.662,0,0,0-.135.78.65.65,0,0,0,.585.33.692.692,0,0,0,.6-.33A.543.543,0,0,0,1.3.624a.465.465,0,0,0-.21-.27A.459.459,0,0,0,.477.519c-.015.015-.045.06.015,0,.03-.03.03-.045.015-.03C.477.519.507.5.567.444c-.045.03.06-.03.06-.03L.582.429C.627.429.657.414.7.414H.642c.045,0,.075.015.12.015C.747.429.732.414.717.414c.075.03.105.045.075.03s-.015,0,.06.045c-.045-.045.06.1.03.045C.9.564.9.579.912.609V.579c0,.045.015.075.015.12V.669c0,.045-.015.075-.015.12C.927.744.942.729.9.834c.03-.06-.075.075-.03.03C.852.879.822.894.807.909.822.909.822.894.837.894S.7.939.807.909C.762.909.732.924.687.924h.06C.7.924.672.909.627.909.7.924.522.849.582.894A.446.446,0,0,0,1.2.729.562.562,0,0,0,.987.084Z" transform="translate(142.938 121.161)" fill="#003188"/>
      <path id="Path-97" data-name="Path" d="M.759,1.119l.36-.36a.445.445,0,0,0-.63-.63l-.36.36a.445.445,0,0,0,.63.63Z" transform="translate(191.016 143.661)" fill="#003188"/>
      <path id="Path-98" data-name="Path" d="M.456,1.514a.879.879,0,0,0,1.065.06,1.045,1.045,0,0,0,.465-1,.738.738,0,0,0-.315-.5.923.923,0,0,0-.72,0,1.451,1.451,0,0,0-.93.96.452.452,0,0,0,.87.24A.532.532,0,0,1,1.446.9L1.131.764c.09.09-.06-.075-.015-.03V.7c0-.03,0-.03-.015.015h0c-.015.015-.075.105-.015.03l-.03.03c-.03.03-.105.06-.03.03-.045.03-.09.015-.015.015s.075.015.015,0c.03,0,.045.015.075.045a.463.463,0,0,0-.63,0,.44.44,0,0,0-.015.645Z" transform="translate(254.754 130.921)" fill="#003188"/>
      <path id="Path-99" data-name="Path" d="M.811,0H.451A.451.451,0,0,0,0,.45.461.461,0,0,0,.451.9h.36a.451.451,0,0,0,.45-.45A.461.461,0,0,0,.811,0Z" transform="translate(283.859 81.39)" fill="#003188"/>
    </g>
  </g>
</svg>
