<svg width="453" height="446" xmlns="http://www.w3.org/2000/svg" xmlns:xlink="http://www.w3.org/1999/xlink"><defs><linearGradient x1="50%" y1="0%" x2="50%" y2="100%" id="a"><stop stop-color="#2460FF" offset="0%"/><stop stop-color="#B80AFF" offset="100%"/></linearGradient><path d="M86.558 142.766h58.781l.281.14h.211c3.516 0 6.375 1.805 8.578 5.414.75 1.5 1.125 3.047 1.125 4.64 0 3.892-1.921 6.892-5.765 9-1.313.61-2.625.915-3.938.915H85.925c-2.813 0-5.297-1.29-7.453-3.867-1.406-1.875-2.11-3.797-2.11-5.766v-.844c0-3.093 1.547-5.742 4.641-7.945 1.688-1.031 3.352-1.547 4.992-1.547h.282l.28-.14zm-.14 50.273l30.304.14c2.016 0 4.172 1.032 6.469 3.094 1.828 2.11 2.742 4.407 2.742 6.891 0 3.469-1.617 6.305-4.852 8.508-1.594.937-3.14 1.406-4.64 1.406H85.784c-3 0-5.601-1.5-7.804-4.5-1.078-1.687-1.618-3.375-1.618-5.062v-.844c0-3.188 1.665-5.93 4.993-8.227 1.687-.843 3.28-1.265 4.78-1.265h.142c.093 0 .14-.047.14-.14zm58.85.14h.493c3.797 0 6.773 1.97 8.93 5.907.562 1.406.843 2.766.843 4.078 0 3.938-1.945 6.961-5.836 9.07-1.406.563-2.648.844-3.726.844h-.984c-3.188 0-5.907-1.664-8.157-4.992-.89-1.688-1.336-3.352-1.336-4.992 0-3.844 1.922-6.844 5.766-9 1.453-.61 2.789-.914 4.008-.914zm-58.71 49.923h58.781c0 .093.727.21 2.18.351 2.437.61 4.289 1.711 5.554 3.305 1.641 1.922 2.461 4.125 2.461 6.61 0 3.796-1.921 6.796-5.765 9-1.172.421-1.969.632-2.39.632h-62.86c-1.64 0-3.61-1.102-5.907-3.305-1.5-2.015-2.25-4.054-2.25-6.117v-.633c0-3.468 1.758-6.304 5.274-8.507 1.031-.61 2.625-1.032 4.781-1.266 0-.047.047-.07.14-.07zm159.46-99.282h.845c3.656 0 6.68 1.828 9.07 5.485 17.86 35.484 26.906 53.601 27.14 54.351.657 2.297.985 3.68.985 4.149 0 4.218-2.04 7.523-6.117 9.914-1.735.844-3.446 1.265-5.133 1.265-3.656 0-6.727-1.664-9.211-4.992-.281-.422-5.274-10.36-14.977-29.812-.656-.657-1.382-.985-2.18-.985-1.5 0-2.718 1.313-3.656 3.938l-36 71.226c-1.406 2.11-3.468 3.61-6.187 4.5a4.12 4.12 0 0 1-.984.141h-3.727c-1.64 0-3.586-.937-5.836-2.813-2.25-2.296-3.375-4.968-3.375-8.015 0-2.11 1.594-6.094 4.781-11.953 0-.14 12.422-24.96 37.266-74.461 5.437-10.969 8.367-16.758 8.789-17.367 2.484-3.047 5.32-4.57 8.508-4.57zm48.798 97.735h.914c3.562 0 6.539 1.78 8.93 5.343 1.03 1.922 1.546 3.727 1.546 5.415 0 4.078-1.968 7.312-5.906 9.703-1.406.656-2.46.984-3.164.984h-3.656c-1.688 0-3.703-1.031-6.047-3.094-2.016-2.297-3.024-4.804-3.024-7.523 0-3.469 1.477-6.399 4.43-8.79 2.016-1.359 4.008-2.038 5.977-2.038z" id="c"/><filter x="-17.6%" y="-21.2%" width="135.2%" height="167.4%" filterUnits="objectBoundingBox" id="b"><feOffset dy="15" in="SourceAlpha" result="shadowOffsetOuter1"/><feGaussianBlur stdDeviation="11" in="shadowOffsetOuter1" result="shadowBlurOuter1"/><feColorMatrix values="0 0 0 0 0 0 0 0 0 0 0 0 0 0 0 0 0 0 0.25 0" in="shadowBlurOuter1"/></filter><circle id="e" cx="318.5" cy="60.5" r="55.5"/><filter x="-65.8%" y="-44.1%" width="222.5%" height="222.5%" filterUnits="objectBoundingBox" id="d"><feOffset dx="-5" dy="19" in="SourceAlpha" result="shadowOffsetOuter1"/><feGaussianBlur stdDeviation="19.5" in="shadowOffsetOuter1" result="shadowBlurOuter1"/><feColorMatrix values="0 0 0 0 0 0 0 0 0 0 0 0 0 0 0 0 0 0 0.28161798 0" in="shadowBlurOuter1"/></filter><circle id="g" cx="319" cy="61" r="17"/><filter x="-152.9%" y="-111.8%" width="388.2%" height="388.2%" filterUnits="objectBoundingBox" id="f"><feOffset dx="-3" dy="11" in="SourceAlpha" result="shadowOffsetOuter1"/><feGaussianBlur stdDeviation="14.5" in="shadowOffsetOuter1" result="shadowBlurOuter1"/><feColorMatrix values="0 0 0 0 0.382304935 0 0 0 0 0.0324290316 0 0 0 0 0.516581633 0 0 0 0.654381793 0" in="shadowBlurOuter1"/></filter><circle id="i" cx="63.5" cy="348.5" r="9.5"/><filter x="-147.4%" y="-89.5%" width="363.2%" height="363.2%" filterUnits="objectBoundingBox" id="h"><feOffset dx="-3" dy="8" in="SourceAlpha" result="shadowOffsetOuter1"/><feGaussianBlur stdDeviation="7" in="shadowOffsetOuter1" result="shadowBlurOuter1"/><feColorMatrix values="0 0 0 0 0 0 0 0 0 0 0 0 0 0 0 0 0 0 0.28161798 0" in="shadowBlurOuter1"/></filter><linearGradient x1="79.408%" y1="0%" x2="6.263%" y2="100%" id="j"><stop stop-color="#FF710F" offset="0%"/><stop stop-color="#CB16A9" offset="100%"/></linearGradient></defs><g transform="translate(29 19)" fill="none" fill-rule="evenodd"><circle fill="url(#a)" cx="187" cy="208" r="187"/><use fill="#000" filter="url(#b)" xlink:href="#c"/><use fill="#FFF" xlink:href="#c"/><g opacity=".913"><use fill="#000" filter="url(#d)" xlink:href="#e"/><use fill="#FFF" xlink:href="#e"/></g><use fill="#000" filter="url(#f)" xlink:href="#g"/><use fill="#A43DFF" xlink:href="#g"/><g opacity=".913" transform="rotate(-7 63.5 348.5)"><use fill="#000" filter="url(#h)" xlink:href="#i"/><use fill="#FFF" xlink:href="#i"/></g><circle fill="#F5A623" cx="385" cy="117" r="12"/><circle fill="#D8D8D8" cx="257" cy="9" r="9"/><path d="M145.183 334.549a28.844 28.844 0 0 0-8.43 18.752c-.441 7.445-3.64 14.459-8.913 19.732-5.236 5.237-12.186 8.51-19.58 8.909a28.863 28.863 0 0 0-19.867 9.441c-4.985 5.474-7.483 12.45-7.494 19.43v.102c.012 6.984 2.515 13.963 7.507 19.437 11.211 12.293 30.278 12.625 41.91.991a28.845 28.845 0 0 0 8.43-18.752c.44-7.446 3.638-14.459 8.913-19.734 5.236-5.237 12.185-8.507 19.58-8.906a28.867 28.867 0 0 0 19.866-9.442c4.972-5.46 7.47-12.416 7.494-19.378v-.196c-.023-6.97-2.525-13.933-7.506-19.394a28.886 28.886 0 0 0-21.43-9.475c-7.411 0-14.824 2.827-20.48 8.483" fill="url(#j)" opacity=".898" transform="rotate(34 137.749 382.946)"/><path d="M220.973 42c-7.388.035-13.363 6.035-13.363 13.43 0 3.42 1.278 6.541 3.383 8.911a14.133 14.133 0 0 1 3.548 9.391h-.001c0 3.19-1.04 6.306-3.026 8.782-2.476 1.986-5.593 3.027-8.782 3.027a14.134 14.134 0 0 1-9.391-3.547 13.372 13.372 0 0 0-8.911-3.385c-7.628 0-13.77 6.36-13.415 14.066.316 6.876 5.894 12.457 12.77 12.779a13.376 13.376 0 0 0 9.609-3.418c2.556-2.293 5.907-3.499 9.34-3.499 3.458 0 6.806 1.251 9.392 3.548a13.372 13.372 0 0 0 8.91 3.384 13.4 13.4 0 0 0 4.814-.891c.007-.002.014-.004.02-.008a12.1 12.1 0 0 0 .598-.247l.052-.024c.186-.083.369-.169.55-.261l.083-.043c.17-.087.337-.177.504-.27.037-.021.073-.044.109-.066.155-.09.308-.18.458-.275.047-.029.092-.061.138-.092.138-.09.276-.181.41-.275.057-.04.11-.081.165-.121.122-.09.245-.179.365-.273.065-.051.126-.103.19-.155.107-.087.214-.173.318-.263.073-.062.143-.128.214-.192.092-.082.184-.165.273-.25.08-.076.156-.155.234-.232.078-.077.156-.154.232-.233.085-.09.167-.182.25-.274.064-.072.129-.141.192-.213.09-.105.176-.212.263-.319.05-.063.105-.126.154-.19.094-.12.184-.242.273-.364.04-.056.082-.109.12-.164.096-.135.187-.273.277-.412.03-.045.062-.091.092-.138.095-.15.186-.303.275-.457.02-.037.044-.073.065-.111.095-.165.183-.334.27-.504l.044-.081c.092-.181.177-.364.26-.552.008-.016.017-.033.024-.05.088-.197.17-.397.248-.598l.009-.02c.574-1.495.889-3.118.889-4.814 0-3.42-1.278-6.541-3.384-8.912a14.138 14.138 0 0 1-3.547-9.392c0-3.432 1.205-6.784 3.499-9.338a13.383 13.383 0 0 0 3.418-9.609c-.322-6.876-5.903-12.454-12.78-12.771a13.126 13.126 0 0 0-.56-.015h-.141z" fill="#FFF" opacity=".097"/></g></svg>