<?xml version="1.0" encoding="UTF-8"?>
<svg width="20px" height="20px" viewBox="0 0 20 20" version="1.1" xmlns="http://www.w3.org/2000/svg" xmlns:xlink="http://www.w3.org/1999/xlink">
    <title>EX Extensions Normal@1x</title>
    <g id="Page-1" stroke="none" stroke-width="1" fill="none" fill-rule="evenodd">
        <g id="EX-Extensions-Normal">
            <path d="M3.66130883,12.890254 L6.35613014,15.5850753 L6.37357889,17.3523904 C5.81356888,17.7723154 4.84254385,18.5335842 4.71128635,18.6298204 C4.0112981,19.1814251 3.04789448,19.1442642 2.38260184,18.5836105 L2.26149005,18.4723692 L2.1549628,18.366254 L0.943494069,19.5786329 C0.81462105,19.7075059 0.605676602,19.7075059 0.476803583,19.5786329 L0.0976175635,19.1994468 C-0.0312554556,19.0705738 -0.0312554556,18.8616294 0.0976175635,18.7327564 L1.3089628,17.520254 L1.17661503,17.3874941 C0.559049129,16.7698894 0.452894179,15.8111126 0.916785795,15.0805656 L1.01046002,14.9464016 L2.3140013,13.2928128 L3.66130883,12.890254 Z M19.1335654,5.78440513 C19.8549454,6.50640389 19.8549454,7.68087392 19.1347617,8.40345018 L15.7321316,11.8181665 C15.4812491,12.0704103 15.0753078,12.0512703 14.8428228,11.817589 L13.097989,10.060669 C12.8575428,9.81840771 12.858739,9.4281002 13.0991853,9.1870352 L16.5018154,5.78440513 C17.2002604,5.08356761 18.4351204,5.08356761 19.1335654,5.78440513 Z M13.8749328,0.525772511 C14.5596645,1.21108857 14.5977051,2.30213187 13.9890547,3.03252873 L13.8749328,3.15752257 L10.4723027,6.56015264 C10.2306602,6.8018364 9.83915646,6.8018364 9.59747271,6.56015264 L7.85263892,4.8159376 C7.61099641,4.5748726 7.61099641,4.18336884 7.85144267,3.94172634 L11.2540727,0.526391261 C11.9549103,-0.175642504 13.1764878,-0.175065004 13.8749328,0.525772511 Z" id="Combined-Shape" fill="#B7E0F6" fill-rule="nonzero"></path>
            <g id="Group" transform="translate(0.618750, 12.870000)"></g>
            <path d="M16.5926479,12.6802503 L14.0816366,15.1912616 C12.7692265,16.5211204 10.8882265,17.0898341 9.0595727,16.7136341 C9.0595727,16.7136341 8.94584644,16.6873991 8.92835644,16.6873991 C8.21964018,16.5386929 7.44975016,16.6786954 6.7847589,17.0636404 C6.7760139,17.0723854 6.7586064,17.0725091 6.7411164,17.0899579 C6.70609515,17.1074891 6.55730639,17.2037254 6.37353764,17.3524316 L2.31387755,13.2927715 C2.3751338,13.213984 2.42764505,13.1439828 2.4713288,13.0652365 C2.54145381,12.9777865 2.59388256,12.8903778 2.64635256,12.785314 C2.99631756,12.155344 3.11878882,11.420434 2.97008256,10.711759 C2.58505506,8.76937894 3.13619632,6.8882964 4.46609635,5.57592762 L6.97719015,3.06487507 C7.22217391,2.80236006 7.62465017,2.83738131 7.85210267,3.06487507 L8.64831019,3.87857258 C8.68324894,3.89598008 8.70952519,3.92225634 8.71827019,3.94853259 L16.5925654,11.8228278 C16.8376729,12.0503215 16.8464179,12.4440115 16.5926479,12.6802503 Z" id="Path" fill="#1676FC" fill-rule="nonzero"></path>
            <path d="M10.468219,11.822869 C9.77703396,12.514054 8.60470894,12.5666065 7.85222642,11.814124 C7.11735765,11.096704 7.11735765,9.90672396 7.84348142,9.19813145 C8.56094269,8.46313893 9.73335021,8.46326268 10.4682602,9.19813145 C11.1944252,9.90684771 11.194384,11.0966627 10.468219,11.822869 Z" id="Path" fill="#CAE8F9" fill-rule="nonzero"></path>
            <path d="M9.59330646,10.9479565 C9.34836395,11.192899 8.94584644,11.1754502 8.71839394,10.9479565 C8.47341018,10.7029727 8.48219643,10.3092002 8.71839394,10.073044 C8.96337769,9.82806021 9.3483227,9.82806021 9.59330646,10.073044 C9.82954521,10.3092415 9.83829021,10.7029315 9.59330646,10.9479565 Z" id="Path" fill="#136EF1" fill-rule="nonzero"></path>
        </g>
    </g>
</svg>