<?xml version="1.0" encoding="utf-8"?>
<!-- Generator: Adobe Illustrator 22.0.0, SVG Export Plug-In . SVG Version: 6.00 Build 0)  -->
<svg width="20" height="20" version="1.1" id="Layer_1" xmlns="http://www.w3.org/2000/svg" xmlns:xlink="http://www.w3.org/1999/xlink" x="0px" y="0px"
	 viewBox="0 0 20 20" style="enable-background:new 0 0 20 20;" xml:space="preserve">
<style type="text/css">
	.st0{fill:#FFFFFF;}
	.st1{fill:#383B3D;}
</style>
<g>
	<circle id="Oval" class="st0" cx="10" cy="10" r="10"/>
	<path class="st1" d="M18.4,9.8l-4.2-4.2c-0.2-0.2-0.6-0.2-0.8,0l-6.8,6.8c-0.2,0.2-0.6,0.2-0.8,0l0,0c-0.2-0.2-0.2-0.6,0-0.8l3-3
		c0.2-0.2,0.2-0.6,0-0.8L6.5,5.4c-0.2-0.2-0.6-0.2-0.8,0L1.6,9.4c-0.2,0.2-0.2,0.6,0,0.8l4.2,4.2c0.2,0.2,0.6,0.2,0.8,0l6.8-6.8
		c0.2-0.2,0.6-0.2,0.8,0l0,0c0.2,0.2,0.2,0.6,0,0.8l-3,3c-0.2,0.2-0.2,0.6,0,0.8l2.4,2.4c0.2,0.2,0.6,0.2,0.8,0l4.1-4.1
		C18.6,10.3,18.6,10,18.4,9.8z M6.5,7.5l0.3,0.3C7,8,7,8.3,6.8,8.5l-2,2c-0.2,0.2-0.6,0.2-0.8,0l-0.3-0.3c-0.2-0.2-0.2-0.6,0-0.8
		l2-2C5.9,7.2,6.3,7.2,6.5,7.5z M16,9.5l0.3,0.3c0.2,0.2,0.2,0.6,0,0.8l-2,2c-0.2,0.2-0.6,0.2-0.8,0l-0.3-0.3
		c-0.2-0.2-0.2-0.6,0-0.8l2-2C15.4,9.3,15.8,9.3,16,9.5z"/>
</g>
</svg>
