<?xml version="1.0" encoding="UTF-8"?>
<svg width="18px" height="18px" viewBox="0 0 18 18" version="1.1" xmlns="http://www.w3.org/2000/svg" xmlns:xlink="http://www.w3.org/1999/xlink">
    <!-- Generator: Sketch 60.1 (88133) - https://sketch.com -->
    <title>2</title>
    <desc>Created with Sketch.</desc>
    <g id="Page-3" stroke="none" stroke-width="1" fill="none" fill-rule="evenodd">
        <g id="Dashboard-icon" transform="translate(-79.000000, -35.000000)" fill="#FFFFFF">
            <path d="M97,35.0007 L97,53.0007 L79,53.0007 L79,35.0007 L97,35.0007 Z M88.276,36.1807 C88.124,36.0287 87.877,36.0287 87.724,36.1807 L87.724,36.1807 L80.181,43.7237 C80.029,43.8767 80.029,44.1237 80.181,44.2757 L80.181,44.2757 L81.044,45.1387 C81.196,45.2917 81.443,45.2917 81.595,45.1387 L81.595,45.1387 L87.76,38.9737 C87.892,38.8417 88.107,38.8417 88.24,38.9737 L88.24,38.9737 L93.026,43.7597 C93.159,43.8927 93.159,44.1077 93.026,44.2397 L93.026,44.2397 L88.24,49.0257 C88.107,49.1587 87.892,49.1587 87.76,49.0257 L87.76,49.0257 L87.373,48.6377 C87.24,48.5057 87.24,48.2917 87.373,48.1587 L87.373,48.1587 L91.267,44.2637 C91.42,44.1117 91.42,43.8637 91.267,43.7117 L91.267,43.7117 L88.196,40.6397 C88.044,40.4877 87.797,40.4877 87.644,40.6397 L87.644,40.6397 L82.371,45.9137 C82.218,46.0657 82.218,46.3127 82.371,46.4657 L82.371,46.4657 L87.724,51.8187 C87.877,51.9707 88.124,51.9707 88.276,51.8187 L88.276,51.8187 L95.819,44.2757 C95.971,44.1237 95.971,43.8767 95.819,43.7237 L95.819,43.7237 Z M87.7204,43.3925 C87.8304,43.2825 88.0094,43.2825 88.1194,43.3925 L88.1194,43.3925 L88.5944,43.8675 C88.7044,43.9775 88.7044,44.1565 88.5944,44.2665 L88.5944,44.2665 L85.9974,46.8635 C85.8874,46.9735 85.7084,46.9735 85.5984,46.8635 L85.5984,46.8635 L85.1234,46.3885 C85.0134,46.2785 85.0134,46.0995 85.1234,45.9905 L85.1234,45.9905 Z" id="2"></path>
        </g>
    </g>
</svg>