<?xml version="1.0" encoding="UTF-8"?>
<svg width="32px" height="32px" viewBox="0 0 32 32" version="1.1" xmlns="http://www.w3.org/2000/svg" xmlns:xlink="http://www.w3.org/1999/xlink">
    <!-- Generator: Sketch 60.1 (88133) - https://sketch.com -->
    <title>32_32 copy 2@2x</title>
    <desc>Created with Sketch.</desc>
    <g id="Page-2" stroke="none" stroke-width="1" fill="none" fill-rule="evenodd">
        <g id="32_32-copy-2">
            <path d="M4,0 L28,0 C30.209139,0 32,1.790861 32,4 L32,28 C32,30.209139 30.209139,32 28,32 L4,32 C1.790861,32 0,30.209139 0,28 L0,4 C0,1.790861 1.790861,0 4,0 Z" id="Rectangle" fill="#3445EE"></path>
            <path d="M22.6320083,10.25 C24.2950154,10.249639 25.9595306,10.8831745 27.2261708,12.1516293 C29.7579431,14.6860228 29.7579431,18.8097902 27.2261708,21.3441837 C25.5018361,23.0706811 22.9842647,23.6737727 20.6873719,22.9490312 L20.6873719,22.9490312 L21.1461975,21.863869 C23.0012303,22.4049405 25.0131007,21.905635 26.4001339,20.5171658 C27.405755,19.5105036 27.959588,18.1716001 27.959588,16.7479065 C27.959588,15.3242129 27.405755,13.9854352 26.4001339,12.9786472 C24.3239198,10.9004093 20.9453749,10.9004093 18.8692865,12.9786472 L18.8692865,12.9786472 L12.8322927,18.8255154 C10.9920892,20.6681274 7.98590807,20.6681274 6.13803855,18.8183447 C5.24300817,17.9223877 4.75,16.7309233 4.75,15.4637266 C4.75,14.1965298 5.24300817,13.0054429 6.13803855,12.1094858 C7.03306893,11.2135288 8.22292398,10.7196328 9.48868444,10.7196328 C10.7536909,10.7196328 11.9424149,11.212774 12.8374453,12.1070956 C12.8688768,12.1366241 12.8997233,12.1665494 12.9299848,12.1968713 L12.9463462,12.2136542 L12.9463462,12.2136542 L12.9623098,12.2308159 C13.3336899,12.6395743 13.3033888,13.2720015 12.8946435,13.643396 L12.8946435,13.643396 L9.82009199,16.4367998 C9.48165941,16.3099921 9.17100018,16.1139936 8.90847301,15.8511947 C8.88082534,15.8235184 8.85644513,15.7935777 8.83030552,15.764895 L8.83030552,15.764895 L11.4426888,13.4182087 C11.4876058,13.3778204 11.5264982,13.331196 11.55815,13.2797478 C11.740313,12.9836523 11.6479524,12.5959471 11.3518569,12.4137841 L11.3518569,12.4137841 L11.1398113,12.2931941 C10.6362874,12.0294011 10.0733078,11.8894593 9.48868444,11.8894593 C8.53521694,11.8894593 7.63867851,12.2614538 6.96432678,12.9365038 C6.2897237,13.6115537 5.91849094,14.5091461 5.91849094,15.4637266 C5.91849094,16.418307 6.2897237,17.3161511 6.96432678,17.991201 C8.35651248,19.3849539 10.6212334,19.3849539 12.0132934,17.991201 L12.0132934,17.991201 L18.0502872,12.1443328 C19.3116491,10.8817907 20.9712632,10.25 22.6320083,10.25 Z M4.8988292,10.9067437 C6.74820677,9.05522609 9.51020869,8.49432405 11.9335267,9.47926752 L11.9335267,9.47926752 L11.4945571,10.5628311 C9.50606154,9.75651087 7.24159195,10.215648 5.72499175,11.7335679 C4.7193707,12.7402732 4.165412,14.078941 4.165412,15.5026434 C4.165412,16.9262201 4.7193707,18.2648879 5.72499175,19.2715932 C7.80108019,21.3496604 11.1796251,21.3496604 13.2555879,19.2715932 L13.2555879,19.2715932 L19.2928329,13.4250794 C21.1329108,11.5827445 24.1390919,11.5827445 25.9869615,13.4323753 C26.8819918,14.3282587 27.375,15.5196252 27.375,16.7867179 C27.375,18.0538106 26.8819918,19.2447997 25.9869615,20.1405574 C25.0919311,21.0365666 23.902076,21.5302963 22.6361899,21.5302963 C21.588092,21.5302963 20.592776,21.1909122 19.7731483,20.5659825 L19.7731483,20.5659825 L20.5328308,19.6699733 C21.1403254,20.1160281 21.8687158,20.3606916 22.6361899,20.3606916 C23.5899087,20.3606916 24.4864472,19.9887276 25.1607989,19.3137332 C25.8352763,18.6386129 26.2065091,17.74122 26.2065091,16.7867179 C26.2065091,15.8322158 25.8352763,14.9344455 25.1607989,14.2593253 C23.7686132,12.8658126 21.5037666,12.8658126 20.1115809,14.2593253 L20.1115809,14.2593253 L14.0747128,20.1058391 C12.8133509,21.3682775 11.1537368,22 9.49299174,22 C7.82998457,22.0003772 6.16546935,21.366768 4.8988292,20.0985432 C2.36705693,17.5643578 2.36705693,13.4409291 4.8988292,10.9067437 Z" id="Combined-Shape" fill="#FFFFFF"></path>
        </g>
    </g>
</svg>