<?xml version="1.0" encoding="UTF-8"?>
<svg width="18px" height="18px" viewBox="0 0 18 18" version="1.1" xmlns="http://www.w3.org/2000/svg" xmlns:xlink="http://www.w3.org/1999/xlink">
    <!-- Generator: Sketch 60.1 (88133) - https://sketch.com -->
    <title>Combined Shape Copy</title>
    <desc>Created with Sketch.</desc>
    <g id="Page-2" stroke="none" stroke-width="1" fill="none" fill-rule="evenodd">
        <path d="M15.988,0.0002 C17.099,0.0002 18,0.9002 18,2.0112 L18,15.9892 C18,17.1002 17.099,18.0002 15.988,18.0002 L2.01,18.0002 C0.9,18.0002 0,17.1002 0,15.9892 L0,2.0112 C0,0.9002 0.9,0.0002 2.01,0.0002 L15.988,0.0002 Z M11.3900268,2.41711262 C8.83709667,1.49590399 5.9834,2.12658955 4.052,4.05895622 C1.316,6.79395622 1.316,11.2459562 4.052,13.9809562 C5.421,15.3499562 7.219,16.0339562 9.016,16.0339562 C10.811,16.0339562 12.604,15.3519562 13.967,13.9889562 L13.967,13.9889562 L17.338,10.7279562 L16.445,9.83495622 L13.082,13.0879562 L12.8971053,13.2649847 C10.6426771,15.3303171 7.12737838,15.2713076 4.945,13.0879562 C3.858,12.0019562 3.259,10.5569562 3.259,9.01995622 C3.259,7.48295622 3.858,6.03795622 4.945,4.95095622 C6.584,3.31295622 9.03,2.81695622 11.179,3.68795622 L11.179,3.68795622 L11.653,2.51795622 Z M9.0132,3.89885622 C7.6462,3.89885622 6.3602,4.43185622 5.3932,5.39885622 C4.4252,6.36585622 3.8932,7.65185622 3.8932,9.01985622 C3.8932,10.3878562 4.4252,11.6738562 5.3932,12.6408562 C7.3892,14.6368562 10.6372,14.6368562 12.6262,12.6488562 L12.6262,12.6488562 L17.2262,8.19885622 L16.3322,7.30585622 L11.7422,11.7478562 L11.5832239,11.8981773 C10.0694961,13.2510667 7.73737241,13.2009597 6.2862,11.7478562 C5.5572,11.0198562 5.1562,10.0498562 5.1562,9.01985622 C5.1562,7.98885622 5.5572,7.02085622 6.2862,6.29185622 C7.0142,5.56285622 7.9832,5.16185622 9.0132,5.16185622 C10.0362,5.16185622 10.9972,5.55685622 11.7232,6.27485622 L11.7232,6.27485622 L6.9692,10.8868562 L7.01095,10.9337312 L7.01095,10.9337312 L7.0542,10.9798562 C7.3372,11.2628562 7.6732,11.4748562 8.0392,11.6118562 L8.0392,11.6118562 L13.4162,6.39885622 C13.3746746,6.32614551 13.1201936,5.89171263 12.7378204,5.50123218 L12.7378204,5.50123218 L12.6312,5.39685622 L12.4336427,5.20947192 C11.4926311,4.36228733 10.2890667,3.89885622 9.0132,3.89885622 Z" id="Combined-Shape-Copy" fill="#FFFFFF"></path>
    </g>
</svg>