<?xml version="1.0" encoding="UTF-8"?>
<svg width="18px" height="18px" xmlns="http://www.w3.org/2000/svg" viewBox="0 0 18 18">
    <defs><style>.cls-1{fill:#ccc;}</style></defs>
    <title>Asset 11</title>
    <g id="Layer_2" data-name="Layer 2">
        <g id="Layer_1-2" data-name="Layer 1">
        <rect class="cls-1" x="6.64" y="9.37" width="3.07" height="0.9" rx="0.2" ry="0.2" transform="translate(-4.55 8.65) rotate(-45)"/>
        <path class="cls-1" d="M0,0V18H18V0ZM14.67,9.2,9.2,14.67a.28.28,0,0,1-.4,0L4.92,10.79a.28.28,0,0,1,0-.4L8.74,6.57a.27.27,0,0,1,.4,0l2.23,2.22a.28.28,0,0,1,0,.4L8.55,12a.24.24,0,0,0,0,.35l.28.28a.23.23,0,0,0,.34,0l3.47-3.47a.23.23,0,0,0,0-.34L9.17,5.36a.23.23,0,0,0-.34,0L4.36,9.83a.28.28,0,0,1-.4,0L3.33,9.2a.28.28,0,0,1,0-.4L8.8,3.33a.28.28,0,0,1,.4,0L14.67,8.8A.28.28,0,0,1,14.67,9.2Z"/>
        </g>
    </g>
</svg>