<?xml version="1.0" encoding="UTF-8"?>
<svg width="18px" height="20px" viewBox="0 0 18 20" version="1.1" xmlns="http://www.w3.org/2000/svg" xmlns:xlink="http://www.w3.org/1999/xlink">
    <title>General Active@1x</title>
    <g id="Page-1" stroke="none" stroke-width="1" fill="none" fill-rule="evenodd">
        <g id="layer1" fill="#FFFFFF" transform="translate(0.000000, 0.750353)">
            <path d="M8.376564,0.426117647 C7.724556,0.426117647 7.2,0.940352941 7.2,1.57964706 L7.2,3.02717647 C6.70838653,3.16593352 6.23489561,3.36025778 5.789064,3.60623529 L4.741404,2.57917647 C4.280364,2.12717647 3.53838,2.12717647 3.07734,2.57917647 L2.196096,3.44317647 C1.735056,3.89517647 1.735056,4.62258824 2.196096,5.07458824 L3.239064,6.09705882 C2.99107557,6.53602479 2.79601267,7.00178231 2.657808,7.48494118 L1.176564,7.48494118 C0.524556,7.48494118 0,7.99917647 0,8.63847059 L0,9.86082353 C0,10.5001176 0.524556,11.0143529 1.176564,11.0143529 L2.653128,11.0143529 C2.79374068,11.4970029 2.99116022,11.9619727 3.241404,12.3998824 L2.196096,13.4247059 C1.735056,13.8767059 1.735056,14.6042353 2.196096,15.0562353 L3.07734,15.9201176 C3.53838,16.3721176 4.280364,16.3721176 4.741404,15.9201176 L5.784372,14.8976471 C6.2321124,15.1407803 6.70718104,15.3320263 7.2,15.4675294 L7.2,16.9196471 C7.2,17.5589412 7.724556,18.0731765 8.376564,18.0731765 L9.623436,18.0731765 C10.275444,18.0731765 10.8,17.5589412 10.8,16.9196471 L10.8,15.4721176 C11.2916135,15.3333606 11.7651044,15.1390363 12.210936,14.8930588 L13.258596,15.9201176 C13.719636,16.3721176 14.46162,16.3721176 14.92266,15.9201176 L15.803904,15.0562353 C16.264944,14.6042353 16.264944,13.8767059 15.803904,13.4247059 L14.760936,12.4022353 C15.0089244,11.9632693 15.2039873,11.4975118 15.342192,11.0143529 L16.823436,11.0143529 C17.475444,11.0143529 18,10.5001176 18,9.86082353 L18,8.63847059 C18,7.99917647 17.475444,7.48494118 16.823436,7.48494118 L15.346872,7.48494118 C15.2053492,7.00296012 15.0071465,6.53874539 14.756256,6.10164706 L15.803904,5.07458824 C16.264944,4.62258824 16.264944,3.89517647 15.803904,3.44317647 L14.92266,2.57917647 C14.46162,2.12717647 13.719636,2.12717647 13.258596,2.57917647 L12.215628,3.60164706 C11.7678876,3.35851386 11.292819,3.16726783 10.8,3.03176471 L10.8,1.57964706 C10.8,0.940352941 10.275444,0.426117647 9.623436,0.426117647 L8.376564,0.426117647 L8.376564,0.426117647 Z M9,6.30847059 C10.6568542,6.30847059 12,7.62528015 12,9.24964706 C12,10.874014 10.6568542,12.1908235 9,12.1908235 C7.34314575,12.1908235 6,10.874014 6,9.24964706 C6,7.62528015 7.34314575,6.30847059 9,6.30847059 Z" id="rect5600-0"></path>
        </g>
    </g>
</svg>