<?xml version="1.0" encoding="UTF-8"?>
<svg width="20px" height="20px" viewBox="0 0 20 20" version="1.1" xmlns="http://www.w3.org/2000/svg" xmlns:xlink="http://www.w3.org/1999/xlink">
    <!-- Generator: Sketch 60.1 (88133) - https://sketch.com -->
    <title>General@1.5x</title>
    <desc>Created with Sketch.</desc>
    <g id="Page-1" stroke="none" stroke-width="1" fill="none" fill-rule="evenodd">
        <g id="General" fill-rule="nonzero">
            <path d="M14,10 C14,12.2091239 12.2091239,14 10,14 C7.79087611,14 6,12.2091239 6,10 C6,7.79087611 7.79087611,6 10,6 C12.2091239,6 14,7.79087611 14,10 Z" id="Path" fill="#FFB655"></path>
            <path d="M19.683791,8.59442418 L17.9083003,8.44827662 C17.6249289,8.42638818 17.3848294,8.23073901 17.3061993,7.95763841 C17.1428777,7.37372163 16.9096814,6.81152501 16.6116616,6.28350803 C16.4732592,6.0344847 16.5044082,5.72568908 16.6896182,5.50933005 L17.8414563,4.14820464 C17.9572967,4.01131759 17.9488781,3.80859678 17.8220934,3.68181211 L16.32004,2.17790659 C16.193087,2.05112191 15.9903661,2.04270325 15.8534791,2.15854371 L14.4923537,3.31038177 C14.2759947,3.49559181 13.967199,3.52674076 13.7183441,3.38833837 C13.1901587,3.09031856 12.6281304,2.85712229 12.0442137,2.69380074 C11.7709447,2.61517065 11.5754639,2.37507106 11.5534071,2.09169974 L11.4055758,0.31620897 C11.3905907,0.137060351 11.2405705,-0.00066859019 11.0607484,2.44146448e-06 L8.93790462,2.44146448e-06 C8.75808251,-0.00066859019 8.60806236,0.137060351 8.5930772,0.31620897 L8.44827662,2.09169974 C8.42638818,2.37507106 8.23073901,2.61517065 7.95763841,2.69380074 C7.37372163,2.85712229 6.81152501,3.09031856 6.28350803,3.38833837 C6.0344847,3.52674076 5.72568908,3.49559181 5.50933005,3.31038177 L4.14652093,2.15854371 C4.00963388,2.04270325 3.80691304,2.05112191 3.67995999,2.17790659 L2.17790659,3.67995999 C2.05112191,3.80691304 2.04270325,4.00963388 2.15854371,4.14652093 L3.31038177,5.50764634 C3.49559181,5.72400533 3.52674076,6.032801 3.38833837,6.28165592 C3.09031856,6.80984126 2.85712229,7.37186956 2.69380074,7.9557863 C2.61567577,8.2297288 2.37557619,8.42605142 2.09169974,8.44827662 L0.31620897,8.59627629 C0.137060351,8.61109309 -0.00066859019,8.7612816 2.44146448e-06,8.94110371 L2.44146448e-06,11.0651261 C-0.00066859019,11.2449482 0.137060351,11.3951367 0.31620897,11.4099535 L2.09169974,11.5579532 C2.37507106,11.5798416 2.61517065,11.7754908 2.69380074,12.0485914 C2.85712229,12.6325081 3.09031856,13.1947048 3.38833837,13.7227218 C3.52674076,13.9717451 3.49559181,14.2805407 3.31038177,14.4968997 L2.15854371,15.8534791 C2.04270325,15.9903661 2.05112191,16.193087 2.17790659,16.32004 L3.67995999,17.8220934 C3.80691304,17.9488781 4.00963388,17.9572967 4.14652093,17.8414563 L5.50764634,16.6896182 C5.72400533,16.5044082 6.032801,16.4732592 6.28165592,16.6116616 C6.80984126,16.9096814 7.37186956,17.1428777 7.9557863,17.3061993 C8.2297288,17.3843242 8.42605142,17.6244238 8.44827662,17.9083003 L8.59627629,19.683791 C8.61109309,19.8629396 8.7612816,20.0006686 8.94110371,20.0000024 L11.0651261,20.0000024 C11.2449482,20.0006686 11.3951367,19.8629396 11.4099535,19.683791 L11.5579532,17.9083003 C11.5798416,17.6249289 11.7754908,17.3848294 12.0485914,17.3061993 C12.6325081,17.1428777 13.1947048,16.9096814 13.7227218,16.6116616 C13.9717451,16.4732592 14.2805407,16.5044082 14.4968997,16.6896182 L15.8578568,17.8414563 C15.9947438,17.9572967 16.197633,17.9488781 16.3244177,17.8220934 L17.8264711,16.32004 C17.9532558,16.193087 17.9616745,15.9903661 17.845834,15.8534791 L16.6896182,14.4923537 C16.5044082,14.2759947 16.4732592,13.967199 16.6116616,13.7183441 C16.9096814,13.1901587 17.1428777,12.6281304 17.3061993,12.0442137 C17.3848294,11.7709447 17.6249289,11.5754639 17.9083003,11.5534071 L19.683791,11.4055758 C19.8629396,11.3905907 20.0006686,11.2405705 20.0000024,11.0607484 L20.0000024,8.93790462 C20.0000024,8.75858763 19.8624346,8.60940935 19.683791,8.59442418 Z M10,15 C7.23859513,15 5,12.7614049 5,10 C5,7.23859513 7.23859513,5 10,5 C12.7614049,5 15,7.23859513 15,10 C15,12.7614049 12.7614049,15 10,15 Z" id="Shape" fill="#F94045"></path>
        </g>
    </g>
</svg>