<svg width="1069" height="215" xmlns="http://www.w3.org/2000/svg" xmlns:xlink="http://www.w3.org/1999/xlink"><defs><rect id="a" x="0" y="0" width="1069" height="215" rx="2"/><linearGradient x1="1.701%" y1="24.475%" x2="98.518%" y2="88.992%" id="c"><stop stop-color="#5D38F9" offset="0%"/><stop stop-color="#973FFF" offset="100%"/></linearGradient><linearGradient x1="91.958%" y1="34.912%" x2="12.533%" y2="87.211%" id="d"><stop stop-color="#5D38F9" offset="0%"/><stop stop-color="#973FFF" offset="100%"/></linearGradient><linearGradient x1="92.595%" y1="33.059%" x2="9.316%" y2="80.32%" id="e"><stop stop-color="#3411FF" offset="0%"/><stop stop-color="#835DFF" offset="100%"/></linearGradient></defs><g fill="none" fill-rule="evenodd"><mask id="b" fill="#fff"><use xlink:href="#a"/></mask><use fill="#310EA1" fill-rule="nonzero" xlink:href="#a"/><g mask="url(#b)" fill-rule="nonzero" opacity=".478"><path d="M0 16v199.594c65.828 17.535 121.684 26.303 167.568 26.303 129.146 0 140.44 21.168 230.146 22.68C487.42 266.09 480.259 280 599.352 280c119.092 0 206.457-54.427 320.136-44.145 75.786 6.854 140.488-.706 194.106-22.68V16H0z" fill="url(#c)" transform="translate(-27 -65)"/><path d="M1100.594 58v164.85c-37.88 16.392-96.694 32.164-176.442 32.164-92.707 0-138.312 8.588-225.786 8.588-87.456 0-133.079 16.418-248.214 16.418-115.136 0-119.622-52.284-251.953-45.212C109.978 239.523 51.912 229.42 24 224.705V58h1076.594z" fill="url(#d)" transform="translate(-27 -65)"/><path d="M24 0v212.176C53.68 250.726 108.394 270 188.142 270c92.707 0 179.385-68 266.858-68 87.457 0 169.759 78 284.895 78C855.03 280 922.192 218.322 987 202c34.89-8.787 72.754-6.191 113.594 7.787V0H24z" fill="url(#c)" transform="translate(-27 -65)"/><path d="M1113.594 65v57.406c-35.57 36.107-173.355 90.78-254.658 90.78-94.515 0-113.077-12.34-203.539 0-90.46 12.34-134.964 27.363-273.397 19.822-138.433-7.542-150.928-46.192-217-81-35.57-18.74-110.89-46.521-149-24.142V65h1097.594z" fill="url(#e)" transform="translate(-27 -65)"/></g><g opacity=".469" mask="url(#b)" fill="#FFF" fill-rule="nonzero"><g transform="translate(-64 -313)"><circle opacity=".465" cx="1062.5" cy="495.5" r="7.5"/><circle stroke="#FFF" stroke-width="2" opacity=".367" cx="541" cy="429" r="4" fill="none"/><circle stroke="#FFF" stroke-width="2" opacity=".367" cx="581" cy="374" r="4" fill="none"/><circle opacity=".465" cx="827.5" cy="485.5" r="5.5"/><circle opacity=".465" cx="716" cy="346" r="5"/><circle stroke="#FFF" stroke-width="2" opacity=".367" cx="186" cy="490" r="4" fill="none"/><circle opacity=".465" cx="839.5" cy="385.5" r="7.5"/><circle stroke="#FFF" stroke-width="2" opacity=".367" cx="436.5" cy="348.5" r="6.5" fill="none"/><circle opacity=".465" cx="671" cy="479" r="5"/><circle stroke="#FFF" stroke-width="2" opacity=".367" cx="402" cy="491" r="4" fill="none"/><circle opacity=".465" cx="205" cy="359" r="3"/><circle opacity=".465" cx="996" cy="460" r="3"/><circle stroke="#FFF" stroke-width="2" opacity=".367" cx="1002" cy="347" r="2" fill="none"/></g></g></g></svg>