<svg viewBox="0 0 48 48" xmlns="http://www.w3.org/2000/svg"><path d="M35.73 25.747l.835-.827a8.282 8.282 0 0 0 2.412-5.867 8.267 8.267 0 0 0-2.412-5.867c-3.222-3.222-8.503-3.222-11.734 0l-.827.836-.835-.836c-3.222-3.222-8.503-3.222-11.725 0a8.24 8.24 0 0 0-2.421 5.867c0 2.119.801 4.256 2.42 5.867l.828.827 11.307 11.307a.602.602 0 0 0 .852 0l11.3-11.307" fill="#ef4b53"/><path d="M17.803 12.244s-6.932-.55-7.652 7.309c0 0 1.441-5.765 7.858-5.49 0 0 1.594.16 1.59-.832-.004-1.084-1.796-.987-1.796-.987z" fill="#f47682"/></svg>