<?xml version="1.0" encoding="utf-8"?>
<!-- Generator: Adobe Illustrator 22.0.0, SVG Export Plug-In . SVG Version: 6.00 Build 0)  -->
<svg width="20" height="20" version="1.1" id="Layer_1" xmlns="http://www.w3.org/2000/svg" xmlns:xlink="http://www.w3.org/1999/xlink" x="0px" y="0px"
	 viewBox="0 0 20 20" style="enable-background:new 0 0 20 20;" xml:space="preserve">
<style type="text/css">
	.st0{fill:#FFFFFF;}
	.st1{fill:#23282D;}
</style>
<title>Layout</title>
<desc>Created with Sketch.</desc>
<g>
	<circle id="Oval" class="st0" cx="10" cy="10" r="10"/>
	<g>
		<path class="st1" d="M10,16.4c-0.1,0-0.2,0-0.4-0.1l-5-2.9c-0.2-0.1-0.4-0.4-0.4-0.6l0-1.2c0.1-2.2,2.2-3.3,6.2-3.3
			c0.4,0,0.8,0,1.1,0c0.1,0,0.2,0,0.3,0c0.5,0,0.9,0,1.4-0.1c-0.1,0-0.1,0-0.2,0.1c-1.6,0.4-4.3,1.2-5.7,2.2C6.4,11.3,6.1,12,6,12.5
			c-0.1,0.7,0.1,1.2,0.3,1.5c0.2,0.2,0.4,0.4,0.8,0.6C7.5,14.9,8,15,8.5,15c0.3,0,0.6,0,0.9-0.1c0.5,0.5,1.2,0.8,1.9,0.8
			c0.1,0,0.1,0,0.2,0l-1.1,0.6C10.2,16.4,10.1,16.4,10,16.4z"/>
		<path class="st1" d="M11.2,15.5c-0.6,0-1.2-0.2-1.6-0.7c0.4-0.1,0.8-0.3,1.2-0.6c0.8-0.5,1.4-1.1,1.9-1.7c0.7-0.8,1.3-1.4,2.1-1.4
			c0.1,0,0.2,0,0.3,0c0.2,0,0.4,0.2,0.5,0.6c0.1,0.3,0.1,0.7,0.1,1c0,0,0,0,0,0c0,0.2-0.1,0.5-0.6,0.8l-2.8,1.6c0,0,0,0,0,0
			C12,15.4,11.6,15.5,11.2,15.5C11.2,15.5,11.2,15.5,11.2,15.5z"/>
		<path class="st1" d="M8.5,14.8c-1,0-1.7-0.5-1.9-0.8c-0.2-0.3-0.4-0.8-0.3-1.4c0.1-0.7,0.5-1.3,1.2-1.8c1.4-1,4.1-1.7,5.6-2.2
			c0.2-0.1,0.4-0.1,0.5-0.1c-0.2,0.1-0.4,0.2-0.7,0.3C11.8,9.3,10.2,10,9.5,11c-0.5,0.7-0.7,1.4-0.8,2.1c-0.1,0.6,0.1,1.2,0.4,1.7
			C8.9,14.7,8.7,14.8,8.5,14.8C8.5,14.8,8.5,14.8,8.5,14.8z"/>
		<path class="st1" d="M4.3,7.1c0-0.3,0.1-0.5,0.4-0.6l5-2.9C9.7,3.6,9.8,3.6,10,3.6c0.1,0,0.2,0,0.4,0.1L14.4,6
			C14.7,6.2,15,6.5,15,6.9l0,0l0,0c0,0,0,0,0,0l0,0c0,0,0,0,0,0c0,0,0,0,0,0l0,0l0,0c0,0,0,0,0,0l0,0c0,0,0,0,0,0l0,0l0,0
			c-0.1,0.3-0.4,0.6-1,0.9c-0.5,0.2-1.3,0.3-2.1,0.3c0,0,0,0,0,0c-0.1,0-0.2,0-0.3,0c-0.3,0-0.7,0-1.1,0c-1.7,0-3,0.2-4,0.6
			c-1.1,0.4-1.8,1-2.2,1.9L4.3,7.1z"/>
	</g>
</g>
</svg>
