<svg xmlns="http://www.w3.org/2000/svg" width="32" height="32" viewBox="0 0 50 50"><path d="M24.813 2c-.11.023-.215.066-.313.125l-8 4.438a1.266 1.266 0 0 0-.094.062l-.031.031-.031.032a.472.472 0 0 0-.063.062.954.954 0 0 0-.125.156.466.466 0 0 0-.031.063.466.466 0 0 0-.031.062l-.032.032v.03a.466.466 0 0 0-.03.063v.094c-.012.04-.024.082-.032.125a.753.753 0 0 0 0 .188v3.28l-9.5 5.282A.999.999 0 0 0 6 17v8.625L2.625 27.5l-.125.063a1.266 1.266 0 0 0-.094.062l-.031.031-.031.032a.472.472 0 0 0-.063.062.472.472 0 0 0-.125.156.466.466 0 0 0-.031.063.466.466 0 0 0-.031.062l-.031.032v.03a.466.466 0 0 0-.032.063v.094c-.011.04-.023.082-.031.125a.753.753 0 0 0 0 .188v8.78a.999.999 0 0 0 .5.876l7.938 4.406.062.031.031.032h.063l.031.03c.02.012.043.024.063.032h.093l.031.031h.313a1.09 1.09 0 0 0 .25-.062h.031l.031-.032a.466.466 0 0 0 .063-.03l.094-.063a.466.466 0 0 0 .062-.032l1.656-.906L24.5 47.875c.309.18.691.18 1 0l11.188-6.219 1.75.969c.03.023.062.043.093.063h.063l.031.03c.02.012.043.024.063.032h.093l.032.031h.312a1.09 1.09 0 0 0 .25-.062h.031l.032-.032a.466.466 0 0 0 .062-.03l.094-.063a.466.466 0 0 0 .062-.032L47.5 38.22a.999.999 0 0 0 .5-.875V28.97a.992.992 0 0 0 .098-1.121.995.995 0 0 0-1.004-.504L44 25.625V17a.999.999 0 0 0-.5-.875L34 10.844V7.969a.992.992 0 0 0 .098-1.121.995.995 0 0 0-1.004-.504L25.5 2.125A1.012 1.012 0 0 0 24.906 2h-.093zM25 4.156l5.938 3.282L25 10.655l-5.938-3.219zm-7 4.969l6 3.25v6.688l-6-3.313v-4.031a1.025 1.025 0 0 0 0-.594zm14 0v2a.985.985 0 0 0 0 .563v4.062l-6 3.313v-6.688zm-16 4.031v3.188a.999.999 0 0 0 .5.875l8 4.437.031.032h.063l.031.03c.02.012.043.024.063.032h.093l.032.031h.312a1.09 1.09 0 0 0 .25-.062h.031l.032-.032a.466.466 0 0 0 .062-.03l.094-.063a.466.466 0 0 0 .062-.032L33.5 17.22a.999.999 0 0 0 .5-.875v-3.188l8 4.438V24.5l-2.5-1.375a1.012 1.012 0 0 0-.594-.125h-.093c-.11.023-.215.066-.313.125l-8 4.438a.466.466 0 0 0-.063.03.472.472 0 0 0-.062.063l-.031.032a.984.984 0 0 0-.25.344l-.031.03v.032a.466.466 0 0 0-.032.062.997.997 0 0 0-.031.219v8.969a.999.999 0 0 0 .5.875l4.125 2.281L25 45.844 15.375 40.5l4.125-2.281a.999.999 0 0 0 .5-.875v-8.375a.992.992 0 0 0 .098-1.121.995.995 0 0 0-1.004-.504L11.5 23.125a1.012 1.012 0 0 0-.594-.125h-.094a1.01 1.01 0 0 0-.312.125L8 24.5v-6.906zm-5 12l5.938 3.282L11 31.655l-5.938-3.218 2.25-1.25.188-.094a.466.466 0 0 0 .063-.032l.03-.03A.466.466 0 0 0 7.657 27zm28 0l3.438 1.907c.058.039.12.07.187.093l2.313 1.282L39 31.655l-5.938-3.218zM4 30.125l6 3.25v6.688L4 36.75zm14 0v6.625l-5.063 2.813h-.03a.466.466 0 0 0-.063.03.842.842 0 0 0-.188.094.472.472 0 0 0-.062.063l-.594.313v-6.688zm14 0l6 3.25v6.688l-.688-.376-.03-.03-.063-.032a.88.88 0 0 0-.094-.031L32 36.75zm14 0v6.625l-6 3.313v-6.688z"/></svg>