<svg xmlns="http://www.w3.org/2000/svg" viewBox="0 0 64 64"><linearGradient id="a" gradientUnits="userSpaceOnUse" x1="32" y1="5.625" x2="32" y2="59.18" spreadMethod="reflect"><stop offset="0" stop-color="#1a6dff"/><stop offset="1" stop-color="#c822ff"/></linearGradient><path d="M24.028 58h-1.963a1.993 1.993 0 0 1-1.688-.927 1.996 1.996 0 0 1-.123-1.926L27.011 40H15.999a2.965 2.965 0 0 1-2.726-1.757 2.974 2.974 0 0 1 .471-3.219l24.724-28.34c.38-.435.928-.684 1.503-.684h1.964a1.99 1.99 0 0 1 1.686.926c.371.581.417 1.302.126 1.926L36.667 24h11.335c1.188 0 2.232.673 2.726 1.757a2.974 2.974 0 0 1-.471 3.219l-24.726 28.34a1.993 1.993 0 0 1-1.503.684zM39.971 8l-24.72 28.339a.987.987 0 0 0-.157 1.077.982.982 0 0 0 .905.584h14.095l-8.021 17.979 1.955.021 24.721-28.339a.987.987 0 0 0 .157-1.077.982.982 0 0 0-.905-.584H33.524l8.41-17.995L39.971 8z" fill="url(#a)"/><linearGradient id="b" gradientUnits="userSpaceOnUse" x1="32" y1="18.75" x2="32" y2="44.809" spreadMethod="reflect"><stop offset="0" stop-color="#6dc7ff"/><stop offset="1" stop-color="#e6abff"/></linearGradient><path d="M31.226 43.457l4.006-8.011A1 1 0 0 0 34.338 34H23.093a1 1 0 0 1-.769-1.642l9.974-11.968c.393-.472 1.128.038.823.571l-4.311 7.545A.998.998 0 0 0 29.676 30h11.231c.833 0 1.302.958.79 1.616l-9.625 12.375c-.372.479-1.118.01-.846-.534z" fill="url(#b)"/></svg>