<svg id="Payment_Processing" data-name="Payment Processing" xmlns="http://www.w3.org/2000/svg" width="450" height="337.5" viewBox="0 0 450 337.5">
  <g id="background">
    <rect id="Rectangle" width="450" height="337.5" fill="#fff"/>
  </g>
  <g id="shadow" transform="translate(114.3 38.25)">
    <g id="Group">
      <g id="Group-2" data-name="Group">
        <path id="Path" d="M3.889,1.442C3.034.857,1.834-.418.724.137c-1.095.54-.8,1.65-.105,2.355.585.6,2.025,1.65,2.925,1.425A1.374,1.374,0,0,0,3.889,1.442Z" transform="translate(78.701 16.288)" fill="#ebf2ff"/>
        <path id="Path-2" data-name="Path" d="M.431.723c-1.335,1.92.735,4.23,2.055,2.04C3.461,1.173,1.781-1.212.431.723Z" transform="translate(90.994 14.757)" fill="#ebf2ff"/>
        <path id="Path-3" data-name="Path" d="M2.082.014C1.227.119.222.179.027,1.2A1.352,1.352,0,0,0,1.332,2.8C3.627,3.074,4.017-.241,2.082.014Z" transform="translate(86.388 23.251)" fill="#ebf2ff"/>
        <path id="Path-4" data-name="Path" d="M2.855,15.79c.39-.045.675-.57.945-.6.18-.015.975.8,1.275.78.66-.03.735-.915.945-1.5.615-1.755-.975-2.985-.525-4.515C7.88,8.515,13.97,6.685,14.21,2.6c.285.18,1.05,3.06,2.94,3.4,1.455.255,3.24.72,3.255-1.23.015-2.22-5.385-6.735-6.72-3.84C11-.485,8.39.595,6.725,1.285A11.951,11.951,0,0,0,1.775,5.53a10.949,10.949,0,0,0-1.74,7.065C.125,13.7.845,17.875,2.855,15.79Z" transform="translate(71.5 0.05)" fill="#ebf2ff"/>
        <path id="Path-5" data-name="Path" d="M30.375,10.312l28.38-4.95c1.35-.24,5.325-.135,6.045-1.335.75-1.245-1.125-2.31-2.25-2.535C58.11.607,53.535-.248,48.99.067c-4.455.3-7.515,1.425-12.51,3.24-5.94.12-11.9-2.4-16.5-1.32C10.92,4.117,1.62,13.222.8,13.732-5.31,17.542,25.59,11.152,30.375,10.312Z" transform="translate(50.01 35.198)" fill="#ebf2ff"/>
        <path id="Path-6" data-name="Path" d="M2.063,7.862c4.17,2.55,5.2-5.595,1.725-7.41C-.817-1.963-1.012,5.987,2.063,7.862Z" transform="translate(11.362 100.348)" fill="#ebf2ff"/>
        <path id="Path-7" data-name="Path" d="M1.076,8.39C4.286,11.42,6.041,3.1,4.271.935A2.03,2.03,0,0,0,.656,1.31C-.094,3.065-.484,6.92,1.076,8.39Z" transform="translate(174.919 72.61)" fill="#ebf2ff"/>
        <path id="Path-8" data-name="Path" d="M26.664,1.016c-1.2-2.055-5.7-.405-7.47-.12q-4.815.788-9.6,1.65c-1.68.3-3.345.615-5.01.915-1.245.225-3.06.03-4.02.885-1.02.9-.39,3.75-.165,5.715.57,5.085,3.7,1.965,5.745,1.23,2.865-1.035,5.805-1.815,8.76-2.565C17.709,8.006,29.829,6.446,26.664,1.016Z" transform="translate(68.826 131.584)" fill="#ebf2ff"/>
        <path id="Path-9" data-name="Path" d="M28.4.058C21.405,1.033-1.62,4.618.09,6.223c1.26,1.185,4.995,2.925,6.945,4.8,1.62-.315,15.33-3.57,18.87-4.215,2.3-.42,6.06-.51,7.02-3.135C34.035.688,30.57-.257,28.4.058Z" transform="translate(115.65 123.107)" fill="#ebf2ff"/>
        <path id="Path-10" data-name="Path" d="M4.75,24.65A23.9,23.9,0,0,0,8.875,11.375C8.98,8.78,8.05,4.655,7.54,2.1,7.06-.31,6.28-.73,4.75,1.28A25.74,25.74,0,0,0,.07,14.18C-.545,19.745,3.055,27.17,4.75,24.65Z" transform="translate(93.995 159.625)" fill="#ebf2ff"/>
        <path id="Path-11" data-name="Path" d="M.649.748a30.5,30.5,0,0,0,.78,15.63c.87,2.49,6.885,10.665,8.91,11.19,1.92.5.765-6.7.735-8.3-.075-3.225-.135-6.585-1.38-9.615a25.686,25.686,0,0,0-4.65-7.005C4.429,1.933,1.054-1.487.649.748Z" transform="translate(169.601 144.872)" fill="#ebf2ff"/>
        <path id="Path-12" data-name="Path" d="M17.612.6c-1.02-1.755-4.8.855-6.09,1.35a57.527,57.527,0,0,1-7.74,2.34c-.93.21-5.415.9-3.15,2.835,1.3,1.125,5.475-.6,6.96-1.02-1.35.735-2.73,1.41-4.125,2.025-.945.405-2.43.69-2.385,1.98.12,2.865,5.3-.345,6.36-.885,1.845-.93,5.37-2.3,6.285-4.215.585-1.2-1.005-.3.555-1.26.63-.39,1.47-.615,2.13-.945C17.252,2.354,18.257,1.694,17.612.6Z" transform="translate(77.038 184.591)" fill="#ebf2ff"/>
        <path id="Path-13" data-name="Path" d="M.61,2.556C4.5,5.091,9.115,5.946,13.6,6.741c1.305.24,4.38,1.47,5.55.675,1.455-.99.225-2.295-.945-2.55,1.815-1.92-1.815-2.4-2.745-2.6-.975-.2-2.22-1.005-3.18-.885a1.337,1.337,0,0,0-.93,2.205A28.622,28.622,0,0,1,3.235.936C2.38.471,1.39-.519.475.336A1.411,1.411,0,0,0,.61,2.556Z" transform="translate(57.8 235.449)" fill="#ebf2ff"/>
        <path id="Path-14" data-name="Path" d="M1.675,9.836a29.711,29.711,0,0,0,10.02-4.785c1.035-.75,3.36-2.145,3.69-3.45.36-1.455-1.23-1.98-2.25-1.32C11.65,1.241,10.45,2.7,8.95,3.686a26.231,26.231,0,0,1-4.77,2.49C3.1,6.611.52,6.851.085,8.051A1.365,1.365,0,0,0,1.675,9.836Z" transform="translate(160.595 209.899)" fill="#ebf2ff"/>
        <path id="Path-15" data-name="Path" d="M5.057.223c-1.29.825-4.185,1.95-4.875,3.3C-.493,4.843.842,5.773,2,5.353a14.9,14.9,0,0,0,2.52-1.605c.645-.4,1.83-.87,2.25-1.515C7.5,1.108,6.362-.617,5.057.223Z" transform="translate(169.873 213.242)" fill="#ebf2ff"/>
        <path id="Path-16" data-name="Path" d="M11.324,1.578c-1.74.525-3.495,1.035-5.235,1.56-1.605.48-4.035.75-5.445,1.65-1.1.7-.5,1.26-.345,2.19.315,1.89-.03,4.05.075,5.985a28.776,28.776,0,0,0,.51,5.565c.42,1.6,1.4,1.47,2.76.855,3.4-1.515,6.78-3.09,10.245-4.5a219.094,219.094,0,0,1,21.72-7.605c1.71-.5,3.45-.93,5.145-1.44,1.62-.48,2.04-1.38,1.29-2.955C41.009.723,37.619.078,34.664,0c-4.035-.09-15.36,1.965-17.3,1.56A10.763,10.763,0,0,0,11.324,1.578Z" transform="translate(165.136 224.562)" fill="#ebf2ff"/>
        <path id="Path-17" data-name="Path" d="M21.727,3.518c-1.2-.5-1.215-2.385-2.55-2.79A21.324,21.324,0,0,0,14,.383C12.067.323,10.132.248,8.2.188A12.783,12.783,0,0,0,5.272.068c-.9.18-3.825,8.52-4.425,10.485-.36,1.155-1.44,3.225-.42,4.275.93.96,13.545.4,17.58.42l23.925.09c2.295.015,3.03-1.035,2.2-3.09C41.557,5.933,23.362,4.193,21.727,3.518Z" transform="translate(51.578 245.827)" fill="#ebf2ff"/>
        <path id="Path-18" data-name="Path" d="M4.429.943A3.265,3.265,0,0,0,1.264.133c-.9.285-1.935,1.755-.69,2.64.51.375.84-.015,1.335-.03.735-.015,1.17.66,1.83.72C4.894,3.568,5.344,1.783,4.429.943Z" transform="translate(0.071 259.487)" fill="#ebf2ff"/>
        <path id="Path-19" data-name="Path" d="M29.418.459Q20.08.617,10.758.384C7.743.309,4.608-.156,1.593.054.843.1.153.324.258,1.509c.12,1.35,1.17,1.23,2,1.275C1.4,2.859-.072,3.159,0,4.614c.09,1.74,1.275,1.035,2.07.885.855-.15,1.98.795,2.61-.255.825-1.38-.57-2.25-1.455-2.415,5.67.24,11.355.375,17.025.4,2.835.015,5.685.09,8.52-.045.7-.03,1.455,0,1.65-1.05C30.573,1.3,30.123.444,29.418.459Z" transform="translate(7.242 260.301)" fill="#ebf2ff"/>
        <path id="Path-20" data-name="Path" d="M13.55.753C10.16.5,6.68-.027,3.275,0,2.33,0,.5-.1.08,1.008a1.467,1.467,0,0,0,.855,1.8c.96.4,2.565-.165,3.615-.105,1.725.105,3.45.315,5.175.45,1.155.09,3.27.72,4.35.195A1.36,1.36,0,0,0,13.55.753Z" transform="translate(37.72 259.902)" fill="#ebf2ff"/>
        <path id="Path-21" data-name="Path" d="M11.547.722C8.622.467,5.667.062,2.742.017,1.842,0,.627-.148.147.812a1.4,1.4,0,0,0,.435,1.77c.705.5,2.76.135,3.6.2,1.47.09,2.925.255,4.395.375,1.02.09,2.82.63,3.72.015A1.343,1.343,0,0,0,11.547.722Z" transform="translate(38.553 267.358)" fill="#ebf2ff"/>
        <path id="Path-22" data-name="Path" d="M3.677.4c-1.035-.63-3.225-.615-3.6.84-.45,1.725,1.185,1.455,2.07,1.455.24,0,.375.24.66.21C4.052,2.766,5.1,1.266,3.677.4Z" transform="translate(53.413 268.959)" fill="#ebf2ff"/>
        <path id="Path-23" data-name="Path" d="M73.786.732C52.4-.018,31.066-.243,9.676.3c-2.595.06-5.325-.09-7.9.21C.571.642-.749,1.752.511,2.937c.6.57,1.77.27,2.52.24,1.4-.03,2.775-.075,4.17-.105q4.162-.112,8.325-.18c10.545-.21,21.105-.315,31.65-.18,6.1.075,12.21.24,18.315.45l4.155.135c1.155.045,3.45.54,4.56.105A1.389,1.389,0,0,0,73.786.732Z" transform="translate(96.029 260.628)" fill="#ebf2ff"/>
        <path id="Path-24" data-name="Path" d="M16.186,1.207c-1.83-.39-3.465.465-5.265.51-1.95.06-3.75-.99-5.61-1.44C3.976-.038,1.1-.383.226,1.072c-.825,1.38.8,2.055,1.86,1.89a7.872,7.872,0,0,1,4.74.57,9.61,9.61,0,0,0,5.34.78,17.968,17.968,0,0,1,2.64-.555c.69-.03,1.29.24,1.86-.255A1.317,1.317,0,0,0,16.186,1.207Z" transform="translate(105.359 267.652)" fill="#ebf2ff"/>
        <path id="Path-25" data-name="Path" d="M3.1.421C.908-1.064-1.6,1.786,1.328,2.7,2.783,3.166,5.018,1.741,3.1.421Z" transform="translate(124.327 267.749)" fill="#ebf2ff"/>
        <path id="Path-26" data-name="Path" d="M5.255.738C4.13.213,1.28-.567.305.633A1.434,1.434,0,0,0,.77,2.778c.51.285.945,0,1.47.015.765.015,1.44.405,2.175.42C5.705,3.258,6.665,1.4,5.255.738Z" transform="translate(159.625 266.772)" fill="#ebf2ff"/>
        <path id="Path-27" data-name="Path" d="M12.209,1.858c0-1.515-1.575-1.305-2.58-1.245A21.886,21.886,0,0,1,5.2.4C3.959.223-.271-.887.014,1.588c.135,1.155,1.11,1.1,1.995,1.125a30.985,30.985,0,0,1,3.525.435C6.9,3.358,12.209,4.183,12.209,1.858Z" transform="translate(174.046 261.422)" fill="#ebf2ff"/>
        <path id="Path-28" data-name="Path" d="M12.669.746A26.237,26.237,0,0,0,2.529.3C1.569.446.159.431.009,1.661a1.458,1.458,0,0,0,1.275,1.56c1.29.225,3.015-.465,4.35-.51a26.379,26.379,0,0,1,5.535.48c.87.15,1.755.435,2.28-.5A1.307,1.307,0,0,0,12.669.746Z" transform="translate(183.111 269.629)" fill="#ebf2ff"/>
        <path id="Path-29" data-name="Path" d="M28.609,1.05C22.759.285,16.894,1.38,11.029,1c-2.7-.18-5.34-.96-8.055-.99C2.014,0,.5-.15.094.975-.281,2.04.529,2.595,1.444,2.76c1.26.21,2.64-.06,3.945.15,1.23.195,2.43.48,3.66.615a52.2,52.2,0,0,0,8.385.165c2.925-.12,5.835-.315,8.76-.15.96.06,2.565.585,3.33-.18A1.352,1.352,0,0,0,28.609,1.05Z" transform="translate(191.021 261.375)" fill="#ebf2ff"/>
        <path id="Path-30" data-name="Path" d="M11.657,1.036A46.447,46.447,0,0,0,2.117,0c-.915.015-1.8-.045-2.07,1A1.356,1.356,0,0,0,1.112,2.671c1.32.375,3.255.105,4.635.225,1.605.15,3.195.51,4.785.675.855.09,1.59.135,1.965-.81A1.191,1.191,0,0,0,11.657,1.036Z" transform="translate(225.298 261.584)" fill="#ebf2ff"/>
        <path id="Path-31" data-name="Path" d="M10.406.9C7.8.633,5.186.363,2.591.093,1.691,0,.536-.252.116.813c-.42,1.035.375,1.62,1.245,1.86,2.28.615,5.055.525,7.41.765.975.105,2.4.525,2.9-.675A1.409,1.409,0,0,0,10.406.9Z" transform="translate(208.744 269.832)" fill="#ebf2ff"/>
        <path id="Path-32" data-name="Path" d="M2.892,1.031A1.469,1.469,0,0,0,.237.7C-1.083,2.981,3.582,3.6,2.892,1.031Z" transform="translate(239.238 265.594)" fill="#ebf2ff"/>
      </g>
      <path id="Path-33" data-name="Path" d="M2.218,28.138c-3.165,0-2.715-4.065-.09-4.665.675-.15,1.38-.225,2.055-.33,3.165-.51,6.315-1.02,9.48-1.545q17.078-2.79,34.17-5.565,21.42-3.487,42.825-6.96,18.743-3.06,37.5-6.105c6.015-.975,12.135-2.43,18.21-2.955,3.015-.27,4.1,3.675.975,4.56-.345.09-.72.12-1.08.18-2.595.42-5.2.84-7.8,1.275l-32.13,5.22q-21.263,3.465-42.51,6.915-19.53,3.172-39.075,6.36c-7.08,1.155-14.145,2.37-21.24,3.45A12.122,12.122,0,0,1,2.218,28.138Z" transform="translate(23.612 111.332)" fill="#ebf2ff"/>
      <path id="Path-34" data-name="Path" d="M2.218,28.138c-3.165,0-2.715-4.065-.09-4.665.675-.15,1.38-.225,2.055-.33,3.165-.51,6.315-1.02,9.48-1.545q17.078-2.79,34.17-5.565,21.42-3.487,42.825-6.96,18.743-3.06,37.5-6.105c6.015-.975,12.135-2.43,18.21-2.955,3.015-.27,4.1,3.675.975,4.56-.345.09-.72.12-1.08.18-2.595.42-5.2.84-7.8,1.275l-32.13,5.22q-21.263,3.465-42.51,6.915-19.53,3.172-39.075,6.36c-7.08,1.155-14.145,2.37-21.24,3.45A12.122,12.122,0,0,1,2.218,28.138Z" transform="translate(10.397 36.107)" fill="#ebf2ff"/>
    </g>
  </g>
  <g id="color_shadow" transform="translate(146.1 111.6)">
    <g id="Group-3" data-name="Group">
      <path id="Path-35" data-name="Path" d="M24.486,16.041,4.071,19.326a1.783,1.783,0,0,1-2.04-1.485L.021,5.346a1.783,1.783,0,0,1,1.485-2.04L21.921.021a1.783,1.783,0,0,1,2.04,1.485L25.971,14A1.783,1.783,0,0,1,24.486,16.041Z" transform="translate(0.054 0.084)" fill="#ffdfab"/>
      <path id="Path-36" data-name="Path" d="M0,8.73C0,3.9,4.2,0,9.375,0S18.75,3.915,18.75,8.73c0,4.83-4.2,8.73-9.375,8.73A9.44,9.44,0,0,1,.93,12.525" transform="translate(88.935 23.985)" fill="#ffdfab"/>
    </g>
  </g>
  <g id="outline" transform="translate(115.35 36.9)">
    <g id="Group-4" data-name="Group">
      <path id="Path-37" data-name="Path" d="M5.145,61.47.075,29.985a5.816,5.816,0,0,1,4.815-6.66L149.235.075a5.816,5.816,0,0,1,6.66,4.815l5,31" transform="translate(7.665 34.35)" fill="none" stroke="#003188" stroke-linecap="round" stroke-linejoin="round" stroke-miterlimit="10" stroke-width="0.9"/>
      <path id="Path-38" data-name="Path" d="M156.015,0l3.78,23.46a5.816,5.816,0,0,1-4.815,6.66L10.635,53.37a5.816,5.816,0,0,1-6.66-4.815L0,23.91" transform="translate(15.615 90.15)" fill="none" stroke="#003188" stroke-linecap="round" stroke-linejoin="round" stroke-miterlimit="10" stroke-width="0.9"/>
      <path id="Path-39" data-name="Path" d="M0,4.686A8.932,8.932,0,0,1,2.19,2.091,3.1,3.1,0,0,1,5.4,1.716,1.9,1.9,0,0,1,5.925,4.6a6.255,6.255,0,0,1,4.44-3.135,2.629,2.629,0,0,1,1.7.2A1.251,1.251,0,0,1,12.7,3.111,5.872,5.872,0,0,1,15.48.651a2.372,2.372,0,0,1,3.06,1.38,4.928,4.928,0,0,1,6.195-1.5" transform="translate(37.305 100.299)" fill="none" stroke="#003188" stroke-linecap="round" stroke-linejoin="round" stroke-miterlimit="10" stroke-width="0.9"/>
      <path id="Path-40" data-name="Path" d="M0,5.348A7.317,7.317,0,0,1,1.95,3.233a2.546,2.546,0,0,1,2.73-.165,1.591,1.591,0,0,1,.255,2.46c-.48-.255-.27-.975.06-1.41a5.305,5.305,0,0,1,3.81-2,2.106,2.106,0,0,1,1.53.4.98.98,0,0,1,.09,1.425,5.237,5.237,0,0,1,2.52-2.595,2.4,2.4,0,0,1,1.92-.2,1.189,1.189,0,0,1,.66,1.62,3.01,3.01,0,0,1,2.04-2.07,3.032,3.032,0,0,1,2.82.705A3.935,3.935,0,0,1,24.81.263" transform="translate(72.24 93.052)" fill="none" stroke="#003188" stroke-linecap="round" stroke-linejoin="round" stroke-miterlimit="10" stroke-width="0.9"/>
      <path id="Path-41" data-name="Path" d="M0,4.559A13.909,13.909,0,0,1,3.42,1.694,4.5,4.5,0,0,1,5.655.959a2.118,2.118,0,0,1,1.95,1.125,1.376,1.376,0,0,1-.87,1.875C6.855,2.5,8.55,1.769,9.99,1.5a2.657,2.657,0,0,1,1.605.045,1,1,0,0,1,.54,1.335A7.079,7.079,0,0,1,15.9.629a1.1,1.1,0,0,1,1.08.165c.165.18.21.435.39.585.345.285.855-.015,1.2-.285A4.858,4.858,0,0,1,20.43.059a1.88,1.88,0,0,1,1.935.585" transform="translate(105.54 87.451)" fill="none" stroke="#003188" stroke-linecap="round" stroke-linejoin="round" stroke-miterlimit="10" stroke-width="0.9"/>
      <path id="Path-42" data-name="Path" d="M0,4.026a5.848,5.848,0,0,1,4.425-2.64,2.529,2.529,0,0,1,2.175.69c.51.615.3,1.755-.48,1.9-.3-.15-.15-.615.06-.885A6.779,6.779,0,0,1,8.655,1.161,2.312,2.312,0,0,1,10.56.981c.6.285.87,1.2.36,1.6A4,4,0,0,1,13.05.636a2.545,2.545,0,0,1,1.8-.42c.615.165.99,1.065.495,1.455A3.361,3.361,0,0,1,19.98.486" transform="translate(136.98 82.374)" fill="none" stroke="#003188" stroke-linecap="round" stroke-linejoin="round" stroke-miterlimit="10" stroke-width="0.9"/>
      <path id="Path-43" data-name="Path" d="M0,6.181A5.69,5.69,0,0,1,1.59,4.156a1.956,1.956,0,0,1,2.4.045c.615.615.285,1.935-.585,1.965a5.81,5.81,0,0,1,3.84-2.82,1.988,1.988,0,0,1,1.725.285c.435.42.33,1.335-.27,1.44A7.327,7.327,0,0,1,12.255,2.4a2.96,2.96,0,0,1,1.995-.12,1.429,1.429,0,0,1,.975,1.59,4.246,4.246,0,0,1,6.225-1.44,7.142,7.142,0,0,1,4.185-1.8c.7-.06,1.695.495,1.275,1.065A9.735,9.735,0,0,1,31.2.031c.66-.09,1.635.405,1.245.945a3.717,3.717,0,0,1,3.78-.75" transform="translate(37.455 116.189)" fill="none" stroke="#003188" stroke-linecap="round" stroke-linejoin="round" stroke-miterlimit="10" stroke-width="0.9"/>
      <path id="Path-44" data-name="Path" d="M0,7.071A9.463,9.463,0,0,1,5.145,3.906a1.533,1.533,0,0,1,1.155.06,1.163,1.163,0,0,1,.225,1.605A3.234,3.234,0,0,1,5.07,6.621,9.132,9.132,0,0,1,8.3,4a2.138,2.138,0,0,1,2.07-.15c.6.4.42,1.635-.3,1.56A7.853,7.853,0,0,1,14.34,2.841a2.137,2.137,0,0,1,1.98.315c.5.48.24,1.59-.45,1.545a8.624,8.624,0,0,1,4.17-2.88,2.415,2.415,0,0,1,1.83,0A1.029,1.029,0,0,1,22.215,3.4,8.06,8.06,0,0,1,26.28,1.251a1.839,1.839,0,0,1,1.545.21c.4.345.345,1.185-.2,1.275a6.857,6.857,0,0,1,2.88-2.2A1.663,1.663,0,0,1,31.965.456c.435.255.51,1.035.045,1.2A4.415,4.415,0,0,1,36.975.276" transform="translate(37.8 123.114)" fill="none" stroke="#003188" stroke-linecap="round" stroke-linejoin="round" stroke-miterlimit="10" stroke-width="0.9"/>
      <path id="Path-45" data-name="Path" d="M.676,7.095C-.524,7.62,0,9.7,1.261,10.08S3.841,9.7,4.816,8.835a12.917,12.917,0,0,0,2.7-3.345c-1.185-.33-2.19,1.335-1.605,2.415a2.687,2.687,0,0,0,3.255.93A7.343,7.343,0,0,0,12,6.54c.465-.54.96-1.215.75-1.89a1.66,1.66,0,0,0,.69,2.52,2.7,2.7,0,0,0,2.805-.735A8.167,8.167,0,0,0,17.821,3.81c-.645,1.395,1.35,2.8,2.805,2.3,1.455-.525,2.235-2.04,2.895-3.42-.315,1.395,1.545,2.46,2.9,1.98s2.16-1.8,2.88-3.045a1.253,1.253,0,0,0,.81,1.71,2.832,2.832,0,0,0,2.1-.36A8.423,8.423,0,0,0,35.476,0c-.66,1.05.615,2.43,1.845,2.37a5.1,5.1,0,0,0,3.1-1.845" transform="translate(112.709 45.54)" fill="none" stroke="#003188" stroke-linecap="round" stroke-linejoin="round" stroke-miterlimit="10" stroke-width="0.9"/>
      <path id="Path-46" data-name="Path" d="M3.083.029A2.7,2.7,0,0,0,.443,1.3a3.37,3.37,0,0,0-.18,2.985,3.022,3.022,0,0,0,.615.945,4.673,4.673,0,0,0,2.535.99" transform="translate(71.707 16.411)" fill="none" stroke="#003188" stroke-linecap="round" stroke-linejoin="round" stroke-miterlimit="10" stroke-width="0.9"/>
      <path id="Path-47" data-name="Path" d="M0,0A2.965,2.965,0,0,1,1.725.6" transform="translate(73.44 19.245)" fill="none" stroke="#003188" stroke-linecap="round" stroke-linejoin="round" stroke-miterlimit="10" stroke-width="0.9"/>
      <path id="Path-48" data-name="Path" d="M0,4.185C.21,4.8.45,5.4.72,6a1.33,1.33,0,0,0,.465.66A.252.252,0,0,0,1.41,6.7.414.414,0,0,0,1.545,6.6a1.131,1.131,0,0,0,.18-.615A11.789,11.789,0,0,0,.54,0" transform="translate(74.535 10.92)" fill="none" stroke="#003188" stroke-linecap="round" stroke-linejoin="round" stroke-miterlimit="10" stroke-width="0.9"/>
      <path id="Path-49" data-name="Path" d="M6.043,11.451a15.72,15.72,0,0,0,7.02-3.645,7.194,7.194,0,0,0,2.31-3.435A3.512,3.512,0,0,0,14.128.621a4.509,4.509,0,0,0-2.25-.6,12.089,12.089,0,0,0-7.515,2.01,10.033,10.033,0,0,0-4.23,6.45c-.48,2.85.42,5.73,1.35,8.46" transform="translate(69.422 0.009)" fill="none" stroke="#003188" stroke-linecap="round" stroke-linejoin="round" stroke-miterlimit="10" stroke-width="0.9"/>
      <path id="Path-50" data-name="Path" d="M11.715,0q.922,5.423,1.365,10.92a16.426,16.426,0,0,1-.3,6,6.031,6.031,0,0,1-3.93,4.245,6.612,6.612,0,0,1-2.37.1A12.957,12.957,0,0,1,0,18.7" transform="translate(79.11 8.64)" fill="none" stroke="#003188" stroke-linecap="round" stroke-linejoin="round" stroke-miterlimit="10" stroke-width="0.9"/>
      <path id="Path-51" data-name="Path" d="M0,1.112A6.527,6.527,0,0,1,4.11.017" transform="translate(79.845 12.313)" fill="none" stroke="#003188" stroke-linecap="round" stroke-linejoin="round" stroke-miterlimit="10" stroke-width="0.9"/>
      <path id="Path-52" data-name="Path" d="M.017,0A2.222,2.222,0,0,0,.152,1.08,2.681,2.681,0,0,0,.047.045" transform="translate(82.048 15.45)" fill="none" stroke="#003188" stroke-linecap="round" stroke-linejoin="round" stroke-miterlimit="10" stroke-width="0.9"/>
      <path id="Path-53" data-name="Path" d="M0,0A2.851,2.851,0,0,0,.195,1,1.4,1.4,0,0,0,0,0" transform="translate(88.725 13.965)" fill="none" stroke="#003188" stroke-linecap="round" stroke-linejoin="round" stroke-miterlimit="10" stroke-width="0.9"/>
      <path id="Path-54" data-name="Path" d="M2.58,0A8.827,8.827,0,0,0,1.11.585a2.016,2.016,0,0,0-.84.66,1.741,1.741,0,0,0-.2.915A9.6,9.6,0,0,0,1.08,6.27a2.291,2.291,0,0,1,.3,1.155C1.3,8.115.615,8.535,0,8.865" transform="translate(86.805 10.665)" fill="none" stroke="#003188" stroke-linecap="round" stroke-linejoin="round" stroke-miterlimit="10" stroke-width="0.9"/>
      <path id="Path-55" data-name="Path" d="M0,0A3.671,3.671,0,0,0,3.48.51" transform="translate(83.88 22.08)" fill="none" stroke="#003188" stroke-linecap="round" stroke-linejoin="round" stroke-miterlimit="10" stroke-width="0.9"/>
      <path id="Path-56" data-name="Path" d="M.33,4.427A7.556,7.556,0,0,0,4.8,7.547a1.8,1.8,0,0,0,1.71-.255,1.653,1.653,0,0,0,.36-.81A5.7,5.7,0,0,0,3.735.467,3.4,3.4,0,0,0,0,.647" transform="translate(84.675 0.553)" fill="none" stroke="#003188" stroke-linecap="round" stroke-linejoin="round" stroke-miterlimit="10" stroke-width="0.9"/>
      <path id="Path-57" data-name="Path" d="M7.3,0A5.067,5.067,0,0,1,6.15,1.95,12.261,12.261,0,0,1,0,5.655" transform="translate(75.72 3.285)" fill="none" stroke="#003188" stroke-linecap="round" stroke-linejoin="round" stroke-miterlimit="10" stroke-width="0.9"/>
      <path id="Path-58" data-name="Path" d="M2.85,0A6.434,6.434,0,0,1,0,1.44" transform="translate(74.52 5.925)" fill="none" stroke="#003188" stroke-linecap="round" stroke-linejoin="round" stroke-miterlimit="10" stroke-width="0.9"/>
      <path id="Path-59" data-name="Path" d="M0,0A7.7,7.7,0,0,0,.287,2.265" transform="translate(71.803 12.42)" fill="none" stroke="#003188" stroke-linecap="round" stroke-linejoin="round" stroke-miterlimit="10" stroke-width="0.9"/>
      <path id="Path-60" data-name="Path" d="M0,0A7.5,7.5,0,0,1,3.015,2.58" transform="translate(86.55 2.985)" fill="none" stroke="#003188" stroke-linecap="round" stroke-linejoin="round" stroke-miterlimit="10" stroke-width="0.9"/>
      <path id="Path-61" data-name="Path" d="M0,0C.315,4.455.525,8.925.63,13.38" transform="translate(74.655 24.375)" fill="none" stroke="#003188" stroke-linecap="round" stroke-linejoin="round" stroke-miterlimit="10" stroke-width="0.9"/>
      <path id="Path-62" data-name="Path" d="M0,0C.24,3.015.48,6.045.72,9.06" transform="translate(90.645 27.93)" fill="none" stroke="#003188" stroke-linecap="round" stroke-linejoin="round" stroke-miterlimit="10" stroke-width="0.9"/>
      <path id="Path-63" data-name="Path" d="M0,0A9.4,9.4,0,0,0,4.575,3.945a9.241,9.241,0,0,0,6.03.27.935.935,0,0,0,.585-.375.963.963,0,0,0,.045-.51c-.09-.735-.165-1.485-.255-2.22A3.628,3.628,0,0,1,8.535,2.445,9.67,9.67,0,0,1,.645.405" transform="translate(79.185 27.57)" fill="#003188" stroke="#003188" stroke-linecap="round" stroke-linejoin="round" stroke-miterlimit="10" stroke-width="0.9"/>
      <path id="Path-64" data-name="Path" d="M24.51.357c-4.725-1.05-9.75.315-13.875,2.835-4.14,2.52-7.5,6.09-10.635,9.8" transform="translate(49.56 37.653)" fill="none" stroke="#003188" stroke-linecap="round" stroke-linejoin="round" stroke-miterlimit="10" stroke-width="0.9"/>
      <path id="Path-65" data-name="Path" d="M0,.06A19.565,19.565,0,0,0,10.53,1.17,7.172,7.172,0,0,0,13.65,0" transform="translate(76.035 38.55)" fill="none" stroke="#003188" stroke-linecap="round" stroke-linejoin="round" stroke-miterlimit="10" stroke-width="0.9"/>
      <path id="Path-66" data-name="Path" d="M0,0A16.555,16.555,0,0,0,12.1.615" transform="translate(76.89 40.68)" fill="none" stroke="#003188" stroke-linecap="round" stroke-linejoin="round" stroke-miterlimit="10" stroke-width="0.9"/>
      <path id="Path-67" data-name="Path" d="M0,0A2.467,2.467,0,0,1,.255,1.5" transform="translate(85.98 34.575)" fill="none" stroke="#003188" stroke-linecap="round" stroke-linejoin="round" stroke-miterlimit="10" stroke-width="0.9"/>
      <path id="Path-68" data-name="Path" d="M0,1.01A28.843,28.843,0,0,1,22.485,4.175" transform="translate(92.76 36.13)" fill="none" stroke="#003188" stroke-linecap="round" stroke-linejoin="round" stroke-miterlimit="10" stroke-width="0.9"/>
      <path id="Path-69" data-name="Path" d="M0,6.132C3.66,3.447,7.62.942,12.075.057a1.251,1.251,0,0,1,.99.09.861.861,0,0,1,.165,1.065,2.7,2.7,0,0,1-.81.84Q8.933,4.684,5.43,7.287" transform="translate(9.18 93.273)" fill="none" stroke="#003188" stroke-linecap="round" stroke-linejoin="round" stroke-miterlimit="10" stroke-width="0.9"/>
      <path id="Path-70" data-name="Path" d="M1.127,0a7.961,7.961,0,0,0,.435,8.79,12.644,12.644,0,0,0,7.83,4.725,31.861,31.861,0,0,0,9.33.18" transform="translate(7.438 100.455)" fill="none" stroke="#003188" stroke-linecap="round" stroke-linejoin="round" stroke-miterlimit="10" stroke-width="0.9"/>
      <path id="Path-71" data-name="Path" d="M0,0A23.81,23.81,0,0,0,9.135.855" transform="translate(19.8 111.24)" fill="none" stroke="#003188" stroke-linecap="round" stroke-linejoin="round" stroke-miterlimit="10" stroke-width="0.9"/>
      <path id="Path-72" data-name="Path" d="M0,0A51.152,51.152,0,0,0,10.6.21" transform="translate(20.535 109.245)" fill="none" stroke="#003188" stroke-linecap="round" stroke-linejoin="round" stroke-miterlimit="10" stroke-width="0.9"/>
      <path id="Path-73" data-name="Path" d="M5.385,5.895c2.415.105,4.845.09,7.26-.015a5.083,5.083,0,0,0,2.7-.66.941.941,0,0,0,.435-.555c.12-.585-.6-.93-1.185-1.08Q7.3,1.785,0,0" transform="translate(15.15 101.055)" fill="none" stroke="#003188" stroke-linecap="round" stroke-linejoin="round" stroke-miterlimit="10" stroke-width="0.9"/>
      <path id="Path-74" data-name="Path" d="M14.656.743a20.62,20.62,0,0,0-12.48.48A4.928,4.928,0,0,0,.3,2.273a.822.822,0,0,0-.3.51c-.03.435.48.69.915.8a14.83,14.83,0,0,0,2.82.255l7.275.18" transform="translate(162.419 70.027)" fill="none" stroke="#003188" stroke-linecap="round" stroke-linejoin="round" stroke-miterlimit="10" stroke-width="0.9"/>
      <path id="Path-75" data-name="Path" d="M12.173,0Q6.8,4.7,1.628,9.6a4.524,4.524,0,0,0-1.6,2.37.954.954,0,0,0,.09.675c.315.48,1.05.255,1.545-.015q4.7-2.542,9.24-5.37" transform="translate(160.267 74.415)" fill="none" stroke="#003188" stroke-linecap="round" stroke-linejoin="round" stroke-miterlimit="10" stroke-width="0.9"/>
      <path id="Path-76" data-name="Path" d="M0,6.675C3.585,4.62,7.065,2.385,10.44,0" transform="translate(161.655 83.58)" fill="none" stroke="#003188" stroke-linecap="round" stroke-linejoin="round" stroke-miterlimit="10" stroke-width="0.9"/>
      <path id="Path-77" data-name="Path" d="M0,5.28A42.9,42.9,0,0,0,8.355,0" transform="translate(164.88 85.935)" fill="none" stroke="#003188" stroke-linecap="round" stroke-linejoin="round" stroke-miterlimit="10" stroke-width="0.9"/>
      <path id="Path-78" data-name="Path" d="M0,20.085a40.747,40.747,0,0,0,7.635-4.62,13.912,13.912,0,0,0,4.92-7.275A8.422,8.422,0,0,0,10.29,0" transform="translate(167.79 71.7)" fill="none" stroke="#003188" stroke-linecap="round" stroke-linejoin="round" stroke-miterlimit="10" stroke-width="0.9"/>
      <path id="Path-79" data-name="Path" d="M.127,0C.1.1.052.21.023.315" transform="translate(173.003 80.37)" fill="none" stroke="#003188" stroke-linecap="round" stroke-linejoin="round" stroke-miterlimit="10" stroke-width="0.9"/>
      <path id="Path-80" data-name="Path" d="M13.77,6.18c1.2,11.94,2.88,23.85,5.025,35.655a5.108,5.108,0,0,0,.975,2.55,1.748,1.748,0,0,0,2.445.24c.975-1.065-.735-2.805-2.115-2.385s-2.1,1.9-2.64,3.24C9.615,65.04,7.26,86.415,0,106.2c7.125,2.445,16.845,4.77,23.985,7.215,6.465-22.5,12.15-42.315,20.94-64.005,1.1-2.685,1.845-3.81,2.415-6.66,1.08-5.325-.27-9.675-1.305-15.015-1.455-7.5-4.11-20.3-5.82-27.735" transform="translate(54.06 133.59)" fill="none" stroke="#003188" stroke-linecap="round" stroke-linejoin="round" stroke-miterlimit="10" stroke-width="0.9"/>
      <path id="Path-81" data-name="Path" d="M15.3,0A39.751,39.751,0,0,1,0,5.01" transform="translate(78.24 186.435)" fill="none" stroke="#003188" stroke-linecap="round" stroke-linejoin="round" stroke-miterlimit="10" stroke-width="0.9"/>
      <path id="Path-82" data-name="Path" d="M9.63,0C6.42,1.515,3.21,3.045,0,4.56" transform="translate(79.365 190.935)" fill="none" stroke="#003188" stroke-linecap="round" stroke-linejoin="round" stroke-miterlimit="10" stroke-width="0.9"/>
      <path id="Path-83" data-name="Path" d="M0,0C2.145,2.49,5.715,3.06,8.955,3.66A78.15,78.15,0,0,1,17.82,5.88" transform="translate(57.66 237.6)" fill="none" stroke="#003188" stroke-linecap="round" stroke-linejoin="round" stroke-miterlimit="10" stroke-width="0.9"/>
      <path id="Path-84" data-name="Path" d="M0,0C1.275.315,2.55.63,3.81.945" transform="translate(69.66 239.79)" fill="none" stroke="#003188" stroke-linecap="round" stroke-linejoin="round" stroke-miterlimit="10" stroke-width="0.9"/>
      <path id="Path-85" data-name="Path" d="M7.159,0Q3.694,8.01.664,16.2c-.51,1.365-.99,2.91-.375,4.23" transform="translate(50.306 241.44)" fill="none" stroke="#003188" stroke-linecap="round" stroke-linejoin="round" stroke-miterlimit="10" stroke-width="0.9"/>
      <path id="Path-86" data-name="Path" d="M1.032,0A6.526,6.526,0,0,0,.027,2.325,2.272,2.272,0,0,0,.9,4.575a3.318,3.318,0,0,0,1.53.345c6.075.4,12.27.87,17.91,3.165a7.5,7.5,0,0,1,3.03,1.95c1.6,1.935,1.215,4.8.72,7.26" transform="translate(70.893 245.535)" fill="none" stroke="#003188" stroke-linecap="round" stroke-linejoin="round" stroke-miterlimit="10" stroke-width="0.9"/>
      <path id="Path-87" data-name="Path" d="M0,.075H42.42" transform="translate(51.435 262.305)" fill="none" stroke="#003188" stroke-linecap="round" stroke-linejoin="round" stroke-miterlimit="10" stroke-width="0.9"/>
      <path id="Path-88" data-name="Path" d="M0,.075H41.34" transform="translate(52.53 258.855)" fill="none" stroke="#003188" stroke-linecap="round" stroke-linejoin="round" stroke-miterlimit="10" stroke-width="0.9"/>
      <path id="Path-89" data-name="Path" d="M0,.855,6.36,0" transform="translate(73.485 252.105)" fill="none" stroke="#003188" stroke-linecap="round" stroke-linejoin="round" stroke-miterlimit="10" stroke-width="0.9"/>
      <path id="Path-90" data-name="Path" d="M0,1.185A51.681,51.681,0,0,1,6.75,0" transform="translate(76.005 253.125)" fill="none" stroke="#003188" stroke-linecap="round" stroke-linejoin="round" stroke-miterlimit="10" stroke-width="0.9"/>
      <path id="Path-91" data-name="Path" d="M0,0C4.245.285,8.505.585,12.75.87" transform="translate(55.995 247.05)" fill="none" stroke="#003188" stroke-linecap="round" stroke-linejoin="round" stroke-miterlimit="10" stroke-width="0.9"/>
      <path id="Path-92" data-name="Path" d="M0,0C16.29,11.085,28.935,25.14,43.38,39.84" transform="translate(114.75 130.44)" fill="none" stroke="#003188" stroke-linecap="round" stroke-linejoin="round" stroke-miterlimit="10" stroke-width="0.9"/>
      <path id="Path-93" data-name="Path" d="M0,0C2.3,10.89,1.845,22.155,1.38,33.27Q.93,44.182.48,55.08" transform="translate(156.24 169.815)" fill="none" stroke="#003188" stroke-linecap="round" stroke-linejoin="round" stroke-miterlimit="10" stroke-width="0.9"/>
      <path id="Path-94" data-name="Path" d="M0,4.769a39.251,39.251,0,0,1,9.27-2.04,33.538,33.538,0,0,0,3.465-.39C16.29,1.634,19.74-.706,23.265.209" transform="translate(157.755 221.281)" fill="none" stroke="#003188" stroke-linecap="round" stroke-linejoin="round" stroke-miterlimit="10" stroke-width="0.9"/>
      <path id="Path-95" data-name="Path" d="M0,0,25.29,22.14a21.816,21.816,0,0,1,5.025,5.55c1.41,2.565,1.74,5.565,2,8.475,1.68,19.185,1.59,38.475,1.5,57.72" transform="translate(146.955 125.88)" fill="none" stroke="#003188" stroke-linecap="round" stroke-linejoin="round" stroke-miterlimit="10" stroke-width="0.9"/>
      <path id="Path-96" data-name="Path" d="M13.32,0A30.347,30.347,0,0,1,0,8.01" transform="translate(161.775 212.46)" fill="none" stroke="#003188" stroke-linecap="round" stroke-linejoin="round" stroke-miterlimit="10" stroke-width="0.9"/>
      <path id="Path-97" data-name="Path" d="M3.225,0A10.59,10.59,0,0,0,0,2.22" transform="translate(169.935 217.02)" fill="none" stroke="#003188" stroke-linecap="round" stroke-linejoin="round" stroke-miterlimit="10" stroke-width="0.9"/>
      <path id="Path-98" data-name="Path" d="M7.515,0A22.807,22.807,0,0,1,0,9.285" transform="translate(168.72 167.49)" fill="none" stroke="#003188" stroke-linecap="round" stroke-linejoin="round" stroke-miterlimit="10" stroke-width="0.9"/>
      <path id="Path-99" data-name="Path" d="M4.68,0C3.12,2.145,1.56,4.3,0,6.45" transform="translate(171.51 172.095)" fill="none" stroke="#003188" stroke-linecap="round" stroke-linejoin="round" stroke-miterlimit="10" stroke-width="0.9"/>
      <path id="Path-100" data-name="Path" d="M0,0A25.142,25.142,0,0,1,1.395,4.65" transform="translate(158.235 171.96)" fill="none" stroke="#003188" stroke-linecap="round" stroke-linejoin="round" stroke-miterlimit="10" stroke-width="0.9"/>
      <path id="Path-101" data-name="Path" d="M.026,0c-.105,3.465.15,8.91.045,12.39a31.815,31.815,0,0,0,.345,7.365c.12.63.405,1.35,1.035,1.455" transform="translate(164.524 224.895)" fill="none" stroke="#003188" stroke-linecap="round" stroke-linejoin="round" stroke-miterlimit="10" stroke-width="0.9"/>
      <path id="Path-102" data-name="Path" d="M0,14.37Q19.193,7.193,38.4,0" transform="translate(168.015 231.345)" fill="none" stroke="#003188" stroke-linecap="round" stroke-linejoin="round" stroke-miterlimit="10" stroke-width="0.9"/>
      <path id="Path-103" data-name="Path" d="M0,14.865Q19.6,7.912,38.85,0" transform="translate(166.98 229.035)" fill="none" stroke="#003188" stroke-linecap="round" stroke-linejoin="round" stroke-miterlimit="10" stroke-width="0.9"/>
      <path id="Path-104" data-name="Path" d="M0,0c-.03,1.59.06,3.4,1.305,4.395a4.806,4.806,0,0,0,3.54.6c5.31-.615,10.38-2.76,15.705-3.18a7.124,7.124,0,0,1,3.18.3C26.179,3.09,27.109,6,27.724,8.55" transform="translate(179.591 222.195)" fill="none" stroke="#003188" stroke-linecap="round" stroke-linejoin="round" stroke-miterlimit="10" stroke-width="0.9"/>
      <path id="Path-105" data-name="Path" d="M0,1.515C1.14,1,2.265.5,3.4,0" transform="translate(184.215 227.85)" fill="none" stroke="#003188" stroke-linecap="round" stroke-linejoin="round" stroke-miterlimit="10" stroke-width="0.9"/>
      <path id="Path-106" data-name="Path" d="M0,2.685A21.41,21.41,0,0,1,5.04,0" transform="translate(186.885 227.175)" fill="none" stroke="#003188" stroke-linecap="round" stroke-linejoin="round" stroke-miterlimit="10" stroke-width="0.9"/>
      <path id="Path-107" data-name="Path" d="M0,3.87A84.686,84.686,0,0,0,12.045,0" transform="translate(165.99 226.635)" fill="none" stroke="#003188" stroke-linecap="round" stroke-linejoin="round" stroke-miterlimit="10" stroke-width="0.9"/>
      <path id="Path-108" data-name="Path" d="M0,.226A3.109,3.109,0,0,1,2.91.541" transform="translate(0.03 261.764)" fill="none" stroke="#003188" stroke-linecap="round" stroke-linejoin="round" stroke-miterlimit="10" stroke-width="0.9"/>
      <path id="Path-109" data-name="Path" d="M0,0,28.14.27" transform="translate(7.65 261.945)" fill="none" stroke="#003188" stroke-linecap="round" stroke-linejoin="round" stroke-miterlimit="10" stroke-width="0.9"/>
      <path id="Path-110" data-name="Path" d="M0,.584A3.453,3.453,0,0,1,2.76.1a5.282,5.282,0,0,0,1.065.27,4.867,4.867,0,0,0,1.2-.24c2.19-.51,4.5.96,6.69.42" transform="translate(37.98 261.706)" fill="none" stroke="#003188" stroke-linecap="round" stroke-linejoin="round" stroke-miterlimit="10" stroke-width="0.9"/>
      <path id="Path-111" data-name="Path" d="M0,.523A1.974,1.974,0,0,1,2.355.283" transform="translate(7.245 265.532)" fill="none" stroke="#003188" stroke-linecap="round" stroke-linejoin="round" stroke-miterlimit="10" stroke-width="0.9"/>
      <path id="Path-112" data-name="Path" d="M0,.906A4.3,4.3,0,0,1,3.93.2a10.321,10.321,0,0,0,1.305.45,6.809,6.809,0,0,0,1.83-.03,9.7,9.7,0,0,1,3.15.3" transform="translate(38.94 269.259)" fill="none" stroke="#003188" stroke-linecap="round" stroke-linejoin="round" stroke-miterlimit="10" stroke-width="0.9"/>
      <path id="Path-113" data-name="Path" d="M0,.17A2.51,2.51,0,0,1,1.59.095" transform="translate(54.165 271.405)" fill="none" stroke="#003188" stroke-linecap="round" stroke-linejoin="round" stroke-miterlimit="10" stroke-width="0.9"/>
      <path id="Path-114" data-name="Path" d="M0,.737c1.245.015,2.505.015,3.75.03L9.63.812l4.98.045A158.776,158.776,0,0,0,34.425.182a13.123,13.123,0,0,1,3.06-.135c1.005.135,1.965.525,2.97.735a16.882,16.882,0,0,0,3.795.225q13.815-.158,27.6.84" transform="translate(97.08 261.703)" fill="none" stroke="#003188" stroke-linecap="round" stroke-linejoin="round" stroke-miterlimit="10" stroke-width="0.9"/>
      <path id="Path-115" data-name="Path" d="M0,.382a9.25,9.25,0,0,1,5.265,0A18.426,18.426,0,0,0,8.67,1.388a15.223,15.223,0,0,0,3.18-.3,11.785,11.785,0,0,1,3.4.09" transform="translate(105.435 269.978)" fill="none" stroke="#003188" stroke-linecap="round" stroke-linejoin="round" stroke-miterlimit="10" stroke-width="0.9"/>
      <path id="Path-116" data-name="Path" d="M0,.075H1.59" transform="translate(124.395 270.045)" fill="none" stroke="#003188" stroke-linecap="round" stroke-linejoin="round" stroke-miterlimit="10" stroke-width="0.9"/>
      <path id="Path-117" data-name="Path" d="M0,.573A2.784,2.784,0,0,1,2.64.168,8.264,8.264,0,0,0,3.78.633,4.529,4.529,0,0,0,5.895.318,6.724,6.724,0,0,1,10.065.6" transform="translate(173.79 263.216)" fill="none" stroke="#003188" stroke-linecap="round" stroke-linejoin="round" stroke-miterlimit="10" stroke-width="0.9"/>
      <path id="Path-118" data-name="Path" d="M0,.78C1.2-.4,3.165.045,4.83.3A30.583,30.583,0,0,0,9.525.525c1.5,0,3.015-.015,4.515-.015C15.8.51,17.55.5,19.305.5S22.83.48,24.585.345c1.455-.12,3.015-.3,4.29.4" transform="translate(190.425 263.175)" fill="none" stroke="#003188" stroke-linecap="round" stroke-linejoin="round" stroke-miterlimit="10" stroke-width="0.9"/>
      <path id="Path-119" data-name="Path" d="M0,.709A7.362,7.362,0,0,1,2.94,0a15.808,15.808,0,0,1,2.79.24c1.8.27,3.585.525,5.385.795" transform="translate(224.61 263.156)" fill="none" stroke="#003188" stroke-linecap="round" stroke-linejoin="round" stroke-miterlimit="10" stroke-width="0.9"/>
      <path id="Path-120" data-name="Path" d="M0,.54A3.933,3.933,0,0,1,3.165.15a11.519,11.519,0,0,0,3.24.525c1.2-.09,2.625-.66,3.465.21" transform="translate(208.44 271.305)" fill="none" stroke="#003188" stroke-linecap="round" stroke-linejoin="round" stroke-miterlimit="10" stroke-width="0.9"/>
      <path id="Path-121" data-name="Path" d="M0,.24A4.947,4.947,0,0,1,3.645.48" transform="translate(160.335 268.815)" fill="none" stroke="#003188" stroke-linecap="round" stroke-linejoin="round" stroke-miterlimit="10" stroke-width="0.9"/>
      <path id="Path-122" data-name="Path" d="M0,.366A23.86,23.86,0,0,1,4.635.021C5.1.021,5.565.006,6.03.006a24.529,24.529,0,0,1,5.145.315" transform="translate(182.85 271.644)" fill="none" stroke="#003188" stroke-linecap="round" stroke-linejoin="round" stroke-miterlimit="10" stroke-width="0.9"/>
      <path id="Path-123" data-name="Path" d="M0,0C.51.075,1.02.135,1.53.21" transform="translate(239.205 267.165)" fill="none" stroke="#003188" stroke-linecap="round" stroke-linejoin="round" stroke-miterlimit="10" stroke-width="0.9"/>
      <path id="Path-124" data-name="Path" d="M.249,0A.491.491,0,0,0,.1.72C.264.645.474.51.444.315s-.405-.12-.3.03" transform="translate(38.481 47.865)" fill="none" stroke="#003188" stroke-linecap="round" stroke-linejoin="round" stroke-miterlimit="10" stroke-width="0.9"/>
      <path id="Path-125" data-name="Path" d="M.059.06c-.15.075.015.345.18.3S.494.15.569,0" transform="translate(111.121 22.215)" fill="none" stroke="#003188" stroke-linecap="round" stroke-linejoin="round" stroke-miterlimit="10" stroke-width="0.9"/>
      <path id="Path-126" data-name="Path" d="M.481.011c.465.12.24,1.02-.225.9s-.24-1.02.225-.9" transform="translate(57.254 157.609)" fill="none" stroke="#003188" stroke-linecap="round" stroke-linejoin="round" stroke-miterlimit="10" stroke-width="0.9"/>
      <path id="Path-127" data-name="Path" d="M.076,0c-.255.12.21.54.3.255C.271.135.136.45.3.51S.6.405.706.27C.706.1.376.1.376.285" transform="translate(36.794 218.16)" fill="none" stroke="#003188" stroke-linecap="round" stroke-linejoin="round" stroke-miterlimit="10" stroke-width="0.9"/>
      <path id="Path-128" data-name="Path" d="M.183.345c-.075-.18-.3.2-.105.18A.47.47,0,0,0,.243,0" transform="translate(171.087 132.405)" fill="none" stroke="#003188" stroke-linecap="round" stroke-linejoin="round" stroke-miterlimit="10" stroke-width="0.9"/>
      <path id="Path-129" data-name="Path" d="M.331.231A.184.184,0,0,1,0,.171c-.015-.15.24-.24.315-.1" transform="translate(194.864 199.344)" fill="none" stroke="#003188" stroke-linecap="round" stroke-linejoin="round" stroke-miterlimit="10" stroke-width="0.9"/>
    </g>
  </g>
  <g id="color_outline" transform="translate(145.8 109.8)">
    <g id="Group-5" data-name="Group">
      <g id="Group-6" data-name="Group">
        <path id="Path-130" data-name="Path" d="M24.771,17.811,4.356,21.1a1.783,1.783,0,0,1-2.04-1.485L.021,5.346a1.783,1.783,0,0,1,1.485-2.04L21.921.021a1.783,1.783,0,0,1,2.04,1.485l2.3,14.265A1.783,1.783,0,0,1,24.771,17.811Z" transform="translate(0.069 0.114)" fill="none" stroke="#ff8500" stroke-linecap="round" stroke-linejoin="round" stroke-miterlimit="10" stroke-width="0.9"/>
        <g id="Group-7" data-name="Group" transform="translate(0.75 3.45)">
          <path id="Path-131" data-name="Path" d="M0,3.78,23.52,0" transform="translate(0 0.03)" fill="none" stroke="#ff8500" stroke-linecap="round" stroke-linejoin="round" stroke-miterlimit="10" stroke-width="0.9"/>
          <path id="Path-132" data-name="Path" d="M0,1.08,6.72,0" transform="translate(17.16 3.54)" fill="none" stroke="#ff8500" stroke-linecap="round" stroke-linejoin="round" stroke-miterlimit="10" stroke-width="0.9"/>
          <path id="Path-133" data-name="Path" d="M0,1.35,8.34,0" transform="translate(0.555 5.955)" fill="none" stroke="#ff8500" stroke-linecap="round" stroke-linejoin="round" stroke-miterlimit="10" stroke-width="0.9"/>
          <path id="Path-134" data-name="Path" d="M0,1.125,6.93,0" transform="translate(17.415 6.915)" fill="none" stroke="#ff8500" stroke-linecap="round" stroke-linejoin="round" stroke-miterlimit="10" stroke-width="0.9"/>
          <path id="Path-135" data-name="Path" d="M0,1.395,8.655,0" transform="translate(0.795 9.315)" fill="none" stroke="#ff8500" stroke-linecap="round" stroke-linejoin="round" stroke-miterlimit="10" stroke-width="0.9"/>
          <path id="Path-136" data-name="Path" d="M0,3.8,23.55,0" transform="translate(1.395 10.635)" fill="none" stroke="#ff8500" stroke-linecap="round" stroke-linejoin="round" stroke-miterlimit="10" stroke-width="0.9"/>
        </g>
        <path id="Path-137" data-name="Path" d="M2.865,17.79,0,0" transform="translate(8.505 2.31)" fill="none" stroke="#ff8500" stroke-linecap="round" stroke-linejoin="round" stroke-miterlimit="10" stroke-width="0.9"/>
        <path id="Path-138" data-name="Path" d="M2.865,17.79,0,0" transform="translate(16.485 1.02)" fill="none" stroke="#ff8500" stroke-linecap="round" stroke-linejoin="round" stroke-miterlimit="10" stroke-width="0.9"/>
      </g>
      <g id="Group-8" data-name="Group" transform="translate(89.1 21.75)">
        <path id="Path-139" data-name="Path" d="M0,9.375a9.363,9.363,0,1,1,.93,4.08" transform="translate(0.135 2.13)" fill="none" stroke="#ff8500" stroke-linecap="round" stroke-linejoin="round" stroke-miterlimit="10" stroke-width="0.9"/>
        <path id="Path-140" data-name="Path" d="M14.61,1.605A9.367,9.367,0,1,1,9.375,0" transform="translate(14.775 0.015)" fill="none" stroke="#ff8500" stroke-linecap="round" stroke-linejoin="round" stroke-miterlimit="10" stroke-width="0.9"/>
      </g>
    </g>
  </g>
</svg>
