<?xml version="1.0" encoding="UTF-8"?>
<svg width="32px" height="37px" viewBox="0 0 32 37" version="1.1" xmlns="http://www.w3.org/2000/svg" xmlns:xlink="http://www.w3.org/1999/xlink">
    <title>Premium Support@2x</title>
    <g id="Page-1" stroke="none" stroke-width="1" fill="none" fill-rule="evenodd">
        <g id="Setting-main-Page--Copy-7" transform="translate(-430.000000, -347.000000)" fill="#FFFFFF">
            <path d="M444.846988,381.61574 L448.089437,381.61574 L448.089437,380.417432 L444.846988,380.417432 L444.846988,381.61574 Z M432.322474,370.258547 L432.322474,363.83182 C432.322474,362.356734 433.059508,361.608857 434.513066,361.608857 L435.322379,361.608857 L435.322379,372.481438 L434.513066,372.481438 C433.059508,372.481438 432.322474,371.733561 432.322474,370.258547 L432.322474,370.258547 Z M456.67755,361.656697 L457.487005,361.656697 C458.940492,361.656697 459.677454,362.404574 459.677454,363.876914 L459.643772,370.27907 C459.643772,371.754084 458.906738,372.502033 457.453251,372.502033 L456.67755,372.502033 L456.67755,361.656697 Z M458.624173,359.382859 C458.39701,352.515674 452.821191,347 445.999964,347 C439.178737,347 433.602919,352.515818 433.375756,359.383004 C431.252458,359.826932 430,361.468301 430,363.852271 L430,370.27907 C430,373.684732 432.449301,374.893086 434.546678,374.893086 L436.500493,374.893086 C437.150079,374.893086 437.678607,374.356875 437.678607,373.697596 L437.678607,360.461135 C437.678607,359.801928 437.150079,359.265572 436.500493,359.265572 L435.73704,359.265572 C436.000877,353.752717 440.503332,349.350078 445.999964,349.350078 C451.496596,349.350078 455.998981,353.752717 456.262817,359.265572 L455.499507,359.265572 C454.849849,359.265572 454.321322,359.801928 454.321322,360.461135 L454.321322,373.677072 C454.321322,374.336279 454.849849,374.872563 455.499507,374.872563 L456.243448,374.872563 C456.048259,377.266 455.245355,378.166863 454.639991,378.640348 C453.767229,379.322824 452.491983,379.682418 450.430426,379.81676 C450.387984,378.818482 449.574399,378.019441 448.580365,378.019441 L444.3426,378.019441 C443.321506,378.019441 442.490759,378.862492 442.490759,379.898709 L442.490759,382.120732 C442.490759,383.156949 443.321506,384 444.3426,384 L448.593824,384 C449.585365,384 450.397455,383.20515 450.443671,382.21027 C454.281016,381.981115 458.223967,381.035809 458.610785,374.757877 C460.742201,374.318068 462,372.67482 462,370.285936 L462,363.859137 C462,361.470252 460.747399,359.826281 458.624173,359.382859 L458.624173,359.382859 Z" id="Premium-Support"></path>
        </g>
    </g>
</svg>