<?xml version="1.0" encoding="UTF-8"?>
<svg width="19px" height="19px" viewBox="0 0 19 19" version="1.1" xmlns="http://www.w3.org/2000/svg" xmlns:xlink="http://www.w3.org/1999/xlink">
    <title>Shape@2x</title>
    <g id="Page-1" stroke="none" stroke-width="1" fill="none" fill-rule="evenodd">
        <g id="Setting-main-Page--Copy-3" transform="translate(-1496.000000, -311.000000)" fill="#46D39A" fill-rule="nonzero">
            <g id="Group-7" transform="translate(1311.000000, 300.000000)">
                <path d="M188.075379,14.0753788 C191.004311,11.1464466 195.753048,11.1464466 198.681981,14.0753788 C201.491968,16.8853659 201.606082,21.3703534 199.024325,24.3163854 L202.924621,28.2175144 C203.119883,28.4127766 203.119883,28.7293591 202.924621,28.9246212 C202.729359,29.1198833 202.412777,29.1198833 202.217514,28.9246212 L198.317141,25.0236621 C195.371121,27.6061018 190.885606,27.4922079 188.075379,24.6819805 C185.146447,21.7530483 185.146447,17.004311 188.075379,14.0753788 Z M188.782486,14.7824856 C186.244078,17.3208935 186.244078,21.4364658 188.782486,23.9748737 C191.320893,26.5132816 195.436466,26.5132816 197.974874,23.9748737 C200.513282,21.4364658 200.513282,17.3208935 197.974874,14.7824856 C195.436466,12.2440777 191.320893,12.2440777 188.782486,14.7824856 Z" id="Shape"></path>
            </g>
        </g>
    </g>
</svg>