<svg id="Security" xmlns="http://www.w3.org/2000/svg" width="450" height="337.5" viewBox="0 0 450 337.5">
  <g id="background">
    <rect id="Rectangle" width="450" height="337.5" fill="#fff"/>
  </g>
  <g id="shadow" transform="translate(104.85 47.85)">
    <g id="Group">
      <path id="Path" d="M.005,1.241c-.18,1.98,4.245,6.255,5.37,3.24C6.38,1.826.305-2,.005,1.241Z" transform="translate(75.325 20.854)" fill="#ebf2ff"/>
      <path id="Path-2" data-name="Path" d="M3.869,1.649C3.944.659,3.494-.3,2.294.089A3.863,3.863,0,0,0,.029,3.014c-.2,1.11.63,2.055,1.77,1.65A3.575,3.575,0,0,0,3.824,1.9C3.839,1.829,3.854,1.739,3.869,1.649Z" transform="translate(91.426 20.551)" fill="#ebf2ff"/>
      <path id="Path-3" data-name="Path" d="M0,1.257c.075,1.05,1.305,1.365,2.175,1.32.8-.03,2.01-.66,1.905-1.605C3.963-.288-.117-.453,0,1.257Z" transform="translate(84.522 30.633)" fill="#ebf2ff"/>
      <path id="Path-4" data-name="Path" d="M.936,11.421c1.725-1.035,5.085-1.14,8.025-.36,3.375.9,2.49,3.075,10.965.33a17.737,17.737,0,0,1,6.66-.15c1.08.18,2.94.945,3.885.09,2.205-1.98-3.8-4.08-4.77-4.875-.945-.75-1.215-2.055-1.965-2.955C20.991.216,18.246-.249,14.5.1c-3.825.36-8.145,1.455-11.025,4.14C2.331,5.3-1.839,10.611.936,11.421Z" transform="translate(69.114 0.129)" fill="#ebf2ff"/>
      <path id="Path-5" data-name="Path" d="M2.561,8.315A8.861,8.861,0,0,0,4.2,2.615c-.075-1.23-.75-3.54-2.43-2.22C.206,1.625.071,4.2.026,6.035c-.015.84-.195,2.16.66,2.715A1.429,1.429,0,0,0,2.561,8.315Z" transform="translate(140.824 65.035)" fill="#ebf2ff"/>
      <path id="Path-6" data-name="Path" d="M4.123,8.573c.345-2.19.54-5.49-.6-7.515C2.8-.217.823-.472.223,1.028c-.675,1.71.345,4.875.915,6.525.285.825.48,1.8,1.455,1.965A1.306,1.306,0,0,0,4.123,8.573Z" transform="translate(10.712 64.162)" fill="#ebf2ff"/>
      <path id="Path-7" data-name="Path" d="M22.737,16.377c3.27.78,1.35-5.9.81-7.14a19.145,19.145,0,0,0-4.65-6.8c-4.485-3.9-9.84-2.25-15.105-1.035-.795.18-4.86.63-3.525,2.685C4.557,10.692,17.1,15.042,22.737,16.377Z" transform="translate(105.588 103.203)" fill="#ebf2ff"/>
      <path id="Shape" d="M.857,6.863c1.066-3.2,2.835-6,6.286-6.75C11.552-.833,10.8,4.4,9.722,6.848c-1.26,2.835-3.929,6.809-7.034,7.844a2.939,2.939,0,0,1-.92.168C-1.183,14.86.335,8.417.857,6.863Z" transform="translate(60.763 119.962)" fill="#ebf2ff"/>
      <path id="Shape-2" data-name="Shape" d="M20.078,58.093c-3.1-3.255-4.605-7.695-5.385-12.045-.87-4.875-.375-9.346.135-14.206.27-2.565-.661-4.89-1.561-7.259-.84-2.236-1.634-4.47-2.43-6.72-.885-2.52-1.8-5.025-2.685-7.545-.585-1.651-.975-3.57-2.625-4.47C4.148,5.1.578,5.2.068,3.283s1.845-1.5,2.7-1.755C4.6.973,8.093-.887,9.833.509c1.6,1.274,1.994,4.71,2.595,6.539,1.755,5.415,3.855,10.815,4.965,16.411.945,4.68.66,9.464,1.2,14.189a60.12,60.12,0,0,0,3.57,13.711c.689,1.92,1.935,4.86,1.454,6.93-.207.913-.64,1.245-1.151,1.245A4.135,4.135,0,0,1,20.078,58.093Z" transform="translate(93.547 122.357)" fill="#ebf2ff"/>
      <path id="Path-8" data-name="Path" d="M7.471.269c-2.1.81-6.69,1.6-7.365,4.17-.81,3.045,3.225,3.75,5.34,3.375,2.34-.4,5.415-2.4,5.55-5.055C11.116.284,9.361-.466,7.471.269Z" transform="translate(122.129 127.591)" fill="#ebf2ff"/>
      <path id="Path-9" data-name="Path" d="M3.231,27.2c5.145,4.56,8.085-3.585,8.52-7.575a30.95,30.95,0,0,0-2.985-16.6c-.51-1.05-.99-2.49-2.16-2.9a2.924,2.924,0,0,0-3.3,1.485c-1.4,2.28-1.95,5.46-2.415,8.04C-.069,14.808-1.239,23.238,3.231,27.2Z" transform="translate(89.979 167.562)" fill="#ebf2ff"/>
      <path id="Path-10" data-name="Path" d="M2.756.671C-.559,7.136-.319,14.456.581,21.461c.465,3.66,1.11,7.29,1.485,10.965.105,1.05-.165,2.76.96,3.315a1.333,1.333,0,0,0,1.89-.75c.39-1.095-.255-3.39-.405-4.515-.21-1.635-.48-3.27-.72-4.905a90.248,90.248,0,0,1-1.215-10.62,28.628,28.628,0,0,1,1.155-9.63c.345-1.11,1.77-3,1.485-4.17A1.332,1.332,0,0,0,2.756.671Z" transform="translate(92.299 128.314)" fill="#ebf2ff"/>
      <path id="Path-11" data-name="Path" d="M.662,4.132a24.418,24.418,0,0,0,9.6,3.15c2.775.2,4.755-2.61,2.025-4.455C10.022,1.282,6.572.847,3.962.2-.958-1.013-.268,3.622.662,4.132Z" transform="translate(95.698 204.578)" fill="#ebf2ff"/>
      <path id="Path-12" data-name="Path" d="M.7,2.944c2.07,1.275,8.82,2.415,5.7-1.725C5.377-.146,3.367-.191,1.747.244.607.559-.908,1.969.7,2.944Z" transform="translate(100.778 216.086)" fill="#ebf2ff"/>
      <path id="Path-13" data-name="Path" d="M4.3,7.056c1.86.015,3.87-.315,5.07-.15,2.025.3,5.085,1.665,6.06-1.11.75-2.13-1.755-3.975-3.39-4.755a10.5,10.5,0,0,0-8.5-.27C2.136,1.356.126,2.436.006,4.161-.144,6.5,2.526,7.041,4.3,7.056Z" transform="translate(102.444 224.409)" fill="#ebf2ff"/>
      <path id="Path-14" data-name="Path" d="M4.5,9.6C4.724,7.38,1.979,1.35.7,0-.751.825.434,4.665.854,5.895,1.289,7.17,3.179,10.71,4.5,9.6Z" transform="translate(92.776 220.8)" fill="#ebf2ff"/>
      <path id="Path-15" data-name="Path" d="M20.066,3.247c-3.555-1.38-7.335-.6-11.01-.315A21.377,21.377,0,0,1,5.261,3.1a3.417,3.417,0,0,1-1.785-.585C2.8,1.987,2.861.952,2.261.367a1.347,1.347,0,0,0-2.25.93c-.18,2.025,1.98,3.645,3.675,4.11,4.575,1.245,9.27-.99,13.89-.06.945.2,2.13.945,2.985.2A1.335,1.335,0,0,0,20.066,3.247Z" transform="translate(97.129 233.513)" fill="#ebf2ff"/>
      <path id="Path-16" data-name="Path" d="M19.059,6.816c1.635-.7,3.9-1.59,3.735-3.735C22.629.846,20.364.051,18.474.006c-1.35-.045-7.755.135-9.6.825A3.962,3.962,0,0,0,6.039,3.8a3.23,3.23,0,0,0,.03,1c-1.98-2.22-4.6,4.425-5.175,5.67-2.31,5.07.57,38.2.72,42.03.09,2.205,1,2.19,2.985,2.085,1.26-.06,3.855.375,4.53-.99.555-1.14-.285-4.155-.42-5.43-.18-1.9-.36-3.825-.525-5.73q-.5-5.738-.855-11.475-.4-6.57-.66-13.14c-.075-1.98-.135-3.975-.195-5.955-.045-1.77-.45-4.1-.075-5.79.87,2.235,2.355,3.93,4.92,3.48A37.125,37.125,0,0,0,19.059,6.816Z" transform="translate(119.916 175.779)" fill="#ebf2ff"/>
      <path id="Path-17" data-name="Path" d="M.651.6a1.362,1.362,0,0,0,.855,2.505c.375-.015.915-.315,1.32-.36.96-.105,2.655-.33,1.755-1.92C3.861-.446,1.656-.026.651.6Z" transform="translate(142.224 185.966)" fill="#ebf2ff"/>
      <path id="Path-18" data-name="Path" d="M1.9,4.488c1.1-.465,2.205-.87,3.33-1.245C5.969,3,7.259,2.9,7.769,2.3a1.419,1.419,0,0,0-.96-2.28C5.264-.177,2.234,1.248.9,2-.736,2.928.014,5.3,1.9,4.488Z" transform="translate(132.346 203.112)" fill="#ebf2ff"/>
      <path id="Path-19" data-name="Path" d="M26.055.05q-8.708,2.295-17.4,4.575L4.2,5.8C3.225,6.05,1.395,6.17.6,6.8-.705,7.82.33,9.275,1.695,9.245A20.689,20.689,0,0,0,5.745,8.18L10.2,7.01c2.835-.75,5.67-1.485,8.49-2.235l4.455-1.17c1.095-.285,3.12-.42,4-1.11A1.371,1.371,0,0,0,26.055.05Z" transform="translate(145.365 195.235)" fill="#ebf2ff"/>
      <path id="Path-20" data-name="Path" d="M30.606,10.8c-1.92-.525-4.23.345-6.18.45a40.294,40.294,0,0,1-5.385-.12c-2.01-.15-4.845-.585-6.84-.825-.24-.03,2.055-10.44-3.8-10.305-2.295.045-3.39,1.125-3.525,2.76-.2,2.16-.225,4.335-.33,6.5a3.3,3.3,0,0,0-4.44,2.37,4.957,4.957,0,0,0,1.965,4.89c.435.345,1.11.54,1.5.9.75.69-2.73,56.4-2.1,57.225.915,1.2,5.535,1.065,6.465-.075.675-.84,2.775-55.935,3.765-56.685.87-.66,10.815.915,14.1.45,2.445-.345,5.43-.33,6.45-3C32.886,13.651,32.631,11.371,30.606,10.8Z" transform="translate(58.134 153.884)" fill="#ebf2ff"/>
      <path id="Path-21" data-name="Path" d="M12.815,16.182c7.485-.27,14.955-.2,22.425.03,1.41.045,2.55-.135,2.895-1.755a3.481,3.481,0,0,0-1.62-3.495c-2.055-1.305-4.89-.525-7.14-.4a97.2,97.2,0,0,1-11.445-.285c-3.165-.2-6.63-.405-9.315-2.265a7.232,7.232,0,0,1-2.55-2.985c-.555-1.275-.12-2.7-.885-3.81-2.415-3.5-4.05,1.47-4.68,3.6-.96,3.27-.675,7.14,2.07,9.5C5.405,16.752,9.38,16.3,12.815,16.182Z" transform="translate(53.08 137.733)" fill="#ebf2ff"/>
      <path id="Path-22" data-name="Path" d="M46.714,52.233c2.31-.4-1.77-14.265-.75-15.45,5.565-6.45-.465-19.935.66-24.87.735-3.225,2.385-7.5-.555-10.17C42.6-1.392,36.439.528,32.434,1.188Q26.269,2.2,20.119,3.2c-4.155.66-10.035.03-13.32,3.165-3.36,3.2-2.67,10.185-2.88,14.385-.39,8.07-.48,16.26-2.115,24.21-.66,3.24-4.575,10.365,1.74,8.085,3.48-1.26,6.075-.33,9.465,1.065C23.584,58.458,36.019,54.063,46.714,52.233Z" transform="translate(1.556 175.107)" fill="#ebf2ff"/>
      <path id="Path-23" data-name="Path" d="M91.012,4.533c-8.445-2.76-41.1-5.3-40.935-4.32.24,1.41-.3,1.77-.54,3.585-.36,2.67-4.95,2.535-7.47,2.415-2.49-.12-5.82-1.605-4.98-4.68C37.492.078,6.727.828.847,3.858c-3.225,1.665,3.735,3.3,4.65,3.51a178.111,178.111,0,0,0,41.88,4.83,178.262,178.262,0,0,0,23.655-1.665q6.12-.833,12.15-2.1c1.875-.39,3.75-.81,5.61-1.275C89.707,6.978,93.172,5.253,91.012,4.533Z" transform="translate(146.978 100.167)" fill="#ebf2ff"/>
      <path id="Path-24" data-name="Path" d="M13.336,13.05c1.56.915,2.205-1.035,1.665-2.115a17.87,17.87,0,0,0-3.255-4.11A26.9,26.9,0,0,0,2.7.39C1.666-.045-.269-.525.031,1.425c.24,1.515,2.655,3.315,3.7,4.35A49.785,49.785,0,0,0,13.336,13.05Z" transform="translate(174.179 75.375)" fill="#ebf2ff"/>
      <path id="Shape-3" data-name="Shape" d="M4.5,21.039a1.386,1.386,0,0,1-1.95.72c-2.685-1.6-2.64-5.025-2.489-7.74.18-3.96.239-8.43,1.319-12.255C1.736.474,3.612-.921,4.526.8c.765,1.44.436,4.334.571,5.954.329,4.171.869,8.5-.09,12.615,1.53-1.74,3.119-3.4,4.8-4.995,1.125-1.08,3.015-3.51,4.545-3.885a1.256,1.256,0,0,1,.613.04,1.179,1.179,0,0,0,.512.05,7.318,7.318,0,0,0,1.455-.9c.795-.45,1.6-.869,2.43-1.245,1.02-.465,2.669-.765,2.624.96-.045,1.425-2.939,3.105-3.96,3.96q-2.542,2.137-5.13,4.2c-.895.707-4.854,4.459-7.071,4.459A1.314,1.314,0,0,1,4.5,21.039Z" transform="translate(188.794 66.441)" fill="#ebf2ff"/>
      <path id="Path-25" data-name="Path" d="M9.6,1.248C9.646-.627,2.446-.177,1.666,1.2.961,2.433.6,67.548.406,83.223q-.157,11.857-.3,23.7c-.015,1.4-.555,3.435.96,4.155,1.53.735,4.05.525,5.685.345,2.175-.24,2.91-.6,2.85-2.865-.06-2.085-.1-4.17-.15-6.24q-.54-23.9-.54-47.79Q8.911,27.888,9.6,1.248Z" transform="translate(184.964 117.792)" fill="#ebf2ff"/>
      <path id="Path-26" data-name="Path" d="M44.9.266A87.71,87.71,0,0,1,3.244.416C2.269.176,1.009-.454.274.551A1.363,1.363,0,0,0,.589,2.486c1,.765,3.4.885,4.65,1.155,1.83.375,3.66.705,5.505.975A90.894,90.894,0,0,0,31.819,5.2a90.937,90.937,0,0,0,11.175-1.7c1.005-.225,3.27-.255,3.57-1.56A1.422,1.422,0,0,0,44.9.266Z" transform="translate(166.286 231.859)" fill="#ebf2ff"/>
      <path id="Path-27" data-name="Path" d="M9.8.9A14.759,14.759,0,0,0,2.154.225C1.014.42-1.116,1.68.714,2.88c.735.495,1.74-.015,2.535-.105a12.079,12.079,0,0,1,3.675.12c1.05.195,2.445,1.1,3.375.3A1.336,1.336,0,0,0,9.8.9Z" transform="translate(0.036 240.06)" fill="#ebf2ff"/>
      <path id="Path-28" data-name="Path" d="M15.5.5c-4.02.57-7.68-.165-11.64-.435C2.739-.01.384-.265.039,1.2A1.428,1.428,0,0,0,1.3,2.9c.735.105,1.62-.225,2.4-.165.69.045,1.395.195,2.07.3a34.557,34.557,0,0,0,5.97.435c1.215-.03,3.87.2,4.875-.525A1.369,1.369,0,0,0,15.5.5Z" transform="translate(36.381 236.17)" fill="#ebf2ff"/>
      <path id="Path-29" data-name="Path" d="M6.958.894C5.353.129,2.608-.456.928.489c-.87.48-1.41,1.86-.315,2.52.57.345,1.11.015,1.695-.105a6.218,6.218,0,0,1,2.97.195c.78.21,1.65.525,2.16-.36A1.359,1.359,0,0,0,6.958.894Z" transform="translate(73.982 223.911)" fill="#ebf2ff"/>
      <path id="Path-30" data-name="Path" d="M6.943.539C5.353.254,2.293-.421.793.374c-1.35.72-.84,2.28.51,2.565a30.047,30.047,0,0,0,3.285-.015,7.676,7.676,0,0,0,2.16.225C8.023,2.864,8.473.824,6.943.539Z" transform="translate(71.492 241.501)" fill="#ebf2ff"/>
      <path id="Path-31" data-name="Path" d="M5.979.157c-1.365-.135-4.2-.42-5.4.42a1.368,1.368,0,0,0,.18,2.34c.6.33,1.35.045,1.98-.03.96-.12,1.92.015,2.865-.045C7.374,2.707,8.079.352,5.979.157Z" transform="translate(120.786 243.458)" fill="#ebf2ff"/>
      <path id="Path-32" data-name="Path" d="M17.65.31C13.735,1.345,9.655.25,5.695.1,4.4.055,1.315-.335.415.805c-1.5,1.92,1.47,2.115,2.52,2.01,4.02-.39,8.01.8,12.03.6,1.17-.06,3.765.045,4.275-1.305A1.372,1.372,0,0,0,17.65.31Z" transform="translate(133.265 238.835)" fill="#ebf2ff"/>
      <path id="Path-33" data-name="Path" d="M1.31.127A1.365,1.365,0,0,0,.245,2.272c.69.975,3.465.765,4.485.555.93-.18,1.68-1.005,1.155-2C5.21-.443,2.48.127,1.31.127Z" transform="translate(145 231.368)" fill="#ebf2ff"/>
    </g>
  </g>
  <g id="color_shadow_1_" transform="translate(123 70.05)">
    <path id="Shape-4" data-name="Shape" d="M1.526,93.2a1.284,1.284,0,0,1-.99-1.305Q1.413,82.059,1.855,72.2q.54-11.61.481-23.235a3.271,3.271,0,0,0,2.88-.975c1.245-1.741-1.365-2.97-2.925-3.226v-.554a2.6,2.6,0,0,0,2.219-.06,1.435,1.435,0,0,0,.45-1.71A2.941,2.941,0,0,0,2.246,40.5,300.409,300.409,0,0,0,.01,1.141c-.239-1.86,3.8-.915,5.175-.8,2.475.211,4.936.436,7.411.661a158.623,158.623,0,0,1,37.769,8.04c4.77,1.68,9.18,4.035,13.86,5.865,2.956,1.155,4.86.63,7.771-.481,7.65-2.939,15.33-5.805,23.175-8.2A169.781,169.781,0,0,1,119.111.691a1.363,1.363,0,0,1,1.65,1.679c-4.845,15.93-3.84,32.58-3.525,48.991.18,9.21.24,18.419.87,27.615.24,3.63.855,13.335-5.46,11.265-2.97-.976-4.26-4.005-6.224-6.151-5.656-6.165-16.125-3.4-23.026-1.5a191.647,191.647,0,0,0-21.54,7.515c-6.135,2.5-12.12,6.06-18.735,6.615-2.215.189-4.413.273-6.6.272C24.987,96.994,13.717,94.671,1.526,93.2Z" transform="translate(0.065 0.149)" fill="#eee1ff"/>
  </g>
  <g id="outline" transform="translate(106.05 43.5)">
    <path id="Path-34" data-name="Path" d="M.122,2.82a3.1,3.1,0,0,0,.57,2.97.4.4,0,0,0,.3.135c.195-.015.3-.21.375-.39A12.442,12.442,0,0,0,2.162,0" transform="translate(72.133 18.27)" fill="none" stroke="#003188" stroke-linecap="round" stroke-linejoin="round" stroke-miterlimit="10" stroke-width="0.9"/>
    <path id="Path-35" data-name="Path" d="M.133,0A13.5,13.5,0,0,0,.058,2.805" transform="translate(68.042 17.67)" fill="none" stroke="#003188" stroke-linecap="round" stroke-linejoin="round" stroke-miterlimit="10" stroke-width="0.9"/>
    <path id="Path-36" data-name="Path" d="M4.034.181A3.038,3.038,0,0,0,.539,1.306,3.33,3.33,0,0,0,.6,5.026,3.691,3.691,0,0,0,4.064,6.481" transform="translate(66.601 22.034)" fill="none" stroke="#003188" stroke-linecap="round" stroke-linejoin="round" stroke-miterlimit="10" stroke-width="0.9"/>
    <path id="Path-37" data-name="Path" d="M0,0C.525.21,1.05.405,1.59.615" transform="translate(69.18 25.23)" fill="none" stroke="#003188" stroke-linecap="round" stroke-linejoin="round" stroke-miterlimit="10" stroke-width="0.9"/>
    <path id="Path-38" data-name="Path" d="M0,.257A14.445,14.445,0,0,1,5.265.227" transform="translate(77.835 20.083)" fill="none" stroke="#003188" stroke-linecap="round" stroke-linejoin="round" stroke-miterlimit="10" stroke-width="0.9"/>
    <path id="Path-39" data-name="Path" d="M.028,0,.073,1.215A3.029,3.029,0,0,0,.028,0" transform="translate(80.732 22.92)" fill="none" stroke="#003188" stroke-linecap="round" stroke-linejoin="round" stroke-miterlimit="10" stroke-width="0.9"/>
    <path id="Path-40" data-name="Path" d="M5.37,0A8.988,8.988,0,0,0,2.385.8a.807.807,0,0,0-.315.225.8.8,0,0,0-.1.45,18.68,18.68,0,0,0,.1,3.3,16.6,16.6,0,0,1,.4,2.685,1.114,1.114,0,0,1-.165.66,1.167,1.167,0,0,1-.48.315A7.682,7.682,0,0,1,0,8.925" transform="translate(85.155 19.47)" fill="none" stroke="#003188" stroke-linecap="round" stroke-linejoin="round" stroke-miterlimit="10" stroke-width="0.9"/>
    <path id="Path-41" data-name="Path" d="M.034,0c.015.405.03.81.03,1.215A2.685,2.685,0,0,0,.034,0" transform="translate(89.411 22.515)" fill="none" stroke="#003188" stroke-linecap="round" stroke-linejoin="round" stroke-miterlimit="10" stroke-width="0.9"/>
    <path id="Path-42" data-name="Path" d="M0,.133A10.27,10.27,0,0,1,2.445.058" transform="translate(84.42 32.642)" fill="none" stroke="#003188" stroke-linecap="round" stroke-linejoin="round" stroke-miterlimit="10" stroke-width="0.9"/>
    <path id="Path-43" data-name="Path" d="M.026,0A8.482,8.482,0,0,0,.161,2.31" transform="translate(69.889 30)" fill="none" stroke="#003188" stroke-linecap="round" stroke-linejoin="round" stroke-miterlimit="10" stroke-width="0.9"/>
    <path id="Path-44" data-name="Path" d="M1.065,0A34.449,34.449,0,0,1,0,14.73" transform="translate(92.67 18.06)" fill="none" stroke="#003188" stroke-linecap="round" stroke-linejoin="round" stroke-miterlimit="10" stroke-width="0.9"/>
    <path id="Path-45" data-name="Path" d="M0,4.74A14.748,14.748,0,0,1,11.3,5.2a4.8,4.8,0,0,0,1.77.615,4.66,4.66,0,0,0,1.62-.33,28.767,28.767,0,0,1,14.04-.9,3.1,3.1,0,0,0,1.335.075,1.065,1.065,0,0,0,.87-.9,1.446,1.446,0,0,0-.7-1.1A12.985,12.985,0,0,0,23.985,0" transform="translate(68.835 11.415)" fill="none" stroke="#003188" stroke-linecap="round" stroke-linejoin="round" stroke-miterlimit="10" stroke-width="0.9"/>
    <path id="Path-46" data-name="Path" d="M0,4.6C7.725,1.521,15.81-.339,24.1.051" transform="translate(68.805 11.364)" fill="none" stroke="#003188" stroke-linecap="round" stroke-linejoin="round" stroke-miterlimit="10" stroke-width="0.9"/>
    <path id="Path-47" data-name="Path" d="M0,11.6C-.073,7.77,1.577,3.42,4.8,2.085A19.014,19.014,0,0,1,8.177.945c3.27-.69,6.675-1.38,9.93-.6s6.3,3.48,6.315,6.825" transform="translate(68.263 2.985)" fill="none" stroke="#003188" stroke-linecap="round" stroke-linejoin="round" stroke-miterlimit="10" stroke-width="0.9"/>
    <path id="Path-48" data-name="Path" d="M0,0C.045.3.09.6.15.885" transform="translate(79.83 0.06)" fill="none" stroke="#003188" stroke-linecap="round" stroke-linejoin="round" stroke-miterlimit="10" stroke-width="0.9"/>
    <path id="Path-49" data-name="Path" d="M4.485,0A2.933,2.933,0,0,0,2.73.75,7.545,7.545,0,0,0,0,5.145" transform="translate(71.415 6.285)" fill="none" stroke="#003188" stroke-linecap="round" stroke-linejoin="round" stroke-miterlimit="10" stroke-width="0.9"/>
    <path id="Path-50" data-name="Path" d="M3.03,0A5.717,5.717,0,0,0,0,2.3" transform="translate(10.245 62.64)" fill="none" stroke="#003188" stroke-linecap="round" stroke-linejoin="round" stroke-miterlimit="10" stroke-width="0.9"/>
    <path id="Path-51" data-name="Path" d="M0,.285c2.625.9,5.49.75,8.25.57C8.94.81,9.8.66,10.035,0" transform="translate(12.405 70.485)" fill="none" stroke="#003188" stroke-linecap="round" stroke-linejoin="round" stroke-miterlimit="10" stroke-width="0.9"/>
    <path id="Path-52" data-name="Path" d="M13.126,2.083A21.509,21.509,0,0,0,5.116.088a6.546,6.546,0,0,0-3.69.375C.316,1.048-.4,2.548.271,3.6c.18.285.45.54.435.87a1.362,1.362,0,0,1-.225.525,3.741,3.741,0,0,0,.48,4.335,2.389,2.389,0,0,1,.69.915,2.808,2.808,0,0,1,.03.8c.015,1.635,1.605,2.79,3.105,3.465" transform="translate(8.714 66.482)" fill="none" stroke="#003188" stroke-linecap="round" stroke-linejoin="round" stroke-miterlimit="10" stroke-width="0.9"/>
    <path id="Path-53" data-name="Path" d="M0,2.76a40.806,40.806,0,0,0,7.65.36c.99-.045,2.16-.225,2.64-1.095A1.57,1.57,0,0,0,9.735,0" transform="translate(12.495 72.66)" fill="none" stroke="#003188" stroke-linecap="round" stroke-linejoin="round" stroke-miterlimit="10" stroke-width="0.9"/>
    <path id="Path-54" data-name="Path" d="M7.4,0c1.455.225,2.385,1.605,3.15,2.865a9.584,9.584,0,0,1,1.41,3.12,3.308,3.308,0,0,1-.915,3.15,2.574,2.574,0,0,1-.45,4.095,1.543,1.543,0,0,1,0,2.235,4.582,4.582,0,0,1-2.265,1.05c-2.505.615-5.145,1.23-7.605.5a1.109,1.109,0,0,1-.615-.36c-.405-.57.36-1.245,1.005-1.5A20.837,20.837,0,0,1,5.858,13.9" transform="translate(133.237 64.47)" fill="none" stroke="#003188" stroke-linecap="round" stroke-linejoin="round" stroke-miterlimit="10" stroke-width="0.9"/>
    <path id="Path-55" data-name="Path" d="M2.145,3.99A2.98,2.98,0,0,1,.69,3.825,1.084,1.084,0,0,1,.03,2.64a1.54,1.54,0,0,1,.855-.8A24.965,24.965,0,0,1,5.595,0" transform="translate(133.305 74.22)" fill="none" stroke="#003188" stroke-linecap="round" stroke-linejoin="round" stroke-miterlimit="10" stroke-width="0.9"/>
    <path id="Path-56" data-name="Path" d="M8.2,0A20.2,20.2,0,0,0,.735,2.61a1.331,1.331,0,0,0-.72.765c-.12.585.525,1.005,1.08,1.2,2.955.99,6.18.21,9.2-.585" transform="translate(132.75 68.7)" fill="none" stroke="#003188" stroke-linecap="round" stroke-linejoin="round" stroke-miterlimit="10" stroke-width="0.9"/>
    <path id="Path-57" data-name="Path" d="M0,2.91A7.343,7.343,0,0,0,3.24,0" transform="translate(138.87 81.78)" fill="none" stroke="#003188" stroke-linecap="round" stroke-linejoin="round" stroke-miterlimit="10" stroke-width="0.9"/>
    <path id="Path-58" data-name="Path" d="M2.057,0A58.236,58.236,0,0,0,.017,13.545a13.716,13.716,0,0,0,.42,4.5c.96,3.09,3.81,5.3,6.87,6.33A30.706,30.706,0,0,0,16.892,25.5c5.085.06,10.17.135,15.255.195" transform="translate(55.963 126.54)" fill="none" stroke="#003188" stroke-linecap="round" stroke-linejoin="round" stroke-miterlimit="10" stroke-width="0.9"/>
    <path id="Path-59" data-name="Path" d="M5.715,0A22.41,22.41,0,0,0,0,11.2" transform="translate(60.84 125.835)" fill="none" stroke="#003188" stroke-linecap="round" stroke-linejoin="round" stroke-miterlimit="10" stroke-width="0.9"/>
    <path id="Path-60" data-name="Path" d="M2.46,0A22.634,22.634,0,0,0,0,4.935" transform="translate(65.295 128.28)" fill="none" stroke="#003188" stroke-linecap="round" stroke-linejoin="round" stroke-miterlimit="10" stroke-width="0.9"/>
    <path id="Path-61" data-name="Path" d="M0,16.165C16.08,9.955,32.265,3.715,49.215.595c3.09-.57,6.375-1.02,9.33.075a12.452,12.452,0,0,1,6.18,5.625,33.9,33.9,0,0,1,3,7.95c3.36,12.135,5.745,24.57,9.915,36.45,2.145,6.1,4.785,12.3,4.32,18.75" transform="translate(61.425 107.765)" fill="none" stroke="#003188" stroke-linecap="round" stroke-linejoin="round" stroke-miterlimit="10" stroke-width="0.9"/>
    <path id="Path-62" data-name="Path" d="M1.7,0A2.909,2.909,0,0,0,.15,1.53a2.08,2.08,0,0,0,.3,2.085c.78.885,2.175.75,3.33.525C6.405,3.63,9,3.03,11.58,2.31" transform="translate(89.565 124.08)" fill="none" stroke="#003188" stroke-linecap="round" stroke-linejoin="round" stroke-miterlimit="10" stroke-width="0.9"/>
    <path id="Path-63" data-name="Path" d="M.379,0C-.761,5.76.844,11.685,2.854,17.19c2.025,5.5,4.5,10.935,5.19,16.77.435,3.63.15,7.305.465,10.95.57,6.735,3.15,13.125,5.685,19.4" transform="translate(102.776 120.735)" fill="none" stroke="#003188" stroke-linecap="round" stroke-linejoin="round" stroke-miterlimit="10" stroke-width="0.9"/>
    <path id="Path-64" data-name="Path" d="M0,5.3A21.511,21.511,0,0,1,7.875,1.8C13.02.66,18.465,1.395,23.55,0" transform="translate(118.83 178.89)" fill="none" stroke="#003188" stroke-linecap="round" stroke-linejoin="round" stroke-miterlimit="10" stroke-width="0.9"/>
    <path id="Path-65" data-name="Path" d="M0,2.7C4.92-.255,11.025-.15,16.755.135" transform="translate(120.15 177.75)" fill="none" stroke="#003188" stroke-linecap="round" stroke-linejoin="round" stroke-miterlimit="10" stroke-width="0.9"/>
    <path id="Path-66" data-name="Path" d="M7.275,0A35.953,35.953,0,0,1,0,3.975c1.98-.12,3.96-.225,5.94-.345" transform="translate(123.39 132.48)" fill="none" stroke="#003188" stroke-linecap="round" stroke-linejoin="round" stroke-miterlimit="10" stroke-width="0.9"/>
    <path id="Path-67" data-name="Path" d="M2.885,0C-.1,5.25-.355,11.64.29,17.655s2.1,11.94,2.235,17.985" transform="translate(92.05 132.9)" fill="none" stroke="#003188" stroke-linecap="round" stroke-linejoin="round" stroke-miterlimit="10" stroke-width="0.9"/>
    <path id="Path-68" data-name="Path" d="M5.43,0c1.845,9.765-.435,19.785-2.88,29.415C.99,35.6-.66,41.955.27,48.255" transform="translate(84.195 155.01)" fill="none" stroke="#003188" stroke-linecap="round" stroke-linejoin="round" stroke-miterlimit="10" stroke-width="0.9"/>
    <path id="Path-69" data-name="Path" d="M1.9,22.965c.315-4.275-2.085-8.4-1.89-12.69a.724.724,0,0,1,.2-.555c.27-.2.63.045.84.3,1.485,1.8,1.56,4.755,3.63,5.82.84-5.3-.585-10.665-1.995-15.84" transform="translate(91.834 174.015)" fill="none" stroke="#003188" stroke-linecap="round" stroke-linejoin="round" stroke-miterlimit="10" stroke-width="0.9"/>
    <path id="Path-70" data-name="Path" d="M0,0A16.96,16.96,0,0,0,.78,4.245" transform="translate(95.52 159.03)" fill="none" stroke="#003188" stroke-linecap="round" stroke-linejoin="round" stroke-miterlimit="10" stroke-width="0.9"/>
    <path id="Path-71" data-name="Path" d="M0,.075H.6" transform="translate(128.85 137.985)" fill="none" stroke="#003188" stroke-linecap="round" stroke-linejoin="round" stroke-miterlimit="10" stroke-width="0.9"/>
    <path id="Path-72" data-name="Path" d="M0,.042c9.045-.51,17.925,3.81,26.94,2.91" transform="translate(85.125 204.843)" fill="none" stroke="#003188" stroke-linecap="round" stroke-linejoin="round" stroke-miterlimit="10" stroke-width="0.9"/>
    <path id="Path-73" data-name="Path" d="M0,17.1A141.043,141.043,0,0,1,3.69,0" transform="translate(113.145 187.725)" fill="none" stroke="#003188" stroke-linecap="round" stroke-linejoin="round" stroke-miterlimit="10" stroke-width="0.9"/>
    <path id="Path-74" data-name="Path" d="M0,0A25.913,25.913,0,0,1,2.055,10.425C2.04,11.835,1.9,13.26,2,14.67c.255,4.17,2.34,7.965,4.38,11.61" transform="translate(124.29 183.06)" fill="none" stroke="#003188" stroke-linecap="round" stroke-linejoin="round" stroke-miterlimit="10" stroke-width="0.9"/>
    <path id="Path-75" data-name="Path" d="M0,0C1.23,2.34,2.265,4.83,4.02,6.81a12.044,12.044,0,0,0,7.53,3.945c2.58.315,5.19-.24,7.785-.48s5.37-.165,7.56,1.23c3.165,2.01,4.185,6.075,4.965,9.735" transform="translate(141.06 180.945)" fill="none" stroke="#003188" stroke-linecap="round" stroke-linejoin="round" stroke-miterlimit="10" stroke-width="0.9"/>
    <path id="Path-76" data-name="Path" d="M40.425,0A247.753,247.753,0,0,1,13.08,6.825a.943.943,0,0,1-.54-.015.871.871,0,0,1-.33-.435c-.7-1.545-1.425-3.105-2.13-4.65-.195,1.47-.4,2.925-.6,4.395A2.759,2.759,0,0,1,8.9,7.725a2.586,2.586,0,0,1-1.32.585L1.05,9.93,0,7.23" transform="translate(131.025 203.025)" fill="none" stroke="#003188" stroke-linecap="round" stroke-linejoin="round" stroke-miterlimit="10" stroke-width="0.9"/>
    <path id="Path-77" data-name="Path" d="M0,1.68A51.072,51.072,0,0,0,7.155,0" transform="translate(131.58 207.225)" fill="none" stroke="#003188" stroke-linecap="round" stroke-linejoin="round" stroke-miterlimit="10" stroke-width="0.9"/>
    <path id="Path-78" data-name="Path" d="M0,5.73Q13.028,2.873,26.07,0" transform="translate(144.69 200.115)" fill="none" stroke="#003188" stroke-linecap="round" stroke-linejoin="round" stroke-miterlimit="10" stroke-width="0.9"/>
    <path id="Path-79" data-name="Path" d="M0,2.3A21.254,21.254,0,0,0,14.325,0" transform="translate(126.06 183.24)" fill="none" stroke="#003188" stroke-linecap="round" stroke-linejoin="round" stroke-miterlimit="10" stroke-width="0.9"/>
    <path id="Path-80" data-name="Path" d="M0,3.345A22.787,22.787,0,0,0,15.015,0" transform="translate(126.63 186.33)" fill="none" stroke="#003188" stroke-linecap="round" stroke-linejoin="round" stroke-miterlimit="10" stroke-width="0.9"/>
    <path id="Path-81" data-name="Path" d="M0,1.125C1.545.75,3.105.375,4.65,0" transform="translate(141.12 190.44)" fill="none" stroke="#003188" stroke-linecap="round" stroke-linejoin="round" stroke-miterlimit="10" stroke-width="0.9"/>
    <path id="Path-82" data-name="Path" d="M0,.855A10.111,10.111,0,0,1,2.7,0" transform="translate(143.235 192.345)" fill="none" stroke="#003188" stroke-linecap="round" stroke-linejoin="round" stroke-miterlimit="10" stroke-width="0.9"/>
    <path id="Path-83" data-name="Path" d="M0,8.812A17.575,17.575,0,0,1,4.08.682c.36-.39.855-.81,1.35-.645.645.21.645,1.125.45,1.77C5.115,4.4,3.375,6.577,1.65,8.662A13.018,13.018,0,0,1,8.7,5.692c.6-.06,1.41.09,1.455.69a1.151,1.151,0,0,1-.48.87C7.59,9.157,4.7,9.862,1.9,10.357" transform="translate(148.56 179.123)" fill="none" stroke="#003188" stroke-linecap="round" stroke-linejoin="round" stroke-miterlimit="10" stroke-width="0.9"/>
    <path id="Path-84" data-name="Path" d="M1.626,0a28.669,28.669,0,0,1-.75,10.23c-.555,2.145-1.35,4.44-.51,6.48A19.679,19.679,0,0,0,1.731,19c1.23,2.115,1.41,4.65,2.085,7.005s2.2,4.785,4.62,5.175" transform="translate(92.169 208.47)" fill="none" stroke="#003188" stroke-linecap="round" stroke-linejoin="round" stroke-miterlimit="10" stroke-width="0.9"/>
    <path id="Path-85" data-name="Path" d="M0,.042A7.031,7.031,0,0,0,2.505.3c3.69-.12,7.545-.84,10.98.525" transform="translate(102.165 239.898)" fill="none" stroke="#003188" stroke-linecap="round" stroke-linejoin="round" stroke-miterlimit="10" stroke-width="0.9"/>
    <path id="Path-86" data-name="Path" d="M0,.564A17.4,17.4,0,0,1,6.645.144,6.09,6.09,0,0,1,9.1.879a5.629,5.629,0,0,1,2.22,3.255,10.955,10.955,0,0,1,.09,6.06" transform="translate(105.84 229.371)" fill="none" stroke="#003188" stroke-linecap="round" stroke-linejoin="round" stroke-miterlimit="10" stroke-width="0.9"/>
    <path id="Path-87" data-name="Path" d="M3.286,13.125c-.735-.96-1.47-1.935-2.2-2.9a5.2,5.2,0,0,1-.87-1.425,5.637,5.637,0,0,1-.195-2.13C.091,4.455.181,2.22.256,0" transform="translate(108.554 214.29)" fill="none" stroke="#003188" stroke-linecap="round" stroke-linejoin="round" stroke-miterlimit="10" stroke-width="0.9"/>
    <path id="Path-88" data-name="Path" d="M0,0A48.753,48.753,0,0,0,12.18,2.34" transform="translate(95.22 210.42)" fill="none" stroke="#003188" stroke-linecap="round" stroke-linejoin="round" stroke-miterlimit="10" stroke-width="0.9"/>
    <path id="Path-89" data-name="Path" d="M0,0A48.08,48.08,0,0,0,11.13,1.635" transform="translate(95.385 214.38)" fill="none" stroke="#003188" stroke-linecap="round" stroke-linejoin="round" stroke-miterlimit="10" stroke-width="0.9"/>
    <path id="Path-90" data-name="Path" d="M0,.287A14.967,14.967,0,0,1,5.04.152" transform="translate(100.515 221.968)" fill="none" stroke="#003188" stroke-linecap="round" stroke-linejoin="round" stroke-miterlimit="10" stroke-width="0.9"/>
    <path id="Path-91" data-name="Path" d="M0,.372A8.563,8.563,0,0,1,3.99.132" transform="translate(101.4 223.938)" fill="none" stroke="#003188" stroke-linecap="round" stroke-linejoin="round" stroke-miterlimit="10" stroke-width="0.9"/>
    <path id="Path-92" data-name="Path" d="M.637,0a18.094,18.094,0,0,0-.63,4.65,6.141,6.141,0,0,0,1.71,4.26,33.649,33.649,0,0,0,3.345,2.175" transform="translate(91.013 224.355)" fill="none" stroke="#003188" stroke-linecap="round" stroke-linejoin="round" stroke-miterlimit="10" stroke-width="0.9"/>
    <path id="Path-93" data-name="Path" d="M.305,0a22.533,22.533,0,0,0-.3,4.14A4.585,4.585,0,0,0,.245,5.7c.54,1.32,2.13,1.845,3.54,1.98,2.715.255,5.43-.345,8.16-.255,2.235.075,4.44.6,6.66.8a3.158,3.158,0,0,0,2.685-.645,3.31,3.31,0,0,0,.645-2.04" transform="translate(95.65 235.86)" fill="none" stroke="#003188" stroke-linecap="round" stroke-linejoin="round" stroke-miterlimit="10" stroke-width="0.9"/>
    <path id="Path-94" data-name="Path" d="M1.838,0A12.589,12.589,0,0,0,.308,9.315,5.5,5.5,0,0,0,1.883,12.33,7.063,7.063,0,0,0,5.9,13.635a171.347,171.347,0,0,0,28.155.69" transform="translate(52.492 144.21)" fill="none" stroke="#003188" stroke-linecap="round" stroke-linejoin="round" stroke-miterlimit="10" stroke-width="0.9"/>
    <path id="Path-95" data-name="Path" d="M0,0A28.22,28.22,0,0,0,7.095,1.74" transform="translate(54.09 151.11)" fill="none" stroke="#003188" stroke-linecap="round" stroke-linejoin="round" stroke-miterlimit="10" stroke-width="0.9"/>
    <path id="Path-96" data-name="Path" d="M3.735,0,0,75.585H7.8L11.835.195" transform="translate(57.69 158.835)" fill="none" stroke="#003188" stroke-linecap="round" stroke-linejoin="round" stroke-miterlimit="10" stroke-width="0.9"/>
    <path id="Path-97" data-name="Path" d="M8.745,15.09,9.93,39.84H2.13L0,0" transform="translate(118.395 195.33)" fill="none" stroke="#003188" stroke-linecap="round" stroke-linejoin="round" stroke-miterlimit="10" stroke-width="0.9"/>
    <path id="Path-98" data-name="Path" d="M3.609.01A3.47,3.47,0,0,0,.039,2.8a3.466,3.466,0,0,0,2.49,3.78" transform="translate(56.136 168.095)" fill="none" stroke="#003188" stroke-linecap="round" stroke-linejoin="round" stroke-miterlimit="10" stroke-width="0.9"/>
    <path id="Path-99" data-name="Path" d="M0,0A67.8,67.8,0,0,0,16.17.03" transform="translate(70.44 176.13)" fill="none" stroke="#003188" stroke-linecap="round" stroke-linejoin="round" stroke-miterlimit="10" stroke-width="0.9"/>
    <path id="Path-100" data-name="Path" d="M0,0A62.521,62.521,0,0,0,15.525.045" transform="translate(70.86 170.355)" fill="none" stroke="#003188" stroke-linecap="round" stroke-linejoin="round" stroke-miterlimit="10" stroke-width="0.9"/>
    <path id="Path-101" data-name="Path" d="M.6,0C.405,2.985.195,5.97,0,8.955" transform="translate(62.61 161.715)" fill="none" stroke="#003188" stroke-linecap="round" stroke-linejoin="round" stroke-miterlimit="10" stroke-width="0.9"/>
    <path id="Path-102" data-name="Path" d="M0,0C1.53.09,3.06.165,4.59.255" transform="translate(71.31 172.425)" fill="none" stroke="#003188" stroke-linecap="round" stroke-linejoin="round" stroke-miterlimit="10" stroke-width="0.9"/>
    <path id="Path-103" data-name="Path" d="M0,.061A10.508,10.508,0,0,1,3.285.226" transform="translate(59.73 232.469)" fill="none" stroke="#003188" stroke-linecap="round" stroke-linejoin="round" stroke-miterlimit="10" stroke-width="0.9"/>
    <path id="Path-104" data-name="Path" d="M0,.24C.8.165,1.605.075,2.4,0" transform="translate(122.22 232.92)" fill="none" stroke="#003188" stroke-linecap="round" stroke-linejoin="round" stroke-miterlimit="10" stroke-width="0.9"/>
    <path id="Path-105" data-name="Path" d="M0,0C.09,1.68.165,3.345.255,5.025" transform="translate(120.42 196.905)" fill="none" stroke="#003188" stroke-linecap="round" stroke-linejoin="round" stroke-miterlimit="10" stroke-width="0.9"/>
    <path id="Path-106" data-name="Path" d="M.36,0,0,3.51" transform="translate(64.32 215.895)" fill="none" stroke="#003188" stroke-linecap="round" stroke-linejoin="round" stroke-miterlimit="10" stroke-width="0.9"/>
    <path id="Path-107" data-name="Path" d="M0,47.666c5.31-13.785,2.28-29.49,6.345-43.68C6.81,2.336,7.62.476,9.3.071A3.45,3.45,0,0,1,12.555,1.3,8.1,8.1,0,0,1,14.1,4.586c2.34,8.37.96,17.325,2.355,25.9.18,1.08.5,2.3,1.485,2.79,1.41.7,3.27-.54,4.62.255" transform="translate(0.015 185.254)" fill="none" stroke="#003188" stroke-linecap="round" stroke-linejoin="round" stroke-miterlimit="10" stroke-width="0.9"/>
    <path id="Path-108" data-name="Path" d="M0,2.07C3.015,1.38,6.045.69,9.06,0" transform="translate(29.475 215.82)" fill="none" stroke="#003188" stroke-linecap="round" stroke-linejoin="round" stroke-miterlimit="10" stroke-width="0.9"/>
    <path id="Path-109" data-name="Path" d="M0,5.752Q13.05,2.422,26.355.277c2.445-.39,5.325-.63,7.065,1.155a5.822,5.822,0,0,1,1.26,4.785c-.21,1.7-.825,3.3-1.2,4.965-.915,4.155-.18,8.49.75,12.66.855,3.8,1.74,8.19-.7,11.205" transform="translate(13.665 179.348)" fill="none" stroke="#003188" stroke-linecap="round" stroke-linejoin="round" stroke-miterlimit="10" stroke-width="0.9"/>
    <path id="Path-110" data-name="Path" d="M.362,0a19.244,19.244,0,0,0-.15,6.555c.495-.03.975-.075,1.47-.105A33.042,33.042,0,0,0,2.162.015C1.907.015,1.637,0,1.382,0" transform="translate(24.178 214.425)" fill="none" stroke="#003188" stroke-linecap="round" stroke-linejoin="round" stroke-miterlimit="10" stroke-width="0.9"/>
    <path id="Path-111" data-name="Path" d="M.52.161.025,5.291A1.394,1.394,0,0,0,.25,6.446a.956.956,0,0,0,1.395-.255,2.893,2.893,0,0,0,.39-1.545c.075-1.38.135-2.775.21-4.155a.5.5,0,0,0-.1-.435c-.105-.1-.36-.06-.33.105" transform="translate(41.66 211.309)" fill="none" stroke="#003188" stroke-linecap="round" stroke-linejoin="round" stroke-miterlimit="10" stroke-width="0.9"/>
    <path id="Path-112" data-name="Path" d="M0,4.935Q12.982,2.46,25.95,0" transform="translate(16.5 181.89)" fill="none" stroke="#003188" stroke-linecap="round" stroke-linejoin="round" stroke-miterlimit="10" stroke-width="0.9"/>
    <path id="Path-113" data-name="Path" d="M.209,0A23.526,23.526,0,0,0,.524,8.07" transform="translate(17.506 194.97)" fill="none" stroke="#003188" stroke-linecap="round" stroke-linejoin="round" stroke-miterlimit="10" stroke-width="0.9"/>
    <path id="Path-114" data-name="Path" d="M.45,0A122.6,122.6,0,0,1,0,39.315" transform="translate(8.895 190.05)" fill="none" stroke="#003188" stroke-linecap="round" stroke-linejoin="round" stroke-miterlimit="10" stroke-width="0.9"/>
    <path id="Path-115" data-name="Path" d="M0,0Q1.1,20.362,2.055,40.725" transform="translate(12.135 191.01)" fill="none" stroke="#003188" stroke-linecap="round" stroke-linejoin="round" stroke-miterlimit="10" stroke-width="0.9"/>
    <path id="Path-116" data-name="Path" d="M0,17.535A20.3,20.3,0,0,0,7.665,13.59c1.02,2.715,3.81,4.4,6.6,5.16,5.025,1.38,10.365.5,15.42-.78,5.04-1.275,10.065-2.94,15.27-3.12a1.847,1.847,0,0,0,1.545-.54,1.741,1.741,0,0,0,.195-1.035A70.636,70.636,0,0,0,45.15,0" transform="translate(1.155 216.27)" fill="none" stroke="#003188" stroke-linecap="round" stroke-linejoin="round" stroke-miterlimit="10" stroke-width="0.9"/>
    <path id="Path-117" data-name="Path" d="M0,2.055C5.3,3.045,10.545.225,15.93,0" transform="translate(19.215 231.36)" fill="none" stroke="#003188" stroke-linecap="round" stroke-linejoin="round" stroke-miterlimit="10" stroke-width="0.9"/>
    <path id="Path-118" data-name="Path" d="M.1,0a2.369,2.369,0,0,0,.12,1.665" transform="translate(10.597 228.15)" fill="none" stroke="#003188" stroke-linecap="round" stroke-linejoin="round" stroke-miterlimit="10" stroke-width="0.9"/>
    <path id="Path-119" data-name="Path" d="M.273,8.8c.36-.06.72-.12,1.065-.195a.533.533,0,0,0,.3-.12.523.523,0,0,0,.09-.255c.12-.69.135-1.4.3-2.07A4.6,4.6,0,0,1,4.4,3.2a8.523,8.523,0,0,1,1.71-.585c1.365-.345,2.745-.63,4.125-.9a15.2,15.2,0,0,1,2.46-.36,2.879,2.879,0,0,1,1.335.21,2.506,2.506,0,0,1,1.05,1.11,7.178,7.178,0,0,1,.735,2.31c.06.375.195.84.585.885a.577.577,0,0,0,.54-.39,1.4,1.4,0,0,0,.045-.7,12.728,12.728,0,0,0-.66-2.805A3.069,3.069,0,0,0,15.3.367,3.389,3.389,0,0,0,13.188.022a35.512,35.512,0,0,0-9.945,1.83,4.781,4.781,0,0,0-1.77.99A5.222,5.222,0,0,0,.363,5.557,13.985,13.985,0,0,0,0,8.617" transform="translate(19.647 176.018)" fill="#003188" stroke="#003188" stroke-linecap="round" stroke-linejoin="round" stroke-miterlimit="10" stroke-width="0.9"/>
    <path id="Path-120" data-name="Path" d="M51.21,0C74.985.33,93.6,3.285,93.6,6.87c0,3.81-20.955,6.9-46.8,6.9S0,10.68,0,6.87C0,3.48,16.6.66,38.505.075" transform="translate(144.54 102.9)" fill="none" stroke="#003188" stroke-linecap="round" stroke-linejoin="round" stroke-miterlimit="10" stroke-width="0.9"/>
    <path id="Path-121" data-name="Path" d="M90.78,0c-2.955,3.39-22.6,6.015-46.425,6.015C23.745,6.015,6.255,4.05,0,1.32" transform="translate(146.985 115.605)" fill="none" stroke="#003188" stroke-linecap="round" stroke-linejoin="round" stroke-miterlimit="10" stroke-width="0.9"/>
    <path id="Path-122" data-name="Path" d="M.157,0C.112,1.515.052,3.015.007,4.53A3.315,3.315,0,0,0,.082,5.55a1.123,1.123,0,0,0,.63.765" transform="translate(144.308 110.04)" fill="none" stroke="#003188" stroke-linecap="round" stroke-linejoin="round" stroke-miterlimit="10" stroke-width="0.9"/>
    <path id="Path-123" data-name="Path" d="M.129,0c-.09,1.545-.12,3.105-.1,4.65" transform="translate(238.386 109.86)" fill="none" stroke="#003188" stroke-linecap="round" stroke-linejoin="round" stroke-miterlimit="10" stroke-width="0.9"/>
    <path id="Path-124" data-name="Path" d="M.075,0V110.85" transform="translate(183.915 121.77)" fill="none" stroke="#003188" stroke-linecap="round" stroke-linejoin="round" stroke-miterlimit="10" stroke-width="0.9"/>
    <path id="Path-125" data-name="Path" d="M.075,0V110.85" transform="translate(193.815 121.77)" fill="none" stroke="#003188" stroke-linecap="round" stroke-linejoin="round" stroke-miterlimit="10" stroke-width="0.9"/>
    <path id="Path-126" data-name="Path" d="M0,0A12.3,12.3,0,0,0,8.325.135" transform="translate(184.515 233.535)" fill="none" stroke="#003188" stroke-linecap="round" stroke-linejoin="round" stroke-miterlimit="10" stroke-width="0.9"/>
    <path id="Path-127" data-name="Path" d="M28.95.015C39.51.345,47.4,1.665,47.4,3.24c0,1.83-10.605,3.3-23.7,3.3S0,5.07,0,3.24C0,1.635,8.19.3,19.05,0" transform="translate(164.94 231.03)" fill="none" stroke="#003188" stroke-linecap="round" stroke-linejoin="round" stroke-miterlimit="10" stroke-width="0.9"/>
    <path id="Path-128" data-name="Path" d="M45.48,0c-3.6,1.185-13.215,2.01-23.04,2.01C13.125,2.01,3.87,1.26,0,.18" transform="translate(166.2 240.195)" fill="none" stroke="#003188" stroke-linecap="round" stroke-linejoin="round" stroke-miterlimit="10" stroke-width="0.9"/>
    <path id="Path-129" data-name="Path" d="M.115,0A29.976,29.976,0,0,0,.1,4.185" transform="translate(164.405 235.245)" fill="none" stroke="#003188" stroke-linecap="round" stroke-linejoin="round" stroke-miterlimit="10" stroke-width="0.9"/>
    <path id="Path-130" data-name="Path" d="M.127,0C.1,1.185.068,2.37.023,3.555" transform="translate(212.783 235.56)" fill="none" stroke="#003188" stroke-linecap="round" stroke-linejoin="round" stroke-miterlimit="10" stroke-width="0.9"/>
    <path id="Path-131" data-name="Path" d="M.075,0V46.65" transform="translate(186.315 147.72)" fill="none" stroke="#003188" stroke-linecap="round" stroke-linejoin="round" stroke-miterlimit="10" stroke-width="0.9"/>
    <path id="Path-132" data-name="Path" d="M.075,0V6.3" transform="translate(191.715 208.92)" fill="none" stroke="#003188" stroke-linecap="round" stroke-linejoin="round" stroke-miterlimit="10" stroke-width="0.9"/>
    <path id="Path-133" data-name="Path" d="M0,0,2.25,16.05" transform="translate(181.74 93.72)" fill="none" stroke="#003188" stroke-linecap="round" stroke-linejoin="round" stroke-miterlimit="10" stroke-width="0.9"/>
    <path id="Path-134" data-name="Path" d="M2.385,0,0,16.05" transform="translate(194.655 93.72)" fill="none" stroke="#003188" stroke-linecap="round" stroke-linejoin="round" stroke-miterlimit="10" stroke-width="0.9"/>
    <path id="Path-135" data-name="Path" d="M0,0H0A21.813,21.813,0,0,0,10.68,0h0" transform="translate(183.975 109.77)" fill="none" stroke="#003188" stroke-linecap="round" stroke-linejoin="round" stroke-miterlimit="10" stroke-width="0.9"/>
    <path id="Path-136" data-name="Path" d="M0,0H0A44.33,44.33,0,0,0,15.285,0h0" transform="translate(181.755 93.57)" fill="none" stroke="#003188" stroke-linecap="round" stroke-linejoin="round" stroke-miterlimit="10" stroke-width="0.9"/>
    <path id="Path-137" data-name="Path" d="M.733,18.045A25.024,25.024,0,0,1,3.088,0" transform="translate(187.037 68.715)" fill="none" stroke="#003188" stroke-linecap="round" stroke-linejoin="round" stroke-miterlimit="10" stroke-width="0.9"/>
    <path id="Path-138" data-name="Path" d="M0,0A20.616,20.616,0,0,1,3.48,10.035a32.712,32.712,0,0,1-.975,10.65" transform="translate(190.35 68.595)" fill="none" stroke="#003188" stroke-linecap="round" stroke-linejoin="round" stroke-miterlimit="10" stroke-width="0.9"/>
    <path id="Path-139" data-name="Path" d="M.54,11.19Q0,5.61,0,0" transform="translate(189.87 78.975)" fill="none" stroke="#003188" stroke-linecap="round" stroke-linejoin="round" stroke-miterlimit="10" stroke-width="0.9"/>
    <path id="Path-140" data-name="Path" d="M0,12.8A16.521,16.521,0,0,1,6.96,3.78,26.032,26.032,0,0,1,17.865,0C13.755,5.19,9.33,10.62,3.09,12.885" transform="translate(193.275 78.09)" fill="none" stroke="#003188" stroke-linecap="round" stroke-linejoin="round" stroke-miterlimit="10" stroke-width="0.9"/>
    <path id="Path-141" data-name="Path" d="M0,4.62A29.093,29.093,0,0,1,6.255,0" transform="translate(198.09 82.725)" fill="none" stroke="#003188" stroke-linecap="round" stroke-linejoin="round" stroke-miterlimit="10" stroke-width="0.9"/>
    <path id="Path-142" data-name="Path" d="M16.215,14.73A24.828,24.828,0,0,1,8.34,10.62C4.86,7.7,2.97,3.4,0,0A37.557,37.557,0,0,1,8.685,3.12a33.215,33.215,0,0,1,4.9,2.58,19.91,19.91,0,0,1,7.065,9.2" transform="translate(168.66 77.625)" fill="none" stroke="#003188" stroke-linecap="round" stroke-linejoin="round" stroke-miterlimit="10" stroke-width="0.9"/>
    <path id="Path-143" data-name="Path" d="M0,0A147.735,147.735,0,0,1,11.55,10.11" transform="translate(176.415 82.635)" fill="none" stroke="#003188" stroke-linecap="round" stroke-linejoin="round" stroke-miterlimit="10" stroke-width="0.9"/>
    <path id="Path-144" data-name="Path" d="M0,0A22.817,22.817,0,0,0,9.45.405" transform="translate(184.11 95.265)" fill="none" stroke="#003188" stroke-linecap="round" stroke-linejoin="round" stroke-miterlimit="10" stroke-width="0.9"/>
    <path id="Path-145" data-name="Path" d="M0,0A11.648,11.648,0,0,0,2.97.255" transform="translate(186.54 108.78)" fill="none" stroke="#003188" stroke-linecap="round" stroke-linejoin="round" stroke-miterlimit="10" stroke-width="0.9"/>
    <path id="Path-146" data-name="Path" d="M.112,0C.007-.014.022.2.112.166" transform="translate(203.768 238.889)" fill="none" stroke="#003188" stroke-linecap="round" stroke-linejoin="round" stroke-miterlimit="10" stroke-width="0.9"/>
    <path id="Path-147" data-name="Path" d="M10.187,2.279v-.45C10.2.419,10.022.224,8.6.074H8.552C6.2-.181.032.284,0,.524c-.015.12.075,3.93.075,3.93a9.835,9.835,0,0,0,8.28,1.125,9.778,9.778,0,0,0,1.44-.54A13.141,13.141,0,0,0,10.187,2.279Z" transform="translate(183.838 121.456)" fill="#003188"/>
    <path id="Path-148" data-name="Path" d="M0,.548A3.633,3.633,0,0,1,3.12.2,8.312,8.312,0,0,0,4.14.578c1.275.3,2.745-.615,3.84.105" transform="translate(0.15 245.272)" fill="none" stroke="#003188" stroke-linecap="round" stroke-linejoin="round" stroke-miterlimit="10" stroke-width="0.9"/>
    <path id="Path-149" data-name="Path" d="M0,.566A5.886,5.886,0,0,1,4.725.611,3.154,3.154,0,0,0,5.91,1,2.768,2.768,0,0,0,6.915.7a9.272,9.272,0,0,1,6.6-.18" transform="translate(37.14 241.489)" fill="none" stroke="#003188" stroke-linecap="round" stroke-linejoin="round" stroke-miterlimit="10" stroke-width="0.9"/>
    <path id="Path-150" data-name="Path" d="M0,.575A7.825,7.825,0,0,1,5.655.485" transform="translate(70.815 246.805)" fill="none" stroke="#003188" stroke-linecap="round" stroke-linejoin="round" stroke-miterlimit="10" stroke-width="0.9"/>
    <path id="Path-151" data-name="Path" d="M0,.362A6.328,6.328,0,0,1,3.42.137" transform="translate(121.815 248.743)" fill="none" stroke="#003188" stroke-linecap="round" stroke-linejoin="round" stroke-miterlimit="10" stroke-width="0.9"/>
    <path id="Path-152" data-name="Path" d="M0,.746A10.678,10.678,0,0,1,7.35.566,5.91,5.91,0,0,0,8.835.971,6.088,6.088,0,0,0,10.815.6a9.441,9.441,0,0,1,5.58.24" transform="translate(133.14 244.099)" fill="none" stroke="#003188" stroke-linecap="round" stroke-linejoin="round" stroke-miterlimit="10" stroke-width="0.9"/>
    <path id="Path-153" data-name="Path" d="M0,.084A9.111,9.111,0,0,1,2.925.159" transform="translate(145.02 237.021)" fill="none" stroke="#003188" stroke-linecap="round" stroke-linejoin="round" stroke-miterlimit="10" stroke-width="0.9"/>
    <path id="Path-154" data-name="Path" d="M0,.589A4.457,4.457,0,0,1,4.08.409" transform="translate(74.865 229.076)" fill="none" stroke="#003188" stroke-linecap="round" stroke-linejoin="round" stroke-miterlimit="10" stroke-width="0.9"/>
    <path id="Path-155" data-name="Path" d="M.072,0a1.13,1.13,0,0,0,.21,1.14.99.99,0,0,0,.6-.6A.424.424,0,0,0,.312.3" transform="translate(34.683 136.47)" fill="none" stroke="#003188" stroke-linecap="round" stroke-linejoin="round" stroke-miterlimit="10" stroke-width="0.9"/>
    <path id="Path-156" data-name="Path" d="M.06,0C.075.09.075.18.09.27" transform="translate(160.92 139.77)" fill="none" stroke="#003188" stroke-linecap="round" stroke-linejoin="round" stroke-miterlimit="10" stroke-width="0.9"/>
    <path id="Path-157" data-name="Path" d="M.42,0A.705.705,0,0,0,.045.885.287.287,0,0,0,.375.54" transform="translate(217.32 169.56)" fill="none" stroke="#003188" stroke-linecap="round" stroke-linejoin="round" stroke-miterlimit="10" stroke-width="0.9"/>
    <path id="Path-158" data-name="Path" d="M.187.057A.306.306,0,0,0,.142.6a.811.811,0,0,0,.54-.54c-.27-.21-.72.21-.54.5" transform="translate(149.768 51.573)" fill="none" stroke="#003188" stroke-linecap="round" stroke-linejoin="round" stroke-miterlimit="10" stroke-width="0.9"/>
    <path id="Path-159" data-name="Path" d="M.219,0a.405.405,0,0,0,0,.72c.1-.255.24-.6,0-.72" transform="translate(49.101 11.565)" fill="none" stroke="#003188" stroke-linecap="round" stroke-linejoin="round" stroke-miterlimit="10" stroke-width="0.9"/>
  </g>
  <g id="color_outline" transform="translate(117.75 59.4)">
    <g id="Group-2" data-name="Group">
      <path id="Path-160" data-name="Path" d="M0,0A325.469,325.469,0,0,1,3.36,37.2" transform="translate(0.105 11.295)" fill="none" stroke="#9a4aff" stroke-linecap="round" stroke-linejoin="round" stroke-miterlimit="10" stroke-width="0.9"/>
      <path id="Path-161" data-name="Path" d="M0,.121a152.762,152.762,0,0,1,72.54,15.15" transform="translate(0.375 9.044)" fill="none" stroke="#9a4aff" stroke-linecap="round" stroke-linejoin="round" stroke-miterlimit="10" stroke-width="0.9"/>
      <path id="Path-162" data-name="Path" d="M0,17.145A37.106,37.106,0,0,1,7.125,13.29,164.463,164.463,0,0,1,58.515,0" transform="translate(73.785 6.705)" fill="none" stroke="#9a4aff" stroke-linecap="round" stroke-linejoin="round" stroke-miterlimit="10" stroke-width="0.9"/>
      <path id="Path-163" data-name="Path" d="M2.277,0A535.438,535.438,0,0,0,.492,72.255" transform="translate(70.893 24.72)" fill="none" stroke="#9a4aff" stroke-linecap="round" stroke-linejoin="round" stroke-miterlimit="10" stroke-width="0.9"/>
      <path id="Path-164" data-name="Path" d="M6.258,0C-.117,14.07-.1,30.075.033,45.525" transform="translate(127.677 6.6)" fill="none" stroke="#9a4aff" stroke-linecap="round" stroke-linejoin="round" stroke-miterlimit="10" stroke-width="0.9"/>
      <path id="Path-165" data-name="Path" d="M.312,0Q.177,9.585.027,19.185c-.06,4.23-.12,8.535,1.05,12.6" transform="translate(126.573 66.915)" fill="none" stroke="#9a4aff" stroke-linecap="round" stroke-linejoin="round" stroke-miterlimit="10" stroke-width="0.9"/>
      <path id="Path-166" data-name="Path" d="M0,2.265A41.71,41.71,0,0,0,9.915,0" transform="translate(117.48 100.08)" fill="none" stroke="#9a4aff" stroke-linecap="round" stroke-linejoin="round" stroke-miterlimit="10" stroke-width="0.9"/>
      <path id="Path-167" data-name="Path" d="M3.12,0A229.819,229.819,0,0,1,0,42.57" transform="translate(0.645 61.41)" fill="none" stroke="#9a4aff" stroke-linecap="round" stroke-linejoin="round" stroke-miterlimit="10" stroke-width="0.9"/>
      <path id="Path-168" data-name="Path" d="M0,.128C9.15-.682,18.165,2.6,27.345,3.113c5.64.315,11.4-.4,16.875.975" transform="translate(3.15 104.392)" fill="none" stroke="#9a4aff" stroke-linecap="round" stroke-linejoin="round" stroke-miterlimit="10" stroke-width="0.9"/>
      <path id="Path-169" data-name="Path" d="M0,22.275c3.09-3.42,7.38-5.46,11.55-7.41C24.36,8.9,37.32,2.865,51.165,0c.315,2.3.63,4.605.945,6.9" transform="translate(74.16 0.03)" fill="none" stroke="#9a4aff" stroke-linecap="round" stroke-linejoin="round" stroke-miterlimit="10" stroke-width="0.9"/>
      <path id="Path-170" data-name="Path" d="M.46,3.9A10.115,10.115,0,0,1,.04,0" transform="translate(6.935 3.42)" fill="none" stroke="#9a4aff" stroke-linecap="round" stroke-linejoin="round" stroke-miterlimit="10" stroke-width="0.9"/>
      <path id="Path-171" data-name="Path" d="M0,0c18.21-.18,49.365,11.37,64.65,21.255" transform="translate(8.19 3.013)" fill="none" stroke="#9a4aff" stroke-linecap="round" stroke-linejoin="round" stroke-miterlimit="10" stroke-width="0.9"/>
      <path id="Path-172" data-name="Path" d="M0,9.99C13.4,9.33,25.635,2.19,38.865,0" transform="translate(81.975 17.4)" fill="none" stroke="#9a4aff" stroke-linecap="round" stroke-linejoin="round" stroke-miterlimit="10" stroke-width="0.9"/>
      <path id="Path-173" data-name="Path" d="M0,9.57A325.223,325.223,0,0,1,36.285,0" transform="translate(84.045 24.81)" fill="none" stroke="#9a4aff" stroke-linecap="round" stroke-linejoin="round" stroke-miterlimit="10" stroke-width="0.9"/>
      <path id="Path-174" data-name="Path" d="M0,3.15A43.1,43.1,0,0,1,11.16,0" transform="translate(80.19 50.865)" fill="none" stroke="#9a4aff" stroke-linecap="round" stroke-linejoin="round" stroke-miterlimit="10" stroke-width="0.9"/>
      <path id="Path-175" data-name="Path" d="M0,2.52A81.322,81.322,0,0,1,10.35,0" transform="translate(79.95 55.935)" fill="none" stroke="#9a4aff" stroke-linecap="round" stroke-linejoin="round" stroke-miterlimit="10" stroke-width="0.9"/>
      <path id="Path-176" data-name="Path" d="M0,2.43,8.64,0" transform="translate(80.94 62.07)" fill="none" stroke="#9a4aff" stroke-linecap="round" stroke-linejoin="round" stroke-miterlimit="10" stroke-width="0.9"/>
      <path id="Path-177" data-name="Path" d="M0,2.82A37.375,37.375,0,0,1,10.005,0" transform="translate(79.605 69.075)" fill="none" stroke="#9a4aff" stroke-linecap="round" stroke-linejoin="round" stroke-miterlimit="10" stroke-width="0.9"/>
      <path id="Path-178" data-name="Path" d="M0,2.16A34.5,34.5,0,0,1,7.59,0" transform="translate(80.61 74.85)" fill="none" stroke="#9a4aff" stroke-linecap="round" stroke-linejoin="round" stroke-miterlimit="10" stroke-width="0.9"/>
      <path id="Path-179" data-name="Path" d="M0,1.425A46,46,0,0,0,7.95,0" transform="translate(102.405 47.595)" fill="none" stroke="#9a4aff" stroke-linecap="round" stroke-linejoin="round" stroke-miterlimit="10" stroke-width="0.9"/>
      <path id="Path-180" data-name="Path" d="M0,2.2A37.608,37.608,0,0,1,8.955,0" transform="translate(101.745 53.775)" fill="none" stroke="#9a4aff" stroke-linecap="round" stroke-linejoin="round" stroke-miterlimit="10" stroke-width="0.9"/>
      <path id="Path-181" data-name="Path" d="M0,2.13C2.88,1.425,5.76.7,8.64,0" transform="translate(102.075 59.4)" fill="none" stroke="#9a4aff" stroke-linecap="round" stroke-linejoin="round" stroke-miterlimit="10" stroke-width="0.9"/>
      <path id="Path-182" data-name="Path" d="M0,2.505A44.051,44.051,0,0,1,8.625,0" transform="translate(101.385 65.88)" fill="none" stroke="#9a4aff" stroke-linecap="round" stroke-linejoin="round" stroke-miterlimit="10" stroke-width="0.9"/>
      <path id="Path-183" data-name="Path" d="M0,1.007A14.59,14.59,0,0,1,5.535,0" transform="translate(102.75 73.558)" fill="none" stroke="#9a4aff" stroke-linecap="round" stroke-linejoin="round" stroke-miterlimit="10" stroke-width="0.9"/>
      <path id="Path-184" data-name="Path" d="M10.875,0A30.063,30.063,0,0,0,0,9.93" transform="translate(112.29 71.13)" fill="none" stroke="#9a4aff" stroke-linecap="round" stroke-linejoin="round" stroke-miterlimit="10" stroke-width="0.9"/>
      <path id="Path-185" data-name="Path" d="M5.865,0A32.1,32.1,0,0,0,0,8.34" transform="translate(115.875 75.24)" fill="none" stroke="#9a4aff" stroke-linecap="round" stroke-linejoin="round" stroke-miterlimit="10" stroke-width="0.9"/>
      <path id="Path-186" data-name="Path" d="M0,0A48.678,48.678,0,0,1,14.94,3.285" transform="translate(41.175 43.455)" fill="none" stroke="#9a4aff" stroke-linecap="round" stroke-linejoin="round" stroke-miterlimit="10" stroke-width="0.9"/>
      <path id="Path-187" data-name="Path" d="M0,0A117.2,117.2,0,0,1,14.58,4.365" transform="translate(40.485 49.695)" fill="none" stroke="#9a4aff" stroke-linecap="round" stroke-linejoin="round" stroke-miterlimit="10" stroke-width="0.9"/>
      <path id="Path-188" data-name="Path" d="M0,0A62.5,62.5,0,0,1,13.47,2.58" transform="translate(39.795 59.61)" fill="none" stroke="#9a4aff" stroke-linecap="round" stroke-linejoin="round" stroke-miterlimit="10" stroke-width="0.9"/>
      <path id="Path-189" data-name="Path" d="M0,0C4.155.8,8.31,1.575,12.465,2.37" transform="translate(40.125 67.74)" fill="none" stroke="#9a4aff" stroke-linecap="round" stroke-linejoin="round" stroke-miterlimit="10" stroke-width="0.9"/>
      <path id="Path-190" data-name="Path" d="M0,0A53.726,53.726,0,0,1,10.035,1.035" transform="translate(42.21 75.975)" fill="none" stroke="#9a4aff" stroke-linecap="round" stroke-linejoin="round" stroke-miterlimit="10" stroke-width="0.9"/>
      <path id="Path-191" data-name="Path" d="M0,3.42A39.126,39.126,0,0,1,12.315,0" transform="translate(13.455 47.67)" fill="none" stroke="#9a4aff" stroke-linecap="round" stroke-linejoin="round" stroke-miterlimit="10" stroke-width="0.9"/>
      <path id="Path-192" data-name="Path" d="M0,0A20.307,20.307,0,0,1,7.845,3.075" transform="translate(14.865 55.05)" fill="none" stroke="#9a4aff" stroke-linecap="round" stroke-linejoin="round" stroke-miterlimit="10" stroke-width="0.9"/>
      <path id="Path-193" data-name="Path" d="M0,0A50.3,50.3,0,0,1,.39,13.995" transform="translate(11.1 18.06)" fill="none" stroke="#9a4aff" stroke-linecap="round" stroke-linejoin="round" stroke-miterlimit="10" stroke-width="0.9"/>
      <path id="Path-194" data-name="Path" d="M0,0C7.56.96,15.09,2.25,22.545,3.84" transform="translate(12.015 32.955)" fill="none" stroke="#9a4aff" stroke-linecap="round" stroke-linejoin="round" stroke-miterlimit="10" stroke-width="0.9"/>
      <path id="Path-195" data-name="Path" d="M0,0A98.286,98.286,0,0,1,23.565,4.3c.1,4.7.21,9.375.3,14.07" transform="translate(11.55 17.97)" fill="none" stroke="#9a4aff" stroke-linecap="round" stroke-linejoin="round" stroke-miterlimit="10" stroke-width="0.9"/>
      <path id="Path-196" data-name="Path" d="M2.88,0A10.851,10.851,0,0,0,0,3.3" transform="translate(28.59 25.185)" fill="none" stroke="#9a4aff" stroke-linecap="round" stroke-linejoin="round" stroke-miterlimit="10" stroke-width="0.9"/>
      <path id="Path-197" data-name="Path" d="M2.13,0C1.425.8.7,1.575,0,2.37" transform="translate(29.325 27.78)" fill="none" stroke="#9a4aff" stroke-linecap="round" stroke-linejoin="round" stroke-miterlimit="10" stroke-width="0.9"/>
      <path id="Path-198" data-name="Path" d="M0,5.61A22.538,22.538,0,0,1,7.77,0" transform="translate(4.965 95.16)" fill="none" stroke="#9a4aff" stroke-linecap="round" stroke-linejoin="round" stroke-miterlimit="10" stroke-width="0.9"/>
      <path id="Path-199" data-name="Path" d="M0,.758A23.992,23.992,0,0,1,10.17.368" transform="translate(7.5 101.137)" fill="none" stroke="#9a4aff" stroke-linecap="round" stroke-linejoin="round" stroke-miterlimit="10" stroke-width="0.9"/>
    </g>
  </g>
</svg>
