<?xml version="1.0" encoding="UTF-8"?>
<svg width="18px" height="18px" viewBox="0 0 18 18" version="1.1" xmlns="http://www.w3.org/2000/svg" xmlns:xlink="http://www.w3.org/1999/xlink">
    <title>Style Normal@1x</title>
    <g id="Page-1" stroke="none" stroke-width="1" fill="none" fill-rule="evenodd">
        <g id="Style-Normal" fill-rule="nonzero">
            <path d="M17.5999999,8.79999995 C17.5999999,13.6601236 13.6601236,17.5999999 8.79999995,17.5999999 C3.9398763,17.5999999 0,13.6601236 0,8.79999995 C0,3.9398763 3.9398763,0 8.79999995,0 C13.6601236,0 17.5999999,3.9398763 17.5999999,8.79999995 Z" id="Path" fill="#5153FF"></path>
            <g id="Group" transform="translate(3.520000, 4.400000)" fill="#00EFD1">
                <path d="M7.47999996,7.03999996 C8.05421037,7.03999996 8.54283796,7.40672647 8.72442397,7.91872075 L10.1199999,7.91999996 C10.3630052,7.91999996 10.5599999,8.11699467 10.5599999,8.35999995 C10.5599999,8.60300524 10.3630052,8.79999995 10.1199999,8.79999995 L8.7247808,8.80027177 C8.54347874,9.31279233 8.0545869,9.67999995 7.47999996,9.67999995 C6.90541301,9.67999995 6.41652118,9.31279233 6.23521912,8.80027177 L0.439999998,8.79999995 C0.196994709,8.79999995 -2.57515863e-17,8.60300524 0,8.35999995 C-8.52707161e-17,8.11699467 0.196994709,7.91999996 0.439999998,7.91999996 L6.23557595,7.91872075 C6.41716196,7.40672647 6.90578955,7.03999996 7.47999996,7.03999996 Z M3.07999998,3.51999998 C3.6542104,3.51999998 4.14283798,3.88672649 4.324424,4.39872077 L10.1199999,4.39999998 C10.3630052,4.39999998 10.5599999,4.59699469 10.5599999,4.83999997 C10.5599999,5.08300526 10.3630052,5.27999997 10.1199999,5.27999997 L4.32478082,5.28027179 C4.14347877,5.79279235 3.65458693,6.15999997 3.07999998,6.15999997 C2.50541304,6.15999997 2.0165212,5.79279235 1.83521915,5.28027179 L0.439999998,5.27999997 C0.196994709,5.27999997 -2.57515863e-17,5.08300526 0,4.83999997 C-8.52707161e-17,4.59699469 0.196994709,4.39999998 0.439999998,4.39999998 L1.83557597,4.39872077 C2.01716199,3.88672649 2.50578957,3.51999998 3.07999998,3.51999998 Z M7.47999996,0 C8.05421037,0 8.54283796,0.366726509 8.72442397,0.878720791 L10.1199999,0.879999995 C10.3630052,0.879999995 10.5599999,1.0769947 10.5599999,1.31999999 C10.5599999,1.56300528 10.3630052,1.75999999 10.1199999,1.75999999 L8.7247808,1.76027181 C8.54347874,2.27279237 8.0545869,2.63999999 7.47999996,2.63999999 C6.90541301,2.63999999 6.41652118,2.27279237 6.23521912,1.76027181 L0.439999998,1.75999999 C0.196994709,1.75999999 -2.57515863e-17,1.56300528 0,1.31999999 C-8.52707161e-17,1.0769947 0.196994709,0.879999995 0.439999998,0.879999995 L6.23557595,0.878720791 C6.41716196,0.366726509 6.90578955,0 7.47999996,0 Z" id="Combined-Shape"></path>
            </g>
        </g>
    </g>
</svg>