<?xml version="1.0" encoding="UTF-8"?>
<svg width="20px" height="20px" viewBox="0 0 20 20" version="1.1" xmlns="http://www.w3.org/2000/svg" xmlns:xlink="http://www.w3.org/1999/xlink">
    <!-- Generator: Sketch 60.1 (88133) - https://sketch.com -->
    <title>STYLE SETTINGS@1.5x</title>
    <desc>Created with Sketch.</desc>
    <g id="Page-1" stroke="none" stroke-width="1" fill="none" fill-rule="evenodd">
        <g id="STYLE-SETTINGS" fill-rule="nonzero">
            <path d="M20,10 C20,15.5228678 15.5228678,20 10,20 C4.47713219,20 0,15.5228678 0,10 C0,4.47713219 4.47713219,0 10,0 C15.5228678,0 20,4.47713219 20,10 Z" id="Path" fill="#5153FF"></path>
            <g id="Group" transform="translate(4.000000, 5.000000)" fill="#00EFD1">
                <path d="M8.5,8 C9.15294978,8 9.70851575,8.41729426 9.91453322,8.99971806 L11.5,9 C11.7761424,9 12,9.22385763 12,9.5 C12,9.77614237 11.7761424,10 11.5,10 L9.91417808,10.0012848 C9.70787787,10.5831847 9.15257495,11 8.5,11 C7.84742505,11 7.29212213,10.5831847 7.08582192,10.0012848 L0.5,10 C0.223857625,10 3.38176876e-17,9.77614237 0,9.5 C-3.38176876e-17,9.22385763 0.223857625,9 0.5,9 L7.08546678,8.99971806 C7.29148425,8.41729426 7.84705022,8 8.5,8 Z M3.5,4 C4.15294978,4 4.70851575,4.41729426 4.91453322,4.99971806 L11.5,5 C11.7761424,5 12,5.22385763 12,5.5 C12,5.77614237 11.7761424,6 11.5,6 L4.91417808,6.0012848 C4.70787787,6.5831847 4.15257495,7 3.5,7 C2.84742505,7 2.29212213,6.5831847 2.08582192,6.0012848 L0.5,6 C0.223857625,6 3.38176876e-17,5.77614237 0,5.5 C-3.38176876e-17,5.22385763 0.223857625,5 0.5,5 L2.08546678,4.99971806 C2.29148425,4.41729426 2.84705022,4 3.5,4 Z M8.5,0 C9.15294978,0 9.70851575,0.417294256 9.91453322,0.99971806 L11.5,1 C11.7761424,1 12,1.22385763 12,1.5 C12,1.77614237 11.7761424,2 11.5,2 L9.91417808,2.0012848 C9.70787787,2.5831847 9.15257495,3 8.5,3 C7.84742505,3 7.29212213,2.5831847 7.08582192,2.0012848 L0.5,2 C0.223857625,2 3.38176876e-17,1.77614237 0,1.5 C-3.38176876e-17,1.22385763 0.223857625,1 0.5,1 L7.08546678,0.99971806 C7.29148425,0.417294256 7.84705022,0 8.5,0 Z" id="Combined-Shape"></path>
            </g>
        </g>
    </g>
</svg>