<svg xmlns="http://www.w3.org/2000/svg" viewBox="0 0 18 18"><defs><style>.cls-1{fill:#e5e5e5;}</style></defs><title>Version 2</title><g id="Layer_2" data-name="Layer 2"><g id="Layer_1-2" data-name="Layer 1"><rect class="cls-1" width="18" height="18" rx="2.01" ry="2.01"/><path d="M15.78,9.82l-3.37,3.25a5.75,5.75,0,1,1-1.9-9.4L11,2.5A7,7,0,1,0,13.3,14l3.37-3.26Z"/><path d="M4.72,5.38A5.12,5.12,0,0,0,12,12.63l4.6-4.45-.9-.89-4.59,4.44A3.86,3.86,0,1,1,8.34,5.14a3.8,3.8,0,0,1,2.71,1.12L6.3,10.87l.09.09a2.5,2.5,0,0,0,1,.63l5.38-5.21a4.75,4.75,0,0,0-.79-1h0a5.06,5.06,0,0,0-3.62-1.5A5.13,5.13,0,0,0,4.72,5.38Z"/></g></g></svg>