<?xml version="1.0" encoding="UTF-8"?>
<svg width="330px" height="265px" viewBox="0 0 330 265" version="1.1" xmlns="http://www.w3.org/2000/svg" xmlns:xlink="http://www.w3.org/1999/xlink">
    <title>Shape 29</title>
    <defs>
        <path d="M1.03092144e-13,62.2723249 C1.03092144e-13,96.6657419 27.8803587,124.546101 62.2723249,124.546101 L62.2723249,124.546101 C96.664291,124.546101 124.54465,96.6657419 124.54465,62.2723249 L124.54465,62.2723249 C124.54465,27.8803587 96.664291,2.57730359e-13 62.2723249,2.57730359e-13 L62.2723249,2.57730359e-13 C27.8803587,2.57730359e-13 1.03092144e-13,27.8803587 1.03092144e-13,62.2723249" id="path-1"></path>
    </defs>
    <g id="Page-1" stroke="none" stroke-width="1" fill="none" fill-rule="evenodd">
        <g id="Desktop-HD" transform="translate(-3912.000000, -3351.000000)">
            <g id="Shape-29" transform="translate(3912.000000, 3351.000000)">
                <g id="Group" transform="translate(0.000000, 140.000000)">
                    <mask id="mask-2" fill="white">
                        <use xlink:href="#path-1"></use>
                    </mask>
                    <g id="Clip-2"></g>
                    <path d="M129.961453,129.142647 C130.57823,129.142647 131.077525,129.641942 131.077525,130.258718 C131.077525,130.875495 130.57823,131.37479 129.961453,131.37479 C129.346012,131.37479 128.845382,130.875495 128.845382,130.258718 C128.845382,129.641942 129.346012,129.142647 129.961453,129.142647 Z M120.839132,129.142647 C121.455908,129.142647 121.955203,129.641942 121.955203,130.258718 C121.955203,130.875495 121.455908,131.37479 120.839132,131.37479 C120.22369,131.37479 119.72306,130.875495 119.72306,130.258718 C119.72306,129.641942 120.22369,129.142647 120.839132,129.142647 Z M111.71681,129.142647 C112.333586,129.142647 112.832881,129.641942 112.832881,130.258718 C112.832881,130.875495 112.333586,131.37479 111.71681,131.37479 C111.101369,131.37479 110.600739,130.875495 110.600739,130.258718 C110.600739,129.641942 111.101369,129.142647 111.71681,129.142647 Z M102.594489,129.142647 C103.211265,129.142647 103.71056,129.641942 103.71056,130.258718 C103.71056,130.875495 103.211265,131.37479 102.594489,131.37479 C101.979047,131.37479 101.478417,130.875495 101.478417,130.258718 C101.478417,129.641942 101.979047,129.142647 102.594489,129.142647 Z M93.4721669,129.142647 C94.0889433,129.142647 94.5882384,129.641942 94.5882384,130.258718 C94.5882384,130.875495 94.0889433,131.37479 93.4721669,131.37479 C92.8567256,131.37479 92.3560955,130.875495 92.3560955,130.258718 C92.3560955,129.641942 92.8567256,129.142647 93.4721669,129.142647 Z M84.3498454,129.142647 C84.9666217,129.142647 85.4659168,129.641942 85.4659168,130.258718 C85.4659168,130.875495 84.9666217,131.37479 84.3498454,131.37479 C83.7344041,131.37479 83.233774,130.875495 83.233774,130.258718 C83.233774,129.641942 83.7344041,129.142647 84.3498454,129.142647 Z M75.2275238,129.142647 C75.8443001,129.142647 76.3435952,129.641942 76.3435952,130.258718 C76.3435952,130.875495 75.8443001,131.37479 75.2275238,131.37479 C74.6120825,131.37479 74.1114524,130.875495 74.1114524,130.258718 C74.1114524,129.641942 74.6120825,129.142647 75.2275238,129.142647 Z M66.1052023,129.142647 C66.7219786,129.142647 67.2212737,129.641942 67.2212737,130.258718 C67.2212737,130.875495 66.7219786,131.37479 66.1052023,131.37479 C65.489761,131.37479 64.9891308,130.875495 64.9891308,130.258718 C64.9891308,129.641942 65.489761,129.142647 66.1052023,129.142647 Z M56.9828807,129.142647 C57.599657,129.142647 58.0989521,129.641942 58.0989521,130.258718 C58.0989521,130.875495 57.599657,131.37479 56.9828807,131.37479 C56.3674394,131.37479 55.8668093,130.875495 55.8668093,130.258718 C55.8668093,129.641942 56.3674394,129.142647 56.9828807,129.142647 Z M47.8605591,129.142647 C48.4773354,129.142647 48.9766306,129.641942 48.9766306,130.258718 C48.9766306,130.875495 48.4773354,131.37479 47.8605591,131.37479 C47.2451178,131.37479 46.7444877,130.875495 46.7444877,130.258718 C46.7444877,129.641942 47.2451178,129.142647 47.8605591,129.142647 Z M38.7382376,129.142647 C39.3550139,129.142647 39.854309,129.641942 39.854309,130.258718 C39.854309,130.875495 39.3550139,131.37479 38.7382376,131.37479 C38.1227963,131.37479 37.6221661,130.875495 37.6221661,130.258718 C37.6221661,129.641942 38.1227963,129.142647 38.7382376,129.142647 Z M29.615916,129.142647 C30.2326923,129.142647 30.7319874,129.641942 30.7319874,130.258718 C30.7319874,130.875495 30.2326923,131.37479 29.615916,131.37479 C29.0004747,131.37479 28.4998446,130.875495 28.4998446,130.258718 C28.4998446,129.641942 29.0004747,129.142647 29.615916,129.142647 Z M20.4935944,129.142647 C21.1103708,129.142647 21.6096659,129.641942 21.6096659,130.258718 C21.6096659,130.875495 21.1103708,131.37479 20.4935944,131.37479 C19.8781531,131.37479 19.377523,130.875495 19.377523,130.258718 C19.377523,129.641942 19.8781531,129.142647 20.4935944,129.142647 Z M11.3712729,129.142647 C11.9880492,129.142647 12.4873443,129.641942 12.4873443,130.258718 C12.4873443,130.875495 11.9880492,131.37479 11.3712729,131.37479 C10.7558316,131.37479 10.2552015,130.875495 10.2552015,130.258718 C10.2552015,129.641942 10.7558316,129.142647 11.3712729,129.142647 Z M66.3408046,120.020325 C66.9575809,120.020325 67.456876,120.519621 67.456876,121.136397 C67.456876,121.753173 66.9575809,122.252468 66.3408046,122.252468 C65.7253633,122.252468 65.2247332,121.753173 65.2247332,121.136397 C65.2247332,120.519621 65.7253633,120.020325 66.3408046,120.020325 Z M121.074734,120.020325 C121.69151,120.020325 122.190805,120.519621 122.190805,121.136397 C122.190805,121.753173 121.69151,122.252468 121.074734,122.252468 C120.459293,122.252468 119.958663,121.753173 119.958663,121.136397 C119.958663,120.519621 120.459293,120.020325 121.074734,120.020325 Z M57.218483,120.020325 C57.8352593,120.020325 58.3345544,120.519621 58.3345544,121.136397 C58.3345544,121.753173 57.8352593,122.252468 57.218483,122.252468 C56.6030417,122.252468 56.1024116,121.753173 56.1024116,121.136397 C56.1024116,120.519621 56.6030417,120.020325 57.218483,120.020325 Z M93.7077693,120.020325 C94.3245456,120.020325 94.8238407,120.519621 94.8238407,121.136397 C94.8238407,121.753173 94.3245456,122.252468 93.7077693,122.252468 C93.092328,122.252468 92.5916978,121.753173 92.5916978,121.136397 C92.5916978,120.519621 93.092328,120.020325 93.7077693,120.020325 Z M48.0961615,120.020325 C48.7129378,120.020325 49.2122329,120.519621 49.2122329,121.136397 C49.2122329,121.753173 48.7129378,122.252468 48.0961615,122.252468 C47.4807202,122.252468 46.98009,121.753173 46.98009,121.136397 C46.98009,120.519621 47.4807202,120.020325 48.0961615,120.020325 Z M111.952412,120.020325 C112.569189,120.020325 113.068484,120.519621 113.068484,121.136397 C113.068484,121.753173 112.569189,122.252468 111.952412,122.252468 C111.336971,122.252468 110.836341,121.753173 110.836341,121.136397 C110.836341,120.519621 111.336971,120.020325 111.952412,120.020325 Z M38.9738399,120.020325 C39.5906162,120.020325 40.0899113,120.519621 40.0899113,121.136397 C40.0899113,121.753173 39.5906162,122.252468 38.9738399,122.252468 C38.3583986,122.252468 37.8577685,121.753173 37.8577685,121.136397 C37.8577685,120.519621 38.3583986,120.020325 38.9738399,120.020325 Z M84.5854477,120.020325 C85.202224,120.020325 85.7015191,120.519621 85.7015191,121.136397 C85.7015191,121.753173 85.202224,122.252468 84.5854477,122.252468 C83.9700064,122.252468 83.4693763,121.753173 83.4693763,121.136397 C83.4693763,120.519621 83.9700064,120.020325 84.5854477,120.020325 Z M29.8515183,120.020325 C30.4682946,120.020325 30.9675898,120.519621 30.9675898,121.136397 C30.9675898,121.753173 30.4682946,122.252468 29.8515183,122.252468 C29.236077,122.252468 28.7354469,121.753173 28.7354469,121.136397 C28.7354469,120.519621 29.236077,120.020325 29.8515183,120.020325 Z M130.197056,120.020325 C130.813832,120.020325 131.313127,120.519621 131.313127,121.136397 C131.313127,121.753173 130.813832,122.252468 130.197056,122.252468 C129.581614,122.252468 129.080984,121.753173 129.080984,121.136397 C129.080984,120.519621 129.581614,120.020325 130.197056,120.020325 Z M20.7291968,120.020325 C21.3459731,120.020325 21.8452682,120.519621 21.8452682,121.136397 C21.8452682,121.753173 21.3459731,122.252468 20.7291968,122.252468 C20.1137555,122.252468 19.6131253,121.753173 19.6131253,121.136397 C19.6131253,120.519621 20.1137555,120.020325 20.7291968,120.020325 Z M75.4631261,120.020325 C76.0799025,120.020325 76.5791976,120.519621 76.5791976,121.136397 C76.5791976,121.753173 76.0799025,122.252468 75.4631261,122.252468 C74.8476848,122.252468 74.3470547,121.753173 74.3470547,121.136397 C74.3470547,120.519621 74.8476848,120.020325 75.4631261,120.020325 Z M11.6068752,120.020325 C12.2236515,120.020325 12.7229466,120.519621 12.7229466,121.136397 C12.7229466,121.753173 12.2236515,122.252468 11.6068752,122.252468 C10.9914339,122.252468 10.4908038,121.753173 10.4908038,121.136397 C10.4908038,120.519621 10.9914339,120.020325 11.6068752,120.020325 Z M102.830091,120.020325 C103.446867,120.020325 103.946162,120.519621 103.946162,121.136397 C103.946162,121.753173 103.446867,122.252468 102.830091,122.252468 C102.21465,122.252468 101.714019,121.753173 101.714019,121.136397 C101.714019,120.519621 102.21465,120.020325 102.830091,120.020325 Z M2.48455365,120.020325 C3.10132996,120.020325 3.60062507,120.519621 3.60062507,121.136397 C3.60062507,121.753173 3.10132996,122.252468 2.48455365,122.252468 C1.86911234,122.252468 1.36848222,121.753173 1.36848222,121.136397 C1.36848222,120.519621 1.86911234,120.020325 2.48455365,120.020325 Z M111.952412,110.898004 C112.569189,110.898004 113.068484,111.397299 113.068484,112.014075 C113.068484,112.630852 112.569189,113.130147 111.952412,113.130147 C111.336971,113.130147 110.836341,112.630852 110.836341,112.014075 C110.836341,111.397299 111.336971,110.898004 111.952412,110.898004 Z M38.9738399,110.898004 C39.5906162,110.898004 40.0899113,111.397299 40.0899113,112.014075 C40.0899113,112.630852 39.5906162,113.130147 38.9738399,113.130147 C38.3583986,113.130147 37.8577685,112.630852 37.8577685,112.014075 C37.8577685,111.397299 38.3583986,110.898004 38.9738399,110.898004 Z M102.830091,110.898004 C103.446867,110.898004 103.946162,111.397299 103.946162,112.014075 C103.946162,112.630852 103.446867,113.130147 102.830091,113.130147 C102.21465,113.130147 101.714019,112.630852 101.714019,112.014075 C101.714019,111.397299 102.21465,110.898004 102.830091,110.898004 Z M66.3408046,110.898004 C66.9575809,110.898004 67.456876,111.397299 67.456876,112.014075 C67.456876,112.630852 66.9575809,113.130147 66.3408046,113.130147 C65.7253633,113.130147 65.2247332,112.630852 65.2247332,112.014075 C65.2247332,111.397299 65.7253633,110.898004 66.3408046,110.898004 Z M29.8515183,110.898004 C30.4682946,110.898004 30.9675898,111.397299 30.9675898,112.014075 C30.9675898,112.630852 30.4682946,113.130147 29.8515183,113.130147 C29.236077,113.130147 28.7354469,112.630852 28.7354469,112.014075 C28.7354469,111.397299 29.236077,110.898004 29.8515183,110.898004 Z M93.7077693,110.898004 C94.3245456,110.898004 94.8238407,111.397299 94.8238407,112.014075 C94.8238407,112.630852 94.3245456,113.130147 93.7077693,113.130147 C93.092328,113.130147 92.5916978,112.630852 92.5916978,112.014075 C92.5916978,111.397299 93.092328,110.898004 93.7077693,110.898004 Z M84.5854477,110.898004 C85.202224,110.898004 85.7015191,111.397299 85.7015191,112.014075 C85.7015191,112.630852 85.202224,113.130147 84.5854477,113.130147 C83.9700064,113.130147 83.4693763,112.630852 83.4693763,112.014075 C83.4693763,111.397299 83.9700064,110.898004 84.5854477,110.898004 Z M20.7291968,110.898004 C21.3459731,110.898004 21.8452682,111.397299 21.8452682,112.014075 C21.8452682,112.630852 21.3459731,113.130147 20.7291968,113.130147 C20.1137555,113.130147 19.6131253,112.630852 19.6131253,112.014075 C19.6131253,111.397299 20.1137555,110.898004 20.7291968,110.898004 Z M57.218483,110.898004 C57.8352593,110.898004 58.3345544,111.397299 58.3345544,112.014075 C58.3345544,112.630852 57.8352593,113.130147 57.218483,113.130147 C56.6030417,113.130147 56.1024116,112.630852 56.1024116,112.014075 C56.1024116,111.397299 56.6030417,110.898004 57.218483,110.898004 Z M130.197056,110.898004 C130.813832,110.898004 131.313127,111.397299 131.313127,112.014075 C131.313127,112.630852 130.813832,113.130147 130.197056,113.130147 C129.581614,113.130147 129.080984,112.630852 129.080984,112.014075 C129.080984,111.397299 129.581614,110.898004 130.197056,110.898004 Z M11.6068752,110.898004 C12.2236515,110.898004 12.7229466,111.397299 12.7229466,112.014075 C12.7229466,112.630852 12.2236515,113.130147 11.6068752,113.130147 C10.9914339,113.130147 10.4908038,112.630852 10.4908038,112.014075 C10.4908038,111.397299 10.9914339,110.898004 11.6068752,110.898004 Z M121.074734,110.898004 C121.69151,110.898004 122.190805,111.397299 122.190805,112.014075 C122.190805,112.630852 121.69151,113.130147 121.074734,113.130147 C120.459293,113.130147 119.958663,112.630852 119.958663,112.014075 C119.958663,111.397299 120.459293,110.898004 121.074734,110.898004 Z M48.0961615,110.898004 C48.7129378,110.898004 49.2122329,111.397299 49.2122329,112.014075 C49.2122329,112.630852 48.7129378,113.130147 48.0961615,113.130147 C47.4807202,113.130147 46.98009,112.630852 46.98009,112.014075 C46.98009,111.397299 47.4807202,110.898004 48.0961615,110.898004 Z M2.48455365,110.898004 C3.10132996,110.898004 3.60062507,111.397299 3.60062507,112.014075 C3.60062507,112.630852 3.10132996,113.130147 2.48455365,113.130147 C1.86911234,113.130147 1.36848222,112.630852 1.36848222,112.014075 C1.36848222,111.397299 1.86911234,110.898004 2.48455365,110.898004 Z M75.4631261,110.898004 C76.0799025,110.898004 76.5791976,111.397299 76.5791976,112.014075 C76.5791976,112.630852 76.0799025,113.130147 75.4631261,113.130147 C74.8476848,113.130147 74.3470547,112.630852 74.3470547,112.014075 C74.3470547,111.397299 74.8476848,110.898004 75.4631261,110.898004 Z M121.074734,101.775682 C121.69151,101.775682 122.190805,102.274977 122.190805,102.891754 C122.190805,103.50853 121.69151,104.007825 121.074734,104.007825 C120.459293,104.007825 119.958663,103.50853 119.958663,102.891754 C119.958663,102.274977 120.459293,101.775682 121.074734,101.775682 Z M57.218483,101.775682 C57.8352593,101.775682 58.3345544,102.274977 58.3345544,102.891754 C58.3345544,103.50853 57.8352593,104.007825 57.218483,104.007825 C56.6030417,104.007825 56.1024116,103.50853 56.1024116,102.891754 C56.1024116,102.274977 56.6030417,101.775682 57.218483,101.775682 Z M111.952412,101.775682 C112.569189,101.775682 113.068484,102.274977 113.068484,102.891754 C113.068484,103.50853 112.569189,104.007825 111.952412,104.007825 C111.336971,104.007825 110.836341,103.50853 110.836341,102.891754 C110.836341,102.274977 111.336971,101.775682 111.952412,101.775682 Z M48.0961615,101.775682 C48.7129378,101.775682 49.2122329,102.274977 49.2122329,102.891754 C49.2122329,103.50853 48.7129378,104.007825 48.0961615,104.007825 C47.4807202,104.007825 46.98009,103.50853 46.98009,102.891754 C46.98009,102.274977 47.4807202,101.775682 48.0961615,101.775682 Z M102.830091,101.775682 C103.446867,101.775682 103.946162,102.274977 103.946162,102.891754 C103.946162,103.50853 103.446867,104.007825 102.830091,104.007825 C102.21465,104.007825 101.714019,103.50853 101.714019,102.891754 C101.714019,102.274977 102.21465,101.775682 102.830091,101.775682 Z M38.9738399,101.775682 C39.5906162,101.775682 40.0899113,102.274977 40.0899113,102.891754 C40.0899113,103.50853 39.5906162,104.007825 38.9738399,104.007825 C38.3583986,104.007825 37.8577685,103.50853 37.8577685,102.891754 C37.8577685,102.274977 38.3583986,101.775682 38.9738399,101.775682 Z M93.7077693,101.775682 C94.3245456,101.775682 94.8238407,102.274977 94.8238407,102.891754 C94.8238407,103.50853 94.3245456,104.007825 93.7077693,104.007825 C93.092328,104.007825 92.5916978,103.50853 92.5916978,102.891754 C92.5916978,102.274977 93.092328,101.775682 93.7077693,101.775682 Z M29.8515183,101.775682 C30.4682946,101.775682 30.9675898,102.274977 30.9675898,102.891754 C30.9675898,103.50853 30.4682946,104.007825 29.8515183,104.007825 C29.236077,104.007825 28.7354469,103.50853 28.7354469,102.891754 C28.7354469,102.274977 29.236077,101.775682 29.8515183,101.775682 Z M84.5854477,101.775682 C85.202224,101.775682 85.7015191,102.274977 85.7015191,102.891754 C85.7015191,103.50853 85.202224,104.007825 84.5854477,104.007825 C83.9700064,104.007825 83.4693763,103.50853 83.4693763,102.891754 C83.4693763,102.274977 83.9700064,101.775682 84.5854477,101.775682 Z M20.7291968,101.775682 C21.3459731,101.775682 21.8452682,102.274977 21.8452682,102.891754 C21.8452682,103.50853 21.3459731,104.007825 20.7291968,104.007825 C20.1137555,104.007825 19.6131253,103.50853 19.6131253,102.891754 C19.6131253,102.274977 20.1137555,101.775682 20.7291968,101.775682 Z M75.4631261,101.775682 C76.0799025,101.775682 76.5791976,102.274977 76.5791976,102.891754 C76.5791976,103.50853 76.0799025,104.007825 75.4631261,104.007825 C74.8476848,104.007825 74.3470547,103.50853 74.3470547,102.891754 C74.3470547,102.274977 74.8476848,101.775682 75.4631261,101.775682 Z M11.6068752,101.775682 C12.2236515,101.775682 12.7229466,102.274977 12.7229466,102.891754 C12.7229466,103.50853 12.2236515,104.007825 11.6068752,104.007825 C10.9914339,104.007825 10.4908038,103.50853 10.4908038,102.891754 C10.4908038,102.274977 10.9914339,101.775682 11.6068752,101.775682 Z M130.197056,101.775682 C130.813832,101.775682 131.313127,102.274977 131.313127,102.891754 C131.313127,103.50853 130.813832,104.007825 130.197056,104.007825 C129.581614,104.007825 129.080984,103.50853 129.080984,102.891754 C129.080984,102.274977 129.581614,101.775682 130.197056,101.775682 Z M2.48455365,101.775682 C3.10132996,101.775682 3.60062507,102.274977 3.60062507,102.891754 C3.60062507,103.50853 3.10132996,104.007825 2.48455365,104.007825 C1.86911234,104.007825 1.36848222,103.50853 1.36848222,102.891754 C1.36848222,102.274977 1.86911234,101.775682 2.48455365,101.775682 Z M66.3408046,101.775682 C66.9575809,101.775682 67.456876,102.274977 67.456876,102.891754 C67.456876,103.50853 66.9575809,104.007825 66.3408046,104.007825 C65.7253633,104.007825 65.2247332,103.50853 65.2247332,102.891754 C65.2247332,102.274977 65.7253633,101.775682 66.3408046,101.775682 Z M66.3408046,92.6533608 C66.9575809,92.6533608 67.456876,93.1526559 67.456876,93.7694322 C67.456876,94.3862085 66.9575809,94.8855036 66.3408046,94.8855036 C65.7253633,94.8855036 65.2247332,94.3862085 65.2247332,93.7694322 C65.2247332,93.1526559 65.7253633,92.6533608 66.3408046,92.6533608 Z M20.7291968,92.6533608 C21.3459731,92.6533608 21.8452682,93.1526559 21.8452682,93.7694322 C21.8452682,94.3862085 21.3459731,94.8855036 20.7291968,94.8855036 C20.1137555,94.8855036 19.6131253,94.3862085 19.6131253,93.7694322 C19.6131253,93.1526559 20.1137555,92.6533608 20.7291968,92.6533608 Z M93.7077693,92.6533608 C94.3245456,92.6533608 94.8238407,93.1526559 94.8238407,93.7694322 C94.8238407,94.3862085 94.3245456,94.8855036 93.7077693,94.8855036 C93.092328,94.8855036 92.5916978,94.3862085 92.5916978,93.7694322 C92.5916978,93.1526559 93.092328,92.6533608 93.7077693,92.6533608 Z M102.830091,92.6533608 C103.446867,92.6533608 103.946162,93.1526559 103.946162,93.7694322 C103.946162,94.3862085 103.446867,94.8855036 102.830091,94.8855036 C102.21465,94.8855036 101.714019,94.3862085 101.714019,93.7694322 C101.714019,93.1526559 102.21465,92.6533608 102.830091,92.6533608 Z M75.4631261,92.6533608 C76.0799025,92.6533608 76.5791976,93.1526559 76.5791976,93.7694322 C76.5791976,94.3862085 76.0799025,94.8855036 75.4631261,94.8855036 C74.8476848,94.8855036 74.3470547,94.3862085 74.3470547,93.7694322 C74.3470547,93.1526559 74.8476848,92.6533608 75.4631261,92.6533608 Z M48.0961615,92.6533608 C48.7129378,92.6533608 49.2122329,93.1526559 49.2122329,93.7694322 C49.2122329,94.3862085 48.7129378,94.8855036 48.0961615,94.8855036 C47.4807202,94.8855036 46.98009,94.3862085 46.98009,93.7694322 C46.98009,93.1526559 47.4807202,92.6533608 48.0961615,92.6533608 Z M11.6068752,92.6533608 C12.2236515,92.6533608 12.7229466,93.1526559 12.7229466,93.7694322 C12.7229466,94.3862085 12.2236515,94.8855036 11.6068752,94.8855036 C10.9914339,94.8855036 10.4908038,94.3862085 10.4908038,93.7694322 C10.4908038,93.1526559 10.9914339,92.6533608 11.6068752,92.6533608 Z M57.218483,92.6533608 C57.8352593,92.6533608 58.3345544,93.1526559 58.3345544,93.7694322 C58.3345544,94.3862085 57.8352593,94.8855036 57.218483,94.8855036 C56.6030417,94.8855036 56.1024116,94.3862085 56.1024116,93.7694322 C56.1024116,93.1526559 56.6030417,92.6533608 57.218483,92.6533608 Z M84.5854477,92.6533608 C85.202224,92.6533608 85.7015191,93.1526559 85.7015191,93.7694322 C85.7015191,94.3862085 85.202224,94.8855036 84.5854477,94.8855036 C83.9700064,94.8855036 83.4693763,94.3862085 83.4693763,93.7694322 C83.4693763,93.1526559 83.9700064,92.6533608 84.5854477,92.6533608 Z M29.8515183,92.6533608 C30.4682946,92.6533608 30.9675898,93.1526559 30.9675898,93.7694322 C30.9675898,94.3862085 30.4682946,94.8855036 29.8515183,94.8855036 C29.236077,94.8855036 28.7354469,94.3862085 28.7354469,93.7694322 C28.7354469,93.1526559 29.236077,92.6533608 29.8515183,92.6533608 Z M111.952412,92.6533608 C112.569189,92.6533608 113.068484,93.1526559 113.068484,93.7694322 C113.068484,94.3862085 112.569189,94.8855036 111.952412,94.8855036 C111.336971,94.8855036 110.836341,94.3862085 110.836341,93.7694322 C110.836341,93.1526559 111.336971,92.6533608 111.952412,92.6533608 Z M2.48455365,92.6533608 C3.10132996,92.6533608 3.60062507,93.1526559 3.60062507,93.7694322 C3.60062507,94.3862085 3.10132996,94.8855036 2.48455365,94.8855036 C1.86911234,94.8855036 1.36848222,94.3862085 1.36848222,93.7694322 C1.36848222,93.1526559 1.86911234,92.6533608 2.48455365,92.6533608 Z M130.197056,92.6533608 C130.813832,92.6533608 131.313127,93.1526559 131.313127,93.7694322 C131.313127,94.3862085 130.813832,94.8855036 130.197056,94.8855036 C129.581614,94.8855036 129.080984,94.3862085 129.080984,93.7694322 C129.080984,93.1526559 129.581614,92.6533608 130.197056,92.6533608 Z M38.9738399,92.6533608 C39.5906162,92.6533608 40.0899113,93.1526559 40.0899113,93.7694322 C40.0899113,94.3862085 39.5906162,94.8855036 38.9738399,94.8855036 C38.3583986,94.8855036 37.8577685,94.3862085 37.8577685,93.7694322 C37.8577685,93.1526559 38.3583986,92.6533608 38.9738399,92.6533608 Z M121.074734,92.6533608 C121.69151,92.6533608 122.190805,93.1526559 122.190805,93.7694322 C122.190805,94.3862085 121.69151,94.8855036 121.074734,94.8855036 C120.459293,94.8855036 119.958663,94.3862085 119.958663,93.7694322 C119.958663,93.1526559 120.459293,92.6533608 121.074734,92.6533608 Z M102.830091,83.5310392 C103.446867,83.5310392 103.946162,84.0303343 103.946162,84.6471107 C103.946162,85.263887 103.446867,85.7631821 102.830091,85.7631821 C102.21465,85.7631821 101.714019,85.263887 101.714019,84.6471107 C101.714019,84.0303343 102.21465,83.5310392 102.830091,83.5310392 Z M111.952412,83.5310392 C112.569189,83.5310392 113.068484,84.0303343 113.068484,84.6471107 C113.068484,85.263887 112.569189,85.7631821 111.952412,85.7631821 C111.336971,85.7631821 110.836341,85.263887 110.836341,84.6471107 C110.836341,84.0303343 111.336971,83.5310392 111.952412,83.5310392 Z M75.4631261,83.5310392 C76.0799025,83.5310392 76.5791976,84.0303343 76.5791976,84.6471107 C76.5791976,85.263887 76.0799025,85.7631821 75.4631261,85.7631821 C74.8476848,85.7631821 74.3470547,85.263887 74.3470547,84.6471107 C74.3470547,84.0303343 74.8476848,83.5310392 75.4631261,83.5310392 Z M84.5854477,83.5310392 C85.202224,83.5310392 85.7015191,84.0303343 85.7015191,84.6471107 C85.7015191,85.263887 85.202224,85.7631821 84.5854477,85.7631821 C83.9700064,85.7631821 83.4693763,85.263887 83.4693763,84.6471107 C83.4693763,84.0303343 83.9700064,83.5310392 84.5854477,83.5310392 Z M11.6068752,83.5310392 C12.2236515,83.5310392 12.7229466,84.0303343 12.7229466,84.6471107 C12.7229466,85.263887 12.2236515,85.7631821 11.6068752,85.7631821 C10.9914339,85.7631821 10.4908038,85.263887 10.4908038,84.6471107 C10.4908038,84.0303343 10.9914339,83.5310392 11.6068752,83.5310392 Z M48.0961615,83.5310392 C48.7129378,83.5310392 49.2122329,84.0303343 49.2122329,84.6471107 C49.2122329,85.263887 48.7129378,85.7631821 48.0961615,85.7631821 C47.4807202,85.7631821 46.98009,85.263887 46.98009,84.6471107 C46.98009,84.0303343 47.4807202,83.5310392 48.0961615,83.5310392 Z M121.074734,83.5310392 C121.69151,83.5310392 122.190805,84.0303343 122.190805,84.6471107 C122.190805,85.263887 121.69151,85.7631821 121.074734,85.7631821 C120.459293,85.7631821 119.958663,85.263887 119.958663,84.6471107 C119.958663,84.0303343 120.459293,83.5310392 121.074734,83.5310392 Z M66.3408046,83.5310392 C66.9575809,83.5310392 67.456876,84.0303343 67.456876,84.6471107 C67.456876,85.263887 66.9575809,85.7631821 66.3408046,85.7631821 C65.7253633,85.7631821 65.2247332,85.263887 65.2247332,84.6471107 C65.2247332,84.0303343 65.7253633,83.5310392 66.3408046,83.5310392 Z M57.218483,83.5310392 C57.8352593,83.5310392 58.3345544,84.0303343 58.3345544,84.6471107 C58.3345544,85.263887 57.8352593,85.7631821 57.218483,85.7631821 C56.6030417,85.7631821 56.1024116,85.263887 56.1024116,84.6471107 C56.1024116,84.0303343 56.6030417,83.5310392 57.218483,83.5310392 Z M20.7291968,83.5310392 C21.3459731,83.5310392 21.8452682,84.0303343 21.8452682,84.6471107 C21.8452682,85.263887 21.3459731,85.7631821 20.7291968,85.7631821 C20.1137555,85.7631821 19.6131253,85.263887 19.6131253,84.6471107 C19.6131253,84.0303343 20.1137555,83.5310392 20.7291968,83.5310392 Z M2.48455365,83.5310392 C3.10132996,83.5310392 3.60062507,84.0303343 3.60062507,84.6471107 C3.60062507,85.263887 3.10132996,85.7631821 2.48455365,85.7631821 C1.86911234,85.7631821 1.36848222,85.263887 1.36848222,84.6471107 C1.36848222,84.0303343 1.86911234,83.5310392 2.48455365,83.5310392 Z M130.197056,83.5310392 C130.813832,83.5310392 131.313127,84.0303343 131.313127,84.6471107 C131.313127,85.263887 130.813832,85.7631821 130.197056,85.7631821 C129.581614,85.7631821 129.080984,85.263887 129.080984,84.6471107 C129.080984,84.0303343 129.581614,83.5310392 130.197056,83.5310392 Z M38.9738399,83.5310392 C39.5906162,83.5310392 40.0899113,84.0303343 40.0899113,84.6471107 C40.0899113,85.263887 39.5906162,85.7631821 38.9738399,85.7631821 C38.3583986,85.7631821 37.8577685,85.263887 37.8577685,84.6471107 C37.8577685,84.0303343 38.3583986,83.5310392 38.9738399,83.5310392 Z M93.7077693,83.5310392 C94.3245456,83.5310392 94.8238407,84.0303343 94.8238407,84.6471107 C94.8238407,85.263887 94.3245456,85.7631821 93.7077693,85.7631821 C93.092328,85.7631821 92.5916978,85.263887 92.5916978,84.6471107 C92.5916978,84.0303343 93.092328,83.5310392 93.7077693,83.5310392 Z M29.8515183,83.5310392 C30.4682946,83.5310392 30.9675898,84.0303343 30.9675898,84.6471107 C30.9675898,85.263887 30.4682946,85.7631821 29.8515183,85.7631821 C29.236077,85.7631821 28.7354469,85.263887 28.7354469,84.6471107 C28.7354469,84.0303343 29.236077,83.5310392 29.8515183,83.5310392 Z M130.197056,74.4087177 C130.813832,74.4087177 131.313127,74.9080128 131.313127,75.5247891 C131.313127,76.1415654 130.813832,76.6408605 130.197056,76.6408605 C129.581614,76.6408605 129.080984,76.1415654 129.080984,75.5247891 C129.080984,74.9080128 129.581614,74.4087177 130.197056,74.4087177 Z M121.074734,74.4087177 C121.69151,74.4087177 122.190805,74.9080128 122.190805,75.5247891 C122.190805,76.1415654 121.69151,76.6408605 121.074734,76.6408605 C120.459293,76.6408605 119.958663,76.1415654 119.958663,75.5247891 C119.958663,74.9080128 120.459293,74.4087177 121.074734,74.4087177 Z M111.952412,74.4087177 C112.569189,74.4087177 113.068484,74.9080128 113.068484,75.5247891 C113.068484,76.1415654 112.569189,76.6408605 111.952412,76.6408605 C111.336971,76.6408605 110.836341,76.1415654 110.836341,75.5247891 C110.836341,74.9080128 111.336971,74.4087177 111.952412,74.4087177 Z M102.830091,74.4087177 C103.446867,74.4087177 103.946162,74.9080128 103.946162,75.5247891 C103.946162,76.1415654 103.446867,76.6408605 102.830091,76.6408605 C102.21465,76.6408605 101.714019,76.1415654 101.714019,75.5247891 C101.714019,74.9080128 102.21465,74.4087177 102.830091,74.4087177 Z M93.7077693,74.4087177 C94.3245456,74.4087177 94.8238407,74.9080128 94.8238407,75.5247891 C94.8238407,76.1415654 94.3245456,76.6408605 93.7077693,76.6408605 C93.092328,76.6408605 92.5916978,76.1415654 92.5916978,75.5247891 C92.5916978,74.9080128 93.092328,74.4087177 93.7077693,74.4087177 Z M84.5854477,74.4087177 C85.202224,74.4087177 85.7015191,74.9080128 85.7015191,75.5247891 C85.7015191,76.1415654 85.202224,76.6408605 84.5854477,76.6408605 C83.9700064,76.6408605 83.4693763,76.1415654 83.4693763,75.5247891 C83.4693763,74.9080128 83.9700064,74.4087177 84.5854477,74.4087177 Z M75.4631261,74.4087177 C76.0799025,74.4087177 76.5791976,74.9080128 76.5791976,75.5247891 C76.5791976,76.1415654 76.0799025,76.6408605 75.4631261,76.6408605 C74.8476848,76.6408605 74.3470547,76.1415654 74.3470547,75.5247891 C74.3470547,74.9080128 74.8476848,74.4087177 75.4631261,74.4087177 Z M66.3408046,74.4087177 C66.9575809,74.4087177 67.456876,74.9080128 67.456876,75.5247891 C67.456876,76.1415654 66.9575809,76.6408605 66.3408046,76.6408605 C65.7253633,76.6408605 65.2247332,76.1415654 65.2247332,75.5247891 C65.2247332,74.9080128 65.7253633,74.4087177 66.3408046,74.4087177 Z M57.218483,74.4087177 C57.8352593,74.4087177 58.3345544,74.9080128 58.3345544,75.5247891 C58.3345544,76.1415654 57.8352593,76.6408605 57.218483,76.6408605 C56.6030417,76.6408605 56.1024116,76.1415654 56.1024116,75.5247891 C56.1024116,74.9080128 56.6030417,74.4087177 57.218483,74.4087177 Z M48.0961615,74.4087177 C48.7129378,74.4087177 49.2122329,74.9080128 49.2122329,75.5247891 C49.2122329,76.1415654 48.7129378,76.6408605 48.0961615,76.6408605 C47.4807202,76.6408605 46.98009,76.1415654 46.98009,75.5247891 C46.98009,74.9080128 47.4807202,74.4087177 48.0961615,74.4087177 Z M38.9738399,74.4087177 C39.5906162,74.4087177 40.0899113,74.9080128 40.0899113,75.5247891 C40.0899113,76.1415654 39.5906162,76.6408605 38.9738399,76.6408605 C38.3583986,76.6408605 37.8577685,76.1415654 37.8577685,75.5247891 C37.8577685,74.9080128 38.3583986,74.4087177 38.9738399,74.4087177 Z M29.8515183,74.4087177 C30.4682946,74.4087177 30.9675898,74.9080128 30.9675898,75.5247891 C30.9675898,76.1415654 30.4682946,76.6408605 29.8515183,76.6408605 C29.236077,76.6408605 28.7354469,76.1415654 28.7354469,75.5247891 C28.7354469,74.9080128 29.236077,74.4087177 29.8515183,74.4087177 Z M20.7291968,74.4087177 C21.3459731,74.4087177 21.8452682,74.9080128 21.8452682,75.5247891 C21.8452682,76.1415654 21.3459731,76.6408605 20.7291968,76.6408605 C20.1137555,76.6408605 19.6131253,76.1415654 19.6131253,75.5247891 C19.6131253,74.9080128 20.1137555,74.4087177 20.7291968,74.4087177 Z M11.6068752,74.4087177 C12.2236515,74.4087177 12.7229466,74.9080128 12.7229466,75.5247891 C12.7229466,76.1415654 12.2236515,76.6408605 11.6068752,76.6408605 C10.9914339,76.6408605 10.4908038,76.1415654 10.4908038,75.5247891 C10.4908038,74.9080128 10.9914339,74.4087177 11.6068752,74.4087177 Z M2.48455365,74.4087177 C3.10132996,74.4087177 3.60062507,74.9080128 3.60062507,75.5247891 C3.60062507,76.1415654 3.10132996,76.6408605 2.48455365,76.6408605 C1.86911234,76.6408605 1.36848222,76.1415654 1.36848222,75.5247891 C1.36848222,74.9080128 1.86911234,74.4087177 2.48455365,74.4087177 Z M93.7077693,65.2863961 C94.3245456,65.2863961 94.8238407,65.7856912 94.8238407,66.4024675 C94.8238407,67.0192438 94.3245456,67.518539 93.7077693,67.518539 C93.092328,67.518539 92.5916978,67.0192438 92.5916978,66.4024675 C92.5916978,65.7856912 93.092328,65.2863961 93.7077693,65.2863961 Z M66.3408046,65.2863961 C66.9575809,65.2863961 67.456876,65.7856912 67.456876,66.4024675 C67.456876,67.0192438 66.9575809,67.518539 66.3408046,67.518539 C65.7253633,67.518539 65.2247332,67.0192438 65.2247332,66.4024675 C65.2247332,65.7856912 65.7253633,65.2863961 66.3408046,65.2863961 Z M29.8515183,65.2863961 C30.4682946,65.2863961 30.9675898,65.7856912 30.9675898,66.4024675 C30.9675898,67.0192438 30.4682946,67.518539 29.8515183,67.518539 C29.236077,67.518539 28.7354469,67.0192438 28.7354469,66.4024675 C28.7354469,65.7856912 29.236077,65.2863961 29.8515183,65.2863961 Z M130.197056,65.2863961 C130.813832,65.2863961 131.313127,65.7856912 131.313127,66.4024675 C131.313127,67.0192438 130.813832,67.518539 130.197056,67.518539 C129.581614,67.518539 129.080984,67.0192438 129.080984,66.4024675 C129.080984,65.7856912 129.581614,65.2863961 130.197056,65.2863961 Z M102.830091,65.2863961 C103.446867,65.2863961 103.946162,65.7856912 103.946162,66.4024675 C103.946162,67.0192438 103.446867,67.518539 102.830091,67.518539 C102.21465,67.518539 101.714019,67.0192438 101.714019,66.4024675 C101.714019,65.7856912 102.21465,65.2863961 102.830091,65.2863961 Z M121.074734,65.2863961 C121.69151,65.2863961 122.190805,65.7856912 122.190805,66.4024675 C122.190805,67.0192438 121.69151,67.518539 121.074734,67.518539 C120.459293,67.518539 119.958663,67.0192438 119.958663,66.4024675 C119.958663,65.7856912 120.459293,65.2863961 121.074734,65.2863961 Z M20.7291968,65.2863961 C21.3459731,65.2863961 21.8452682,65.7856912 21.8452682,66.4024675 C21.8452682,67.0192438 21.3459731,67.518539 20.7291968,67.518539 C20.1137555,67.518539 19.6131253,67.0192438 19.6131253,66.4024675 C19.6131253,65.7856912 20.1137555,65.2863961 20.7291968,65.2863961 Z M84.5854477,65.2863961 C85.202224,65.2863961 85.7015191,65.7856912 85.7015191,66.4024675 C85.7015191,67.0192438 85.202224,67.518539 84.5854477,67.518539 C83.9700064,67.518539 83.4693763,67.0192438 83.4693763,66.4024675 C83.4693763,65.7856912 83.9700064,65.2863961 84.5854477,65.2863961 Z M48.0961615,65.2863961 C48.7129378,65.2863961 49.2122329,65.7856912 49.2122329,66.4024675 C49.2122329,67.0192438 48.7129378,67.518539 48.0961615,67.518539 C47.4807202,67.518539 46.98009,67.0192438 46.98009,66.4024675 C46.98009,65.7856912 47.4807202,65.2863961 48.0961615,65.2863961 Z M11.6068752,65.2863961 C12.2236515,65.2863961 12.7229466,65.7856912 12.7229466,66.4024675 C12.7229466,67.0192438 12.2236515,67.518539 11.6068752,67.518539 C10.9914339,67.518539 10.4908038,67.0192438 10.4908038,66.4024675 C10.4908038,65.7856912 10.9914339,65.2863961 11.6068752,65.2863961 Z M38.9738399,65.2863961 C39.5906162,65.2863961 40.0899113,65.7856912 40.0899113,66.4024675 C40.0899113,67.0192438 39.5906162,67.518539 38.9738399,67.518539 C38.3583986,67.518539 37.8577685,67.0192438 37.8577685,66.4024675 C37.8577685,65.7856912 38.3583986,65.2863961 38.9738399,65.2863961 Z M75.4631261,65.2863961 C76.0799025,65.2863961 76.5791976,65.7856912 76.5791976,66.4024675 C76.5791976,67.0192438 76.0799025,67.518539 75.4631261,67.518539 C74.8476848,67.518539 74.3470547,67.0192438 74.3470547,66.4024675 C74.3470547,65.7856912 74.8476848,65.2863961 75.4631261,65.2863961 Z M57.218483,65.2863961 C57.8352593,65.2863961 58.3345544,65.7856912 58.3345544,66.4024675 C58.3345544,67.0192438 57.8352593,67.518539 57.218483,67.518539 C56.6030417,67.518539 56.1024116,67.0192438 56.1024116,66.4024675 C56.1024116,65.7856912 56.6030417,65.2863961 57.218483,65.2863961 Z M111.952412,65.2863961 C112.569189,65.2863961 113.068484,65.7856912 113.068484,66.4024675 C113.068484,67.0192438 112.569189,67.518539 111.952412,67.518539 C111.336971,67.518539 110.836341,67.0192438 110.836341,66.4024675 C110.836341,65.7856912 111.336971,65.2863961 111.952412,65.2863961 Z M2.48455365,65.2863961 C3.10132996,65.2863961 3.60062507,65.7856912 3.60062507,66.4024675 C3.60062507,67.0192438 3.10132996,67.518539 2.48455365,67.518539 C1.86911234,67.518539 1.36848222,67.0192438 1.36848222,66.4024675 C1.36848222,65.7856912 1.86911234,65.2863961 2.48455365,65.2863961 Z M48.0961615,56.1640745 C48.7129378,56.1640745 49.2122329,56.6633697 49.2122329,57.280146 C49.2122329,57.8969223 48.7129378,58.3962174 48.0961615,58.3962174 C47.4807202,58.3962174 46.98009,57.8969223 46.98009,57.280146 C46.98009,56.6633697 47.4807202,56.1640745 48.0961615,56.1640745 Z M84.5854477,56.1640745 C85.202224,56.1640745 85.7015191,56.6633697 85.7015191,57.280146 C85.7015191,57.8969223 85.202224,58.3962174 84.5854477,58.3962174 C83.9700064,58.3962174 83.4693763,57.8969223 83.4693763,57.280146 C83.4693763,56.6633697 83.9700064,56.1640745 84.5854477,56.1640745 Z M66.3408046,56.1640745 C66.9575809,56.1640745 67.456876,56.6633697 67.456876,57.280146 C67.456876,57.8969223 66.9575809,58.3962174 66.3408046,58.3962174 C65.7253633,58.3962174 65.2247332,57.8969223 65.2247332,57.280146 C65.2247332,56.6633697 65.7253633,56.1640745 66.3408046,56.1640745 Z M102.830091,56.1640745 C103.446867,56.1640745 103.946162,56.6633697 103.946162,57.280146 C103.946162,57.8969223 103.446867,58.3962174 102.830091,58.3962174 C102.21465,58.3962174 101.714019,57.8969223 101.714019,57.280146 C101.714019,56.6633697 102.21465,56.1640745 102.830091,56.1640745 Z M11.6068752,56.1640745 C12.2236515,56.1640745 12.7229466,56.6633697 12.7229466,57.280146 C12.7229466,57.8969223 12.2236515,58.3962174 11.6068752,58.3962174 C10.9914339,58.3962174 10.4908038,57.8969223 10.4908038,57.280146 C10.4908038,56.6633697 10.9914339,56.1640745 11.6068752,56.1640745 Z M57.218483,56.1640745 C57.8352593,56.1640745 58.3345544,56.6633697 58.3345544,57.280146 C58.3345544,57.8969223 57.8352593,58.3962174 57.218483,58.3962174 C56.6030417,58.3962174 56.1024116,57.8969223 56.1024116,57.280146 C56.1024116,56.6633697 56.6030417,56.1640745 57.218483,56.1640745 Z M38.9738399,56.1640745 C39.5906162,56.1640745 40.0899113,56.6633697 40.0899113,57.280146 C40.0899113,57.8969223 39.5906162,58.3962174 38.9738399,58.3962174 C38.3583986,58.3962174 37.8577685,57.8969223 37.8577685,57.280146 C37.8577685,56.6633697 38.3583986,56.1640745 38.9738399,56.1640745 Z M20.7291968,56.1640745 C21.3459731,56.1640745 21.8452682,56.6633697 21.8452682,57.280146 C21.8452682,57.8969223 21.3459731,58.3962174 20.7291968,58.3962174 C20.1137555,58.3962174 19.6131253,57.8969223 19.6131253,57.280146 C19.6131253,56.6633697 20.1137555,56.1640745 20.7291968,56.1640745 Z M93.7077693,56.1640745 C94.3245456,56.1640745 94.8238407,56.6633697 94.8238407,57.280146 C94.8238407,57.8969223 94.3245456,58.3962174 93.7077693,58.3962174 C93.092328,58.3962174 92.5916978,57.8969223 92.5916978,57.280146 C92.5916978,56.6633697 93.092328,56.1640745 93.7077693,56.1640745 Z M121.074734,56.1640745 C121.69151,56.1640745 122.190805,56.6633697 122.190805,57.280146 C122.190805,57.8969223 121.69151,58.3962174 121.074734,58.3962174 C120.459293,58.3962174 119.958663,57.8969223 119.958663,57.280146 C119.958663,56.6633697 120.459293,56.1640745 121.074734,56.1640745 Z M2.48455365,56.1640745 C3.10132996,56.1640745 3.60062507,56.6633697 3.60062507,57.280146 C3.60062507,57.8969223 3.10132996,58.3962174 2.48455365,58.3962174 C1.86911234,58.3962174 1.36848222,57.8969223 1.36848222,57.280146 C1.36848222,56.6633697 1.86911234,56.1640745 2.48455365,56.1640745 Z M75.4631261,56.1640745 C76.0799025,56.1640745 76.5791976,56.6633697 76.5791976,57.280146 C76.5791976,57.8969223 76.0799025,58.3962174 75.4631261,58.3962174 C74.8476848,58.3962174 74.3470547,57.8969223 74.3470547,57.280146 C74.3470547,56.6633697 74.8476848,56.1640745 75.4631261,56.1640745 Z M130.197056,56.1640745 C130.813832,56.1640745 131.313127,56.6633697 131.313127,57.280146 C131.313127,57.8969223 130.813832,58.3962174 130.197056,58.3962174 C129.581614,58.3962174 129.080984,57.8969223 129.080984,57.280146 C129.080984,56.6633697 129.581614,56.1640745 130.197056,56.1640745 Z M111.952412,56.1640745 C112.569189,56.1640745 113.068484,56.6633697 113.068484,57.280146 C113.068484,57.8969223 112.569189,58.3962174 111.952412,58.3962174 C111.336971,58.3962174 110.836341,57.8969223 110.836341,57.280146 C110.836341,56.6633697 111.336971,56.1640745 111.952412,56.1640745 Z M29.8515183,56.1640745 C30.4682946,56.1640745 30.9675898,56.6633697 30.9675898,57.280146 C30.9675898,57.8969223 30.4682946,58.3962174 29.8515183,58.3962174 C29.236077,58.3962174 28.7354469,57.8969223 28.7354469,57.280146 C28.7354469,56.6633697 29.236077,56.1640745 29.8515183,56.1640745 Z M121.074734,47.041753 C121.69151,47.041753 122.190805,47.5410481 122.190805,48.1578244 C122.190805,48.7746007 121.69151,49.2738958 121.074734,49.2738958 C120.459293,49.2738958 119.958663,48.7746007 119.958663,48.1578244 C119.958663,47.5410481 120.459293,47.041753 121.074734,47.041753 Z M66.3408046,47.041753 C66.9575809,47.041753 67.456876,47.5410481 67.456876,48.1578244 C67.456876,48.7746007 66.9575809,49.2738958 66.3408046,49.2738958 C65.7253633,49.2738958 65.2247332,48.7746007 65.2247332,48.1578244 C65.2247332,47.5410481 65.7253633,47.041753 66.3408046,47.041753 Z M102.830091,47.041753 C103.446867,47.041753 103.946162,47.5410481 103.946162,48.1578244 C103.946162,48.7746007 103.446867,49.2738958 102.830091,49.2738958 C102.21465,49.2738958 101.714019,48.7746007 101.714019,48.1578244 C101.714019,47.5410481 102.21465,47.041753 102.830091,47.041753 Z M38.9738399,47.041753 C39.5906162,47.041753 40.0899113,47.5410481 40.0899113,48.1578244 C40.0899113,48.7746007 39.5906162,49.2738958 38.9738399,49.2738958 C38.3583986,49.2738958 37.8577685,48.7746007 37.8577685,48.1578244 C37.8577685,47.5410481 38.3583986,47.041753 38.9738399,47.041753 Z M11.6068752,47.041753 C12.2236515,47.041753 12.7229466,47.5410481 12.7229466,48.1578244 C12.7229466,48.7746007 12.2236515,49.2738958 11.6068752,49.2738958 C10.9914339,49.2738958 10.4908038,48.7746007 10.4908038,48.1578244 C10.4908038,47.5410481 10.9914339,47.041753 11.6068752,47.041753 Z M130.197056,47.041753 C130.813832,47.041753 131.313127,47.5410481 131.313127,48.1578244 C131.313127,48.7746007 130.813832,49.2738958 130.197056,49.2738958 C129.581614,49.2738958 129.080984,48.7746007 129.080984,48.1578244 C129.080984,47.5410481 129.581614,47.041753 130.197056,47.041753 Z M84.5854477,47.041753 C85.202224,47.041753 85.7015191,47.5410481 85.7015191,48.1578244 C85.7015191,48.7746007 85.202224,49.2738958 84.5854477,49.2738958 C83.9700064,49.2738958 83.4693763,48.7746007 83.4693763,48.1578244 C83.4693763,47.5410481 83.9700064,47.041753 84.5854477,47.041753 Z M111.952412,47.041753 C112.569189,47.041753 113.068484,47.5410481 113.068484,48.1578244 C113.068484,48.7746007 112.569189,49.2738958 111.952412,49.2738958 C111.336971,49.2738958 110.836341,48.7746007 110.836341,48.1578244 C110.836341,47.5410481 111.336971,47.041753 111.952412,47.041753 Z M57.218483,47.041753 C57.8352593,47.041753 58.3345544,47.5410481 58.3345544,48.1578244 C58.3345544,48.7746007 57.8352593,49.2738958 57.218483,49.2738958 C56.6030417,49.2738958 56.1024116,48.7746007 56.1024116,48.1578244 C56.1024116,47.5410481 56.6030417,47.041753 57.218483,47.041753 Z M20.7291968,47.041753 C21.3459731,47.041753 21.8452682,47.5410481 21.8452682,48.1578244 C21.8452682,48.7746007 21.3459731,49.2738958 20.7291968,49.2738958 C20.1137555,49.2738958 19.6131253,48.7746007 19.6131253,48.1578244 C19.6131253,47.5410481 20.1137555,47.041753 20.7291968,47.041753 Z M2.48455365,47.041753 C3.10132996,47.041753 3.60062507,47.5410481 3.60062507,48.1578244 C3.60062507,48.7746007 3.10132996,49.2738958 2.48455365,49.2738958 C1.86911234,49.2738958 1.36848222,48.7746007 1.36848222,48.1578244 C1.36848222,47.5410481 1.86911234,47.041753 2.48455365,47.041753 Z M93.7077693,47.041753 C94.3245456,47.041753 94.8238407,47.5410481 94.8238407,48.1578244 C94.8238407,48.7746007 94.3245456,49.2738958 93.7077693,49.2738958 C93.092328,49.2738958 92.5916978,48.7746007 92.5916978,48.1578244 C92.5916978,47.5410481 93.092328,47.041753 93.7077693,47.041753 Z M75.4631261,47.041753 C76.0799025,47.041753 76.5791976,47.5410481 76.5791976,48.1578244 C76.5791976,48.7746007 76.0799025,49.2738958 75.4631261,49.2738958 C74.8476848,49.2738958 74.3470547,48.7746007 74.3470547,48.1578244 C74.3470547,47.5410481 74.8476848,47.041753 75.4631261,47.041753 Z M48.0961615,47.041753 C48.7129378,47.041753 49.2122329,47.5410481 49.2122329,48.1578244 C49.2122329,48.7746007 48.7129378,49.2738958 48.0961615,49.2738958 C47.4807202,49.2738958 46.98009,48.7746007 46.98009,48.1578244 C46.98009,47.5410481 47.4807202,47.041753 48.0961615,47.041753 Z M29.8515183,47.041753 C30.4682946,47.041753 30.9675898,47.5410481 30.9675898,48.1578244 C30.9675898,48.7746007 30.4682946,49.2738958 29.8515183,49.2738958 C29.236077,49.2738958 28.7354469,48.7746007 28.7354469,48.1578244 C28.7354469,47.5410481 29.236077,47.041753 29.8515183,47.041753 Z M66.3408046,37.9194314 C66.9575809,37.9194314 67.456876,38.4187265 67.456876,39.0355028 C67.456876,39.6522792 66.9575809,40.1515743 66.3408046,40.1515743 C65.7253633,40.1515743 65.2247332,39.6522792 65.2247332,39.0355028 C65.2247332,38.4187265 65.7253633,37.9194314 66.3408046,37.9194314 Z M48.0961615,37.9194314 C48.7129378,37.9194314 49.2122329,38.4187265 49.2122329,39.0355028 C49.2122329,39.6522792 48.7129378,40.1515743 48.0961615,40.1515743 C47.4807202,40.1515743 46.98009,39.6522792 46.98009,39.0355028 C46.98009,38.4187265 47.4807202,37.9194314 48.0961615,37.9194314 Z M102.830091,37.9194314 C103.446867,37.9194314 103.946162,38.4187265 103.946162,39.0355028 C103.946162,39.6522792 103.446867,40.1515743 102.830091,40.1515743 C102.21465,40.1515743 101.714019,39.6522792 101.714019,39.0355028 C101.714019,38.4187265 102.21465,37.9194314 102.830091,37.9194314 Z M29.8515183,37.9194314 C30.4682946,37.9194314 30.9675898,38.4187265 30.9675898,39.0355028 C30.9675898,39.6522792 30.4682946,40.1515743 29.8515183,40.1515743 C29.236077,40.1515743 28.7354469,39.6522792 28.7354469,39.0355028 C28.7354469,38.4187265 29.236077,37.9194314 29.8515183,37.9194314 Z M121.074734,37.9194314 C121.69151,37.9194314 122.190805,38.4187265 122.190805,39.0355028 C122.190805,39.6522792 121.69151,40.1515743 121.074734,40.1515743 C120.459293,40.1515743 119.958663,39.6522792 119.958663,39.0355028 C119.958663,38.4187265 120.459293,37.9194314 121.074734,37.9194314 Z M111.952412,37.9194314 C112.569189,37.9194314 113.068484,38.4187265 113.068484,39.0355028 C113.068484,39.6522792 112.569189,40.1515743 111.952412,40.1515743 C111.336971,40.1515743 110.836341,39.6522792 110.836341,39.0355028 C110.836341,38.4187265 111.336971,37.9194314 111.952412,37.9194314 Z M20.7291968,37.9194314 C21.3459731,37.9194314 21.8452682,38.4187265 21.8452682,39.0355028 C21.8452682,39.6522792 21.3459731,40.1515743 20.7291968,40.1515743 C20.1137555,40.1515743 19.6131253,39.6522792 19.6131253,39.0355028 C19.6131253,38.4187265 20.1137555,37.9194314 20.7291968,37.9194314 Z M93.7077693,37.9194314 C94.3245456,37.9194314 94.8238407,38.4187265 94.8238407,39.0355028 C94.8238407,39.6522792 94.3245456,40.1515743 93.7077693,40.1515743 C93.092328,40.1515743 92.5916978,39.6522792 92.5916978,39.0355028 C92.5916978,38.4187265 93.092328,37.9194314 93.7077693,37.9194314 Z M75.4631261,37.9194314 C76.0799025,37.9194314 76.5791976,38.4187265 76.5791976,39.0355028 C76.5791976,39.6522792 76.0799025,40.1515743 75.4631261,40.1515743 C74.8476848,40.1515743 74.3470547,39.6522792 74.3470547,39.0355028 C74.3470547,38.4187265 74.8476848,37.9194314 75.4631261,37.9194314 Z M11.6068752,37.9194314 C12.2236515,37.9194314 12.7229466,38.4187265 12.7229466,39.0355028 C12.7229466,39.6522792 12.2236515,40.1515743 11.6068752,40.1515743 C10.9914339,40.1515743 10.4908038,39.6522792 10.4908038,39.0355028 C10.4908038,38.4187265 10.9914339,37.9194314 11.6068752,37.9194314 Z M130.197056,37.9194314 C130.813832,37.9194314 131.313127,38.4187265 131.313127,39.0355028 C131.313127,39.6522792 130.813832,40.1515743 130.197056,40.1515743 C129.581614,40.1515743 129.080984,39.6522792 129.080984,39.0355028 C129.080984,38.4187265 129.581614,37.9194314 130.197056,37.9194314 Z M57.218483,37.9194314 C57.8352593,37.9194314 58.3345544,38.4187265 58.3345544,39.0355028 C58.3345544,39.6522792 57.8352593,40.1515743 57.218483,40.1515743 C56.6030417,40.1515743 56.1024116,39.6522792 56.1024116,39.0355028 C56.1024116,38.4187265 56.6030417,37.9194314 57.218483,37.9194314 Z M2.48455365,37.9194314 C3.10132996,37.9194314 3.60062507,38.4187265 3.60062507,39.0355028 C3.60062507,39.6522792 3.10132996,40.1515743 2.48455365,40.1515743 C1.86911234,40.1515743 1.36848222,39.6522792 1.36848222,39.0355028 C1.36848222,38.4187265 1.86911234,37.9194314 2.48455365,37.9194314 Z M84.5854477,37.9194314 C85.202224,37.9194314 85.7015191,38.4187265 85.7015191,39.0355028 C85.7015191,39.6522792 85.202224,40.1515743 84.5854477,40.1515743 C83.9700064,40.1515743 83.4693763,39.6522792 83.4693763,39.0355028 C83.4693763,38.4187265 83.9700064,37.9194314 84.5854477,37.9194314 Z M38.9738399,37.9194314 C39.5906162,37.9194314 40.0899113,38.4187265 40.0899113,39.0355028 C40.0899113,39.6522792 39.5906162,40.1515743 38.9738399,40.1515743 C38.3583986,40.1515743 37.8577685,39.6522792 37.8577685,39.0355028 C37.8577685,38.4187265 38.3583986,37.9194314 38.9738399,37.9194314 Z M130.197056,28.7971099 C130.813832,28.7971099 131.313127,29.296405 131.313127,29.9131813 C131.313127,30.5299576 130.813832,31.0292527 130.197056,31.0292527 C129.581614,31.0292527 129.080984,30.5299576 129.080984,29.9131813 C129.080984,29.296405 129.581614,28.7971099 130.197056,28.7971099 Z M57.218483,28.7971099 C57.8352593,28.7971099 58.3345544,29.296405 58.3345544,29.9131813 C58.3345544,30.5299576 57.8352593,31.0292527 57.218483,31.0292527 C56.6030417,31.0292527 56.1024116,30.5299576 56.1024116,29.9131813 C56.1024116,29.296405 56.6030417,28.7971099 57.218483,28.7971099 Z M48.0961615,28.7971099 C48.7129378,28.7971099 49.2122329,29.296405 49.2122329,29.9131813 C49.2122329,30.5299576 48.7129378,31.0292527 48.0961615,31.0292527 C47.4807202,31.0292527 46.98009,30.5299576 46.98009,29.9131813 C46.98009,29.296405 47.4807202,28.7971099 48.0961615,28.7971099 Z M75.4631261,28.7971099 C76.0799025,28.7971099 76.5791976,29.296405 76.5791976,29.9131813 C76.5791976,30.5299576 76.0799025,31.0292527 75.4631261,31.0292527 C74.8476848,31.0292527 74.3470547,30.5299576 74.3470547,29.9131813 C74.3470547,29.296405 74.8476848,28.7971099 75.4631261,28.7971099 Z M121.074734,28.7971099 C121.69151,28.7971099 122.190805,29.296405 122.190805,29.9131813 C122.190805,30.5299576 121.69151,31.0292527 121.074734,31.0292527 C120.459293,31.0292527 119.958663,30.5299576 119.958663,29.9131813 C119.958663,29.296405 120.459293,28.7971099 121.074734,28.7971099 Z M20.7291968,28.7971099 C21.3459731,28.7971099 21.8452682,29.296405 21.8452682,29.9131813 C21.8452682,30.5299576 21.3459731,31.0292527 20.7291968,31.0292527 C20.1137555,31.0292527 19.6131253,30.5299576 19.6131253,29.9131813 C19.6131253,29.296405 20.1137555,28.7971099 20.7291968,28.7971099 Z M111.952412,28.7971099 C112.569189,28.7971099 113.068484,29.296405 113.068484,29.9131813 C113.068484,30.5299576 112.569189,31.0292527 111.952412,31.0292527 C111.336971,31.0292527 110.836341,30.5299576 110.836341,29.9131813 C110.836341,29.296405 111.336971,28.7971099 111.952412,28.7971099 Z M102.830091,28.7971099 C103.446867,28.7971099 103.946162,29.296405 103.946162,29.9131813 C103.946162,30.5299576 103.446867,31.0292527 102.830091,31.0292527 C102.21465,31.0292527 101.714019,30.5299576 101.714019,29.9131813 C101.714019,29.296405 102.21465,28.7971099 102.830091,28.7971099 Z M2.48455365,28.7971099 C3.10132996,28.7971099 3.60062507,29.296405 3.60062507,29.9131813 C3.60062507,30.5299576 3.10132996,31.0292527 2.48455365,31.0292527 C1.86911234,31.0292527 1.36848222,30.5299576 1.36848222,29.9131813 C1.36848222,29.296405 1.86911234,28.7971099 2.48455365,28.7971099 Z M93.7077693,28.7971099 C94.3245456,28.7971099 94.8238407,29.296405 94.8238407,29.9131813 C94.8238407,30.5299576 94.3245456,31.0292527 93.7077693,31.0292527 C93.092328,31.0292527 92.5916978,30.5299576 92.5916978,29.9131813 C92.5916978,29.296405 93.092328,28.7971099 93.7077693,28.7971099 Z M29.8515183,28.7971099 C30.4682946,28.7971099 30.9675898,29.296405 30.9675898,29.9131813 C30.9675898,30.5299576 30.4682946,31.0292527 29.8515183,31.0292527 C29.236077,31.0292527 28.7354469,30.5299576 28.7354469,29.9131813 C28.7354469,29.296405 29.236077,28.7971099 29.8515183,28.7971099 Z M66.3408046,28.7971099 C66.9575809,28.7971099 67.456876,29.296405 67.456876,29.9131813 C67.456876,30.5299576 66.9575809,31.0292527 66.3408046,31.0292527 C65.7253633,31.0292527 65.2247332,30.5299576 65.2247332,29.9131813 C65.2247332,29.296405 65.7253633,28.7971099 66.3408046,28.7971099 Z M84.5854477,28.7971099 C85.202224,28.7971099 85.7015191,29.296405 85.7015191,29.9131813 C85.7015191,30.5299576 85.202224,31.0292527 84.5854477,31.0292527 C83.9700064,31.0292527 83.4693763,30.5299576 83.4693763,29.9131813 C83.4693763,29.296405 83.9700064,28.7971099 84.5854477,28.7971099 Z M38.9738399,28.7971099 C39.5906162,28.7971099 40.0899113,29.296405 40.0899113,29.9131813 C40.0899113,30.5299576 39.5906162,31.0292527 38.9738399,31.0292527 C38.3583986,31.0292527 37.8577685,30.5299576 37.8577685,29.9131813 C37.8577685,29.296405 38.3583986,28.7971099 38.9738399,28.7971099 Z M11.6068752,28.7971099 C12.2236515,28.7971099 12.7229466,29.296405 12.7229466,29.9131813 C12.7229466,30.5299576 12.2236515,31.0292527 11.6068752,31.0292527 C10.9914339,31.0292527 10.4908038,30.5299576 10.4908038,29.9131813 C10.4908038,29.296405 10.9914339,28.7971099 11.6068752,28.7971099 Z M11.6068752,19.6747883 C12.2236515,19.6747883 12.7229466,20.1740834 12.7229466,20.7908597 C12.7229466,21.407636 12.2236515,21.9069312 11.6068752,21.9069312 C10.9914339,21.9069312 10.4908038,21.407636 10.4908038,20.7908597 C10.4908038,20.1740834 10.9914339,19.6747883 11.6068752,19.6747883 Z M102.830091,19.6747883 C103.446867,19.6747883 103.946162,20.1740834 103.946162,20.7908597 C103.946162,21.407636 103.446867,21.9069312 102.830091,21.9069312 C102.21465,21.9069312 101.714019,21.407636 101.714019,20.7908597 C101.714019,20.1740834 102.21465,19.6747883 102.830091,19.6747883 Z M29.8515183,19.6747883 C30.4682946,19.6747883 30.9675898,20.1740834 30.9675898,20.7908597 C30.9675898,21.407636 30.4682946,21.9069312 29.8515183,21.9069312 C29.236077,21.9069312 28.7354469,21.407636 28.7354469,20.7908597 C28.7354469,20.1740834 29.236077,19.6747883 29.8515183,19.6747883 Z M66.3408046,19.6747883 C66.9575809,19.6747883 67.456876,20.1740834 67.456876,20.7908597 C67.456876,21.407636 66.9575809,21.9069312 66.3408046,21.9069312 C65.7253633,21.9069312 65.2247332,21.407636 65.2247332,20.7908597 C65.2247332,20.1740834 65.7253633,19.6747883 66.3408046,19.6747883 Z M38.9738399,19.6747883 C39.5906162,19.6747883 40.0899113,20.1740834 40.0899113,20.7908597 C40.0899113,21.407636 39.5906162,21.9069312 38.9738399,21.9069312 C38.3583986,21.9069312 37.8577685,21.407636 37.8577685,20.7908597 C37.8577685,20.1740834 38.3583986,19.6747883 38.9738399,19.6747883 Z M93.7077693,19.6747883 C94.3245456,19.6747883 94.8238407,20.1740834 94.8238407,20.7908597 C94.8238407,21.407636 94.3245456,21.9069312 93.7077693,21.9069312 C93.092328,21.9069312 92.5916978,21.407636 92.5916978,20.7908597 C92.5916978,20.1740834 93.092328,19.6747883 93.7077693,19.6747883 Z M20.7291968,19.6747883 C21.3459731,19.6747883 21.8452682,20.1740834 21.8452682,20.7908597 C21.8452682,21.407636 21.3459731,21.9069312 20.7291968,21.9069312 C20.1137555,21.9069312 19.6131253,21.407636 19.6131253,20.7908597 C19.6131253,20.1740834 20.1137555,19.6747883 20.7291968,19.6747883 Z M121.074734,19.6747883 C121.69151,19.6747883 122.190805,20.1740834 122.190805,20.7908597 C122.190805,21.407636 121.69151,21.9069312 121.074734,21.9069312 C120.459293,21.9069312 119.958663,21.407636 119.958663,20.7908597 C119.958663,20.1740834 120.459293,19.6747883 121.074734,19.6747883 Z M2.48455365,19.6747883 C3.10132996,19.6747883 3.60062507,20.1740834 3.60062507,20.7908597 C3.60062507,21.407636 3.10132996,21.9069312 2.48455365,21.9069312 C1.86911234,21.9069312 1.36848222,21.407636 1.36848222,20.7908597 C1.36848222,20.1740834 1.86911234,19.6747883 2.48455365,19.6747883 Z M111.952412,19.6747883 C112.569189,19.6747883 113.068484,20.1740834 113.068484,20.7908597 C113.068484,21.407636 112.569189,21.9069312 111.952412,21.9069312 C111.336971,21.9069312 110.836341,21.407636 110.836341,20.7908597 C110.836341,20.1740834 111.336971,19.6747883 111.952412,19.6747883 Z M75.4631261,19.6747883 C76.0799025,19.6747883 76.5791976,20.1740834 76.5791976,20.7908597 C76.5791976,21.407636 76.0799025,21.9069312 75.4631261,21.9069312 C74.8476848,21.9069312 74.3470547,21.407636 74.3470547,20.7908597 C74.3470547,20.1740834 74.8476848,19.6747883 75.4631261,19.6747883 Z M57.218483,19.6747883 C57.8352593,19.6747883 58.3345544,20.1740834 58.3345544,20.7908597 C58.3345544,21.407636 57.8352593,21.9069312 57.218483,21.9069312 C56.6030417,21.9069312 56.1024116,21.407636 56.1024116,20.7908597 C56.1024116,20.1740834 56.6030417,19.6747883 57.218483,19.6747883 Z M84.5854477,19.6747883 C85.202224,19.6747883 85.7015191,20.1740834 85.7015191,20.7908597 C85.7015191,21.407636 85.202224,21.9069312 84.5854477,21.9069312 C83.9700064,21.9069312 83.4693763,21.407636 83.4693763,20.7908597 C83.4693763,20.1740834 83.9700064,19.6747883 84.5854477,19.6747883 Z M130.197056,19.6747883 C130.813832,19.6747883 131.313127,20.1740834 131.313127,20.7908597 C131.313127,21.407636 130.813832,21.9069312 130.197056,21.9069312 C129.581614,21.9069312 129.080984,21.407636 129.080984,20.7908597 C129.080984,20.1740834 129.581614,19.6747883 130.197056,19.6747883 Z M48.0961615,19.6747883 C48.7129378,19.6747883 49.2122329,20.1740834 49.2122329,20.7908597 C49.2122329,21.407636 48.7129378,21.9069312 48.0961615,21.9069312 C47.4807202,21.9069312 46.98009,21.407636 46.98009,20.7908597 C46.98009,20.1740834 47.4807202,19.6747883 48.0961615,19.6747883 Z M130.197056,10.5524667 C130.813832,10.5524667 131.313127,11.0517618 131.313127,11.6685382 C131.313127,12.2853145 130.813832,12.7846096 130.197056,12.7846096 C129.581614,12.7846096 129.080984,12.2853145 129.080984,11.6685382 C129.080984,11.0517618 129.581614,10.5524667 130.197056,10.5524667 Z M57.218483,10.5524667 C57.8352593,10.5524667 58.3345544,11.0517618 58.3345544,11.6685382 C58.3345544,12.2853145 57.8352593,12.7846096 57.218483,12.7846096 C56.6030417,12.7846096 56.1024116,12.2853145 56.1024116,11.6685382 C56.1024116,11.0517618 56.6030417,10.5524667 57.218483,10.5524667 Z M48.0961615,10.5524667 C48.7129378,10.5524667 49.2122329,11.0517618 49.2122329,11.6685382 C49.2122329,12.2853145 48.7129378,12.7846096 48.0961615,12.7846096 C47.4807202,12.7846096 46.98009,12.2853145 46.98009,11.6685382 C46.98009,11.0517618 47.4807202,10.5524667 48.0961615,10.5524667 Z M111.952412,10.5524667 C112.569189,10.5524667 113.068484,11.0517618 113.068484,11.6685382 C113.068484,12.2853145 112.569189,12.7846096 111.952412,12.7846096 C111.336971,12.7846096 110.836341,12.2853145 110.836341,11.6685382 C110.836341,11.0517618 111.336971,10.5524667 111.952412,10.5524667 Z M102.830091,10.5524667 C103.446867,10.5524667 103.946162,11.0517618 103.946162,11.6685382 C103.946162,12.2853145 103.446867,12.7846096 102.830091,12.7846096 C102.21465,12.7846096 101.714019,12.2853145 101.714019,11.6685382 C101.714019,11.0517618 102.21465,10.5524667 102.830091,10.5524667 Z M20.7291968,10.5524667 C21.3459731,10.5524667 21.8452682,11.0517618 21.8452682,11.6685382 C21.8452682,12.2853145 21.3459731,12.7846096 20.7291968,12.7846096 C20.1137555,12.7846096 19.6131253,12.2853145 19.6131253,11.6685382 C19.6131253,11.0517618 20.1137555,10.5524667 20.7291968,10.5524667 Z M93.7077693,10.5524667 C94.3245456,10.5524667 94.8238407,11.0517618 94.8238407,11.6685382 C94.8238407,12.2853145 94.3245456,12.7846096 93.7077693,12.7846096 C93.092328,12.7846096 92.5916978,12.2853145 92.5916978,11.6685382 C92.5916978,11.0517618 93.092328,10.5524667 93.7077693,10.5524667 Z M84.5854477,10.5524667 C85.202224,10.5524667 85.7015191,11.0517618 85.7015191,11.6685382 C85.7015191,12.2853145 85.202224,12.7846096 84.5854477,12.7846096 C83.9700064,12.7846096 83.4693763,12.2853145 83.4693763,11.6685382 C83.4693763,11.0517618 83.9700064,10.5524667 84.5854477,10.5524667 Z M2.48455365,10.5524667 C3.10132996,10.5524667 3.60062507,11.0517618 3.60062507,11.6685382 C3.60062507,12.2853145 3.10132996,12.7846096 2.48455365,12.7846096 C1.86911234,12.7846096 1.36848222,12.2853145 1.36848222,11.6685382 C1.36848222,11.0517618 1.86911234,10.5524667 2.48455365,10.5524667 Z M75.4631261,10.5524667 C76.0799025,10.5524667 76.5791976,11.0517618 76.5791976,11.6685382 C76.5791976,12.2853145 76.0799025,12.7846096 75.4631261,12.7846096 C74.8476848,12.7846096 74.3470547,12.2853145 74.3470547,11.6685382 C74.3470547,11.0517618 74.8476848,10.5524667 75.4631261,10.5524667 Z M29.8515183,10.5524667 C30.4682946,10.5524667 30.9675898,11.0517618 30.9675898,11.6685382 C30.9675898,12.2853145 30.4682946,12.7846096 29.8515183,12.7846096 C29.236077,12.7846096 28.7354469,12.2853145 28.7354469,11.6685382 C28.7354469,11.0517618 29.236077,10.5524667 29.8515183,10.5524667 Z M66.3408046,10.5524667 C66.9575809,10.5524667 67.456876,11.0517618 67.456876,11.6685382 C67.456876,12.2853145 66.9575809,12.7846096 66.3408046,12.7846096 C65.7253633,12.7846096 65.2247332,12.2853145 65.2247332,11.6685382 C65.2247332,11.0517618 65.7253633,10.5524667 66.3408046,10.5524667 Z M121.074734,10.5524667 C121.69151,10.5524667 122.190805,11.0517618 122.190805,11.6685382 C122.190805,12.2853145 121.69151,12.7846096 121.074734,12.7846096 C120.459293,12.7846096 119.958663,12.2853145 119.958663,11.6685382 C119.958663,11.0517618 120.459293,10.5524667 121.074734,10.5524667 Z M38.9738399,10.5524667 C39.5906162,10.5524667 40.0899113,11.0517618 40.0899113,11.6685382 C40.0899113,12.2853145 39.5906162,12.7846096 38.9738399,12.7846096 C38.3583986,12.7846096 37.8577685,12.2853145 37.8577685,11.6685382 C37.8577685,11.0517618 38.3583986,10.5524667 38.9738399,10.5524667 Z M11.6068752,10.5524667 C12.2236515,10.5524667 12.7229466,11.0517618 12.7229466,11.6685382 C12.7229466,12.2853145 12.2236515,12.7846096 11.6068752,12.7846096 C10.9914339,12.7846096 10.4908038,12.2853145 10.4908038,11.6685382 C10.4908038,11.0517618 10.9914339,10.5524667 11.6068752,10.5524667 Z M130.197056,1.43014517 C130.813832,1.43014517 131.313127,1.92944028 131.313127,2.5462166 C131.313127,3.16299291 130.813832,3.66228803 130.197056,3.66228803 C129.581614,3.66228803 129.080984,3.16299291 129.080984,2.5462166 C129.080984,1.92944028 129.581614,1.43014517 130.197056,1.43014517 Z M121.074734,1.43014517 C121.69151,1.43014517 122.190805,1.92944028 122.190805,2.5462166 C122.190805,3.16299291 121.69151,3.66228803 121.074734,3.66228803 C120.459293,3.66228803 119.958663,3.16299291 119.958663,2.5462166 C119.958663,1.92944028 120.459293,1.43014517 121.074734,1.43014517 Z M111.952412,1.43014517 C112.569189,1.43014517 113.068484,1.92944028 113.068484,2.5462166 C113.068484,3.16299291 112.569189,3.66228803 111.952412,3.66228803 C111.336971,3.66228803 110.836341,3.16299291 110.836341,2.5462166 C110.836341,1.92944028 111.336971,1.43014517 111.952412,1.43014517 Z M102.830091,1.43014517 C103.446867,1.43014517 103.946162,1.92944028 103.946162,2.5462166 C103.946162,3.16299291 103.446867,3.66228803 102.830091,3.66228803 C102.21465,3.66228803 101.714019,3.16299291 101.714019,2.5462166 C101.714019,1.92944028 102.21465,1.43014517 102.830091,1.43014517 Z M93.7077693,1.43014517 C94.3245456,1.43014517 94.8238407,1.92944028 94.8238407,2.5462166 C94.8238407,3.16299291 94.3245456,3.66228803 93.7077693,3.66228803 C93.092328,3.66228803 92.5916978,3.16299291 92.5916978,2.5462166 C92.5916978,1.92944028 93.092328,1.43014517 93.7077693,1.43014517 Z M84.5854477,1.43014517 C85.202224,1.43014517 85.7015191,1.92944028 85.7015191,2.5462166 C85.7015191,3.16299291 85.202224,3.66228803 84.5854477,3.66228803 C83.9700064,3.66228803 83.4693763,3.16299291 83.4693763,2.5462166 C83.4693763,1.92944028 83.9700064,1.43014517 84.5854477,1.43014517 Z M75.4631261,1.43014517 C76.0799025,1.43014517 76.5791976,1.92944028 76.5791976,2.5462166 C76.5791976,3.16299291 76.0799025,3.66228803 75.4631261,3.66228803 C74.8476848,3.66228803 74.3470547,3.16299291 74.3470547,2.5462166 C74.3470547,1.92944028 74.8476848,1.43014517 75.4631261,1.43014517 Z M66.3408046,1.43014517 C66.9575809,1.43014517 67.456876,1.92944028 67.456876,2.5462166 C67.456876,3.16299291 66.9575809,3.66228803 66.3408046,3.66228803 C65.7253633,3.66228803 65.2247332,3.16299291 65.2247332,2.5462166 C65.2247332,1.92944028 65.7253633,1.43014517 66.3408046,1.43014517 Z M57.218483,1.43014517 C57.8352593,1.43014517 58.3345544,1.92944028 58.3345544,2.5462166 C58.3345544,3.16299291 57.8352593,3.66228803 57.218483,3.66228803 C56.6030417,3.66228803 56.1024116,3.16299291 56.1024116,2.5462166 C56.1024116,1.92944028 56.6030417,1.43014517 57.218483,1.43014517 Z M48.0961615,1.43014517 C48.7129378,1.43014517 49.2122329,1.92944028 49.2122329,2.5462166 C49.2122329,3.16299291 48.7129378,3.66228803 48.0961615,3.66228803 C47.4807202,3.66228803 46.98009,3.16299291 46.98009,2.5462166 C46.98009,1.92944028 47.4807202,1.43014517 48.0961615,1.43014517 Z M38.9738399,1.43014517 C39.5906162,1.43014517 40.0899113,1.92944028 40.0899113,2.5462166 C40.0899113,3.16299291 39.5906162,3.66228803 38.9738399,3.66228803 C38.3583986,3.66228803 37.8577685,3.16299291 37.8577685,2.5462166 C37.8577685,1.92944028 38.3583986,1.43014517 38.9738399,1.43014517 Z M29.8515183,1.43014517 C30.4682946,1.43014517 30.9675898,1.92944028 30.9675898,2.5462166 C30.9675898,3.16299291 30.4682946,3.66228803 29.8515183,3.66228803 C29.236077,3.66228803 28.7354469,3.16299291 28.7354469,2.5462166 C28.7354469,1.92944028 29.236077,1.43014517 29.8515183,1.43014517 Z M20.7291968,1.43014517 C21.3459731,1.43014517 21.8452682,1.92944028 21.8452682,2.5462166 C21.8452682,3.16299291 21.3459731,3.66228803 20.7291968,3.66228803 C20.1137555,3.66228803 19.6131253,3.16299291 19.6131253,2.5462166 C19.6131253,1.92944028 20.1137555,1.43014517 20.7291968,1.43014517 Z M11.6068752,1.43014517 C12.2236515,1.43014517 12.7229466,1.92944028 12.7229466,2.5462166 C12.7229466,3.16299291 12.2236515,3.66228803 11.6068752,3.66228803 C10.9914339,3.66228803 10.4908038,3.16299291 10.4908038,2.5462166 C10.4908038,1.92944028 10.9914339,1.43014517 11.6068752,1.43014517 Z M2.48455365,1.43014517 C3.10132996,1.43014517 3.60062507,1.92944028 3.60062507,2.5462166 C3.60062507,3.16299291 3.10132996,3.66228803 2.48455365,3.66228803 C1.86911234,3.66228803 1.36848222,3.16299291 1.36848222,2.5462166 C1.36848222,1.92944028 1.86911234,1.43014517 2.48455365,1.43014517 Z" id="Combined-Shape" fill="#112129" mask="url(#mask-2)"></path>
                </g>
                <path d="M29.0815647,23.4506491 C28.2733868,15.7965867 33.5862645,9.24376057 39.9074256,10.1002776 L39.9074256,10.1002776 L273.335883,41.7236407 C278.304393,42.3956771 282.062963,47.4933655 282.062963,53.5624007 L282.062963,53.5624007 L282.062963,170.73017 C282.062963,176.565781 278.578956,181.542992 273.830717,182.486102 L273.830717,182.486102 L60.5524153,224.841342 C55.068905,225.931283 49.9344158,221.285384 49.2301687,214.597021 L49.2301687,214.597021 Z M285.407407,41.2128713 L324.425926,51.9660126 L321.288274,64.6039604 L285.407407,41.2128713 Z M323.625514,16.7079208 L330,32.7222225 L286.522222,33.4158416 L323.625514,16.7079208 Z M288.742391,0 L306.588889,6.2418668 L282.062963,26.7326733 L288.742391,0 Z" id="Combined-Shape" fill="#000000"></path>
            </g>
        </g>
    </g>
</svg>