<?xml version="1.0" encoding="UTF-8"?>
<svg width="309px" height="231px" viewBox="0 0 309 231" version="1.1" xmlns="http://www.w3.org/2000/svg" xmlns:xlink="http://www.w3.org/1999/xlink">
    <title>Paint 18</title>
    <g id="Page-1" stroke="none" stroke-width="1" fill="none" fill-rule="evenodd">
        <g id="Desktop-HD" transform="translate(-4884.000000, -5189.000000)" fill="#000000">
            <path d="M5138.68216,5189.31447 C5141.03562,5188.58584 5143.84489,5189.33976 5146.44961,5189.42705 C5148.87126,5189.42072 5151.29417,5189.41313 5153.71582,5189.40681 C5155.87611,5188.97545 5157.93035,5189.064 5159.67651,5190.64269 C5163.68776,5191.12844 5167.372,5192.70206 5171.11179,5194.09353 C5173.1837,5195.14599 5175.25687,5196.19971 5177.00809,5197.08899 C5176.08261,5199.88711 5175.16092,5202.44614 5174.43493,5205.06084 C5174.28594,5205.60099 5174.90209,5206.3372 5175.11041,5206.99878 C5175.90837,5209.52873 5176.30104,5212.01313 5174.14706,5214.14841 C5174.54982,5215.25399 5174.9286,5216.37096 5175.36167,5217.46516 C5177.28207,5222.31507 5177.29091,5222.3138 5176.11291,5228.28574 C5176.07756,5228.45904 5175.74802,5228.57415 5175.55611,5228.71709 C5176.05736,5230.40963 5177.36035,5231.36468 5178.73405,5232.29823 C5179.67846,5232.93831 5180.51935,5233.73018 5181.40569,5234.45501 C5183.0117,5234.94202 5184.29576,5235.88443 5184.9422,5237.43528 C5185.11897,5237.86032 5184.66317,5238.54973 5184.49777,5239.1177 C5185.00281,5239.9627 5185.50658,5240.8077 5186.01036,5241.65397 C5187.13027,5242.80003 5187.59112,5244.15355 5186.67827,5245.55008 C5185.04069,5248.05599 5183.47634,5250.41896 5183.83239,5253.74711 C5183.99021,5255.21827 5183.04832,5256.99935 5181.42463,5257.92025 C5181.1658,5259.47111 5181.59003,5261.23068 5180.05345,5262.3894 C5180.01179,5264.90669 5180.10901,5267.45435 5178.48784,5269.62884 C5177.44115,5271.40612 5175.68868,5270.96212 5174.09908,5271.02663 C5173.0183,5273.08221 5171.93752,5275.13906 5170.97669,5276.96568 C5171.34537,5279.65248 5173.25819,5281.59674 5172.6067,5284.10139 C5172.96022,5286.36189 5172.30115,5288.3441 5170.82013,5290.32379 C5170.11939,5289.61161 5169.44138,5288.92346 5168.70024,5288.16954 C5168.46666,5292.8259 5168.49696,5292.84614 5171.72415,5294.31857 C5172.55367,5294.69806 5173.30617,5295.25085 5174.09403,5295.72395 C5176.20887,5295.95544 5178.37926,5295.97442 5180.42213,5296.49306 C5181.72007,5296.81942 5183.27432,5297.62774 5183.89804,5298.6979 C5184.50787,5299.74404 5184.08364,5301.39483 5184.11268,5302.78124 L5184.11268,5302.78124 L5184.31848,5306.03727 L5184.31848,5306.03727 L5184.02683,5310.3774 C5184.26672,5311.61707 5184.23642,5312.74795 5182.85388,5313.34249 C5181.99279,5313.96739 5181.62664,5314.81365 5181.93345,5315.83322 C5182.60767,5318.07728 5181.45114,5319.46749 5179.79715,5320.65403 C5179.00045,5321.07527 5178.24416,5321.63692 5177.39696,5321.88359 C5176.26947,5322.20995 5175.06748,5322.2694 5173.90716,5322.4971 C5173.72283,5322.53252 5173.59152,5322.8437 5173.39203,5323.07772 C5173.66601,5326.56272 5173.94504,5330.09705 5174.22407,5333.63138 C5176.1167,5333.65668 5178.01058,5333.68451 5179.90447,5333.70981 C5181.45114,5331.55051 5183.96875,5332.80789 5186.35252,5331.79591 C5186.77675,5330.60178 5187.31714,5329.08507 5187.85879,5327.56331 C5189.69964,5327.83402 5190.24003,5329.1167 5189.90797,5330.66629 C5189.56202,5332.28039 5188.86633,5333.81987 5188.2363,5335.64522 C5186.43459,5335.50607 5184.6013,5335.36566 5182.76802,5335.22525 C5180.03199,5336.07152 5180.03199,5336.07152 5180.02568,5339.58435 C5181.02439,5340.35977 5181.3615,5341.40085 5181.32109,5342.63546 C5181.25039,5344.72393 5180.1734,5345.67519 5178.21891,5345.19197 C5177.33131,5344.9706 5176.50558,5344.50256 5175.65206,5344.14584 C5174.67608,5346.96926 5173.72661,5349.80026 5172.67488,5352.59332 C5172.58649,5352.82734 5171.80748,5352.79951 5171.34916,5352.89312 C5170.55751,5353.70903 5169.76587,5354.52241 5168.91488,5355.4003 C5170.73427,5356.90561 5172.33776,5358.23257 5173.95135,5359.56965 C5173.35667,5361.46711 5173.03724,5363.15205 5172.27842,5364.60424 C5171.94257,5365.24558 5170.71407,5365.41888 5169.89086,5365.80343 C5168.42121,5366.66235 5168.13839,5368.09936 5168.3303,5369.56925 C5168.60555,5371.68555 5169.10301,5373.77276 5169.50072,5375.84605 C5168.54621,5377.84217 5166.73186,5378.43671 5164.87207,5378.94523 C5163.25974,5379.38671 5161.64362,5379.81427 5160.01867,5380.20641 C5158.17655,5380.65421 5156.32181,5381.05647 5154.43802,5381.3335 C5151.66537,5382.24681 5150.62879,5385.67362 5147.50387,5386.16822 C5147.05818,5386.23906 5146.56956,5386.0392 5146.01402,5385.95065 C5145.14788,5384.38714 5144.25523,5382.77557 5143.12521,5380.73643 C5141.73762,5382.00393 5140.45862,5382.77051 5139.75031,5383.89507 C5137.85263,5386.90823 5135.13554,5387.92654 5131.77831,5387.82787 C5130.33264,5387.78359 5128.88572,5387.80889 5127.43879,5387.8013 C5123.67501,5389.1194 5119.79633,5389.5242 5115.83558,5389.25855 C5112.90385,5389.69244 5110.16276,5391.2648 5107.07068,5390.73477 C5106.601,5390.76893 5106.13258,5390.82079 5105.66794,5390.8929 C5104.92554,5392.51206 5103.62633,5393.48988 5101.97865,5394.01864 C5097.94341,5395.31524 5093.94858,5396.82688 5089.59264,5396.57515 C5087.36417,5397.94259 5084.90212,5398.20823 5082.36305,5398.11968 C5081.62191,5398.55104 5080.92748,5399.11395 5080.13205,5399.38339 C5078.45912,5399.94757 5076.73316,5400.35616 5075.02992,5400.82799 C5074.21429,5401.27453 5073.25472,5401.57938 5072.63226,5402.21566 C5072.19793,5402.65967 5072.26485,5403.57172 5072.03758,5404.25101 C5071.18281,5406.80119 5069.56543,5407.4438 5067.04404,5406.1687 C5066.4481,5405.86511 5066.00493,5405.25792 5065.54913,5404.84301 C5062.95956,5405.34015 5062.63507,5408.04466 5060.79674,5409.29445 C5057.50138,5407.96749 5055.67946,5411.10336 5053.06716,5411.98631 C5050.3084,5412.91986 5048.70618,5414.89448 5048.31604,5417.91903 C5046.23655,5418.3175 5044.38938,5418.67043 5042.57125,5419.01956 C5041.12053,5418.28588 5040.74302,5416.81345 5040.02713,5415.59275 C5036.53859,5414.97418 5033.38338,5416.61485 5030.11958,5417.28022 C5027.7598,5417.76091 5025.59067,5418.53887 5023.1463,5417.8444 C5022.57056,5417.68122 5021.79028,5418.2416 5021.10469,5418.46677 C5019.48731,5418.77542 5017.83711,5418.96517 5016.26392,5419.42182 C5013.8852,5420.11376 5011.4787,5420.38573 5009.34871,5419.07775 C5006.11143,5417.08795 5002.62668,5416.92603 4999.02956,5417.01458 C4997.14577,5417.06265 4995.25946,5417.02343 4993.60421,5417.02343 C4991.59669,5415.2841 4990.62576,5413.47013 4990.46667,5411.221 C4987.50842,5410.6758 4984.63098,5409.00604 4981.51996,5410.94904 C4980.85078,5411.36774 4979.60713,5411.1527 4978.73847,5410.87567 C4977.88496,5410.60496 4977.17159,5409.88646 4976.25622,5409.26915 C4976.47717,5407.5627 4976.68423,5405.96504 4976.91403,5404.1827 C4979.85586,5402.71406 4983.47445,5403.12645 4986.14735,5400.97473 C4988.49072,5399.10889 4989.13843,5396.56756 4989.01595,5393.72137 C4985.16127,5394.86744 4981.36213,5396.29433 4977.43295,5397.05837 C4974.87242,5397.55804 4972.35481,5396.31204 4969.6958,5394.85858 C4969.82079,5393.59108 4969.96852,5392.25148 4970.07962,5390.90681 C4970.18442,5389.63425 4969.82584,5388.55902 4968.66426,5387.86961 C4968.46603,5388.00243 4968.18953,5388.09098 4968.08094,5388.27567 C4966.17064,5391.52159 4963.69723,5393.29255 4959.84002,5391.47858 C4958.62667,5390.90808 4957.50044,5391.22305 4956.4386,5391.82392 C4954.59269,5392.86878 4952.78087,5393.97437 4950.95391,5395.05466 C4949.01583,5394.55879 4947.1876,5394.09201 4945.35937,5393.62524 C4944.25586,5393.33556 4943.13847,5392.38936 4942.01855,5393.41525 C4940.47567,5394.82949 4938.90627,5395.42403 4936.7788,5394.63721 C4935.75232,5394.25772 4934.46826,5394.5727 4933.06931,5394.5727 C4932.39256,5393.23689 4931.8648,5391.62279 4930.85599,5390.40841 C4930.17293,5389.58491 4928.81186,5389.32812 4927.66669,5388.7766 C4928.85479,5386.29978 4931.49739,5386.58819 4933.49228,5385.71663 C4935.44551,5384.86404 4937.46565,5384.16704 4939.45802,5383.40173 C4939.63604,5380.65547 4941.06782,5379.16534 4943.84173,5379.02366 L4943.84173,5379.02366 L4943.82532,5379.01986 C4943.71926,5378.33172 4943.78997,5377.54238 4943.47179,5376.97314 C4942.58167,5375.37674 4942.69656,5373.91949 4943.53745,5372.35346 C4943.85057,5371.77157 4943.80007,5370.99488 4943.91496,5370.30547 C4943.18014,5370.77857 4942.439,5371.24281 4941.71048,5371.72603 C4940.17265,5372.7494 4940.17517,5372.75445 4939.46054,5370.35101 C4938.79895,5370.52051 4938.13609,5370.68875 4937.29773,5370.90127 C4937.26364,5371.58436 4937.06289,5372.28136 4937.23207,5372.86957 C4937.61338,5374.19779 4938.5338,5375.5589 4937.27121,5376.7758 C4936.2321,5377.7764 4935.09451,5376.44944 4934.03646,5376.56455 C4932.92285,5376.68852 4931.85596,5377.24764 4930.76887,5377.61701 C4930.5858,5378.28997 4930.40272,5378.96168 4930.24742,5379.52838 C4928.45202,5380.96286 4926.97479,5378.6176 4925.42685,5379.31587 C4924.1832,5379.87752 4923.0898,5380.77438 4921.61762,5381.72438 C4920.49644,5380.71619 4919.32475,5379.65994 4917.80459,5378.29124 C4920.41184,5376.43805 4922.66683,5374.83407 4924.92308,5373.23135 C4925.15666,5370.04615 4924.26274,5367.71607 4920.64795,5367.20882 C4920.08357,5367.12912 4919.61641,5366.36002 4919.1038,5365.90842 C4918.63917,5366.68006 4917.8753,5367.41121 4917.76293,5368.22965 C4917.26547,5371.85885 4915.73142,5374.93653 4913.3224,5377.62966 C4913.49159,5378.08125 4913.74915,5378.51893 4913.81481,5378.98318 C4914.04081,5380.61752 4912.77191,5382.05453 4911.4828,5381.608 C4908.42986,5380.54922 4905.4855,5379.33737 4905.74938,5375.58926 C4903.12319,5374.31543 4900.2306,5374.88973 4898.81524,5372.56597 C4897.43522,5370.30041 4894.23582,5371.04295 4892.9606,5368.75208 C4892.43789,5367.33152 4891.91518,5365.91095 4891.39373,5364.49165 C4889.55919,5362.05658 4889.24985,5360.71065 4890.05286,5358.66646 C4890.97202,5356.82466 4892.73081,5357.22565 4894.2838,5357.08018 L4894.2838,5357.08018 L4894.24845,5357.03464 C4894.54642,5356.15549 4894.61207,5355.05749 4895.18908,5354.44018 C4896.62843,5352.90324 4898.23192,5351.49659 4899.89854,5350.20252 C4901.40986,5349.02863 4903.16107,5348.33669 4905.16228,5348.40879 C4906.58648,5348.46066 4908.03593,5348.41638 4908.91596,5346.97179 C4909.66594,5346.4658 4910.41844,5345.96613 4911.16463,5345.45508 C4911.91461,5344.94024 4912.65828,5344.41654 4913.40447,5343.89664 C4912.29591,5341.72847 4910.97903,5339.78168 4908.70384,5338.61411 C4908.13063,5338.32064 4907.81624,5337.51738 4907.38191,5336.94814 C4906.49431,5335.88051 4904.87062,5334.82931 4904.84915,5333.7465 C4904.76456,5329.59233 4901.9654,5326.85872 4900.22555,5323.57612 C4897.62209,5320.83113 4895.16382,5317.97988 4893.40756,5314.41013 C4893.79644,5313.58157 4894.19289,5312.73783 4894.58808,5311.89283 C4894.44415,5310.70123 4894.6146,5309.626 4895.71684,5308.90623 C4895.68022,5308.44705 4895.68022,5307.98786 4895.71558,5307.52994 C4895.30776,5306.96703 4894.59692,5306.42815 4894.54642,5305.83361 C4894.37849,5303.8767 4893.96815,5302.09562 4892.63233,5300.56374 C4891.06924,5298.77001 4891.04399,5296.52342 4891.54777,5294.43874 C4892.26997,5291.45594 4893.38862,5288.56927 4894.33809,5285.64086 C4894.82292,5284.17349 4895.3065,5282.70612 4895.79133,5281.24002 L4895.79133,5281.24002 L4895.6979,5278.41407 C4895.3873,5278.05608 4894.85954,5277.73098 4894.80272,5277.33884 C4894.0136,5271.91591 4891.48969,5267.41387 4887.71202,5263.53799 C4887.39511,5263.21163 4887.26127,5262.70564 4887.04284,5262.28314 L4887.04284,5262.28314 C4885.83328,5261.65445 4885.57319,5260.58302 4885.65904,5259.34587 C4885.64642,5258.85886 4885.63379,5258.37311 4885.62117,5257.8861 C4885.10855,5256.55914 4884.59468,5255.23218 4884,5253.69524 C4885.87368,5251.18807 4887.01633,5248.33429 4890.39376,5247.18949 C4891.82427,5246.70374 4892.8394,5244.98717 4893.69417,5244.16494 C4896.84812,5243.20988 4899.57405,5242.33705 4902.33281,5241.5806 C4903.21158,5241.34025 4904.17493,5241.33899 4905.09789,5241.35417 C4908.98035,5241.41868 4912.6406,5240.5838 4916.08116,5238.78122 C4916.18974,5237.37077 4915.99404,5235.84648 4916.47004,5234.57392 C4917.40562,5232.06801 4917.64425,5229.58866 4917.54829,5226.93348 C4917.42203,5223.45607 4918.97628,5220.49983 4921.52419,5218.20391 C4922.32972,5217.47781 4923.63145,5217.30198 4924.70465,5216.87316 C4924.92055,5215.74354 4925.07206,5214.5747 4926.34223,5214.05859 L4926.34223,5214.05859 C4927.08463,5212.88343 4928.25127,5212.55075 4929.47724,5212.76959 C4930.88503,5213.02132 4932.25242,5213.51212 4933.6299,5213.91945 C4936.62098,5214.80493 4939.5868,5215.49434 4942.77358,5215.71571 C4946.34798,5215.96364 4949.82136,5216.48481 4953.37808,5215.57276 C4954.50431,5215.28309 4955.777,5215.57276 4956.98277,5215.5968 C4957.96886,5215.60945 4958.95494,5215.6221 4959.94102,5215.63475 C4960.33116,5215.48801 4960.73393,5215.40832 4961.14932,5215.3944 C4963.25659,5213.49694 4965.97873,5214.08389 4968.43194,5213.58676 C4971.29424,5215.56897 4974.33834,5214.051 4977.3029,5214.05353 C4982.2068,5211.51347 4987.2357,5209.39084 4992.91862,5209.68558 C4994.8668,5209.78805 4996.642,5209.30483 4998.52073,5208.82287 C5001.95751,5207.94119 5005.54831,5207.66036 5009.07473,5207.13034 C5013.08598,5206.52695 5017.09596,5205.92608 5021.10721,5205.32269 C5024.36091,5204.80026 5027.69794,5204.57383 5030.84179,5203.6719 C5033.89725,5202.79275 5036.89843,5202.24248 5040.04986,5202.44614 C5044.2606,5200.65115 5044.2606,5200.65115 5049.22763,5204.51943 C5049.42964,5204.39294 5049.79706,5204.27656 5049.80463,5204.13994 C5049.85766,5203.23675 5049.83241,5202.3285 5049.83241,5201.43164 C5052.26416,5198.99783 5054.9055,5199.84663 5057.55946,5200.88517 C5059.02028,5200.45381 5060.47983,5200.01993 5061.94065,5199.58731 C5064.12114,5197.41661 5067.04783,5199.19896 5069.24979,5198.29703 C5071.48962,5197.3774 5073.41633,5196.01629 5075.93646,5196.95616 C5076.89856,5197.31542 5077.81267,5197.3268 5078.598,5196.63992 C5080.16993,5195.26743 5082.0777,5195.22062 5083.98674,5195.18647 C5087.80103,5195.11563 5091.61531,5195.07389 5095.42833,5195.02076 C5096.42578,5194.75132 5097.40934,5193.67609 5098.42951,5194.97522 C5098.88278,5194.94359 5099.33226,5194.97016 5099.77796,5195.05618 C5101.66301,5192.35166 5104.4508,5191.50034 5107.53531,5191.35107 C5107.89515,5191.33463 5108.28024,5191.84694 5108.65397,5192.11258 C5111.65262,5191.6066 5114.77879,5192.14927 5117.66381,5191.60154 C5120.49075,5191.06392 5123.20027,5190.68949 5126.031,5191.00067 C5130.22659,5190.34162 5134.49414,5190.6098 5138.68216,5189.31447 Z M5189.00331,5342.00973 C5188.92993,5340.74839 5190.08855,5339.8517 5191.34888,5340.0204 C5192.51652,5340.17741 5192.92719,5341.01831 5192.99542,5341.99935 C5193.08296,5343.23343 5191.90245,5344.15478 5190.63568,5343.9783 C5189.45389,5343.86151 5189.06124,5342.99596 5189.00331,5342.00973 Z M5188.45233,5318.05183 C5189.71747,5317.82805 5190.51878,5318.35216 5190.98707,5319.17659 C5191.08668,5319.35208 5190.58568,5319.99161 5190.34186,5319.99868 C5189.11389,5320.03048 5188.30217,5319.48753 5188.00336,5318.54178 C5187.96322,5318.41576 5188.29325,5318.21671 5188.45233,5318.05183 Z" id="Paint-18"></path>
        </g>
    </g>
</svg>