<?xml version="1.0" encoding="UTF-8"?>
<svg width="330px" height="257px" viewBox="0 0 330 257" version="1.1" xmlns="http://www.w3.org/2000/svg" xmlns:xlink="http://www.w3.org/1999/xlink">
    <title>Paint 8</title>
    <g id="Page-1" stroke="none" stroke-width="1" fill="none" fill-rule="evenodd">
        <g id="Desktop-HD" transform="translate(-5325.000000, -4514.000000)" fill="#000000">
            <path d="M5553.4675,4652.817 C5553.4905,4652.606 5553.5135,4652.395 5553.5325,4652.183 C5553.5095,4652.394 5553.4875,4652.605 5553.4675,4652.817 L5553.4675,4652.817 Z M5572.153,4722.661 C5572.185,4722.704 5572.217,4722.747 5572.251,4722.789 C5572.449,4722.654 5572.648,4722.518 5572.847,4722.383 C5572.807,4722.326 5572.767,4722.268 5572.728,4722.211 C5572.536,4722.36 5572.344,4722.51 5572.153,4722.661 L5572.153,4722.661 Z M5627.565,4673.93962 C5627.665,4673.68962 5627.765,4673.44162 5627.866,4673.19162 C5627.722,4673.14662 5627.467,4673.03762 5627.452,4673.06462 C5627.322,4673.29662 5627.235,4673.55262 5627.134,4673.80162 C5627.277,4673.84662 5627.42,4673.89262 5627.565,4673.93962 L5627.565,4673.93962 Z M5557,4648.6848 C5557.17726,4649.12516 5557.35303,4649.5616 5557.53029,4650 L5560,4648.26606 C5559.82721,4647.84338 5559.65442,4647.42071 5559.48163,4647 C5558.65343,4647.56029 5557.82671,4648.12254 5557,4648.6848 L5557,4648.6848 Z M5626,4666.83107 L5626.76526,4668 C5627.84351,4667.39303 5628.92019,4666.78606 5630,4666.18054 C5629.74178,4665.78703 5629.48357,4665.39351 5629.22535,4665 C5628.1518,4665.60987 5627.07512,4666.2212 5626,4666.83107 L5626,4666.83107 Z M5473,4641.87956 C5472.62047,4641.58637 5472.24093,4641.29319 5471.86279,4641 C5471.24047,4642.17137 5470.62093,4643.34136 5470,4644.51411 C5470.31674,4644.67515 5470.63488,4644.83758 5470.95163,4645 L5473,4641.87956 Z M5535,4662.24363 C5535.26264,4662.49433 5535.52528,4662.74788 5535.78933,4663 C5536.62948,4662.68272 5537.67439,4662.57082 5538.25614,4661.99292 C5538.86332,4661.38952 5539.0257,4660.33569 5540,4658 C5537.45128,4660.16147 5536.22564,4661.20255 5535,4662.24363 L5535,4662.24363 Z M5418.99129,4705 C5414.55549,4705.85364 5412.31877,4708.71681 5412.19457,4712.99183 C5410.1247,4715 5408.44245,4716.62968 5406,4719 C5413.508,4716.83662 5419.25473,4710.35739 5418.99129,4705 L5418.99129,4705 Z M5556.89357,4655.50017 C5555.26159,4656.24026 5553.62961,4656.98035 5552,4657.72043 C5552.21405,4658.14741 5552.42928,4658.57303 5552.64451,4659 C5554.09674,4657.77872 5555.54896,4656.55879 5557,4655.33751 L5556.97635,4655 L5556.89357,4655.50017 Z M5651.03782,4605.40306 C5651.99831,4604.98057 5652.95881,4604.55943 5653.97154,4604.11279 C5657.74729,4622.41261 5650.2926,4638.52352 5645.09904,4656.25331 C5647.53467,4654.5647 5648.7474,4653.72374 5649.96012,4652.88279 L5649.80089,4652.74598 C5650.1028,4658.31077 5646.35762,4660.34542 5642.06468,4662.06891 C5641.74366,4664.13307 5641.43029,4666.14224 5641.04176,4668.63425 C5639.36917,4669.07954 5637.51951,4669.57178 5635.6673,4670.06535 C5633.60363,4672.68076 5631.54251,4675.29483 5629.48012,4677.90755 C5629.65082,4678.22945 5629.82024,4678.55269 5629.99094,4678.87726 C5634.36796,4677.01563 5638.74497,4675.154 5644.63917,4672.64723 C5643.8723,4675.21703 5643.87612,4677.20072 5642.97677,4677.90487 C5635.21381,4683.99408 5627.36932,4689.97464 5619.37578,4695.72184 C5615.82806,4698.27287 5611.88543,4700.20961 5607.95681,4702.5219 C5607.93134,4702.01223 5607.87146,4700.785 5607.74408,4698.16288 C5596.76714,4705.11585 5586.39147,4711.69058 5575.05276,4718.87558 C5577.09859,4719.65752 5578.27947,4720.10952 5579.97881,4720.75867 C5578.58647,4721.8947 5577.4833,4722.90867 5576.27567,4723.7617 C5563.37265,4732.86869 5549.00085,4739.66875 5534.10167,4742.32171 C5511.34526,4746.37626 5491.89327,4759.2025 5470.13557,4765.50764 C5467.46554,4766.28153 5465.1662,4768.47311 5463.33438,4769.61182 C5459.90767,4769.47904 5457.11917,4769.17324 5454.34978,4769.302 C5443.46965,4769.80362 5432.5959,4770.44205 5422.27756,4771 C5415.6063,4762.31148 5407.90321,4765.45265 5401.98481,4765.7048 C5395.45878,4763.51457 5390.09706,4761.71597 5384.63598,4759.8825 C5385.25508,4758.75452 5386.10475,4757.2054 5387.21302,4755.18952 C5385.59011,4754.42502 5384.31624,4753.82414 5383.01816,4753.2112 C5382.60161,4754.366 5382.33027,4755.11978 5381.99652,4756.04791 C5380.13922,4755.57982 5378.43988,4755.15197 5377.17747,4754.83409 C5373.77879,4755.80246 5370.82723,4756.64342 5367.87695,4757.48437 L5366.68588,4755.65761 C5368.86547,4752.47084 5371.04634,4749.2854 5373.22593,4746.09863 C5374.27942,4745.77539 5375.33036,4745.45081 5376.38385,4745.12757 L5376.52525,4745.27243 C5375.48068,4745.58494 5374.43356,4745.89744 5373.38898,4746.21263 C5368.90114,4746.85106 5364.41202,4747.49083 5359.60316,4748.17486 C5359.11018,4745.62115 5358.73566,4743.67502 5358.33311,4741.58001 C5355.87709,4741.20044 5353.70642,4740.86647 5351.42619,4740.51641 C5349.85679,4736.77839 5348.33706,4733.15437 5346.80077,4729.49414 C5347.24917,4727.61909 5347.67847,4725.82988 5348.30139,4723.23996 C5345.57149,4721.42258 5342.66961,4719.40805 5339.68876,4717.53166 C5336.62637,4715.60297 5332.54999,4714.54205 5330.60479,4711.78313 C5327.81629,4707.83051 5324.8469,4702.61444 5325.00613,4698.05559 C5325.32842,4688.71657 5324.60869,4678.98725 5330.63282,4670.43285 C5336.54994,4662.03403 5344.46322,4656.02262 5351.23766,4648.68874 C5359.14967,4640.12228 5367.3916,4631.89514 5376.34563,4622.63793 C5377.06664,4622.5132 5378.99146,4622.17923 5380.91883,4621.84661 C5380.73794,4621.58775 5380.55959,4621.32755 5380.37871,4621.06869 C5382.91116,4619.05818 5385.46909,4617.08388 5387.96842,4615.03045 C5393.89192,4610.16177 5399.87019,4605.36148 5405.63063,4600.28625 C5407.01532,4599.06439 5407.44971,4596.71588 5408.65734,4595.17883 C5409.96178,4593.52106 5411.66113,4592.20799 5413.18722,4590.74202 L5413.13499,4590.59449 C5416.37827,4592.74046 5419.1018,4591.30132 5421.39349,4588.92465 C5429.00868,4581.03282 5433.74493,4578.07942 5442.69259,4575.88248 C5445.14989,4573.75126 5447.32821,4571.8628 5449.50525,4569.973 L5449.35875,4569.81071 C5451.01733,4572.46903 5452.62623,4570.94807 5454.42111,4569.8885 C5464.69997,4563.81941 5474.91003,4557.60815 5485.37997,4551.92534 C5489.85125,4549.49904 5494.96074,4548.41264 5499.65113,4546.38335 C5503.07912,4544.90129 5506.27398,4542.83176 5509.60642,4541.09486 C5524.35911,4533.40824 5539.12199,4525.74711 5553.88104,4518.07658 C5554.04665,4518.54199 5554.21352,4519.0074 5554.37913,4519.47281 C5557.70138,4518.55943 5561.24274,4518.13426 5564.30002,4516.62403 C5569.35729,4514.12531 5573.99035,4512.77468 5579.53933,4515.5108 C5582.83992,4517.13772 5586.89593,4517.06529 5591.08823,4517.84589 C5594.75698,4524.79751 5602.26134,4526.53844 5608.84725,4528.19889 C5619.01528,4530.76467 5623.44198,4539.59134 5630.52342,4545.50753 C5629.2521,4547.53279 5628.37313,4548.93572 5627.7846,4549.8719 C5630.28138,4552.78641 5632.41384,4555.27306 5634.54502,4557.76105 C5633.90554,4556.81816 5633.26478,4555.87661 5632.6253,4554.93373 C5632.13741,4555.14296 5631.64952,4555.35085 5631.16163,4555.56008 C5630.6801,4558.9467 5630.19731,4562.33198 5629.71578,4565.7186 C5630.1196,4565.83663 5630.52342,4565.95466 5630.92851,4566.07403 L5634.42146,4557.57864 C5634.39726,4560.68628 5634.37433,4563.79258 5634.34375,4567.83104 C5634.36159,4567.83909 5635.14247,4568.17842 5636.19723,4568.63578 C5635.81507,4571.27668 5635.42145,4573.99134 5635.08387,4576.33716 C5637.65072,4579.91423 5640.06725,4583.27671 5643.06084,4587.44795 C5643.82644,4587.66523 5645.68119,4588.19233 5647.21239,4588.62824 C5647.56397,4591.90085 5647.87098,4594.74829 5648.17543,4597.59573 L5648.04932,4597.52599 C5649.09389,4600.20578 5650.13719,4602.88422 5651.18176,4605.56535 C5650.87221,4606.61017 5650.56394,4607.65634 5650.25566,4608.70116 L5650.00853,4608.91844 L5650.08241,4608.55094 L5651.03782,4605.40306 Z" id="Paint-8"></path>
        </g>
    </g>
</svg>