<?xml version="1.0" encoding="UTF-8"?>
<svg width="309px" height="304px" viewBox="0 0 309 304" version="1.1" xmlns="http://www.w3.org/2000/svg" xmlns:xlink="http://www.w3.org/1999/xlink">
    <title>Paint 12</title>
    <g id="Page-1" stroke="none" stroke-width="1" fill="none" fill-rule="evenodd">
        <g id="Desktop-HD" transform="translate(-5984.000000, -4696.000000)" fill="#000000">
            <path d="M6120.69402,4696.60141 C6121.75421,4695.40244 6122.58663,4696.25945 6123.44248,4696.90492 C6124.7849,4698.23181 6126.8207,4698.18917 6128.25356,4699.33714 C6132.4533,4701.19161 6137.07343,4701.98758 6141.05377,4704.39639 C6144.29548,4704.81193 6147.07912,4707.01171 6150.47828,4706.81188 C6150.53606,4707.00168 6150.60054,4707.1898 6150.66502,4707.37709 C6150.72448,4707.38545 6150.7831,4707.38963 6150.84507,4707.40468 C6151.82655,4707.68645 6152.86246,4707.55267 6153.85231,4707.7826 C6154.56496,4708.10617 6155.47107,4707.90969 6156.05393,4708.58024 C6159.48909,4709.52253 6163.00716,4710.23572 6166.08641,4712.16962 C6166.40129,4712.49988 6166.717,4712.83014 6167.03188,4713.15957 C6167.50503,4713.21642 6167.79059,4713.48565 6167.91537,4713.93714 C6168.37596,4714.03664 6168.70842,4714.28998 6168.89182,4714.71806 C6169.47384,4714.75067 6170.05502,4714.78495 6170.6362,4714.81923 C6171.24418,4714.56171 6171.84797,4714.60184 6172.44841,4714.84766 C6173.23225,4714.78579 6173.8059,4715.14949 6174.26481,4715.74312 C6174.78905,4715.77991 6175.16087,4716.01485 6175.31245,4716.53324 C6175.33087,4716.51568 6175.34846,4716.49896 6175.36688,4716.48224 L6175.36688,4716.48224 L6175.36772,4716.48224 L6175.96521,4716.55296 L6175.96521,4716.55296 L6176.25875,4716.60681 C6178.04835,4717.02737 6179.48707,4718.07083 6181.00617,4719.05659 C6182.49765,4720.02396 6184.63144,4718.91362 6186.15557,4720.23299 L6186.15557,4720.23299 L6190.63292,4722.06666 L6190.63292,4722.06666 L6195.11027,4723.90096 C6196.59254,4725.55059 6198.66017,4725.30729 6200.56785,4725.58655 C6202.5509,4726.56311 6204.29779,4727.87161 6206.4835,4728.63497 C6208.51847,4729.34649 6210.50486,4730.44764 6212.62023,4731.13492 C6213.47609,4731.4125 6214.445,4731.55882 6215.14007,4732.06717 C6216.85347,4733.31881 6218.86415,4733.83803 6220.75508,4734.65156 L6220.75508,4734.65156 C6221.04149,4734.62229 6221.27011,4734.72179 6221.44429,4734.95005 C6221.90823,4734.95423 6222.21641,4735.17329 6222.37385,4735.60137 C6222.85621,4735.69752 6223.1602,4735.98514 6223.30843,4736.44082 C6224.29158,4736.49934 6225.31911,4736.42744 6226.00413,4737.35384 C6226.7595,4737.39314 6227.30132,4737.75935 6227.64048,4738.43325 L6227.64048,4738.43325 L6227.7259,4738.49261 L6227.7259,4738.49261 L6228.97703,4739.1941 L6229.29526,4739.18992 L6229.29526,4739.18992 C6229.79102,4738.68157 6230.29013,4738.70581 6230.79343,4739.17487 C6231.01284,4739.05196 6231.20712,4739.08457 6231.37377,4739.27353 L6231.37377,4739.27353 L6231.55623,4739.2699 C6232.27682,4739.27658 6232.8856,4739.53941 6233.35096,4740.13137 C6234.69923,4741.0586 6236.08017,4741.94404 6237.38992,4742.92395 C6239.41567,4744.43896 6240.7137,4746.33022 6240.48927,4749.03334 C6240.38878,4750.22228 6240.52611,4751.43128 6240.55626,4752.63109 C6240.55626,4752.63276 6240.5571,4752.63443 6240.5571,4752.6361 C6241.5235,4755.1235 6241.72197,4757.84 6243.10123,4760.23877 C6243.70419,4761.28725 6244.18069,4762.36164 6245.13369,4763.12082 C6246.7491,4764.4059 6247.5656,4766.13496 6248.02368,4768.08141 C6248.29669,4768.09311 6248.49851,4768.21936 6248.62831,4768.45932 C6248.62915,4768.46016 6248.62998,4768.461 6248.63082,4768.461 C6248.62998,4768.46016 6248.62831,4768.45932 6248.62747,4768.45849 C6249.07801,4768.50197 6249.33176,4768.76785 6249.4557,4769.18339 L6249.4557,4769.18339 L6249.49506,4769.20847 L6250.12355,4769.57333 L6250.12355,4769.57333 L6250.75205,4769.93755 C6252.41185,4770.38487 6253.22835,4771.83885 6253.6948,4773.1532 C6254.79435,4776.24845 6256.14597,4779.33199 6255.93494,4782.75833 C6255.85203,4784.11031 6255.72893,4785.4882 6255.89558,4786.82095 C6256.32184,4790.21385 6255.99272,4793.41946 6254.08504,4796.35 C6254.24499,4797.26637 6254.07416,4798.14595 6253.65795,4798.95278 C6253.22416,4799.79474 6253.20239,4800.66596 6253.27189,4801.56477 C6254.30278,4802.70604 6254.40076,4804.50032 6255.90228,4805.31134 C6256.96499,4805.23609 6258.0076,4805.23274 6258.76631,4806.17503 C6263.48527,4806.71933 6267.73693,4808.35307 6271.33037,4811.52775 C6271.33121,4811.52859 6271.33121,4811.52942 6271.33121,4811.52942 C6271.64022,4811.84714 6271.9484,4812.16486 6272.25657,4812.48258 C6272.30598,4812.4784 6272.35372,4812.47923 6272.40312,4812.47171 C6273.41726,4812.9023 6273.43401,4814.55862 6274.86937,4814.47166 L6274.86937,4814.47166 L6274.99847,4814.47415 C6275.2624,4814.47025 6275.55332,4814.42448 6275.73779,4814.54273 C6278.41508,4816.25841 6280.45675,4818.48161 6281.27409,4821.64792 C6283.22866,4822.61111 6283.96058,4824.50906 6284.84156,4826.2933 L6284.84156,4826.2933 C6285.50398,4826.6637 6285.74599,4827.23225 6285.63462,4827.96718 C6285.76358,4828.55998 6285.89171,4829.15194 6286.02067,4829.74473 C6286.79195,4830.53401 6287.20146,4831.51727 6287.52722,4832.544 L6287.52722,4832.544 L6287.58814,4832.64201 C6287.74272,4832.87233 6287.96886,4833.11192 6287.94175,4833.31823 C6287.55569,4836.25295 6288.55727,4838.87663 6289.728,4841.45935 C6290.85603,4843.94759 6291.06958,4846.65238 6291.59297,4849.2769 C6292.79637,4855.30603 6293.20504,4861.40372 6292.90607,4867.5499 C6292.85415,4868.63181 6292.59539,4869.6042 6292.05943,4870.52391 C6292.18504,4872.45029 6292.50076,4874.39924 6291.36184,4876.16927 L6291.36184,4876.16927 L6291.37023,4876.5975 C6291.37191,4879.29525 6290.31567,4881.72433 6289.3252,4884.17076 L6289.3252,4884.17076 C6289.3386,4885.05536 6289.38047,4885.94915 6288.67451,4886.60131 C6288.61086,4886.69997 6288.54806,4886.76769 6288.48274,4886.76769 C6288.04894,4888.0185 6287.63609,4889.25844 6287.62018,4890.62045 C6287.59589,4892.56857 6287.02811,4894.37622 6285.85235,4895.96481 L6285.85235,4895.96481 C6285.56678,4896.31346 6285.28206,4896.66128 6284.999,4897.00994 L6284.999,4897.00994 C6285.00486,4897.41377 6285.01156,4897.81427 6285.01826,4898.21476 C6285.0191,4898.2156 6285.0191,4898.21727 6285.0191,4898.21894 C6285.52994,4898.73063 6285.48471,4899.21557 6284.93954,4899.67376 C6284.99816,4899.9388 6284.95964,4900.1888 6284.8223,4900.4229 C6284.89181,4901.17707 6284.88176,4901.9003 6284.0862,4902.31417 C6284.01669,4903.29408 6283.92876,4904.26897 6283.11058,4904.97966 C6283.05196,4905.50138 6282.79152,4905.85255 6282.26477,4905.97295 C6282.14251,4906.46625 6281.81088,4906.74383 6281.32517,4906.86172 L6281.32517,4906.86172 L6281.37374,4906.86757 C6281.37458,4906.86841 6281.37374,4906.86841 6281.37374,4906.86841 C6281.20374,4907.95283 6280.59241,4908.58493 6279.48365,4908.70867 C6276.94035,4910.86916 6275.97646,4913.87996 6275.05193,4916.91166 L6275.05193,4916.91166 L6275.00074,4917.04472 C6274.56265,4918.1985 6274.51158,4918.17803 6273.08145,4917.60479 C6272.34115,4917.6767 6271.60086,4917.7486 6270.86057,4917.81967 C6268.03924,4918.09224 6265.84349,4919.48602 6264.07985,4921.6256 C6263.51709,4922.30953 6263.16704,4923.3856 6262.46108,4923.69412 C6260.3968,4924.59376 6259.27212,4926.00594 6258.62814,4928.15472 C6258.2136,4929.53763 6256.83518,4928.52929 6255.88302,4928.55103 C6255.57736,4928.82945 6255.27253,4929.1062 6254.96686,4929.38379 L6254.96686,4929.38379 C6254.92081,4929.68646 6254.87558,4929.98578 6254.8312,4930.28678 C6254.9409,4930.556 6255.01209,4930.8361 6255.04475,4931.12455 C6256.35533,4932.34693 6255.76243,4933.93051 6255.85622,4935.38449 C6255.95755,4936.94549 6254.69554,4937.601 6253.93682,4938.66117 C6252.73091,4940.34592 6251.14564,4940.6628 6249.45151,4941.08837 C6248.2724,4941.14189 6247.78585,4940.44625 6247.61836,4939.40447 L6247.61836,4939.40447 L6245.88822,4939.35263 C6245.58507,4939.94877 6245.28024,4940.54491 6244.97625,4941.14105 C6245.03822,4941.58 6245.18393,4942.02815 6245.14709,4942.45875 C6245.03571,4943.78815 6244.59689,4943.87427 6243.19167,4942.87847 C6241.95646,4941.97799 6240.73799,4942.39855 6239.52119,4942.92529 C6238.19637,4942.8074 6237.0114,4943.10589 6236.05504,4944.08496 L6236.05504,4944.08496 C6234.8148,4946.46116 6233.57623,4948.83736 6232.33599,4951.21356 C6232.37535,4953.10733 6231.20545,4954.59058 6230.60166,4956.26529 C6230.229,4957.29871 6229.60595,4958.10053 6228.4059,4958.26943 C6227.47048,4958.40153 6226.73522,4958.90821 6226.13729,4959.61555 C6224.90877,4961.06869 6223.70621,4962.32535 6221.71395,4960.56285 C6221.16543,4960.07875 6220.25262,4960.40065 6219.54918,4960.67656 C6218.44543,4961.1105 6217.3643,4961.59878 6216.27396,4962.06282 C6216.27313,4962.06282 6216.27313,4962.06365 6216.27229,4962.06365 C6216.03278,4962.74759 6215.8879,4963.49422 6215.09318,4963.80275 C6215.09318,4963.80275 6215.08313,4963.82866 6215.08313,4963.8295 C6214.61668,4966.00086 6215.01948,4968.30014 6214.12426,4970.4046 C6213.89564,4970.94472 6213.56486,4971.44053 6213.28013,4971.95641 L6213.28013,4971.95641 C6212.83461,4973.34684 6212.44353,4974.75484 6211.93102,4976.11852 C6211.30462,4977.7832 6210.51659,4979.36343 6208.75546,4980.1594 C6208.75462,4980.44033 6208.74122,4980.72042 6208.71778,4980.99968 C6209.06699,4983.35665 6207.24891,4984.73371 6206.21217,4986.4519 C6205.5531,4987.54552 6204.18725,4986.6233 6203.38749,4987.27713 C6202.4772,4988.02126 6201.9471,4987.50037 6201.10883,4987.05139 C6199.45824,4986.16846 6197.50199,4985.88753 6196.03313,4984.59157 L6196.03313,4984.59157 C6193.83151,4984.49626 6193.83151,4984.49626 6193.3056,4982.78727 L6193.3056,4982.78727 C6192.12733,4981.74465 6190.3059,4982.957 6189.21389,4981.62258 C6186.08439,4978.3668 6182.9641,4979.56242 6179.84465,4981.64766 C6179.39662,4981.57074 6178.89249,4981.45703 6178.65298,4981.10503 C6176.32239,4977.67952 6174.67516,4978.63101 6173.35284,4981.88679 L6173.35284,4981.88679 C6172.6561,4983.00967 6171.75837,4983.9252 6170.61359,4984.5899 C6168.48902,4984.57903 6166.36444,4984.56816 6164.2407,4984.55729 L6164.2407,4984.55729 C6162.08263,4985.05728 6159.90948,4985.49874 6157.77318,4986.07315 C6155.43255,4986.70357 6153.07516,4986.45441 6150.72113,4986.36578 C6150.34764,4986.35073 6149.98921,4985.92265 6149.62325,4985.6852 L6149.62325,4985.6852 C6147.69296,4984.84659 6145.70908,4984.38924 6143.57948,4984.63505 C6142.59884,4984.74793 6141.97662,4985.1133 6141.58554,4986.07147 C6141.03451,4987.42512 6140.91392,4988.97358 6139.84284,4990.10316 L6139.84284,4990.10316 C6138.92919,4993.65492 6136.46713,4996.26606 6134.36433,4999.09543 C6132.86532,5000.76011 6131.34621,4999.7317 6129.83045,4999.12887 C6128.88415,4999.15228 6128.13883,4998.71751 6127.43538,4998.13224 C6125.76386,4996.74264 6123.83524,4996.15235 6121.66545,4996.36723 C6121.08761,4997.20249 6120.21417,4997.28945 6119.30974,4997.29279 C6118.13146,4997.29697 6117.04698,4997.40483 6115.92733,4998.01853 C6113.3698,4999.42067 6111.54922,4998.47588 6111.22932,4995.49601 C6111.04592,4993.78869 6109.38109,4993.26696 6108.96321,4991.86148 L6108.96321,4991.86148 C6108.69775,4991.52118 6108.35775,4991.25363 6108.05124,4990.9518 C6107.31765,4990.91334 6106.63849,4990.76953 6106.27169,4990.02791 C6104.0416,4988.68764 6103.08357,4986.39254 6102.76702,4984.11416 C6102.47057,4981.97876 6101.76964,4980.13599 6100.7957,4978.30744 L6100.7957,4978.30744 C6099.89713,4977.99139 6099.00023,4977.67618 6098.10334,4977.36013 C6098.0958,4975.85431 6098.08994,4974.34766 6098.0824,4972.841 C6097.33541,4969.21316 6097.76837,4968.61785 6101.03102,4969.48489 C6102.85579,4969.96983 6104.92426,4969.95394 6106.41824,4971.41629 C6110.31818,4971.25241 6113.44266,4974.61437 6117.50422,4973.84767 C6117.95477,4973.76322 6118.52757,4974.32341 6119.04427,4974.58427 L6119.04427,4974.58427 C6119.31476,4974.61103 6119.58358,4974.64615 6119.85156,4974.69046 L6119.85156,4974.69046 C6121.05998,4974.68126 6122.26924,4974.67207 6123.47682,4974.6637 C6123.48687,4974.78745 6123.51953,4974.90785 6123.53879,4975.02908 C6123.6016,4975.01905 6123.66524,4975.0132 6123.72721,4974.99898 C6124.3444,4974.80083 6124.95992,4974.83176 6125.57962,4974.98477 C6125.92716,4975.06002 6126.23282,4975.15951 6126.51671,4975.26904 C6126.75287,4975.13527 6126.9572,4974.94129 6127.11129,4974.64615 C6126.92287,4972.31593 6128.05006,4970.35026 6128.87326,4968.29846 L6128.87326,4968.29846 L6128.92099,4966.98996 L6128.92099,4966.98996 L6128.96873,4965.68147 C6128.96873,4965.68147 6128.96956,4965.68063 6128.96956,4965.68063 L6128.96956,4965.68063 C6129.194,4965.40806 6129.41927,4965.13466 6129.64454,4964.86209 C6129.69143,4964.75757 6129.73917,4964.68567 6129.79025,4964.68567 C6129.81537,4964.38969 6129.83129,4964.09204 6129.83799,4963.79522 C6130.0733,4963.77933 6130.30779,4963.7576 6130.54227,4963.73168 C6130.45853,4963.45827 6130.47527,4963.18821 6130.61429,4962.91899 C6131.16616,4962.45411 6131.72975,4962.3078 6132.31512,4962.68404 C6132.26906,4962.55277 6132.24059,4962.41398 6132.24226,4962.26014 C6132.38379,4961.87804 6132.62414,4961.59209 6132.98088,4961.39728 C6133.55788,4961.14394 6134.15916,4961.04027 6134.78388,4961.03023 C6135.386,4961.04027 6135.94373,4961.15983 6136.43363,4961.44494 C6136.59693,4961.23926 6136.78787,4961.062 6136.99137,4960.90147 C6136.93609,4960.83793 6136.88166,4960.77439 6136.82639,4960.71168 C6136.82388,4960.50516 6136.8691,4960.32205 6136.95452,4960.15818 C6136.25777,4960.12641 6135.63639,4959.94414 6135.26038,4959.26773 C6134.96644,4959.26857 6134.67167,4959.27108 6134.37689,4959.27442 C6133.99251,4959.57792 6133.68098,4959.56204 6133.43561,4959.25937 C6133.15758,4959.26522 6132.87955,4959.28111 6132.6032,4959.31037 L6132.6032,4959.31037 L6132.60404,4959.31037 L6131.64099,4960.17072 C6131.34872,4960.15985 6131.05729,4960.14982 6130.76586,4960.14146 C6130.75079,4959.86053 6130.72985,4959.5796 6130.70389,4959.2995 L6130.70389,4959.2995 L6130.21808,4958.88647 L6130.21808,4958.88647 L6129.73163,4958.47343 L6129.73163,4958.47343 C6128.71415,4958.37561 6127.68159,4958.32712 6126.85755,4957.60138 C6126.05612,4956.89822 6125.12657,4956.53619 6124.058,4956.56294 C6122.19889,4956.60976 6121.00471,4955.8556 6120.64629,4953.92504 C6120.57762,4953.55716 6120.12875,4953.25867 6119.85575,4952.92924 C6119.56516,4952.90583 6119.27373,4952.8958 6118.9823,4952.89664 C6118.7721,4952.65751 6118.69506,4952.41253 6118.74865,4952.16254 C6118.76205,4952.099 6118.77629,4952.04465 6118.79053,4951.99699 L6118.79053,4951.99699 L6117.66669,4952.03211 C6117.59802,4952.11739 6117.53772,4952.20602 6117.46152,4952.28545 C6116.846,4952.81052 6116.05211,4952.93677 6115.3294,4953.22439 C6115.02709,4953.29797 6114.71891,4953.33225 6114.40822,4953.34479 C6114.37221,4953.48442 6114.33118,4953.62321 6114.30103,4953.76367 C6113.61936,4953.72103 6112.96867,4953.62572 6112.65631,4952.89162 L6112.65631,4952.89162 L6112.6136,4952.86319 C6112.03577,4952.91503 6111.45877,4952.96687 6110.88094,4953.01871 C6110.77794,4954.15163 6110.06779,4954.65496 6109.00843,4954.79542 C6108.58385,4955.61397 6108.00519,4956.31044 6107.07982,4956.51779 C6105.8714,4956.78869 6104.96529,4957.46593 6104.02736,4958.23682 C6102.34495,4959.61973 6101.39614,4959.62558 6099.63585,4958.47009 C6098.77161,4957.90238 6097.9995,4957.19587 6097.18467,4956.55291 C6095.88748,4956.58301 6095.5768,4955.6332 6095.14384,4954.67084 C6094.85158,4954.01869 6094.09705,4954.07972 6093.81818,4954.69342 C6093.38104,4955.65577 6093.05276,4956.59973 6091.75055,4956.54037 C6090.86203,4958.4032 6089.96765,4960.26269 6089.08834,4962.13054 C6088.32292,4963.75258 6087.81292,4964.13217 6086.41859,4963.3153 C6083.78821,4961.7752 6081.01964,4961.74928 6078.15645,4962.04108 L6078.15645,4962.04108 C6076.38862,4962.00847 6074.61828,4961.91399 6072.85296,4961.96583 C6071.89577,4961.99426 6071.2007,4962.96079 6071.53651,4963.85876 C6072.55735,4966.59365 6072.86469,4969.5777 6074.41646,4972.12697 C6074.14178,4972.96475 6073.86794,4973.80336 6073.59493,4974.64113 C6073.64183,4976.24394 6073.73813,4977.84758 6073.72306,4979.44955 C6073.70715,4981.12426 6073.27084,4981.52057 6071.33804,4981.8408 C6070.90676,4981.91271 6070.4646,4981.92107 6070.02829,4981.95869 C6069.77874,4982.11755 6069.44292,4982.47122 6069.2947,4982.40517 C6067.47662,4981.58997 6065.64683,4981.58997 6063.70816,4981.94113 C6062.89501,4982.08829 6061.93698,4981.71539 6061.10457,4981.41439 C6059.1165,4980.69534 6057.27581,4980.82745 6055.54483,4982.07658 L6055.54483,4982.07658 C6053.62878,4983.25381 6053.45208,4983.25047 6051.73701,4982.01387 L6051.73701,4982.01387 L6051.73701,4982.0122 L6050.0278,4980.86005 L6050.0278,4980.86005 L6049.64919,4980.78028 C6047.50358,4980.32369 6045.36249,4979.85223 6043.5695,4978.45375 L6043.5695,4978.45375 L6040.07069,4978.27483 C6039.4334,4978.48134 6038.83882,4978.40442 6038.29281,4978.00477 L6038.29281,4978.00477 C6037.47882,4977.81664 6036.80301,4977.42953 6036.37508,4976.68373 C6035.11641,4976.5441 6034.24799,4975.19965 6032.8344,4975.54078 L6032.8344,4975.54078 L6032.83356,4975.53994 C6032.34115,4976.44209 6031.67958,4976.66784 6030.8145,4976.03324 C6030.26347,4975.6294 6029.72249,4975.21219 6029.17732,4974.80083 C6027.53762,4974.1587 6026.09974,4974.85852 6024.65097,4975.48225 L6024.65097,4975.48225 L6024.29884,4975.52232 C6022.19379,4975.73132 6020.2275,4975.371 6018.34089,4974.25652 C6016.85696,4973.38196 6015.21977,4972.76492 6013.65041,4972.03333 L6013.65041,4972.03333 C6011.3014,4971.32013 6009.78313,4969.82268 6009.24885,4967.3938 C6008.18112,4966.59282 6007.7423,4965.18566 6006.34378,4964.65306 C6004.83137,4964.07699 6004.62787,4962.65311 6004.73842,4961.25264 C6004.88162,4959.43997 6005.41925,4957.70506 6006.45014,4956.20258 C6007.88801,4954.10648 6009.43811,4952.08645 6010.93963,4950.03383 C6010.94047,4950.03466 6010.94047,4950.03466 6010.94047,4950.03466 L6011.10245,4949.81258 C6012.58306,4947.73607 6013.18139,4945.5499 6012.19495,4942.97713 C6011.71928,4941.73635 6011.76032,4940.34675 6012.68066,4939.17705 L6012.68066,4939.17705 C6013.05499,4935.49653 6013.75342,4931.85112 6013.69312,4928.12295 C6013.67637,4927.12464 6014.14617,4926.10962 6014.44598,4925.11884 C6015.42159,4921.88647 6016.6342,4918.78704 6015.81518,4915.18929 C6015.4174,4913.44184 6016.28917,4911.40677 6016.58563,4909.50297 C6016.42651,4908.53727 6016.81927,4907.41271 6015.78085,4906.69952 C6015.33617,4906.46708 6015.21642,4906.12344 6015.41656,4905.66693 C6015.53883,4905.58583 6015.64016,4905.49637 6015.74568,4905.40941 C6015.31524,4902.58255 6015.37134,4899.79416 6016.2808,4897.02248 C6016.78829,4895.47736 6017.07385,4893.85951 6017.45991,4892.27509 L6017.45991,4892.27509 L6017.44729,4892.12294 C6017.40739,4891.41945 6017.58502,4890.81024 6018.25799,4890.41226 L6018.25799,4890.41226 L6018.25631,4890.38216 L6018.31661,4887.74677 L6018.31661,4887.74677 L6018.26436,4887.62598 C6018.20345,4887.4631 6018.17759,4887.29293 6018.18764,4887.11635 C6018.18764,4887.11551 6018.1868,4887.11468 6018.1868,4887.11384 C6017.53779,4886.85548 6016.86868,4886.62138 6016.59316,4885.88226 C6014.6009,4883.59552 6012.54081,4881.34223 6012.72672,4877.99281 C6012.72588,4877.99114 6012.72588,4877.98946 6012.72504,4877.98779 C6012.50647,4877.61907 6012.138,4877.2654 6012.09864,4876.87828 C6011.92362,4875.14923 6010.93461,4874.3449 6009.30161,4874.05895 C6008.93732,4873.99457 6008.64003,4873.54976 6008.31176,4873.28054 L6008.31176,4873.28054 L6008.07696,4873.07869 C6006.02248,4871.23947 6005.53799,4868.79578 6005.55575,4866.15695 C6005.55492,4866.15612 6005.55492,4866.15361 6005.55324,4866.15361 C6004.75851,4865.36099 6004.78196,4864.31837 6004.68063,4863.31337 L6004.68063,4863.31337 L6004.65467,4863.35685 L6004.65467,4863.35769 L6004.65383,4863.35601 L6003.81054,4862.39784 C6003.803,4862.09601 6003.80132,4861.79501 6003.80635,4861.49402 L6003.80635,4861.49402 C6003.81389,4860.89035 6003.81975,4860.28669 6003.82645,4859.68302 L6003.82645,4859.68302 L6003.7472,4859.40934 C6003.70018,4859.22558 6003.66482,4859.03922 6003.64137,4858.85026 C6001.33508,4856.75666 6001.42971,4853.86543 6001.06207,4851.12636 C6000.87197,4849.70833 6001.45483,4848.12475 6000.17439,4846.93582 C6000.17355,4846.93498 6000.17355,4846.93498 6000.17355,4846.93498 L6000.17355,4846.93498 L5992.93308,4846.99016 C5993.04613,4845.75524 5992.56209,4844.39239 5993.71357,4843.38238 C5993.71357,4843.38238 5993.71357,4843.38155 5993.71441,4843.38155 L5993.71441,4843.38155 L5993.84086,4841.5856 C5993.77554,4841.28795 5993.76633,4840.98863 5993.81406,4840.68763 L5993.81406,4840.68763 L5993.6845,4840.5 C5992.7725,4839.06052 5993.69054,4837.59865 5993.75795,4836.14676 C5992.57549,4835.22454 5993.03859,4833.85417 5992.80662,4832.6736 L5992.80662,4832.6736 C5992.22544,4832.13097 5992.11825,4831.41526 5991.97086,4830.67113 C5991.45752,4828.07504 5990.41909,4826.00401 5987.53329,4825.11106 C5985.43635,4824.46141 5985.45142,4823.94553 5985.59714,4821.36867 C5985.70517,4819.46403 5986.15654,4817.43146 5984.73793,4815.79521 C5983.4868,4814.35127 5984.04704,4813.05698 5984.7999,4811.70751 L5984.7999,4811.70751 L5984.87078,4811.31921 C5985.26051,4809.39409 5986.17465,4807.71215 5987.37585,4806.16249 C5987.32812,4804.51202 5987.51235,4802.95019 5988.85811,4801.75372 C5989.64363,4801.05391 5990.08579,4800.15343 5990.332,4799.11833 C5990.54387,4798.22705 5991.15269,4797.58659 5991.99431,4797.19028 L5991.99431,4797.19028 L5993.83385,4794.0827 L5993.83385,4794.0827 L5995.67401,4790.97638 L5995.67401,4790.97638 L5996.58849,4790.06837 C5996.76686,4789.72724 5997.0474,4789.58009 5997.4276,4789.61938 L5997.4276,4789.61938 L5997.4611,4789.62523 C5998.07326,4787.0074 5999.58818,4784.97818 6001.63823,4783.26919 C6002.43295,4782.60616 6003.12133,4781.81437 6003.85911,4781.08111 C6003.85911,4781.08111 6003.85995,4781.08028 6003.86078,4781.08028 C6004.29206,4779.55857 6005.64703,4778.77765 6006.60925,4777.68152 C6008.06555,4776.02437 6009.96067,4774.7652 6011.06022,4772.78448 C6011.74943,4772.50522 6012.41603,4772.10807 6013.13288,4771.96761 C6016.77907,4771.2519 6018.93966,4769.21934 6019.26961,4765.41173 C6019.31818,4764.8482 6019.48064,4764.06896 6019.8734,4763.79973 C6021.8732,4762.42769 6022.25926,4760.1167 6023.33787,4758.21541 C6024.36792,4756.40107 6025.56127,4754.78154 6027.12141,4753.31753 C6029.49973,4751.08597 6031.57573,4748.53586 6034.17011,4746.51333 C6034.70356,4746.09779 6035.04942,4745.59947 6035.26632,4745.05015 C6035.22863,4744.56103 6035.16247,4744.06021 6035.05444,4743.54183 C6035.0042,4743.11959 6035.02848,4742.70071 6035.12144,4742.286 L6035.12144,4742.286 L6035.53932,4741.62632 C6035.53764,4741.4499 6035.53513,4741.27265 6035.53346,4741.09539 C6035.83745,4740.79523 6036.14144,4740.49507 6036.44543,4740.19491 C6037.35404,4738.6824 6037.74429,4736.86221 6039.15202,4735.64652 C6039.01887,4733.21263 6040.45172,4731.60397 6042.12659,4730.16671 C6042.89033,4729.51204 6043.78388,4729.00954 6044.6188,4728.43765 L6044.6188,4728.43765 L6044.61964,4728.43431 L6044.62026,4728.28403 C6044.6352,4727.58876 6044.82649,4726.98133 6045.51821,4726.6208 L6045.51821,4726.6208 C6045.8289,4726.32817 6046.10358,4726.00125 6046.40087,4725.6944 C6046.76096,4725.06064 6046.96362,4724.17771 6047.50712,4723.83742 C6049.52618,4722.57324 6050.05041,4720.40857 6051.03775,4718.5148 C6051.58878,4718.47132 6052.13814,4718.42701 6052.68918,4718.38353 C6053.35829,4717.35011 6054.95444,4717.81247 6055.52808,4716.62688 C6055.50631,4716.34762 6055.43094,4716.06084 6055.47114,4715.79162 C6055.76089,4713.8644 6056.19971,4713.70721 6058.24054,4714.77492 C6058.24138,4714.77492 6058.24138,4714.77492 6058.24138,4714.77492 L6058.51289,4714.78185 C6058.69396,4714.78383 6058.87504,4714.78049 6059.05537,4714.77157 L6059.05537,4714.77157 C6061.09452,4713.15288 6063.45777,4713.84517 6065.5522,4714.25904 C6067.64997,4714.67375 6069.7109,4714.75151 6071.80366,4714.83762 L6071.80366,4714.83762 L6071.92924,4714.68112 C6072.61506,4713.89463 6073.55345,4713.86529 6074.52449,4713.93296 C6074.83015,4713.95386 6075.13498,4713.97477 6075.4398,4713.99567 L6075.4398,4713.99567 L6075.63068,4713.98772 C6076.32105,4713.98169 6076.90664,4714.2311 6077.37261,4714.7791 C6078.33147,4714.76488 6079.04246,4715.27156 6079.71743,4715.87355 C6080.69723,4716.74728 6081.69127,4717.60512 6082.6786,4718.46965 L6082.6786,4718.46965 C6083.21456,4718.53403 6083.52693,4718.8367 6083.65254,4719.34505 L6083.65254,4719.34505 L6083.79894,4719.42012 C6084.57643,4719.80469 6085.30392,4719.92565 6086.10707,4719.26227 C6086.65475,4718.80994 6087.39588,4718.59005 6088.04992,4718.26648 C6088.98534,4717.07587 6090.20883,4716.46886 6091.7271,4716.45799 L6091.7271,4716.45799 L6092.0887,4716.25989 C6094.62527,4714.88615 6097.27668,4713.79812 6100.21117,4713.82845 C6102.42032,4713.85102 6104.30539,4713.08265 6106.1578,4712.0626 C6107.35282,4709.413 6109.23957,4707.36455 6111.64468,4705.76592 C6112.78611,4704.62213 6114.43586,4704.05777 6115.17448,4702.42319 C6115.65433,4701.36134 6116.7229,4701.07456 6117.86767,4701.21502 C6117.87018,4701.21502 6117.87186,4701.21251 6117.87437,4701.21168 C6118.22358,4700.92406 6118.57363,4700.63728 6118.92368,4700.34966 C6119.01663,4699.37309 6118.83575,4698.30288 6119.85742,4697.64487 L6119.85742,4697.64487 L6119.87417,4697.65657 L6119.88885,4697.51427 C6119.95915,4697.0565 6120.2418,4696.76331 6120.69402,4696.60141 Z M6086.58357,4947.722 C6086.5484,4947.98788 6086.50736,4948.24373 6086.46633,4948.49038 C6086.63968,4948.36831 6086.86243,4948.2638 6087.15805,4948.17768 C6086.9646,4948.0414 6086.77199,4947.89842 6086.58357,4947.722 Z M6156.08742,4922.8438 C6153.98965,4922.57291 6153.52487,4924.32705 6152.77453,4925.72668 C6152.68073,4925.74591 6152.60369,4925.75344 6152.52078,4925.76514 C6154.36702,4926.50602 6154.76942,4928.18665 6155.06488,4929.7942 L6155.13442,4930.17809 C6156.7423,4939.07922 6157.13422,4937.14699 6164.43331,4938.02657 L6164.43331,4938.02657 L6164.50784,4938.16202 C6165.06641,4936.77911 6165.28415,4936.82008 6167.13404,4938.03493 C6167.3836,4937.42123 6167.88774,4937.06923 6168.47143,4936.79667 C6168.38099,4936.80419 6168.29557,4936.82008 6168.1934,4936.80837 C6166.98414,4936.13113 6166.97326,4934.85691 6166.6701,4933.73821 C6166.36946,4932.6287 6165.82178,4932.04844 6164.53129,4931.93473 C6158.07298,4931.36619 6155.92496,4929.046 6156.08742,4922.8438 Z M6191.48585,4934.81761 L6191.47999,4935.2574 C6191.66004,4935.26744 6191.83087,4935.26827 6191.99166,4935.25824 C6191.86856,4935.08767 6191.71028,4934.9355 6191.48585,4934.81761 L6191.48585,4934.81761 Z M6242.10217,4931.18559 C6241.52601,4931.13542 6240.98335,4931.17639 6240.47084,4931.29261 C6240.80498,4931.35281 6241.29907,4931.30431 6242.05109,4931.2182 C6242.06532,4931.20482 6242.0871,4931.19813 6242.10217,4931.18559 Z M6170.20492,4814.06783 C6170.1463,4814.24257 6170.07512,4814.38304 6169.9964,4814.50678 C6170.15216,4814.58872 6170.30541,4814.66564 6170.46704,4814.76096 C6170.3766,4814.51431 6170.28867,4814.28438 6170.20492,4814.06783 Z M6138.52555,4774.40735 C6138.12525,4774.38227 6137.92343,4774.67908 6137.72328,4774.9759 C6137.72328,4775.04112 6137.72496,4775.10633 6137.72496,4775.17238 C6138.0524,4774.95834 6138.30698,4774.69581 6138.52555,4774.40735 Z M6096.37068,4763.70358 C6096.84886,4763.91595 6097.26674,4764.1141 6097.65364,4764.30892 C6097.30359,4763.89839 6096.84635,4763.7111 6096.37068,4763.70358 Z M6106.13352,4746.38206 C6105.6344,4746.9456 6105.15204,4747.46481 6104.74672,4747.87032 C6105.80357,4747.4297 6106.16701,4747.1195 6106.13352,4746.38206 Z M6182.07809,4740.44741 C6181.93322,4740.62801 6181.75652,4740.82951 6181.52036,4741.09288 C6181.57312,4741.12382 6181.6309,4741.15058 6181.68617,4741.18068 C6181.96839,4740.93068 6182.07391,4740.68738 6182.07809,4740.44741 Z M6177.15816,4733.01865 C6176.74279,4733.1842 6176.36678,4733.43169 6176.07368,4733.85977 C6176.20348,4733.87733 6176.33579,4733.88569 6176.46811,4733.88987 C6176.75032,4733.60727 6176.98146,4733.31714 6177.15816,4733.01865 Z M6064.51294,4723.63258 C6064.37392,4723.96618 6064.18382,4724.32654 6063.94767,4724.71366 C6064.24245,4724.63088 6064.5322,4724.48707 6064.81358,4724.24293 C6064.71225,4724.03809 6064.61259,4723.83491 6064.51294,4723.63258 Z" id="Paint-12"></path>
        </g>
    </g>
</svg>