<?xml version="1.0" encoding="UTF-8"?>
<svg width="310px" height="314px" viewBox="0 0 310 314" version="1.1" xmlns="http://www.w3.org/2000/svg" xmlns:xlink="http://www.w3.org/1999/xlink">
    <title>Shape 23</title>
    <g id="Page-1" stroke="none" stroke-width="1" fill="none" fill-rule="evenodd">
        <g id="Desktop-HD" transform="translate(-4571.000000, -3064.000000)" fill="#000000">
            <path d="M4591.34359,3271.98252 C4587.87852,3265.98242 4587.13383,3258.8024 4586.34812,3251.20218 C4585.86331,3246.50685 4585.35875,3241.65318 4584.15053,3237.12075 C4582.99703,3232.79386 4581.05021,3228.46697 4579.16722,3224.28167 C4576.13528,3217.54165 4573,3210.57021 4573,3203.31407 C4573,3196.05792 4576.13528,3189.08648 4579.16722,3182.34494 C4581.05173,3178.16116 4582.99703,3173.83427 4584.15053,3169.51043 C4585.36027,3164.97496 4585.86331,3160.11824 4586.34964,3155.42291 C4587.13535,3147.82421 4587.87852,3140.64571 4591.34359,3134.64561 C4594.86945,3128.54199 4601.01235,3124.10548 4606.95464,3119.81665 C4610.74342,3117.08075 4614.66138,3114.25198 4617.91216,3110.99388 C4621.1675,3107.73424 4623.98971,3103.81081 4626.72073,3100.01374 C4631.00495,3094.06389 4635.43204,3087.9085 4641.52478,3084.37634 C4647.51267,3080.90509 4654.67837,3080.16212 4662.26505,3079.37347 C4666.95201,3078.88628 4671.79855,3078.38386 4676.32441,3077.17044 C4680.64207,3076.01488 4684.96125,3074.0661 4689.13757,3072.17975 C4695.86558,3069.1424 4702.82459,3066 4710.06932,3066 C4717.31405,3066 4724.27155,3069.1424 4731.0026,3072.17975 C4735.17892,3074.06458 4739.49658,3076.01488 4743.81271,3077.17044 C4748.34162,3078.38386 4753.18664,3078.8878 4757.87512,3079.37347 C4765.46028,3080.16212 4772.62598,3080.90661 4778.6169,3084.37634 C4784.70965,3087.91002 4789.13673,3094.06541 4793.42096,3100.01831 C4794.26443,3101.19214 4795.12765,3102.37511 4796,3103.55199 C4788.0121,3102.13304 4779.37375,3102.09345 4771.58342,3100.00765 C4759.94656,3096.89114 4748.62734,3088.29216 4736.00871,3088.29216 C4723.39464,3088.29216 4712.0739,3096.89114 4700.43856,3100.00765 C4688.39896,3103.23075 4674.32136,3101.54688 4663.78025,3107.65508 C4653.08717,3113.85462 4647.54002,3126.96927 4638.86215,3135.66111 C4630.18428,3144.356 4617.09149,3149.91305 4610.90451,3160.62523 C4604.80569,3171.18515 4606.48655,3185.28942 4603.2692,3197.34899 C4600.15976,3209.00662 4591.57307,3220.34606 4591.57307,3232.9857 C4591.57307,3245.62533 4600.15976,3256.96477 4603.2692,3268.62088 C4604.74642,3274.16423 4605.19323,3280.1354 4605.83457,3286 C4600.25247,3281.95629 4594.64908,3277.704 4591.34359,3271.98252 M4869.29236,3197.63076 C4866.07184,3185.56848 4867.75284,3171.46105 4861.64953,3160.89875 C4855.45647,3150.18416 4842.3523,3144.62434 4833.66589,3135.93054 C4832.31957,3134.58132 4831.05236,3133.11941 4829.82622,3131.60116 C4829.23902,3130.77426 4828.61682,3129.97478 4827.95355,3129.20576 C4822.08603,3121.44393 4816.9107,3112.65876 4808.72326,3107.91669 C4805.96216,3106.31925 4802.95615,3105.26089 4799.80865,3104.501 C4798.39996,3102.69189 4797.04452,3100.80968 4795.71189,3098.95945 C4791.28654,3092.81333 4786.71058,3086.45859 4780.19501,3082.68351 C4773.78288,3078.97087 4766.03357,3078.1653 4758.5383,3077.38866 C4753.93344,3076.91049 4749.17188,3076.41558 4744.81346,3075.24909 C4740.66802,3074.14048 4736.61842,3072.31309 4732.3315,3070.37911 C4725.37932,3067.24209 4718.18831,3064 4710.45421,3064 C4702.71859,3064 4695.53062,3067.24209 4688.57692,3070.37911 C4684.29,3072.31309 4680.2404,3074.14048 4676.09496,3075.24909 C4671.73654,3076.41558 4666.97498,3076.90897 4662.37164,3077.38866 C4654.87638,3078.1653 4647.12554,3078.97087 4640.71493,3082.68351 C4634.19936,3086.45707 4629.62493,3092.81029 4625.19957,3098.9564 C4622.51758,3102.6797 4619.74584,3106.53092 4616.6166,3109.66337 C4613.48888,3112.79429 4609.64313,3115.56888 4605.92212,3118.25209 C4599.78382,3122.68198 4593.43407,3127.26263 4589.6659,3133.78488 C4585.95402,3140.20206 4585.15231,3147.95932 4584.37495,3155.46227 C4583.89727,3160.07185 4583.40286,3164.83829 4582.23909,3169.2027 C4581.13009,3173.35087 4579.30458,3177.40462 4577.37409,3181.69746 C4574.24029,3188.65676 4571,3195.8521 4571,3203.59566 C4571,3211.33769 4574.24029,3218.53455 4577.37409,3225.49233 C4579.30458,3229.78669 4581.13009,3233.84044 4582.23909,3237.98861 C4583.40286,3242.35302 4583.89727,3247.11794 4584.37343,3251.726 C4585.15079,3259.23047 4585.95402,3266.98773 4589.6659,3273.40643 C4593.43559,3279.9302 4599.78382,3284.51085 4605.92364,3288.93922 C4606.10772,3289.07171 4606.29179,3289.20876 4606.47586,3289.34125 C4607.22584,3295.16452 4608.37896,3300.78374 4611.19178,3305.64916 C4617.38332,3316.36222 4630.489,3321.92357 4639.17542,3330.61889 C4647.86183,3339.31421 4653.41596,3352.4318 4664.11805,3358.62969 C4674.66953,3364.74078 4688.76099,3363.05654 4700.81244,3366.28188 C4712.45924,3369.39757 4723.79265,3378 4736.41913,3378 C4749.04866,3378 4760.37903,3369.39757 4772.02734,3366.28188 C4784.07879,3363.05806 4798.17025,3364.7423 4808.72174,3358.63121 C4819.42535,3352.43333 4824.97796,3339.31573 4833.66437,3330.62041 C4842.35078,3321.92509 4855.45495,3316.36374 4861.64953,3305.65068 C4867.75284,3295.08838 4866.07184,3280.98247 4869.29236,3268.91867 C4872.40638,3257.25841 4881,3245.91643 4881,3233.27395 C4881,3220.63148 4872.40638,3209.29101 4869.29236,3197.63076" id="Shape-23"></path>
        </g>
    </g>
</svg>