<?xml version="1.0" encoding="UTF-8"?>
<svg width="329px" height="304px" viewBox="0 0 329 304" version="1.1" xmlns="http://www.w3.org/2000/svg" xmlns:xlink="http://www.w3.org/1999/xlink">
    <title>Paint 1</title>
    <g id="Page-1" stroke="none" stroke-width="1" fill="none" fill-rule="evenodd">
        <g id="Desktop-HD" transform="translate(-4836.000000, -4194.000000)" fill="#000000">
            <path d="M5146.04241,4365.37351 C5146.10008,4365.61848 5146.15487,4365.86634 5146.21254,4366.11132 C5145.51762,4366.71656 5144.79386,4366.97019 5143.94323,4367.33621 C5142.32847,4368.03368 5141.40863,4368.96171 5140.03032,4369.92721 C5138.08107,4371.29621 5135.70219,4372.16372 5133.51938,4373.1811 C5128.90002,4375.33402 5124.28353,4377.50136 5119.6584,4379.63987 C5118.21089,4380.3114 5116.59901,4380.87052 5115.2207,4381.65734 C5113.25992,4382.77847 5111.98541,4384.25987 5109.86027,4385.21672 C5105.34472,4387.2486 5100.82051,4389.10178 5096.84705,4392.02423 C5091.76055,4395.76519 5084.66715,4397.89217 5078.92322,4400.60422 C5079.53164,4400.1402 5080.25539,4399.8664 5081.00222,4399.84911 C5080.23233,4402.18937 5073.79636,4403.97339 5071.58471,4405.00518 C5069.72774,4405.86981 5067.78138,4406.64509 5065.97054,4407.59618 C5064.05013,4408.60491 5062.69777,4410.4581 5060.58993,4411.10945 C5061.27332,4410.79819 5061.95095,4410.48116 5062.62857,4410.16701 C5058.50228,4411.90779 5054.58937,4415.08386 5051.04555,4417.80456 C5048.12745,4420.04682 5044.86622,4421.39853 5041.56173,4422.94333 C5036.15228,4425.46228 5030.73131,4427.96105 5025.3334,4430.50883 C5023.89453,4431.08524 5021.42914,4433.2324 5019.54045,4434.16332 C5015.69386,4436.06262 5012.06065,4438.80637 5008.488,4441.09187 C5005.00185,4443.33126 5000.84384,4444.87606 4997.05493,4446.64279 C4987.72393,4450.99187 4978.39293,4455.34094 4969.06481,4459.68714 C4969.73666,4459.37299 4970.40852,4459.06173 4971.08037,4458.74758 C4968.90333,4459.75919 4966.61095,4460.61518 4964.62999,4461.97552 C4961.4293,4464.1688 4958.04119,4466.6474 4954.62713,4468.41124 C4950.67674,4470.45176 4946.51008,4472.17237 4942.47607,4474.0515 C4936.98589,4476.6108 4932.25406,4479.80416 4926.80137,4482.34328 C4924.6474,4483.34625 4923.00957,4483.98896 4920.76044,4484.39245 C4917.88848,4484.90546 4916.98306,4487.15061 4914.63012,4488.03542 C4916.02285,4487.56564 4917.31754,4486.7183 4917.79044,4485.2859 C4915.87003,4484.5942 4913.73912,4486.74424 4911.94558,4487.31778 C4910.73163,4487.70398 4910.23855,4487.34371 4909.11399,4487.57716 C4908.06151,4487.7962 4906.75529,4488.71559 4905.77201,4489.18537 C4903.49117,4490.27192 4901.81297,4490.18258 4899.58979,4491.10485 C4898.26915,4491.65244 4897.19937,4491.41323 4895.8672,4491.77637 C4894.77435,4492.07611 4893.60077,4492.88598 4892.56847,4493.36729 C4890.22131,4494.45672 4887.72708,4496.03899 4885.19825,4496.58082 C4883.95835,4496.84886 4882.5858,4497.38205 4881.39492,4497.61261 C4879.95028,4497.88929 4879.53506,4498.65881 4878.91223,4496.73934 C4878.61811,4495.81995 4879.04487,4495.00432 4878.71038,4493.9293 C4878.36724,4492.8341 4877.65502,4491.73026 4877.17059,4490.68406 C4876.21615,4488.61472 4875.81535,4485.63175 4873.06737,4487.68668 C4874.10255,4487.39559 4874.86668,4486.19088 4874.49182,4485.24843 C4874.01316,4485.38677 4873.52585,4485.45594 4873.03277,4485.46171 C4873.63254,4484.24258 4875.57602,4483.61717 4875.04257,4482.00896 C4873.87764,4482.19341 4873.04431,4482.95717 4871.89956,4483.05804 C4872.26576,4481.93114 4874.3909,4481.69769 4874.50047,4480.91088 C4874.68213,4479.59376 4873.23462,4479.37184 4872.21963,4479.38049 C4872.85688,4478.94817 4873.49702,4478.53027 4874.16599,4478.1066 C4873.26345,4475.91045 4874.71097,4475.86145 4875.75768,4474.5991 C4876.64868,4473.52407 4877.26286,4472.45194 4875.58467,4471.91875 C4877.0985,4470.87255 4879.57543,4469.126 4879.11695,4467.09124 C4878.69596,4465.22653 4878.2173,4466.27273 4877.16194,4465.31875 C4876.11812,4464.37631 4876.84187,4463.99011 4876.14695,4462.70469 C4873.4999,4463.65579 4872.24558,4462.36749 4869.52067,4462.69317 C4869.87246,4461.86889 4870.3713,4461.13107 4870.76634,4460.32985 C4870.01952,4460.54312 4869.28134,4460.95815 4868.47108,4461.01002 C4868.47973,4459.10208 4868.11641,4457.17972 4865.3569,4458.54872 C4864.93302,4457.85125 4864.52645,4457.1826 4864.10258,4456.48225 C4863.28943,4456.77335 4862.51089,4457.02985 4861.68621,4457.27483 C4861.09509,4455.43029 4864.09681,4453.26584 4862.69255,4451.24549 C4862.1591,4451.39536 4861.617,4451.52793 4861.07779,4451.64322 C4860.0801,4449.61134 4863.6095,4447.83597 4864.28424,4446.22488 C4864.69081,4445.25362 4864.58412,4443.40043 4863.89496,4442.5848 C4863.11354,4441.651 4861.86498,4441.94497 4861.0403,4441.05152 C4860.25311,4440.19842 4860.30501,4438.5931 4859.5726,4437.691 C4858.647,4436.54393 4857.63201,4436.87537 4857.46476,4434.99625 C4857.20525,4432.14009 4860.18102,4429.03031 4855.38288,4430.6731 C4854.26985,4428.78245 4853.86616,4428.39337 4851.6747,4427.89188 C4849.29581,4427.34717 4849.56109,4427.09931 4850.33675,4425.03573 C4850.97112,4423.35835 4850.30215,4421.91154 4850.67124,4420.39844 C4851.1499,4418.42709 4852.67527,4418.5222 4854.20641,4417.58552 C4855.82117,4416.59984 4855.42325,4415.51906 4856.68334,4414.38927 C4857.81078,4413.37766 4860.31366,4412.72054 4861.71792,4412.08648 C4863.58643,4411.24491 4864.56105,4409.84133 4866.31134,4408.93635 C4868.34709,4407.88727 4869.24674,4406.41164 4870.81824,4405.1147 C4872.19656,4403.97339 4874.03911,4403.66212 4875.44049,4402.51793 C4876.31419,4401.80605 4876.57659,4401.25846 4877.62907,4400.70798 C4878.40473,4400.3016 4879.42837,4400.10562 4880.14636,4399.6099 C4880.99123,4399.02195 4881.39492,4398.16597 4882.2196,4397.55497 C4882.93182,4397.02466 4883.99872,4396.91514 4884.75708,4396.44536 C4886.46699,4395.37898 4887.27725,4394.24056 4889.33031,4393.30388 C4890.12327,4392.94362 4891.11519,4392.61794 4891.8476,4392.15392 C4892.59443,4391.68414 4892.86259,4391.03279 4893.37009,4390.65523 C4894.79165,4389.58886 4896.60249,4389.19978 4897.9981,4388.06135 C4899.57538,4386.77017 4900.83546,4386.11594 4902.68667,4385.12738 C4904.60131,4384.11 4905.80662,4382.66895 4907.85967,4381.70921 C4900.49233,4385.14467 4893.11922,4388.58013 4885.74612,4392.01558 C4882.62905,4393.46816 4878.5489,4394.67864 4875.72884,4396.63558 C4874.29286,4397.6299 4873.66137,4398.67034 4871.97453,4399.41968 C4870.22424,4400.19496 4868.71041,4400.75985 4867.70983,4402.49776 C4867.87419,4401.20081 4869.49184,4401.0106 4869.24385,4399.77994 C4869.04489,4398.81732 4867.40418,4398.65016 4867.03798,4397.73077 C4866.81883,4397.18029 4867.21099,4396.45977 4867.21099,4395.94676 C4866.66312,4396.05628 4866.11814,4396.16003 4865.57028,4396.26667 C4865.57316,4395.15706 4865.70292,4394.96685 4865.18389,4393.95235 C4864.71676,4393.04449 4862.71561,4392.91479 4863.87766,4391.09619 C4863.26348,4390.17104 4861.96879,4390.15951 4860.91631,4390.60047 C4860.27617,4389.6955 4860.70293,4388.3265 4861.18159,4387.41576 C4859.17179,4386.75288 4860.31654,4384.19646 4860.94515,4382.5969 C4859.29002,4381.18467 4859.19198,4379.00293 4857.74446,4377.40625 C4856.73235,4376.29088 4855.77215,4377.40625 4855.43766,4375.54442 C4855.19545,4374.18983 4856.81886,4373.06293 4855.85289,4371.57865 C4853.7537,4371.97638 4852.95785,4373.78634 4851.76985,4371.35962 C4850.94229,4369.66494 4851.79581,4368.37665 4852.75601,4366.98748 C4853.89788,4365.33316 4854.69949,4363.62984 4855.6943,4361.866 C4856.40652,4360.60364 4858.77676,4359.12801 4858.45092,4357.60338 C4857.23985,4357.77919 4856.3748,4358.54583 4855.1868,4358.77928 C4854.76869,4358.07316 4854.35924,4357.41028 4853.90941,4356.72723 C4853.41056,4356.85116 4852.90595,4356.97509 4852.40422,4357.09613 C4850.7491,4355.28041 4851.21622,4353.43299 4847.92615,4354.37544 C4845.71739,4355.00662 4844.85811,4357.67832 4842.51959,4357.72155 C4842.52824,4355.95482 4842.7445,4354.59448 4843.41636,4352.82199 C4843.69894,4352.06976 4843.88637,4351.11291 4844.29006,4350.41832 C4844.86676,4349.42688 4846.22489,4349.16173 4845.74334,4347.74086 C4843.12512,4348.5709 4842.95211,4348.64007 4842.95211,4346.11247 C4842.40425,4346.21911 4841.86215,4346.32863 4841.31429,4346.43527 C4840.4377,4343.91632 4847.17932,4340.27623 4848.83445,4338.98506 C4851.95728,4336.55257 4853.95266,4333.39091 4857.20525,4331.11694 C4855.85577,4329.21476 4842.90598,4342.57326 4839.91867,4341.24174 C4838.38465,4340.56156 4840.43482,4336.85231 4840.14647,4335.41702 C4839.77162,4333.54655 4837.26297,4331.70777 4836,4330.64139 C4837.34083,4327.75065 4838.48846,4325.59773 4840.44924,4323.17101 C4841.68338,4321.64062 4842.1332,4320.92874 4843.66146,4319.70385 C4844.82351,4318.77293 4846.02881,4317.19355 4847.25718,4316.22228 C4847.92038,4315.69774 4849.05936,4315.49887 4849.81773,4315.10403 C4850.86443,4314.55067 4851.1326,4313.9973 4852.00342,4313.29407 C4852.78196,4312.66866 4853.72487,4312.55337 4854.47169,4311.97984 C4855.14931,4311.45818 4854.959,4310.87888 4855.62797,4310.34857 C4856.89671,4309.34849 4859.17756,4308.72019 4860.66833,4308.04578 C4862.78193,4307.09469 4864.00454,4305.52395 4866.09796,4304.53539 C4867.83671,4303.70823 4868.3269,4302.70526 4869.84362,4301.77723 C4871.45838,4300.78579 4872.81651,4299.51766 4874.46299,4298.64151 C4876.31419,4297.65295 4877.5714,4296.96701 4879.15732,4295.70465 C4880.8557,4294.35295 4882.51948,4292.94937 4884.50333,4292.01269 C4886.23631,4291.1913 4886.74669,4290.19697 4888.24899,4289.25741 C4889.00735,4288.78187 4890.13192,4288.68099 4890.82684,4288.12763 C4891.4987,4287.60309 4891.31704,4287.02667 4891.98601,4286.50213 C4893.39027,4285.3954 4895.68842,4285.332 4897.0898,4284.22527 C4898.30664,4283.26266 4899.5004,4281.61986 4900.68841,4280.74371 C4902.10997,4279.69462 4903.88621,4279.33724 4905.37697,4278.38904 C4907.5569,4277.00275 4909.05344,4275.62799 4911.45539,4274.52127 C4916.16126,4272.34817 4920.31638,4270.01367 4924.61279,4267.42843 C4926.28811,4266.4197 4927.31752,4265.1314 4929.16295,4264.29848 C4930.8325,4263.54625 4932.47033,4262.72486 4934.13987,4261.97263 C4935.97955,4261.14259 4937.02914,4259.86582 4938.69003,4258.84556 C4941.23905,4257.28346 4944.24077,4256.586 4946.72923,4254.90285 C4951.12368,4251.92853 4955.51236,4249.06661 4960.39124,4246.78399 C4962.30589,4245.88766 4963.49677,4245.12103 4965.05674,4243.84138 C4966.00542,4243.06321 4967.00022,4242.68854 4968.12767,4242.18994 C4969.65016,4241.51841 4970.09998,4240.93623 4971.29664,4239.94479 C4972.38083,4239.04846 4973.56595,4238.84094 4974.7626,4238.16653 C4976.35718,4237.27309 4977.55671,4235.93868 4979.16859,4235.04523 C4982.24816,4233.33615 4984.90098,4231.20916 4987.81331,4229.28969 C4992.8306,4225.98104 4998.44189,4223.59755 5003.28328,4220.11022 C5004.4511,4219.26865 5005.61892,4218.85939 5006.90208,4218.22533 C5008.51972,4217.42699 5009.26943,4216.49031 5010.65351,4215.44123 C5013.29768,4213.43529 5016.27921,4211.73197 5018.86283,4209.69721 C5020.6852,4208.26193 5022.42683,4206.95346 5023.87146,4205.3366 C5025.48334,4203.52665 5027.91701,4202.44586 5029.79705,4200.60132 C5030.53523,4199.87792 5031.14076,4199.45425 5031.86452,4198.65015 C5032.26244,4198.21207 5033.4418,4197.06211 5033.94929,4196.67303 C5034.83741,4195.98997 5036.12922,4195.70753 5037.06059,4195.05618 C5038.56289,4194.00709 5037.62864,4193.39897 5039.47696,4194.89478 C5041.20129,4196.28683 5042.02885,4197.76246 5044.67879,4197.41949 C5045.80335,4197.27539 5046.46944,4197.016 5047.5248,4197.02753 C5049.26355,4197.04482 5050.22087,4196.967 5051.88465,4196.39347 C5052.59111,4197.99015 5053.31775,4197.92386 5054.78545,4197.91233 C5055.24104,4197.51748 5055.76296,4197.30421 5056.35408,4197.27251 C5057.10955,4197.56648 5057.18452,4198.97871 5057.54784,4199.55801 C5058.30332,4200.77425 5059.13377,4201.14604 5059.90943,4202.35076 C5060.70239,4203.58429 5060.87828,4205.11757 5061.86732,4206.22429 C5062.36617,4206.10036 5062.8679,4205.97931 5063.37251,4205.85826 C5065.10838,4207.80368 5065.34771,4210.8414 5067.03455,4212.85887 C5067.94862,4213.95118 5068.54839,4214.44114 5069.19141,4215.79572 C5069.92959,4217.34917 5070.63604,4217.45004 5071.55588,4218.58847 C5072.29117,4219.49921 5072.29694,4220.98061 5073.00051,4221.91153 C5073.90016,4223.09895 5074.94976,4224.35554 5075.92726,4225.47956 C5077.76405,4227.59213 5080.91283,4228.07921 5082.76981,4230.17737 C5083.55123,4231.05929 5083.85688,4232.15449 5084.54892,4233.07676 C5085.042,4233.07964 5085.41974,4233.28715 5085.67637,4233.70217 C5086.16657,4234.31029 5086.46068,4235.47754 5086.78652,4236.19518 C5087.93415,4238.69108 5088.73288,4240.27335 5090.75133,4241.99396 C5091.72884,4242.824 5091.84994,4243.19579 5092.59388,4244.36304 C5092.70057,4244.93369 5092.99757,4245.37177 5093.47912,4245.67727 C5093.69826,4245.7205 5093.91453,4245.76662 5094.13367,4245.81273 C5094.48258,4246.30557 5094.54601,4246.85317 5094.31245,4247.4584 C5094.88627,4249.15596 5096.22421,4254.50512 5098.30898,4254.76163 C5098.38683,4256.33814 5098.6723,4257.2777 5099.41048,4258.91185 C5099.74496,4259.65254 5099.97276,4260.82556 5100.6994,4261.31839 C5102.16998,4262.30983 5102.24784,4261.39045 5103.33492,4262.96983 C5104.37586,4264.48005 5103.91738,4265.83752 5104.36721,4267.42267 C5105.30723,4270.72843 5106.46351,4269.0914 5108.85682,4268.2873 C5110.65035,4267.6907 5111.22417,4268.69079 5112.89948,4268.44869 C5115.26972,4268.10572 5116.57306,4265.5349 5117.18724,4269.36232 C5117.36314,4270.45175 5117.16418,4271.03681 5117.63995,4272.10607 C5118.4704,4273.96502 5119.07017,4273.14074 5120.41388,4273.99384 C5121.21549,4274.50397 5121.07997,4275.48965 5121.56151,4276.20153 C5122.23625,4277.20161 5123.3464,4277.79821 5124.04132,4278.81847 C5124.54017,4278.70318 5125.03324,4278.58502 5125.52921,4278.46109 C5127.45827,4280.62554 5128.56265,4284.49907 5129.76506,4287.16501 C5131.2789,4290.52265 5134.38731,4292.68422 5135.95594,4296.11391 C5136.57589,4297.46561 5137.19584,4298.82308 5137.84174,4300.16325 C5138.66354,4301.85792 5138.36077,4302.93295 5138.8798,4304.59015 C5139.82559,4307.62211 5141.71717,4310.62814 5143.06376,4313.51023 C5143.65488,4314.77547 5144.11047,4316.44708 5144.90632,4317.57975 C5145.49167,4318.40402 5146.37978,4318.75564 5146.95648,4319.5828 C5147.45821,4320.30332 5147.48993,4321.3207 5147.99743,4322.03546 C5150.09085,4324.99537 5152.48703,4327.00707 5154.71886,4329.771 C5155.66177,4330.94113 5156.52393,4332.26113 5157.42358,4333.46585 C5157.79844,4333.97021 5158.63465,4334.58986 5158.89993,4334.94436 C5159.40166,4335.62453 5159.60639,4336.52951 5160.10812,4337.17798 C5160.79151,4338.05414 5162.79266,4338.95912 5163.23095,4339.85545 C5163.8509,4341.10628 5163.66059,4342.39746 5164.15655,4343.93938 C5162.42069,4344.85876 5162.47259,4346.04907 5162.98008,4347.59387 C5163.25978,4348.44409 5163.9028,4349.19343 5164.17097,4350.04365 C5164.54006,4351.22819 5164.15367,4351.7412 5164.37858,4352.82775 C5164.79957,4354.87116 5165.41664,4354.85098 5164.59773,4356.96932 C5164.00084,4358.51412 5163.2569,4359.65831 5162.14675,4360.85438 C5161.89589,4361.12242 5160.83765,4362.04757 5160.55218,4362.31272 C5159.92646,4362.89491 5159.27479,4363.70477 5158.62889,4364.2149 C5156.95934,4365.53779 5155.16869,4366.13726 5153.25116,4366.20067 C5151.99396,4366.2439 5150.32153,4365.92687 5149.18543,4366.10268 C5147.25637,4366.39665 5147.83307,4364.5377 5146.04241,4365.37351" id="Paint-1"></path>
        </g>
    </g>
</svg>