<?xml version="1.0" encoding="UTF-8"?>
<svg width="310px" height="282px" viewBox="0 0 310 282" version="1.1" xmlns="http://www.w3.org/2000/svg" xmlns:xlink="http://www.w3.org/1999/xlink">
    <title>Shape 19</title>
    <g id="Page-1" stroke="none" stroke-width="1" fill="none" fill-rule="evenodd">
        <g id="Desktop-HD" transform="translate(-3808.000000, -3010.000000)" fill="#000000">
            <polygon id="Shape-19" points="4089.81833 3066.39968 4089.81833 3038.19984 4061.63666 3038.19984 4061.63666 3010 4033.45498 3010 4005.27331 3010 4005.27331 3038.19984 3977.09164 3038.19984 3977.09164 3066.39968 3948.90836 3066.39968 3948.90836 3038.19984 3920.72829 3038.19984 3920.72829 3010 3892.54502 3010 3864.36334 3010 3864.36334 3038.19984 3836.18167 3038.19984 3836.18167 3066.39968 3808 3066.39968 3808 3094.59952 3808 3122.79936 3808 3150.9992 3836.18167 3150.9992 3836.18167 3179.19904 3864.36334 3179.19904 3864.36334 3207.40048 3892.54502 3207.40048 3892.54502 3235.59871 3920.72829 3235.59871 3920.72829 3235.60032 3920.72829 3263.80016 3948.90836 3263.80016 3948.90836 3292 3977.09164 3292 3977.09164 3263.80016 4005.27331 3263.80016 4005.27331 3235.60032 4005.27331 3235.59871 4033.45498 3235.59871 4033.45498 3207.40048 4061.63666 3207.40048 4061.63666 3179.19904 4089.81833 3179.19904 4089.81833 3150.9992 4118 3150.9992 4118 3122.79936 4118 3094.59952 4118 3066.39968"></polygon>
        </g>
    </g>
</svg>