<?xml version="1.0" encoding="UTF-8"?>
<svg width="426px" height="421px" viewBox="0 0 426 421" version="1.1" xmlns="http://www.w3.org/2000/svg" xmlns:xlink="http://www.w3.org/1999/xlink">
    <title>Shape 16</title>
    <g id="Page-1" stroke="none" stroke-width="1" fill="none" fill-rule="evenodd">
        <g id="Desktop-HD" transform="translate(-4434.000000, -2004.000000)" fill="#000000">
            <path d="M4521.66773,2282.66136 L4576.33864,2337.33227 C4583.88712,2344.88075 4583.88712,2357.11925 4576.33864,2364.66773 L4521.66773,2419.33864 C4514.11925,2426.88712 4501.88075,2426.88712 4494.33227,2419.33864 L4439.66136,2364.66773 C4432.11288,2357.11925 4432.11288,2344.88075 4439.66136,2337.33227 L4494.33227,2282.66136 C4501.88075,2275.11288 4514.11925,2275.11288 4521.66773,2282.66136 Z M4674.55065,2389.26362 L4685.73638,2400.44935 C4687.42121,2402.13418 4687.42121,2404.86582 4685.73638,2406.55065 L4674.55065,2417.73638 C4672.86582,2419.42121 4670.13418,2419.42121 4668.44935,2417.73638 L4657.26362,2406.55065 C4655.57879,2404.86582 4655.57879,2402.13418 4657.26362,2400.44935 L4668.44935,2389.26362 C4670.13418,2387.57879 4672.86582,2387.57879 4674.55065,2389.26362 Z M4674.47288,2104.96542 L4781.03458,2211.52712 C4795.65514,2226.14769 4795.65514,2249.85231 4781.03458,2264.47288 L4674.47288,2371.03458 C4659.85231,2385.65514 4636.14769,2385.65514 4621.52712,2371.03458 L4514.96542,2264.47288 C4500.34486,2249.85231 4500.34486,2226.14769 4514.96542,2211.52712 L4621.52712,2104.96542 C4636.14769,2090.34486 4659.85231,2090.34486 4674.47288,2104.96542 Z M4822.43385,2251.49341 L4856.50659,2285.56615 C4861.16447,2290.22404 4861.16447,2297.77596 4856.50659,2302.43385 L4822.43385,2336.50659 C4817.77596,2341.16447 4810.22404,2341.16447 4805.56615,2336.50659 L4771.49341,2302.43385 C4766.83553,2297.77596 4766.83553,2290.22404 4771.49341,2285.56615 L4805.56615,2251.49341 C4810.22404,2246.83553 4817.77596,2246.83553 4822.43385,2251.49341 Z M4489.22563,2145.20006 L4520.79994,2176.77437 C4525.06669,2181.04112 4525.06669,2187.95888 4520.79994,2192.22563 L4489.22563,2223.79994 C4484.95888,2228.06669 4478.04112,2228.06669 4473.77437,2223.79994 L4442.20006,2192.22563 C4437.93331,2187.95888 4437.93331,2181.04112 4442.20006,2176.77437 L4473.77437,2145.20006 C4478.04112,2140.93331 4484.95888,2140.93331 4489.22563,2145.20006 Z M4741.43538,2009.1509 L4791.8491,2059.56462 C4798.71697,2066.43249 4798.71697,2077.56751 4791.8491,2084.43538 L4741.43538,2134.8491 C4734.56751,2141.71697 4723.43249,2141.71697 4716.56462,2134.8491 L4666.1509,2084.43538 C4659.28303,2077.56751 4659.28303,2066.43249 4666.1509,2059.56462 L4716.56462,2009.1509 C4723.43249,2002.28303 4734.56751,2002.28303 4741.43538,2009.1509 Z M4484.40109,2101.99456 L4494.00544,2111.59891 C4495.33152,2112.925 4495.33152,2115.075 4494.00544,2116.40109 L4484.40109,2126.00544 C4483.075,2127.33152 4480.925,2127.33152 4479.59891,2126.00544 L4469.99456,2116.40109 C4468.66848,2115.075 4468.66848,2112.925 4469.99456,2111.59891 L4479.59891,2101.99456 C4480.925,2100.66848 4483.075,2100.66848 4484.40109,2101.99456 Z" id="Shape-16"></path>
        </g>
    </g>
</svg>