<?xml version="1.0" encoding="UTF-8"?>
<svg width="311px" height="231px" viewBox="0 0 311 231" version="1.1" xmlns="http://www.w3.org/2000/svg" xmlns:xlink="http://www.w3.org/1999/xlink">
    <title>Paint 17</title>
    <g id="Page-1" stroke="none" stroke-width="1" fill="none" fill-rule="evenodd">
        <g id="Desktop-HD" transform="translate(-5139.000000, -4896.000000)" fill="#000000">
            <path d="M5449.27113,4973.5755 L5448.58433,4971.07327 C5448.16495,4968.93995 5446.66412,4967.74364 5444.87702,4966.7972 C5444.14781,4965.82955 5443.13352,4965.73054 5442.04265,4965.86373 L5435.35135,4962.9313 C5434.91665,4962.45631 5434.40538,4962.02965 5434.06021,4961.49573 C5432.66305,4959.32941 5430.7605,4958.97346 5428.47156,4959.80911 C5428.06985,4959.95526 5427.6434,4960.03776 5427.22872,4960.14973 C5426.36522,4960.00948 5425.50053,4959.8704 5424.63702,4959.73132 C5424.11986,4958.94871 5423.6027,4958.16728 5423.08436,4957.38467 C5422.74037,4955.75227 5424.69239,4954.42631 5423.7476,4952.56526 C5422.58016,4953.27125 5421.50696,4953.92068 5420.43258,4954.5701 C5419.55847,4954.08451 5418.68436,4953.59891 5417.80907,4953.1145 L5417.80789,4953.11568 C5417.75842,4952.25292 5417.71129,4951.39016 5417.66417,4950.52623 C5417.13759,4949.35467 5416.09973,4949.16373 5414.98058,4949.13073 C5414.97587,4948.23026 5414.97116,4947.32861 5414.96527,4946.42813 C5416.23638,4946.62025 5417.50631,4946.81237 5418.93057,4947.02806 C5419.60324,4946.19241 5420.26176,4945.34262 5420.95445,4944.52347 C5421.91456,4943.38609 5423.4684,4945.00789 5424.57341,4943.71139 C5424.9386,4943.28237 5426.22739,4943.64303 5427.20045,4943.64303 L5427.20045,4939.62509 C5427.44313,4937.6391 5426.80698,4935.87351 5425.8457,4934.18925 C5426.88709,4933.53865 5427.21341,4932.54978 5427.19338,4931.38176 C5427.17925,4930.5025 5427.19456,4929.62206 5427.19692,4928.74163 C5425.83863,4926.47748 5424.48034,4924.21098 5423.12206,4921.94565 C5422.44468,4921.91265 5421.75788,4921.94329 5421.09464,4921.83368 C5420.16045,4921.6781 5419.36056,4921.24908 5419.27338,4920.17064 C5419.19563,4919.19945 5419.53373,4918.41448 5420.55392,4918.08446 C5421.81443,4917.67666 5423.27403,4917.54347 5423.60506,4915.86157 C5422.02412,4913.5267 5419.02246,4914.36235 5417.09282,4913.08708 C5416.98562,4912.69577 5416.80891,4912.3469 5416.88431,4912.27971 C5418.81394,4910.5542 5418.12479,4908.60357 5417.26717,4906.74134 C5417.04688,4906.26517 5416.18101,4905.78783 5415.64147,4905.81847 C5414.54353,4905.87976 5413.46562,4906.28756 5412.52436,4906.5174 C5410.53582,4905.27041 5408.65684,4904.09414 5406.77903,4902.91669 C5405.5303,4902.734 5404.28511,4902.48413 5403.02931,4902.39927 C5402.48741,4902.36391 5401.92313,4902.67153 5401.36945,4902.82357 C5400.58958,4902.48295 5399.6118,4902.32383 5399.08286,4901.75102 C5398.52565,4901.14521 5398.49384,4900.08798 5398.06032,4899.32658 C5396.72677,4896.98582 5394.72527,4895.80012 5391.96864,4896.0276 C5389.1166,4896.26332 5386.294,4896.91393 5383.38776,4896.2704 C5382.61614,4896.09949 5381.69373,4896.69706 5380.82551,4896.86089 C5379.51906,4897.10722 5378.19847,4897.28284 5376.88495,4897.48792 C5374.50765,4897.33352 5372.1869,4897.47142 5370.09587,4898.79973 C5364.79585,4898.21513 5359.80211,4900.24238 5354.61518,4900.64782 C5354.25587,4900.67611 5353.92955,4901.1511 5353.58792,4901.41747 C5351.38262,4901.4929 5349.17614,4901.56833 5346.96966,4901.64377 C5342.96313,4901.63316 5338.95424,4901.69563 5334.95006,4901.58837 C5331.73635,4901.50233 5329.32136,4902.59728 5327.95012,4905.61457 C5325.59756,4906.46672 5323.245,4907.31769 5320.89245,4908.16866 C5318.6895,4908.44681 5316.47242,4908.63893 5314.28832,4909.01963 C5310.79542,4909.62898 5307.34728,4910.64142 5303.83317,4910.95022 C5301.33218,4911.16945 5299.04324,4911.83419 5296.72484,4912.59677 C5294.89652,4912.54373 5293.06819,4912.48951 5291.23986,4912.43647 C5290.33041,4910.73335 5288.61871,4911.23309 5287.18974,4910.96083 C5287.14851,4910.04857 5287.10963,4909.13513 5287.06958,4908.22169 C5287.16147,4907.40726 5287.25336,4906.59165 5287.34407,4905.77722 C5288.06739,4905.16669 5288.53389,4904.3664 5287.85769,4903.58379 C5287.51724,4903.19013 5286.62428,4902.99212 5286.07885,4903.12059 C5285.03981,4903.36339 5284.07028,4903.90438 5283.07247,4904.32161 C5282.16184,4904.29568 5281.25239,4904.27093 5280.34294,4904.245 C5279.27328,4904.3275 5278.20479,4904.40883 5276.72634,4904.52198 C5277.63697,4906.0542 5278.30374,4907.17625 5278.97052,4908.29713 C5278.52168,4908.38906 5278.07285,4908.48099 5277.62401,4908.5741 C5275.70615,4908.47746 5274.49866,4907.13264 5273.0744,4906.09191 C5269.9997,4903.84544 5266.70589,4902.12465 5262.67697,4902.95087 C5260.7167,4902.9379 5258.7529,4902.84832 5256.79617,4902.93083 C5253.95826,4903.05341 5251.24522,4903.6604 5248.96217,4905.5132 C5246.29507,4906.05184 5243.62915,4906.59047 5240.96206,4907.13028 C5238.49759,4906.47143 5236.28168,4907.17507 5234.15649,4908.37727 C5232.60147,4908.40556 5231.03113,4908.3207 5229.49496,4908.5081 C5228.688,4908.60711 5227.94112,4909.18581 5227.16597,4909.54765 C5225.86187,4909.63016 5224.5566,4909.71384 5223.2525,4909.79634 C5222.11804,4909.74095 5221.09785,4909.95899 5220.4087,4910.97615 C5219.99638,4910.93843 5219.59349,4910.98558 5219.20002,4911.11641 C5215.47858,4910.88893 5211.82899,4913.49606 5208.03804,4911.39221 C5207.76945,4911.2437 5207.20399,4911.60082 5206.78814,4911.75287 C5204.48741,4912.59087 5202.02883,4912.74056 5199.75049,4913.88383 C5197.63472,4914.94577 5194.91697,4914.459 5192.8495,4916.07136 C5191.45587,4917.15688 5189.12217,4915.91343 5188.02894,4917.9006 C5185.28292,4918.41212 5182.61935,4919.43635 5179.75788,4919.21948 C5177.76581,4919.33617 5175.77373,4919.45285 5174.03022,4919.55539 C5171.9604,4922.84966 5171.9604,4922.84966 5171.70005,4926.00603 C5169.64672,4928.8642 5168.14353,4932.20208 5164.80377,4933.94056 C5162.57844,4934.09025 5160.35429,4934.23875 5158.11012,4934.38844 C5157.07815,4935.2288 5156.0344,4936.04795 5155.02482,4936.90717 C5151.37523,4940.01521 5151.01357,4942.80267 5153.78551,4946.78172 C5154.67494,4948.05936 5155.67981,4949.25802 5156.63167,4950.4944 L5156.59515,4954.50764 C5156.20757,4955.28553 5155.60088,4956.02807 5155.47247,4956.84604 C5154.87403,4960.67187 5155.41004,4964.41637 5156.59279,4968.08073 C5155.21919,4969.43851 5153.84441,4970.79747 5152.47081,4972.15525 C5148.35826,4976.17673 5144.23156,4980.18407 5140.14021,4984.22677 C5139.12474,4985.23096 5138.83729,4986.57342 5139.08233,4987.92766 C5139.35445,4989.43867 5139.78915,4990.92727 5140.23092,4992.40174 C5140.67504,4993.8821 5138.85025,4995.32474 5140.19911,4996.79449 C5140.28511,4998.1228 5140.37229,4999.45112 5140.45828,5000.77943 C5140.3664,5002.99172 5139.73143,5005.37727 5140.97073,5007.33143 C5143.08179,5010.66224 5142.86385,5015.1481 5146.19065,5017.97917 C5147.4653,5017.24488 5148.59976,5016.59192 5149.73539,5015.93778 C5151.62026,5018.47655 5151.76045,5021.17207 5150.57063,5024.04911 C5150.20072,5024.94369 5149.51039,5025.94081 5150.44575,5026.87782 C5151.09721,5026.70456 5152.10444,5026.33211 5152.15863,5026.43937 C5153.12581,5028.3735 5155.41122,5029.59456 5155.2887,5032.11329 C5155.1815,5032.52227 5155.15911,5032.93597 5155.21919,5033.35556 L5153.77727,5036.0228 C5153.18353,5036.30449 5152.61689,5036.69933 5151.99135,5036.8502 C5147.65261,5037.89918 5146.83151,5039.08134 5147.7869,5043.00146 C5148.04607,5044.06577 5148.23103,5045.14893 5148.49491,5046.21205 C5149.19703,5049.04783 5150.88752,5050.84288 5153.87622,5051.23537 C5154.40045,5052.57311 5154.92468,5053.91203 5155.44891,5055.2486 C5155.64093,5056.09485 5155.55494,5057.22398 5156.07445,5057.73433 C5157.62712,5059.25712 5157.67777,5061.16178 5157.79558,5063.04523 C5159.62626,5063.37171 5161.37095,5063.56736 5163.04731,5064.01996 C5164.2819,5064.35351 5164.82615,5066.37132 5164.04275,5067.35783 C5162.94482,5068.74037 5161.77148,5070.06279 5160.62996,5071.40996 C5159.9679,5071.44414 5159.30466,5071.52075 5158.64377,5071.50071 C5156.16163,5071.42646 5154.24377,5072.60509 5153.26246,5074.70187 C5152.22696,5076.91298 5151.7416,5079.31385 5154.1295,5081.31987 C5154.50176,5081.63221 5154.05646,5082.91927 5153.98931,5083.7561 C5154.371,5085.00898 5154.63488,5086.31372 5155.1544,5087.5065 C5156.66937,5090.97638 5157.7249,5094.59949 5157.92752,5098.34281 C5158.07242,5101.03009 5158.7604,5103.42978 5159.87012,5105.65738 C5161.06112,5105.18358 5162.2427,5104.71212 5163.42428,5104.24185 C5163.97914,5105.37451 5165.01346,5105.56545 5166.11965,5105.61849 C5166.7181,5106.61915 5167.50621,5106.97156 5168.60297,5106.38342 C5169.12956,5106.09937 5169.68206,5105.86482 5170.22396,5105.6067 C5170.41951,5106.23727 5170.61507,5106.86666 5170.84008,5107.59152 C5169.88468,5108.13251 5168.98112,5108.64285 5167.78894,5109.31821 C5168.08934,5110.33772 5168.63006,5111.36195 5168.6336,5112.38854 C5168.63949,5113.68738 5168.08934,5114.9827 5168.03279,5116.2898 C5168.01395,5116.70585 5168.7408,5117.40478 5169.23676,5117.52736 C5169.77395,5117.66054 5170.44072,5117.27277 5171.15462,5117.08655 C5171.05213,5116.29805 5170.9732,5115.65923 5170.88602,5115.02159 C5170.80002,5114.37806 5170.70578,5113.73571 5170.63274,5113.21711 C5171.78016,5111.08144 5173.83467,5110.60881 5175.69716,5109.92638 C5176.20725,5109.73898 5177.11435,5109.97588 5177.50664,5110.35776 C5177.76816,5110.61352 5177.65271,5111.66486 5177.33111,5112.02198 C5176.65138,5112.7763 5176.14364,5113.39391 5177.09903,5114.21305 C5177.84238,5114.85069 5178.76832,5115.08995 5179.52698,5114.37453 C5180.81341,5113.16289 5181.97732,5111.82044 5183.20602,5110.51805 C5186.04864,5111.60357 5188.99376,5112.43214 5192.13443,5112.27421 C5192.52318,5112.33785 5192.90958,5112.41682 5193.29362,5112.50876 C5193.37138,5113.60724 5193.59049,5114.62204 5194.81095,5115.03574 C5195.23033,5115.04399 5195.64972,5115.06756 5196.06792,5115.1041 C5195.3929,5115.92089 5194.7167,5116.73768 5193.99574,5117.61104 C5194.53646,5118.61523 5194.9582,5119.64418 5195.59553,5120.51283 C5196.26466,5121.42626 5197.26599,5121.81285 5198.45935,5121.80342 C5201.11938,5121.78457 5201.37619,5121.91304 5202.83933,5123.26257 C5203.14562,5123.56547 5203.52142,5124.17247 5203.74642,5124.12179 C5206.01416,5123.60555 5207.86723,5124.62978 5209.63194,5125.72001 C5212.40977,5124.69578 5214.80356,5122.92076 5217.80404,5123.1506 C5219.17764,5122.7039 5220.55006,5122.25602 5221.92366,5121.8105 L5222.59751,5121.87768 L5223.27135,5121.79282 C5223.70134,5121.80107 5224.13721,5121.86118 5224.56013,5121.8105 C5226.86557,5121.53705 5226.93978,5121.46398 5227.30498,5119.10908 C5227.36977,5118.68713 5227.33443,5118.24986 5227.34621,5117.81966 L5227.34739,5117.81848 C5228.1461,5117.15491 5228.94717,5116.49134 5229.71644,5115.8537 C5231.44109,5116.93333 5231.44109,5116.93333 5233.46615,5117.16552 C5232.75226,5115.95389 5232.10905,5114.8613 5231.46466,5113.76753 C5232.39413,5112.86117 5233.45791,5112.05498 5234.22482,5111.02722 C5235.54305,5109.26045 5236.6457,5107.3334 5237.90032,5105.51595 C5238.60361,5104.49644 5239.71333,5104.34675 5240.86546,5104.43515 C5240.91611,5104.78284 5240.97502,5105.13054 5241.04217,5105.47588 C5240.89844,5108.13486 5240.97619,5110.84925 5238.77325,5112.89888 C5238.4917,5113.16054 5238.45989,5113.7086 5238.34444,5114.13291 C5238.11119,5114.98859 5238.8616,5116.39705 5239.79697,5116.8909 C5240.59451,5117.31285 5241.8397,5116.41945 5242.14953,5115.16539 C5242.6231,5113.24068 5243.0684,5111.30655 5243.52666,5109.37714 C5244.64581,5107.20492 5244.64698,5107.20257 5246.34455,5107.66105 C5247.21159,5107.89442 5248.0751,5108.14429 5248.94096,5108.38709 C5249.86926,5108.83025 5250.79756,5109.27224 5251.72586,5109.7154 C5252.0887,5112.11745 5249.84452,5113.2289 5249.07526,5115.06992 C5246.94182,5116.46895 5247.85009,5118.59166 5247.79119,5120.48336 C5247.0985,5121.59716 5246.40463,5122.71097 5245.72961,5123.79766 C5246.46824,5125.61865 5246.46824,5125.61865 5248.03033,5127 C5248.67708,5125.86852 5249.16008,5124.6781 5249.94701,5123.74109 C5250.77636,5122.7534 5251.90374,5122.01676 5252.88152,5121.14929 C5253.03467,5121.01256 5253.08415,5120.76034 5253.18192,5120.56233 C5255.47204,5118.65531 5256.36736,5116.46895 5254.54846,5113.73924 C5254.61678,5112.43214 5254.68511,5111.12387 5254.75344,5109.81559 C5255.18696,5109.13552 5255.71237,5108.49435 5256.03162,5107.7636 C5256.5264,5106.63211 5256.88217,5105.43934 5257.29684,5104.2725 C5258.15328,5104.30903 5259.01089,5104.34557 5259.86733,5104.38211 L5259.82846,5104.4269 C5260.29378,5105.38984 5260.64013,5106.44117 5261.25625,5107.29568 C5261.95954,5108.27158 5262.25405,5109.12138 5261.6933,5110.27643 C5261.42353,5110.83157 5261.50364,5111.55642 5261.42471,5112.20467 C5261.73807,5114.27198 5259.56457,5114.14823 5258.75172,5115.23964 C5258.64923,5117.08773 5258.30996,5118.96411 5259.28302,5121.64313 C5260.49523,5120.12388 5261.10664,5118.78613 5262.14685,5118.17678 C5264.05293,5117.05826 5264.08002,5115.43058 5264.06235,5113.65085 C5265.50546,5113.51648 5266.6729,5113.03207 5266.6835,5111.32423 C5266.69528,5109.5445 5267.35263,5108.34466 5269.2646,5108.13015 C5271.04345,5108.8609 5269.54615,5111.03547 5271.12827,5112.0927 C5272.45357,5112.97785 5273.80125,5113.60842 5275.24789,5114.16827 C5275.59071,5114.30027 5275.78155,5114.8283 5276.1491,5115.31743 C5276.19622,5116.05525 5276.25041,5116.9404 5276.3046,5117.82673 C5276.37411,5118.25104 5276.3635,5118.7107 5276.5355,5119.08786 C5276.69689,5119.44499 5277.14337,5120.01662 5277.30358,5119.9683 C5277.8337,5119.80565 5278.38267,5119.48506 5278.74551,5119.07018 C5278.98583,5118.79321 5278.91986,5118.24986 5278.99055,5117.82673 C5279.40168,5116.56913 5279.9212,5115.33511 5280.19451,5114.04922 C5280.4525,5112.83406 5278.64067,5111.65896 5280.16741,5110.20454 C5281.2359,5110.77499 5282.35269,5111.3702 5283.94894,5112.22117 C5285.10225,5110.05721 5287.44656,5108.93869 5288.14631,5106.49657 C5287.71515,5105.5572 5287.34053,5104.74277 5286.96709,5103.92834 C5286.89052,5103.28127 5286.90112,5102.60945 5286.72324,5101.99185 C5286.23906,5100.32762 5287.38294,5100.26162 5288.47146,5100.10604 C5292.11751,5101.35303 5292.21764,5101.42729 5296.0993,5105.76346 C5295.35831,5107.3994 5293.85512,5106.74172 5292.62878,5106.91145 C5292.10808,5106.15712 5291.39536,5105.65974 5290.56838,5106.25731 C5289.74257,5106.85487 5289.75081,5108.47902 5290.58251,5109.03769 C5291.41775,5109.59636 5292.134,5109.08955 5292.6547,5108.33759 C5293.52527,5108.91512 5293.94112,5109.76491 5293.08468,5110.48387 C5292.28125,5111.15805 5291.17507,5111.47392 5290.09127,5111.99959 C5290.50241,5113.30433 5290.84404,5114.3651 5291.16565,5115.43176 C5291.29641,5115.86431 5291.33175,5116.32987 5291.4955,5116.74593 C5292.27301,5118.73781 5293.73732,5119.13972 5295.86133,5118.21214 C5298.16206,5117.20795 5299.6087,5115.74763 5299.40018,5113.06389 C5299.34835,5112.38854 5299.40254,5111.70611 5299.40843,5111.0284 C5300.83151,5110.19746 5302.125,5110.13618 5303.38433,5111.43502 C5303.77898,5111.84401 5304.51526,5111.92062 5305.09603,5112.15045 L5307.58053,5113.69328 C5307.57111,5114.59257 5307.53812,5115.49187 5307.55815,5116.38998 C5307.577,5117.28692 5307.52516,5118.21096 5307.72897,5119.07136 C5307.99403,5120.19577 5308.69378,5121.07857 5309.86947,5121.44276 C5310.75065,5121.71503 5312.14546,5120.93595 5312.53893,5119.85044 C5313.14797,5118.17207 5313.66396,5116.45834 5314.22,5114.75994 C5315.36623,5113.40334 5317.05555,5114.05512 5318.44918,5113.61549 C5318.91569,5114.11051 5319.38101,5114.60436 5319.84634,5115.09938 C5319.83221,5115.54137 5319.79804,5115.98453 5319.80747,5116.42534 C5319.93352,5122.30434 5319.93469,5122.30434 5325.63055,5123.98153 C5327.60731,5123.3215 5329.46744,5122.23362 5331.35467,5122.18648 C5333.80736,5122.12519 5334.59547,5120.18399 5336.12693,5119.09493 C5336.50155,5119.25405 5336.89384,5119.3342 5337.30144,5119.33891 C5337.86337,5119.62532 5338.51365,5120.25588 5338.97073,5120.13802 C5340.62942,5119.71136 5342.22214,5119.03365 5343.5922,5118.54098 C5344.14824,5116.88265 5343.20581,5116.06114 5342.77818,5115.08052 L5341.77919,5113.62845 C5341.77684,5112.34846 5341.77566,5111.06729 5341.77448,5109.7873 C5342.15499,5109.29581 5342.5355,5108.80432 5342.91601,5108.31284 C5344.38503,5108.33052 5345.31686,5107.4489 5346.14267,5106.38696 C5348.77443,5106.61679 5347.61876,5104.4104 5348.14417,5103.26713 C5349.81582,5102.98543 5351.49689,5102.70138 5353.04838,5102.43973 C5353.88714,5101.09963 5354.57984,5099.99171 5355.27253,5098.8838 C5357.2057,5097.98333 5358.90091,5096.75991 5361.26642,5096.63144 C5363.33507,5096.51947 5365.34599,5095.3597 5367.38283,5094.66195 C5368.88131,5095.00611 5370.3786,5095.3491 5371.8759,5095.69325 C5374.77743,5093.91824 5377.87097,5094.92125 5380.87028,5095.35263 C5381.77973,5094.06203 5382.38996,5092.80561 5383.35478,5091.95346 C5384.11344,5091.28282 5385.31151,5091.11192 5386.31403,5090.71944 C5387.37073,5092.30705 5388.98701,5091.91221 5390.49491,5091.89807 C5392.65309,5092.09608 5394.81127,5092.29409 5397.24982,5092.51803 C5397.63622,5091.9959 5398.14514,5091.30875 5398.65405,5090.62161 C5400.34337,5090.22795 5401.1786,5088.13589 5403.38508,5088.4824 C5404.14257,5088.60144 5405.15097,5087.35092 5405.99092,5086.66024 C5406.9687,5085.8576 5407.88757,5084.98305 5408.79585,5084.17216 C5408.32109,5082.88391 5407.59777,5081.82433 5407.63783,5080.7942 C5407.68495,5079.5814 5408.39295,5078.39569 5408.86182,5077.06502 C5405.60099,5073.77783 5401.67574,5072.72885 5397.27574,5072.97872 C5392.75322,5072.99639 5388.23071,5073.0129 5383.70701,5073.0294 C5382.3393,5073.02586 5380.97041,5073.02232 5379.6027,5073.01761 C5377.33732,5073.02232 5375.07429,5073.02704 5372.81009,5073.03175 C5371.91478,5072.52023 5371.02888,5071.99574 5370.12532,5071.50071 C5369.08275,5070.93144 5368.86599,5069.95789 5368.79884,5068.89948 C5370.28789,5068.44807 5371.75103,5067.77978 5373.27306,5067.59474 C5375.51017,5067.3213 5377.78969,5067.38848 5380.05154,5067.31894 C5381.81743,5067.26354 5383.02846,5066.40432 5383.73411,5064.80139 C5384.57876,5064.56095 5385.55183,5063.92684 5386.24805,5064.15078 C5388.94931,5065.01708 5390.55617,5063.69112 5391.92506,5061.71574 C5392.43633,5060.97556 5392.81566,5060.14462 5393.25507,5059.35494 C5394.59804,5059.98197 5395.94219,5060.609 5397.28516,5061.23603 C5401.5332,5059.92893 5405.78123,5058.62066 5410.38032,5057.20512 C5411.3899,5054.29509 5415.11017,5053.0092 5416.05496,5049.7444 C5414.4269,5047.93756 5412.9567,5049.8328 5411.45352,5049.39788 C5408.89951,5048.65888 5406.24891,5048.26051 5403.67135,5047.59576 C5400.94653,5046.8933 5398.36897,5047.01823 5395.91863,5048.49034 C5394.56388,5048.47148 5393.20913,5048.4538 5391.8532,5048.43494 C5387.62755,5048.26758 5383.37127,5048.60231 5379.18921,5047.62523 C5378.89469,5047.55687 5378.46471,5048.06368 5378.09716,5048.30294 C5377.14294,5047.9246 5376.22996,5047.44018 5375.11552,5047.80556 C5374.88698,5047.88099 5374.47702,5047.39421 5374.14953,5047.16674 C5373.2601,5046.24269 5372.3695,5045.31983 5371.48008,5044.39696 C5375.30283,5043.8265 5379.12913,5043.27608 5382.94246,5042.65023 C5383.26642,5042.59837 5383.51146,5042.0621 5383.79183,5041.74269 C5386.19386,5040.07375 5388.63831,5038.45431 5390.47842,5036.11591 C5390.87895,5035.93794 5391.31718,5035.81654 5391.67178,5035.57256 C5393.99488,5033.97788 5396.33684,5033.46046 5399.11349,5034.62259 C5400.43408,5035.17537 5402.14696,5035.33212 5403.69137,5033.9602 C5403.86337,5033.10334 5404.0766,5032.04021 5404.28982,5030.97709 L5406.79435,5030.81915 C5407.31622,5031.7102 5408.06428,5031.98128 5409.02321,5031.6053 C5409.64286,5031.36132 5410.2472,5031.08081 5410.8586,5030.81562 L5410.79028,5030.90166 C5411.21084,5031.64184 5411.47119,5032.77804 5412.08966,5033.0279 C5413.02856,5033.4086 5414.38449,5033.53118 5415.26214,5033.12102 C5416.80656,5032.39852 5418.12361,5031.18924 5419.47601,5030.2263 C5422.6744,5032.24647 5423.15975,5032.08029 5423.89839,5028.60451 C5422.00409,5028.18492 5420.11451,5027.68282 5418.19547,5027.38934 C5417.62058,5027.30095 5416.95735,5027.79597 5416.33416,5028.02345 C5416.22813,5026.1565 5416.46374,5024.60189 5418.41341,5023.52108 C5420.12393,5022.57229 5421.54701,5021.10136 5423.09732,5019.86144 C5423.8925,5019.11183 5424.6865,5018.3634 5425.48168,5017.61262 L5428.26658,5017.61262 C5428.9522,5016.30669 5429.43285,5014.72144 5430.4495,5013.6371 C5431.56629,5012.44551 5433.1755,5011.71711 5434.53614,5010.81075 C5433.47001,5007.94904 5435.42321,5005.01661 5434.01427,5002.28337 C5435.08393,5001.63276 5435.50449,5000.70518 5435.21116,4999.47234 L5435.20645,4998.07212 C5435.402,4997.69261 5435.4774,4997.29187 5435.43381,4996.86757 C5436.25137,4995.42846 5437.06894,4993.98817 5437.81228,4992.67636 C5436.97469,4991.54252 5436.23842,4990.75519 5435.80136,4989.82761 C5435.6706,4989.54946 5436.37978,4988.87646 5436.70492,4988.38379 C5437.92184,4988.5158 5438.91729,4988.41915 5438.4555,4986.7455 C5437.84056,4984.52143 5438.15392,4982.44468 5439.47922,4980.53884 C5441.52077,4981.34502 5443.5529,4982.17713 5445.61566,4982.92556 C5445.84773,4983.01042 5446.24945,4982.62973 5446.6005,4982.4494 C5445.87129,4981.61375 5445.16682,4980.80757 5444.45528,4979.99195 C5445.56265,4979.21877 5446.59933,4978.49392 5447.63483,4977.77024 C5450.34315,4976.17202 5450.48216,4975.81607 5449.27113,4973.5755" id="Paint-17"></path>
        </g>
    </g>
</svg>