<?xml version="1.0" encoding="UTF-8"?>
<svg width="328px" height="352px" viewBox="0 0 328 352" version="1.1" xmlns="http://www.w3.org/2000/svg" xmlns:xlink="http://www.w3.org/1999/xlink">
    <title>Shape 18</title>
    <g id="Page-1" stroke="none" stroke-width="1" fill="none" fill-rule="evenodd">
        <g id="Desktop-HD" transform="translate(-5009.000000, -3053.000000)" fill="#000000">
            <path d="M5123.62962,3380.14196 C5124.47913,3379.6304 5125.28207,3380.60834 5124.90389,3381.37659 C5120.63398,3390.02075 5112.18172,3397.029 5105.70047,3404.12944 C5103.31029,3406.74149 5099.33846,3402.88759 5101.74913,3400.29723 C5108.28068,3393.29079 5115.30777,3385.16722 5123.62962,3380.14196 Z M5139.44954,3381.24498 C5140.0382,3380.62947 5141.25731,3381.27513 5140.95159,3382.06269 C5139.27673,3386.44041 5136.78914,3390.46514 5135.28519,3394.9351 C5134.64525,3396.83838 5131.36771,3395.95857 5132.10829,3394.11561 C5133.90467,3389.63856 5136.02957,3384.85287 5139.44954,3381.24498 Z M5108.57094,3372.03871 C5110.58621,3371.63905 5112.05153,3374.44206 5110.03626,3375.4662 C5099.77541,3380.69041 5088.10713,3383.10089 5076.99603,3385.91104 C5073.95504,3386.68182 5072.73213,3382.21592 5075.70799,3381.29883 C5086.51879,3377.9659 5097.45441,3374.23509 5108.57094,3372.03871 Z M5154.50061,3172.98455 C5205.25471,3087.00051 5314.21084,3107.87748 5298.458,3206.195 C5283.0202,3302.54617 5159.58381,3345.27817 5154.65253,3346.94891 L5154.50061,3347 C5154.50061,3347 5026.29424,3304.51252 5010.54139,3206.195 C4994.7922,3107.87748 5103.74285,3087.00051 5154.50061,3172.98455 Z M5334.00284,3072.08893 C5337.04211,3071.31814 5338.26868,3075.78585 5335.29453,3076.70294 C5324.48339,3080.03587 5313.54381,3083.7649 5302.42874,3085.96129 C5300.4116,3086.36095 5298.94985,3083.55793 5300.96338,3082.532 C5311.22455,3077.30958 5322.89682,3074.90087 5334.00284,3072.08893 Z M5306.30137,3053.87081 C5308.68969,3051.25706 5312.66152,3055.11624 5310.25085,3057.70288 C5303.71745,3064.70905 5296.69595,3072.8341 5288.37038,3077.85736 C5287.52087,3078.37071 5286.71793,3077.39101 5287.09611,3076.62278 C5291.36415,3067.97895 5299.822,3060.97098 5306.30137,3053.87081 Z M5275.7151,3063.06687 C5276.35507,3061.16165 5279.63089,3062.03976 5278.89217,3063.88466 C5277.09759,3068.36211 5274.96689,3073.14823 5271.55054,3076.75467 C5270.96185,3077.37023 5269.74267,3076.72628 5270.04842,3075.93865 C5271.72336,3071.55877 5274.20918,3067.53368 5275.7151,3063.06687 Z" id="Shape-18"></path>
        </g>
    </g>
</svg>