<?xml version="1.0" encoding="UTF-8"?>
<svg width="310px" height="348px" viewBox="0 0 310 348" version="1.1" xmlns="http://www.w3.org/2000/svg" xmlns:xlink="http://www.w3.org/1999/xlink">
    <title>GEO Shape 2</title>
    <g id="Page-1" stroke="none" stroke-width="1" fill="none" fill-rule="evenodd">
        <g id="Desktop-HD" transform="translate(-1979.000000, -4600.000000)" fill="#000000">
            <path d="M2195,4947.43888 C2196.00981,4947.44288 2196.94082,4946.73388 2197.91235,4947.25188 C2198.01705,4947.30688 2198.02605,4947.75488 2197.9495,4947.78888 C2196.90367,4948.25288 2195.99067,4947.48688 2195,4947.43888 Z M2233,4938 C2232.23187,4939.47233 2231.46373,4940.94563 2230.39442,4943 C2229.24168,4940.03236 2230.76819,4938.8721 2233,4938 Z M2193.75357,4937.03759 C2193.94777,4936.8986 2194.91081,4937.17657 2194.95143,4937.35839 C2195.18823,4938.43706 2194.54719,4939.21941 2193.2889,4940 C2192.92132,4938.74301 2192.74694,4937.75699 2193.75357,4937.03759 Z M2214,4932.51809 C2215.33237,4931.87655 2215.50702,4928.73021 2217.77296,4930.57012 C2218.67681,4931.30316 2219.52215,4932.48888 2218.60299,4933.41468 C2217.15899,4934.86714 2215.62045,4933.24821 2214,4932.51809 Z M2204.75357,4930.03766 C2204.94777,4929.89868 2205.9118,4930.17577 2205.95143,4930.35846 C2206.18823,4931.43798 2205.54719,4932.21943 2204.2889,4933 C2203.92132,4931.74216 2203.74694,4930.75618 2204.75357,4930.03766 Z M2235.12003,4926.58031 C2235.22887,4926.2786 2236.1656,4925.90995 2236.54655,4926.01985 C2238.4999,4926.5833 2237.9719,4927.97496 2237.82022,4930 C2236.27792,4928.6563 2234.52141,4928.23571 2235.12003,4926.58031 Z M2227.75357,4926.03766 C2227.94777,4925.89868 2228.9118,4926.17577 2228.95143,4926.35846 C2229.18823,4927.43798 2228.54719,4928.21943 2227.2889,4929 C2226.92132,4927.74304 2226.74694,4926.75618 2227.75357,4926.03766 Z M2180,4927.51805 C2181.33166,4926.87747 2181.50723,4923.73006 2183.77349,4925.57002 C2184.67747,4926.30406 2185.52202,4927.48981 2184.60274,4928.41466 C2183.15853,4929.86716 2181.62068,4928.24819 2180,4927.51805 Z M2210.62335,4920.33206 C2211.033,4919.67231 2211.62903,4920.18669 2212.11941,4920.2609 C2212.96662,4920.38899 2213.8208,4920.66549 2214.63611,4920.25073 C2215.51322,4919.80548 2215.83117,4920.31884 2215.9737,4921.01722 C2216.1561,4921.90568 2215.34278,4921.65358 2214.98297,4921.69831 C2213.78791,4921.84469 2212.77924,4921.88535 2212.89485,4923.67042 C2212.94469,4924.43589 2211.87023,4924.92282 2210.98416,4924.94315 C2210.01535,4924.96551 2208.96382,4925.24608 2208.20233,4924.31594 C2208.08472,4924.1726 2208.06977,4923.94083 2208,4923.72837 C2208.68175,4923.27092 2209.39041,4923.38884 2210.08313,4923.38579 C2210.63032,4923.38274 2211.29314,4923.63179 2211.61508,4922.9568 C2211.89615,4922.3672 2211.23533,4922.0907 2211.02303,4921.67391 C2210.79877,4921.23171 2210.28945,4920.8688 2210.62335,4920.33206 Z M2193.75289,4920.03767 C2193.94803,4919.89865 2194.91182,4920.17582 2194.95145,4920.35856 C2195.18818,4921.43752 2194.54731,4922.22007 2193.28932,4923 C2192.92084,4921.74355 2192.74749,4920.7564 2193.75289,4920.03767 Z M2201.94437,4906 C2202.65838,4907.25682 2204.11944,4908.44147 2203.37439,4909.97991 C2202.6043,4911.57248 2202.99485,4912.31214 2204.35377,4913.14099 C2205.68365,4913.95281 2207.75357,4915.08034 2206.72111,4916.73003 C2205.32614,4918.96303 2202.6073,4917.66813 2200.73266,4917.20109 C2198.50151,4916.64484 2197.11555,4910.61033 2198.64671,4908.18389 C2199.47088,4907.63867 2200.70662,4906.81883 2201.94437,4906 Z M2218.40316,4907 C2219.59221,4909.25411 2219.85852,4911.55556 2220,4914 C2213.65217,4911.49565 2213.60743,4911.31014 2218.40316,4907 Z M2167.94337,4900 C2168.65738,4901.25782 2170.11944,4902.44147 2169.37439,4903.97991 C2168.6043,4905.57348 2168.99485,4906.31214 2170.35377,4907.14099 C2171.68365,4907.95281 2173.75357,4909.08034 2172.72111,4910.73003 C2171.32614,4912.96303 2168.6073,4911.66813 2166.73266,4911.20109 C2164.50151,4910.64484 2163.11555,4904.61033 2164.64671,4902.18489 C2165.47088,4901.63867 2166.70662,4900.81883 2167.94337,4900 Z M2233.40401,4904 C2234.5932,4906.25411 2234.85954,4908.55556 2235,4911 C2228.65143,4908.49662 2228.60773,4908.31014 2233.40401,4904 Z M2185,4903 C2184.97189,4906.12472 2183.4288,4907.80802 2182.59017,4910 C2180.17036,4906.70904 2180.17036,4906.70904 2185,4903 Z M2148.26559,4902.83906 C2149.45374,4900.62238 2151.2883,4903.46224 2152.84923,4903.78599 C2153.67469,4904.69175 2156.0822,4904.69175 2154.43863,4906.72971 C2153.58838,4907.78612 2152.34973,4909.84841 2151.10007,4908.62264 C2149.6135,4907.16388 2147.19406,4904.83679 2148.26559,4902.83906 Z M2222,4903.08844 C2223.7305,4903.07427 2224.63551,4902.88809 2225.3965,4903.10262 C2226.45522,4903.39842 2225.88663,4904.28962 2225.45454,4904.52683 C2224.80856,4904.88218 2223.84013,4905.10899 2223.14256,4904.94644 C2222.69542,4904.84343 2222.49013,4903.94089 2222,4903.08844 Z M2196,4899 L2193.68588,4904 L2191,4899.24268 L2196,4899 Z M2206,4902.38369 C2208.44047,4901.90109 2208.76532,4899.12069 2211.11885,4900.28056 C2211.6258,4900.53008 2212.08882,4902.10492 2211.98542,4902.17255 C2210.4353,4903.18253 2208.7342,4903.28581 2206,4902.38369 Z M2249.84631,4893 C2252.98856,4898.0008 2252.98856,4898.0008 2256.29762,4894.16583 C2256.86217,4896.74836 2258.13547,4899.49119 2254.68786,4900.25082 C2252.67565,4900.69484 2250.3496,4904.02008 2248.18188,4900.1413 C2246.44676,4897.0331 2246.32612,4894.60985 2249.84631,4893 Z M2156,4895 L2153.6863,4900 L2151,4895.24268 L2156,4895 Z M2169.07964,4894.58503 C2170.34929,4893.45401 2171.43633,4894.16947 2172.41315,4894.99524 C2173.10686,4895.58218 2174.7774,4896.03737 2173.57907,4897.28193 C2172.72543,4898.16875 2171.32503,4898.26943 2170.11049,4897.38582 C2169.11098,4896.65965 2168.84516,4895.72677 2169.07964,4894.58503 Z M2217,4896.0887 C2218.73035,4896.07452 2219.63637,4895.88833 2220.39622,4896.10193 C2221.45485,4896.3987 2220.88738,4897.28901 2220.45426,4897.52718 C2219.80833,4897.88255 2218.84105,4898.10844 2218.14246,4897.94682 C2217.69644,4897.8438 2217.49009,4896.9412 2217,4896.0887 Z M2134.00097,4605 L2143.25244,4621.05532 C2142.83581,4620.98607 2142.3929,4620.791 2141.90424,4620.40768 C2140.85878,4619.59034 2139.4366,4620.00779 2138.9382,4621.00558 C2138.28406,4622.3106 2137.82265,4623.96383 2138.00469,4625.37322 C2138.1984,4626.87136 2139.87853,4625.91161 2140.86364,4626.19447 C2143.85338,4627.05156 2144.43159,4625.65079 2144.75568,4624.01169 L2144.80506,4623.7512 L2149.04823,4631.11416 C2148.76594,4631.2907 2148.52647,4631.53063 2148.37559,4631.83007 C2147.72242,4633.13704 2147.26004,4634.78832 2147.44207,4636.19868 C2147.63773,4637.69683 2149.31592,4636.73708 2150.30201,4637.01896 C2151.29296,4637.30278 2152.01135,4637.33204 2152.55063,4637.19257 L2152.55063,4637.19257 L2154.75252,4641.01401 C2151.29588,4642.48387 2148.28312,4644.08735 2144.87806,4644.34875 C2144.89364,4644.72621 2144.91019,4645.10465 2144.92674,4645.48114 C2148.78735,4646.46722 2152.38904,4645.55039 2155.59454,4642.47704 L2155.59454,4642.47704 L2289,4874 L2249.1089,4874 C2249.66375,4871.95175 2251.55999,4871.83374 2253.73074,4871.57137 C2254.55231,4871.47188 2256.41059,4872.03759 2255.99493,4870.04298 C2255.66786,4868.47559 2254.94266,4867.32272 2252.94031,4868.32343 C2251.07717,4869.2549 2249.12642,4868.63262 2247.1893,4868.34587 C2246.06888,4868.18006 2244.70997,4867.02426 2243.77159,4868.50582 C2243.0094,4869.71039 2244.17459,4870.52383 2244.68759,4871.51577 C2245.11979,4872.35263 2246.36188,4872.93979 2246.1633,4874 L2246.1633,4874 L2249,4874 C2248.86197,4874.52987 2248.8043,4875.18217 2248.85819,4876.00685 C2248.96786,4877.72869 2246.58444,4878.82565 2244.61891,4878.87168 C2242.46996,4878.92164 2240.13666,4879.55533 2238.44813,4877.46033 C2238.18719,4877.13613 2238.1541,4876.61508 2238,4876.13418 C2239.50984,4875.10382 2241.08208,4875.36924 2242.62028,4875.36239 C2243.83326,4875.35651 2245.30339,4875.9187 2246.01813,4874.39667 C2246.08431,4874.25465 2246.11646,4874.12635 2246.14009,4874 L2246.14009,4874 L2229.3191,4874 C2230.47942,4873.17387 2231.35648,4871.97906 2230.80357,4869.75038 C2230.26332,4867.57436 2232.60052,4867.71286 2234.25049,4867.79382 C2236.73565,4867.91574 2239.33178,4868.74869 2241.56093,4866.8448 C2242.7456,4866.15522 2243.93123,4865.46662 2245.19766,4864.72925 C2243.69663,4863.26642 2242.01285,4862.61833 2240.26353,4862.25219 C2241.38631,4863.07281 2242.14397,4864.17714 2241.97694,4866 L2241.97694,4866 L2238.79683,4862.00144 C2238.41462,4861.94749 2238.03088,4861.89975 2237.64678,4861.85293 C2236.91087,4860.70201 2235.61231,4861.68224 2234.73039,4861.0824 L2234.83366,4861.14181 C2233.88143,4862.03528 2233.65934,4863.69343 2231.95446,4863.7998 C2230.83614,4865.33301 2229.44918,4865.66797 2227.76971,4864.70313 C2227.11702,4866.57227 2227.71101,4868.77441 2226.18376,4870.41016 C2225.6444,4871.89357 2224.26026,4871.70283 2223.09901,4871.95549 L2223.16035,4872.06644 C2223.93928,4872.23918 2224.39109,4872.94324 2224.80865,4873.66662 L2225,4874 L2229,4874 C2228.3097,4874.31266 2227.52763,4874.54882 2226.8561,4874.78431 C2225.25339,4875.3451 2224.61522,4874.71579 2224,4874 L2224,4874 L2216,4874 C2216.99018,4872.5276 2217.8643,4870.96434 2219.51495,4870 L2219.51495,4870 L2222.21433,4870.34489 C2222.52967,4870.91842 2222.84399,4871.49292 2223.16035,4872.06644 L2222.99848,4871.77425 C2223.22286,4871.28107 2223.65677,4870.99224 2224.10133,4870.71387 C2223.40089,4870.58008 2222.70343,4870.32031 2222,4870.2793 C2223.09046,4868.8623 2224.12024,4869.31738 2225.14901,4869.87695 C2225.21866,4869.78711 2225.28731,4869.69336 2225.33905,4869.58398 C2226.4524,4868.06934 2226.10118,4865.94824 2227.49709,4864.55469 C2227.60355,4864.51367 2227.713,4864.48047 2227.82045,4864.44434 C2228.3617,4861.53711 2229.79144,4862.59277 2231.16248,4863.39258 C2231.35152,4863.29688 2231.53658,4863.19336 2231.71468,4863.06934 C2233.11059,4862.83691 2233.81999,4861.55762 2235,4861 L2234.783,4861.113 L2234.73039,4861.0824 C2233.61815,4859.67568 2233.0444,4862.17437 2232.07797,4861.55575 L2231.97656,4861.48034 C2227.31578,4857.53113 2224.54443,4862.03434 2221.17831,4863.88069 C2221.11462,4863.87842 2221.05136,4863.87545 2220.98851,4863.8718 C2220.24536,4865.38479 2219.04259,4864.77988 2217.93984,4864.63465 C2219.59645,4866.01395 2221.92295,4867.16696 2219.26101,4870 C2220.08588,4867.52256 2218.1517,4866.28138 2216.89625,4864.73653 C2215.27005,4864.10762 2214.22254,4861.94071 2212,4862.8978 L2212.199,4862.819 L2212.24711,4862.9346 C2211.06885,4866.41178 2214.6454,4872.96004 2206.6913,4872.05785 L2206.53136,4872.03717 C2206.62727,4872.37504 2206.72311,4872.71298 2206.81929,4873.05058 C2206.84058,4873.1493 2206.84542,4873.24309 2206.85896,4873.34084 L2206.85896,4873.34084 L2216,4873.34084 C2215.71162,4873.79992 2215.41356,4874.25308 2215.07874,4874.67563 C2213.89038,4876.17827 2213.22072,4878.13604 2210.59531,4877.57231 C2208.50601,4877.1231 2208.44118,4879.01274 2208.2128,4880.48379 C2207.76571,4883.35973 2206.17092,4882.96383 2204.34387,4881.89263 C2203.82614,4881.99926 2203.30842,4882.10687 2202.79166,4882.21547 L2202.79166,4882.21547 L2202.28361,4888.75323 L2202.28361,4888.75323 L2204.20162,4890.7337 C2202.88069,4891.51859 2201.57427,4892.4723 2200.05689,4891.13553 C2199.71723,4892.13169 2198.98757,4892.29953 2198.08469,4892.10602 L2198.08469,4892.10602 C2197.1402,4893.00444 2196.24797,4894.83683 2194.82349,4893.21276 C2194.04932,4892.33309 2194.8022,4891.1217 2196.17926,4890.87192 L2196.17926,4890.87192 L2195.86959,4889.40977 C2193.30998,4890.06729 2190.85876,4891.76442 2188.15013,4889.43938 C2186.86016,4888.33265 2186.14309,4889.97745 2185.66794,4890.9124 C2184.47281,4893.26113 2182.6777,4894.76673 2180.22164,4893.59187 C2178.20395,4892.62829 2179.01296,4890.16108 2178.87458,4888.29513 C2178.8291,4887.67413 2179.01683,4887.03536 2179.09812,4886.4035 C2178.08105,4885.23062 2178.26976,4883.76352 2178.15944,4882.37048 C2176.24239,4881.15612 2174.32535,4879.94276 2172.40831,4878.7294 C2171.04576,4879.43925 2170.42836,4878.15678 2169.5371,4877.60982 C2166.67521,4875.78303 2165.51454,4875.0336 2166.18485,4874.00077 L2143.48509,4874 C2144.00685,4873.48696 2144.4556,4872.91541 2144.75054,4872.30873 C2145.40858,4870.94811 2143.47827,4870.82717 2142.8105,4870.04884 C2139.44049,4866.13181 2138.21689,4871.06418 2135.95562,4871.71572 C2135.88553,4871.66988 2135.75022,4871.73523 2135.5458,4871.91079 C2135.34528,4872.08343 2135.28785,4872.34385 2135.37643,4872.68912 C2136.86383,4872.29313 2137.99008,4872.47064 2138.63839,4874 L2138.63839,4874 L1979,4874 L2072.46958,4711.78675 C2072.50463,4711.99938 2072.5533,4712.22176 2072.62338,4712.45779 C2072.37419,4713.85645 2072.17561,4715.2356 2074.15459,4716.36604 C2073.86353,4714.90106 2073.65814,4713.87108 2073.45274,4712.84208 C2074.97032,4713.28489 2076.48887,4713.72771 2078.11644,4714.20173 C2078.62652,4711.34784 2077.9276,4709.51515 2074.89245,4709.36689 C2074.47095,4709.34641 2074.12344,4709.3864 2073.81291,4709.45565 L2073.81291,4709.45565 L2083.14814,4693.25636 C2082.47951,4693.40243 2081.6914,4693.43368 2080.75319,4693.32002 C2079.42572,4693.15833 2080.431,4695.73283 2078.68265,4695.15287 C2077.62319,4695.13641 2077.07846,4696.65748 2075.83904,4696.1056 C2073.45017,4697.28876 2071.04873,4698.42933 2068,4697.83968 C2068.26085,4697.31839 2068.51473,4696.81058 2068.7645,4696.31085 L2069.87026,4694.09847 C2070.6859,4691.30225 2073.29536,4690.57705 2075.42686,4689.32223 C2076.84238,4688.48859 2078.85971,4687.32673 2077.22746,4685.8163 C2074.6267,4683.41027 2076.25121,4681.1911 2077.18392,4679.43378 C2078.60524,4676.75471 2080.67095,4680.26355 2082.52476,4679.58192 C2083.08594,4679.89465 2083.64614,4680.20642 2084.20538,4680.51819 C2084.97652,4680.14833 2085.74765,4679.77847 2086.51878,4679.40957 C2087.53373,4677.24366 2086.94256,4674.91896 2087.16316,4672.67462 C2087.3499,4670.79143 2086.85645,4668.81819 2089.35368,4667.83932 C2091.34102,4667.06087 2090.37928,4665.47589 2089.7794,4664.14362 C2088.60674,4661.54103 2090.15094,4660.99012 2092.25534,4660.86522 C2092.62978,4660.49245 2093.00422,4660.12065 2093.37866,4659.74886 C2092.34823,4657.86857 2091.31779,4655.98828 2090.28736,4654.10896 C2089.39819,4653.91822 2088.50805,4653.72845 2087.61888,4653.53868 C2088.30099,4652.17058 2088.87958,4650.6708 2090.86789,4650.93319 C2090.61536,4649.93011 2091.1359,4649.39178 2091.99314,4649.05484 C2091.99411,4649.05387 2091.99507,4649.05387 2091.99604,4649.05291 C2092.29985,4647.80003 2092.05893,4645.80743 2094.12464,4646.35544 C2095.24505,4646.65365 2095.26537,4648.05951 2094.24945,4649.01999 C2094.59873,4649.36274 2094.94608,4649.70646 2095.29633,4650.04824 C2097.08048,4648.10502 2098.21735,4645.36785 2101.7305,4645.78612 C2103.40531,4645.98461 2103.11989,4644.24278 2103.01346,4643.21549 C2102.74932,4640.63421 2103.44014,4638.41505 2106.12508,4638.02776 C2108.32914,4637.71115 2108.9803,4640.17721 2110.09781,4641.63148 C2110.47031,4642.11656 2110.65802,4642.743 2110.9299,4643.30554 C2111.34788,4643.41882 2111.69426,4643.60956 2112,4643.84193 L2112,4643.84193 L2111.52397,4644.66976 C2111.87809,4646.29541 2110.69188,4647.3469 2109.39441,4648.35966 L2109.39441,4648.35966 L2108.50717,4649.8962 C2109.29095,4650.89157 2110.42619,4651.24649 2111.94503,4650.89728 C2112.22927,4652.175 2112.60793,4653.32982 2114.43506,4652.72217 C2117.04093,4653.65754 2118.68505,4655.85794 2120.73217,4657.52872 C2124.61226,4656.88694 2125.53409,4653.70923 2126.59513,4650.65247 C2126.80831,4650.28964 2126.95043,4649.96387 2127.05361,4649.65761 C2129.33338,4644.68135 2129.01507,4644.68525 2123.61157,4644.80424 C2122.56513,4644.84423 2121.35322,4644.12734 2120.59102,4645.46846 C2118.32293,4645.526 2116.05387,4645.58452 2113.78481,4645.64109 C2113.17739,4644.85984 2112.6751,4643.96739 2111.89052,4643.37047 L2111.89052,4643.37047 L2118.92257,4631.1678 L2118.92257,4641.24127 C2124.40491,4634.21091 2124.39615,4633.21702 2119.02088,4630.99614 L2119.02088,4630.99614 L2125.07171,4620.49644 L2125.32967,4623.06943 L2129.67992,4619.93171 L2126.28071,4618.39748 L2134.00097,4605 Z M2149,4889.33172 C2154.99066,4886.84074 2159.63715,4887.92002 2163,4891.93563 L2163,4891.93563 L2162.41919,4893 C2158.54679,4890.66777 2153.99986,4890.77857 2149,4889.33172 Z M2172,4883 C2169.86848,4886.21779 2167.94188,4889.12829 2166.03999,4892 C2162.49878,4886.87829 2163.02085,4886.01565 2172,4883 Z M2248,4879 C2245.29457,4887.14835 2245.29457,4887.14835 2235.09889,4892 C2235.32811,4890.10226 2235.54096,4888.33766 2235.75478,4886.57207 C2231.65281,4885.23372 2232.8625,4890.36755 2230.17633,4891.2409 C2229.12941,4889.87374 2227.8706,4888.46782 2226.89206,4886.87909 C2226.09074,4885.57551 2223.64343,4884.32857 2225.99635,4882.46759 C2227.72902,4881.09645 2229.39138,4878.71882 2232.04577,4881.56642 C2233.0272,4882.61862 2234.13961,4884.65546 2236.3105,4883.64101 C2239.30006,4879.76307 2244.17156,4881.73234 2248,4879 Z M2205.6888,4888.00085 C2208.02606,4888.40588 2208.45737,4890.77667 2210,4892 C2208.36314,4890.82969 2205.87629,4890.97873 2205.00978,4888.97092 C2204.91652,4888.75423 2205.51686,4887.97068 2205.6888,4888.00085 Z M2137.64904,4885.10406 C2140.01714,4884.4648 2141.29854,4879.6254 2144.82776,4883.46955 C2145.52809,4884.23226 2147.54857,4884.35188 2146.85843,4885.68494 C2146.21008,4886.93953 2144.85834,4888.04578 2143.53616,4888.76447 C2142.52796,4889.31281 2141.04369,4888.88792 2140.59821,4887.65438 C2139.94578,4885.85049 2138.70719,4885.64474 2137.04249,4886.05911 C2136.94973,4885.72035 2137.00885,4885.46579 2137.21987,4885.29545 C2137.43293,4885.1232 2137.57666,4885.05908 2137.64904,4885.10406 Z M2219.72384,4876 C2220.15048,4879.34031 2220.55452,4882.51032 2221,4886 C2216.12987,4882.89563 2215.70982,4879.23946 2219.72384,4876 Z M2197.13313,4874.00011 L2180.37808,4874.00084 C2180.65591,4874.70447 2181.00554,4875.3825 2181.47483,4876.01734 C2183.3251,4876.51987 2183.01156,4877.70756 2182.5519,4878.94758 C2184.44475,4879.66632 2185.13957,4881.03469 2184.78925,4882.96975 C2184.90054,4882.97864 2185.0128,4882.97963 2185.12312,4882.99246 C2185.57407,4882.9974 2186.00761,4882.92631 2186.43727,4882.8266 C2188.73656,4880.92609 2191.03585,4879.02657 2193.33418,4877.12803 C2194.33963,4876.83975 2194.54189,4874.86618 2195.80959,4875.13077 C2195.86669,4875.06561 2195.91701,4874.9965 2195.97798,4874.93331 C2196.34257,4874.58054 2196.72446,4874.26357 2197.13313,4874.00011 Z M2154.53788,4875.00462 C2155.52613,4874.86322 2154.72058,4878.00043 2154.05891,4879.48797 C2153.23348,4881.34409 2148.38315,4882.66854 2146.53257,4881.64197 C2145.66833,4880.7832 2144.57123,4878.86958 2145.17232,4878.55378 C2148.13231,4876.99649 2151.29297,4875.46936 2154.53788,4875.00462 Z M2144,4873 C2143.40462,4873.67241 2142.71486,4874.26033 2142.03213,4874.71516 C2141.03916,4875.37831 2139.57631,4874.86445 2139.13755,4873.37266 C2139.09639,4873.23378 2139.04618,4873.12383 2139,4873 L2139,4873 Z M2204.12871,4860.36941 C2197.00419,4864.0543 2197.00419,4864.0543 2197.14242,4868.2415 C2197.8462,4869.78256 2198.67459,4870.42825 2199.57209,4870.59504 C2199.1652,4870.73451 2198.75733,4870.91398 2198.35044,4871.19195 C2198.19429,4871.97723 2198.26875,4872.69877 2198.56253,4873.36092 L2198.66242,4873.34084 L2198.90628,4873.34084 C2198.8966,4873.32603 2198.88499,4873.31122 2198.87531,4873.29838 C2199.21982,4873.24902 2199.5711,4873.26185 2199.91077,4873.34084 L2199.91077,4873.34084 L2201.88781,4873.34084 C2202.5236,4871.81154 2204.09033,4872.552 2205.50319,4872.91433 C2205.53555,4872.47642 2205.59855,4872.05231 2205.84778,4871.72449 L2204.84613,4871.18317 C2203.7773,4870.79108 2202.70848,4870.43215 2201.64063,4870.34339 L2201.94103,4870.378 C2201.27439,4870.60646 2200.62076,4870.73698 2200,4870.61555 C2200.54974,4870.41673 2201.09948,4870.32953 2201.64975,4870.33879 C2202.57736,4870.03116 2203.53011,4869.55832 2204.45384,4869.28123 C2205.60248,4866.26348 2207.20475,4863.23208 2204.12871,4860.36941 Z M2178.76214,4869.16321 C2175.16629,4867.56753 2172.65582,4869.71624 2170.09376,4871.68841 C2169.92948,4871.76964 2169.78057,4871.85255 2169.64372,4871.93672 C2169.29413,4872.39893 2168.94954,4872.85959 2169.00292,4873.34084 L2169.00292,4873.34084 L2179.84345,4873.34176 C2179.44162,4871.96363 2179.19334,4870.53082 2178.76214,4869.16321 Z M2168.43515,4872.73133 L2168.36597,4872.77626 C2168.05238,4872.97832 2167.76911,4873.16567 2167.51515,4873.34097 L2168.30616,4873.34084 C2168.31976,4873.13446 2168.36084,4872.93107 2168.43515,4872.73133 Z M2181.58119,4858.08903 C2176.45706,4860.14703 2183.786,4860.22896 2181.62694,4862.17967 C2176.96324,4862.00216 2180.13662,4865.44321 2179.93999,4867.60752 C2180.67882,4868.45901 2181.26969,4869.57286 2182.19542,4870.09663 C2183.40053,4870.77938 2184.17148,4873.6596 2185.80587,4871.665 C2186.23515,4871.14123 2188.56456,4867.62313 2185.20429,4866.18741 C2185.27424,4866.1219 2185.34516,4866.05662 2185.41627,4865.99138 C2184.79803,4864.45441 2184.81839,4863.13961 2185.81759,4862.16496 C2184.40547,4860.80619 2182.99289,4859.44717 2181.58119,4858.08903 Z M2161.23945,4864.90967 C2160.22465,4864.91766 2160.29561,4865.57929 2160.34547,4866.21585 C2160.65211,4866.23903 2160.86348,4866.43581 2160.989,4866.7868 C2160.662,4866.6078 2160.337,4866.4298 2160.011,4866.2498 L2160.36054,4866.44149 C2160.36358,4866.50647 2160.36495,4866.57029 2160.36337,4866.63217 C2160.0801,4867.67385 2159.46392,4868.74771 2160.49575,4869.69771 C2160.65247,4869.84206 2161.17131,4869.78452 2161.39325,4869.63138 C2162.61101,4868.79355 2160.68654,4868.01132 2161.3144,4867.15593 C2161.63466,4866.59218 2163.10843,4866.79603 2162.40659,4865.60219 C2162.20022,4865.25107 2161.63661,4864.90676 2161.23945,4864.90967 Z M2165.2344,4862.9541 C2165.20228,4863.66904 2165.16821,4864.38495 2165.13511,4865.09989 L2165.17507,4864.23641 C2165.78365,4864.22545 2166.39218,4864.21442 2167,4864.20256 C2166.39814,4864.93737 2165.78713,4864.97453 2165.16762,4864.40745 L2165.13511,4865.09989 C2164.68247,4866.07524 2165.53616,4866.4488 2166.0073,4866.9989 C2166.27402,4867.83673 2166.85224,4868.54289 2167.65921,4867.95377 C2168.23256,4867.53437 2169.73651,4866.82041 2168.1469,4865.71728 C2168.07582,4865.66064 2168.00642,4865.60222 2167.93867,4865.54208 C2167.74601,4866.8622 2167.23263,4867.48883 2166,4866.55216 C2166.98755,4866.98772 2167.53192,4866.46204 2167.86413,4865.47387 C2167.72335,4865.34462 2167.59055,4865.20778 2167.46453,4865.0638 C2167.35453,4863.6905 2166.38791,4863.22233 2165.2344,4862.9541 Z M2151.93834,4865.93089 C2148.58391,4862.2538 2143.95039,4861.26674 2137.97646,4863.54712 C2142.96236,4864.87165 2147.49659,4864.76924 2151.35818,4866.90527 C2151.55092,4866.58047 2151.74463,4866.25568 2151.93834,4865.93089 Z M2185.98309,4862.32399 L2185.97347,4862.51593 C2185.86362,4863.70313 2185.45078,4864.78507 2185.41997,4866 L2185.42026,4865.98772 C2186.51166,4864.98662 2187.64607,4863.99566 2186.05409,4862.3923 C2186.03043,4862.36953 2186.00676,4862.34676 2185.98309,4862.32399 Z M2206.78812,4853.4044 C2206.89812,4855.24685 2208.61816,4855.60578 2209.68699,4856.56358 C2207.64279,4860.1246 2211.52482,4859.38626 2212.64134,4860.65324 C2212.26724,4861.31034 2211.90637,4861.96909 2212.1668,4862.7364 C2214.33484,4860.7453 2215.57037,4863.36151 2217.21796,4863.94696 C2217.28858,4864.02925 2217.36803,4864.10762 2217.44747,4864.18697 C2218.53422,4863.62859 2220.07803,4865.17246 2221,4863.84802 L2220.98252,4863.87145 C2217.78532,4863.68343 2215.67107,4861.72828 2213.74581,4859.46708 L2213.52159,4860 L2213.52159,4860 L2213.10109,4861 C2212.96989,4860.22099 2213.14077,4859.6508 2213.57124,4859.25996 L2213.46,4859.12779 L2211.09262,4856.39094 L2211.09262,4856.39094 Z M2155.13021,4860.39087 C2154.48872,4859.45843 2154.17333,4860.39282 2153.67591,4860.80637 C2153.53768,4861.17603 2153.36928,4861.62567 2153.20088,4862.07628 C2153.76741,4861.92803 2154.41182,4861.89682 2154.87031,4861.58958 C2155.12827,4861.41792 2155.29959,4860.63666 2155.13021,4860.39087 Z M2246.25675,4857.02882 C2245.38067,4857.28436 2244.04902,4856.15978 2243.08727,4857.54283 C2242.61808,4858.21778 2243.29169,4858.62158 2243.81539,4858.94637 C2244.86962,4859.59986 2245.90048,4859.63595 2246.78435,4858.68107 C2247.27399,4858.15243 2247.27496,4857.58575 2246.25675,4857.02882 Z M2201.18896,4853.064 C2199.59579,4853.15826 2197.94065,4853.09535 2196.83747,4854.40671 C2196.88603,4854.50287 2196.91758,4854.63205 2196.9315,4854.79641 C2196.84882,4854.73071 2196.76305,4854.67128 2196.67424,4854.61805 L2196.56059,4854.78413 L2196.56059,4854.78413 L2196.44252,4854.98058 C2195.11379,4855.31025 2193.78603,4855.63894 2192.4573,4855.96764 C2189.85728,4854.62457 2187.55414,4854.9045 2185.62384,4857.22194 L2185.62384,4857.22194 L2187.34096,4858.09879 C2188.55775,4856.47384 2190.27098,4856.35485 2192.07961,4856.52944 C2192.6773,4857.66475 2192.70066,4859.41844 2194.88406,4858.59232 C2196.46199,4857.99637 2197.8316,4857.49504 2197.28356,4855.40388 C2198.53929,4854.54557 2200.41216,4854.72406 2201.18896,4853.064 Z M2149.53008,4855.63601 C2148.58683,4855.46338 2147.61048,4855.15614 2146.9174,4856.18416 C2146.75678,4857.1088 2147.13934,4857.83447 2147.93268,4858.18754 C2149.10274,4858.70838 2149.71503,4857.85885 2150.21245,4856.98786 C2150.64076,4856.23878 2150.34289,4855.78427 2149.53008,4855.63601 Z M2222.24324,4856.69818 C2220.90575,4855.69746 2219.99754,4856.18319 2218.88978,4858.00613 C2220.32851,4857.4453 2221.27955,4857.07466 2222.24324,4856.69818 Z M2210,4856.68803 C2210.28255,4856.03303 2210.65305,4856.41203 2211,4856.51003 L2211,4856.51003 Z M2211.21722,4852.06426 C2211.04492,4852.03208 2210.44237,4852.86698 2210.53582,4853.09814 C2211.40412,4855.24002 2213.89707,4855.08201 2215.53729,4856.32949 C2213.99149,4855.02447 2213.55831,4852.49537 2211.21722,4852.06426 Z M2165.86226,4850.55539 L2160.50646,4850.78557 L2163.38391,4855.31805 L2165.86226,4850.55539 Z M2229.81165,4849.92141 C2227.61365,4850.87433 2227.6886,4852.30908 2228.77203,4854.14957 C2230.12509,4856.44556 2231.57745,4854.47827 2232.83317,4854.21492 C2234.98542,4853.76333 2234.19111,4852.14034 2233.83775,4850.61099 C2231.77214,4852.88259 2231.77214,4852.88259 2229.81165,4849.92141 Z M2245.42837,4845.21922 C2243.43673,4847.32501 2243.01718,4849.24159 2245.47314,4851.03331 C2247.2662,4852.34224 2248.45281,4851.72484 2249.06315,4849.69805 C2250.03755,4848.6671 2250.95939,4847.62152 2249.92366,4845.58888 C2249.47214,4846.70924 2249.12907,4847.56117 2248.80665,4848.36144 C2248.84446,4848.48964 2248.80163,4848.66799 2248.67449,4848.89882 C2248.6508,4848.88576 2248.62795,4848.87219 2248.60596,4848.8581 L2248.5813,4848.9207 C2247.55433,4847.71613 2246.52737,4846.51059 2245.42837,4845.21922 Z M2185.11571,4846.534 C2182.78824,4847.40597 2181.24243,4848.15602 2181.68924,4850.60123 C2182.12241,4848.9207 2184.05078,4848.74708 2185.11571,4846.534 Z M2260.35784,4846.23847 C2260.37341,4845.45623 2259.06221,4845.59376 2258.33311,4845.73323 C2255.64644,4846.2453 2257.30809,4848.27208 2256.84766,4849.92434 C2259.42919,4849.31962 2260.32474,4847.92486 2260.35784,4846.23847 Z M2127.79926,4843.74449 C2126.57663,4844.24484 2126.087,4845.11096 2125.98674,4846.5857 C2127.2006,4845.77127 2127.8343,4844.99099 2127.79926,4843.74449 Z M2184.55209,4841.54311 C2186.45904,4843.65768 2187.09274,4847.959 2189.83002,4842.4219 C2188.23749,4842.15661 2186.80752,4841.91862 2184.55209,4841.54311 Z M2228.83433,4840.88767 C2226.33067,4839.64995 2225.98413,4842.61795 2223.38897,4843.13294 C2226.29757,4844.09464 2228.10718,4843.9854 2229.75617,4842.90666 C2229.86616,4842.83546 2229.37361,4841.15394 2228.83433,4840.88767 Z M2171.49452,4839.99425 C2170.71772,4839.96791 2169.88642,4839.9367 2169.54377,4840.79794 C2169.45908,4841.01057 2169.97889,4841.74696 2170.1142,4841.71965 C2170.6895,4841.60163 2171.29302,4841.37632 2171.75637,4841.02032 C2172.22946,4840.65554 2172.01823,4840.23418 2171.49452,4839.99425 Z M2214.11804,4837.76556 C2213.23222,4837.98404 2212.09817,4837.9499 2211.53942,4838.50098 C2211.05174,4838.98183 2211.58128,4839.96108 2212.33666,4840.4234 C2213.11346,4840.86134 2213.89707,4840.99203 2214.15113,4839.92109 C2214.31175,4839.24225 2214.13945,4838.48635 2214.11804,4837.76556 Z M2197.51621,4838.39174 C2196.97401,4838.4288 2196.46004,4838.87746 2195.91103,4839.15739 C2195.92271,4839.7231 2195.9305,4840.11617 2195.93926,4840.50826 C2196.60995,4840.14933 2197.36922,4839.88793 2197.92408,4839.39635 C2198.31442,4839.05108 2198.09346,4838.3537 2197.51621,4838.39174 Z M2099.12603,4836.92724 L2098.91764,4836.92773 C2099.23887,4838.15765 2099.87549,4838.81212 2102.21756,4839.05888 C2100.51406,4838.20057 2100.58901,4836.86433 2098.91764,4836.92773 Z M2219.0199,4828.01173 C2218.88497,4828.05871 2218.74497,4828.10759 2218.5997,4828.15831 L2218.5997,4828.15831 L2218.42198,4828.14707 C2216.65776,4828.05664 2215.29598,4828.63388 2215.41562,4830.69911 C2215.54022,4832.8566 2217.37707,4832.90049 2218.9735,4833.10239 C2220.94801,4833.85967 2223.18681,4835.0827 2222.84038,4831.74057 C2222.26142,4833.25012 2220.39284,4832.7556 2219,4833 C2220.11988,4832.21355 2221.86944,4832.40651 2222.78645,4831.30735 C2222.76813,4831.19758 2222.74927,4831.08409 2222.72801,4830.96636 L2222.72801,4830.96636 L2222.59368,4830.23289 L2222.59368,4830.23289 L2222.45935,4829.49845 C2222.4719,4829.27177 2222.48343,4829.06384 2222.49172,4828.8739 C2221.32792,4828.5847 2220.16396,4828.29621 2219,4828.00717 Z M2165.89389,4827.96678 L2165.83695,4827.96812 C2163.85311,4828.42556 2162.73561,4829.75497 2162.44164,4831.86661 C2163.70904,4830.50989 2166.09005,4830.88443 2166.78702,4828.83521 C2166.8464,4828.65964 2166.09005,4827.9096 2165.83695,4827.96812 Z M2222.50434,4828.29616 C2222.48708,4826.86833 2221.95442,4826.99003 2219.0278,4828.00898 C2220.18089,4828.15034 2221.611,4827.71684 2222.50492,4828.39213 Z M2231.79452,4827.27367 C2231.83736,4825.67408 2230.31978,4826.08958 2228.70973,4826.04277 C2229.37556,4826.84256 2229.689,4827.18686 2229.9674,4827.55652 C2230.78411,4828.63624 2231.75753,4828.62746 2231.79452,4827.27367 Z M2104.74555,4825.58728 C2102.98462,4824.23446 2102.29641,4822.90505 2100.57733,4823.31372 C2101.47386,4824.40222 2102.46481,4825.13081 2104.74555,4825.58728 Z M2213.18744,4822.98991 C2212.33958,4822.79093 2211.79154,4824.00623 2211.67668,4825.18836 C2212.17215,4825.01474 2212.62577,4824.93964 2212.98107,4824.71141 C2213.74424,4824.2208 2214.21733,4823.23374 2213.18744,4822.98991 Z M2100.71458,4720.46741 C2099.44037,4720.01192 2098.63145,4720.55714 2099.34205,4721.70806 C2100.18212,4723.06771 2101.22271,4721.88655 2102.59427,4721.03994 C2101.59943,4720.73856 2101.14971,4720.62249 2100.71458,4720.46741 Z M2066.36951,4716 C2066.84155,4717.55424 2069.11071,4718.29749 2067.32509,4720.11061 C2066.84244,4720.6024 2065.91515,4721.39762 2065.53681,4720.76664 C2064.72355,4719.41005 2064.71029,4717.83261 2066.36951,4716 Z M2111.15753,4709.83896 C2109.87163,4708.10381 2108.31317,4709.07721 2106.86763,4709.7863 C2106.79152,4709.80295 2106.71477,4709.81927 2106.63763,4709.8354 C2106.07124,4710.81089 2105.1893,4711.58875 2105.31921,4713 L2105.31921,4713 C2104.60603,4711.41224 2105.20814,4710.64777 2105.95727,4709.97531 C2104.01709,4710.37938 2102.30516,4710.90199 2104.89741,4713.63602 L2104.89741,4713.63602 C2105.24103,4713.99495 2105.5827,4714.35583 2105.92632,4714.71476 C2107.23539,4716.97673 2107.29857,4717.08438 2109.53439,4714.17147 C2108.46569,4714.63282 2107.53044,4715.4552 2106,4714.68228 C2107.33235,4714.45552 2108.66667,4714.22743 2110,4714 L2109.61404,4714.06762 C2109.70147,4713.95356 2109.79214,4713.83507 2109.88623,4713.7121 L2109.88623,4713.7121 C2111.50893,4712.81185 2112.4298,4711.55364 2111.15753,4709.83896 Z M2117.30181,4712.38854 C2116.98252,4712.80795 2116.64474,4713.11908 2116.47245,4713.50435 C2116.10254,4714.33535 2116.24856,4715.41995 2117.24243,4715.05711 C2118.06011,4714.75866 2117.85277,4713.43998 2117.30181,4712.38854 Z M2073.074,4712.20616 C2073.431,4712.17816 2073.716,4712.30916 2073.926,4712.60016 C2073.419,4712.95016 2073.124,4712.84416 2073.074,4712.20616 Z M2074,4709 L2073.03754,4711 C2072.8862,4709.91548 2073.18958,4709.2159 2074,4709 L2074,4709 Z M2097.68138,4703.8298 C2094.72313,4704.62374 2093.27078,4705.70931 2092.4823,4707.5186 C2092.43071,4707.63954 2093.76236,4708.77388 2094.36004,4708.69975 C2097.13042,4708.3574 2095.7939,4705.68688 2097.68138,4703.8298 Z M2071.52598,4702.00535 C2072.18412,4701.98954 2073.02345,4701.95596 2072.9995,4702.78658 C2072.94951,4704.49326 2071.09903,4704.28486 2070.46484,4704.98808 C2069.22876,4705.08289 2068.89761,4704.60289 2069.02569,4703.88288 C2069.25687,4702.58214 2070.1993,4702.03991 2071.52598,4702.00535 Z M2087.14888,4697.57875 C2084.75912,4696.40247 2084.62381,4698.84769 2083.71852,4699.75769 C2082.1659,4701.31729 2083.7195,4702.239 2084.85159,4703.32262 C2085.33441,4700.28829 2085.33441,4700.28829 2088.5954,4701.685 C2089.9105,4699.68064 2089.06167,4698.52192 2087.14888,4697.57875 Z M2108.53809,4700.01507 L2108.40467,4700.01519 C2107.5169,4700.07761 2106.78975,4700.3985 2107.16452,4701.43335 C2107.40107,4702.08879 2107.95884,4702.62719 2108.37352,4703.21825 C2108.99165,4702.54721 2109.95924,4701.95322 2110.12569,4701.18561 C2110.26976,4700.51555 2109.29049,4699.9869 2108.40467,4700.01519 Z M2060.05773,4685.48214 C2061.81656,4684.23648 2063.42311,4682.40661 2065.92928,4683.1878 C2066.31752,4683.30851 2066.61928,4683.7189 2067,4684.0279 C2066.28838,4685.72451 2064.8407,4686.38693 2063.566,4687.25407 C2062.56014,4687.93967 2061.0429,4688.30081 2061.24971,4689.9559 C2061.43114,4691.40048 2062.97847,4691.09245 2063.86399,4691.60326 C2064.8031,4692.14402 2066.17276,4692.18361 2066.19532,4693.59632 C2066.22164,4695.33253 2064.51357,4695.11623 2063.52087,4695.58842 C2061.80528,4696.40631 2059.90168,4696.95285 2058.89019,4698.7383 C2057.80349,4700.65604 2056.60775,4700.09694 2055.51541,4698.97778 C2054.12413,4697.55251 2055.92339,4697.00983 2056.53442,4696.48066 C2058.56399,4694.72128 2060.37547,4693.39161 2058.04226,4690.21952 C2057.04393,4688.86184 2058.44836,4686.62158 2060.05773,4685.48214 Z M2122.06674,4690.92781 C2121.70268,4691.59787 2121.21207,4692.23381 2121.01738,4692.94972 C2120.87916,4693.45398 2121.44667,4693.91434 2121.90807,4693.56517 C2122.34027,4693.23745 2122.52425,4692.57811 2122.83088,4692.04361 C2122.51062,4691.57642 2122.28965,4691.2526 2122.06674,4690.92781 Z M2088.43742,4684.68542 L2083.71157,4692.87805 C2086.54469,4691.65085 2086.77311,4687.8931 2088.16709,4685.26782 C2088.24346,4685.22143 2088.31987,4685.17663 2088.39634,4685.1334 C2088.39268,4684.96776 2088.40774,4684.81967 2088.43742,4684.68542 L2088.43742,4684.68542 Z M2093.29706,4688.92052 C2092.4015,4690.18068 2091.81063,4691.01461 2091.21003,4691.85829 C2092.87654,4691.96071 2093.37104,4691.0546 2093.29706,4688.92052 Z M2102.96904,4688.42992 C2101.06989,4687.11709 2099.07338,4688.62012 2097.01848,4688.47869 C2099.02569,4688.7196 2100.77202,4690.59618 2102.96612,4689.6696 C2103.12771,4689.6023 2103.17346,4688.57232 2102.96904,4688.42992 Z M2093.239,4676.361 L2089.92356,4682.10801 C2090.39379,4682.2242 2090.86885,4682.33167 2091.32166,4682.4769 C2093.00422,4682.11479 2095.04187,4683.33862 2096.35579,4681.34408 C2095.72302,4684.46369 2093.20354,4682.88356 2091.48421,4683.3028 C2091.38165,4683.27278 2091.27232,4683.25051 2091.16492,4683.22824 C2090.61735,4684.19653 2088.78171,4683.8997 2088.46587,4685.09451 C2091.33841,4683.50669 2094.27656,4684.10597 2097.2229,4684.99765 C2098.38128,4685.32634 2099.54063,4685.65601 2100.69998,4685.98471 C2102.44437,4686.02762 2104.18972,4686.07054 2105.93411,4686.11443 C2104.88983,4684.70881 2103.36302,4685.22047 2101.99751,4685.09228 C2101.98317,4685.80036 2101.41296,4685.78397 2101,4685.9705 C2101.33321,4685.6575 2101.66642,4685.3425 2101.99964,4685.0295 L2101.939,4685.085 L2101.78049,4685.06592 C2101.55975,4681.31671 2099.1661,4683.29596 2097.51352,4683.3225 C2097.82592,4683.84689 2097.78009,4684.40869 2097.43196,4685 C2097.38096,4684.33296 2097.32896,4683.66704 2097.27696,4683 L2097.30005,4683.31402 C2097.22145,4683.30606 2097.14499,4683.29245 2097.07104,4683.27224 C2097.02042,4682.45392 2096.9552,4681.64047 2096.15115,4681.1489 C2095.71019,4679.443 2093.96872,4677.74783 2093.06246,4676.04681 L2093.239,4676.361 Z M2065.63512,4666 C2067.23674,4666.54073 2069.03664,4666.99638 2070.69793,4667.75809 C2072.06085,4668.38291 2074.7684,4668.04557 2073.79241,4670.88804 C2073.07341,4672.9825 2072.94829,4675.86409 2069.21663,4675.00068 C2067.83831,4674.68094 2065.8257,4673.62491 2064.55037,4675.6695 C2064.11531,4680.52528 2058.99956,4681.62042 2057.2526,4686 C2055.18128,4677.79036 2055.18128,4677.79036 2061.11998,4668.11792 C2061.93811,4669.80757 2062.69753,4671.37792 2063.45792,4672.9473 C2067.59672,4671.76415 2063.85736,4668.21473 2065.63512,4666 Z M2131.01936,4683.80284 C2128.26651,4683.084 2125.38126,4679.83607 2126.12594,4685.97008 C2127.60263,4685.31659 2128.92941,4684.72942 2131.01936,4683.80284 Z M2154.80411,4679.73366 C2154.48678,4681.5644 2152.29072,4682.56023 2152.83098,4684.65725 C2152.87673,4684.83769 2153.92024,4685.04837 2154.09935,4684.85915 C2155.5079,4683.38734 2155.7133,4681.66096 2154.80411,4679.73366 Z M2121.53622,4671.28415 L2119.61954,4671.49581 C2119.49397,4673.52259 2118.1263,4674.56427 2116.5182,4675.41381 L2116.602,4675.368 L2116.88447,4675.507 L2116.15747,4675.847 C2116.09947,4675.615 2116.10147,4675.383 2116.16447,4675.153 L2116.15626,4675.18675 C2115.17968,4674.51646 2114.26884,4673.54618 2113.045,4675.23044 C2112.05211,4676.59691 2111.18089,4677.76929 2112.78607,4679.21574 C2112.20493,4680.62415 2110.54037,4681.5049 2110.80028,4683.31906 C2112.12195,4682.33388 2113.5903,4681.45238 2113.71874,4679.63849 C2113.51368,4679.79928 2113.28249,4679.72456 2113.021,4679.39081 C2113.2608,4679.41281 2113.4963,4679.39878 2113.72789,4679.34872 C2113.72708,4679.26939 2113.72409,4679.1893 2113.71862,4679.10748 C2114.65019,4678.10189 2115.58079,4677.0963 2116.51138,4676.0907 C2119.41999,4675.78444 2121.19163,4674.28337 2121.53622,4671.28415 L2121.53622,4671.28415 Z M2128.45146,4674.65498 C2129.01021,4676.29846 2127.49263,4677.50399 2127.81484,4679.93946 C2129.28277,4677.93217 2130.16372,4676.45451 2128.45146,4674.65498 Z M2039.06023,4673.11395 C2040.53051,4671.61129 2040.74996,4667.57631 2044.62364,4669.51789 C2047.72735,4671.0731 2049.10318,4672.98548 2046.9717,4676.29639 C2041.68212,4673.98985 2041.68212,4673.98985 2040.8988,4679 C2039.06309,4677.20927 2036.54234,4675.68909 2039.06023,4673.11395 Z M2102.01592,4661.1489 L2099.94635,4664.7352 L2100.93324,4664.71584 C2101.1103,4664.76134 2101.26317,4664.83589 2101.42475,4664.8998 C2101.1461,4665.14282 2100.83842,4665.35293 2100.48914,4665.47202 C2100.13598,4665.59304 2099.77412,4665.65501 2099.40549,4665.67437 L2099.40549,4665.67437 L2098.90914,4666.53416 C2099.06782,4667.42105 2098.61114,4667.89354 2097.93676,4668.21886 L2097.93676,4668.21886 L2096.7492,4670.27589 C2097.10666,4670.24497 2097.46437,4670.2142 2097.82155,4670.18395 C2098.92932,4669.92353 2100.01956,4669.6358 2100.95989,4669.12277 C2100.35052,4669.89427 2099.81319,4670.81501 2099.1902,4671.55725 C2099.8823,4674.71253 2100.20256,4678.12725 2104.34353,4678.8295 C2108.28202,4671.83133 2108.28202,4671.83133 2105.87084,4668.40588 C2104.44087,4667.50465 2103.39249,4667.42077 2102.55047,4667.7758 C2102.81622,4667.4354 2103.05763,4667.05989 2103.2455,4666.6044 C2102.85029,4665.62514 2102.17959,4664.95703 2101.24997,4664.58347 C2101.36191,4664.48788 2101.48165,4664.40107 2101.57704,4664.28891 C2102.22437,4663.53691 2102.5933,4662.62788 2102.82498,4661.63887 L2102.78599,4661.79694 C2102.61224,4661.83696 2102.40635,4661.85796 2102.15718,4661.8528 C2102.103,4661.6214 2102.06043,4661.38418 2102.01592,4661.1489 L2102.01592,4661.1489 Z M2143.97472,4676.17263 C2143.92897,4675.9483 2143.09085,4675.61863 2142.99156,4675.71617 C2142.57493,4676.13069 2142.19432,4676.65153 2142.00256,4677.20456 C2141.8069,4677.76929 2142.21379,4678.00435 2142.78227,4677.91754 C2143.4481,4677.51277 2144.1587,4677.08167 2143.97472,4676.17263 Z M2096.16534,4670.66128 L2096.01178,4670.73787 C2096.06228,4670.71235 2096.11346,4670.68682 2096.16534,4670.66128 Z M2076,4666.00299 C2081.76628,4665.89262 2084.10844,4668.84365 2082.50864,4674 C2080.33626,4671.32836 2078.27142,4668.79394 2076,4666.00299 Z M2103,4668 C2102.43819,4668.42723 2101.76499,4668.75453 2101,4669 C2101.58507,4668.56336 2102.22277,4668.19406 2103,4668 Z M2117.35145,4658.63673 C2115.96918,4658.72841 2113.74782,4656.74551 2113.47429,4659.31167 C2113.40225,4659.98564 2113.38181,4664.20698 2116.97668,4663.55934 C2116.60678,4665.0848 2115.98865,4666.70291 2118.34532,4667.19937 L2118.34532,4667.19937 L2124.44191,4668.33761 C2127.59776,4663.79928 2121.42525,4667.7602 2122.16214,4664.9424 C2126.15709,4662.52644 2121.61994,4661.39503 2120.59978,4659.47846 C2119.51538,4659.1722 2118.41054,4658.56455 2117.35145,4658.63673 Z M2117,4663 C2118.84013,4663.83731 2119.55905,4665.09166 2118.52459,4667 C2117.72976,4665.77352 2117.7547,4664.24149 2117,4663 Z M2141.17027,4660.64693 L2141.70761,4665.99188 L2146.05883,4662.85416 L2141.17027,4660.64693 Z M2104.155,4657.441 L2102.92638,4659.56973 C2103.04876,4660.12431 2103.1093,4660.68931 2103.07292,4661.27106 C2103.95912,4660.67616 2103.21762,4659.10648 2103.86071,4658.3646 L2103.86071,4658.3646 L2104.155,4657.441 Z M2050,4652.59902 C2056.54877,4651.37463 2056.69133,4651.51758 2055.27977,4658 C2053.03494,4656.63059 2051.50793,4654.71321 2050,4652.59902 Z M2071.81997,4654.01854 C2072.27216,4653.87407 2073.02913,4654.60488 2074,4655.13533 C2072.5182,4656.08232 2071.85765,4656.74143 2071.06411,4656.95234 C2069.96024,4657.24551 2069.87822,4656.10869 2070.09767,4655.65417 C2070.42572,4654.97609 2071.11398,4654.24316 2071.81997,4654.01854 Z M2082,4654.57978 C2084.02534,4654.71867 2085.99407,4653.24351 2087.8659,4654.53188 C2088.06738,4654.67174 2088.02133,4655.68328 2087.86302,4655.74937 C2085.69953,4656.65937 2083.97833,4654.81638 2082,4654.57978 Z M2132.58074,4652.32423 C2131.89837,4651.7712 2131.02715,4651.49908 2130.67671,4652.43444 C2130.42654,4653.10159 2129.56019,4654.52463 2131.49342,4654.5734 C2131.80784,4654.60266 2132.11739,4654.65923 2132.42207,4654.74311 C2133.26701,4655.8316 2134.32999,4655.69115 2135.44165,4655.2815 C2135.07661,4654.66508 2134.71255,4654.04866 2134.34849,4653.43321 C2134.19274,4652.36909 2133.2748,4652.52613 2132.58074,4652.32423 Z M2063.82047,4652.01829 C2064.27145,4651.87486 2065.02935,4652.60573 2066,4653.13516 C2064.51743,4654.08222 2063.85704,4654.74243 2063.06368,4654.9523 C2061.96117,4655.24549 2061.87807,4654.10964 2062.09746,4653.65509 C2062.42655,4652.9759 2063.11465,4652.24293 2063.82047,4652.01829 Z M2108.02049,4649.24461 C2107.9218,4649.29787 2107.82699,4649.35886 2107.72733,4649.41018 C2107.34902,4649.6532 2107.02489,4649.95045 2106.71915,4650.26706 C2106.06896,4652.30226 2105.42071,4654.3394 2104.77052,4656.37557 L2105.232,4654.927 L2108.24017,4649.70764 C2108.19687,4649.62674 2108.15505,4649.54308 2108.11466,4649.45678 Z M2132,4654 C2132.2193,4653.20355 2132.90854,4652.90307 2134,4653.02688 C2133.333,4653.35125 2132.66599,4653.67635 2132,4654 Z M2132,4652 C2131.1594,4652.28708 2131.0619,4653.0477 2131.26415,4654 C2130.83331,4652.90199 2130.83331,4652.07979 2132,4652 Z M2154.46147,4650.86997 C2154.09059,4650.00776 2153.3722,4649.61177 2152.51558,4649.75222 C2151.25305,4649.96094 2151.20632,4651.00652 2151.26668,4652.01016 C2151.31924,4652.87043 2151.81764,4653.08696 2152.57788,4652.76411 C2153.46078,4652.38958 2154.44492,4652.11062 2154.46147,4650.86997 Z M2145.98193,4649.39914 C2145.58867,4649.83415 2145.06886,4650.21453 2144.85275,4650.72367 C2144.73205,4651.00945 2145.01629,4651.75657 2145.29177,4651.86776 C2146.34015,4652.29497 2146.09096,4651.34009 2146.28077,4650.72074 C2146.19414,4650.33743 2146.08804,4649.86731 2145.98193,4649.39914 Z M2135.71031,4647.0378 C2135.50005,4647.00367 2135.09803,4647.33821 2134.99484,4647.58693 C2134.47701,4648.85786 2136.18903,4648.60326 2136.39759,4649.40311 L2136.50034,4649.39488 L2136.50034,4649.39488 L2137,4649.35138 C2136.8147,4649.57585 2136.62,4649.66992 2136.41686,4649.64461 C2136.41813,4650.28009 2135.13367,4650.91059 2136.3557,4651.51273 C2136.72073,4651.69317 2137.37974,4651.67074 2137.70974,4651.45031 C2138.74352,4650.75878 2137.87911,4650.14431 2137.49948,4649.52886 C2137.16559,4648.50279 2137.09258,4647.26506 2135.71031,4647.0378 Z M2121,4646 C2119.39419,4648.00054 2117.01062,4646.72404 2115.0265,4647.12738 C2114.30609,4648.3392 2112.84315,4649.20967 2112.91258,4650.7862 C2112.61375,4650.88142 2112.33605,4650.9452 2112.06238,4651 C2112.04125,4650.91736 2112.02012,4650.83471 2112,4650.75027 C2112.02515,4648.91592 2112.99609,4647.65828 2114.77295,4646.89651 L2114.77295,4646.89651 L2113.96501,4646.1599 C2114.24774,4646.40963 2114.65824,4646.54707 2114.88362,4646.84711 C2114.94198,4646.82375 2114.9943,4646.79501 2115.05467,4646.77165 C2116.9905,4646.24165 2119.19497,4647.34926 2121,4646 Z M2123,4645 C2124.58976,4646.50801 2127.8113,4647.24049 2126.8111,4649.97832 C2126.65267,4650.29953 2126.48453,4650.63776 2126.30346,4651 C2126.01784,4649.70013 2127.36509,4647.54069 2123.97757,4647.94797 C2122.96443,4648.06905 2123.05712,4646.10574 2123,4645 Z M2079,4644 C2077.18473,4645.90496 2078.46852,4648.64435 2075.80643,4648.99652 C2075.23097,4649.07156 2073.95093,4647.90797 2074.00145,4647.78491 C2074.76031,4645.92998 2076.15639,4644.81541 2079,4644 Z M2061,4642.59919 C2067.54846,4641.37484 2067.69104,4641.51675 2066.28034,4648 C2064.03426,4646.63063 2062.50709,4644.71332 2061,4642.59919 Z M2158,4639 C2157.29194,4640.15435 2156.55792,4641.14816 2155.80167,4642 L2155.80167,4642 L2155,4640.36185 C2155.95829,4639.88242 2156.9481,4639.41281 2158,4639 Z M2089,4637 L2094,4639.06425 L2089.5487,4642 L2089,4637 Z M2038,4639 C2039.9289,4639.42019 2041.49099,4638.90828 2041.98911,4640.68717 C2042.07977,4641.01245 2041.58478,4641.81444 2041.23464,4641.90829 C2039.44225,4642.39354 2039.04313,4640.88447 2038,4639 Z M2140.66604,4629.22002 C2138.49237,4629.379 2135.07272,4633.26774 2135.41537,4635.33939 C2135.68987,4637.0014 2136.77427,4640.16935 2137.54425,4639.48855 C2140.0703,4637.25207 2141.92176,4634.14361 2143.58535,4631.12391 C2143.92216,4630.51041 2141.89451,4629.47556 2140.66604,4629.22002 Z M2075.56847,4629.08798 C2077.65484,4628.33611 2081.95184,4632.57096 2082,4635.40607 C2081.6253,4636.30357 2081.06277,4637.65178 2080.5012,4639 C2079.26441,4638.34917 2077.46508,4638.16492 2077.25124,4636.48881 C2077.03066,4634.75425 2076.3275,4634.35504 2074.79596,4634.40754 C2073.29909,4634.46004 2071.04126,4634.65123 2071.0008,4632.72747 C2070.94494,4630.12614 2073.81345,4629.71999 2075.56847,4629.08798 Z M2154.70743,4631 C2154.95746,4631.2235 2155.04603,4631.45333 2154.97776,4631.69039 C2154.90764,4631.93018 2154.8329,4632.05052 2154.75448,4632.05052 C2153.59104,4633.37792 2154.36974,4636.48515 2152.31872,4637 L2152.31872,4637 L2149,4631.36013 C2149.62093,4630.97828 2150.48175,4630.94119 2151.17373,4631.47052 C2152.62042,4632.57895 2153.66669,4632.13829 2154.70743,4631 Z M2047.42011,4634 C2048.52403,4634.8583 2049.29176,4635.58601 2048.89334,4636.65567 C2048.81607,4636.86186 2047.82555,4637.09298 2047.67602,4636.96153 C2046.79589,4636.18742 2046.84607,4635.24063 2047.42011,4634 Z M2063.10723,4628.02169 C2063.84004,4627.50936 2064.51056,4626.7562 2065.5539,4627.07699 C2065.71604,4627.1272 2065.84153,4627.29643 2066,4627.42288 C2065.70321,4628.12211 2065.10047,4628.39455 2064.56919,4628.7516 C2064.15057,4629.03427 2063.5176,4629.18304 2063.60462,4629.86367 C2063.67974,4630.45876 2064.32461,4630.33231 2064.69376,4630.54245 C2065.0849,4630.76561 2065.65558,4630.78234 2065.66474,4631.36348 C2065.67573,4632.07852 2064.9649,4631.98833 2064.54995,4632.18266 C2063.83546,4632.52019 2063.04219,4632.74521 2062.62083,4633.47977 C2062.16831,4634.27012 2061.67,4634.04045 2061.21474,4633.57833 C2060.63491,4632.99254 2061.38512,4632.76845 2061.63977,4632.55087 C2062.48526,4631.82654 2063.24005,4631.27887 2062.26816,4629.97339 C2061.85137,4629.41364 2062.43671,4628.49125 2063.10723,4628.02169 Z M2095,4625 C2098.70217,4626.24029 2098.70217,4626.24029 2096.49863,4632 C2094.94416,4629.48031 2095.39823,4627.24111 2095,4625 Z M2112.5295,4629.00002 L2112.72091,4629.00452 C2113.89057,4629.06253 2114.58868,4629.63496 2115,4630.61157 C2114.5897,4632.08905 2113.35677,4632.08325 2112.15344,4631.93821 C2111.29916,4631.83668 2109.74167,4632.31435 2110.03663,4630.78659 C2110.24689,4629.69781 2111.30019,4628.93393 2112.72091,4629.00452 Z M2134.90529,4624.03015 C2130.01186,4625.66485 2126.27682,4628.24271 2121.87984,4628.58213 C2121.89542,4628.9596 2121.91196,4629.33706 2121.92851,4629.71452 C2126.74601,4630.94444 2131.16051,4629.22099 2134.90529,4624.03015 Z M2037,4623 C2039.7845,4625.11852 2039.23405,4627.00387 2037.91921,4629 C2037.64936,4627.23281 2037.37843,4625.46457 2037,4623 Z M2056,4623 C2055.09261,4624.3695 2056.76237,4627.18881 2053.50883,4626.99001 C2052.21093,4626.9107 2050.70587,4626.40567 2051.04977,4625.04521 C2051.58944,4622.90964 2054.01431,4623.36346 2056,4623 Z M2107.56807,4615.08798 C2109.65426,4614.33611 2113.95088,4618.57096 2114,4621.40607 C2113.62437,4622.30357 2113.06189,4623.65178 2112.50037,4625 C2111.26272,4624.34917 2109.46452,4624.16492 2109.2507,4622.48881 C2109.03014,4620.75525 2108.32607,4620.35504 2106.79659,4620.40853 C2105.29888,4620.46004 2103.04126,4620.65222 2103.0008,4618.72846 C2102.94494,4616.12614 2105.81321,4615.71999 2107.56807,4615.08798 Z M2145.65615,4620 C2145.94947,4620.25025 2146.05484,4620.5076 2145.97337,4620.77305 C2145.8908,4621.04154 2145.80389,4621.17629 2145.71047,4621.17629 C2145.08472,4621.85613 2144.93807,4622.95339 2144.73383,4624 L2144.73383,4624 L2143,4621.19959 C2143.98424,4621.35461 2144.824,4620.86525 2145.65615,4620 Z M2078.41924,4620 C2079.52313,4620.8583 2080.29184,4621.58601 2079.89343,4622.65567 C2079.81616,4622.86186 2078.82567,4623.09298 2078.67615,4622.96153 C2077.79605,4622.18828 2077.84622,4621.24063 2078.41924,4620 Z M2063.41924,4618 C2064.52313,4618.85862 2065.29184,4619.58488 2064.89343,4620.65579 C2064.81616,4620.86292 2063.82467,4621.0924 2063.67615,4620.96176 C2062.79605,4620.18823 2062.84622,4619.23937 2063.41924,4618 Z M2125,4617 L2126,4617.7265 L2125.18717,4620 L2125,4617 Z M2120.02808,4612.38355 C2120.18421,4611.06122 2120.10262,4608.71234 2121.97319,4609.02905 C2124.19732,4609.40672 2127.79038,4609.9828 2127.98983,4612.18879 C2128.20842,4614.63869 2124.84804,4613.32637 2123.22628,4613.91337 C2121.93391,4613.6267 2119.72589,4614.93537 2120.02808,4612.38355 Z M2088,4609 C2087.09177,4610.3695 2088.76118,4613.18881 2085.50831,4612.99001 C2084.21068,4612.9107 2082.70593,4612.40667 2083.04976,4611.04521 C2083.58931,4608.91064 2086.01369,4609.36346 2088,4609 Z M2069.41936,4606 C2070.52355,4606.85769 2071.29246,4607.58561 2070.89295,4608.65557 C2070.81666,4608.86183 2069.8259,4609.09301 2069.67633,4608.96152 C2068.79599,4608.18805 2068.84618,4607.24012 2069.41936,4606 Z M2064,4600 C2063.3693,4600.62142 2063.11552,4601.94669 2062.27375,4601.99996 C2062.18413,4602.00503 2061.97139,4601.5358 2062.00322,4601.45209 C2062.44043,4600.31451 2063.36093,4600.56181 2064,4600 Z" id="GEO-Shape-2"></path>
        </g>
    </g>
</svg>