<?xml version="1.0" encoding="UTF-8"?>
<svg width="310px" height="310px" viewBox="0 0 310 310" version="1.1" xmlns="http://www.w3.org/2000/svg" xmlns:xlink="http://www.w3.org/1999/xlink">
    <title>Shape 31</title>
    <g id="Page-1" stroke="none" stroke-width="1" fill="none" fill-rule="evenodd">
        <g id="Desktop-HD" transform="translate(-623.000000, -5267.000000)" fill="#000000">
            <path d="M686,5514 L686,5577 L623,5577 L623,5514 L686,5514 Z M903,5525 L903,5536 L893,5536 L893,5547 L882,5547 L882,5536 L892,5536 L892,5525 L903,5525 Z M713,5528 L713,5543 L698,5543 L698,5528 L713,5528 Z M914,5514 L914,5525 L903,5525 L903,5514 L914,5514 Z M933,5267 L933,5319.37223 L882.186406,5319.37223 L882.186406,5514 L686,5514 L686,5317.81495 L880.629096,5317.81495 L880.629096,5267 L933,5267 Z M656.5,5496 C658.984873,5496 661,5498.01513 661,5500.5 C661,5502.98591 658.984873,5505 656.5,5505 C654.015127,5505 652,5502.98591 652,5500.5 C652,5498.01513 654.015127,5496 656.5,5496 Z M656.5,5478 C658.984873,5478 661,5480.01432 661,5482.49948 C661,5484.98568 658.984873,5487 656.5,5487 C654.015127,5487 652,5484.98568 652,5482.49948 C652,5480.01432 654.015127,5478 656.5,5478 Z M656.5,5459 C658.984873,5459 661,5461.01432 661,5463.49948 C661,5465.98568 658.984873,5468 656.5,5468 C654.015127,5468 652,5465.98568 652,5463.49948 C652,5461.01432 654.015127,5459 656.5,5459 Z M656.5,5440 C658.984873,5440 661,5442.01432 661,5444.49948 C661,5446.98568 658.984873,5449 656.5,5449 C654.015127,5449 652,5446.98568 652,5444.49948 C652,5442.01432 654.015127,5440 656.5,5440 Z M656.5,5422 C658.984873,5422 661,5424.01432 661,5426.49948 C661,5428.98568 658.984873,5431 656.5,5431 C654.015127,5431 652,5428.98568 652,5426.49948 C652,5424.01432 654.015127,5422 656.5,5422 Z" id="Shape-31"></path>
        </g>
    </g>
</svg>