<?xml version="1.0" encoding="UTF-8"?>
<svg width="309px" height="268px" viewBox="0 0 309 268" version="1.1" xmlns="http://www.w3.org/2000/svg" xmlns:xlink="http://www.w3.org/1999/xlink">
    <title>Paint 15</title>
    <g id="Page-1" stroke="none" stroke-width="1" fill="none" fill-rule="evenodd">
        <g id="Desktop-HD" transform="translate(-5903.000000, -5072.000000)" fill="#000000">
            <path d="M6137.54,5103.43577 L6137.54,5103.44977 C6137.89,5103.75777 6138.254,5104.09377 6138.59,5104.41577 C6138.478,5104.56977 6138.548,5104.77977 6138.492,5104.91977 C6137.4,5104.17777 6136.028,5103.82777 6134.152,5104.41577 C6133.872,5104.49977 6133.648,5104.35977 6133.41,5104.27577 C6134.418,5102.83377 6135.916,5102.88977 6137.54,5103.43577 L6137.54,5103.43577 Z M6183.23024,5192.412 C6182.82424,5192.482 6182.51624,5192.58 6182.29224,5193.042 C6181.99824,5193.728 6181.90024,5194.358 6181.90024,5194.96 C6181.55024,5194.932 6181.22824,5194.792 6180.94824,5194.316 C6180.27624,5193.126 6181.70424,5192.972 6181.90024,5192.216 C6182.04024,5192.104 6182.16624,5191.978 6182.30624,5191.838 C6182.65624,5191.642 6182.86624,5191.292 6183.17424,5191.04 C6183.17424,5191.054 6183.18824,5191.054 6183.18824,5191.068 C6183.20224,5191.53 6183.21624,5191.964 6183.23024,5192.412 L6183.23024,5192.412 Z M6189.86027,5238.40629 C6191.12154,5239.13233 6192.45135,5238.85835 6194.50777,5238.80356 C6192.53361,5237.80353 6191.19008,5237.44735 6189.72317,5238.02271 C6189.62721,5237.87202 6189.44899,5237.74873 6189.27076,5237.63914 C6189.09254,5237.31036 6188.90061,5237.03638 6188.69497,5236.89939 C6188.68126,5236.05005 6189.46269,5235.58428 6189.72317,5234.85823 C6189.86027,5234.48836 6189.70946,5234.24178 6189.72317,5233.9267 C6191.72475,5233.14585 6193.34246,5232.4061 6194.39809,5230.81701 C6192.65699,5231.18689 6191.10783,5231.96773 6189.73688,5233.52942 C6189.65463,5232.78968 6189.27076,5232.17322 6188.53045,5231.72115 C6188.64013,5231.35128 6188.79093,5231.0225 6188.66755,5230.54303 C6188.40707,5229.70739 6187.69418,5228.74846 6186.47404,5229.6115 C6186.47404,5229.6526 6186.47404,5229.67999 6186.46033,5229.72109 C6186.44662,5229.72109 6186.46033,5229.70739 6186.44662,5229.69369 L6186.47404,5229.6115 C6185.92566,5229.69369 6185.52809,5230.09096 6185.06197,5230.32385 C6184.71923,5230.10466 6184.40391,5229.83068 6184.19827,5229.33752 C6184.04747,5229.15943 6183.86925,5228.98134 6183.70473,5228.81695 C6184.00634,5228.73476 6184.29424,5228.63887 6184.59585,5228.55667 C6185.67889,5228.65256 6186.57,5228.28269 6187.2966,5227.47445 C6188.24255,5227.99501 6189.16109,5227.52924 6190.06591,5227.35116 C6190.50461,5227.24156 6190.94331,5227.14567 6191.36831,5227.04978 C6192.27313,5227.07717 6193.13682,5226.51551 6192.84892,5225.76207 C6192.35538,5224.43326 6191.62879,5225.80316 6190.99815,5225.89906 C6190.66912,5225.59768 6190.36752,5225.15931 6189.86027,5225.65247 C6189.10625,5225.63877 6188.32481,5225.62508 6187.55708,5225.61138 C6186.35065,5225.18671 6185.1168,5225.2826 6183.88295,5225.46069 C6183.85554,5225.69357 6183.84183,5225.92645 6183.81441,5226.15934 C6183.91037,5225.94015 6184.04747,5225.70727 6183.88295,5225.46069 C6182.29266,5224.66614 6180.49672,5224.20038 6179.49594,5222.54279 C6178.64595,5219.20022 6178.93385,5218.83035 6182.73136,5218.44678 C6182.99184,5218.44678 6183.2249,5218.44678 6183.47167,5218.43308 C6184.21198,5218.47417 6184.966,5218.52897 6185.70631,5218.57007 C6186.28211,5219.04953 6186.89903,5219.18652 6187.5845,5218.83035 C6189.27076,5218.50157 6190.65542,5217.54264 6192.14974,5216.81659 C6193.58923,5219.04953 6194.05535,5218.98104 6195.60452,5216.50151 C6194.80937,5216.57001 6194.19245,5216.29603 6193.58923,5215.98095 C6195.12469,5215.2823 6196.02951,5213.8576 6197.23594,5212.77537 L6198.51092,5212.4055 C6199.70364,5212.84387 6200.78669,5212.46029 6201.86973,5211.99453 C6202.81568,5211.80274 6203.96728,5212.10412 6204.46082,5210.8712 C6205.26967,5211.18628 6206.05111,5210.9397 6206.83255,5210.76161 C6207.72366,5211.88493 6208.51881,5210.63832 6209.35508,5210.65202 C6210.27361,5210.63832 6211.31553,5211.10409 6211.94617,5210.04926 C6212.05584,5209.87117 6211.98729,5209.4876 6211.83649,5209.32321 C6211.20586,5208.52867 6210.46555,5208.80265 6209.75266,5209.22732 C6208.87525,5209.40541 6208.02527,5209.56979 6207.14786,5209.74788 C6205.95514,5209.18622 6205.06403,5209.83008 6204.1455,5210.46023 C6202.52778,5210.66572 6201.70522,5208.32318 6199.89557,5209.14512 L6199.79961,5208.95334 C6198.99075,5208.35058 6198.68914,5209.21362 6198.20931,5209.5287 C6197.29078,5210.15885 6196.35854,5210.78901 6195.4263,5211.40547 C6195.17953,5211.46026 6194.94647,5211.52876 6194.6997,5211.58355 C6193.63036,5210.59722 6193.20537,5211.80274 6192.54732,5212.21371 C6192.42393,5212.47399 6192.62957,5212.67948 6192.69812,5212.91236 C6192.6707,5212.66578 6192.73925,5212.4055 6192.54732,5212.21371 C6191.5054,5212.24111 6190.44977,5212.21371 6189.46269,5212.48769 C6188.11917,5211.03559 6186.66597,5209.67939 6185.13051,5208.41907 C6185.13051,5208.21359 6185.29503,5208.19989 6185.13051,5207.80262 C6185.34986,5206.6519 6185.07568,5206.11764 6183.84183,5206.73409 C6183.70473,5206.81629 6183.60877,5206.91218 6183.52651,5207.03547 C6183.08781,5206.78889 6182.59427,5206.44641 6182.25153,5207.09027 C6182.23782,5207.11767 6182.26524,5207.14506 6182.25153,5207.18616 C6182.2104,5207.21356 6182.18299,5207.18616 6182.14186,5207.22726 C6181.82654,5207.76152 6182.14186,5208.0903 6182.47088,5208.39168 C6182.53943,5208.48757 6182.58056,5208.59716 6182.64911,5208.69306 C6182.67652,5209.5424 6183.03297,5209.5013 6183.49909,5209.24102 C6184.966,5210.52873 6186.44662,5211.80274 6188.13288,5212.85757 L6187.15951,5212.92606 C6186.33694,5212.84387 6185.50067,5212.73427 6184.6781,5212.62468 C6184.54101,5212.56989 6184.3902,5212.50139 6184.25311,5212.44659 C6184.34908,5210.84381 6183.0741,5210.9671 6182.10073,5210.73421 C6181.9088,5210.43283 6181.74428,5210.09036 6181.47009,5209.87117 C6181.08623,5209.5561 6180.70237,5209.25472 6180.3185,5208.92594 C6180.93543,5208.104 6181.26445,5207.13136 6181.74428,5206.21353 C6182.51201,5205.50118 6183.19748,5204.63814 6184.21198,5204.21347 C6185.1168,5203.8025 6185.85711,5204.18607 6186.55629,5204.70663 C6187.39257,5206.30942 6188.46191,5205.73406 6189.86027,5205.40528 C6189.96994,5205.65187 6190.13446,5205.89845 6190.53203,5205.95325 C6190.95702,5206.00804 6191.08041,5205.59707 6191.0667,5205.28199 C6191.0667,5204.74773 6190.71025,5204.35046 6190.25784,5204.15867 C6189.98365,5204.04908 6189.81914,5204.35046 6189.73688,5204.73403 C6188.76351,5204.37786 6187.89982,5204.26826 6187.13209,5204.14497 C6186.43291,5203.11754 6186.09017,5201.81614 6184.88374,5201.15858 C6184.80149,5199.501 6183.00555,5199.07633 6182.42975,5197.76122 L6182.42975,5197.76122 L6182.42975,5197.76122 C6182.58056,5197.59683 6182.74507,5197.44614 6182.89588,5197.28175 C6183.26603,5197.9667 6183.71844,5198.62426 6184.25311,5199.21332 C6184.87003,5199.87087 6185.65147,5200.24074 6186.48775,5200.39143 C6186.50146,5200.63802 6186.51517,5200.8846 6186.51517,5201.09009 C6186.52888,5203.02165 6187.92724,5203.25453 6189.51753,5202.76137 C6190.02478,5203.63811 6190.83364,5203.92579 6191.72475,5203.65181 C6193.50698,5203.10385 6195.39888,5202.3778 6195.34404,5200.11745 C6195.2892,5197.87081 6193.58923,5197.39134 6191.80701,5197.10366 C6191.71104,5196.6379 6191.53282,5196.13103 6191.23121,5195.54197 C6189.81914,5192.77477 6187.50225,5191.21307 6184.71923,5190.14455 C6185.1168,5189.70618 6185.59663,5189.3774 6185.99421,5188.95273 C6186.94016,5188.52806 6187.8724,5188.13079 6188.79093,5187.71982 C6190.29897,5188.04859 6191.40943,5187.08966 6192.58845,5186.4869 C6192.9586,5186.29512 6192.30055,5186.06223 6192.0812,5185.87045 C6191.62879,5185.18549 6192.34168,5184.93891 6192.58845,5184.50054 L6192.60215,5184.50054 L6194.00052,5183.89778 C6194.49406,5183.80189 6195.02872,5183.76079 6195.50855,5183.56901 C6196.07064,5183.33612 6196.67386,5183.02104 6196.64644,5182.30869 C6196.63273,5182.04841 6196.34483,5181.63744 6196.09806,5181.54155 C6195.46743,5181.30866 6194.8505,5181.52785 6194.45293,5182.04841 C6194.23358,5182.36349 6194.17874,5182.81556 6194.04165,5183.22653 C6192.83522,5183.25393 6191.58766,5183.19913 6190.628,5184.15807 L6189.87398,5184.15807 C6189.86027,5184.21286 6189.86027,5184.25396 6189.86027,5184.30876 L6189.79172,5184.22656 L6189.87398,5184.15807 C6189.29818,5184.06217 6188.73609,5183.97998 6188.18772,5184.07587 C6187.74902,5183.6101 6187.00871,5183.18543 6186.66597,5182.67857 C6186.40549,5182.36349 6186.1313,5182.03471 6185.85711,5181.69224 C6185.62405,5180.52782 6186.73452,5180.39083 6187.25548,5179.81547 C6187.91353,5179.51409 6188.20143,5179.03462 6188.03691,5178.30857 C6188.14659,5177.8839 6187.99579,5177.54143 6187.62563,5177.29484 C6187.25548,5176.34961 6187.11838,5175.25369 6186.22727,5174.56873 C6185.56922,5173.99337 6184.91116,5173.40432 6184.2394,5172.82896 C6184.14343,5172.69196 6184.14343,5172.55497 6184.07489,5172.40428 C6184.11602,5172.1851 6184.29424,5172.00701 6184.32166,5171.78783 C6184.49988,5171.56864 6184.71923,5171.39056 6184.80149,5171.15767 C6185.1168,5170.39053 6186.00792,5169.77407 6185.48696,5168.80144 C6185.39099,5168.63705 6184.95229,5168.44526 6184.84262,5168.51376 C6184.69181,5168.62335 6184.66439,5168.81513 6184.56843,5168.95213 C6184.44504,5168.89733 6184.41762,5168.84253 6184.26682,5168.78774 C6185.85711,5166.4315 6185.19906,5164.66432 6182.82733,5163.36291 C6182.66282,5163.19853 6182.45717,5163.23962 6182.29266,5163.15743 C6182.60798,5162.26699 6182.99184,5161.41765 6183.32087,5160.52721 C6184.37649,5159.81486 6184.66439,5158.69154 6184.88374,5157.54082 C6184.70552,5156.30791 6184.51359,5155.07499 6184.30795,5153.85578 L6184.30795,5153.84208 C6184.60955,5153.66399 6184.88374,5153.4722 6185.18535,5153.30782 C6187.85869,5151.84202 6187.99579,5150.37622 6185.63776,5148.62274 C6185.21277,5148.32136 6184.87003,5147.88299 6184.49988,5147.52682 C6184.48617,5147.34873 6184.41762,5147.21174 6184.28053,5147.10215 C6184.19827,5146.49939 6184.14343,5145.89663 6184.06118,5145.29387 C6184.03376,5143.73218 6182.92329,5142.81435 6181.93622,5141.82802 C6181.84025,5141.37595 6181.74428,5140.93758 6181.63461,5140.48551 C6181.88138,5140.04714 6182.26524,5139.66357 6182.37492,5139.1567 C6182.71765,5138.66354 6183.12894,5138.17037 6182.85475,5137.49912 L6182.04589,5138.06078 C6181.81283,5138.32106 6181.51122,5138.56764 6181.25074,5138.82792 L6181.25074,5138.81423 C6181.26445,5136.93746 6180.27737,5135.80044 6178.50886,5135.27987 C6178.09757,5133.89627 6177.24759,5134.18395 6176.34277,5134.70451 C6175.01295,5134.17025 6175.72584,5132.86884 6175.30085,5131.9921 C6174.49199,5130.21123 6173.14847,5129.92355 6171.4485,5130.5811 C6170.81786,5130.69069 6170.2832,5131.06057 6169.73482,5131.41674 C6169.73482,5131.36195 6169.74853,5131.33455 6169.74853,5131.29345 C6169.67998,5131.32085 6169.72111,5131.43044 6169.65256,5131.47154 C6168.85742,5131.9784 6168.04856,5132.44417 6166.9518,5131.9921 C6166.47197,5131.9784 6166.01956,5131.9647 6165.55344,5131.9373 C6164.63491,5130.93727 6163.34622,5130.25232 6161.92044,5130.18383 C6160.13822,5130.10163 6158.71243,5131.30715 6158.57534,5132.71815 C6156.84795,5133.06063 6155.01089,5133.11542 6153.53027,5134.33464 C6152.72141,5134.99219 6151.32305,5134.45793 6150.78838,5133.15652 C6150.74725,5132.15649 6150.69242,5131.14276 6150.65129,5130.12903 C6150.93919,5129.129 6150.74725,5128.01938 6151.43273,5127.14264 C6153.7222,5124.8549 6153.7222,5124.59462 6151.47385,5123.99186 C6151.04886,5123.60829 6150.59645,5123.32061 6149.99323,5123.4028 C6149.82872,5123.11512 6149.6505,5122.82744 6149.47228,5122.55346 C6149.59566,5122.27948 6149.63679,5122.0329 6149.30776,5121.86851 C6149.0747,5121.12876 6148.82793,5120.40271 6148.58116,5119.67666 C6148.25214,5117.26563 6147.49812,5114.97789 6146.42878,5112.81344 C6146.1683,5112.30657 6145.93524,5111.60792 6145.11268,5111.74491 C6144.4272,5111.21065 6143.93366,5110.19692 6142.79578,5110.88187 C6142.61756,5110.75858 6142.41192,5110.74488 6142.21999,5110.64899 C6141.90467,5110.03253 6141.5208,5109.48457 6141.24662,5108.82702 C6141.20549,5108.71742 6141.12323,5108.60783 6141.0821,5108.49824 C6142.02805,5108.89551 6143.08368,5109.0599 6144.13931,5109.101 C6146.1683,5109.19689 6147.82714,5107.88178 6148.7731,5105.97761 C6150.11662,5103.2789 6149.43115,5101.97749 6146.63442,5101.05966 C6143.44013,5100.01853 6140.46518,5100.59389 6137.51765,5101.9227 C6135.5572,5101.79941 6133.72014,5101.37473 6132.37661,5099.75825 C6132.5,5098.9911 6132.82902,5098.23765 6132.3629,5097.49791 C6132.73306,5097.14173 6133.07579,5096.78555 6133.41853,5096.44308 C6134.57012,5096.26499 6136.58541,5097.6212 6136.68137,5095.85402 C6136.77734,5093.84026 6134.61125,5094.99098 6133.41853,5094.7718 C6132.96612,5094.7307 6132.51371,5094.6759 6132.0613,5094.6348 C6131.00567,5093.93615 6131.74598,5092.99092 6131.70485,5092.15528 C6131.96533,5091.42923 6131.82823,5090.82647 6131.14276,5090.4155 C6130.89599,5090.01823 6130.52584,5089.86754 6130.07343,5089.94973 C6129.05893,5089.51136 6128.1404,5088.79901 6126.94768,5088.9497 C6125.98802,5089.0182 6125.05577,5089.05929 6124.12353,5089.12779 C6123.04049,5088.9908 6122.28647,5088.49763 6122.16308,5087.33321 C6122.3276,5086.44278 6122.80743,5085.27836 6121.06633,5086.0455 C6120.47682,5083.05911 6118.65347,5082.22347 6115.87045,5083.03171 C6114.58177,5083.00432 6114.17048,5084.07284 6113.53985,5084.86739 C6112.8818,5085.26466 6112.33342,5086.47017 6111.63424,5086.0866 C6109.41331,5084.85369 6107.3569,5086.63456 6105.23193,5086.16879 C6104.35453,5086.0866 6103.47713,5086.00441 6102.59972,5085.92221 C6101.80457,5085.60713 6100.9683,5085.37425 6100.21428,5084.96328 C6098.69253,5084.12764 6098.32238,5084.83999 6098.36351,5086.20989 C6097.60949,5086.88114 6097.17079,5088.12776 6096.0329,5088.10036 C6094.09987,5088.05926 6092.60554,5089.05929 6091.01525,5089.84014 C6089.89108,5089.77164 6089.12335,5090.47029 6088.35562,5091.14155 C6084.61294,5090.55249 6081.73396,5092.48405 6078.86869,5094.41562 C6078.40257,5096.88145 6076.08568,5096.55267 6074.48167,5097.31982 C6074.05668,5097.25132 6073.63169,5097.18283 6073.22041,5097.12803 C6072.39784,5097.04584 6071.76721,5097.47051 6071.05431,5097.75819 C6068.87451,5098.70342 6066.69471,5099.86784 6064.21331,5098.68972 C6064.00767,5098.40204 6063.77461,5098.12806 6063.55525,5097.82668 C6063.39074,5096.40198 6063.54155,5094.86769 6062.33512,5093.74437 L6062.04722,5092.53885 C6062.0198,5092.38816 6061.92383,5092.29227 6061.78674,5092.23747 C6062.56818,5091.62101 6062.56818,5090.74428 6062.6093,5089.86754 C6062.76011,5089.81274 6062.81495,5089.73055 6062.76011,5089.59356 C6063.10284,5089.19628 6063.473,5088.81271 6063.81573,5088.42914 C6064.25444,5088.10036 6065.13184,5088.16886 6065.04958,5087.38801 C6064.95362,5086.49757 6064.11734,5086.93594 6063.6238,5086.82635 C6063.25365,5086.77155 6062.82865,5086.97704 6062.43108,5087.05923 C6062.28028,5087.10033 6062.14318,5087.16882 6062.0198,5087.27842 C6061.63593,5087.18252 6061.26578,5087.07293 6060.86821,5086.97704 C6062.32141,5084.55231 6060.36096,5083.41529 6059.03114,5082.05908 C6059.14082,5081.56592 6058.93518,5081.23714 6058.55131,5080.97686 C6058.48276,5079.97683 6057.811,5079.27817 6057.38601,5078.44253 C6057.02956,5076.60686 6055.52153,5076.23699 6054.06833,5075.75752 C6053.41027,5075.66163 6052.76593,5075.52464 6052.1353,5075.42874 C6052.14901,5074.82599 6051.92965,5074.12733 6052.14901,5073.62047 C6051.92965,5072.38756 6051.64176,5071.27793 6050.13372,5072.59304 C6049.74985,5072.90812 6049.18777,5073.1136 6049.00955,5073.52458 C6048.81761,5073.94925 6048.6531,5074.40131 6048.55713,5074.82599 C6046.67894,5074.44241 6044.81446,5073.94925 6042.9911,5073.1958 C6040.0847,5072.00398 6036.53396,5071.34643 6034.47755,5075.29175 C6034.05255,5076.1 6032.98322,5076.0589 6032.10581,5076.20959 C6029.33651,5076.68906 6026.14221,5075.04517 6023.86644,5078.14115 C6023.46887,5078.68912 6021.82374,5079.11379 6020.71327,5078.38774 C6020.13748,5078.00416 6019.63023,5078.40144 6019.24636,5078.57952 C6016.84721,5079.68915 6014.69483,5081.19604 6012.62471,5082.81253 C6012.00778,5083.30569 6011.66505,5084.03174 6012.04891,5084.6756 C6013.39244,5087.03183 6012.24084,5089.31958 6012.04891,5091.63471 C6011.96666,5092.48405 6011.47312,5093.36079 6012.29568,5094.10054 C6012.22713,5094.34712 6012.18601,5094.59371 6012.11746,5094.82659 C6010.41749,5093.63477 6010.22556,5090.66208 6007.01755,5090.47029 C6008.4022,5092.51145 6009.86911,5093.92245 6011.51424,5095.10057 C6011.34973,5095.14167 6011.18522,5095.18277 6011.00699,5095.36085 C6010.41749,5095.92251 6010.12959,5096.63487 6009.96508,5097.41571 C6009.33444,5098.27875 6010.1433,5099.0596 6010.15701,5099.89524 C6010.18443,5100.11442 6010.40378,5100.23771 6010.47233,5100.4569 C6009.67718,5100.84047 6008.88203,5101.23774 6008.01834,5101.52542 L6003.00069,5100.4706 C6002.46602,5099.56646 6001.50636,5099.51166 6000.61524,5099.33358 C5999.80639,5098.08696 5997.87336,5098.85411 5997.16047,5097.41571 C5996.79031,5096.1006 5995.7484,5095.41565 5994.35003,5094.08684 C5995.0218,5096.128 5995.65243,5097.29242 5997.10563,5097.85408 C5996.28306,5099.41577 5996.81773,5100.16922 5998.50399,5100.36101 C5999.21688,5100.4432 5999.91606,5100.66238 6000.62895,5100.82677 C6001.08136,5101.22405 6001.54749,5101.62132 6002.01361,5102.03229 C6001.8628,5102.77204 6001.68458,5103.53918 6001.50636,5104.30633 C6001.24588,5104.731 6000.9854,5105.16937 6000.72492,5105.60774 C6000.16283,5105.32006 5999.54591,5105.23787 5998.90156,5105.33376 C5998.64109,5105.16937 5998.39432,5104.97758 5998.079,5104.93649 C5997.74997,5104.59401 5997.39353,5104.26523 5997.0645,5103.93646 C5996.7766,5103.3337 5996.24193,5103.05972 5995.63872,5102.90903 C5994.50084,5102.05969 5993.39037,5102.23777 5992.75974,5103.40219 C5992.36217,5104.11454 5992.21136,5105.21047 5993.5823,5105.44335 C5994.47342,5106.1146 5995.47421,5106.41598 5996.57096,5106.45708 C5996.73547,5106.63517 5996.88628,5106.81326 5997.05079,5107.00504 C5996.7766,5107.53931 5996.37903,5108.03247 5996.11855,5108.59413 C5995.48792,5108.15576 5994.80244,5107.79959 5994.13068,5107.38862 C5993.47263,5106.62147 5992.63635,5106.26529 5991.63557,5106.32009 C5991.34767,5105.34746 5990.44284,5105.05978 5989.71624,5104.56661 C5989.3598,5104.36113 5989.00335,5104.14194 5988.66062,5103.92276 C5988.07111,5103.32 5987.13887,5103.11451 5986.83726,5103.79947 C5986.28889,5104.99128 5987.65983,5104.55291 5988.15337,5104.92279 C5988.16708,5105.33376 5988.08482,5105.82692 5988.72917,5105.82692 L5988.74287,5105.82692 C5989.23641,5106.33379 5989.72995,5106.85435 5990.2372,5107.37492 C5990.74445,5108.47084 5991.62186,5109.21059 5992.5541,5109.90924 C5992.71861,5109.75855 5992.88312,5109.62156 5993.04764,5109.48457 L5993.06135,5109.48457 C5992.842,5109.58046 5992.60893,5109.62156 5992.5541,5109.90924 C5993.07506,5111.47093 5993.93875,5112.97783 5993.51376,5114.7313 C5991.86863,5117.49851 5991.44363,5117.55331 5988.68804,5115.29296 C5988.50981,5115.12858 5988.3453,5114.96419 5988.1945,5114.7998 C5987.71467,5114.29293 5987.24855,5113.77237 5986.79613,5113.25181 C5986.72759,5112.55316 5986.41227,5112.05999 5985.7268,5111.82711 C5984.39698,5110.95037 5982.86153,5110.66269 5981.38091,5110.16952 C5981.91558,5107.73109 5981.55913,5107.47081 5978.8995,5108.08727 C5979.48901,5108.56673 5979.69465,5109.15579 5979.88658,5109.74485 C5978.41967,5109.19689 5976.8705,5109.56676 5975.36247,5109.48457 C5975.00602,5109.27908 5974.63587,5109.0599 5974.27942,5108.86811 C5973.78588,5107.79959 5972.81251,5107.32012 5971.7843,5106.92285 C5971.0577,5106.42968 5970.48191,5105.48445 5969.34403,5105.96392 C5969.00129,5105.22417 5968.34324,5104.86799 5967.69889,5104.47072 C5967.86341,5103.14191 5966.50617,5103.44329 5965.9578,5102.86793 C5965.35458,5102.27887 5964.97072,5101.29254 5963.84654,5101.58022 C5963.66832,5101.62132 5963.47639,5101.9227 5963.44897,5102.12818 C5963.353,5103.05972 5964.01106,5103.3611 5964.77878,5103.55288 C5965.45055,5104.00495 5966.13602,5104.47072 5966.8352,5104.93649 C5967.24648,5106.08721 5968.24727,5106.2516 5969.27548,5106.44338 L5969.27548,5106.42968 C5970.48191,5107.36122 5969.46741,5109.47087 5971.20851,5110.11473 L5971.13996,5110.29281 C5971.29077,5111.25175 5972.05849,5110.85447 5972.57945,5110.96407 C5973.60766,5111.16955 5974.62216,5111.36134 5975.65037,5111.56682 L5976.25358,5111.923 C5976.30842,5113.2929 5977.37775,5112.77234 5978.09064,5112.93673 C5978.35112,5112.82714 5978.35112,5112.56685 5978.4608,5112.37507 C5978.31,5112.53946 5978.09064,5112.66275 5978.09064,5112.93673 C5978.78983,5113.60798 5979.46159,5114.30663 5980.31157,5114.7724 C5980.22932,5116.53958 5980.31157,5118.29306 5980.46238,5120.04653 C5980.32528,5120.19722 5980.21561,5120.38901 5980.07851,5120.73149 C5979.14627,5121.33424 5978.99547,5121.88221 5980.21561,5122.27948 C5980.3527,5122.30688 5980.4898,5122.32058 5980.61318,5122.29318 C5980.76398,5122.73155 5980.83253,5123.30691 5981.49058,5123.10142 C5981.518,5123.10142 5981.53171,5123.06032 5981.55913,5123.04662 C5981.60026,5123.04662 5981.60026,5123.08772 5981.6551,5123.07402 C5982.21718,5122.93703 5982.23089,5122.51236 5982.21718,5122.08769 C5982.23089,5121.9781 5982.27202,5121.88221 5982.29944,5121.77261 C5982.84782,5121.19725 5982.55992,5120.99177 5982.0938,5120.86848 C5981.97041,5119.0328 5981.84703,5117.21083 5981.42204,5115.42996 L5982.10751,5115.99162 L5983.56071,5117.84099 L5983.71151,5118.23826 C5982.58734,5119.23829 5983.50587,5119.99174 5983.99941,5120.79998 C5983.93086,5121.11506 5983.80748,5121.45754 5983.84861,5121.77261 C5984.19134,5122.0192 5984.35586,5122.36167 5984.61633,5122.67675 C5984.5615,5122.19728 5984.39698,5121.82741 5983.84861,5121.77261 C5983.90344,5122.34797 5983.97199,5122.90963 5984.02683,5123.48499 C5983.17684,5123.60829 5982.71072,5123.85487 5982.64218,5124.16995 C5981.16156,5124.33433 5979.69465,5124.27954 5978.31,5123.70418 C5977.43259,5123.3754 5977.21324,5122.64935 5977.07615,5121.84111 C5977.70678,5119.85475 5975.91084,5119.85475 5974.56732,5118.64923 C5974.92377,5120.33421 5975.73262,5121.01917 5976.32213,5121.81371 C5976.11649,5122.95073 5975.48585,5124.04665 5975.8423,5125.26587 C5974.81409,5126.41659 5975.7052,5127.88239 5975.21166,5129.1153 L5975.21166,5129.129 C5974.70441,5129.1427 5974.21087,5129.1564 5973.70363,5129.1701 C5973.07299,5128.78652 5972.26414,5128.27966 5971.74318,5129.01941 C5971.1948,5129.77286 5971.93511,5130.14273 5972.62058,5130.30712 C5973.29234,5130.70439 5974.03265,5130.97837 5973.75846,5132.0195 C5973.41573,5133.23871 5972.40123,5132.40307 5971.7843,5132.75925 C5971.61979,5132.75925 5971.45528,5132.74555 5971.27706,5132.74555 C5969.87869,5132.34828 5968.45291,5132.55376 5967.05455,5132.59486 C5966.16344,5132.25238 5965.28603,5131.89621 5964.38121,5131.55373 C5963.62719,5130.34822 5962.25625,5130.25232 5961.07724,5129.88245 C5960.70708,5129.75916 5960.98127,5130.34822 5961.00869,5130.6222 C5960.84418,5131.36195 5960.21354,5131.06057 5959.76113,5131.18386 L5958.44503,5130.66329 C5958.03374,5130.38931 5957.64988,5130.07423 5957.22489,5129.88245 C5956.70393,5129.64956 5956.10071,5129.47148 5955.6483,5129.96464 C5955.47008,5130.15643 5955.40153,5130.5948 5955.51121,5130.82768 C5955.75798,5131.38934 5956.30635,5131.64963 5956.89586,5131.56743 C5957.27972,5131.51263 5957.60875,5131.25235 5957.95149,5131.07427 C5958.78776,5131.84141 5959.5692,5132.70445 5960.81676,5132.70445 C5960.99498,5132.86884 5961.15949,5133.03323 5961.33772,5133.19762 C5961.36514,5133.17022 5961.39255,5133.14282 5961.41997,5133.10172 L5961.41997,5133.21132 L5961.33772,5133.19762 C5961.80384,5133.88257 5962.14657,5134.71821 5963.18849,5134.71821 C5963.22962,5134.8826 5963.28446,5135.06069 5963.32558,5135.22508 C5963.54494,5135.71824 5963.59977,5136.2662 5963.6409,5136.81417 C5963.61348,5136.80047 5963.58606,5136.78677 5963.54494,5136.77307 C5963.18849,5136.81417 5963.0514,5137.00595 5963.10623,5137.36213 C5963.31187,5137.48542 5963.51752,5137.60871 5963.72316,5137.7457 C5963.83283,5138.80053 5964.14815,5139.80056 5965.57393,5140.32112 C5965.88925,5140.43071 5965.87554,5140.69099 5965.76586,5140.97867 C5965.31345,5141.01977 5964.86104,5141.22526 5964.42234,5141.34855 C5964.10702,5141.34855 5963.81912,5141.28005 5963.46268,5141.34855 C5962.35221,5140.6225 5961.24175,5140.45811 5960.17241,5141.28005 C5958.41761,5141.04717 5956.63538,5141.70472 5954.88057,5141.60883 C5953.82495,5141.56773 5952.90641,5142.14309 5953.00238,5143.34861 C5953.0298,5143.73218 5953.26286,5143.88287 5953.39995,5144.12946 C5953.27657,5144.23905 5953.12577,5144.32124 5952.98867,5144.43083 C5952.98867,5144.43083 5952.98867,5144.43083 5952.97496,5144.43083 C5952.93383,5144.29384 5952.879,5144.14315 5952.879,5144.00616 C5953.00238,5143.03353 5952.39917,5142.12939 5951.65886,5142.29378 C5950.52097,5142.55407 5950.82258,5143.64999 5951.17903,5144.49933 C5951.34354,5144.8692 5951.48063,5145.28018 5951.71369,5145.56786 C5950.80887,5146.4172 5950.49355,5147.14325 5950.61694,5148.00629 C5950.49355,5148.06108 5950.37017,5148.04738 5950.24678,5148.11588 C5949.91776,5148.28027 5949.57502,5148.40356 5949.246,5148.58165 C5950.47984,5145.01989 5948.99923,5141.60883 5945.21542,5139.97864 L5945.20171,5139.97864 L5945.188,5139.96495 L5945.188,5139.97864 C5944.35173,5139.70466 5943.52916,5139.30739 5942.66547,5139.1704 C5939.27924,5138.58134 5937.15428,5140.75949 5938.12764,5144.08836 C5938.74457,5146.18431 5939.74536,5148.25287 5940.95179,5150.06114 C5941.58242,5150.99268 5942.7066,5151.40365 5943.89932,5151.56804 C5943.07675,5152.54067 5942.51466,5153.74619 5942.47354,5155.0202 C5942.51466,5155.22568 5942.7066,5155.23938 5942.8574,5155.26678 L5942.78885,5155.33527 L5942.47354,5155.0202 C5941.98,5155.37637 5941.58242,5155.78734 5941.65097,5156.4449 C5941.59613,5156.54079 5941.54129,5156.62298 5941.48646,5156.71888 C5941.32194,5156.82847 5941.21227,5157.02026 5941.10259,5157.18465 C5941.02034,5157.28054 5940.92437,5157.37643 5940.8284,5157.45863 C5940.33486,5157.11615 5939.88245,5156.75998 5939.38891,5156.4449 C5938.16877,5155.40377 5937.96313,5153.39001 5936.07123,5152.99274 C5934.76883,5152.93794 5934.68658,5153.4859 5935.33092,5154.40374 C5936.35913,5155.41747 5937.37363,5156.4175 5938.41554,5157.44493 C5938.45667,5158.33537 5939.0736,5158.71894 5939.67681,5159.11621 C5939.67681,5159.12991 5939.6631,5159.12991 5939.6631,5159.14361 C5939.52601,5159.2395 5939.45746,5159.34909 5939.45746,5159.51348 C5938.9365,5159.73267 5938.41554,5159.92445 5937.89458,5160.14364 C5936.90751,5159.97925 5935.94785,5159.99295 5935.00189,5160.34912 C5932.67129,5161.21216 5930.09392,5158.47236 5927.32461,5160.93818 C5929.94311,5161.43135 5932.1092,5161.39025 5934.24788,5161.03408 C5934.15191,5161.18477 5934.05594,5161.33546 5934.05594,5161.62314 C5934.02852,5162.49988 5934.37126,5163.25332 5934.83738,5163.95197 C5935.0156,5165.10269 5936.22203,5165.0616 5936.85267,5165.67805 C5937.0446,5165.82874 5937.30508,5165.77395 5937.49701,5165.88354 C5937.30508,5166.5137 5937.07202,5167.14385 5936.78412,5167.76031 C5936.71557,5167.80141 5936.63332,5167.8151 5936.56477,5167.8425 C5936.00268,5167.9384 5935.41318,5167.96579 5935.13899,5168.60965 C5935.45431,5168.66445 5935.7422,5168.71924 5936.05752,5168.77404 L5936.12607,5168.77404 C5934.70029,5169.70557 5933.30192,5170.63711 5931.87614,5171.55494 C5930.77939,5171.28096 5930.01166,5171.95222 5929.2028,5172.50018 C5927.72218,5172.1851 5926.83107,5173.91118 5925.37787,5173.6646 C5925.37787,5173.6646 5925.36416,5173.6509 5925.36416,5173.6509 C5925.35045,5173.6509 5925.35045,5173.6646 5925.35045,5173.6646 C5925.2682,5173.6509 5925.19965,5173.692 5925.11739,5173.6646 C5923.85612,5172.95225 5922.54002,5173.21253 5920.46989,5173.26732 C5922.32067,5174.19886 5923.62306,5174.51394 5924.9803,5174.08927 C5924.65127,5174.29475 5924.21257,5174.43174 5924.23999,5174.92491 C5924.29483,5175.73315 5924.77466,5176.29481 5925.65206,5176.32221 C5926.31011,5176.33591 5926.81736,5175.97974 5926.89962,5175.43177 C5927.33832,5175.41807 5927.79073,5175.33588 5928.38024,5174.87011 C5928.98345,5174.39065 5929.68263,5174.04817 5930.34069,5173.6235 C5930.99874,5173.5687 5931.65679,5173.52761 5932.30114,5173.47281 C5932.75355,5174.17146 5933.20596,5174.88381 5933.64466,5175.58246 L5934.12449,5177.54143 C5933.46644,5178.39077 5932.30114,5178.06199 5931.53341,5178.66475 C5931.02616,5178.66475 5930.51891,5178.67845 5929.99795,5178.67845 C5929.32619,5178.43186 5928.72297,5178.62365 5928.13347,5178.97983 C5926.61172,5179.19901 5925.93996,5180.15794 5926.33753,5181.52785 C5926.57059,5182.36349 5927.28348,5183.32242 5928.50362,5182.45938 C5929.68263,5182.2813 5930.66971,5181.76073 5931.53341,5180.95249 C5932.21888,5180.99359 5932.89064,5181.06208 5933.57611,5181.07578 C5935.48172,5181.08948 5934.8648,5181.91142 5934.15191,5182.76076 L5934.1382,5182.74706 C5934.1382,5182.76076 5934.1382,5182.77446 5934.12449,5182.77446 C5932.80838,5182.65117 5931.64308,5183.21283 5930.40923,5183.51421 C5929.31248,5183.41832 5928.40766,5183.80189 5927.68106,5184.59644 C5926.73511,5184.07587 5925.83028,5184.54164 5924.91175,5184.71973 L5924.91175,5184.73343 L5924.91175,5184.71973 C5924.48676,5184.82932 5924.04806,5184.93891 5923.62306,5185.02111 C5922.70453,5185.00741 5921.86826,5185.55537 5922.14245,5186.30882 C5922.62228,5187.63762 5923.34888,5186.26772 5923.99322,5186.17183 C5924.30854,5186.4732 5924.62385,5186.91157 5925.11739,5186.41841 C5925.89883,5186.43211 5926.65285,5186.44581 5927.43429,5186.45951 C5928.64072,5186.88418 5929.87457,5186.78828 5931.10841,5186.62389 C5932.69871,5187.40474 5934.49465,5187.87051 5935.49543,5189.52809 C5936.34542,5192.88436 5936.07123,5193.24053 5932.2463,5193.62411 C5932.01324,5193.62411 5931.75276,5193.63781 5931.5197,5193.63781 C5930.76568,5193.59671 5930.02537,5193.55561 5929.28506,5193.51451 C5929.10684,5193.51451 5929.12055,5193.6652 5929.06571,5193.7748 C5929.14797,5193.6926 5929.21651,5193.59671 5929.28506,5193.51451 C5928.70926,5193.02135 5928.09234,5192.89806 5927.39316,5193.24053 C5925.72061,5193.56931 5924.32225,5194.52824 5922.84163,5195.25429 C5921.38843,5193.02135 5920.92231,5193.08984 5919.38685,5195.56937 C5920.19571,5195.50088 5920.81263,5195.78856 5921.38843,5196.08993 C5919.86668,5196.78859 5918.96186,5198.21329 5917.75543,5199.29551 C5917.33043,5199.4188 5916.89173,5199.54209 5916.48045,5199.66538 C5915.28773,5199.22702 5914.19097,5199.61059 5913.12164,5200.07636 C5912.17569,5200.26814 5911.02409,5199.96676 5910.53055,5201.19968 C5909.7217,5200.8983 5908.94026,5201.13118 5908.15882,5201.30927 C5907.254,5200.18595 5906.47256,5201.43256 5905.62258,5201.41886 C5904.71775,5201.44626 5903.67584,5200.96679 5903.0452,5202.03532 C5902.94924,5202.19971 5903.01779,5202.59698 5903.14117,5202.74767 C5903.78551,5203.54221 5904.51211,5203.26823 5905.23871,5202.84356 C5906.10241,5202.66548 5906.97981,5202.50109 5907.84351,5202.323 C5909.02252,5202.88466 5909.94105,5202.24081 5910.83216,5201.61065 C5912.44988,5201.40516 5913.28615,5203.7614 5915.0958,5202.92576 L5915.17805,5203.13124 L5915.17805,5203.11754 C5916.00062,5203.734 5916.28852,5202.85726 5916.78206,5202.54218 C5917.70059,5201.91203 5918.63283,5201.29557 5919.56507,5200.66542 C5919.79813,5200.61062 5920.0449,5200.54212 5920.29167,5200.48733 C5921.37472,5201.48736 5921.786,5200.26814 5922.44405,5199.85717 C5922.55373,5199.59689 5922.3618,5199.3914 5922.29325,5199.17222 C5922.32067,5199.4051 5922.23841,5199.66538 5922.44405,5199.85717 C5923.48597,5199.84347 5924.52789,5199.87087 5925.52868,5199.58319 C5926.8722,5201.03529 5928.31169,5202.39149 5929.86086,5203.65181 C5929.86086,5203.85729 5929.68263,5203.87099 5929.86086,5204.26826 C5929.6278,5205.43268 5929.91569,5205.95325 5931.14954,5205.33679 C5931.27293,5205.2546 5931.36889,5205.1587 5931.46486,5205.03541 C5931.90356,5205.28199 5932.38339,5205.62447 5932.73984,5204.98061 C5932.75355,5204.95322 5932.73984,5204.93952 5932.75355,5204.89842 C5932.78097,5204.85732 5932.80838,5204.89842 5932.8358,5204.84362 C5933.16483,5204.32306 5932.8358,5203.98058 5932.50678,5203.67921 C5932.45194,5203.58331 5932.3971,5203.47372 5932.34226,5203.37783 C5932.31485,5202.52849 5931.94469,5202.56958 5931.49228,5202.82986 C5930.01166,5201.54215 5928.53104,5200.26814 5926.8722,5199.22702 C5927.17381,5199.19962 5927.50283,5199.17222 5927.81815,5199.14482 C5928.65443,5199.22702 5929.47699,5199.33661 5930.31327,5199.4462 C5930.46407,5199.501 5930.58746,5199.56949 5930.72455,5199.62429 L5930.72455,5199.63799 C5930.62858,5201.22708 5931.90356,5201.10378 5932.87693,5201.35037 C5933.08257,5201.63805 5933.24709,5201.98052 5933.50757,5202.19971 C5934.04223,5202.63808 5934.56319,5203.06275 5935.09786,5203.48742 C5935.00189,5203.85729 5934.90593,5204.24087 5934.80996,5204.61074 C5933.76805,5206.06284 5932.42452,5207.17246 5930.77939,5207.85741 C5929.87457,5208.26839 5929.14797,5207.88481 5928.43508,5207.37795 C5927.39316,5205.40528 5926.03592,5206.74779 5924.1166,5206.85738 C5925.65206,5207.87111 5926.78994,5207.77522 5927.84557,5207.92591 C5928.54475,5208.95334 5928.88749,5210.25475 5930.09392,5210.9123 C5930.18988,5212.56989 5931.98582,5212.99456 5932.54791,5214.30966 L5932.56161,5214.30966 L5932.54791,5214.30966 C5932.19146,5214.69324 5931.8076,5215.10421 5931.45115,5215.48778 C5930.656,5215.67957 5929.68263,5215.88505 5929.83344,5216.87139 C5929.99795,5217.84402 5930.82052,5217.54264 5931.47857,5217.17276 C5932.26001,5216.95358 5933.05515,5216.6111 5933.64466,5217.61113 C5934.31642,5218.77555 5932.89064,5218.92624 5932.71242,5219.66599 C5932.57532,5219.77558 5932.43823,5219.89887 5932.30114,5220.03587 C5930.9439,5220.80301 5930.02537,5222.03593 5928.99716,5223.13185 C5928.06492,5223.54282 5927.11897,5223.94009 5926.18673,5224.35106 C5924.6924,5224.02229 5923.59565,5224.98122 5922.41663,5225.58398 C5922.03277,5225.77577 5922.69082,5226.02235 5922.91017,5226.20044 L5922.92388,5226.20044 C5923.36258,5226.88539 5922.63598,5227.14567 5922.40292,5227.57034 L5920.99085,5228.1731 C5920.4836,5228.28269 5919.94894,5228.32379 5919.48282,5228.50188 C5918.92073,5228.73476 5918.31751,5229.04984 5918.34493,5229.77589 C5918.35864,5230.04987 5918.64654,5230.43344 5918.90702,5230.52933 C5919.52394,5230.76222 5920.14087,5230.55673 5920.52473,5230.03617 C5920.7715,5229.70739 5920.81263,5229.25532 5920.93602,5228.85805 C5922.15615,5228.81695 5923.39,5228.88545 5924.34966,5227.91282 L5925.11739,5227.91282 C5925.98109,5228.0772 5926.89962,5228.44708 5927.66735,5227.65253 C5927.83186,5227.74843 5927.99637,5227.83062 5928.1746,5227.92652 C5929.98424,5228.67996 5931.05358,5231.33758 5933.72692,5230.07727 C5934.27529,5229.83068 5934.46723,5230.62523 5934.60432,5231.11839 L5934.49465,5231.18689 L5934.54948,5231.31018 C5934.30271,5232.07733 5934.04223,5232.84447 5933.80917,5233.59792 C5933.28821,5234.57055 5932.76726,5235.51579 5932.23259,5236.46102 C5931.28664,5237.57064 5930.82052,5238.87205 5930.656,5240.31045 C5930.5052,5240.50224 5930.27214,5240.68033 5930.17617,5240.91321 C5929.87457,5241.68036 5928.96974,5242.29681 5929.50441,5243.26945 C5929.60038,5243.44753 5930.02537,5243.63932 5930.13505,5243.55713 C5930.84794,5243.07766 5930.77939,5242.18722 5931.09471,5241.47487 C5931.25922,5241.0776 5931.34148,5240.65293 5931.47857,5240.24196 C5932.61645,5239.13233 5932.90435,5237.58434 5933.46644,5236.18704 L5934.43981,5234.13218 C5934.31642,5234.07739 5934.22046,5233.99519 5934.1382,5233.8856 C5934.15191,5233.8582 5934.16562,5233.8308 5934.17933,5233.8171 C5934.22046,5233.96779 5934.24788,5234.10478 5934.43981,5234.13218 C5935.09786,5233.54312 5935.61882,5233.39243 5935.63253,5234.57055 C5935.39947,5235.83086 5935.18012,5237.10488 5934.96077,5238.37889 C5935.00189,5238.59807 5935.18012,5238.58437 5935.31721,5238.63917 C5935.28979,5238.66657 5935.26237,5238.68027 5935.24866,5238.70766 C5935.1527,5238.59807 5935.07044,5238.48848 5934.96077,5238.37889 C5933.9874,5239.99537 5932.61645,5241.37898 5932.19146,5243.28315 C5931.6705,5244.26948 5930.47778,5244.68045 5930.10763,5245.98186 C5932.30114,5246.20104 5931.72534,5243.81741 5932.90435,5243.21465 C5933.43902,5242.516 5933.49386,5241.31048 5934.79625,5241.42008 C5934.52206,5241.77625 5934.22046,5242.11873 5934.17933,5242.58449 C5933.58982,5243.21465 5933.04145,5243.9544 5933.45273,5245.02292 C5933.54869,5247.39286 5932.49307,5249.43402 5931.65679,5251.54367 C5930.61488,5252.26972 5930.32698,5253.39304 5930.09392,5254.54376 C5930.29956,5255.76298 5930.49149,5256.99589 5930.66971,5258.2288 C5930.38181,5258.40689 5930.10763,5258.59868 5929.80602,5258.76307 C5927.13268,5260.24256 5926.99558,5261.69466 5929.35361,5263.44814 C5929.7786,5263.74952 5930.10763,5264.18789 5930.49149,5264.55776 C5930.5052,5264.72215 5930.56004,5264.85914 5930.69713,5264.96873 C5930.77939,5265.57149 5930.86165,5266.17425 5930.93019,5266.77701 C5930.95761,5268.3387 5932.06808,5269.25654 5933.04145,5270.24287 C5933.15112,5270.69493 5933.2608,5271.147 5933.35676,5271.59907 C5933.09628,5272.02374 5932.73984,5272.40732 5932.63016,5272.91418 C5932.26001,5273.42104 5931.84872,5273.90051 5932.13662,5274.57176 L5932.93177,5274.0101 C5933.19225,5273.74982 5933.46644,5273.50324 5933.74063,5273.25666 C5933.72692,5275.14712 5934.70029,5276.28415 5936.48251,5276.81841 C5936.8938,5278.17461 5937.74378,5277.88693 5938.63489,5277.38007 C5939.97842,5277.90063 5939.25182,5279.20204 5939.67681,5280.07878 C5940.48567,5281.85966 5941.8429,5282.14734 5943.54287,5281.50348 C5945.10575,5281.2158 5946.14766,5279.29794 5948.05328,5280.07878 C5950.01372,5280.14728 5952.00159,5280.21577 5953.96204,5280.28427 C5954.83944,5279.66781 5955.84023,5279.44862 5956.85473,5279.25684 C5956.58054,5279.70891 5956.44345,5280.21577 5956.47087,5280.79113 C5957.06037,5280.46235 5957.15634,5279.7911 5957.33456,5279.17464 C5958.12971,5279.05135 5958.92486,5278.91436 5959.67887,5278.66778 C5960.4466,5280.46235 5962.25625,5281.79116 5964.28524,5281.88705 C5964.29895,5281.88705 5964.31266,5281.87336 5964.32637,5281.87336 L5964.32637,5281.95555 C5964.05218,5282.94188 5964.24412,5284.0515 5963.55864,5284.92824 C5961.28288,5287.21598 5961.26917,5287.47627 5963.51752,5288.09272 C5963.9288,5288.4626 5964.39492,5288.75028 5964.98443,5288.66808 C5965.16265,5288.95576 5965.34087,5289.24344 5965.50538,5289.51742 C5965.382,5289.8051 5965.36829,5290.03799 5965.6699,5290.20238 C5965.93038,5290.94212 5966.16344,5291.68187 5966.41021,5292.39422 C5966.72552,5294.81895 5967.49325,5297.093 5968.56259,5299.25744 C5968.80936,5299.76431 5969.04242,5300.46296 5969.87869,5300.32597 C5970.55046,5300.86023 5971.07141,5301.87396 5972.19559,5301.18901 C5974.66329,5302.88769 5977.47372,5303.36716 5980.42125,5303.33976 L5981.79219,5303.54525 C5982.9712,5303.72333 5982.91637,5304.38089 5982.3817,5305.17543 C5981.98412,5305.75079 5981.518,5306.28505 5981.84703,5307.0659 C5980.87366,5309.14816 5979.21482,5309.02486 5977.40517,5308.42211 C5977.06244,5308.10703 5976.73341,5307.77825 5976.37697,5307.46317 C5976.63744,5307.107 5976.78825,5306.79192 5976.61003,5306.29875 C5975.58182,5303.62744 5973.16896,5303.06578 5970.85206,5302.96989 C5968.80936,5302.87399 5967.15052,5304.2028 5966.21827,5306.09327 C5964.87475,5308.80568 5965.54651,5310.09339 5968.34324,5311.01123 C5971.56495,5312.06605 5974.51248,5311.47699 5977.46001,5310.14819 C5979.43417,5310.27148 5981.27123,5310.69615 5982.60105,5312.31263 C5982.49137,5313.07978 5982.16235,5313.83323 5982.61476,5314.57298 L5981.55913,5315.6415 C5980.42125,5315.81959 5978.40596,5314.44969 5978.31,5316.23056 C5978.20032,5318.23062 5980.36641,5317.0799 5981.55913,5317.31279 C5982.01154,5317.35388 5982.47766,5317.39498 5982.93007,5317.43608 C5983.9857,5318.13473 5983.24539,5319.09366 5983.27281,5319.9156 C5983.53329,5320.07999 5983.82119,5320.07999 5984.10909,5320.12109 C5983.84861,5319.9841 5983.61555,5319.77861 5983.27281,5319.9156 C5983.02604,5320.64165 5983.14943,5321.24441 5983.84861,5321.65538 C5984.09538,5322.05266 5984.45182,5322.21704 5984.90423,5322.12115 C5985.93244,5322.55952 5986.85097,5323.27187 5988.0574,5323.12118 C5988.98964,5323.06639 5989.92189,5323.01159 5990.88155,5322.94309 C5991.93717,5323.08008 5992.7049,5323.58695 5992.81458,5324.75137 C5992.66377,5325.62811 5992.18394,5326.79253 5993.92504,5326.02538 C5994.50084,5329.01177 5996.3379,5329.84741 5999.12092,5329.03917 C6000.39589,5329.06657 6000.80718,5328.01174 6001.43781,5327.2035 C6002.09586,5326.80622 6002.65795,5325.60071 6003.34342,5325.98428 C6005.56435,5327.2172 6007.63447,5325.43632 6009.75944,5325.91579 C6010.62313,5325.98428 6011.51424,5326.06648 6012.37794,5326.14867 C6013.18679,5326.47745 6014.02307,5326.69663 6014.76338,5327.1076 C6016.28513,5327.94325 6016.66899,5327.23089 6016.62786,5325.86099 C6017.38188,5325.18974 6017.83429,5323.94312 6018.95847,5323.97052 C6020.87779,5324.01162 6022.38582,5323.03899 6023.97612,5322.23074 C6025.114,5322.29924 6025.86802,5321.60059 6026.63575,5320.92933 C6030.39213,5321.51839 6033.25741,5319.60053 6036.12268,5317.65526 C6036.60251,5315.18943 6038.90569,5315.51821 6040.5097,5314.75106 C6040.92098,5314.81956 6041.34597,5314.88806 6041.78467,5314.94285 L6041.78467,5314.95655 C6042.57982,5315.03874 6043.22416,5314.60038 6043.92335,5314.3127 C6046.10315,5313.38116 6048.28295,5312.21674 6050.76435,5313.38116 C6050.99741,5313.66884 6051.21676,5313.95652 6051.44982,5314.2442 C6051.61434,5315.6689 6051.46353,5317.20319 6052.65625,5318.32652 C6052.75222,5318.72379 6052.83448,5319.12106 6052.94415,5319.53203 C6052.95786,5319.68272 6053.05383,5319.77861 6053.20463,5319.83341 C6052.40948,5320.44987 6052.40948,5321.34031 6052.36836,5322.20335 C6052.21755,5322.25814 6052.19013,5322.35403 6052.21755,5322.49103 C6051.87482,5322.8746 6051.53208,5323.25817 6051.16193,5323.65544 C6050.72322,5323.97052 6049.85953,5323.90203 6049.92808,5324.69657 C6050.02404,5325.57331 6050.87403,5325.13494 6051.36757,5325.24453 C6051.73772,5325.31303 6052.16272,5325.09384 6052.56029,5325.01165 C6052.71109,5324.97055 6052.84819,5324.90206 6052.95786,5324.79246 C6053.34173,5324.88836 6053.7393,5324.99795 6054.10945,5325.09384 C6052.66996,5327.51857 6054.63041,5328.6556 6055.96023,5330.0255 C6055.83684,5330.50497 6056.05619,5330.83374 6056.42635,5331.09403 C6056.50861,5332.09406 6057.18037,5332.79271 6057.60536,5333.64205 C6057.9481,5335.46402 6059.48355,5335.8339 6060.90933,5336.31336 C6064.69314,5336.86132 6068.36727,5337.39559 6072.00027,5338.87508 C6072.76799,5339.19016 6073.60427,5339.45044 6074.42684,5339.62853 C6074.64619,5340.0532 6075.04376,5340.16279 6075.70181,5339.69703 C6077.52517,5339.75182 6079.27998,5339.12167 6080.51382,5336.79283 C6080.92511,5335.97089 6082.00815,5336.01198 6082.88556,5335.86129 C6085.64115,5335.38183 6088.83545,5337.02571 6091.11122,5333.92973 C6091.5225,5333.38177 6093.16763,5332.97079 6094.2781,5333.68315 C6094.8676,5334.06672 6095.34743,5333.66945 6095.7313,5333.49136 C6098.13045,5332.38174 6100.28283,5330.87484 6102.36666,5329.25835 C6102.98359,5328.77889 6103.31261,5328.03914 6102.94246,5327.39528 C6102.40779,5326.45005 6102.31182,5325.50482 6102.35295,5324.58698 C6102.32553,5325.05275 6102.7094,5325.36782 6103.06584,5325.34043 C6103.436,5325.31303 6103.79244,5324.99795 6103.83357,5324.51848 C6103.84728,5324.09381 6103.73761,5323.73764 6103.25777,5323.62805 C6102.72311,5323.71024 6102.40779,5324.03902 6102.35295,5324.54588 C6102.4215,5323.17598 6102.83278,5321.80607 6102.95617,5320.43617 C6103.02471,5319.58683 6103.53196,5318.72379 6102.69569,5317.97034 C6102.81907,5317.44978 6102.94246,5316.92921 6103.06584,5316.42235 C6103.86099,5316.21686 6104.71097,5316.07987 6105.31419,5315.51821 C6105.39645,5315.35382 6105.30048,5315.23053 6105.23193,5315.09354 L6105.31419,5315.09354 L6105.31419,5315.51821 C6105.87628,5315.6141 6106.39724,5315.60041 6106.79481,5315.12094 C6106.95932,5315.09354 6107.11013,5315.03874 6107.27464,5314.99765 C6107.5077,5314.92915 6107.75447,5314.98395 6108.00124,5314.99765 C6108.11091,5315.54561 6108.16575,5316.07987 6108.28914,5316.61413 C6108.39881,5318.10733 6107.19238,5319.57313 6108.19317,5321.08002 C6109.00203,5321.97046 6109.42702,5321.66908 6109.61895,5320.62796 C6109.60524,5319.28545 6109.59153,5317.94294 6109.57782,5316.60044 C6110.15362,5315.98398 6110.00282,5315.31273 6109.86572,5314.65517 C6109.87943,5314.64147 6109.87943,5314.65517 6109.87943,5314.64147 C6110.03024,5314.68257 6110.16733,5314.64147 6110.277,5314.53188 C6110.75684,5314.75106 6111.23667,5314.95655 6111.7165,5315.16204 C6112.25116,5315.91548 6112.89551,5316.54564 6113.7592,5316.92921 C6115.87045,5317.90185 6115.74707,5321.3951 6119.20185,5321.60059 C6117.81719,5319.55943 6116.35028,5318.14843 6114.70515,5316.97031 C6114.86967,5316.92921 6115.02047,5316.88812 6115.2124,5316.71003 C6115.80191,5316.14837 6116.0898,5315.43602 6116.24061,5314.65517 C6116.88495,5313.79213 6116.0761,5313.01129 6116.06239,5312.18934 C6116.03497,5311.97016 6115.81562,5311.83317 6115.74707,5311.62768 C6116.54222,5311.23041 6117.32365,5310.83314 6118.20106,5310.54546 L6123.21871,5311.60028 C6123.75338,5312.50442 6124.71304,5312.55922 6125.60415,5312.7373 C6126.41301,5313.98392 6128.34604,5313.23047 6129.07264,5314.65517 C6129.41537,5315.97028 6130.45729,5316.65523 6131.86936,5317.98404 C6131.1976,5315.94288 6130.55326,5314.77846 6129.11377,5314.2168 C6129.92262,5312.65511 6129.38796,5311.90166 6127.7017,5311.70988 C6127.00251,5311.64138 6126.30333,5311.4085 6125.60415,5311.24411 L6124.19208,5310.03859 C6124.3703,5309.29884 6124.53482,5308.5317 6124.71304,5307.76455 C6125.04207,5307.23029 6125.35738,5306.69603 6125.68641,5306.14806 C6126.67349,5306.03847 6127.23557,5307.0248 6128.1404,5307.1344 C6128.46942,5307.47687 6128.81216,5307.80565 6129.1549,5308.14812 C6129.42908,5308.75088 6129.96375,5309.02486 6130.58068,5309.16185 C6131.71856,5310.01119 6132.81531,5309.83311 6133.45966,5308.66869 C6133.85723,5307.95634 6134.00803,5306.86041 6132.63709,5306.62753 C6131.74598,5305.95628 6130.74519,5305.6549 6129.64843,5305.6138 C6129.23715,5305.14803 6128.81216,5304.64117 6128.37346,5304.1891 C6127.1259,5302.92879 6128.08556,5302.7918 6129.11377,5302.6959 L6129.11377,5302.7096 C6129.12748,5302.7096 6129.12748,5302.6959 6129.14119,5302.6959 C6129.90891,5303.66854 6131.06051,5304.07951 6132.08871,5304.68227 C6132.73306,5305.44941 6133.58304,5305.80559 6134.58383,5305.75079 L6134.59754,5305.75079 C6134.87173,5306.72342 6135.77655,5307.0111 6136.50315,5307.50427 C6136.8596,5307.70976 6137.21604,5307.92894 6137.55878,5308.14812 C6138.14828,5308.76458 6139.06682,5308.95637 6139.38213,5308.27142 C6139.93051,5307.0933 6138.54586,5307.51797 6138.06603,5307.14809 C6138.05232,5306.73712 6138.14828,5306.24396 6137.49023,5306.24396 C6137.49023,5306.25766 6137.49023,5306.25766 6137.47652,5306.25766 C6137.47652,5306.25766 6137.49023,5306.25766 6137.49023,5306.24396 C6136.98298,5305.73709 6136.48944,5305.21653 6135.98219,5304.69597 C6135.47494,5303.62744 6134.59754,5302.86029 6133.6653,5302.16164 C6133.50079,5302.31233 6133.32256,5302.44932 6133.17176,5302.58631 C6133.36369,5302.50412 6133.61046,5302.44932 6133.6653,5302.16164 C6133.14434,5300.59995 6132.26694,5299.10675 6132.70564,5297.35328 C6134.35077,5294.57237 6134.77576,5294.53127 6137.54507,5296.79162 C6137.70958,5296.94231 6137.8741,5297.10669 6138.03861,5297.27108 C6138.49102,5297.79165 6138.97085,5298.29851 6139.42326,5298.81907 C6139.49181,5299.51773 6139.80713,5300.01089 6140.4926,5300.25747 C6141.82241,5301.13421 6143.35787,5301.42189 6144.82478,5301.92876 C6144.30382,5304.33979 6144.66026,5304.60007 6147.3199,5303.99731 C6146.73039,5303.50415 6146.51104,5302.91509 6146.33282,5302.32603 C6147.79973,5302.87399 6149.33518,5302.51782 6150.85693,5302.58631 C6151.21337,5302.8055 6151.58353,5303.01098 6151.93997,5303.20277 C6152.43351,5304.27129 6153.39317,5304.75076 6154.43509,5305.14803 C6155.1754,5305.6549 6155.73749,5306.60013 6156.87537,5306.12067 C6157.21811,5306.84672 6157.86245,5307.20289 6158.50679,5307.61386 C6158.3697,5308.92897 6159.69951,5308.64129 6160.24789,5309.20295 C6160.86482,5309.79201 6161.24868,5310.77834 6162.37285,5310.50436 C6162.53737,5310.46326 6162.74301,5310.14819 6162.77043,5309.9564 C6162.86639,5309.01116 6162.22205,5308.70979 6161.45432,5308.518 C6160.75514,5308.06593 6160.08338,5307.60016 6159.3842,5307.1344 C6158.98662,5305.98368 6157.95842,5305.81929 6156.94392,5305.6412 C6155.73749,5304.70966 6156.73828,5302.60001 6155.01089,5301.96986 L6155.06573,5301.77807 C6154.92863,5300.83283 6154.1609,5301.21641 6153.63994,5301.10682 C6152.61174,5300.91503 6151.58353,5300.70954 6150.55532,5300.50406 L6150.55532,5300.51776 C6150.36339,5300.38077 6150.15775,5300.25747 6149.96582,5300.14788 C6149.89727,5298.77798 6148.82793,5299.29854 6148.12875,5299.13415 C6147.88198,5299.24375 6147.86827,5299.50403 6147.77231,5299.69581 C6147.9094,5299.53143 6148.14246,5299.40813 6148.12875,5299.13415 C6147.42957,5298.4766 6146.75781,5297.76425 6145.90782,5297.29848 C6145.97637,5295.5313 6145.89411,5293.77783 6145.75702,5292.02435 C6145.8804,5291.87366 6146.0175,5291.69557 6146.15459,5291.3531 C6145.99008,5291.3257 6145.85299,5291.312 6145.70218,5291.2983 C6145.85299,5291.3531 6145.97637,5291.47639 6146.15459,5291.3531 C6147.05942,5290.73664 6147.22393,5290.18868 6145.99008,5289.7914 C6145.8667,5289.76401 6145.74331,5289.75031 6145.60622,5289.7777 C6145.46912,5289.33934 6145.37316,5288.77767 6144.72881,5288.96946 C6144.70139,5288.98316 6144.70139,5289.01056 6144.66026,5289.02426 C6144.61914,5289.03796 6144.61914,5288.98316 6144.5643,5288.99686 C6144.00221,5289.13385 6143.9885,5289.55852 6144.00221,5289.98319 C6143.9885,5290.09278 6143.94737,5290.18868 6143.91996,5290.29827 C6143.37158,5290.87363 6143.64577,5291.09281 6144.1256,5291.2161 C6144.23527,5293.03808 6144.37237,5294.86005 6144.78365,5296.64093 L6144.11189,5296.07927 L6142.65869,5294.22989 L6142.49417,5293.83262 C6143.61835,5292.83259 6142.71353,5292.09284 6142.21999,5291.2709 C6142.28853,5290.95582 6142.41192,5290.61335 6142.37079,5290.29827 C6142.30224,5289.66811 6142.2337,5289.03796 6142.17886,5288.4078 C6141.82241,5288.4763 6141.8087,5288.77767 6141.72645,5289.03796 C6141.78128,5288.77767 6141.83612,5288.50369 6142.17886,5288.4078 C6142.48046,5288.22971 6142.79578,5288.03793 6143.09739,5287.85984 C6144.74252,5287.59956 6146.36023,5287.73655 6147.9094,5288.3667 C6148.7731,5288.69548 6149.00616,5289.42153 6149.14325,5290.22977 C6148.51262,5292.22983 6150.30855,5292.22983 6151.63837,5293.42165 C6151.29563,5291.73667 6150.47306,5291.06542 6149.88356,5290.25717 C6150.11662,5289.12015 6150.73354,5288.02423 6150.3771,5286.80501 C6151.41902,5285.65429 6150.50048,5284.18849 6151.00773,5282.95558 L6151.00773,5282.94188 L6151.00773,5282.95558 C6151.50127,5282.92818 6152.00852,5282.91448 6152.51577,5282.90078 C6153.1464,5283.28436 6153.94155,5283.79122 6154.47622,5283.05147 C6155.01089,5282.29803 6154.28429,5281.94185 6153.59882,5281.76376 C6152.94076,5281.39389 6152.17303,5281.09251 6152.46093,5280.05138 C6152.78996,5278.83217 6153.81817,5279.68151 6154.43509,5279.31163 C6154.5996,5279.31163 6154.77783,5279.32533 6154.94234,5279.32533 C6156.3407,5279.72261 6157.76648,5279.51712 6159.16485,5279.47602 C6160.05596,5279.8185 6160.94707,5280.17467 6161.83819,5280.51715 C6162.5922,5281.72267 6163.96315,5281.81856 6165.14216,5282.18843 C6165.51231,5282.31173 6165.23812,5281.72267 6165.21071,5281.44869 C6165.36151,5280.70894 6166.00585,5281.01032 6166.44456,5280.88702 C6166.89697,5281.06511 6167.33567,5281.2432 6167.77437,5281.42129 C6168.17194,5281.68157 6168.56952,5281.99665 6168.99451,5282.18843 C6169.51547,5282.42132 6170.11868,5282.59941 6170.57109,5282.10624 C6170.74932,5281.92815 6170.81786,5281.47608 6170.70819,5281.2432 C6170.44771,5280.68154 6169.89933,5280.42126 6169.30983,5280.50345 C6168.93967,5280.55825 6168.61065,5280.83223 6168.2542,5280.99662 C6167.43163,5280.24317 6166.6502,5279.36643 6165.38893,5279.36643 C6165.22442,5279.20204 6165.0599,5279.03765 6164.88168,5278.87326 L6164.78571,5278.96916 L6164.78571,5278.85957 L6164.88168,5278.87326 C6164.41556,5278.18831 6164.07282,5277.35267 6163.0172,5277.36637 C6162.98978,5277.18828 6162.93494,5277.01019 6162.89381,5276.85951 C6162.82526,5276.69512 6162.82526,5276.50333 6162.78414,5276.33894 C6163.41477,5277.07869 6164.16879,5277.61295 6165.33409,5277.65405 C6165.82763,5276.22935 6166.01956,5274.96904 6163.79863,5275.29781 C6163.38735,5275.14712 6162.96236,5274.96904 6162.53737,5274.80465 C6162.4414,5273.55804 6162.2906,5272.35252 6160.64546,5271.74976 C6160.1108,5271.57167 6160.52208,5270.92782 6160.72772,5270.50315 L6160.86482,5270.53055 L6160.90594,5270.40725 C6161.57771,5270.06478 6162.24947,5269.7223 6162.92123,5269.39353 C6163.8946,5269.10585 6164.86797,5268.83186 6165.85505,5268.53049 C6167.18486,5268.42089 6168.36388,5267.87293 6169.40579,5267.05099 C6169.65256,5267.02359 6169.91304,5267.05099 6170.13239,5266.9551 C6170.84528,5266.64002 6171.83236,5266.8455 6172.13397,5265.84547 C6172.1751,5265.66739 6172.02429,5265.27011 6171.90091,5265.24271 C6171.10576,5265.09203 6170.57109,5265.72218 6169.89933,5265.98246 C6169.52918,5266.13315 6169.18644,5266.36604 6168.83,5266.55782 C6167.33567,5266.53043 6166.12924,5267.35237 6164.82684,5267.90033 C6164.16879,5268.14691 6163.51074,5268.3798 6162.85268,5268.61268 C6162.89381,5268.74967 6162.89381,5268.85926 6162.8801,5268.98255 C6162.85268,5268.99625 6162.82526,5268.99625 6162.81156,5269.00995 C6162.8801,5268.87296 6162.96236,5268.76337 6162.85268,5268.61268 C6162.01641,5268.57158 6161.57771,5268.3387 6162.34543,5267.55785 C6163.33251,5266.8592 6164.31959,5266.16055 6165.29296,5265.4756 C6165.41635,5265.32491 6165.29296,5265.20162 6165.25183,5265.06463 L6165.33409,5265.06463 C6165.30667,5265.20162 6165.29296,5265.35231 6165.29296,5265.4756 C6167.00664,5265.03723 6168.81629,5265.03723 6170.37916,5264.0646 C6171.35253,5263.74952 6172.42187,5264.28378 6173.51862,5263.66732 C6172.21623,5262.06454 6171.0098,5264.0098 6169.8582,5263.63993 C6169.03564,5263.74952 6168.19936,5264.50297 6167.41792,5263.58513 C6167.82921,5263.53033 6168.2542,5263.50294 6168.59694,5263.21526 C6169.39208,5263.17416 6170.25578,5263.06457 6170.68077,5262.07824 C6172.1751,5260.46175 6174.23151,5259.80419 6176.15083,5258.96855 C6176.94598,5259.11924 6177.60403,5258.87266 6178.23467,5258.55758 C6178.46773,5258.69457 6178.5774,5259.00965 6178.92014,5259.07814 C6180.20883,5259.16034 6180.30479,5258.58498 6179.64674,5257.66714 C6179.60561,5257.62605 6179.57819,5257.57125 6179.53706,5257.53015 C6180.09915,5256.76301 6180.67495,5255.98216 6181.23703,5255.20131 C6181.53864,5255.26981 6181.86767,5255.32461 6182.15557,5255.4205 C6184.89745,5256.22874 6185.95308,5255.33831 6185.55551,5252.63959 C6185.52809,5252.4752 6185.5418,5252.31082 6185.5418,5252.14643 C6186.24098,5252.05053 6186.95387,5251.77655 6187.66676,5251.1464 C6186.92645,5250.99571 6186.29582,5250.99571 6185.61034,5250.92721 C6185.62405,5250.87242 6185.67889,5250.80392 6185.66518,5250.73543 C6186.00792,5250.29706 6186.36436,5249.84499 6186.7071,5249.40662 L6186.7071,5249.39292 C6187.7216,5248.33809 6187.59821,5247.00929 6187.59821,5245.72158 C6187.79014,5245.4202 6187.98208,5245.11882 6188.1603,5244.83114 C6188.69497,5244.70785 6189.18851,5244.52976 6189.65463,5244.22838 C6190.21671,5244.13249 6190.80622,5244.10509 6191.0667,5243.46123 C6190.76509,5243.40644 6190.46348,5243.35164 6190.16188,5243.29684 C6189.83285,5243.31054 6189.4764,5243.28315 6189.13367,5243.26945 C6190.39494,5242.03653 6190.4909,5240.63923 6189.66834,5239.13233 C6189.86027,5238.78986 6189.72317,5238.62547 6189.70946,5238.40629 C6189.7643,5238.41998 6189.80543,5238.39259 6189.86027,5238.40629 L6189.86027,5238.40629 Z" id="Paint-15"></path>
        </g>
    </g>
</svg>