<?xml version="1.0" encoding="UTF-8"?>
<svg width="310px" height="295px" viewBox="0 0 310 295" version="1.1" xmlns="http://www.w3.org/2000/svg" xmlns:xlink="http://www.w3.org/1999/xlink">
    <title>Shape 22</title>
    <g id="Page-1" stroke="none" stroke-width="1" fill="none" fill-rule="evenodd">
        <g id="Desktop-HD" transform="translate(-4193.000000, -3071.000000)" fill="#000000">
            <path d="M4352.46071,3073.77013 L4396.50468,3162.9173 C4397.22896,3164.384 4398.63006,3165.40075 4400.25005,3165.63581 L4498.73521,3179.93127 C4502.81547,3180.52339 4504.44485,3185.53252 4501.49233,3188.40728 L4430.22753,3257.79897 C4429.05517,3258.94005 4428.52065,3260.58505 4428.79683,3262.19721 L4445.62045,3360.1798 C4446.31701,3364.23881 4442.05169,3367.33456 4438.40261,3365.41836 L4350.31514,3319.15709 C4348.86565,3318.39605 4347.13435,3318.39605 4345.68486,3319.15709 L4257.59739,3365.41836 C4253.94784,3367.33456 4249.68252,3364.23881 4250.37955,3360.1798 L4267.2027,3262.19721 C4267.47935,3260.58505 4266.94436,3258.94005 4265.772,3257.79897 L4194.50767,3188.40728 C4191.55515,3185.53252 4193.18453,3180.52339 4197.26479,3179.93127 L4295.74948,3165.63581 C4297.36994,3165.40075 4298.77057,3164.384 4299.49532,3162.9173 L4343.53882,3073.77013 C4345.36406,3070.07662 4350.63594,3070.07662 4352.46071,3073.77013" id="Shape-22"></path>
        </g>
    </g>
</svg>