<?xml version="1.0" encoding="UTF-8"?>
<svg width="310px" height="314px" viewBox="0 0 310 314" version="1.1" xmlns="http://www.w3.org/2000/svg" xmlns:xlink="http://www.w3.org/1999/xlink">
    <title>GEO Shape 1</title>
    <g id="Page-1" stroke="none" stroke-width="1" fill="none" fill-rule="evenodd">
        <g id="Desktop-HD" transform="translate(-1576.000000, -4611.000000)" fill="#000000">
            <path d="M1861.73008,4924.00002 C1861.82042,4923.99722 1862.02938,4924.23618 1861.99653,4924.27752 C1861.5558,4924.85074 1860.63966,4924.7197 1860,4925 C1860.63144,4924.68957 1860.89059,4924.02105 1861.73008,4924.00002 Z M1854.11257,4917.33729 C1854.19068,4917.1308 1855.18753,4916.90743 1855.33496,4917.03976 C1856.21078,4917.81877 1856.15136,4918.76485 1855.56382,4920 C1854.46575,4919.13558 1853.70216,4918.4035 1854.11257,4917.33729 Z M1839.82417,4913.00141 L1840.01123,4913.01259 C1841.04527,4913.10299 1842.24172,4913.62222 1841.9575,4914.9859 C1841.51357,4917.12567 1839.58444,4916.65164 1838,4917 C1838.73177,4915.63301 1837.42072,4912.7877 1840.01123,4913.01259 Z M1805.18707,4912.0708 C1806.31508,4912.36857 1808.2561,4911.07393 1807.97193,4913.62536 C1807.82455,4914.94787 1807.8785,4917.29913 1806.24573,4916.9685 C1804.30181,4916.57513 1801.16246,4915.97263 1801.00737,4913.76179 C1800.83398,4911.30896 1803.76237,4912.64641 1805.18707,4912.0708 Z M1814.39085,4902 C1815.51312,4902.59248 1817.15048,4902.77119 1817.33369,4904.2757 C1817.52169,4905.83266 1818.15957,4906.19591 1819.55425,4906.15998 C1820.91824,4906.12404 1822.97574,4905.96961 1822.99972,4907.69459 C1823.03137,4910.0276 1820.41562,4910.37143 1818.81374,4910.92506 C1816.9078,4911.58359 1813.02302,4907.75481 1813,4905.21104 C1813.34723,4904.40877 1813.86904,4903.20438 1814.39085,4902 Z M1802.49191,4904 L1803,4909 L1798,4906.90072 L1802.49191,4904 Z M1859.11259,4905.3372 C1859.19073,4905.13165 1860.18669,4904.90733 1860.33525,4905.03967 C1861.21126,4905.8187 1861.15073,4906.76575 1860.56416,4908 C1859.46585,4907.13555 1858.7021,4906.40345 1859.11259,4905.3372 Z M1845.11252,4904.33729 C1845.19172,4904.1308 1846.18717,4903.90743 1846.33456,4904.03976 C1847.21012,4904.81877 1847.15182,4905.76485 1846.56445,4907 C1845.46561,4906.13558 1844.70225,4905.4035 1845.11252,4904.33729 Z M1783.26401,4904.95911 C1784.80949,4903.32722 1783.17154,4898.90689 1788.11621,4900.25063 C1789.09834,4900.51722 1790.78305,4899.64786 1790.96481,4901.0259 C1791.13594,4902.3226 1790.66188,4903.83786 1789.99862,4905.03458 C1789.49161,4905.94707 1788.06838,4906.31952 1787.03097,4905.56091 C1785.51632,4904.45239 1784.40983,4904.88071 1783.3044,4906 C1783.04293,4905.77751 1782.95045,4905.54817 1783.02486,4905.31392 C1783.10139,4905.07673 1783.18004,4904.95911 1783.26401,4904.95911 Z M1869.82427,4900.00141 L1870.01134,4900.01259 C1871.04544,4900.10299 1872.24106,4900.62222 1871.95772,4901.9859 C1871.51286,4904.12567 1869.58363,4903.65164 1868,4904 C1868.73181,4902.63301 1867.42069,4899.7877 1870.01134,4900.01259 Z M1885.11764,4898 C1885.37842,4899.47273 1885.63801,4900.94547 1886,4903 C1883.19692,4901.21909 1883.76968,4899.65323 1885.11764,4898 Z M1794,4903 C1797.47788,4897.82457 1801.54632,4896.13258 1805.96285,4897.40425 L1805.96285,4897.40425 L1806,4898.54008 C1801.95698,4898.84597 1798.50648,4901.40106 1794,4903 Z M1830.54749,4895 C1832.09059,4897.5287 1831.61749,4899.76071 1832,4902 C1828.28668,4900.73096 1828.28668,4900.73096 1830.54749,4895 Z M1726.9995,4627 C1802.66293,4627 1864,4688.33808 1864,4764.0005 C1864,4782.68317 1860.25379,4800.49054 1853.48237,4816.71876 C1853.26052,4816.24481 1852.85312,4815.79204 1852.1301,4815.37254 C1852.37615,4816.65422 1852.55363,4817.58296 1852.72606,4818.48548 C1852.69985,4818.54901 1852.67161,4818.61052 1852.64438,4818.67405 C1851.24976,4818.25556 1849.85514,4817.83607 1848.3617,4817.38834 C1847.8696,4820.01018 1848.48674,4821.71337 1851.16203,4821.95539 L1851.01375,4821.94002 C1851.59992,4820.91859 1852.16992,4819.88962 1852.72376,4818.85313 C1852.77184,4818.8646 1852.82109,4818.87607 1852.86916,4818.88849 C1852.85275,4818.81777 1852.83633,4818.74609 1852.81874,4818.67441 C1853.11542,4818.11819 1853.41092,4817.561 1853.69821,4817 C1854.10394,4817.71201 1853.95502,4818.47085 1853.77795,4819.23829 C1854.42172,4821.06179 1853.69117,4822.10448 1851.25211,4821.9917 C1851.2152,4821.99018 1851.18164,4821.98653 1851.14906,4821.98227 C1848.59954,4827.43366 1845.70851,4832.69382 1842.48977,4837.72579 C1841.06087,4838.53957 1840.39936,4840.10663 1839.80742,4841.74427 L1839.88948,4841.52467 C1840.71096,4840.32624 1841.51828,4839.1179 1842.30185,4837.89152 C1843.14942,4837.40845 1844.25933,4837.18409 1845.80109,4837.38419 C1847.06639,4837.54892 1846.127,4835.08304 1847.78985,4835.64898 C1848.80087,4835.67424 1849.33262,4834.22503 1850.51013,4834.76268 C1852.79856,4833.65 1855.09708,4832.57976 1858,4833.16592 C1857.36836,4834.40593 1856.77809,4835.56409 1856.18782,4836.72325 C1855.3897,4839.38721 1852.89341,4840.06028 1850.85017,4841.24269 C1849.49507,4842.02692 1847.56181,4843.11939 1849.10761,4844.57466 C1851.56858,4846.89097 1850.00361,4848.99708 1849.09954,4850.66863 C1847.72426,4853.21435 1845.7799,4849.84902 1844.00607,4850.48571 L1844.00607,4850.48571 L1842.41083,4849.57919 C1841.67223,4849.92583 1840.93364,4850.27348 1840.19605,4850.62113 C1839.21025,4852.67973 1839.75714,4854.90307 1839.5291,4857.04354 C1839.33739,4858.84141 1839.79245,4860.72922 1837.40312,4861.64382 C1835.50215,4862.37247 1836.40723,4863.89343 1836.96925,4865.16882 C1838.06907,4867.663 1836.59087,4868.17639 1834.58193,4868.28048 C1834.22172,4868.63217 1833.86251,4868.98588 1833.5023,4869.33758 L1833.5023,4869.33758 L1836.40824,4874.74534 L1836.40824,4874.74534 L1838.94892,4875.31128 C1838.28701,4876.61193 1837.72499,4878.03891 1835.83008,4877.7721 C1836.06316,4878.73117 1835.56269,4879.24254 1834.74237,4879.55785 L1834.74237,4879.55785 C1834.44067,4880.7534 1834.65458,4882.65637 1832.68904,4882.11772 C1831.62251,4881.82565 1831.61343,4880.48255 1832.59015,4879.57301 L1832.59015,4879.57301 L1831.59931,4878.58261 C1829.88197,4880.42495 1828.77812,4883.02928 1825.42922,4882.60281 C1823.83398,4882.40069 1824.0933,4884.06718 1824.18612,4885.04747 C1824.4182,4887.51436 1823.74216,4889.62855 1821.17827,4889.9762 C1819.07348,4890.2622 1818.4711,4887.90344 1817.41568,4886.50577 C1817.06455,4886.04089 1816.88999,4885.44059 1816.63471,4884.90194 C1815.22513,4884.50477 1814.63385,4883.25364 1813.83976,4882.21474 L1813.83976,4882.21474 L1807.38513,4882.32691 C1806.6536,4883.59219 1805.50939,4882.90296 1804.51753,4882.93328 C1799.93563,4882.99695 1799.21721,4882.9929 1800.68633,4879.63567 L1800.68633,4879.63567 L1801.11818,4879.35168 C1801.10812,4879.17978 1801.12067,4878.9964 1801.15669,4878.80137 L1801.00668,4879.13649 L1801.00668,4879.13649 L1800.89924,4879.37885 C1794.68748,4883.36607 1788.12782,4886.85817 1781.2838,4889.8148 C1780.69893,4889.7543 1779.9275,4889.98926 1779.37994,4889.82791 C1776.40414,4888.9506 1775.94128,4890.45917 1775.62565,4892.10892 C1760.51374,4897.84773 1744.1262,4901 1726.9995,4901 C1651.33707,4901 1590,4839.66293 1590,4764.0005 C1590,4740.60724 1595.87038,4718.58601 1606.20743,4699.32076 C1606.13597,4699.22117 1606.06687,4699.11361 1606,4699 C1606.10904,4699.03316 1606.21807,4699.06632 1606.32711,4699.09949 L1606.48048,4698.81442 L1606.48048,4698.81442 L1606.936,4697.981 L1606.83393,4698.20286 C1606.79942,4698.28032 1606.76614,4698.35917 1606.73511,4698.44066 L1606.64973,4698.69437 C1606.57689,4698.83991 1606.50404,4698.98547 1606.4311,4699.13119 C1608.28732,4699.6958 1610.14366,4700.26154 1612,4700.82728 L1611.93185,4700.80661 C1612.06807,4700.73988 1612.20413,4700.67266 1612.34014,4700.60529 C1613.52098,4701.13167 1614.04031,4699.6826 1615.05073,4699.69773 C1615.05778,4699.70006 1615.06478,4699.70235 1615.07174,4699.70458 C1615.27872,4698.52061 1614.6921,4697.13285 1615.8619,4696.19748 C1615.93086,4694.39769 1616.78701,4693.41672 1618.49741,4693.32393 C1618.05784,4691.49558 1616.53706,4690.04147 1616.85692,4687.95003 C1616.5389,4686.5615 1617.52864,4685.98587 1618.25479,4685.24683 L1618.03957,4685.1358 C1617.04318,4685.4766 1615.98484,4684.68662 1615,4684.28039 C1616.10034,4682.86155 1617.22587,4681.46125 1618.3829,4680.08537 C1618.5089,4680.22208 1618.63279,4680.35586 1618.76088,4680.49452 C1618.84422,4680.25721 1618.91391,4680.02653 1618.97332,4679.80092 C1616.99378,4677.54871 1615.08264,4675.37376 1613,4673.00277 C1617.81944,4672.91724 1620.24209,4674.81605 1619.9809,4678.22698 C1621.84081,4676.09606 1623.76991,4674.01855 1625.76712,4672 C1626.1409,4672.90912 1626.2165,4673.79382 1624.81693,4674.30355 C1622.33802,4675.20583 1622.82729,4677.02699 1622.64355,4678.76515 C1622.42412,4680.83434 1623.00998,4682.97873 1622.00309,4684.97566 C1621.23769,4685.31743 1620.47228,4685.65823 1619.70688,4686 L1619.70688,4686 L1618.54574,4685.39765 C1618.56483,4685.83734 1618.40718,4686.2376 1618.2398,4686.63664 C1618.82015,4686.38273 1619.46179,4686.23182 1620,4685.90245 C1619.8937,4687.59517 1618.91209,4687.76241 1617.87972,4687.84296 C1617.87301,4687.95207 1617.86822,4688.0622 1617.8845,4688.17539 C1617.81076,4689.95785 1619.11415,4691.47009 1618.77131,4693.30048 C1618.71289,4693.38817 1618.65064,4693.47179 1618.58839,4693.55642 C1618.68249,4693.79335 1618.75496,4694.00778 1618.80789,4694.2019 L1619,4694 L1619,4694 C1618.99633,4694.18872 1618.94878,4694.33984 1618.86938,4694.46374 C1619.20153,4696.1298 1617.86073,4696.05663 1616.64624,4696.11489 C1616.5543,4696.28824 1616.46907,4696.46771 1616.3982,4696.65738 C1615.56365,4697.48259 1615.58191,4698.71365 1615.1379,4699.72295 C1616.68346,4700.16192 1615.78167,4697.79969 1617.02518,4697.95117 C1622.76601,4698.65 1622.62483,4693.64832 1624.33307,4690.43959 C1624.50654,4690.33431 1624.68027,4690.23772 1624.85425,4690.14935 C1625.09285,4689.25474 1625.9993,4689.08148 1626.7133,4688.70098 C1624.80044,4688.46065 1622.49888,4688.76634 1623.09629,4685 C1623.69561,4687.48349 1625.7473,4687.46135 1627.44283,4688.05481 C1628.96508,4687.69431 1630.80997,4688.91286 1632,4686.92691 C1631.42652,4690.03443 1629.14507,4688.46065 1627.58931,4688.87702 C1627.4974,4688.84856 1627.39879,4688.82537 1627.30114,4688.80429 C1626.98195,4689.42461 1626.18029,4689.52299 1625.57313,4689.83181 C1627.81076,4688.97639 1630.0858,4689.36712 1632.36886,4690.02178 L1632.2959,4689 C1632.58919,4689.35633 1632.71915,4689.72997 1632.70272,4690.11951 L1632.91356,4690.18244 C1634.01272,4690.49303 1635.10986,4690.80463 1636.20801,4691.11522 C1636.44708,4691.12119 1636.68614,4691.12715 1636.9252,4691.13309 L1636.99961,4691.0695 C1637.00019,4691.09271 1637.00012,4691.11513 1636.99941,4691.13681 C1638.38791,4691.16944 1639.77848,4691.20363 1641.16834,4691.23925 C1640.12565,4689.83858 1638.57675,4690.44967 1637.23255,4690.24698 C1637.00364,4686.36968 1634.31221,4688.97135 1632.77037,4688.55085 C1632.72196,4687.7764 1632.66045,4687.00699 1631.89911,4686.54211 C1631.02995,4683.19162 1624.83494,4679.88418 1631.50286,4676.47329 C1631.29115,4676.28793 1631.07833,4676.10374 1630.8655,4675.91928 C1629.05415,4674.08286 1629.70191,4671.46759 1629.07696,4669.25483 C1628.21394,4670.15644 1627.36282,4671.0671 1626.52459,4671.99185 C1626.37877,4671.60746 1626.1893,4671.22106 1626.02563,4670.85277 C1624.92552,4668.37838 1626.3748,4667.85513 1628.34785,4667.73639 C1628.69902,4667.38218 1629.05018,4667.02899 1629.40035,4666.67479 C1628.43515,4664.88767 1627.46797,4663.10056 1626.50178,4661.31344 L1626.50178,4661.31344 L1624,4660.77107 C1624.63983,4659.46998 1625.18145,4658.04512 1627.04538,4658.29467 C1626.80929,4657.34174 1627.29735,4656.82855 1628.10184,4656.50856 C1628.10284,4656.50755 1628.10383,4656.50755 1628.10383,4656.50755 L1628.12846,4656.3974 C1628.3778,4655.20359 1628.22202,4653.43816 1630.09969,4653.94361 C1631.15119,4654.22637 1631.17103,4655.56268 1630.21774,4656.47535 C1630.54509,4656.80138 1630.87146,4657.12841 1631.19881,4657.45444 C1632.87228,4655.60595 1633.93866,4653.00376 1637.23303,4653.40224 C1638.80334,4653.59041 1638.53451,4651.93512 1638.43631,4650.95804 C1638.18831,4648.50378 1638.83608,4646.39466 1641.35372,4646.02637 C1643.42101,4645.7255 1644.03207,4648.07008 1645.0806,4649.45268 C1645.42978,4649.91354 1645.60536,4650.50925 1645.8603,4651.04257 C1646.86617,4651.32029 1647.45342,4652.04882 1648,4652.81962 C1647.33636,4653.29558 1646.68066,4653.78261 1646.02695,4654.26964 C1645.57361,4654.94785 1644.83955,4655.52041 1644.10746,4656.09398 C1644.02315,4656.16039 1643.93784,4656.22379 1643.84757,4656.28115 C1643.61544,4656.42907 1643.3734,4656.55887 1643.13235,4656.68969 L1643.32937,4656.58366 C1644.07307,4657.82582 1645.23407,4658.30761 1646.8638,4657.93475 C1647.13203,4659.14181 1647.49203,4660.23492 1649.22346,4659.66114 C1651.69303,4660.5445 1653.25101,4662.62584 1655.19017,4664.20701 C1658.67922,4663.62917 1659.64324,4660.89572 1660.59144,4658.14902 L1660.74546,4657.70383 C1660.94815,4657.35996 1661.08126,4657.05139 1661.18008,4656.76097 C1663.34008,4652.05678 1663.03857,4652.06081 1657.91891,4652.17274 L1658.14011,4652.16758 C1659.37099,4653.56586 1661.58025,4654.34399 1660.85823,4656.97702 C1660.7398,4657.29869 1660.61341,4657.63676 1660.47819,4658 C1660.26343,4656.70022 1661.27362,4654.54048 1658.73267,4654.94748 C1658.01094,4655.06294 1658.03923,4653.29471 1658.00581,4652.1696 L1657.91891,4652.17274 C1656.92664,4652.21005 1655.77908,4651.53241 1655.05706,4652.79997 C1652.90715,4652.85543 1650.75724,4652.90988 1648.60732,4652.96434 C1648.38547,4652.67997 1648.17875,4652.38047 1647.96699,4652.08602 C1649.77203,4650.80938 1651.60833,4649.57611 1653.47488,4648.38518 L1653,4648.691 L1653,4640 C1657.88869,4641.88882 1658.30736,4642.79564 1654.19494,4647.937 C1659.7929,4644.41678 1665.66396,4641.29286 1671.76931,4638.59965 L1671.44459,4638.74379 C1672.22724,4638.32067 1673.02554,4638.03712 1673.71101,4638 C1673.80103,4638.01386 1673.90407,4638.03726 1674,4638.05546 C1672.99566,4638.36222 1671.99605,4638.67851 1671,4639 L1671.48943,4638.84381 C1670.07701,4640.1286 1668.90244,4642.00497 1669.1031,4643.22216 C1669.36326,4644.79426 1670.39183,4647.79023 1671.1199,4647.14586 C1673.51385,4645.03023 1675.26847,4642.09175 1676.84359,4639.23494 C1677.14309,4638.69343 1675.49334,4637.81209 1674.32359,4637.50049 C1690.54072,4630.73916 1708.33296,4627 1726.9995,4627 Z M1862.39603,4894.51606 C1862.85155,4893.7274 1863.3428,4893.96206 1863.79037,4894.42832 C1864.36002,4895.02211 1863.61571,4895.24045 1863.36165,4895.45675 C1862.5181,4896.17706 1861.76486,4896.71984 1862.71857,4898.03904 C1863.12645,4898.60427 1862.53993,4899.52455 1861.87204,4899.98979 C1861.14063,4900.49891 1860.47274,4901.24982 1859.43964,4900.91823 C1859.27986,4900.86722 1859.15581,4900.69684 1859,4900.56726 C1859.29971,4899.86838 1859.89913,4899.60005 1860.42907,4899.24602 C1860.84589,4898.96544 1861.47309,4898.82261 1861.39271,4898.13801 C1861.32324,4897.54013 1860.68313,4897.66154 1860.31892,4897.44729 C1859.93386,4897.22079 1859.36719,4897.20038 1859.36322,4896.61679 C1859.35727,4895.8975 1860.06188,4895.99341 1860.47373,4895.80262 C1861.18529,4895.47103 1861.97227,4895.25065 1862.39603,4894.51606 Z M1790.95025,4888.08968 C1791.70144,4887.43655 1792.72674,4890.51128 1792.97919,4892.12087 C1793.29451,4894.12873 1789.95381,4897.86484 1787.84862,4898 C1786.66052,4897.74412 1784.70474,4896.72781 1785.03757,4896.13659 C1786.67082,4893.22695 1788.48749,4890.23476 1790.95025,4888.08968 Z M1845.39071,4889 C1846.51288,4889.59248 1848.15008,4889.77119 1848.33327,4891.27667 C1848.52126,4892.83266 1849.16003,4893.19591 1850.55362,4893.15998 C1851.91748,4893.12404 1853.97574,4892.96961 1853.99972,4894.69459 C1854.03137,4897.0276 1851.41491,4897.37143 1849.81414,4897.92506 C1847.90743,4898.58359 1844.02398,4894.75481 1844,4892.21104 C1844.3472,4891.40877 1844.86896,4890.20438 1845.39071,4889 Z M1812,4896.37143 C1812.42256,4894.8977 1813.65458,4894.91459 1814.85538,4895.06872 C1815.70831,4895.1764 1817.26812,4894.71084 1816.96039,4896.2342 C1816.74186,4897.31944 1815.68155,4898.07531 1814.26334,4897.99402 C1813.09599,4897.92751 1812.40361,4897.35005 1812,4896.37143 Z M1809,4886 C1808.9725,4889.57558 1808.94601,4892.808 1808.92157,4896 C1803.69403,4893.76902 1803.66551,4892.83496 1809,4886 Z M1781.12308,4890 C1781.55354,4890.04389 1781.88941,4890.22865 1781.96487,4890.81967 C1782.13599,4892.17115 1781.66089,4893.74821 1780.99767,4894.99456 C1780.49174,4895.94488 1779.06857,4896.33379 1778.03122,4895.5427 C1776.51558,4894.38823 1775.40914,4894.8343 1774.30377,4896 C1774.04337,4895.76829 1773.94983,4895.53045 1774.0253,4895.28547 C1774.10182,4895.03845 1774.18047,4894.91596 1774.26338,4894.91596 C1774.82882,4894.29432 1774.96912,4893.28377 1775.16043,4892.3212 C1777.16924,4891.5883 1779.15785,4890.81456 1781.12308,4890 Z M1875.11204,4891.33729 C1875.19126,4891.1308 1876.188,4890.90743 1876.33542,4891.03976 C1877.21004,4891.81877 1877.15173,4892.76485 1876.56425,4894 C1875.46629,4893.13558 1874.70279,4892.4035 1875.11204,4891.33729 Z M1837.4929,4886 L1838,4891 L1833,4888.9003 L1837.4929,4886 Z M1882.77614,4886.08574 C1884.57898,4885.61932 1884.96768,4887.12158 1886,4889 C1884.06683,4888.56714 1882.49605,4889.0625 1882.01018,4887.29172 C1881.92216,4886.96997 1882.42403,4886.17717 1882.77614,4886.08574 Z M1858.62918,4881 C1860.49401,4882.15612 1861.75617,4883.76168 1863,4885.53025 C1857.52731,4886.50451 1857.40916,4886.38391 1858.62918,4881 Z M1849.21296,4879.00321 C1849.78475,4878.9306 1851.04938,4880.11324 1850.99851,4880.23645 C1850.23037,4882.09567 1848.83347,4883.20461 1846,4884 C1847.81912,4882.09897 1846.56262,4879.33325 1849.21296,4879.00321 Z M1823.2424,4850.6404 C1819.45787,4857.22829 1819.45787,4857.22829 1821.71467,4860.48442 C1822.39131,4860.91702 1822.97719,4861.15501 1823.49551,4861.24274 C1820.5651,4864.15097 1817.5056,4866.92912 1814.32309,4869.56508 C1814.37451,4869.41382 1814.41788,4869.2434 1814.44208,4869.0276 C1814.5167,4868.38928 1814.56712,4864.39904 1811.15771,4864.9829 C1811.51872,4863.54492 1812.11569,4862.0182 1809.88813,4861.53114 C1807.96511,4861.15702 1806.04209,4860.78291 1804.11907,4860.40879 C1801.09487,4864.67736 1806.97284,4860.97753 1806.25284,4863.63568 C1802.44915,4865.89147 1806.74091,4866.99466 1807.69183,4868.81483 C1808.71738,4869.11231 1809.76007,4869.69516 1810.76444,4869.63668 C1811.57015,4869.58928 1812.67132,4870.28508 1813.46494,4870.2639 C1812.33855,4871.18054 1811.19805,4872.07903 1810.04242,4872.96037 C1809.2125,4872.19398 1808.42091,4871.37617 1807.55267,4870.65718 C1803.86999,4871.236 1802.97352,4874.23297 1801.94495,4877.117 C1801.87028,4877.24096 1801.8046,4877.36063 1801.74639,4877.47669 C1801.8087,4877.932 1801.69987,4878.48187 1801.69332,4878.97271 C1804.47919,4877.14654 1807.19544,4875.22234 1809.835,4873.20315 C1810.85007,4874.13998 1811.92264,4875.00102 1813.27673,4875.49824 C1815.01424,4874.93634 1815.36538,4876.03487 1815.62368,4877.2476 C1817.50649,4876.83123 1818.75665,4877.54876 1819.4559,4879.25264 C1819.55074,4879.20313 1819.64155,4879.14552 1819.7364,4879.09802 C1820.09964,4878.86861 1820.41143,4878.58767 1820.70505,4878.28751 C1821.5849,4875.60233 1822.46476,4872.91715 1823.34461,4870.23196 C1824.0045,4869.48512 1823.16602,4867.82773 1824.31629,4867.37902 C1824.3284,4867.29817 1824.33445,4867.21833 1824.35261,4867.13748 C1824.57863,4866.20065 1824.93582,4865.34163 1825.55535,4864.63421 C1825.64717,4864.53012 1825.76119,4864.44927 1825.86713,4864.35831 C1824.9893,4863.99652 1824.35867,4863.35882 1823.99038,4862.42805 C1824.17301,4861.99753 1824.40508,4861.64382 1824.65733,4861.32346 C1824.25877,4861.48718 1823.81279,4861.54781 1823.29618,4861.45989 C1824.79758,4859.96823 1826.26266,4858.4402 1827.69344,4856.88083 C1827.75297,4857.17593 1827.81048,4857.47102 1827.87304,4857.7641 C1827.27773,4858.46445 1826.7591,4859.33256 1826.17589,4860.05919 C1827.0729,4859.57915 1828.10814,4859.31437 1829.16053,4859.07688 C1829.7165,4859.03342 1830.27246,4858.98896 1830.82842,4858.9455 C1835.78837,4856.59253 1834.32164,4854.24047 1832.64805,4851.88846 L1832.39294,4851.53087 C1830.93525,4853.28288 1829.43223,4854.99595 1827.89013,4856.67367 C1827.34862,4853.95804 1826.77685,4851.26762 1823.2424,4850.6404 Z M1862.20885,4874.04532 C1863.03638,4873.75967 1863.09167,4874.89993 1862.92308,4875.35442 C1862.67383,4876.03326 1862.15356,4876.76298 1861.62424,4876.9827 C1861.28525,4877.12263 1860.72329,4876.38366 1860,4875.84591 C1861.11576,4874.90687 1861.61427,4874.25116 1862.20885,4874.04532 Z M1869.62866,4871 C1871.49372,4872.156 1872.75602,4873.7614 1874,4875.53073 C1868.52758,4876.50395 1868.40941,4876.3843 1869.62866,4871 Z M1838.14245,4872.2407 C1840.31331,4871.34936 1842.02124,4873.20204 1844,4873.45387 C1841.974,4873.29922 1839.99314,4874.75586 1838.12985,4873.45491 C1837.92935,4873.31385 1837.98289,4872.30548 1838.14245,4872.2407 Z M1854.20836,4871.04535 C1855.03605,4870.75971 1855.09135,4871.8988 1854.92363,4872.35444 C1854.67433,4873.03327 1854.15397,4873.76298 1853.62454,4873.9827 C1853.28549,4874.12263 1852.72252,4873.38367 1852,4872.84592 C1853.11506,4871.9069 1853.61457,4871.25004 1854.20836,4871.04535 Z M1813.926,4870.154 C1813.756,4870.654 1813.451,4870.837 1813.074,4870.846 C1813.358,4870.616 1813.644,4870.387 1813.926,4870.154 Z M1809.49335,4862 C1810.28557,4862.92261 1810.24607,4864.06776 1811,4865 C1809.14869,4864.36303 1808.43306,4863.42027 1809.49335,4862 Z M1866.87093,4844 C1868.75836,4851.84151 1868.75836,4851.84151 1863.101,4861.01593 C1862.34483,4859.39871 1861.64113,4857.89665 1860.93841,4856.39356 C1857.03586,4857.48903 1860.52767,4860.9018 1858.83818,4863 C1857.33575,4862.47214 1855.64725,4862.02376 1854.08939,4861.28394 C1852.81262,4860.67761 1850.26404,4860.97822 1851.2033,4858.27675 C1851.89513,4856.28656 1852.0337,4853.53923 1855.5364,4854.39217 C1856.82999,4854.70705 1858.71644,4855.73017 1859.92986,4853.78992 C1860.37624,4849.16449 1865.19628,4848.16176 1866.87093,4844 Z M1842.51577,4856 C1844.68202,4858.33778 1846.73731,4860.5565 1849,4862.99917 C1843.20122,4863.05304 1840.86905,4860.46957 1842.51577,4856 Z M1882.13538,4852 C1883.95415,4853.62677 1886.45939,4855.01566 1883.92498,4857.31866 C1882.4458,4858.66247 1882.19475,4862.29872 1878.34158,4860.51944 C1875.25404,4859.0941 1873.89465,4857.36086 1876.04989,4854.39124 C1881.31453,4856.50911 1881.31453,4856.50911 1882.13538,4852 Z M1835.41638,4847.68935 C1833.92318,4847.87509 1832.19331,4846.97278 1830.98606,4848.48188 L1831.02223,4848.50864 C1831.25617,4849.44443 1831.90458,4850.37922 1832.57214,4851.31502 L1832.55714,4851.29358 C1833.53075,4850.11004 1834.48073,4848.90553 1835.41638,4847.68935 Z M1839.54758,4842.11937 C1838.80526,4843.1875 1838.05039,4844.24432 1837.27936,4845.28982 C1834.88642,4846.14292 1832.46323,4845.61553 1830.03601,4844.86024 C1828.93987,4844.54158 1827.84374,4844.22192 1826.74862,4843.90125 C1825.09585,4843.84679 1823.44307,4843.79335 1821.7893,4843.73889 C1822.64683,4844.90796 1823.86392,4844.69375 1825.02068,4844.70938 C1825.12285,4844.22386 1825.62483,4844.22637 1826,4844.0735 L1826,4844.0735 L1825.24641,4844.71583 C1825.40568,4844.72312 1825.56326,4844.73688 1825.71803,4844.76141 C1825.88473,4848.05016 1827.85966,4846.69622 1829.3947,4846.47134 C1829.22026,4846.00478 1829.29031,4845.51272 1829.57159,4845 C1829.61459,4845.66708 1829.65759,4846.33292 1829.70059,4847 L1829.66429,4846.44437 C1829.8411,4846.43602 1830.00966,4846.44886 1830.16609,4846.49284 C1830.20844,4847.2683 1830.26391,4848.03771 1831.02223,4848.50864 L1830.89499,4848.41973 C1831.61154,4845.82218 1833.9004,4847.23906 1835.48903,4846.86571 C1835.58792,4846.89401 1835.68982,4846.91624 1835.79375,4846.93847 C1835.92593,4846.70704 1836.13379,4846.5504 1836.37999,4846.43014 C1836.61811,4846.11281 1836.85119,4845.79244 1837.08831,4845.47208 C1837.5353,4845.3114 1837.9833,4845.12039 1838.42827,4844.8546 C1838.7735,4844.2172 1839.04665,4843.50812 1839.3073,4842.78704 Z M1866.15034,4832.18025 C1867.24323,4830.37627 1868.4227,4830.91377 1869.49725,4831.97881 C1870.86413,4833.33703 1869.0766,4833.83564 1868.46751,4834.33026 C1866.44266,4835.97569 1864.63679,4837.21823 1866.92443,4840.23284 C1867.90426,4841.52325 1866.49461,4843.62839 1864.89143,4844.69143 C1863.13852,4845.8542 1861.53229,4847.57042 1859.05521,4846.81353 C1858.67122,4846.69685 1858.37482,4846.30694 1858,4846.01176 C1858.71909,4844.41421 1860.15828,4843.80091 1861.4284,4842.99017 C1862.42962,4842.35194 1863.93604,4842.02186 1863.74353,4840.45722 C1863.57548,4839.09002 1862.03952,4839.36924 1861.16562,4838.8806 C1860.23976,4838.36205 1858.88205,4838.31418 1858.87187,4836.97989 C1858.85761,4835.33846 1860.5494,4835.55685 1861.53636,4835.11907 C1863.24343,4834.36018 1865.13384,4833.85858 1866.15034,4832.18025 Z M1854.5452,4827.00981 C1855.78046,4826.92417 1856.10517,4827.40768 1855.97233,4828.13079 C1855.72937,4829.43389 1854.78589,4829.9727 1853.46321,4829.99655 C1852.80584,4830.00847 1851.96909,4830.03449 1852.00088,4829.20081 C1852.06332,4827.48682 1853.90713,4827.71123 1854.5452,4827.00981 Z M1858.68439,4811.87872 C1859.17129,4811.38932 1860.10353,4810.60243 1860.4774,4811.23702 C1861.27922,4812.60266 1861.28115,4814.1805 1859.60891,4816 C1859.14907,4814.44145 1856.8856,4813.67791 1858.68439,4811.87872 Z M1598.0569,4691.33638 C1599.81631,4690.16493 1601.42157,4688.44203 1603.92914,4689.1763 C1604.31658,4689.29056 1604.61873,4689.67707 1605,4689.9672 C1604.28678,4691.5649 1602.84081,4692.18789 1601.56544,4693.00462 C1600.55933,4693.64847 1599.04348,4693.98928 1599.25005,4695.54724 C1599.43092,4696.90747 1600.97863,4696.61734 1601.8645,4697.09725 C1602.80279,4697.60696 1604.17271,4697.64472 1604.19532,4698.97316 C1604.22101,4700.60762 1602.51298,4700.40294 1601.52023,4700.84907 C1599.805,4701.61711 1597.90171,4702.13279 1596.88943,4703.81197 C1595.80316,4705.61733 1594.60692,4705.09172 1593.51551,4704.03751 C1592.12401,4702.69715 1593.92351,4702.18545 1594.53396,4701.68766 C1596.56468,4700.03233 1598.37548,4698.7804 1596.04261,4695.79564 C1595.04267,4694.51688 1596.44753,4692.40847 1598.0569,4691.33638 Z M1606.28289,4699.42791 L1605.94978,4700.09262 C1605.59712,4700.79696 1605.23857,4701.51285 1604.86586,4702.25705 C1607.56513,4702.77855 1609.73151,4701.8805 1611.8509,4700.84619 C1609.72168,4701.10708 1607.63842,4701.25106 1606.28289,4699.42791 Z M1612.18938,4689 C1612.34685,4689.64782 1612.71694,4690.31777 1613.42304,4691.00351 C1614.97163,4692.50667 1613.05896,4693.66327 1611.71698,4694.49228 C1610.04302,4695.52669 1608.07117,4696.2177 1607,4698 C1608.62682,4694.92837 1610.35795,4691.92626 1612.18938,4689 Z M1603.10093,4673 C1604.61348,4673.51387 1606.31088,4673.94548 1607.88206,4674.66957 C1609.16803,4675.26367 1611.72605,4674.94377 1610.80381,4677.64311 C1610.12406,4679.63258 1610.00679,4682.37052 1606.48281,4681.55096 C1605.18094,4681.24731 1603.27982,4680.24395 1602.07633,4682.1867 C1601.6649,4686.79935 1596.8321,4687.83826 1595.1834,4692 C1593.22662,4684.20055 1593.22662,4684.20055 1598.83558,4675.01181 C1599.60676,4676.61639 1600.32527,4678.10824 1601.04378,4679.6011 C1604.95237,4678.47587 1601.42043,4675.10423 1603.10093,4673 Z M1613.11889,4684.94619 C1613.6566,4683.80704 1614.30692,4683.87775 1615,4684.22441 C1613.99703,4685.78976 1613.02462,4687.3826 1612.08101,4689 C1611.73622,4687.49259 1612.56984,4686.11088 1613.11889,4684.94619 Z M1578.06046,4679.70315 C1579.52914,4678.34997 1579.74923,4674.7185 1583.62329,4676.46624 C1586.72754,4677.86731 1588.10338,4679.58727 1585.97129,4682.56657 C1580.68176,4680.49131 1580.68176,4680.49131 1579.89839,4685 C1578.06254,4683.38921 1575.54242,4682.0207 1578.06046,4679.70315 Z M1635.95734,4662.55818 C1634.50409,4663.87538 1633.0806,4665.22577 1631.68587,4666.60535 C1631.52021,4667.03301 1631.31586,4667.46269 1631.09366,4667.89135 C1631.17599,4669.73784 1632.39316,4670.68372 1633.83649,4671.45049 C1634.71935,4671.43237 1635.60222,4671.41426 1636.48508,4671.39514 C1636.65173,4671.43841 1636.79458,4671.51086 1636.94635,4671.57124 C1636.68447,4671.80268 1636.39679,4672.00192 1636.06845,4672.11562 C1635.49905,4672.31285 1634.90584,4672.35411 1634.29776,4672.28166 C1635.37505,4674.56888 1633.46251,4674.81038 1631.9666,4675.33766 C1632.13338,4675.64381 1632.27732,4675.95268 1632.29747,4676.27597 L1633.48129,4676.17372 C1634.53003,4675.92767 1635.56364,4675.65439 1636.45507,4675.17036 C1635.87826,4675.89944 1635.36801,4676.7707 1634.7781,4677.47254 C1635.43457,4680.45641 1635.7381,4683.68531 1639.66078,4684.34884 C1643.39288,4677.73069 1643.39288,4677.73069 1641.10985,4674.49271 C1639.75254,4673.63961 1638.76128,4673.56095 1637.96364,4673.89574 C1638.21372,4673.57406 1638.44263,4673.2191 1638.62112,4672.78852 C1638.24599,4671.8628 1637.61171,4671.23154 1636.73036,4670.87759 C1636.83524,4670.78583 1636.94919,4670.70415 1637.03994,4670.59927 C1637.53009,4670.03186 1637.85194,4669.36938 1638.07265,4668.64925 C1637.94512,4668.66852 1637.79976,4668.67755 1637.63379,4668.67422 C1637.35505,4667.49086 1637.29057,4666.19379 1636.75391,4665.14628 C1636.27875,4664.2175 1635.97222,4663.33501 1635.95734,4662.55818 Z M1638,4674 C1637.43813,4674.42642 1636.76388,4674.75396 1636,4675 C1636.58462,4674.56329 1637.2214,4674.19304 1638,4674 Z M1641.33317,4658.33284 C1640.54368,4659.31738 1639.84466,4660.40019 1638.68331,4661.03974 C1637.45722,4661.71393 1637.237,4662.95062 1637.67843,4664.27486 C1638.05552,4665.40359 1638.47448,4666.52369 1638.49838,4667.71389 C1639.27246,4667.13072 1638.60497,4665.6854 1639.20397,4664.99659 C1640.06313,4662.31021 1640.92027,4659.62383 1641.77842,4656.93845 Z M1588,4660.49904 C1594.54827,4659.47901 1594.69096,4659.5979 1593.28055,4665 C1591.03486,4663.85825 1589.507,4662.26074 1588,4660.49904 Z M1609.36487,4662.01843 C1609.70279,4661.87432 1610.27146,4662.60637 1611,4663.13553 C1609.88811,4664.08201 1609.39212,4664.74143 1608.79802,4664.9524 C1607.97046,4665.24522 1607.90869,4664.10968 1608.07311,4663.65431 C1608.31929,4662.97644 1608.83526,4662.24323 1609.36487,4662.01843 Z M1618,4662.57946 C1620.02651,4662.71875 1621.99428,4661.24315 1623.86556,4662.53234 C1624.06695,4662.67162 1624.02184,4663.68328 1623.86346,4663.74926 C1621.69954,4664.65933 1619.97931,4662.81719 1618,4662.57946 Z M1600.36487,4659.01843 C1600.70279,4658.87432 1601.27237,4659.60637 1602,4660.13553 C1600.88811,4661.08201 1600.39212,4661.74143 1599.79802,4661.9524 C1598.97046,4662.24522 1598.90869,4661.10968 1599.07311,4660.65431 C1599.3202,4659.97528 1599.83617,4659.24208 1600.36487,4659.01843 Z M1655,4653 C1653.57265,4655.00118 1651.45411,4653.72368 1649.69046,4654.12824 C1649.05108,4655.33995 1647.75082,4656.20994 1647.81144,4657.78594 C1647.54748,4657.88217 1647.30013,4657.94403 1647.0567,4658 C1647.03715,4657.91654 1647.01858,4657.83405 1647,4657.74961 C1647.02249,4655.91634 1647.88574,4654.65848 1649.46462,4653.8965 C1649.2251,4653.65102 1648.98656,4653.40554 1648.74704,4653.16005 C1648.99829,4653.40947 1649.36295,4653.5489 1649.56336,4653.84741 C1649.61616,4653.82384 1649.6621,4653.79537 1649.7149,4653.7718 C1651.43554,4653.24254 1653.3957,4654.35016 1655,4653 Z M1616,4652 C1614.18413,4653.90469 1615.46905,4656.64521 1612.80611,4656.99639 C1612.23117,4657.07297 1610.95034,4655.90784 1611.00149,4655.78531 C1611.75955,4653.92985 1613.15496,4652.81504 1616,4652 Z M1599,4650.49904 C1605.54861,4649.47901 1605.69128,4649.5979 1604.27993,4655 C1602.0356,4653.85825 1600.50792,4652.25979 1599,4650.49904 Z M1625,4645 L1630,4647.06346 L1625.54878,4650 L1625,4645 Z M1577,4647 C1578.92968,4647.4197 1580.49257,4646.9079 1580.98923,4648.68696 C1581.07922,4649.01106 1580.58597,4649.81432 1580.23512,4649.90875 C1578.44328,4650.39257 1578.04344,4648.88399 1577,4647 Z M1612.56686,4638.07914 C1614.65508,4637.40266 1618.95156,4641.21392 1619,4643.7658 C1618.62511,4644.57386 1618.06278,4645.78644 1617.50044,4647 C1616.2631,4646.41418 1614.46448,4646.24847 1614.25071,4644.73957 C1614.03062,4643.179 1613.32612,4642.81932 1611.79603,4642.86708 C1610.29858,4642.91387 1608.04187,4643.08737 1608.0008,4641.35428 C1607.94499,4639.01294 1610.81352,4638.64741 1612.56686,4638.07914 Z M1585.42006,4643 C1586.52269,4643.85779 1587.29179,4644.58499 1586.89352,4645.65511 C1586.81563,4645.86275 1585.82491,4646.09293 1585.67569,4645.9614 C1584.79578,4645.18817 1584.84625,4644.23924 1585.42006,4643 Z M1600.10597,4637.0222 C1600.83999,4636.50884 1601.50892,4635.75659 1602.55338,4636.07681 C1602.7146,4636.12662 1602.84078,4636.29638 1603,4636.42345 C1602.70259,4637.12182 1602.09975,4637.39425 1601.568,4637.75208 C1601.14942,4638.03366 1600.51754,4638.18208 1600.60366,4638.86317 C1600.67977,4639.45887 1601.32366,4639.3318 1601.69218,4639.54222 C1602.08372,4639.76485 1602.65452,4639.78213 1602.66353,4640.36258 C1602.67555,4641.07823 1601.96356,4640.98877 1601.54998,4641.18395 C1600.83498,4641.52043 1600.04188,4641.74508 1599.62029,4642.48005 C1599.16766,4643.26991 1598.66997,4643.04017 1598.21433,4642.57967 C1597.63552,4641.99211 1598.38457,4641.76847 1598.63892,4641.55092 C1599.4841,4640.82612 1600.23915,4640.27922 1599.2668,4638.97296 C1598.85022,4638.41385 1599.43603,4637.49184 1600.10597,4637.0222 Z M1631,4634 C1634.70211,4635.23916 1634.70211,4635.23916 1632.49886,4641 C1630.94497,4638.47996 1631.39723,4636.2405 1631,4634 Z M1647.52969,4638.00002 L1647.72097,4638.00442 C1648.89062,4638.06256 1649.58817,4638.63546 1650,4639.61215 C1649.5904,4641.08986 1648.35602,4641.08246 1647.15289,4640.9387 C1646.29909,4640.83723 1644.74105,4641.315 1645.03681,4639.78761 C1645.24663,4638.69782 1646.30132,4637.93466 1647.72097,4638.00442 Z M1668,4633 C1664.55098,4638.13688 1660.48235,4639.84108 1656.0451,4638.6244 C1656.03039,4638.25084 1656.01569,4637.87729 1656,4637.50374 C1660.05196,4637.16817 1663.49216,4634.61767 1668,4633 Z M1576,4633 C1578.78431,4634.76505 1578.23427,4636.33686 1576.91909,4638 C1576.64877,4636.52721 1576.37728,4635.05441 1576,4633 Z M1594,4632 C1593.27434,4633.36876 1594.6097,4636.18969 1592.00692,4635.98992 C1590.96871,4635.91089 1589.7638,4635.40598 1590.04011,4634.0449 C1590.47225,4631.9089 1592.41188,4632.36332 1594,4632 Z M1678.68984,4629 C1678.95454,4629.2206 1679.04954,4629.44804 1678.97589,4629.68133 C1678.90224,4629.91853 1678.82326,4630.03664 1678.73894,4630.03664 C1677.20194,4631.67359 1678.88516,4636.06417 1673.90807,4634.76203 C1672.9197,4634.50238 1671.2354,4635.38186 1671.04008,4634.00944 C1670.85756,4632.71999 1671.32079,4631.207 1671.97615,4630.01126 C1672.47674,4629.09859 1673.90273,4628.7179 1674.95195,4629.46463 C1676.48254,4630.55788 1677.58939,4630.12351 1678.68984,4629 Z M1642.56792,4625.07914 C1644.65508,4624.40266 1648.95156,4628.21392 1649,4630.7658 C1648.62511,4631.57386 1648.06278,4632.78644 1647.50044,4634 C1646.2631,4633.41418 1644.46448,4633.24847 1644.25176,4631.73957 C1644.03062,4630.179 1643.32717,4629.81932 1641.79708,4629.86708 C1640.29963,4629.91387 1638.04187,4630.08737 1638.0008,4628.35525 C1637.94499,4626.01294 1640.81352,4625.64741 1642.56792,4625.07914 Z M1659,4627 L1664,4629.06504 L1659.54866,4632 L1659,4627 Z M1615.41931,4629 C1616.5235,4629.85766 1617.29182,4630.58568 1616.89339,4631.65469 C1616.81656,4631.86229 1615.82432,4632.09244 1615.67615,4631.96187 C1614.79587,4631.18782 1614.84636,4630.23998 1615.41931,4629 Z M1601.42018,4628 C1602.52315,4628.85779 1603.29247,4629.58499 1602.89299,4630.65511 C1602.81617,4630.86275 1601.82515,4631.09293 1601.6759,4630.9614 C1600.79572,4630.18817 1600.84621,4629.24018 1601.42018,4628 Z M1654.02469,4622.38436 C1654.16059,4621.06198 1654.08926,4618.71174 1655.7258,4619.02916 C1657.67364,4619.40627 1660.81853,4619.98338 1660.99105,4622.19033 C1661.18285,4624.63908 1658.24325,4623.32764 1656.82261,4623.91371 C1655.6911,4623.62615 1653.75964,4624.93559 1654.02469,4622.38436 Z M1624,4619 C1623.2736,4620.36876 1624.60866,4623.18969 1622.00647,4622.98992 C1620.96849,4622.91089 1619.76385,4622.40598 1620.0401,4621.0449 C1620.47214,4618.9089 1622.41133,4619.36332 1624,4619 Z M1606.41931,4616 C1607.5235,4616.85859 1608.29182,4617.58567 1607.89339,4618.65562 C1607.81656,4618.86229 1606.82432,4619.09244 1606.67615,4618.96186 C1605.79587,4618.18781 1605.84636,4617.23998 1606.41931,4616 Z M1601,4611 C1600.36916,4611.31019 1600.11646,4611.9743 1599.27411,4611.99998 C1599.18347,4612.00275 1598.97197,4611.7682 1599.0031,4611.72587 C1599.44075,4611.15683 1600.36092,4611.28035 1601,4611 Z" id="GEO-Shape-1"></path>
        </g>
    </g>
</svg>