<?xml version="1.0" encoding="UTF-8"?>
<svg width="426px" height="423px" viewBox="0 0 426 423" version="1.1" xmlns="http://www.w3.org/2000/svg" xmlns:xlink="http://www.w3.org/1999/xlink">
    <title>Shape 14</title>
    <g id="Page-1" stroke="none" stroke-width="1" fill="none" fill-rule="evenodd">
        <g id="Desktop-HD" transform="translate(-3842.000000, -1986.000000)" fill="#000000">
            <path d="M3921.5,2250 L4001,2329.5 L3921.5,2409 L3842,2329.5 L3921.5,2250 Z M4080.5,2364 L4097,2380.5 L4080.5,2397 L4064,2380.5 L4080.5,2364 Z M4056.5,2065 L4211,2219.5 L4056.5,2374 L3902,2219.5 L4056.5,2065 Z M4219,2226 L4268,2275 L4219,2324 L4170,2275 L4219,2226 Z M3896.5,2121 L3942,2166.5 L3896.5,2212 L3851,2166.5 L3896.5,2121 Z M4136.5,1986 L4209,2058.5 L4136.5,2131 L4064,2058.5 L4136.5,1986 Z M3896.5,2087 L3910,2100.5 L3896.5,2114 L3883,2100.5 L3896.5,2087 Z" id="Shape-14"></path>
        </g>
    </g>
</svg>