<?xml version="1.0" encoding="UTF-8"?>
<svg width="308px" height="291px" viewBox="0 0 308 291" version="1.1" xmlns="http://www.w3.org/2000/svg" xmlns:xlink="http://www.w3.org/1999/xlink">
    <title>Paint 3</title>
    <g id="Page-1" stroke="none" stroke-width="1" fill="none" fill-rule="evenodd">
        <g id="Desktop-HD" transform="translate(-5840.000000, -4352.000000)" fill="#000000">
            <path d="M6006.10124,4352 C6006.74977,4353.99072 6007.19684,4355.3699 6007.49809,4356.29106 C6010.46255,4356.36859 6013.16522,4356.43921 6015.76359,4356.50735 L6016.345,4356.522 L6016.149,4356.84327 C6016.01732,4357.05901 6015.88589,4357.27491 6015.75445,4357.49112 C6018.36011,4359.78122 6020.96385,4362.0726 6023.57143,4364.36398 C6024.05303,4364.17719 6024.53464,4363.9904 6025.01624,4363.80361 L6020.606,4356.634 L6020.628,4356.635 L6021.57356,4357.26057 C6024.03521,4358.88899 6026.57314,4360.56616 6029.75939,4362.67263 C6029.78625,4362.66623 6030.8147,4362.3707 6032.20387,4361.97281 C6034.23007,4363.76267 6036.31383,4365.6037 6038.11553,4367.19526 C6043.71635,4367.66735 6048.98715,4368.11002 6055.51856,4368.66143 C6056.42229,4368.30448 6058.61542,4367.43962 6060.42672,4366.72572 C6063.70394,4368.42347 6066.55328,4369.89988 6069.40262,4371.37629 L6069.22417,4371.41467 L6074.29662,4372.78089 L6074.29662,4372.78089 L6079.129,4374.081 L6079.47409,4373.50097 C6079.85679,4372.85694 6080.24354,4372.20661 6080.64647,4371.53109 C6100.63982,4379.87269 6108.25724,4394.03932 6119.43394,4407.7249 C6120.13017,4405.31356 6120.49574,4404.05455 6120.84224,4402.8504 L6120.849,4402.825 L6120.88028,4402.84327 C6125.86562,4405.88047 6124.24864,4409.38781 6121.86499,4413.05482 C6123.42877,4414.46982 6124.95034,4415.84516 6126.83647,4417.55186 C6125.68714,4418.87218 6124.41885,4420.33324 6123.14864,4421.7943 C6123.5957,4424.63326 6124.04277,4427.47093 6124.48792,4430.30861 C6124.93691,4430.39049 6125.38589,4430.47237 6125.83488,4430.55425 C6128.21029,4426.69179 6130.5857,4422.8306 6133.78425,4417.6299 C6135.39216,4419.62318 6137.18427,4420.78231 6136.98472,4421.76615 C6135.28471,4430.24976 6133.41201,4438.72313 6131.1901,4447.15299 C6130.20387,4450.89136 6128.29855,4454.52353 6126.74437,4458.36553 C6126.26276,4458.08406 6125.1,4457.40087 6122.61906,4455.94493 C6118.72209,4466.96939 6115.04001,4477.39126 6111.01448,4488.78163 C6113.61438,4487.94491 6115.11676,4487.4613 6117.27727,4486.76788 C6117.00865,4488.31465 6116.9012,4489.60811 6116.55198,4490.87215 C6112.81235,4504.37989 6105.63431,4517.46289 6094.22928,4528.44897 C6076.80898,4545.2281 6070.35623,4565.06113 6055.8908,4582.52858 C6054.11596,4584.67155 6053.96438,4587.41199 6053.29282,4589.23895 C6050.00025,4591.33203 6047.14323,4592.91591 6044.69107,4594.74415 C6035.07048,4601.92406 6025.57652,4609.18073 6016.52387,4616.03824 C6002.51318,4615.1657 5998.21135,4621.88247 5992.95782,4625.77564 C5984.93938,4628.62099 5978.3504,4630.95971 5971.64246,4633.34064 C5971.19923,4632.28771 5970.58907,4630.84072 5969.79663,4628.95747 C5967.60542,4629.53447 5965.8843,4629.98865 5964.12865,4630.45179 C5964.78486,4631.39214 5965.21466,4632.00624 5965.7404,4632.76236 C5963.59907,4633.66305 5961.63812,4634.48697 5960.18371,4635.0998 C5957.90999,4637.81849 5955.9356,4640.18024 5953.95929,4642.53942 C5953.04213,4642.43451 5952.12497,4642.32832 5951.20973,4642.22213 L5949.92992,4637.3496 L5949.92992,4637.3496 L5948.691,4632.632 L5947.70901,4633.51325 C5944.5223,4636.37365 5941.31454,4639.25439 5937.90514,4642.31809 C5935.1479,4641.13082 5933.04687,4640.22629 5930.78275,4639.25268 C5928.16749,4640.58452 5925.8554,4641.76283 5923.42819,4643 C5918.60638,4641.79994 5913.93231,4640.63825 5909.20836,4639.46378 L5908.44623,4638.63562 C5907.42668,4637.52761 5906.36784,4636.37637 5904.96025,4634.8452 C5900.79465,4635.50664 5896.29135,4636.16297 5891.83794,4636.94851 C5887.26557,4637.7558 5882.53394,4639.71198 5878.24362,4639.32689 C5872.09787,4638.77291 5864.64738,4637.59204 5860.68325,4634.81833 C5852.56503,4629.13658 5843.12671,4623.88599 5840.99499,4615.05695 C5838.90355,4606.38783 5840.8127,4597.85306 5840.47501,4589.26454 C5840.07974,4579.23288 5840.29656,4569.19227 5840.24284,4558.09488 C5840.79735,4557.5665 5842.28055,4556.15277 5843.76566,4554.73777 C5843.36464,4554.69939 5842.96362,4554.66101 5842.56452,4554.62391 C5843.09601,4551.84253 5843.68699,4549.06498 5844.14941,4546.27848 C5845.24309,4539.67429 5846.45382,4533.07522 5847.21364,4526.45441 C5847.39401,4524.86029 5845.68057,4523.20861 5845.41194,4521.54285 C5845.12605,4519.74531 5845.51363,4517.89788 5845.60765,4516.07475 L5845.42537,4516.02102 C5850.36231,4515.22652 5851.58839,4512.6588 5851.5692,4509.81472 C5851.5078,4500.36646 5853.22892,4495.63658 5859.53584,4488.68568 C5859.85136,4486.19173 5860.13505,4483.95151 5860.41386,4481.73768 L5860.514,4480.938 L5860.74909,4480.96042 C5864.17989,4481.24171 5864.32067,4479.42613 5864.99467,4477.74693 C5869.04131,4467.68329 5872.89799,4457.5787 5877.47036,4447.62125 C5879.42557,4443.36729 5883.17864,4439.49587 5885.69028,4435.33787 C5887.52844,4432.29933 5888.62404,4429.06377 5890.14369,4425.93695 C5896.87465,4412.09144 5903.64207,4398.25489 5910.39414,4384.41578 C5910.96785,4384.58338 5911.54155,4384.75098 5912.11526,4384.91986 C5914.36979,4382.28177 5917.26326,4379.79081 5918.73493,4376.96976 C5921.16599,4372.30384 5924.23598,4368.58083 5931.84189,4366.67199 C5936.3663,4365.53845 5940.05797,4362.92979 5944.64569,4360.73308 C5954.3085,4362.4884 5962.82582,4358.76027 5970.42214,4355.56693 C5982.15144,4350.6349 5994.20884,4353.01071 6006.10124,4352 Z M5950.95837,4629.90421 L5950.69934,4629.90933 C5950.01627,4630.76524 5949.33319,4631.62115 5948.65012,4632.47706 L5948.65012,4632.47706 L5948.691,4632.632 L5948.90339,4632.44123 C5949.24589,4632.0184 5949.58838,4631.59556 5949.93088,4631.17272 L5950.95837,4629.90421 Z M5954.03796,4579.17531 C5950.62643,4582.51834 5951.06582,4585.60934 5954.74406,4588.16043 C5954.58096,4590.65012 5954.44665,4592.67282 5954.25478,4595.61285 C5959.39126,4589.53705 5959.04397,4582.09999 5954.03796,4579.17531 Z M5840.8305,4544 L5840.76062,4544.49973 L5840.76062,4544.49973 L5840.715,4544.825 L5840.5,4544.54718 C5840.3855,4544.39941 5840.271,4544.25165 5840.1565,4544.10388 C5840.3805,4544.06876 5840.6055,4544.03365 5840.8305,4544 Z M5840.7065,4528 C5840.5945,4528.3338 5840.4835,4528.6669 5840.3715,4529 L5840.534,4528.513 L5840.6835,4528.5705 L5840.524,4528.542 L5840.3715,4529 L5840.2935,4528.93578 C5840.33354,4528.79883 5840.37398,4528.66161 5840.41454,4528.52429 L5840.3945,4528.5205 L5840.3165,4528.4295 L5840.42964,4528.47317 C5840.47626,4528.31545 5840.52301,4528.15763 5840.5695,4528 L5840.5695,4528 Z M5947.0518,4507.83168 C5946.47234,4507.88285 5945.8948,4507.93531 5945.31534,4507.98648 L5946.82923,4511.07236 C5947.23792,4510.98024 5947.65045,4510.89069 5948.06106,4510.79985 C5947.72528,4509.8096 5947.3895,4508.82192 5947.0518,4507.83168 Z M6111.54981,4491.59884 C6111.50568,4491.87262 6111.45963,4492.14513 6111.4155,4492.41636 C6111.50568,4492.42404 6111.59586,4492.43172 6111.68796,4492.43939 L6111.89902,4491.63978 L6111.89902,4491.63978 L6111.54981,4491.59884 Z M6023.35653,4475.59117 C6023.07447,4478.24717 6022.93824,4479.52528 6022.80201,4480.8021 C6023.23757,4480.79315 6023.6712,4480.78419 6024.10676,4480.77396 C6024.5404,4480.11635 6025.31557,4479.46003 6025.30789,4478.80498 C6025.30022,4478.12435 6024.53848,4477.445 6023.35653,4475.59117 Z M6146.463,4460.167 L6146.32203,4460.00654 C6151.00881,4465.20702 6144.668,4469.44663 6142,4474 C6142.33205,4469.35957 6142.88925,4464.73887 6146.28982,4460.38359 L6146.463,4460.167 Z M6038.25,4463.579 L6038.36497,4463.39735 C6037.39792,4464.93901 6036.42895,4466.48067 6035.45998,4468.02233 C6036.05671,4468.12212 6036.65153,4468.22319 6037.24634,4468.32426 L6037.7855,4465.77748 L6037.7855,4465.77748 L6038.25,4463.579 Z M6145.522,4459 L6145.632,4459.99654 L6145.512,4460 L6145.368,4459.00484 L6145.522,4459 L6145.522,4459 Z M6032.04461,4457.28061 C6031.7357,4457.95228 6031.42486,4458.62524 6031.11594,4459.2982 L6032.34586,4459.53616 L6032.34586,4459.53616 C6032.64134,4458.85937 6032.93875,4458.18385 6033.23616,4457.50578 C6032.83898,4457.4303 6032.44179,4457.35481 6032.04461,4457.28061 Z M6119.07705,4428.3294 C6118.85256,4428.40872 6118.42084,4428.53026 6118.43619,4428.56353 C6118.56283,4428.85011 6118.76814,4429.12262 6118.95234,4429.39897 C6119.17491,4429.31836 6119.3994,4429.24032 6119.62582,4429.15972 L6119.07705,4428.3294 L6119.07705,4428.3294 Z M6112.47273,4424.21362 C6112.16765,4425.09639 6111.8664,4425.98173 6111.56324,4426.86578 L6113.11551,4427.10631 C6113.42251,4426.22225 6113.72951,4425.33948 6114.03651,4424.45414 C6113.51653,4424.37482 6112.99271,4424.29294 6112.47273,4424.21362 Z M6117.86938,4400 L6119.508,4402.623 L6117,4400.86823 L6117,4400.86823 C6117.29162,4400.5782 6117.57959,4400.28818 6117.86938,4400 Z M6079.129,4374.081 L6079.09229,4374.1436 C6079.74274,4374.96113 6080.3932,4375.77737 6081.04557,4376.59362 L6081.04557,4376.59362 L6081.30652,4376.8559 L6081.34106,4376.57443 C6080.68293,4375.76458 6080.02672,4374.95601 6079.37051,4374.14616 L6079.37051,4374.14616 L6079.129,4374.081 Z M6016.54498,4356.19638 C6017.98596,4356.34479 6019.42693,4356.49192 6020.86791,4356.64161 L6020.593,4356.613 L6020.606,4356.634 L6020.02463,4356.61936 C6018.8997,4356.5897 6017.77145,4356.56003 6016.62606,4356.52997 L6016.345,4356.522 Z" id="Paint-3"></path>
        </g>
    </g>
</svg>