<?xml version="1.0" encoding="UTF-8"?>
<svg width="309px" height="335px" viewBox="0 0 309 335" version="1.1" xmlns="http://www.w3.org/2000/svg" xmlns:xlink="http://www.w3.org/1999/xlink">
    <title>Paint 4</title>
    <g id="Page-1" stroke="none" stroke-width="1" fill="none" fill-rule="evenodd">
        <g id="Desktop-HD" transform="translate(-4943.000000, -4514.000000)" fill="#000000">
            <path d="M5188.85449,4761.20469 C5189.19085,4761.51372 5188.9234,4761.85304 5188.26519,4761.95087 C5187.60789,4762.04793 5187.03581,4761.99668 5187.00679,4761.83673 C5186.88984,4761.1946 5188.31414,4760.70698 5188.85449,4761.20469 L5188.85449,4761.20469 Z M5180.35408,4762.22406 C5179.5524,4760.76535 5180.22512,4759.89757 5181.24529,4761.07307 C5181.87038,4761.79471 5182.12008,4761.76839 5182.493,4760.94054 C5182.80923,4760.23887 5183.6101,4759.93932 5184.98019,4760.01012 L5187,4760.11633 L5185.47877,4761.38079 C5183.34807,4763.15176 5181.07034,4763.52665 5180.35408,4762.22406 L5180.35408,4762.22406 Z M5173.44933,4761.8404 C5172.62944,4760.2383 5172.89597,4759.80916 5174.5437,4760.07177 C5176.04581,4760.31196 5176.59034,4762.76916 5175.18973,4762.98853 C5174.58694,4763.08301 5173.82971,4762.58421 5173.44933,4761.8404 L5173.44933,4761.8404 Z M5157.12718,4758.62577 C5156.8193,4758.37739 5157.09054,4758.10228 5157.72375,4758.02079 C5158.35608,4757.9393 5158.93173,4758.10489 5158.99103,4758.38522 C5159.05209,4758.67923 5158.79567,4758.9387 5158.39446,4758.9902 C5157.99238,4759.0417 5157.44988,4758.88589 5157.12718,4758.62577 L5157.12718,4758.62577 Z M5143.01689,4758.40783 C5142.83406,4757.08336 5144.18219,4756.45898 5144.79901,4757.58328 C5145.19421,4758.30619 5144.99938,4758.82374 5144.27822,4758.96479 C5143.60878,4759.0934 5143.07968,4758.86108 5143.01689,4758.40783 L5143.01689,4758.40783 Z M5147.93722,4760.43882 C5147.76591,4760.73758 5147.52234,4760.97754 5147.36741,4760.99832 C5147.21323,4761.01971 5147.0583,4760.83439 5147.00616,4760.56712 C5146.95625,4760.31172 5147.21546,4760.05691 5147.57523,4760.00762 C5147.93573,4759.95832 5148.0996,4760.15373 5147.93722,4760.43882 L5147.93722,4760.43882 Z M5154.94746,4761.43411 C5154.78446,4761.73264 5154.54069,4761.9742 5154.3777,4761.99794 C5154.214,4762.02168 5154.05455,4761.83828 5154.00494,4761.57061 C5153.95959,4761.32609 5154.23242,4761.05723 5154.57541,4761.00738 C5154.91769,4760.95812 5155.09556,4761.16169 5154.94746,4761.43411 L5154.94746,4761.43411 Z M5141.97517,4768.87957 C5142.09613,4769.43796 5141.76434,4769.9246 5141.21598,4769.99223 C5140.66646,4770.05987 5140.14689,4769.67881 5140.02477,4769.12041 C5139.90381,4768.56285 5140.23675,4768.07621 5140.78512,4768.00775 C5141.33348,4767.94012 5141.8542,4768.322 5141.97517,4768.87957 L5141.97517,4768.87957 Z M5099.74528,4817.29148 C5100.39998,4817.617 5100.96679,4818.2063 5100.9926,4818.58748 C5101.02807,4819.11045 5100.94019,4819.13256 5100.63944,4818.67439 C5100.41449,4818.33133 5099.44776,4818.32066 5098.43427,4818.65152 C5096.72415,4819.20956 5096.679,4819.17297 5097.58767,4817.96616 C5098.39395,4816.89353 5098.73501,4816.78604 5099.74528,4817.29148 L5099.74528,4817.29148 Z M5123.73255,4812.02822 C5124.23355,4812.35694 5123.85355,4814.90176 5123.28955,4814.9985 C5123.06455,4815.037 5122.97155,4814.32923 5123.07855,4813.39639 C5123.18655,4812.46453 5123.47555,4811.85942 5123.73255,4812.02822 L5123.73255,4812.02822 Z M5096.71665,4823 L5096.22693,4821.30398 C5095.96315,4820.38947 5095.92293,4819.43125 5096.13999,4819.22812 C5096.84322,4818.56775 5097.15373,4819.37022 5096.92662,4821.25843 L5096.71665,4823 Z M5091.94933,4824.64176 C5092.14534,4826.06121 5091.8195,4826.45816 5090.14005,4826.84383 C5088.99669,4827.10533 5088.051,4827.03102 5088.00242,4826.67639 C5087.91112,4826.017 5090.42736,4823.1593 5091.23651,4823.00221 C5091.4878,4822.95329 5091.82201,4823.72369 5091.94933,4824.64176 L5091.94933,4824.64176 Z M5087.00482,4820.63599 C5086.95158,4820.365 5087.34505,4820.09584 5087.90517,4820.01972 C5088.46451,4819.9436 5088.94131,4820.09402 5088.99531,4820.36439 C5089.04778,4820.63477 5088.65431,4820.90394 5088.09419,4820.98006 C5087.53485,4821.05679 5087.05805,4820.90576 5087.00482,4820.63599 L5087.00482,4820.63599 Z M5061.98854,4839.4091 C5062.07028,4839.68962 5061.7071,4839.93904 5061.14307,4839.99067 C5060.57786,4840.04291 5060.09323,4839.87124 5060.01149,4839.59072 C5059.92974,4839.31021 5060.29176,4839.06141 5060.85696,4839.00916 C5061.421,4838.95754 5061.90679,4839.12858 5061.98854,4839.4091 L5061.98854,4839.4091 Z M5152.13329,4754.46385 C5151.80975,4754.08081 5152.08987,4753.90933 5152.81443,4754.04726 C5154.11797,4754.29517 5154.41086,4754.78911 5153.37042,4754.98576 C5152.97791,4755.06031 5152.44832,4754.83571 5152.13329,4754.46385 L5152.13329,4754.46385 Z M5146.11503,4754.90255 C5146.27604,4754.26148 5146.5854,4753.8809 5146.81969,4754.03367 C5147.04764,4754.18113 5147.0612,4754.67474 5146.85044,4755.11889 C5146.24529,4756.39309 5145.77311,4756.25445 5146.11503,4754.90255 L5146.11503,4754.90255 Z M5213.41161,4725.87577 C5212.48967,4725.66784 5211.86088,4725.35594 5212.02649,4725.18973 C5212.48613,4724.73078 5214.88351,4725.17879 5214.99687,4725.74376 C5215.05355,4726.02351 5214.33266,4726.08439 5213.41161,4725.87577 L5213.41161,4725.87577 Z M5228.85732,4720.00913 C5229.42276,4719.95753 5229.90759,4720.12913 5229.9882,4720.40954 C5230.07115,4720.68932 5229.70899,4720.93864 5229.14355,4720.99087 C5228.5781,4721.04247 5228.09327,4720.87087 5228.01149,4720.59108 C5227.92972,4720.31068 5228.29188,4720.06136 5228.85732,4720.00913 L5228.85732,4720.00913 Z M5038.59748,4769.94761 C5037.69653,4769.85024 5036.54687,4769.55647 5036.14828,4769.3213 C5035.66816,4769.03743 5035.69698,4768.82536 5036.22817,4768.73459 C5036.69511,4768.65372 5036.99076,4768.15614 5036.90347,4767.59914 C5036.82276,4767.0735 5036.21911,4766.69805 5035.62122,4766.80119 C5034.72768,4766.9555 5034.78286,4766.66999 5035.88557,4765.42727 C5037.90489,4763.15142 5038.74078,4763.5244 5039.57584,4767.07268 C5040.26679,4770.0095 5040.22726,4770.1242 5038.59748,4769.94761 L5038.59748,4769.94761 Z M5034.76544,4770.95087 C5033.87066,4771.07418 5033.05457,4770.95651 5033.00413,4770.69699 C5032.94966,4770.41491 5033.43891,4770.13847 5034.17027,4770.03772 C5034.90163,4769.93698 5035.64105,4770.04336 5035.93057,4770.29321 C5036.19991,4770.5221 5035.65921,4770.82836 5034.76544,4770.95087 L5034.76544,4770.95087 Z M5030.11154,4765.98228 C5029.84725,4765.84397 5030.06731,4765.20207 5030.6163,4764.51141 C5031.16643,4763.82163 5031.19592,4762.93503 5030.68322,4762.48464 C5030.00946,4761.8915 5030.12289,4761.84894 5031.12106,4762.32328 C5032.16234,4762.81623 5032.25421,4763.33311 5031.52487,4764.59386 C5031.01103,4765.48489 5030.36903,4766.11527 5030.11154,4765.98228 L5030.11154,4765.98228 Z M5032.59874,4757.78836 C5031.66403,4757.08548 5031.76041,4757.04563 5033.33887,4757.48228 C5035.86294,4758.18092 5038.2179,4757.75105 5036.77037,4756.85571 C5035.51197,4756.07652 5034.57181,4751.19028 5035.64745,4751.01732 C5036.08753,4750.9461 5036.44032,4751.09871 5036.53033,4751.39886 C5038.41339,4757.63744 5038.43975,4758.15633 5036.87948,4758.40815 C5035.67018,4758.60231 5035.37013,4759.0432 5035.68109,4760.17086 C5036.42395,4762.86367 5036.28302,4764.11767 5035.25011,4763.99133 C5034.64182,4763.91587 5034.13992,4762.83909 5033.96352,4761.23238 C5033.80077,4759.75371 5033.20248,4758.24112 5032.59874,4757.78836 L5032.59874,4757.78836 Z M5028.04895,4758.35657 C5028.20087,4757.70456 5028.66246,4757.07682 5029.03932,4757.00909 C5029.90309,4756.85544 5030.35008,4758.68813 5029.66743,4759.59082 C5028.93318,4760.56428 5027.74415,4759.65956 5028.04895,4758.35657 L5028.04895,4758.35657 Z M5238.97116,4708.12274 C5239.07169,4709.05382 5238.90039,4709.90667 5238.59746,4709.98203 C5238.27667,4710.06121 5238.02203,4709.87232 5238.00152,4709.5413 C5237.98234,4709.21504 5238.14637,4708.4013 5238.37655,4707.68201 C5238.70064,4706.66794 5238.82432,4706.76047 5238.97116,4708.12274 L5238.97116,4708.12274 Z M5217.60382,4716.40064 C5218.55213,4716.27875 5218.88053,4716.40231 5218.35959,4716.68616 C5217.6605,4717.06686 5217.6857,4717.3741 5218.46126,4717.9585 C5219.28901,4718.58215 5219.19364,4718.775 5217.96101,4718.97287 C5217.06039,4719.11646 5216.16516,4718.67983 5215.77108,4717.90591 C5215.40849,4717.19126 5214.80478,4716.81891 5214.44309,4717.08857 C5214.09039,4717.35072 5213.50467,4717.17373 5213.18797,4716.70954 C5212.87217,4716.24452 5212.96484,4715.55325 5213.38681,4715.22765 C5213.84927,4714.872 5214.02111,4714.93879 5213.80068,4715.38794 C5213.36342,4716.28042 5215.054,4716.73125 5217.60382,4716.40064 L5217.60382,4716.40064 Z M5018.65287,4752.00654 C5018.85852,4751.21408 5018.40815,4750.80254 5017.23849,4750.71429 C5015.86598,4750.60983 5015.54775,4750.16227 5015.64731,4748.4783 C5015.72548,4747.14553 5015.44074,4746.42871 5014.87126,4746.52327 C5014.34645,4746.61152 5013.91842,4746.34947 5013.84677,4745.8956 C5013.77605,4745.46065 5014.16966,4745.27244 5014.74099,4745.46876 C5015.45377,4745.7146 5015.48354,4745.24093 5014.84149,4743.88924 C5013.00838,4740.02601 5012.55801,4738.15473 5013.42711,4738.00975 C5014.60142,4737.81433 5015.97206,4740.57263 5016.8728,4744.93925 C5017.01889,4745.65426 5017.7968,4746.03518 5018.77105,4745.87219 C5019.67086,4745.7227 5020.2515,4745.95684 5020.04771,4746.38909 C5019.83463,4746.84115 5019.32471,4747.05998 5018.85945,4746.89968 C5018.39326,4746.73939 5018.14109,4747.22837 5018.27229,4748.04064 C5018.4035,4748.85201 5018.86875,4749.59404 5019.3582,4749.76964 C5019.82625,4749.93714 5020.16217,4749.73993 5020.09703,4749.33379 C5019.89325,4748.06496 5021.38486,4748.21444 5021.91619,4749.5166 C5022.18883,4750.18568 5021.77754,4751.16365 5020.95497,4751.79852 C5018.96832,4753.3321 5018.2937,4753.39334 5018.65287,4752.00654 L5018.65287,4752.00654 Z M5015.97762,4734.05337 C5015.4875,4731.04317 5014.88093,4729.38198 5014.23092,4729.27559 C5013.567,4729.16572 5013.34105,4729.79967 5013.55309,4731.17571 C5013.72689,4732.28928 5013.53919,4733.11246 5013.14727,4732.96248 C5012.74144,4732.80639 5012.27478,4731.43122 5012.08969,4729.8485 C5011.85853,4727.8699 5011.33713,4726.81912 5010.36384,4726.3709 C5008.96995,4725.72997 5008.28691,4724.58152 5009.58608,4725.06375 C5009.9528,4725.19978 5010.38209,4724.82918 5010.50635,4724.26847 C5010.64192,4723.6598 5010.25869,4723.1331 5009.59303,4723.01451 C5008.77356,4722.86801 5008.51546,4722.25934 5008.68752,4720.8833 C5008.87697,4719.37035 5008.72315,4719.12706 5007.97233,4719.74619 C5006.05791,4721.32192 5005.20107,4721.19635 5005.40007,4719.36686 C5005.59473,4717.58446 5004.28948,4717.07607 5003.96447,4718.8079 C5003.86193,4719.35814 5003.36051,4719.18199 5002.68616,4718.35707 C5001.72157,4717.1781 5001.75198,4716.91824 5002.91732,4716.36538 C5003.64815,4716.01919 5004.33119,4715.04427 5004.41896,4714.22196 C5004.51455,4713.32989 5004.95601,4712.85464 5005.49827,4713.05956 C5005.99187,4713.24618 5006.3134,4713.82694 5006.19608,4714.31788 C5006.07963,4714.80447 5006.35945,4715.63463 5006.7957,4716.09767 C5007.3536,4716.69064 5007.48134,4716.11424 5007.19718,4714.27864 C5006.85131,4712.05064 5006.97558,4711.6966 5007.91845,4712.20237 C5008.54153,4712.53723 5009.45486,4714.02227 5009.93716,4715.48639 C5010.42032,4716.9505 5011.08772,4718.1129 5011.41447,4718.05622 C5011.736,4718.00041 5012.03754,4719.09218 5012.0697,4720.43247 C5012.12531,4722.71017 5012.28608,4722.88371 5014.05625,4722.57763 C5015.38757,4722.34654 5016.03932,4722.60815 5016.16533,4723.42261 C5016.30784,4724.34085 5016.16359,4724.41061 5015.51965,4723.73741 C5014.4473,4722.61687 5012.41296,4723.80368 5012.73449,4725.36372 C5012.88135,4726.07703 5013.08817,4726.21219 5013.22461,4725.68201 C5013.59307,4724.24754 5014.47163,4724.45682 5014.86008,4726.0718 C5015.06256,4726.91068 5015.60308,4727.66585 5016.03932,4727.7173 C5016.46861,4727.76874 5016.91615,4728.2719 5016.99784,4728.79685 C5017.07865,4729.32093 5017.5792,4729.73689 5018.07019,4729.68718 C5018.77843,4729.61655 5018.79233,4729.70724 5018.13102,4730.08046 C5017.66784,4730.34207 5017.32024,4730.88272 5017.37759,4731.25332 C5017.43929,4731.6466 5017.77125,4731.70503 5018.15361,4731.38849 C5018.53685,4731.07194 5018.86707,4731.11642 5018.92529,4731.48964 C5018.97917,4731.84368 5018.63244,4732.3852 5018.17186,4732.66338 C5017.64959,4732.97992 5017.81036,4733.1177 5018.58551,4733.01567 C5020.06717,4732.82295 5020.60856,4734.13011 5019.15992,4734.39869 C5018.53511,4734.51467 5018.63591,4734.7318 5019.48319,4735.09369 C5020.46865,4735.51574 5020.39131,4735.6169 5019.09388,4735.59858 C5017.5679,4735.57853 5017.53575,4735.73462 5018.56813,4738.24603 C5019.16166,4739.69183 5019.55967,4741.36698 5019.43453,4741.89803 C5019.0878,4743.37349 5020.51297,4742.78749 5021.69482,4740.96934 C5022.8758,4739.14944 5023.79694,4738.80063 5023.99768,4740.09906 C5024.12021,4740.88475 5019.34242,4744.37282 5018.69935,4743.96733 C5018.569,4743.88536 5018.06498,4742.64012 5017.59397,4741.2414 C5017.11515,4739.81653 5016.39214,4736.60489 5015.97762,4734.05337 L5015.97762,4734.05337 Z M5013.04261,4735.10001 C5013.15357,4734.52191 5013.42466,4734.06325 5013.69071,4734.00592 C5013.95676,4733.94779 5014.06835,4734.32284 5013.95739,4734.90015 C5013.84643,4735.47666 5013.57471,4735.93531 5013.30929,4735.99424 C5013.04324,4736.05157 5012.93165,4735.67573 5013.04261,4735.10001 L5013.04261,4735.10001 Z M5011.78642,4711.9587 C5011.96242,4712.86492 5011.83842,4713.24526 5011.50142,4712.83597 C5011.19242,4712.46046 5011.04342,4711.68932 5011.19142,4711.23501 C5011.35342,4710.73807 5011.61142,4711.05248 5011.78642,4711.9587 L5011.78642,4711.9587 Z M5029.11655,4732.22723 C5029.93016,4732.76697 5034.61157,4743.1477 5034.98821,4745.24609 C5035.16921,4746.25776 5033.21016,4746.24782 5033.00356,4745.23705 C5032.63241,4743.41622 5031.02623,4740.90014 5030.31319,4741.02219 C5029.84971,4741.10175 5029.61111,4740.5141 5029.75738,4739.6525 C5029.95118,4738.5025 5029.64402,4738.20596 5028.46476,4738.40757 C5027.12186,4738.63721 5026.97193,4738.41842 5027.33485,4736.75219 C5027.57071,4735.66548 5027.50123,4734.42145 5027.17579,4733.88443 C5026.48469,4732.74618 5027.97751,4731.47232 5029.11655,4732.22723 L5029.11655,4732.22723 Z M5023.96772,4749.74778 C5022.93101,4749.43927 5022.06708,4748.95516 5022.00519,4748.64566 C5021.94502,4748.34508 5022.41523,4747.98994 5023.03846,4747.86594 C5023.66255,4747.74194 5023.92903,4747.32331 5023.62645,4746.94535 C5023.31354,4746.55549 5023.55596,4746.1567 5024.17919,4746.03171 C5025.42822,4745.78371 5026.17524,4747.01182 5025.96463,4748.96806 C5025.84342,4750.08507 5025.5245,4750.21006 5023.96772,4749.74778 L5023.96772,4749.74778 Z M5016.00494,4700.57066 C5015.9596,4700.32611 5016.23233,4700.05722 5016.57518,4700.00736 C5016.91803,4699.9581 5017.09512,4700.16228 5016.94778,4700.43473 C5016.78486,4700.7327 5016.54047,4700.97428 5016.37754,4700.99803 C5016.21462,4701.02118 5016.05523,4700.83836 5016.00494,4700.57066 L5016.00494,4700.57066 Z M4999.51547,4697.83983 C4999.21647,4697.43258 4999.07647,4696.67984 4999.21047,4696.21 C4999.34647,4695.73933 4999.60247,4696.08899 4999.76647,4696.96775 C4999.92947,4697.84484 4999.81347,4698.24875 4999.51547,4697.83983 L4999.51547,4697.83983 Z M5000.55019,4691.35871 C5000.74008,4690.94569 5000.24655,4689.97128 4999.473,4689.23287 C4997.68876,4687.53046 4997.512,4686.62112 4999.01622,4686.8875 C4999.76089,4687.02026 5000.15117,4686.73305 5000.05491,4686.12133 C4999.97353,4685.59985 5000.26405,4685.08097 5000.67795,4685.00982 C5001.40162,4684.88661 5001.91091,4685.93825 5001.7849,4687.29792 C5001.7499,4687.68057 5001.8024,4688.43373 5001.90566,4689.01768 C5002.19092,4690.64287 5001.81465,4691.84549 5000.9746,4691.98866 C5000.55194,4692.06154 5000.35856,4691.77521 5000.55019,4691.35871 L5000.55019,4691.35871 Z M4998.61891,4684.92503 C4998.07419,4684.71785 4997.86253,4684.21043 4998.09079,4683.65426 C4998.32009,4683.1003 4998.83472,4682.86764 4999.38048,4683.07482 C4999.92624,4683.282 5000.1379,4683.79053 4999.9086,4684.34559 C4999.68034,4684.90066 4999.16467,4685.13221 4998.61891,4684.92503 L4998.61891,4684.92503 Z M5002.02529,4682.74259 C5001.14739,4682.93759 5000.75047,4682.84759 5001.16451,4682.54759 C5001.57934,4682.24759 5002.33194,4682.08059 5002.7958,4682.18559 C5003.25965,4682.29059 5002.90398,4682.54759 5002.02529,4682.74259 L5002.02529,4682.74259 Z M4997.1668,4681.99995 C4996.36747,4681.9939 4995.63791,4681.02951 4995.22329,4679.42621 C4994.36715,4676.11946 4996.15717,4676.2222 4997.47676,4679.55485 C4998.24818,4681.50523 4998.1844,4682.00599 4997.1668,4681.99995 L4997.1668,4681.99995 Z M4987.50418,4664.95039 C4987.18418,4664.71653 4987.06418,4664.05426 4987.22418,4663.40509 C4987.38818,4662.73878 4987.62018,4662.90813 4987.78318,4663.81233 C4987.93418,4664.64194 4987.80418,4665.16914 4987.50418,4664.95039 L4987.50418,4664.95039 Z M4984.01146,4660.59116 C4983.92975,4660.3099 4984.29277,4660.06101 4984.85656,4660.00936 C4985.42152,4659.95709 4985.90711,4660.12821 4985.98881,4660.40946 C4986.06936,4660.69009 4985.7075,4660.93899 4985.14371,4660.99064 C4984.57875,4661.0429 4984.09433,4660.87179 4984.01146,4660.59116 L4984.01146,4660.59116 Z M4982.166,4653.95589 C4981.57954,4653.76514 4981.08434,4653.30636 4981.00978,4652.88572 C4980.93633,4652.46509 4981.28353,4652.09043 4981.82213,4652.00826 C4982.33626,4651.93 4982.86151,4652.41715 4982.97835,4653.07745 C4983.0952,4653.73971 4982.72686,4654.13784 4982.166,4653.95589 L4982.166,4653.95589 Z M4984.76097,4648.92012 C4984.40563,4647.82021 4983.82526,4647.12196 4983.47478,4647.37846 C4983.11053,4647.64297 4982.61111,4646.64815 4982.31,4645.05572 C4981.83243,4642.53526 4981.86886,4642.44976 4982.68558,4644.16064 C4983.19795,4645.23117 4984.27288,4646.47091 4985.1665,4647.02221 C4986.0585,4647.57083 4986.83879,4648.66273 4986.96102,4649.53287 C4987.28236,4651.80217 4985.53398,4651.31589 4984.76097,4648.92012 L4984.76097,4648.92012 Z M4980.93427,4638.73322 C4980.80404,4637.90064 4980.29986,4637.42251 4979.75848,4637.61727 C4979.2357,4637.80464 4978.5492,4637.07637 4978.22734,4635.9918 C4977.56317,4633.75527 4978.37059,4633.38329 4980.43568,4634.97184 C4982.63006,4636.66192 4983.81143,4639.73656 4982.36215,4639.98394 C4981.67565,4640.10117 4981.0645,4639.5658 4980.93427,4638.73322 L4980.93427,4638.73322 Z M4972.12985,4625.06688 C4972.34511,4623.92482 4972.41297,4622.1484 4972.28506,4621.01666 L4972.05653,4619 L4973.22411,4621.03918 C4974.18735,4622.72177 4974.2318,4623.15438 4973.47915,4623.52036 C4972.99325,4623.75591 4972.77876,4624.39122 4973.01821,4624.88295 C4973.49943,4625.86923 4973.1586,4626.80952 4972.25074,4626.99721 C4971.97074,4627.05539 4971.9177,4626.19767 4972.12985,4625.06688 L4972.12985,4625.06688 Z M5104.01149,4580.59072 C5103.92973,4580.31021 5104.2918,4580.06141 5104.85708,4580.00916 C5105.42236,4579.95754 5105.90589,4580.12858 5105.98881,4580.4091 C5106.0694,4580.68962 5105.70734,4580.93904 5105.14205,4580.99067 C5104.57794,4581.04291 5104.09208,4580.87124 5104.01149,4580.59072 L5104.01149,4580.59072 Z M4962.19398,4613.82672 C4960.60062,4613.38945 4960.60062,4613.31553 4962.20234,4611.99036 C4964.20543,4610.33175 4965.71889,4610.85395 4964.64302,4612.83107 C4963.99732,4614.01782 4963.55136,4614.1987 4962.19398,4613.82672 L4962.19398,4613.82672 Z M5101.13198,4571.91159 C5100.56601,4571.68623 5100.08489,4571.12572 5100.00971,4570.60335 C5099.93454,4570.08329 5100.3029,4569.86255 5100.86779,4570.08791 C5101.43483,4570.31327 5101.91488,4570.87494 5101.99005,4571.39615 C5102.0663,4571.91621 5101.69687,4572.13811 5101.13198,4571.91159 L5101.13198,4571.91159 Z M4954.01293,4568.57279 C4953.96738,4568.27308 4954.04547,4568.0292 4954.19514,4568.00261 C4954.34481,4567.97603 4954.63764,4568.15479 4954.87841,4568.42061 C4955.0977,4568.66251 4955.0105,4568.93563 4954.6962,4568.99079 C4954.38125,4569.04595 4954.05393,4568.84659 4954.01293,4568.57279 L4954.01293,4568.57279 Z M4957.05665,4562.57773 C4956.15326,4561.74648 4955.75998,4561.06255 4956.15041,4561.00395 C4956.54083,4560.94452 4957.36633,4561.56147 4958.05218,4562.42622 C4958.73899,4563.29096 4959.13226,4563.97321 4958.95938,4563.99916 C4958.78554,4564.02595 4957.96004,4563.40899 4957.05665,4562.57773 L4957.05665,4562.57773 Z M4954.00899,4558.61449 C4953.94791,4558.32071 4954.20357,4558.0621 4954.60581,4558.00999 C4955.00719,4557.95787 4955.55078,4558.11421 4955.87275,4558.37412 C4956.18076,4558.62231 4955.9094,4558.8972 4955.2768,4558.97927 C4954.64421,4559.0607 4954.06745,4558.89459 4954.00899,4558.61449 L4954.00899,4558.61449 Z M4950.00043,4550.00432 C4949.90852,4549.40871 4964.572,4610.53806 4964.99565,4610.99886 C4965.27751,4611.3046 4951.75984,4549.903 4951.12435,4550.01314 C4950.48974,4550.12415 4950.01794,4550.12063 4950.00043,4550.00432 L4950.00043,4550.00432 Z M4965.16761,4603.75856 C4964.32157,4603.95356 4963.82163,4603.85156 4964.0591,4603.53356 C4964.28215,4603.23256 4965.0234,4603.06256 4965.59832,4603.17956 C4966.26362,4603.31456 4966.09056,4603.54756 4965.16761,4603.75856 L4965.16761,4603.75856 Z M5080.28822,4566.89215 C5079.80799,4565.82878 5079.88649,4565.76498 5080.83925,4566.44149 C5082.16066,4567.37928 5082.32998,4567.79551 5081.46879,4567.99097 C5081.114,4568.07199 5080.60914,4567.60005 5080.28822,4566.89215 L5080.28822,4566.89215 Z M4955.006,4600.56711 C4954.95685,4600.31171 4955.21527,4600.0569 4955.57571,4600.0076 C4955.93541,4599.9583 4956.1,4600.15431 4955.9369,4600.43881 C4955.76636,4600.73698 4955.52135,4600.97753 4955.36794,4600.99832 C4955.21303,4601.01971 4955.05813,4600.83439 4955.006,4600.56711 L4955.006,4600.56711 Z M5030.26027,4577.39521 C5029.88293,4576.98023 5029.91872,4576.47581 5030.34924,4576.13571 C5030.75317,4575.81746 5031.37492,4576.07643 5031.77169,4576.72958 C5032.52024,4577.96204 5031.27368,4578.51118 5030.26027,4577.39521 L5030.26027,4577.39521 Z M4960.04863,4595.49046 C4960.32761,4594.38031 4961.83309,4593.48312 4961.97626,4594.34284 C4962.1605,4595.45398 4961.23195,4597.21089 4960.58344,4596.9792 C4960.13811,4596.81948 4959.8886,4596.12539 4960.04863,4595.49046 L4960.04863,4595.49046 Z M4962.01149,4589.59083 C4961.92972,4589.31026 4962.29188,4589.0608 4962.85732,4589.00916 C4963.42276,4588.95753 4963.90759,4589.12861 4963.9882,4589.40917 C4964.07115,4589.68974 4963.70899,4589.93858 4963.14355,4589.99084 C4962.5781,4590.04247 4962.09327,4589.87139 4962.01149,4589.59083 L4962.01149,4589.59083 Z M5014.001,4569.73018 C5013.9753,4569.59789 5014.4478,4569.08441 5015.08044,4568.55605 C5016.00667,4567.78269 5016.14704,4567.80618 5015.87915,4568.68834 C5015.5915,4569.63311 5014.14038,4570.43856 5014.001,4569.73018 L5014.001,4569.73018 Z M4955.58589,4586.99849 C4955.15759,4586.9805 4954.93106,4586.68182 4955.01863,4586.25179 C4955.20993,4585.31798 4957.85591,4584.5155 4957.99297,4585.34946 C4958.11194,4586.07367 4956.69663,4587.04347 4955.58589,4586.99849 L4955.58589,4586.99849 Z M4952.63753,4585.09998 C4953.26432,4584.54372 4953.54157,4583.75014 4953.24136,4583.37234 C4952.88842,4582.92809 4953.27878,4582.87873 4954.31463,4583.2385 C4955.20166,4583.54795 4955.96622,4583.98366 4955.99684,4584.19629 C4956.02915,4584.43171 4955.81144,4584.48961 4955.45255,4584.33868 C4955.10556,4584.1925 4954.44901,4584.45734 4953.886,4584.96994 C4953.3247,4585.48253 4952.61627,4585.91065 4952.1987,4585.99133 C4951.80919,4586.06537 4952.0116,4585.65625 4952.63753,4585.09998 L4952.63753,4585.09998 Z M5127.00432,4572.97116 C5126.95368,4572.56502 5127.35336,4572.15406 5127.91822,4572.03376 C5128.92327,4571.8201 5129.32684,4572.65164 5128.702,4573.64967 C5128.25401,4574.36282 5127.12275,4573.91241 5127.00432,4572.97116 L5127.00432,4572.97116 Z M5130.22462,4556.97332 C5129.68286,4556.84271 5129.12022,4556.35043 5129.01803,4555.91914 C5128.91583,4555.48714 5129.25978,4555.06087 5129.75539,4555.0049 C5130.27407,4554.94677 5130.80703,4555.4125 5130.96198,4556.05979 C5131.11582,4556.70637 5130.78945,4557.11038 5130.22462,4556.97332 L5130.22462,4556.97332 Z M5135.27477,4537.95789 C5135.62579,4537.26384 5136.16198,4536.86967 5136.52587,4537.03918 C5137.45655,4537.47246 5136.93083,4538.68605 5135.69825,4538.95083 C5134.91893,4539.11933 5134.81346,4538.8706 5135.27477,4537.95789 L5135.27477,4537.95789 Z M5133.00494,4537.57042 C5132.95957,4537.32638 5133.23252,4537.05681 5133.57494,4537.00753 C5133.91736,4536.95765 5134.09602,4537.16191 5133.94714,4537.43445 C5133.78479,4537.73311 5133.5402,4537.97418 5133.37714,4537.99793 C5133.21338,4538.02168 5133.05457,4537.8388 5133.00494,4537.57042 L5133.00494,4537.57042 Z M5138.17996,4535.76169 C5137.34874,4535.95569 5136.8264,4535.85369 5137.05309,4535.54369 C5137.2949,4535.21269 5137.95893,4535.05769 5138.60218,4535.18269 C5139.26243,4535.31069 5139.08674,4535.55169 5138.17996,4535.76169 L5138.17996,4535.76169 Z M5143.59489,4530.96246 C5143.2884,4530.77427 5143.05291,4530.34475 5143.00786,4529.89077 C5142.96212,4529.43466 5143.11912,4529.08062 5143.39966,4529.0062 C5143.64881,4528.93816 5143.92321,4529.43892 5143.98738,4530.07789 C5144.05086,4530.71686 5143.86792,4531.13044 5143.59489,4530.96246 L5143.59489,4530.96246 Z M5143.2614,4526.124 C5142.74412,4524.99724 5143.03832,4523.15735 5143.7601,4523.00311 C5144.04057,4522.94301 5144.54573,4523.7623 5144.85449,4524.77889 C5145.45018,4526.73797 5144.07694,4527.89778 5143.2614,4526.124 L5143.2614,4526.124 Z M5166.9942,4518.28668 C5167.03718,4518.60601 5166.83638,4518.92037 5166.55329,4518.97714 C5166.25608,4519.03604 5166.01966,4518.97785 5166.00124,4518.84018 C5165.98282,4518.70323 5166.17134,4518.40731 5166.44215,4518.15043 C5166.70006,4517.9049 5166.95121,4517.96664 5166.9942,4518.28668 L5166.9942,4518.28668 Z M5232.0848,4688.90889 C5231.9075,4688.74693 5232.01676,4688.1622 5232.33287,4687.57935 C5232.69363,4686.9127 5232.92865,4686.81666 5232.98568,4687.31571 C5233.09769,4688.30532 5232.5294,4689.31189 5232.0848,4688.90889 L5232.0848,4688.90889 Z M5248.2063,4818.88033 C5247.82449,4818.2661 5247.9107,4817.9933 5248.42623,4818.18514 C5249.98338,4818.76505 5252.02528,4806.78037 5252,4797.2104 C5251.96369,4783.77372 5251.41825,4778.91086 5246.31044,4746.52168 C5244.08996,4732.44349 5242.05247,4719.39665 5241.79294,4717.59617 C5241.41993,4715.01338 5241.10674,4714.4405 5240.31761,4714.8981 C5239.7836,4715.20698 5239.26103,4715.12338 5239.19769,4714.7177 C5239.13259,4714.30322 5239.61029,4713.86586 5240.24899,4713.75498 C5241.0478,4713.61771 5241.20615,4713.14867 5240.74692,4712.27747 C5240.37919,4711.57699 5239.56191,4707.79652 5238.93641,4703.89902 C5238.31091,4700.00063 5237.32031,4696.05208 5236.73968,4695.14568 C5236.15201,4694.22873 5235.69014,4693.23697 5235.7007,4692.91489 C5235.71126,4692.60161 5234.71538,4692.66409 5233.5374,4693.05041 C5232.2908,4693.45961 5231.49375,4693.45257 5231.6785,4693.03193 C5231.87204,4692.59105 5232.29432,4692.40977 5232.73683,4692.57785 C5233.16527,4692.74153 5233.41952,4692.52769 5233.34826,4692.06481 C5233.26644,4691.53593 5233.92361,4691.54649 5235.31977,4692.09737 L5237.41356,4692.92457 L5236.49247,4690.36818 C5235.36288,4687.23539 5234.91948,4686.68803 5234.07581,4687.37971 C5233.68872,4687.69651 5233.43799,4687.67627 5233.45031,4687.32867 C5233.45998,4687.00131 5233.36585,4686.29115 5233.23301,4685.70243 C5233.05706,4684.91748 5232.88903,4684.88756 5232.56,4685.58099 C5232.31455,4686.09579 5231.83949,4684.44932 5231.48583,4681.86213 C5230.80491,4676.88662 5230.1539,4674.82655 5229.30934,4674.97351 C5229.00055,4675.02631 5228.99879,4676.72382 5229.30758,4678.70734 C5229.61813,4680.70581 5230.05448,4685.09611 5230.2753,4688.45418 C5230.61136,4693.55553 5230.87529,4694.59569 5231.8738,4694.76464 C5232.50722,4694.87024 5233.15295,4695.49328 5233.24445,4696.08904 C5233.35793,4696.81592 5233.79869,4697.00248 5234.49193,4696.61616 C5236.00509,4695.774 5235.9136,4696.8608 5234.36436,4698.13679 C5233.20134,4699.09335 5233.04738,4699.09599 5233.27436,4698.15439 C5233.44767,4697.44424 5233.11512,4697.1292 5232.33567,4697.26472 C5231.04508,4697.48648 5230.99053,4698.10775 5232.15356,4699.33271 C5232.62246,4699.82639 5233.50397,4699.86247 5234.38196,4699.42335 C5235.44997,4698.89007 5236.14585,4699.08455 5237.008,4700.15815 C5238.10944,4701.52918 5238.08393,4701.56262 5236.58308,4700.70375 C5234.73386,4699.64599 5233.27436,4700.90439 5233.57875,4703.29622 C5233.61658,4703.59542 5233.26468,4703.41854 5232.7729,4702.8923 C5232.08142,4702.15134 5231.94506,4702.28862 5232.11749,4703.54878 C5232.36382,4705.35453 5231.80342,4705.55957 5229.59702,4704.47365 C5228.17711,4703.77494 5228.08297,4703.53646 5228.93721,4702.80694 C5229.77648,4702.09062 5229.72106,4701.99382 5228.58619,4702.18918 C5227.87711,4702.3115 5227.31759,4702.15046 5227.40469,4701.85038 C5227.49442,4701.53974 5227.91934,4700.30159 5228.33194,4699.14351 C5228.82108,4697.76896 5228.80173,4696.89072 5228.27564,4696.67512 C5227.78474,4696.4736 5226.82581,4692.03665 5225.86865,4685.54755 C5224.01678,4672.96623 5223.14759,4669.44624 5222.10158,4670.29104 C5221.68546,4670.62808 5221.8007,4669.954 5222.34966,4668.84169 C5222.89863,4667.72761 5223.07721,4666.81417 5222.73587,4666.87313 C5222.00832,4666.99897 5220.93239,4662.49955 5219.33477,4652.65854 C5218.76646,4649.15879 5218.05386,4646.2944 5217.76266,4646.34368 C5217.46707,4646.39472 5217.14068,4645.90808 5217.02808,4645.24808 C5216.36475,4641.35673 5214.88853,4636.55899 5214.27095,4636.28707 C5213.41144,4635.90867 5212.06191,4627.62878 5212.72084,4626.77694 C5213.44839,4625.8371 5212.8352,4623.29479 5211.69857,4622.53975 C5211.13026,4622.16311 5210.40622,4620.65832 5210.13086,4619.27936 C5208.76374,4612.45498 5206.64091,4605.01373 5205.88609,4604.39597 C5205.43038,4604.02461 5204.39931,4600.37526 5203.57939,4596.23927 C5202.11109,4588.82002 5201.15129,4584.90403 5199.33461,4578.91125 C5198.827,4577.23397 5198.11968,4574.89758 5197.79418,4573.81254 C5197.46163,4572.70903 5196.49303,4568.57216 5195.63176,4564.57873 C5194.76961,4560.58619 5193.52917,4555.37044 5192.86144,4552.93725 C5191.36851,4547.49183 5191.30341,4546.06447 5192.4937,4544.85096 C5193.15351,4544.17864 5193.09721,4543.05136 5192.26673,4540.34273 C5191.25854,4537.05418 5191.28405,4536.74002 5192.5588,4536.82978 C5193.29427,4536.8817 5193.91098,4536.63002 5193.85995,4536.30002 C5193.80629,4535.95418 5193.1236,4535.7817 5192.34327,4535.91634 C5190.5002,4536.2349 5189.41107,4532.92523 5190.8257,4531.30252 C5191.69137,4530.31076 5191.68346,4530.26324 5190.76764,4530.92588 C5189.89493,4531.55772 5189.86062,4531.45652 5190.56354,4530.31692 C5191.1257,4529.40524 5191.12306,4528.99781 5190.55562,4529.09549 C5190.0876,4529.17644 5189.54567,4528.21813 5189.35125,4526.96149 C5189.15507,4525.70398 5188.54012,4524.37782 5187.98148,4524.00646 C5187.18443,4523.4767 5187.17915,4523.2963 5187.95949,4523.16166 C5188.72311,4523.02966 5188.61226,4522.64159 5187.48003,4521.47911 C5186.68738,4520.66599 5185.94751,4519.58623 5185.87889,4519.14096 C5185.80939,4518.6948 5185.0792,4517.97848 5184.28919,4517.58336 C5182.90183,4516.88728 5182.90271,4516.86176 5184.31822,4517.06856 C5185.3616,4517.2208 5185.66423,4517.02544 5185.32729,4516.41912 C5184.6059,4515.11761 5183.25285,4515.24785 5182.0819,4516.73064 C5181.23031,4517.80952 5180.82299,4517.91776 5179.77433,4517.344 C5178.65089,4516.728 5178.63066,4516.54936 5179.60981,4515.81897 C5180.77812,4514.94865 5180.16757,4513.77913 5178.67816,4514.03609 C5178.15647,4514.12585 5177.14301,4514.93545 5176.34595,4515.89817 C5175.5489,4516.86176 5174.88206,4517.25688 5174.81256,4516.80808 C5174.7413,4516.34785 5174.25392,4516.26073 5173.65217,4516.60128 C5173.08561,4516.92072 5170.94871,4517.01312 5168.9508,4516.80192 C5166.43297,4516.53704 5165.03153,4516.6884 5164.47465,4517.2868 C5163.3521,4518.49328 5159.35541,4518.7124 5159.42139,4517.564 C5159.46626,4516.77288 5158.84604,4516.67168 5156.73112,4517.12312 C5156.41266,4517.19176 5156.37835,4517.88608 5156.65195,4518.7212 C5157.07335,4520.00687 5156.95458,4520.10191 5155.74669,4519.45512 C5154.54583,4518.81096 5154.33382,4518.91832 5154.19218,4520.23303 C5154.0954,4521.13151 5153.59923,4521.67535 5152.97901,4521.56183 C5152.3799,4521.45183 5152.05087,4520.83935 5152.21099,4520.13271 C5152.43884,4519.13304 5152.21363,4519.21136 5151.03652,4520.53927 C5150.04505,4521.65863 5149.37292,4521.96927 5148.93041,4521.51431 C5148.58027,4521.15351 5147.25449,4521.03823 5146.05188,4521.26439 C5143.92993,4521.66303 5143.90794,4521.70263 5145.59793,4522.08983 C5146.57885,4522.31511 5147.41285,4522.76215 5147.46475,4523.09126 C5147.55977,4523.70638 5145.34105,4523.48462 5143.8402,4522.72871 C5143.19446,4522.40311 5142.81793,4522.73839 5142.65782,4523.78558 C5142.52938,4524.62246 5142.04903,4525.3687 5141.60212,4525.42766 C5141.07427,4525.4963 5141.12882,4525.81486 5141.75256,4526.31821 C5143.18567,4527.47365 5142.35782,4528.18293 5140.03793,4527.78517 C5138.54236,4527.52821 5137.74707,4527.75701 5136.97202,4528.67133 C5136.23743,4529.53724 5135.5046,4529.76516 5134.50609,4529.43604 C5133.73895,4529.18348 5132.80554,4529.20372 5132.47475,4529.48092 C5132.14133,4529.76164 5131.59237,4529.70092 5131.26774,4529.3498 C5130.08272,4528.06677 5129.36045,4529.06909 5130.09328,4530.97868 C5130.58242,4532.25292 5130.55602,4533.06779 5130.02378,4533.15139 C5128.81149,4533.34323 5126.58573,4536.33698 5126.77135,4537.52762 C5126.85493,4538.06882 5127.53409,4538.92329 5128.26516,4539.40905 C5129.34725,4540.12713 5129.48009,4540.62521 5128.95928,4542.00416 C5128.49214,4543.23968 5128.56076,4543.74392 5129.20649,4543.82928 C5130.80587,4544.0396 5130.45925,4545.80047 5128.84052,4545.69047 C5127.73644,4545.61479 5127.34495,4545.90695 5127.46987,4546.70951 C5127.56137,4547.30351 5127.17692,4547.91423 5126.65171,4548.00399 C5125.62328,4548.18175 5125.66903,4548.44574 5128.02939,4555.91428 C5128.74199,4558.16795 5129.18626,4560.83699 5129.03142,4561.92026 C5128.80181,4563.52186 5129.01471,4563.88618 5130.22348,4563.96538 C5132.26537,4564.09826 5132.33311,4565.83097 5130.39239,4568.33896 C5128.57396,4570.69031 5128.16663,4570.90767 5127.94758,4569.644 C5127.6599,4567.97552 5126.20392,4567.15273 5123.9852,4567.4044 C5121.83862,4567.64816 5121.79991,4567.71328 5122.77467,4569.4504 C5123.32979,4570.44128 5124.11716,4571.20335 5124.53152,4571.15055 C5124.95204,4571.09687 5125.30042,4571.90031 5125.32593,4572.98183 C5125.36024,4574.4699 5125.71918,4574.91078 5126.8998,4574.9143 C5129.15811,4574.92046 5129.84343,4576.0539 5128.83524,4578.11397 C5128.29156,4579.22629 5128.25901,4580.14852 5128.74814,4580.57356 C5130.05457,4581.70524 5131.24047,4585.57459 5130.47333,4586.20115 C5130.09416,4586.50914 5130.08536,4587.43842 5130.45485,4588.18818 C5130.82347,4588.94058 5131.44545,4590.21041 5131.78767,4590.91177 C5132.14309,4591.64041 5133.54276,4595.53176 5134.92748,4599.63782 C5136.31221,4603.74477 5137.79546,4607.86316 5138.25557,4608.87515 C5138.88546,4610.25939 5138.81157,4610.74779 5137.95029,4610.89651 C5137.24914,4611.01795 5136.50223,4610.26379 5135.99638,4608.92619 C5134.64509,4605.35693 5133.13192,4603.26869 5132.25481,4603.76061 C5131.79559,4604.01757 5130.94839,4603.68669 5130.27802,4602.98709 C5129.27247,4601.93814 5129.29183,4601.72694 5130.41175,4601.50342 C5131.68298,4601.25174 5131.67946,4601.22622 5130.26307,4600.5451 C5129.4757,4600.16758 5128.75518,4599.51286 5128.6936,4599.11863 C5128.63202,4598.71647 5127.8596,4598.66807 5126.96578,4599.00951 C5125.79747,4599.45742 5125.59777,4599.4011 5126.24263,4598.80447 C5127.44788,4597.68951 5125.95055,4593.64416 5124.6107,4594.3948 C5123.67113,4594.92192 5122.48435,4593.0616 5122.03392,4590.35561 C5121.89844,4589.5425 5121.06972,4588.28146 5120.15214,4587.48858 C5119.2504,4586.71242 5117.60264,4584.22819 5116.4924,4581.97628 C5115.38215,4579.72349 5114.18482,4577.92741 5113.8338,4577.98813 C5113.0042,4578.13157 5113.24085,4579.32573 5114.16986,4579.67685 C5114.60534,4579.84141 5114.86047,4580.56036 5114.75314,4581.32596 C5114.64581,4582.09156 5114.90093,4582.80876 5115.33641,4582.97244 C5116.1924,4583.29275 5116.23463,4586.87522 5115.38303,4587.02218 C5114.31766,4587.2061 5107.79258,4581.7466 5107.04128,4580.04381 C5105.7894,4577.20405 5104.55599,4576.54406 5103.58827,4578.19493 C5103.14576,4578.94997 5102.7182,4579.19021 5102.62759,4578.73437 C5102.54137,4578.29965 5102.95134,4577.30261 5103.49942,4576.61446 C5104.41435,4575.46782 5104.3862,4575.28918 5103.26365,4575.09382 C5102.29065,4574.92398 5102.1578,4574.6195 5102.69797,4573.79934 C5103.23637,4572.98359 5102.91087,4572.06487 5101.33788,4569.95992 C5100.21356,4568.45688 5099.18954,4566.68105 5099.09453,4566.07033 C5099.00215,4565.47545 5098.53853,4564.80401 5098.10833,4564.64473 C5097.6447,4564.47225 5097.20483,4563.7489 5097.08167,4562.95514 C5096.94794,4562.0945 5096.57141,4561.81114 5096.09195,4562.2089 C5095.64152,4562.58466 5095.49196,4562.4817 5095.73301,4561.96602 C5096.4676,4560.39699 5095.05209,4558.79011 5092.41021,4558.19523 C5090.90145,4557.85643 5090.2346,4557.42436 5090.79148,4557.14892 C5091.33252,4556.88052 5092.09086,4557.0266 5092.56153,4557.4886 C5094.04918,4558.95027 5091.81022,4553.88413 5089.71731,4551.05406 C5088.47071,4549.36798 5087.40533,4548.6015 5086.78687,4548.94558 C5086.23175,4549.25534 5085.73821,4548.99046 5085.63528,4548.32958 C5085.53323,4547.66783 5085.80331,4547.30087 5086.26694,4547.47423 C5086.73057,4547.64583 5087.05607,4547.63263 5087.02704,4547.44519 C5086.9593,4547.01223 5083.99807,4542.60344 5080.52923,4537.7705 C5077.71492,4533.84923 5086.70681,4583.59019 5084.67372,4574.23142 C5083.05411,4566.76993 5082.37846,4564.69753 5081.343,4564.01114 C5079.953,4563.08802 5079.89758,4562.20802 5081.24447,4562.44298 C5082.07143,4562.58642 5082.13653,4561.8701 5081.55502,4559.05147 C5081.15034,4557.08468 5081.1169,4555.82276 5081.48376,4556.24604 C5081.94387,4556.77756 5082.26233,4556.76436 5082.51658,4556.2038 C5082.95118,4555.24372 5081.47936,4554.57757 5080.57586,4555.32644 C5080.18173,4555.65292 5080.03042,4556.97204 5080.23628,4558.29467 C5080.44214,4559.61731 5080.26003,4560.73491 5079.82632,4560.80971 C5079.4014,4560.88275 5079.19466,4560.62579 5079.37413,4560.24299 C5079.54744,4559.87163 5079.10404,4559.44307 5078.43192,4559.33307 C5076.80703,4559.06643 5075.56218,4561.13794 5075.41351,4564.35521 C5075.31498,4566.47689 5075.14606,4566.68105 5074.1977,4565.82129 C5073.5678,4565.25105 5072.87192,4565.09441 5072.57544,4565.45609 C5072.28689,4565.80721 5072.82881,4564.69929 5073.79125,4562.97186 C5075.46453,4559.96667 5075.46981,4559.87955 5073.92762,4560.57211 C5073.04347,4560.96898 5072.47603,4560.96019 5072.65902,4560.55275 C5073.00652,4559.78187 5070.79572,4560.33275 5069.63621,4561.3069 C5069.21129,4561.6633 5068.15824,4561.63426 5067.29697,4561.2409 C5066.19992,4560.74195 5065.47589,4560.79475 5064.88558,4561.41954 C5064.26008,4562.0813 5064.00759,4562.0989 5063.91258,4561.48642 C5063.84308,4561.04114 5063.36626,4560.77891 5062.87712,4560.91795 C5062.35103,4561.06754 5061.50559,4561.22858 5060.86162,4561.29986 C5059.85959,4561.41162 5059.84903,4561.34122 5060.74813,4560.57299 C5061.5355,4559.90067 5061.14314,4559.59619 5058.88659,4559.12891 C5057.30656,4558.80155 5055.75645,4558.09667 5055.42303,4557.55372 C5054.74298,4556.44932 5052.43629,4556.51268 5052.61048,4557.63204 C5052.67206,4558.02891 5052.43277,4558.40995 5052.08527,4558.46979 C5051.74217,4558.52875 5051.42898,4557.76844 5051.4061,4556.82156 C5051.36036,4554.79228 5050.80787,4554.71572 5049.01143,4556.49244 C5047.8748,4557.61532 5047.86336,4557.70948 5048.9305,4557.14716 C5049.6035,4556.79252 5050.22548,4556.80924 5050.28355,4557.185 C5050.34161,4557.55988 5049.39148,4558.23923 5048.21966,4558.66251 C5046.63348,4559.23275 5046.21912,4559.72643 5046.68274,4560.48851 C5047.18156,4561.30778 5046.91412,4561.50754 5045.44318,4561.41602 C5043.8438,4561.31482 5043.43736,4561.6941 5042.67726,4563.99794 C5041.89252,4566.37393 5041.59781,4566.64057 5040.21924,4566.22081 C5038.76502,4565.77905 5038.72719,4565.86793 5039.69404,4567.46688 C5040.92128,4569.49528 5040.39519,4570.72287 5039.00256,4569.07992 C5038.38321,4568.34776 5037.57649,4568.18672 5036.69674,4568.61704 C5035.04633,4569.42664 5034.86599,4568.70768 5036.23399,4566.77345 C5037.21667,4565.38393 5037.1674,4565.32233 5035.32433,4565.64089 C5034.26072,4565.82393 5033.21294,4566.32993 5033.02028,4566.75145 C5032.81882,4567.19409 5032.32176,4567.41056 5031.86077,4567.25657 C5031.37779,4567.09641 5031.347,4566.53145 5031.78599,4565.84417 C5032.7977,4564.25841 5031.7728,4563.64418 5030.46286,4565.04953 C5029.90422,4565.64881 5029.65877,4566.75497 5029.9438,4567.38416 C5030.48661,4568.58096 5029.6966,4569.33336 5028.89955,4568.38032 C5028.68137,4568.11808 5028.68137,4568.3152 5028.90043,4568.8212 C5029.11948,4569.32632 5029.03415,4570.66479 5028.70864,4571.80703 C5028.18167,4573.66383 5027.90455,4573.84598 5026.03245,4573.56527 C5024.10757,4573.27751 5022.04192,4571.19279 5019.19066,4566.65993 C5018.49742,4565.55905 5017.98893,4565.11113 5018.03028,4565.63825 C5018.07162,4566.17505 5017.75492,4566.44697 5017.29129,4566.27537 C5016.87077,4566.11961 5016.53031,4566.40649 5016.58397,4566.87377 C5016.64731,4567.42024 5016.05349,4567.27065 5015.06817,4566.48921 C5014.08197,4565.70865 5012.88288,4565.41209 5012.00137,4565.72977 C5010.81635,4566.15569 5010.58938,4565.97265 5010.75213,4564.72217 C5010.8797,4563.74978 5010.39672,4562.94458 5009.42547,4562.50722 C5008.25101,4561.97834 5008.06715,4561.60258 5008.62579,4560.88011 C5009.15891,4560.19195 5009.08853,4559.61203 5008.36362,4558.71883 C5007.83225,4558.06323 5007.44692,4556.88756 5007.53226,4556.18004 C5007.64927,4555.2094 5007.4091,4555.01844 5006.61908,4555.4558 C5005.88098,4555.86324 5005.67336,4555.77084 5005.95399,4555.16188 C5006.20824,4554.611 5005.75957,4554.38133 5004.76722,4554.55293 C5003.9165,4554.69988 5003.43704,4555.11436 5003.74055,4555.4426 C5004.03703,4555.7638 5004.12852,4556.46252 5003.93058,4556.90428 C5003.66841,4557.493 5003.36578,4557.54404 5002.93822,4557.075 C5002.5177,4556.61388 5001.53943,4556.97556 4999.83976,4558.22163 C4997.74772,4559.75459 4997.2665,4559.89627 4996.79143,4559.12011 C4995.946,4557.7394 4994.71347,4558.18995 4995.37944,4559.63579 C4995.69791,4560.32747 4995.62489,4561.16522 4995.21581,4561.49786 C4994.77769,4561.85338 4994.40028,4561.63778 4994.29735,4560.9769 C4994.2041,4560.38291 4993.81789,4560.09691 4993.47479,4560.37235 C4993.12201,4560.65571 4992.56689,4560.59675 4992.2537,4560.24387 C4991.95019,4559.90155 4992.25018,4559.51347 4992.89064,4559.42107 C4993.53197,4559.32779 4993.81173,4558.92827 4993.48623,4558.57099 C4993.166,4558.21899 4992.71469,4558.11779 4992.54402,4558.36067 C4992.35575,4558.62643 4991.7584,4558.39411 4991.14962,4557.82035 C4990.19773,4556.92364 4990.05961,4557.02308 4989.86871,4558.75403 C4989.59247,4561.24618 4988.22182,4561.60258 4988.31332,4559.15883 C4988.39865,4556.9034 4987.39838,4555.52796 4986.73505,4556.987 C4986.46585,4557.57572 4986.02158,4557.85731 4985.69695,4557.64084 C4985.38112,4557.4314 4985.50341,4556.65612 4985.97143,4555.89668 C4986.4333,4555.14692 4985.5993,4555.60628 4984.12748,4556.90956 C4981.11875,4559.57595 4978.0801,4560.65835 4979.40852,4558.59123 C4979.99707,4557.67516 4979.97244,4557.40764 4979.30735,4557.52292 C4978.80853,4557.60828 4978.30268,4558.17147 4978.14872,4558.80947 C4977.78099,4560.34507 4975.02034,4560.63899 4975.07577,4559.13595 C4975.09776,4558.51995 4974.69836,4557.91891 4974.22593,4557.85643 C4973.61451,4557.77636 4973.55293,4558.48211 4974.02799,4560.09691 C4974.71243,4562.42274 4974.68956,4562.45618 4972.40222,4562.52042 C4970.15447,4562.5829 4969.39964,4563.66002 4971.15034,4564.30857 C4971.7169,4564.51801 4971.67203,4565.08649 4971.01486,4566.01489 C4970.46766,4566.78841 4970.29787,4567.57248 4970.63393,4567.7784 C4970.97175,4567.98608 4970.84771,4568.21664 4970.35065,4568.30288 C4969.85447,4568.38824 4969.41724,4568.15064 4969.35742,4567.7608 C4969.29847,4567.3824 4968.89467,4567.12897 4968.46887,4567.20201 C4967.56625,4567.35688 4968.79174,4570.21512 4969.83952,4570.39816 C4970.21869,4570.46416 4970.58554,4570.97807 4970.67704,4571.57383 C4970.99286,4573.60135 4968.89115,4572.35703 4967.21611,4569.52256 C4965.32114,4566.31937 4963.77015,4565.68313 4963.48423,4567.994 C4963.33819,4569.1732 4963.04259,4569.38704 4962.18484,4568.93208 C4961.54966,4568.59504 4960.75701,4568.61528 4960.33561,4568.97872 C4959.828,4569.41696 4959.98987,4569.80328 4960.85554,4570.21424 C4961.56198,4570.54951 4962.31065,4571.72695 4962.56401,4572.90615 C4963.32763,4576.4411 4963.23438,4576.8107 4961.62796,4576.59774 C4960.63473,4576.4675 4959.59223,4577.01749 4958.75999,4578.11221 C4957.15445,4580.22244 4957.23979,4581.06724 4959.0723,4581.23708 C4959.82448,4581.30572 4959.57727,4581.44212 4958.50222,4581.55124 C4957.21163,4581.68236 4956.57734,4581.35588 4956.52455,4580.53484 C4956.48057,4579.86341 4956.22896,4579.38997 4955.958,4579.47005 C4954.42636,4579.92149 4953.5818,4579.63989 4953.42433,4578.62613 C4953.31084,4577.89837 4952.86041,4577.72501 4952.14693,4578.13421 C4951.51528,4578.49501 4950.51148,4578.85669 4949.80241,4578.97989 C4948.7388,4579.16381 4948.7388,4579.26501 4949.80417,4579.69269 C4950.89066,4580.12828 4950.91881,4580.30604 4950.02498,4581.11388 C4949.22442,4581.83636 4949.34406,4581.88916 4950.57219,4581.3594 C4951.45897,4580.97572 4952.39062,4580.96164 4952.71525,4581.32772 C4953.01964,4581.67092 4952.72141,4582.07396 4952.08359,4582.18396 C4951.16074,4582.34412 4951.05869,4582.73484 4951.65164,4583.85507 C4952.27714,4585.03603 4952.20324,4585.19267 4951.26807,4584.66731 C4950.31882,4584.13491 4950.1675,4584.58635 4950.42175,4587.19026 C4950.72966,4590.32833 4950.75605,4590.35385 4952.92023,4589.67889 C4954.65597,4589.13682 4955.09936,4589.22746 4955.06505,4590.12329 C4955.0369,4590.84841 4954.30847,4591.34913 4953.0258,4591.52689 C4951.95603,4591.67561 4951.07804,4591.98537 4951.13435,4592.19305 C4951.53287,4593.6864 4951.1493,4594.33672 4949.94669,4594.20208 C4948.90859,4594.0868 4948.8646,4594.1616 4949.74347,4594.53824 C4950.36809,4594.80576 4950.70767,4595.38568 4950.50269,4595.83272 C4949.99331,4596.94503 4951.54607,4597.47303 4952.64223,4596.56047 C4953.09354,4596.18383 4953.72344,4595.80456 4954.00672,4595.7368 C4954.32343,4595.66288 4954.49146,4595.40328 4954.42812,4595.08736 C4954.26624,4594.29184 4956.10755,4592.14905 4957.09991,4591.97833 C4957.83713,4591.85073 4957.86881,4592.04961 4957.25474,4592.97008 C4956.83158,4593.60368 4956.78672,4594.67992 4957.15269,4595.36456 C4957.71221,4596.40647 4957.465,4596.66783 4955.62105,4596.98639 C4952.43021,4597.53727 4951.37364,4599.01479 4952.1874,4601.78854 C4952.56657,4603.08125 4952.61056,4604.11525 4952.28681,4604.11437 C4951.95339,4604.11349 4951.2056,4604.41797 4950.54052,4604.82365 C4949.53321,4605.43701 4949.77074,4605.80484 4952.29561,4607.54196 C4955.53044,4609.76747 4956.01078,4610.70203 4954.08941,4611.03379 C4953.02668,4611.21771 4953.01348,4611.33299 4954.01552,4611.72547 C4954.71315,4612.00002 4955.29467,4612.41274 4955.40112,4612.7093 C4956.16298,4614.81778 4944.07702,4554.55997 4945.37025,4554.70956 C4947.45349,4554.95244 4946.94939,4556.44316 4944.47202,4557.36892 C4942.75124,4558.01043 4942.60168,4558.22515 4943.69785,4558.47419 C4944.45179,4558.64491 4945.1248,4559.22307 4945.21013,4559.77395 C4945.29283,4560.31075 4945.96407,4560.64691 4946.67051,4560.50611 C4947.80099,4560.28171 4947.81506,4560.18315 4946.77608,4559.77571 C4945.92273,4559.44043 4945.84091,4559.25475 4946.49456,4559.13595 C4947.83969,4558.88955 4948.87604,4560.87747 4947.84233,4561.72314 C4947.34968,4562.12706 4946.37843,4562.37434 4945.70719,4562.26874 C4945.03506,4562.16226 4944.73859,4562.27578 4945.05354,4562.5169 C4945.38432,4562.77122 4946.067,4562.95074 4946.64764,4562.93666 C4948.17136,4562.90146 4950.99007,4564.02522 4949.90798,4564.23729 C4949.34318,4564.34729 4949.1426,4564.66761 4949.44171,4564.98441 C4949.72675,4565.28713 4949.62646,4565.70689 4949.2209,4565.90577 C4948.81269,4566.10641 4948.46959,4567.39384 4948.46167,4568.75256 C4948.45288,4570.11128 4948.16784,4571.66535 4947.83002,4572.18895 C4947.45085,4572.77679 4947.59864,4573.27311 4948.21271,4573.47991 C4948.78366,4573.67263 4949.52969,4573.25375 4949.95373,4572.50047 C4950.59066,4571.37319 4950.77981,4571.32039 4951.28038,4572.13615 C4951.61997,4572.68879 4951.59533,4573.31183 4951.21968,4573.62247 C4950.20885,4574.46022 4950.74726,4576.19998 4951.95251,4575.9923 C4952.6176,4575.87702 4952.91847,4576.23254 4952.75484,4576.94005 C4952.6088,4577.57717 4952.86569,4578.00749 4953.34427,4577.92477 C4953.95217,4577.81917 4954.03487,4578.21253 4953.63195,4579.30109 C4953.12081,4580.68092 4953.28005,4580.7874 4955.33689,4580.43276 C4957.17996,4580.1142 4957.45972,4580.24444 4956.82807,4581.12532 C4956.38291,4581.74572 4955.71431,4582.26316 4955.26739,4582.33268 C4952.63695,4582.74452 4952.02553,4583.14844 4952.59736,4584.09619 C4952.93167,4584.64971 4953.66889,4584.88995 4954.16507,4584.60659 C4954.70788,4584.29683 4955.16798,4584.50187 4955.26036,4585.09675 C4955.34657,4585.65115 4956.02222,4586.01811 4956.73129,4585.89491 C4957.72365,4585.72419 4957.82394,4585.85091 4957.14038,4586.42027 C4955.84451,4587.49914 4957.70517,4592.92432 4959.91598,4594.51184 C4962.09159,4596.07383 4961.81007,4598.19463 4959.51745,4597.50471 C4957.27674,4596.82887 4957.10343,4596.96615 4957.44301,4599.14767 C4957.63831,4600.4043 4957.36119,4601.19982 4956.68731,4601.3151 C4956.11987,4601.41366 4955.76445,4601.2051 4955.92632,4600.86982 C4956.10315,4600.50286 4955.87442,4600.30134 4955.37736,4600.38758 C4954.90758,4600.46766 4954.74658,4601.2095 4955.01755,4602.04462 C4955.32986,4603.00997 4956.04509,4603.46317 4956.99522,4603.29949 C4958.07379,4603.11293 4958.62539,4603.56085 4958.99576,4604.92309 C4959.27728,4605.96148 4959.80777,4606.75172 4960.17902,4606.68748 C4960.55379,4606.62324 4960.91977,4607.10372 4961.00246,4607.76724 C4961.0834,4608.4158 4961.5092,4609.64955 4961.9306,4610.45915 C4962.51387,4611.58027 4962.40742,4612.00706 4961.50304,4612.16282 C4960.13503,4612.39866 4960.12975,4613.01026 4961.48017,4615.28945 C4962.02561,4616.20817 4962.72325,4618.06321 4963.03908,4619.43424 C4963.62763,4621.98095 4965.22965,4623.02463 4967.04368,4622.04519 C4968.11521,4621.46615 4970.33306,4623.06335 4970.56883,4624.58487 C4970.64712,4625.0891 4970.00315,4625.63294 4969.15244,4625.7799 C4966.88005,4626.1715 4967.90935,4628.08461 4971.09843,4629.39757 C4972.57641,4630.00653 4973.61187,4630.67445 4973.44472,4630.91205 C4973.28285,4631.14348 4973.61363,4632.10532 4974.17403,4633.02668 C4974.84616,4634.13196 4974.94381,4634.76115 4974.45643,4634.84475 C4974.03151,4634.91867 4973.63474,4634.47779 4973.53181,4633.81604 C4973.42976,4633.15516 4973.19839,4632.87532 4972.99341,4633.1622 C4972.79635,4633.43852 4973.12449,4634.53147 4973.71832,4635.58395 C4975.01243,4637.87194 4974.27344,4641.50809 4972.57113,4641.22737 C4971.97466,4641.12881 4971.7688,4641.31801 4972.09431,4641.66913 C4972.39606,4641.99473 4972.09607,4642.38193 4971.45737,4642.49193 C4970.81955,4642.60193 4970.51956,4642.99001 4970.82131,4643.31473 C4971.14682,4643.66585 4971.66763,4643.70809 4972.03712,4643.41241 C4973.11921,4642.55001 4975.58602,4644.22376 4975.86314,4646.00928 C4976.07868,4647.39791 4976.48072,4647.64167 4977.95342,4647.27823 L4979.77625,4646.8268 L4978.19623,4647.90039 C4976.54934,4649.01799 4976.30214,4651.31038 4977.92703,4650.39254 C4978.59739,4650.01415 4978.93346,4650.2315 4978.93962,4651.0455 C4978.94313,4651.72486 4979.33374,4652.59254 4979.8176,4652.9991 C4980.82667,4653.84741 4980.15279,4655.34517 4978.76807,4655.33373 C4978.18479,4655.32845 4977.70181,4655.63909 4977.64287,4656.05621 C4977.58481,4656.45748 4978.55869,4656.7954 4979.79737,4656.80596 C4982.09967,4656.82356 4981.94923,4657.0594 4978.56572,4658.71908 C4976.8291,4659.5718 4977.56633,4660.72019 4979.62318,4660.36555 C4981.23136,4660.08747 4981.45745,4660.28635 4981.39411,4661.92667 C4981.34748,4663.15778 4981.94483,4664.33258 4983.12457,4665.32962 C4984.25856,4666.28705 4984.85591,4667.44161 4984.73715,4668.44569 C4984.6131,4669.48496 4984.95092,4670.11152 4985.70839,4670.24616 C4986.35588,4670.36144 4986.96642,4671.08216 4987.08959,4671.87504 C4987.21275,4672.66879 4987.68694,4673.23199 4988.162,4673.15015 C4988.65642,4673.06479 4988.90011,4673.46431 4988.74703,4674.10143 C4988.60363,4674.69279 4988.91418,4675.93974 4989.42092,4676.80302 C4989.99979,4677.7895 4990.11328,4678.60878 4989.71651,4678.93525 C4988.83501,4679.65861 4989.34614,4682.1798 4990.33849,4682.0082 C4990.92352,4681.907 4990.942,4682.24316 4990.39656,4683.08444 C4989.74378,4684.09204 4989.80449,4684.19588 4990.7423,4683.66964 C4991.65283,4683.15924 4991.9669,4683.49276 4992.31176,4685.33459 C4992.66894,4687.24155 4992.81498,4687.37971 4993.16424,4686.13715 C4993.50646,4684.92364 4993.62874,4684.86468 4993.80733,4685.82299 C4993.92962,4686.48123 4993.60939,4687.33483 4993.08682,4687.74667 C4992.39094,4688.29314 4992.38214,4689.09042 4993.05251,4690.80818 C4993.8478,4692.84361 4993.73959,4693.27569 4992.17892,4694.32025 C4990.79332,4695.246 4990.72294,4695.41848 4991.86221,4695.09728 C4993.67625,4694.58689 4994.81288,4697.68448 4993.37802,4699.22799 C4992.34431,4700.34031 4993.0138,4702.50862 4994.11085,4701.60398 C4994.4909,4701.29158 4994.68884,4701.7967 4994.59295,4702.83158 C4994.48386,4704.00462 4994.85423,4704.82301 4995.70231,4705.28853 C4996.41842,4705.68013 4997.02985,4706.33221 4997.09935,4706.77837 C4997.17588,4707.27117 4996.92428,4707.25005 4996.43514,4706.72381 C4995.94688,4706.19669 4995.51668,4706.17997 4995.30026,4706.68157 C4995.11112,4707.12157 4995.33985,4707.63812 4995.80436,4707.81676 C4996.37267,4708.03588 4996.46417,4708.45036 4996.08148,4709.05932 C4995.52548,4709.9402 4996.56622,4709.9094 4999.83888,4708.94492 C5000.10808,4708.86572 5000.04298,4707.08549 4999.6946,4704.97173 C4999.34622,4702.85974 4999.18083,4701.05398 4999.32422,4700.94399 C5001.99162,4698.89975 5002.95494,4698.32951 5003.32443,4698.57415 C5003.5822,4698.74575 5003.27605,4699.19895 5002.67342,4699.53775 C5001.16026,4700.38695 5001.58957,4702.87558 5003.39393,4703.70894 C5004.57015,4704.25277 5004.65285,4704.54669 5003.88659,4705.47157 C5003.21182,4706.28469 5003.07194,4706.32605 5003.3649,4705.62821 C5003.57956,4705.11605 5003.40273,4704.73941 5002.98309,4704.81245 C5002.53706,4704.88901 5002.29513,4705.54197 5002.41829,4706.33485 C5002.65494,4707.85636 5003.46431,4707.92148 5004.55696,4706.50909 C5005.29506,4705.55517 5005.43582,4705.67837 5006.76512,4708.43716 C5007.28857,4709.52396 5006.11763,4711.40011 5004.77074,4711.63331 C5004.34494,4711.70635 5003.94113,4711.45203 5003.88307,4711.07275 C5003.82149,4710.67675 5004.09333,4710.32388 5004.51913,4710.24996 C5004.93789,4710.1778 5005.00211,4709.69204 5004.66517,4709.1394 C5004.06694,4708.15644 5002.6004,4707.95316 5002.91623,4708.8974 C5003.36666,4710.24556 5003.04203,4710.77707 5002.26698,4709.96044 C5001.76816,4709.43596 5001.15498,4709.31804 5000.86554,4709.69292 C5000.59194,4710.0458 5000.96143,4710.55004 5001.65027,4710.76475 C5003.60859,4711.37723 5003.20039,4714.64994 5001.00278,4715.96818 C5000.00339,4716.56746 4998.51662,4717.22481 4997.8005,4717.38497 C4995.66184,4717.86105 4995.14895,4720.08393 4996.72193,4722.05336 L4998.05739,4723.72359 L4998.24478,4721.41624 C4998.34595,4720.1772 4998.69521,4719.06401 4998.9996,4719.01121 C4999.91981,4718.85281 5000.90337,4721.53504 5000.77933,4723.86439 C5000.67376,4725.85231 5000.75909,4725.92183 5002.1051,4724.94327 C5003.54525,4723.89695 5005.28539,4724.55783 5003.96313,4725.64727 C5002.89951,4726.52462 5003.2435,4727.5815 5004.52001,4727.36062 C5005.15782,4727.25062 5005.72438,4727.61318 5005.81411,4728.18958 C5005.90121,4728.74838 5006.50472,4729.12326 5007.14253,4729.01326 C5007.85161,4728.89006 5008.1516,4729.15934 5007.90439,4729.69613 C5007.62639,4730.29805 5006.93755,4730.13437 5005.74989,4729.18486 L5004.0036,4727.78918 L5004.82352,4729.31158 C5005.52468,4730.61573 5005.41471,4730.81021 5004.05022,4730.66677 C5003.16168,4730.57349 5002.30569,4730.85597 5002.11126,4731.30741 C5001.90804,4731.77733 5002.11742,4732.05365 5002.61448,4731.96741 C5003.16432,4731.87237 5003.43792,4732.63973 5003.38953,4734.14188 C5003.31475,4736.39467 5003.32707,4736.40523 5003.79334,4734.4798 C5004.47074,4731.68669 5006.18009,4732.23405 5006.27246,4735.27356 C5006.32789,4737.09691 5006.63756,4737.65571 5007.51554,4737.50347 C5008.15336,4737.39259 5008.85276,4736.93323 5009.05334,4736.49147 C5009.57415,4735.34396 5010.87618,4736.10867 5010.57266,4737.38291 C5010.43718,4737.94963 5009.88646,4738.28227 5009.39116,4738.09659 C5008.67329,4737.82555 5008.69177,4737.94523 5009.47386,4738.62547 C5010.01754,4739.09803 5010.72222,4740.27634 5010.99934,4741.1801 C5011.27646,4742.0821 5011.80431,4742.99025 5012.14213,4743.14865 C5013.18727,4743.63529 5012.28905,4745.96992 5011.05301,4745.9796 C5010.39759,4745.98488 5009.80201,4746.44864 5009.68852,4747.04176 C5009.54776,4747.78536 5009.82312,4747.9068 5010.62721,4747.45712 C5011.22984,4747.11832 5011.80871,4747.09808 5011.85797,4747.414 C5011.9134,4747.7704 5011.69522,4748.14792 5011.31341,4748.35648 C5010.94832,4748.55536 5010.66152,4749.31743 5010.64304,4750.13583 C5010.62457,4750.95335 5010.32634,4751.84919 5009.94804,4752.22494 C5009.59087,4752.57958 5010.31402,4752.70542 5011.51927,4752.49598 C5013.50486,4752.15454 5013.78726,4752.33142 5014.06086,4754.09494 C5014.26672,4755.41757 5014.03271,4756.02389 5013.36058,4755.91301 C5012.83801,4755.82677 5012.41133,4756.12949 5012.47556,4756.54133 C5012.54682,4757.00421 5012.87936,4757.28669 5013.27261,4757.21805 C5013.63946,4757.15469 5014.65469,4757.82877 5015.50452,4758.69996 C5016.35524,4759.57204 5016.64204,4760.1414 5016.13618,4759.9522 C5014.78665,4759.44884 5015.49749,4762.40211 5016.95874,4763.37187 C5017.64231,4763.82507 5018.34962,4764.82914 5018.45255,4765.4909 C5018.55548,4766.15178 5019.15547,4767.01242 5019.71763,4767.30898 C5020.55779,4767.74986 5020.57802,4766.6173 5019.81352,4762.06419 C5019.08245,4757.70909 5019.08685,4756.21485 5019.832,4756.08549 C5020.72406,4755.93237 5021.03549,4756.35301 5021.03285,4757.71173 C5021.03197,4757.95813 5021.53167,4758.36204 5022.07095,4758.55124 C5022.90231,4758.84252 5022.94102,4759.1822 5022.26186,4760.25052 C5021.77712,4761.0126 5021.74809,4761.72979 5022.195,4761.92515 C5022.62255,4762.11171 5023.18383,4763.18003 5023.43632,4764.29147 C5023.68793,4765.40114 5024.3495,4766.48266 5024.90022,4766.68418 C5026.5427,4767.28786 5026.5691,4766.60234 5024.98291,4764.49915 C5023.66945,4762.75587 5023.63954,4762.48483 5024.65653,4761.60131 C5025.66648,4760.72484 5025.64448,4760.69228 5024.42515,4761.28364 C5023.04747,4761.95067 5022.94542,4761.3206 5023.87355,4757.90093 C5024.16387,4756.83173 5024.03455,4756.65925 5023.35538,4757.20925 C5022.77299,4757.68093 5022.58648,4757.65277 5022.83281,4757.13005 C5023.03779,4756.69621 5023.98968,4756.37325 5024.87382,4756.43837 C5026.24271,4756.53781 5026.41514,4756.30725 5025.86442,4755.11221 C5025.08145,4753.41382 5025.97879,4752.2663 5026.90692,4753.77814 C5027.85001,4755.31197 5028.15528,4758.29868 5027.338,4758.00829 C5026.96674,4757.87629 5026.56206,4758.421 5026.46529,4759.18484 C5026.36939,4759.9478 5026.64475,4760.74332 5027.06,4760.90172 C5027.84825,4761.20092 5028.34179,4766.83818 5027.70133,4768.23913 C5027.38286,4768.93609 5028.41129,4769.13409 5029.86639,4768.65625 C5030.78308,4768.35617 5030.68455,4769.69993 5029.74938,4770.24465 C5029.08165,4770.63537 5029.09573,4770.72777 5029.81184,4770.64681 C5031.16401,4770.49633 5031.24495,4771.9052 5029.89806,4772.1384 C5028.62067,4772.3584 5028.52653,4773.50504 5029.74586,4773.9732 C5030.1831,4774.14216 5030.63792,4774.92887 5030.79188,4775.78511 C5030.94496,4776.64223 5031.25727,4776.91239 5031.50887,4776.40903 C5031.99097,4775.44191 5034.58535,4774.86111 5034.15075,4775.81679 C5033.98624,4776.17847 5033.46103,4776.33071 5032.99653,4776.15207 C5032.42821,4775.93295 5032.40446,4776.32191 5032.92263,4777.31895 C5033.44168,4778.31598 5033.40385,4778.69526 5032.80914,4778.45854 C5032.29889,4778.25614 5031.79655,4778.63366 5031.63556,4779.3403 C5031.41122,4780.32942 5031.20448,4780.41302 5030.60801,4779.75566 C5030.18046,4779.28662 5029.679,4779.1687 5029.43619,4779.48198 C5028.75263,4780.36638 5031.06988,4782.02957 5032.14053,4781.42149 C5032.67542,4781.11877 5033.12585,4781.20237 5033.19095,4781.61773 C5033.25253,4782.01461 5033.61235,4782.09117 5033.98184,4781.78669 C5034.3443,4781.48837 5035.22052,4782.01461 5035.8689,4782.92101 C5036.94923,4784.43196 5036.9202,4784.77868 5035.60673,4786.15764 C5034.79297,4787.01211 5034.22113,4788.24763 5034.32582,4788.92523 C5034.50177,4790.05867 5034.58095,4790.03491 5035.40439,4788.60227 C5036.24631,4787.13795 5036.31493,4787.18987 5036.7117,4789.56499 C5037.15245,4792.20498 5035.5821,4797.85368 5034.59151,4797.19632 C5034.27304,4796.98512 5034.07949,4797.18312 5034.15075,4797.646 C5034.22377,4798.10888 5034.60734,4798.416 5035.02434,4798.34384 C5035.4431,4798.27168 5035.84075,4798.67824 5035.93312,4799.27312 C5036.02637,4799.86799 5035.60145,4800.41711 5034.96276,4800.52711 C5034.32494,4800.63711 5034.0575,4800.96535 5034.35134,4801.27775 C5034.64517,4801.58839 5034.51849,4802.11815 5034.06542,4802.48159 C5033.54725,4802.89694 5033.40297,4802.81159 5033.66425,4802.24487 C5033.90266,4801.72919 5033.77774,4801.41063 5033.36426,4801.48191 C5032.28129,4801.66935 5032.07279,4803.67398 5032.97717,4805.21486 C5033.98976,4806.94141 5033.93346,4809.93956 5032.88568,4810.12084 C5032.46428,4810.193 5031.56254,4809.77148 5030.92296,4809.20301 C5029.89982,4808.29309 5029.75906,4808.30365 5029.87958,4809.28132 C5029.95436,4809.8938 5030.87898,4810.7914 5031.89508,4811.24108 C5033.14608,4811.79548 5033.31323,4812.01548 5032.3983,4811.90196 C5031.58101,4811.80076 5031.06812,4812.10876 5031.13322,4812.66315 C5031.51151,4815.92442 5031.28894,4820.13873 5030.68543,4821.09177 C5030.08984,4822.03424 5030.26667,4822.08704 5031.68834,4821.39449 C5033.24461,4820.63593 5033.39417,4820.72041 5033.20503,4822.25336 C5033.09418,4823.15448 5033.44344,4824.30552 5033.94929,4824.70416 C5034.65661,4825.26119 5034.683,4825.49439 5034.0531,4825.60263 C5032.71325,4825.83407 5033.25077,4827.00095 5035.26187,4828.22855 C5036.78999,4829.16046 5036.99761,4829.56702 5036.25687,4830.1795 C5035.48885,4830.8131 5035.58826,4831.03398 5036.81111,4831.4071 C5038.03483,4831.78109 5038.1536,4832.09613 5037.4718,4833.16005 C5036.42314,4834.80036 5037.65742,4837.55652 5039.49785,4837.68324 C5040.60193,4837.7598 5040.82803,4837.47028 5040.40399,4836.52516 C5039.72395,4835.01244 5040.45502,4834.83468 5042.30424,4836.06052 C5043.52093,4836.86924 5043.57196,4837.08836 5042.73884,4837.92083 C5041.79223,4838.86507 5041.69546,4842.73882 5042.61743,4842.76258 C5042.89895,4842.7705 5044.3435,4842.63322 5045.84522,4842.45546 C5050.06361,4841.9565 5051.45713,4842.35954 5050.52548,4843.80802 C5050.08384,4844.49529 5049.9466,4845.02417 5050.21141,4845.01625 C5050.48061,4845.00833 5051.01286,4845.01889 5051.45273,4845.03913 C5051.87325,4845.05937 5052.76267,4845.03033 5053.40841,4844.97401 C5054.07173,4844.91681 5055.21716,4845.78097 5056.00718,4846.93553 L5057.42005,4849 L5057.07607,4846.78505 C5056.89132,4845.59441 5056.35644,4844.43017 5055.92096,4844.26825 C5055.39311,4844.0729 5055.30778,4843.4569 5055.67727,4842.5109 C5056.38723,4840.69107 5057.64702,4840.39715 5057.92063,4841.98818 C5058.19247,4843.57042 5061.92611,4845.28993 5063.34514,4844.48649 C5064.21433,4843.99458 5064.3155,4844.11162 5063.77094,4844.98369 C5063.08826,4846.07929 5063.64778,4846.90561 5064.92429,4846.68561 C5065.28938,4846.62313 5065.31842,4846.31249 5064.99379,4845.96049 C5064.663,4845.60409 5064.88646,4845.26617 5065.52428,4845.15617 C5066.14186,4845.04969 5066.73745,4844.47153 5066.88436,4843.8353 C5067.03128,4843.19906 5066.74185,4842.77314 5066.22367,4842.86378 C5065.62897,4842.96586 5065.65624,4842.72034 5066.29845,4842.1721 C5066.94067,4841.6221 5067.51074,4841.54818 5067.90399,4841.96178 C5068.28492,4842.36218 5068.61043,4842.17914 5068.77406,4841.4725 C5068.92098,4840.83539 5068.52949,4840.26515 5067.87936,4840.16659 C5067.20899,4840.06539 5066.67323,4839.65971 5066.60109,4839.19947 C5066.53598,4838.77619 5067.00049,4838.49019 5067.59872,4838.58523 C5068.19519,4838.68203 5068.9157,4838.50955 5069.14267,4838.21739 C5069.87022,4837.27668 5073.11561,4836.60876 5073.23438,4837.37436 C5073.29948,4837.7906 5073.89331,4837.39724 5074.62086,4836.45652 C5075.34929,4835.51668 5076.53255,4834.70004 5077.38414,4834.55397 C5078.23398,4834.40701 5078.83132,4834.02773 5078.77502,4833.66781 C5078.72223,4833.32637 5079.35213,4831.73533 5080.1615,4830.1707 C5080.97087,4828.60518 5081.40458,4827.03263 5081.1169,4826.71231 C5080.83363,4826.39727 5080.94887,4825.17935 5081.36499,4824.08992 C5082.11278,4822.12664 5082.16644,4822.10552 5082.87288,4823.48888 C5083.28724,4824.30024 5083.99104,4824.85816 5084.49249,4824.77104 C5084.99835,4824.68392 5084.8136,4825.19607 5084.05878,4825.96607 C5082.7849,4827.26847 5082.80866,4827.28695 5084.72914,4826.53015 C5086.16929,4825.96167 5086.76048,4826.00919 5086.86781,4826.70351 C5086.94874,4827.22711 5087.61383,4827.99183 5088.32995,4828.38606 C5089.44547,4829.0003 5089.71819,4828.9431 5090.12815,4828.00855 C5090.50028,4827.16023 5090.84602,4827.27287 5091.6246,4828.49606 C5092.16916,4829.35318 5092.59056,4829.68758 5092.53777,4829.22206 C5092.48587,4828.76006 5092.9363,4828.27079 5093.50286,4828.17223 C5094.66588,4827.97247 5095.19197,4826.38671 5094.84271,4824.13832 C5094.66852,4823.01456 5094.85679,4822.84296 5095.67231,4823.38416 C5096.24327,4823.76344 5097.32975,4823.98168 5098.03971,4823.85848 C5098.95993,4823.6992 5099.44906,4824.192 5099.67956,4825.51111 C5099.86342,4826.56447 5100.19333,4827.04407 5100.43174,4826.60231 C5100.65784,4826.18343 5101.59565,4825.65719 5102.44108,4825.47503 C5103.63842,4825.21719 5103.98856,4825.46359 5103.87155,4826.48351 C5103.78446,4827.24647 5103.34898,4827.91263 5102.87128,4828.01471 C5102.39797,4828.11591 5102.85104,4828.35262 5103.90234,4828.55414 C5105.70318,4828.89998 5108.4823,4828.01559 5109.06469,4826.91207 C5109.23361,4826.58999 5110.19605,4825.95375 5111.15057,4825.53311 C5112.1051,4825.11248 5112.60216,4825.06936 5112.22826,4825.43983 C5110.96671,4826.69031 5110.80659,4828.78382 5111.98809,4828.57966 C5112.55553,4828.48198 5113.21446,4828.01999 5113.40009,4827.58879 C5113.59011,4827.14879 5114.02822,4826.88479 5114.36605,4827.00799 C5115.12615,4827.28695 5115.32409,4829.42974 5114.71091,4830.75766 C5114.43907,4831.34814 5114.46106,4831.94125 5114.76193,4832.14101 C5115.05753,4832.33725 5115.23348,4832.12693 5115.16134,4831.66405 C5115.09096,4831.2091 5115.90384,4830.35286 5116.97626,4829.75534 C5118.65217,4828.82254 5118.73575,4828.5867 5117.58504,4828.05079 C5115.74549,4827.19191 5116.26806,4825.66775 5118.53781,4825.27615 C5120.6448,4824.91272 5120.34744,4824.27296 5118.09969,4824.33104 C5117.30264,4824.35304 5116.73784,4823.87872 5116.75984,4823.20728 C5116.78007,4822.59216 5116.39738,4822.1152 5115.94783,4822.19264 C5115.46925,4822.27536 5115.52115,4821.79049 5116.0666,4821.08649 C5117.09766,4819.75329 5118.17623,4819.25081 5117.68445,4820.33145 C5117.27801,4821.22641 5119.28559,4821.65497 5120.10727,4820.84801 C5120.4231,4820.53825 5120.18557,4820.88321 5119.57239,4821.62505 C5118.22374,4823.25656 5118.21934,4824.18672 5119.56359,4823.444 C5120.10024,4823.14744 5120.76181,4823.23544 5120.98086,4823.63232 C5121.59141,4824.7376 5124.21481,4820.96945 5124.7409,4818.23002 C5125.29426,4815.35067 5126.16081,4813.87755 5127.0907,4814.24011 C5127.47075,4814.38883 5127.73644,4814.18203 5127.67485,4813.78603 C5127.61327,4813.38915 5127.23938,4813.11371 5126.85317,4813.18059 C5126.44761,4813.25011 5126.23735,4812.87875 5126.36315,4812.31468 C5126.63147,4811.11436 5128.8194,4810.56524 5129.83551,4811.44348 C5130.31497,4811.85884 5130.38359,4811.689 5130.0097,4811.00612 C5129.671,4810.38484 5129.74666,4809.82956 5130.17949,4809.75476 C5130.60529,4809.68172 5130.74253,4809.39484 5130.48213,4809.12557 C5130.2138,4808.84661 5130.94399,4808.11181 5132.151,4807.44565 C5133.96152,4806.44509 5134.17706,4806.43981 5133.52869,4807.41133 C5133.01668,4808.17869 5133.03339,4808.51485 5133.57619,4808.42157 C5134.04246,4808.34061 5134.64949,4807.62517 5134.99171,4806.75133 C5135.33481,4805.87662 5135.97174,4805.1559 5136.4776,4805.0679 C5137.04943,4804.96934 5137.01072,4805.21662 5136.36763,4805.76662 C5135.78964,4806.26029 5135.59345,4806.76453 5135.8996,4806.96781 C5136.1864,4807.15877 5136.92715,4806.38349 5137.52714,4805.26062 C5138.15088,4804.0955 5139.23648,4802.21583 5140.03265,4800.92399 C5141.57925,4798.41688 5141.6813,4797.78768 5140.51124,4797.9892 C5140.0784,4798.064 5139.59278,4798.69144 5139.42035,4799.39984 C5139.24352,4800.12143 5138.53269,4801.45463 5137.7849,4802.46575 C5136.51895,4804.1791 5136.45209,4804.19934 5136.2559,4802.93478 C5136.14242,4802.20615 5136.33772,4801.56199 5136.68786,4801.50215 C5137.05295,4801.43791 5137.08286,4801.12815 5136.75736,4800.77615 C5136.43801,4800.43119 5136.71249,4800.24991 5137.3855,4800.36255 C5138.1324,4800.48839 5138.51949,4800.16719 5138.41744,4799.50544 C5138.32771,4798.93344 5138.80541,4798.02528 5139.4573,4797.52632 C5140.55083,4796.69032 5140.50068,4796.51608 5138.9057,4795.61849 C5137.94766,4795.08081 5137.23682,4794.12337 5137.34063,4793.51353 C5137.46379,4792.7849 5137.21747,4792.92306 5136.63683,4793.90601 C5135.78788,4795.34305 5135.7087,4795.36065 5135.05681,4794.28089 C5134.68467,4793.66313 5134.42427,4791.13138 5134.48761,4788.74307 C5134.55183,4786.35564 5134.61869,4783.25365 5134.63541,4781.96181 C5134.65652,4780.3963 5134.42339,4779.7803 5133.95624,4780.16574 C5132.88295,4781.04925 5132.94278,4779.26638 5134.03454,4777.85662 C5134.57999,4777.15087 5135.08408,4776.70735 5135.18789,4776.84199 C5135.2873,4776.97311 5136.11514,4777.9719 5137.00897,4779.03934 C5139.14499,4781.59133 5139.19514,4782.12373 5137.49019,4784.1618 C5136.1389,4785.7766 5136.1389,4785.7766 5137.60719,4785.14916 C5138.55996,4784.7426 5139.18458,4783.58629 5139.38868,4781.85445 C5139.55935,4780.39806 5139.82327,4779.75214 5139.96755,4780.42974 C5140.10831,4781.08533 5140.55786,4781.42501 5140.9168,4781.14869 C5141.33468,4780.82749 5141.24143,4780.04078 5140.67487,4779.11942 C5139.92005,4777.8927 5139.97899,4777.5891 5141.00126,4777.46766 C5141.79919,4777.37351 5142.20299,4776.75135 5142.11677,4775.74727 C5141.99009,4774.27503 5141.97338,4774.27151 5141.85285,4775.69183 C5141.7332,4777.10247 5141.63027,4777.08839 5140.35728,4775.47447 C5138.99015,4773.74088 5138.2151,4771.1 5139.38956,4772.178 C5139.73882,4772.49744 5141.08747,4772.63912 5142.44932,4772.4992 C5144.45602,4772.2924 5144.85015,4772.01432 5144.68036,4770.92577 C5144.56775,4770.19713 5145.00146,4769.40513 5145.64456,4769.16401 C5146.62723,4768.79441 5146.5287,4768.50137 5145.02962,4767.3345 C5142.88743,4765.6669 5142.77834,4765.36506 5143.82524,4764.01163 C5144.93548,4762.57635 5145.72725,4762.66523 5145.97358,4764.25187 C5146.09763,4765.04562 5145.80995,4765.70562 5145.30322,4765.79362 C5144.62141,4765.91066 5144.66012,4766.10866 5145.47213,4766.64722 C5146.31668,4767.20778 5146.6246,4767.12682 5147.01168,4766.24506 C5147.27561,4765.6449 5148.05858,4765.24626 5148.73247,4765.37122 C5149.40723,4765.49618 5149.92277,4765.29818 5149.86646,4764.93826 C5149.8084,4764.55987 5149.12572,4764.38651 5148.275,4764.53347 C5146.15393,4764.89954 5146.36771,4763.97467 5148.84068,4762.08179 L5151.05324,4760.3878 L5152.97637,4761.99027 C5154.05669,4762.89051 5155.23995,4763.31027 5155.67455,4762.94859 C5156.72673,4762.07123 5156.31764,4760.53124 5154.97075,4760.29804 C5153.37489,4760.02348 5153.9045,4757.17933 5155.60593,4756.88541 C5157.16572,4756.61613 5157.74283,4757.64045 5156.41002,4758.31188 C5155.82059,4758.60932 5155.93231,4759.06956 5156.8191,4760.00324 C5157.81497,4761.05308 5157.88799,4761.52211 5157.21938,4762.58163 C5156.78567,4763.26715 5156.66778,4763.83123 5156.96778,4763.77931 C5157.2924,4763.72387 5157.8528,4763.11755 5158.27772,4762.36515 C5158.73079,4761.56083 5159.54191,4761.13052 5160.36272,4761.25812 C5161.55653,4761.44468 5161.60492,4761.60219 5160.80171,4762.67667 C5160.29938,4763.34811 5159.07565,4764.22283 5158.04899,4764.64523 C5156.88596,4765.12394 5156.40298,4765.74786 5156.7452,4766.33042 C5157.03552,4766.82322 5157.62055,4767.19722 5157.99884,4767.1321 C5158.38505,4767.06522 5158.43695,4766.71674 5158.11233,4766.36562 C5157.13053,4765.3017 5163.17087,4765.49266 5164.43155,4766.56538 C5165.42654,4767.41106 5165.53827,4767.39258 5165.38431,4766.40082 C5165.1591,4764.94618 5166.22447,4764.02483 5167.56696,4764.51411 C5168.69304,4764.92506 5170.04609,4765.00338 5172.56392,4764.80362 C5173.93017,4764.69538 5174.09028,4764.87138 5173.48502,4765.8165 C5172.86568,4766.78626 5173.02579,4766.84698 5174.52928,4766.21338 C5175.48644,4765.81034 5176.80078,4765.7241 5177.37702,4766.02682 C5178.12304,4766.4193 5179.12068,4766.23626 5180.66903,4765.42578 C5181.88132,4764.79042 5183.6021,4764.15331 5184.45634,4764.02483 C5186.02141,4763.78811 5186.02141,4763.78811 5184.62525,4764.64259 C5182.68101,4765.83146 5184.61997,4765.5437 5186.83165,4764.31611 C5188.30611,4763.49595 5188.67736,4763.54435 5189.24568,4764.62323 C5189.60638,4765.30874 5190.49228,4765.79978 5191.15825,4765.68538 C5192.1506,4765.51378 5192.18227,4765.38618 5191.31396,4765.04738 C5190.38407,4764.68394 5190.3612,4764.53787 5191.15473,4764.02219 C5191.8163,4763.59363 5191.8207,4763.35427 5191.17056,4763.18707 C5189.3662,4762.72067 5190.58289,4760.81284 5192.69341,4760.80228 C5193.78429,4760.79612 5195.46901,4760.75564 5196.3206,4760.71604 C5198.48918,4760.61308 5201.10378,4762.29739 5199.88094,4763.00931 C5199.28447,4763.35691 5199.3698,4763.46779 5200.15454,4763.36395 C5201.72752,4763.15627 5203.09641,4764.84586 5204.89549,4769.22033 C5205.75676,4771.31296 5206.71569,4772.98056 5207.028,4772.92688 C5207.32711,4772.87496 5207.56992,4773.44432 5207.54265,4774.1272 C5207.50394,4775.07319 5208.02651,4775.37063 5209.45962,4775.22279 C5210.53467,4775.11103 5211.83669,4775.28791 5212.32319,4775.61087 C5212.93462,4776.01655 5212.76746,4776.12743 5211.79534,4775.96111 C5210.0077,4775.65751 5210.08952,4775.92855 5212.80617,4779.32974 C5214.04486,4780.88117 5215.49028,4783.52645 5215.96006,4785.09988 C5217.36502,4789.81403 5218.51133,4792.33258 5219.19841,4792.2129 C5219.54327,4792.15394 5220.22332,4793.19058 5220.67727,4794.47009 C5221.13297,4795.74961 5221.84469,4796.78096 5222.22826,4796.71496 C5222.63294,4796.64456 5222.78514,4796.9244 5222.58368,4797.36616 C5222.38661,4797.79824 5222.90478,4798.0244 5223.7555,4797.87744 C5224.58686,4797.73312 5225.76924,4798.20832 5226.35691,4798.922 C5226.94458,4799.63568 5227.11789,4800.11439 5226.73872,4799.97623 C5226.34547,4799.83191 5226.17744,4800.58255 5226.35251,4801.70631 C5226.67098,4803.75582 5227.48826,4804.28822 5227.83752,4802.67255 C5227.99236,4801.95095 5228.27652,4801.90255 5229.16154,4802.44375 C5229.96563,4802.93566 5230.03425,4803.17502 5229.40083,4803.28502 C5228.90466,4803.37038 5228.56155,4803.7435 5228.62314,4804.13246 C5228.6812,4804.50558 5229.15626,4804.75286 5229.65244,4804.66662 C5230.37471,4804.54254 5233.72039,4808.37845 5234.49193,4810.21412 C5234.97051,4811.35372 5236.30508,4812.07356 5237.54201,4811.8606 C5238.4631,4811.70132 5239.0279,4812.05508 5239.15458,4812.87259 C5239.47305,4814.92211 5242.54513,4816.90826 5244.25447,4816.16818 C5245.48964,4815.63138 5245.65855,4815.7889 5245.487,4817.31306 C5245.36295,4818.4201 5245.61896,4819.02113 5246.17496,4818.92521 C5246.67202,4818.83985 5246.90603,4819.11265 5246.70897,4819.54649 C5246.50575,4819.98913 5246.88668,4820.22761 5247.59663,4820.10529 C5248.44647,4819.95833 5248.63913,4819.57377 5248.2063,4818.88033 L5248.2063,4818.88033 Z" id="Paint-4"></path>
        </g>
    </g>
</svg>