<?xml version="1.0" encoding="UTF-8"?>
<svg width="308px" height="318px" viewBox="0 0 308 318" version="1.1" xmlns="http://www.w3.org/2000/svg" xmlns:xlink="http://www.w3.org/1999/xlink">
    <title>Shape</title>
    <g id="Page-1" stroke="none" stroke-width="1" fill="none" fill-rule="evenodd">
        <g id="Desktop-HD" transform="translate(-4743.000000, -3857.000000)" fill="#000000">
            <path d="M4867.81131,4139.73074 C4867.86729,4139.81611 4867.92906,4139.9652 4868,4140.21327 L4867.81131,4139.73074 C4867.6337,4139.46329 4867.51932,4139.90752 4867.33741,4140.31835 L4867.24857,4140.09641 C4867.1353,4139.84649 4866.98223,4139.66236 4866.72502,4139.90417 C4865.68807,4139.96162 4866.12127,4141.53004 4865.51602,4141.79611 L4865.60327,4141.56216 C4864.93233,4141.65464 4864.34772,4142.20108 4864.30539,4143 C4863.19912,4142.21055 4865.56038,4141.67715 4864.17589,4141.30266 C4864.94584,4141.25476 4865.20798,4139.90141 4865.59436,4139.52749 C4866.23595,4139.35516 4866.88144,4139.18168 4867.52478,4139 L4867.81131,4139.73074 Z M4856.003,4143.64893 C4856.00515,4143.31058 4855.85372,4142.87638 4855.60271,4142.55876 C4855.84264,4142.49344 4856.07973,4142.42798 4856.3146,4142.35107 L4856.37417,4142.65948 C4856.42243,4142.95938 4856.4149,4143.23614 4856.15493,4143.51135 L4856.003,4143.64893 Z M4821.47721,4126.07844 L4820.79277,4126.70816 L4820.52279,4125.29343 L4820.77237,4125.88147 C4821.07673,4126.09993 4821.07541,4125.53057 4821.00578,4125.29184 L4821.47721,4126.07844 Z M4818.6068,4125.49036 C4819.09787,4125.70984 4819.73507,4126.47176 4819.57331,4127 L4818.40104,4125.44973 L4818.42115,4125.3466 C4818.47999,4125.12179 4818.66419,4124.75922 4819.04721,4125.22911 C4819.43084,4126.14378 4818.76622,4125.05673 4818.62714,4125.40133 L4818.6068,4125.49036 Z M4817.21512,4127.7306 L4817.95401,4128.62893 C4817.69098,4129.08106 4817.18793,4128.46557 4816.71165,4127.87982 L4816.37956,4127.97429 L4816.52758,4128.41964 L4816.04599,4128.0701 L4816.37956,4127.97429 L4816.12905,4127.21485 C4816.30227,4127.36837 4816.50436,4127.61971 4816.71165,4127.87982 L4817.21512,4127.7306 L4817.12441,4127.62388 C4817.27828,4127.63336 4817.42813,4127.63838 4817.58303,4127.62809 L4817.21512,4127.7306 Z M4815.98318,4130.57761 L4813.88673,4132.51509 C4813.92219,4132.60478 4813.9364,4132.68134 4813.88614,4132.73289 L4813.84325,4132.55376 L4813.22053,4133.1281 C4812.35969,4132.8621 4812.51714,4132.19146 4811.77973,4132.44695 C4812.08697,4132.92621 4812.17587,4132.90433 4812.58121,4133.28035 L4812.18398,4133.69306 L4812.03323,4133.41085 L4811.88254,4134 C4810.98845,4133.18949 4812.21813,4132.49853 4811,4132.2369 C4811.31795,4130.81515 4812.3734,4130.69767 4813.02675,4129.82163 C4812.9553,4130.06586 4813.377,4130.38615 4813.57532,4130.59861 C4812.50322,4130.61654 4813.40881,4131.34821 4813.07431,4131.97959 C4813.57098,4132.33386 4814.60077,4131.85039 4814.34727,4130.88649 L4813.90887,4130.83492 L4813.64935,4129.8695 C4813.72017,4129.8852 4813.78642,4129.93937 4813.84517,4130.00767 L4814.04908,4130.32827 C4813.43702,4129.36988 4814.50554,4129.35057 4814.98721,4129 C4815.14758,4129.8302 4815.98313,4129.90048 4816,4130.42299 L4815.98318,4130.57761 Z M4799.57288,4117.76582 L4799.93971,4117.49473 L4799.93971,4117.49473 L4800.42712,4117.94937 C4800.04501,4119.05235 4799.89558,4118.25573 4799.57288,4117.76582 Z M4804.42021,4082.31712 L4804.76332,4082.33767 L4804.81839,4083.34254 C4804.67778,4082.74984 4804.04702,4082.04596 4804.26554,4082.72396 L4804.57326,4083.2721 C4804.80217,4083.702 4804.56659,4083.40023 4804.6938,4084 C4804.59593,4083.74561 4804.20011,4083.30222 4804.1551,4083.46769 C4804.0479,4083.40176 4804.01059,4083.41168 4803.99573,4083.45435 C4804.21517,4082.82615 4802.75769,4081.28602 4803.30573,4081 C4803.24792,4081.08078 4803.41626,4081.34207 4803.50415,4081.51192 C4803.65253,4081.60414 4803.92518,4081.61777 4803.8072,4081.1973 L4803.98418,4081.54156 L4804.34088,4081.14443 C4804.92497,4082.26865 4804.02161,4081.4173 4804.33374,4082.13746 L4804.42021,4082.31712 Z M4804,4084.39621 C4803.7146,4084.19272 4803.44947,4084.11528 4803.19902,4084.16823 C4803.4904,4084.82087 4803.34176,4084.68557 4803.26286,4085 C4802.6507,4084.33284 4803.25003,4084.48854 4802.75576,4083.76243 C4802.69088,4083.75834 4802.711,4083.88668 4802.72288,4083.95381 C4802.3726,4083.74623 4802.37724,4083.363 4802.138,4083.03416 L4802.59555,4083.11687 L4802.05556,4082.07068 C4801.20511,4081.51901 4801.82317,4081.80415 4801,4081 C4801.43404,4081.3388 4801.31733,4080.56778 4802.16049,4081.50256 L4802.75945,4082.93486 C4802.81372,4082.87303 4802.95299,4082.94362 4802.8466,4082.68165 L4803.64625,4083.74189 C4803.66188,4083.72538 4803.66843,4083.70501 4803.67638,4083.68355 C4803.66862,4083.79322 4803.88426,4084.1155 4803.96825,4084.3028 L4804,4084.39621 Z M4801.8058,4083.87068 C4801.87312,4083.63187 4801.91483,4083.40041 4801.34407,4082.9206 L4800.69679,4082.81408 C4800.92086,4082.7563 4800.73426,4082.18993 4801.3198,4082.71054 L4800.9304,4081.92314 C4800.55726,4081.69533 4800.49326,4082.1068 4800.42179,4082.45162 C4799.89599,4081.03185 4799.95052,4080.54611 4800.11266,4080 C4800.48806,4080.23044 4800.3664,4080.64127 4800.76,4081.01144 C4800.57767,4080.93276 4800.6214,4081.28136 4800.89627,4081.64631 C4801.0126,4081.6514 4800.92006,4081.36513 4800.90173,4081.22789 C4801.113,4081.51938 4801.22286,4081.93908 4801.41467,4082.09202 C4801.44993,4082.37017 4800.95087,4082.0655 4801.46267,4082.92831 C4801.90827,4082.81511 4801.8474,4083.71296 4802,4084 C4801.93261,4083.90634 4801.88048,4083.87186 4801.84107,4083.8669 L4801.8058,4083.87068 Z M4807.49297,4092 C4806.61509,4090.60758 4807.68534,4091.44292 4806.59859,4090.03806 C4806.40521,4090.10049 4806.51588,4090.38945 4806.7216,4090.89506 C4805.95142,4089.79402 4806.70558,4089.82969 4807.25575,4090.35415 C4807.10727,4090.60838 4807.76722,4091.73636 4807.56943,4091.96213 L4807.49297,4092 Z M4791.41655,4075.14693 C4791.32338,4075.30349 4791.247,4075.46376 4791.18579,4075.63191 L4790.88842,4075.09848 C4790.76694,4074.87548 4790.67788,4074.68762 4790.58345,4074.39802 L4790.79602,4074.36809 L4790.79602,4074.36809 L4791.20452,4074.87026 L4791.20452,4074.87026 L4791.41655,4075.14693 Z M4790.00358,4075.60081 L4790.3482,4075.83214 C4790.6289,4076.49639 4790.21625,4076.25638 4790.49308,4076.91914 C4790.82822,4077.45158 4790.82446,4077.29994 4790.85207,4077.12791 C4790.8401,4077.37712 4790.84375,4077.62972 4790.86565,4077.88585 C4790.78214,4077.87119 4790.69641,4077.84865 4790.61801,4077.86144 C4790.56395,4077.88714 4790.70186,4078.14147 4790.94392,4078.51767 L4791,4078.87394 L4791,4078.87394 C4790.92214,4078.82721 4790.85134,4078.79638 4790.80738,4078.80577 L4790.59707,4078.32813 C4790.51071,4078.12341 4790.45304,4077.94873 4790.5009,4077.88389 L4789.75553,4078.02931 L4789.58026,4077.66043 L4789.66599,4078.30041 C4789.67409,4078.02511 4790.00636,4078.09271 4790.43572,4078.85912 C4790.53019,4079.58238 4789.87118,4078.89864 4790.26951,4080 L4789.88477,4079.41935 C4789.32184,4078.58784 4789.1165,4078.36639 4788.76088,4077.68684 C4788.78563,4077.692 4788.80831,4077.71129 4788.83321,4077.73846 C4788.44284,4076.95723 4788.10788,4076.05071 4788.13008,4075.78262 C4787.35769,4075.66906 4787.78641,4076.05228 4787.15078,4076.01695 C4787.07222,4075.90935 4787.04648,4075.82389 4787,4075.73218 C4787.35673,4075.71172 4787.74774,4075.64125 4788.15602,4075.54319 L4788.45051,4076.16472 C4788.50064,4076.26568 4788.55046,4076.36346 4788.59869,4076.45526 C4788.94935,4076.5238 4788.61545,4075.99272 4788.38028,4075.48743 L4788.81705,4075.37401 L4788.81705,4075.37401 L4788.83848,4075.39194 L4788.8317,4075.37088 L4788.8317,4075.37088 L4789.22989,4075.26454 L4789.22989,4075.26454 C4789.35298,4075.37702 4789.55076,4075.6202 4789.73252,4075.94152 C4789.67759,4075.78595 4789.50882,4075.4433 4789.36207,4075.23122 L4789.6892,4075.1484 L4789.6892,4075.1484 L4789.76153,4075.22461 L4789.76153,4075.22461 L4789.70385,4075.14527 L4789.70385,4075.14527 C4789.9335,4075.0872 4790.16274,4075.03687 4790.37677,4075 C4790.46798,4075.38914 4790.01311,4074.9282 4790.56315,4075.55584 C4790.66391,4076.30613 4789.79523,4074.78576 4789.95692,4075.43971 L4790.00358,4075.60081 Z M4787.39867,4076.49858 C4786.63861,4075.35556 4787.17755,4076.88068 4786.48395,4075.73973 C4786.58726,4075.71399 4786.58218,4075.62167 4786.53042,4075.50142 C4786.77203,4075.67411 4787.08691,4075.74584 4787.44934,4075.74784 C4787.52373,4076.03969 4787.5465,4076.28458 4787.46239,4076.42634 L4787.39867,4076.49858 Z M4793.39821,4088 L4792.60179,4087.19184 C4793.65075,4087.87193 4792.14706,4085.48749 4793.25651,4086.10237 C4793.07059,4086.46078 4793.35232,4087.16317 4793.39608,4087.75463 L4793.39821,4088 Z M4784.40627,4087.62195 C4784.05799,4087.05282 4783.91243,4086.96588 4783.49155,4086.86311 C4783.68189,4086.44682 4783.90121,4086.66649 4784.09901,4086.37805 C4784.09908,4086.67158 4784.64119,4087.47571 4784.47773,4087.6047 L4784.40627,4087.62195 Z M4794.93777,4053.44618 C4795.16013,4053.77802 4794.76934,4054.42367 4794.04084,4053.59432 C4793.81239,4052.80074 4793.09362,4053.18241 4793.32831,4052.49901 C4792.93142,4051.94078 4792.16606,4051.47631 4792.1734,4051.9395 C4792.59843,4052.4131 4792.63905,4052.0526 4792.92906,4052.67723 C4792.3159,4052.2489 4792.58748,4052.6849 4792.01856,4051.90321 C4791.40084,4051.67198 4790.93456,4051.17388 4790.37716,4050.85145 C4790.27278,4050.84155 4790.15444,4050.79198 4790,4050.66815 C4790.13171,4050.71568 4790.25325,4050.78072 4790.37716,4050.85145 C4790.92976,4050.89844 4790.88529,4049.55905 4792.03324,4050.15152 C4792.86746,4050.76678 4793.66611,4051.88302 4794.58658,4053.01984 L4794.93777,4053.44618 Z M4787.09146,4029.14521 L4787.57781,4029.5389 L4786.37992,4028.887 L4786.98145,4028.4611 L4787.62008,4029.1106 C4787.44365,4028.99436 4787.03499,4028.84692 4787.06032,4029.05132 L4787.09146,4029.14521 Z M4786.47557,4029.76785 L4785.05746,4028.21082 C4785.58685,4028.24281 4786.28022,4029.0637 4786.45174,4029.57401 C4787.03377,4029.7093 4785.82552,4028.57962 4786.74676,4029.268 C4787.1672,4029.75737 4786.81318,4029.80588 4786.58799,4029.78543 L4786.47557,4029.76785 Z M4784.34224,4031.01293 L4784.25599,4030.9042 L4784.08616,4031.30014 L4784.37981,4031.67212 C4784.46996,4031.79062 4784.549,4031.90177 4784.60678,4032 L4783.97443,4031.56278 L4783.86404,4031.82688 L4783.60436,4031.30593 L4783.97443,4031.56278 L4784.08616,4031.30014 L4783.85651,4031.00826 C4783.48516,4030.5254 4783.20612,4030.08207 4783.54802,4030 L4784.25599,4030.9042 L4784.37931,4030.61016 L4784.35392,4030.81067 L4784.35392,4030.81067 L4784.34224,4031.01293 Z M4784,4032.37282 C4783.64872,4032.68092 4783.51972,4033.54168 4782.80905,4032.95431 L4782.84652,4032.98998 C4782.94698,4033.09273 4783.04083,4033.21222 4783.05328,4033.31436 L4782.16861,4032.79033 L4782.16133,4032.37865 C4781.279,4031.85967 4780.72786,4032.64035 4781.01511,4033.1955 C4781.6393,4033.08542 4782.24167,4034.12051 4782.36098,4033.16047 L4782.62917,4033.54716 C4782.76052,4033.72715 4782.90327,4033.88522 4783.03823,4033.89045 C4782.15224,4034.21492 4781.93947,4035.12959 4780.5734,4034.98453 C4780.44309,4033.8084 4779.67774,4034.70452 4779,4033.65337 L4779.56831,4033.69617 L4779.31758,4033.47631 L4779.74352,4033.24283 L4780.09363,4033.8083 C4780.17105,4033.92049 4780.26896,4034.03716 4780.4505,4034.21761 C4780.7633,4033.63147 4780.11575,4033.57119 4779.94783,4032.71559 L4780.54682,4032.32635 L4780.38101,4032.23419 C4780.43526,4032.20475 4780.50415,4032.24273 4780.58643,4032.29989 L4782.60907,4031 C4783.19537,4031.05469 4783.17321,4031.78889 4783.79342,4032.24522 L4784,4032.37282 Z M4779.62582,4035.14781 C4779.99239,4035.31282 4780.08262,4035.08128 4780.01512,4034.81715 C4780.40047,4035.15158 4780.56696,4035.60148 4780.99988,4036.02683 C4781.01627,4036.85765 4779.28044,4035.15731 4779.12174,4035.78495 L4779.38173,4036.02347 C4779.71938,4036.31792 4779.98331,4036.5206 4779.72101,4036.66269 L4779.88001,4036.69659 C4778.97771,4036.58305 4780.48832,4037.98666 4779.06653,4037.01921 L4779.67724,4037.64787 C4779.02658,4037.3418 4778.63997,4037.67258 4778.33947,4037.77288 L4778.46981,4037.88278 C4777.172,4037.6852 4777.98294,4038.02649 4777.01174,4038.31651 L4778.03054,4038.78393 C4778.08673,4039.29465 4777.26845,4038.53488 4777.17964,4038.76523 L4777.46315,4039.05143 C4777.62799,4039.20977 4777.82549,4039.36706 4777.97928,4039.35311 L4776.07824,4038.94287 C4775.42631,4038.63549 4775.67539,4038.44034 4775.44876,4038.1448 C4774.98306,4037.7965 4774.85316,4038.34565 4775.20588,4038.75463 C4775.41501,4038.88208 4775.76422,4038.8765 4775.87929,4039.23156 L4774.63542,4038.46493 C4774.8581,4039.42555 4776.18457,4039.54713 4776.71043,4039.74107 C4776.45275,4040.20665 4775.70734,4039.64012 4775.30285,4040 C4775.33417,4039.80555 4775.17241,4039.48694 4775.02968,4039.21417 C4774.3677,4038.48817 4774.28495,4039.13571 4773.96233,4039.31607 C4773.83971,4038.8558 4773.49244,4038.68423 4773.1006,4038.51176 C4773.05603,4038.51085 4773.00349,4038.48334 4772.94614,4038.44562 L4772.80913,4038.38158 L4772.80913,4038.38158 L4772.52244,4038.61984 C4772.75445,4038.86821 4773.06327,4039.09784 4773.26632,4039.33233 L4772.80092,4039.64557 C4772.6306,4039.19174 4772.25643,4039.27973 4772,4039.05639 L4772.52244,4038.61984 C4772.35034,4038.43552 4772.22338,4038.24216 4772.2327,4038.03042 C4772.41189,4038.18512 4772.61009,4038.29082 4772.80913,4038.38158 L4772.84319,4038.35327 C4772.7651,4038.27585 4772.68019,4038.17563 4772.57808,4038.02092 C4773.00353,4038.03026 4772.61183,4037.28364 4772.74949,4037.14551 C4773.7056,4038.43118 4773.5041,4036.97856 4774.02725,4037.17237 L4774.34905,4037.10181 L4774.42995,4037.03458 C4774.32302,4036.89336 4774.15108,4036.75398 4773.81192,4036.63023 C4774.13121,4036.77049 4774.39317,4036.39624 4774.71409,4036.7937 L4775.50321,4036.13789 L4775.44008,4035.98478 C4775.42534,4035.95591 4775.408,4035.92526 4775.38731,4035.89264 C4775.48329,4035.94096 4775.54505,4035.99637 4775.59702,4036.05755 L4779.02913,4033.20052 C4779.06473,4033.09739 4779.13001,4033.01942 4779.27041,4033 L4779.02913,4033.20052 C4778.95082,4033.43638 4779.0571,4033.8272 4779.0089,4034.10446 C4779.92449,4034.61003 4779.01138,4034.50626 4779.48936,4035.01818 L4779.62582,4035.14781 Z M5023.02551,3911.026 C5021.75239,3911.87644 5021.33506,3912.58912 5019.8148,3913.13386 C5018.27677,3913.68439 5016.70519,3914.18348 5015.15348,3914.68764 C5013.35034,3915.2753 5011.94595,3915.91475 5010.23378,3916.76501 C5009.25375,3917.24945 5007.95417,3917.65671 5006.99319,3918.26434 C5007.13054,3916.05313 5010.14562,3915.19327 5011.32498,3913.54428 C5011.83504,3912.82975 5011.50991,3912.34673 5012.02266,3911.63235 C5012.67306,3910.72509 5014.06133,3909.85517 5014.90811,3909.09517 C5018.5097,3905.85696 5020.5942,3902.25723 5022.91861,3898.12755 C5024.28779,3895.70024 5022.44654,3894.78593 5020.97681,3893.16191 C5019.62114,3891.66742 5018.30196,3890.14261 5016.93205,3888.66348 C5015.31289,3886.91884 5015.72812,3885.63131 5015.05459,3883.36685 C5014.47106,3881.40925 5013.33,3879.68832 5012.52843,3877.76629 C5012.21113,3877.00572 5013.00778,3876.48481 5011.81641,3876.08262 C5010.90075,3875.77411 5009.21039,3877.05389 5008.39327,3877.45286 L5006.87546,3878.18982 C5005.81329,3878.70153 5004.68517,3879.23028 5003.69911,3879.63338 C5002.42028,3880.15721 5003.09784,3880.93533 5001.70093,3880.35585 C5000.94666,3880.04237 4999.95979,3878.32549 4999.39798,3877.69578 C4997.6959,3875.79102 4996.39346,3874.10057 4995.1752,3871.90559 C4994.09821,3869.96107 4992.30024,3868.45145 4990.84742,3866.78669 C4989.48327,3865.22327 4988.03982,3865.12209 4986.6744,3863.55726 C4985.40285,3862.10276 4984.28912,3860.46433 4982.50785,3859.66312 L4982.08456,3859.49355 C4979.98045,3858.75368 4980.06888,3855.77467 4979.01612,3857.56277 L4978.90301,3857.76504 C4978.26746,3858.95239 4977.6122,3859.56799 4976.65663,3860.43105 C4975.61088,3861.37533 4974.97777,3862.74678 4974.03282,3863.79169 C4971.34641,3866.47627 4968.52269,3869.01399 4965.56575,3871.40373 C4960.53112,3875.72573 4955.52059,3880.0745 4950.53164,3884.44723 L4947.29396,3887.37401 L4947.29396,3887.37401 L4944.06675,3890.31241 C4939.69829,3894.29735 4935.17791,3898.33744 4930.42993,3901.85262 L4927.70824,3903.84409 C4926.35136,3904.83674 4925.00477,3905.83777 4923.68804,3906.90562 C4916.27996,3912.91071 4908.9552,3919.01685 4901.85194,3925.40586 L4891.97076,3934.3041 L4891.97076,3934.3041 C4887.13445,3938.65932 4881.9107,3942.49066 4876.94087,3946.67773 C4872.45849,3950.45393 4867.88023,3954.11229 4863.38009,3957.86876 C4852.69368,3966.78523 4841.37354,3974.90708 4830.8707,3984.06146 C4826.44443,3987.91982 4822.13575,3991.94281 4817.78547,3995.88841 C4815.18878,3998.24466 4812.50211,4000.39611 4809.79573,4002.61636 C4807.20152,4004.7458 4804.82823,4007.11779 4802.19877,4009.2024 C4799.06073,4011.69142 4796.09057,4014.23087 4793.12383,4016.93567 C4790.87929,4018.97735 4788.38602,4020.58971 4786.14585,4022.6249 C4784.32857,4024.27672 4782.53233,4026.09078 4780.61608,4027.63266 C4779.9081,4028.20387 4779.1779,4028.40463 4778.46581,4028.92594 C4777.96581,4029.29453 4777.61005,4029.85734 4777.10117,4030.21607 C4776.10836,4030.91873 4775.14438,4031.35297 4774.21771,4032.20278 C4773.408,4032.94726 4772.57023,4033.66341 4771.76165,4034.41197 C4771.06044,4035.05874 4770.56079,4035.0876 4769.79979,4035.56875 C4769.01807,4036.06089 4768.30888,4036.96238 4767.60415,4037.57405 C4766.13704,4038.84673 4764.46922,4039.49117 4763.1792,4041.04842 L4762.33735,4042.07441 C4761.48564,4043.10673 4760.5881,4044.13079 4759.4984,4044.90155 C4758.58084,4045.55174 4756.97761,4045.70674 4756.35186,4046.57903 C4756.65935,4045.682 4757.09765,4044.87643 4757.69934,4044.18147 C4752.86431,4048.58913 4748.17468,4053.37369 4743,4057.31906 C4745.05703,4056.60087 4746.55813,4055.88325 4748.37643,4054.89789 L4749.07487,4054.51531 C4750.61523,4053.6641 4752.86055,4052.60678 4754.56896,4052.57144 C4754.23027,4053.24392 4753.67253,4053.79212 4752.99409,4054.15808 C4754.74416,4054.48078 4757.25556,4052.03546 4759.37288,4050.88414 C4759.01324,4050.47049 4759.46201,4050.48998 4759.43229,4050.57034 C4759.40694,4050.64421 4759.33606,4050.7157 4759.3881,4050.87554 C4759.60232,4050.7592 4759.80892,4050.65991 4760.01074,4050.57515 L4759.83005,4049.9493 C4760.68737,4049.70552 4760.64011,4048.89061 4761.70113,4048.78239 L4761.31979,4048.424 C4761.24757,4046.26626 4763.81226,4049.54299 4764.68948,4048.7658 C4763.85682,4047.77006 4765.20134,4048.52943 4764.33897,4047.61405 C4764.14016,4047.92323 4763.86804,4047.50476 4763.54614,4046.98566 C4763.98735,4047.1753 4764.70166,4047.79017 4764.677,4047.15908 C4764.13638,4046.76548 4764.0308,4046.11537 4763.57965,4046.19244 C4763.78728,4045.61246 4764.08169,4045.50301 4765.03097,4046.16914 C4766.39905,4046.40199 4764.29298,4044.92994 4765.35274,4044.82031 L4764.94026,4044.54355 L4765.45213,4044.30718 L4765.74402,4044.91199 L4766.71701,4045.04893 C4767.4724,4045.31547 4767.13691,4045.77326 4767.51966,4046.13038 L4766.80267,4045.51537 C4766.76441,4045.86117 4765.9591,4045.49667 4766.36049,4046.03605 C4766.76088,4045.85158 4767.17385,4046.47752 4767.54246,4046.64321 L4766.99658,4046.63205 L4767.36952,4047.25321 L4767.16304,4047.48483 C4766.9843,4047.66911 4766.78296,4047.75729 4766.2761,4047.44164 C4766.16044,4047.06092 4766.92467,4047.77375 4766.67973,4047.27211 C4765.75918,4046.51885 4765.32681,4046.77551 4764.7154,4046.8106 C4764.8905,4047.03061 4764.83219,4047.19541 4765.03856,4047.33112 C4765.11652,4047.40637 4765.17105,4047.3394 4765.17456,4047.27244 C4765.49235,4047.69062 4765.91168,4047.7596 4765.79158,4048.30925 L4767.45924,4049.55666 C4767.62357,4049.68604 4767.74487,4049.78965 4767.79336,4049.84969 C4768.13487,4049.84074 4768.45915,4049.64825 4768.42059,4049.28231 L4768.29385,4049.16421 C4768.38203,4048.91637 4769.29641,4049.22347 4768.76856,4048.56063 L4769.02202,4048.60003 C4769.23764,4048.63824 4769.465,4048.73504 4769.48414,4049.17691 L4770.28061,4049.09511 C4769.21201,4048.04135 4769.45443,4047.38666 4768.17453,4046.90597 L4768.26605,4046.90499 C4768.39051,4046.89652 4768.63141,4046.86968 4768.95859,4046.83024 L4768.84821,4046.73314 L4768.84821,4046.73314 C4768.78844,4046.69509 4768.7212,4046.64591 4768.63802,4046.56769 L4768.60415,4046.63042 C4768.58557,4046.66625 4768.58999,4046.70707 4768.70757,4046.85468 C4767.83525,4046.20601 4767.90225,4045.77309 4768.10246,4045.46264 L4768.72332,4046.04173 L4768.65969,4045.75003 C4768.53361,4045.25912 4768.35305,4044.77592 4768.80197,4044.77147 L4767.32211,4043.85327 L4766.73312,4043.35777 L4767.75179,4043.59648 C4767.42009,4043.3414 4767.71718,4043.23209 4767.30598,4042.95674 L4767.46588,4042.97468 C4767.56873,4042.99022 4767.68835,4043.02888 4767.74563,4043.15032 L4767.63881,4043.2159 C4768.66773,4043.89963 4768.83176,4044.38226 4769.82579,4044.70696 C4770.05683,4045.47376 4769.51889,4045.08031 4769.02932,4044.78876 C4768.9298,4044.76609 4768.87047,4044.77103 4768.80197,4044.77147 L4771.58619,4046.49796 L4771.91881,4046.45362 L4771.91881,4046.45362 C4771.68629,4045.99694 4772.23598,4045.98681 4771.46458,4045.35955 C4771.23984,4045.03622 4771.0036,4044.98356 4770.99379,4045.24759 C4771.0423,4045.34682 4771.12053,4045.36569 4771.1689,4045.46759 C4770.78488,4045.10906 4770.35771,4044.65159 4770.14376,4044.071 L4770.09309,4044.22409 C4770.05112,4044.34646 4770.00958,4044.37047 4769.73745,4044.24039 L4769.8269,4043.99396 C4769.45425,4044.08454 4768.28498,4043.54251 4767.80663,4042.98566 C4768.56945,4043.69976 4768.05126,4042.77557 4768.06389,4042.509 C4767.82779,4042.45366 4767.23013,4042.22627 4767.3183,4041.97843 C4767.65255,4042.23633 4768.49752,4042.25376 4768.44396,4042.86598 L4768.79985,4042.96043 C4769.04496,4043.01834 4769.26778,4043.03092 4769.24029,4042.78686 C4768.72241,4042.5744 4768.60674,4042.19368 4768.09599,4041.71705 C4768.66252,4042.02606 4769.14356,4042.58305 4769.39957,4042.82207 C4769.28516,4041.72567 4768.23757,4040.14258 4769.24028,4040.19916 C4769.39688,4040.23423 4768.71118,4040.252 4769.21784,4040.72976 C4770.38726,4041.26912 4768.88123,4039.31285 4769.54115,4039.37699 L4770.21439,4040.34019 C4770.45063,4040.39286 4770.82468,4040.30101 4771.01086,4040.2584 C4770.78612,4039.93507 4770.61198,4039.00474 4770.1126,4038.97722 C4770.23175,4037.93335 4772.24839,4040.36892 4772.65342,4039.48103 C4772.55416,4039.99149 4772.47579,4039.97529 4772.22975,4040.18665 C4772.90705,4040.43164 4772.6101,4040.53828 4773.16908,4041.11949 C4772.82741,4040.41404 4773.75189,4040.45175 4772.79026,4040.04683 L4772.92588,4039.8719 C4773.11074,4039.65295 4773.3847,4039.42476 4773.70463,4039.63684 L4773.79297,4040.10342 C4774.06874,4039.8117 4774.82413,4040.07824 4775.49148,4040.58993 C4775.05898,4040.84926 4774.09987,4039.73007 4773.73324,4040.26949 C4773.76943,4041.34702 4774.39919,4040.78245 4774.8268,4041.94899 L4773.91481,4041.64738 L4774.00285,4041.40223 C4773.19293,4040.58763 4773.53081,4042.00594 4772.64979,4040.9083 C4773.00171,4042.05878 4772.46236,4041.6666 4772.73196,4042.79934 C4772.32062,4042.52666 4772.4573,4042.37805 4772.51689,4042.21466 C4772.35048,4042.44362 4771.43833,4041.42761 4771.72183,4042.29519 C4771.7092,4042.56175 4771.03583,4041.60123 4771.28187,4041.38986 C4771.1142,4041.61742 4770.76987,4041.62891 4770.65197,4041.95711 L4770.28897,4041.06925 L4770.04307,4041.27793 L4769.90749,4040.71354 C4769.3659,4041.03027 4768.97196,4041.65554 4769.50893,4042.75932 C4770.49915,4043.07979 4770.90544,4042.19331 4772.1106,4043.10114 C4772.30702,4043.50355 4771.10046,4042.59699 4771.82361,4043.65816 L4771.15767,4043.14519 C4770.84334,4043.07097 4770.31156,4043.12367 4770.83828,4043.78243 C4771.61422,4043.88756 4772.19967,4044.34796 4772.86417,4044.7091 C4772.83118,4044.67246 4772.80186,4044.64272 4772.76168,4044.58959 L4773.16005,4044.85353 C4773.32354,4044.80838 4773.44738,4044.57181 4773.68742,4044.62871 C4773.69723,4044.36468 4773.28744,4044.08806 4773.15929,4043.97123 C4772.9156,4042.7539 4775.01426,4044.49548 4775.02673,4043.5145 C4774.54837,4042.95766 4774.8055,4042.48367 4774.4428,4042.30755 C4774.59183,4041.89773 4775.33741,4042.4283 4775.85544,4042.63808 C4775.45672,4042.09883 4776.14242,4042.08106 4775.52625,4041.66873 L4776.5078,4042.25733 C4776.41946,4041.79075 4777.15635,4041.87235 4776.70785,4041.23246 C4777.05204,4041.22365 4777.52045,4042.0472 4777.54161,4041.51519 L4777.42381,4041.3936 C4777.37951,4041.34738 4777.35442,4041.33108 4777.33651,4041.3809 C4777.21972,4040.99609 4777.49563,4040.70169 4777.98633,4040.99733 C4777.94539,4041.34299 4778.08461,4041.1972 4777.9653,4041.52666 C4778.26855,4041.8635 4778.94431,4042.11243 4778.83873,4041.46233 C4777.75037,4040.9393 4778.38281,4040.37488 4777.81374,4040.06305 C4778.28437,4039.4606 4779.60029,4040.30441 4780.74965,4040.66277 C4781.39947,4040.2792 4781.75598,4039.29208 4782.82711,4039.63156 L4782.79725,4039.7146 L4783.47455,4039.95959 C4783.61236,4039.81507 4782.69168,4039.06449 4783.11269,4039.07581 C4782.34986,4038.36171 4782.60082,4039.31219 4781.87529,4038.96261 C4781.60442,4037.82847 4780.83529,4038.5415 4780.55462,4037.67138 C4782.08153,4039.101 4781.60694,4037.11419 4782.69657,4037.63862 C4782.8742,4037.14436 4781.95226,4037.10947 4782.03917,4036.86022 L4782.58105,4037.25522 C4782.58959,4036.98978 4782.49271,4036.78865 4782.1896,4036.44913 C4782.31872,4035.85564 4782.96,4035.73751 4783.84213,4036.12215 C4783.15375,4036.13978 4784.63594,4036.7573 4784.25222,4037.1105 C4784.61506,4037.28395 4784.9877,4037.19337 4785.23487,4036.98609 C4784.81259,4036.97336 4784.55153,4035.57518 4784.28446,4036.31587 C4783.65819,4035.45584 4784.65851,4036.22402 4784.77909,4035.89597 L4784.46088,4035.75415 C4784.11329,4035.60601 4783.722,4035.44878 4783.68678,4035.3714 C4784.95293,4036.11457 4784.20608,4033.71198 4784.99749,4034.34164 C4785.85385,4034.80818 4786.71465,4035.01042 4787.59805,4035.39646 C4787.39687,4034.54663 4788.05412,4034.61062 4788.23174,4034.11636 L4787.8999,4033.86396 C4787.93971,4033.51422 4788.51999,4033.56075 4788.66902,4033.15093 L4788.2194,4032.50696 C4788.56077,4032.50068 4788.99568,4032.24684 4789.27426,4031.95259 C4789.57737,4032.29211 4789.25056,4032.48178 4789.7414,4032.77473 C4789.60331,4032.92461 4789.41445,4032.96708 4789.1436,4032.55003 C4789.00452,4032.69314 4789.48287,4033.24999 4789.60093,4033.6362 L4790.50563,4033.48757 C4790.51393,4033.40609 4790.48911,4033.34167 4790.44484,4033.28966 L4791.04216,4033.88229 C4791.18265,4033.73791 4791.08578,4033.53677 4790.8323,4033.30057 C4791.36155,4033.24506 4792.20542,4033.97549 4792.38431,4033.48264 L4792.00182,4033.23306 C4791.59028,4032.97402 4791.29845,4032.84337 4791.10807,4033.00885 L4791.49207,4032.65029 C4790.79499,4032.21895 4790.26197,4032.98733 4789.53614,4031.92603 C4790.30542,4031.92741 4791.41622,4031.91983 4792.45749,4032.34235 C4792.0164,4031.43294 4793.07617,4032.04041 4793.12579,4031.42663 L4793.02915,4031.20213 C4792.956,4031.03964 4792.85129,4030.85719 4792.63006,4030.68893 L4792.51943,4030.75027 C4792.80909,4030.1934 4793.73103,4030.22829 4794.59691,4030.43616 L4794.15583,4029.52675 C4794.56071,4028.64154 4795.05535,4030.80934 4795.89417,4030.38061 C4795.37598,4029.45642 4796.38723,4029.24757 4795.86051,4028.58881 L4795.96789,4028.55818 C4796.08055,4028.53139 4796.17387,4028.56182 4796.50908,4028.92092 C4796.44681,4029.08417 4796.07558,4029.17349 4796.69175,4029.58581 C4797.11544,4029.59728 4796.87064,4029.09296 4797.08682,4028.96463 L4796.93994,4028.8506 C4796.75609,4028.71985 4796.50907,4028.56238 4796.62852,4028.58878 C4797.34536,4028.48938 4798.14547,4027.6974 4799.69496,4028.59373 C4799.42773,4028.62001 4798.99788,4028.1624 4799.0039,4028.61123 C4799.30842,4028.94948 4799.36927,4028.78749 4799.57438,4028.92179 C4800.10364,4029.58336 4798.97418,4028.69158 4799.16052,4029.36338 L4800.20192,4029.78323 L4800.51134,4030.56622 L4802.82856,4031.46788 C4802.52055,4032.55423 4800.11864,4030.47581 4800.30006,4031.85638 C4800.56126,4031.97079 4800.62334,4032.22113 4800.73881,4032.40041 C4800.85637,4032.43746 4800.98394,4032.48846 4801.14506,4032.59091 C4800.92773,4032.61309 4800.81833,4032.52275 4800.73881,4032.40041 C4800.28578,4032.25715 4800.07243,4032.45948 4799.59751,4032.14453 L4799.32611,4032.42977 C4799.63049,4032.77069 4800.47422,4033.50381 4800.74872,4033.21068 C4799.78219,4034.23163 4797.49328,4033.25088 4797.00892,4034.8329 C4797.10707,4035.03544 4797.32311,4034.90979 4797.3419,4035.08938 L4796.83205,4034.99249 C4796.72064,4034.96629 4796.61711,4034.93199 4796.53472,4034.87965 L4796.42864,4034.78637 C4796.55664,4034.90588 4796.80871,4035.14335 4796.92074,4035.08073 C4796.09187,4035.24275 4796.72685,4036.55175 4795.9416,4036.36825 C4796.29054,4036.80685 4796.44224,4036.39718 4796.53799,4036.59422 C4796.31802,4037.43541 4794.90903,4036.3947 4794.38721,4036.89778 C4795.08175,4037.3263 4794.80599,4037.61802 4794.97128,4038.10206 C4794.07526,4037.98258 4793.04553,4038.72358 4792.02893,4038.93215 C4793.50888,4040.25859 4791.33944,4039.66279 4792.39571,4040.97776 C4792.25775,4041.12496 4791.8366,4041.11631 4791.40548,4040.65729 C4791.68995,4040.81454 4791.55071,4040.24324 4791.29709,4040.00972 L4791.11282,4040.08628 C4790.85428,4040.19309 4790.53824,4040.27558 4790.09083,4039.81489 L4790.37151,4040.68501 L4790.09902,4040.41091 C4789.72371,4040.05434 4789.32613,4039.76192 4789.21486,4039.8764 L4789.3682,4040.20825 C4789.68737,4040.96382 4788.52214,4039.10574 4788.62336,4040.09517 L4789.21565,4040.52388 C4789.48803,4040.72276 4789.72904,4040.90782 4789.95793,4041.12124 C4789.83862,4041.45071 4789.61501,4041.13147 4789.34778,4041.15775 C4789.62117,4041.57762 4790.39647,4042.02784 4790.78917,4042.11825 L4790.81778,4042.75089 L4790.42328,4042.55362 C4789.53093,4042.12757 4788.44888,4041.75593 4788.2433,4042.32589 C4788.70569,4042.70062 4788.84082,4042.55596 4789.26213,4043.27902 C4788.91667,4043.28642 4787.93513,4042.69783 4788.04324,4043.35076 C4788.12161,4043.36695 4788.17125,4043.47027 4788.24948,4043.48914 C4787.22686,4043.24888 4788.06932,4043.98058 4787.73383,4044.43837 L4787.95135,4044.64315 L4787.95135,4044.64315 L4787.31014,4044.42691 C4785.82908,4043.81348 4787.36483,4045.68938 4787.44068,4046.41985 L4787.59855,4046.45632 C4788.03836,4047.36432 4786.80097,4047.25112 4786.88662,4047.71756 C4786.70141,4047.04985 4786.56487,4047.19578 4786.04795,4046.27299 C4786.39214,4046.26417 4787.14389,4047.2409 4787.19604,4046.62994 C4786.51018,4045.9333 4785.87017,4046.05284 4785.28386,4045.55748 C4785.065,4045.68567 4785.96453,4046.96825 4786.31882,4047.40714 C4785.77583,4047.72514 4785.88281,4048.37398 4785.10639,4048.63677 L4784.90912,4048.52262 C4784.19322,4048.07118 4782.96476,4047.00952 4783.34548,4048.31618 L4783.60149,4048.5552 C4783.1691,4048.09477 4783.48105,4048.88058 4783.07112,4048.60663 C4782.55152,4047.68371 4782.42241,4048.2772 4781.98372,4047.37329 C4781.65945,4047.56578 4782.54047,4048.66342 4783.06987,4049.32231 C4781.94294,4048.43336 4783.02514,4050.38083 4782.08061,4050.16212 C4782.54441,4050.53558 4783.08346,4050.21603 4783.3469,4050.90262 L4781.73783,4050.16967 L4781.98247,4049.95958 C4780.86424,4049.51959 4781.58753,4050.57808 4781.6446,4051.12896 C4781.81111,4051.38478 4781.98421,4051.43816 4782.10922,4051.4098 C4781.96914,4051.49512 4781.74856,4051.52787 4781.45566,4051.45478 C4781.5642,4051.51015 4781.65583,4051.58075 4781.70307,4051.67857 C4781.49684,4051.54019 4781.41861,4051.52132 4781.21237,4051.38294 C4781.29512,4051.41816 4781.37349,4051.43435 4781.45566,4051.45478 C4781.03771,4051.23144 4780.25066,4051.21033 4779.57825,4050.79505 L4779.56601,4050.92601 L4779.56601,4050.92601 C4779.62635,4050.97886 4779.68824,4051.02776 4779.71882,4051.03339 C4779.6671,4051.0468 4779.61114,4051.03849 4779.55392,4051.02878 L4779.49029,4051.39742 L4779.49029,4051.39742 L4779.66185,4051.50578 C4779.96179,4051.54702 4780.23621,4051.51172 4780.69769,4051.62185 L4780.21331,4051.84623 L4782.76606,4053.42898 C4782.77705,4053.39867 4782.77224,4053.33665 4782.77378,4053.28167 C4782.64661,4053.14609 4782.54962,4053.02418 4782.5231,4052.94088 L4782.77657,4053.17708 C4782.78208,4053.22571 4782.77574,4053.24418 4782.77378,4053.28167 C4782.929,4053.44558 4783.13426,4053.62823 4783.36291,4053.80001 L4784.16134,4054.29575 C4784.3202,4054.36451 4784.46017,4054.40944 4784.55348,4054.39688 L4784.14121,4053.72229 C4783.94376,4053.41163 4783.81199,4053.30118 4783.21148,4052.92324 C4783.81041,4053.15204 4784.30868,4053.89256 4784.66409,4053.61844 C4784.17325,4053.32548 4783.31214,4052.41152 4783.53954,4052.01789 C4785.04163,4052.10199 4787.61121,4053.95286 4789.39063,4054.45839 C4788.86123,4053.79949 4789.58928,4053.43479 4789.73577,4053.02215 C4789.03443,4052.44153 4788.65698,4052.44458 4788.32196,4052.50893 L4788.27336,4052.59099 L4788.27336,4052.59099 L4788.21104,4052.5246 L4788.21104,4052.5246 C4787.86757,4052.59657 4787.53453,4052.67446 4786.89058,4052.17742 C4786.92575,4052.50558 4786.25054,4052.16939 4786.29447,4052.58663 C4786.05899,4052.16069 4784.99557,4051.62286 4785.80221,4051.6544 C4785.72384,4051.63821 4785.67548,4051.5363 4785.59711,4051.5201 C4785.43922,4050.76654 4786.28295,4051.49965 4786.52899,4051.28829 C4786.36229,4050.80552 4785.80459,4050.94281 4785.81313,4050.67737 C4786.39342,4050.7239 4786.36986,4049.3798 4787.50436,4050.71364 C4787.80145,4050.60432 4787.57375,4050.28622 4787.42836,4049.98585 C4788.99776,4051.06586 4788.16145,4048.19261 4789.72974,4049.98562 C4789.54328,4050.03359 4789.37419,4050.26241 4788.8549,4050.05122 L4789.93962,4051.28443 C4789.61661,4051.47833 4789.07724,4050.36905 4788.69338,4050.72493 L4788.75438,4050.56027 C4788.12558,4050.41451 4787.80874,4051.05457 4787.45333,4051.32868 C4787.82212,4051.6703 4787.65982,4051.97468 4788.21104,4052.5246 L4788.32196,4052.50893 L4788.32196,4052.50893 C4788.4196,4052.33679 4788.63477,4052.09964 4788.78047,4051.90719 L4790.02165,4053.17814 C4790.91737,4052.58588 4788.89599,4052.29059 4789.02652,4051.69583 C4789.35011,4051.61879 4789.87115,4052.05299 4790.14332,4052.08605 C4789.15137,4052.23415 4791.69127,4053.67791 4790.83692,4053.99302 C4791.72902,4054.82804 4792.16012,4054.56998 4792.15269,4054.12241 C4791.61586,4053.01595 4791.37597,4053.67347 4790.56337,4052.85873 C4790.93883,4052.76561 4791.03571,4052.96675 4791.57224,4053.36147 C4791.78353,4052.7884 4793.33302,4053.68473 4792.49181,4052.23735 C4792.94536,4052.16578 4793.29683,4052.6072 4793.8659,4052.91903 C4794.72828,4053.83441 4793.88217,4053.81289 4794.43149,4054.65546 L4794.32344,4054.4529 C4794.27667,4054.37508 4794.22013,4054.29456 4794.15683,4054.23417 L4794.08589,4054.66554 C4794.02882,4054.11466 4793.22619,4053.75031 4793.03733,4053.79278 L4792.94423,4053.85437 C4792.84917,4053.92921 4792.77534,4054.04594 4792.96639,4054.22415 L4793.28213,4054.2971 C4793.36779,4054.76353 4792.28796,4053.97507 4792.55408,4054.6618 C4792.72905,4054.88448 4792.88846,4054.91701 4793.01224,4055.04033 C4792.23961,4054.59026 4792.07194,4054.81781 4791.36365,4054.65177 L4792.36397,4055.41995 C4791.20846,4054.61544 4790.90899,4055.43635 4791.00207,4056.35035 L4790.90699,4056.12034 C4790.86093,4056.01115 4790.80457,4055.91216 4790.68159,4055.82997 C4790.25776,4055.82119 4790.64935,4056.6246 4791.18855,4057.01947 C4790.28383,4056.45101 4790.9177,4058.47302 4789.72978,4057.74872 L4784.16134,4054.29575 C4783.92143,4054.18515 4783.6354,4054.00633 4783.36291,4053.80001 L4782.76606,4053.42898 C4782.64309,4053.77706 4781.92518,4052.84642 4781.61995,4053.08557 C4781.72804,4053.0214 4781.9801,4053.25887 4782.11079,4053.37852 L4781.09435,4054.30151 C4780.87073,4053.98227 4780.84212,4053.34963 4780.49793,4053.35844 C4780.31936,4052.99262 4780.71805,4052.98222 4781.07863,4053.2506 L4780.72533,4052.96482 C4781.45354,4053.31453 4780.63224,4052.05082 4780.1885,4051.85836 L4780.21331,4051.84623 L4779.66185,4051.50578 C4779.60321,4051.49734 4779.54077,4051.48466 4779.47861,4051.46664 L4779.39638,4051.83161 L4779.39638,4051.83161 L4779.50012,4051.87599 C4779.67917,4052.09755 4779.75235,4052.82788 4779.27286,4052.26694 L4779.39638,4051.83161 L4779.39638,4051.83161 L4779.05906,4051.68367 L4779.08892,4051.60064 C4778.35455,4050.80477 4777.54812,4050.43619 4777.32198,4050.83122 C4777.30774,4050.77005 4777.38661,4050.52038 4777.51226,4050.17245 L4777.19621,4049.97728 L4776.62343,4051.37607 L4776.62343,4051.37607 C4776.87574,4051.42958 4777.10055,4051.44405 4777.17155,4051.24231 C4777.60028,4052.41293 4775.94285,4051.57808 4776.76555,4052.84053 C4778.12115,4053.33727 4777.88616,4052.56892 4778.71376,4052.40549 C4778.25262,4051.31509 4777.92724,4052.22058 4777.49598,4051.76423 L4777.59664,4051.25251 C4777.99663,4051.79316 4778.45002,4051.00718 4779.27159,4052.26553 C4778.94778,4053.26914 4778.43167,4054.0478 4777.84968,4054.5719 L4783.38975,4059.74494 C4783.17686,4059.50281 4783.48147,4059.60875 4783.7559,4059.64999 L4783.56565,4059.47121 C4783.38291,4059.28935 4783.24785,4059.10904 4783.38705,4059.02771 C4783.30852,4058.2971 4784.48663,4059.28543 4784.60848,4058.95879 L4784.45061,4058.92231 C4784.43923,4058.4732 4784.76492,4058.27944 4785.33526,4058.59268 C4784.6407,4057.44707 4784.52757,4058.93977 4784.1001,4057.77056 C4784.1535,4058.31453 4783.193,4057.9137 4782.97809,4058.04344 C4783.07889,4057.52903 4782.49101,4056.32053 4781.9033,4055.82643 C4783.095,4055.83787 4783.77456,4057.96164 4784.67785,4057.81427 L4784.8866,4057.23838 L4785.98493,4058.21178 C4786.22957,4058.00169 4785.06439,4057.45853 4785.49661,4057.20456 C4786.04132,4057.62254 4785.86386,4056.93509 4786.22968,4057.20538 C4786.00326,4056.96522 4785.7581,4056.69857 4785.92296,4056.49907 L4786.13721,4056.72072 C4786.28329,4056.86525 4786.45299,4057.00172 4786.53913,4056.9114 C4785.68783,4055.7334 4785.98016,4057.04727 4785.28674,4055.90575 C4785.69919,4055.46542 4786.44211,4056.71294 4786.85346,4056.98562 C4786.72418,4056.8647 4786.77382,4056.96801 4786.74283,4057.04696 C4787.05115,4057.38944 4786.96155,4056.92145 4787.31317,4057.3602 C4787.27682,4057.46438 4787.11755,4057.42917 4786.96546,4057.38495 C4787.39272,4057.61011 4787.39047,4058.29351 4787.27225,4058.42295 C4786.51291,4058.15486 4786.13916,4058.95844 4785.62588,4059.19609 C4785.70679,4059.2151 4785.86325,4059.25284 4785.96012,4059.45398 C4785.35881,4059.93678 4785.41602,4060.48498 4784.52883,4060.81179 L4783.76728,4060.0991 C4783.16597,4060.5819 4781.57302,4058.15779 4781.25474,4058.08202 C4781.07096,4058.13014 4780.53175,4057.73527 4780.77655,4058.23959 L4781.10825,4058.49466 C4780.49937,4058.53258 4780.26438,4057.76423 4780.03966,4058.15799 C4779.35982,4057.91019 4780.15629,4057.82839 4779.58863,4057.51529 C4779.40974,4058.00815 4778.03045,4056.16999 4778.11626,4057.35083 C4778.36847,4057.58563 4778.86787,4058.33023 4779.26924,4058.15253 L4779.47423,4059.00659 C4780.08438,4058.97009 4779.7887,4059.07813 4780.22233,4058.82289 C4781.09198,4059.47142 4781.49464,4060.01221 4782.24135,4060.54687 C4781.92844,4060.47138 4781.39903,4059.81248 4781.23009,4060.03863 C4781.16183,4060.47014 4781.61411,4060.39716 4781.86744,4060.63604 C4780.7293,4060.01238 4782.21795,4061.78779 4781.15804,4061.183 L4780.48359,4060.32381 C4780.31824,4060.09875 4780.23274,4059.92873 4780.06336,4059.49942 C4779.59243,4059.39013 4779.87325,4060.25757 4780.60635,4061.05203 L4779.92175,4060.3568 C4780.03203,4060.58415 4779.87702,4060.74926 4780.03056,4060.9453 L4779.64458,4060.64979 C4779.30418,4059.94574 4779.18739,4059.56093 4779.6893,4059.59127 C4779.15136,4059.19781 4778.74127,4058.20945 4778.25913,4058.36547 C4778.12005,4058.50858 4778.60962,4058.80013 4778.78599,4059.02155 C4777.53597,4059.17491 4779.10285,4060.96919 4778.12147,4061.09501 C4778.56112,4061.2886 4778.51767,4060.47792 4779.2718,4060.74305 C4779.66197,4061.54773 4778.71142,4060.88019 4778.62071,4061.12521 C4779.06445,4061.31767 4779.31778,4061.55655 4779.40753,4062.02186 L4778.94514,4061.64713 L4778.83949,4061.74396 C4778.74431,4061.83127 4778.6582,4061.9398 4778.78287,4062.1046 C4778.63287,4061.94365 4778.5742,4061.78212 4778.55005,4061.55122 C4777.74601,4061.18813 4777.00072,4061.3693 4776.80921,4062.12872 C4777.67172,4063.04142 4777.9524,4062.04093 4778.24933,4063.08781 C4777.90909,4063.09818 4776.85771,4062.22795 4776.98447,4063.06314 C4777.59965,4063.4687 4777.32628,4063.76592 4777.62826,4064.10135 L4776.17692,4063.40756 C4776.07265,4063.6935 4775.9073,4063.96801 4775.5522,4063.95716 L4775.38802,4063.93424 C4775.54575,4063.9734 4775.65384,4063.90923 4775.71216,4063.74443 C4774.40018,4062.90217 4775.46387,4064.66471 4774.65003,4064.56565 L4775.16932,4064.77684 C4775.06612,4065.28575 4774.5195,4065.16041 4773.96908,4065.03085 L4774.5753,4065.70988 C4774.28276,4065.39912 4774.0193,4065.25102 4773.77206,4065.15212 L4773.92744,4065.41541 L4773.92744,4065.41541 L4773.71425,4065.69161 L4773.71425,4065.69161 C4773.8445,4065.76826 4773.97321,4065.87438 4774.11194,4066.04548 C4774.07776,4066.36464 4773.72427,4066.37162 4773.34973,4066.16533 L4772.9163,4066.72408 L4772.9163,4066.72408 C4772.94464,4066.77256 4773.00272,4066.81723 4773.05136,4066.86276 L4773.25715,4066.29208 L4773.86352,4066.96844 C4773.76615,4067.08419 4773.63452,4067.13638 4773.48075,4067.14981 C4774.35429,4067.57025 4775.9283,4067.84478 4776.52087,4067.98999 C4777.28864,4068.17392 4777.79613,4068.50803 4778.72703,4068.26945 C4778.54471,4068.57144 4778.58916,4068.82489 4778.8563,4069.03092 C4779.97766,4068.335 4781.23146,4068.0838 4782.33985,4067.40467 C4783.76731,4066.53008 4785.03601,4064.81594 4786.32134,4063.73248 C4792.18741,4058.78935 4798.87453,4054.57679 4805.11647,4050.09651 C4809.98976,4046.59863 4814.36983,4042.2383 4819.15034,4038.56368 C4821.7537,4036.38772 4824.36608,4034.21895 4826.98086,4032.05567 C4829.9783,4029.84129 4833.15945,4027.91316 4836.12136,4025.63379 C4839.11116,4023.3344 4842.47313,4021.28683 4845.32463,4018.83382 C4846.58868,4017.74656 4847.61267,4015.93633 4849.42645,4016.29863 C4844.07976,4020.60561 4839.11038,4025.52726 4834.01196,4030.11851 L4808.02383,4053.52146 C4806.51378,4054.8813 4804.10224,4056.43537 4802.72264,4058.09571 L4802.37342,4058.5511 C4802.03538,4058.92952 4801.93032,4059.34568 4802.06263,4059.79307 C4801.30922,4060.82116 4800.4427,4061.52237 4799.48656,4062.37063 C4796.09324,4065.37536 4791.73715,4068.53509 4788.41496,4071.97595 L4788.40453,4071.97003 L4788.3865,4072.00668 L4788.3865,4072.00668 L4787.98433,4072.43009 L4787.98433,4072.43009 C4787.77449,4072.53995 4787.56253,4072.63896 4787.45394,4072.99449 L4787.36347,4073.10658 L4787.36347,4073.10658 L4787.15014,4072.7194 C4786.31832,4072.29711 4786.50536,4072.95552 4786.81703,4073.7722 C4786.61342,4074.01936 4786.39783,4074.26455 4786.21014,4074.51522 C4786.12484,4074.40064 4786.02798,4074.27605 4785.91943,4074.14413 L4785.99405,4074.37631 C4786.15469,4074.83277 4786.40152,4075.40432 4785.99324,4075.19543 C4785.72065,4074.58088 4785.2236,4074.25269 4785.30851,4073.88785 C4784.85212,4073.8599 4784.75068,4074.07884 4785.21168,4075.14641 C4785.31527,4076.42353 4784.2981,4074.05512 4784.15495,4074.94196 L4783.96556,4074.48218 L4783.75464,4074.84309 L4784.20507,4075.31791 L4784.25742,4076.215 C4784.41926,4076.97011 4784.78851,4076.84175 4785.04359,4077.30364 L4784.60999,4076.45639 C4784.8778,4076.54697 4784.6421,4075.71547 4785.03532,4076.25711 C4784.87146,4076.53993 4785.33079,4077.12666 4785.43828,4077.50964 L4785.45819,4077.02725 L4785.91681,4077.57635 L4786.1058,4077.47958 C4786.25723,4077.39004 4786.33667,4077.24628 4786.12169,4076.69006 C4785.8334,4076.45203 4786.34087,4077.37566 4785.96812,4076.98147 C4785.43891,4075.90898 4785.6607,4075.62249 4785.72288,4075.10203 C4785.88121,4075.33459 4786.01103,4075.34274 4786.10509,4075.57192 C4786.15923,4075.66608 4786.10427,4075.69005 4786.0531,4075.66723 C4786.3568,4076.09809 4786.38606,4076.48771 4786.81625,4076.58009 L4787.6836,4078.48356 C4787.77432,4078.67347 4787.84778,4078.81656 4787.89204,4078.88041 C4787.86307,4079.177 4787.69878,4079.39131 4787.41882,4079.22489 L4787.33422,4079.0714 C4787.14013,4079.05988 4787.32484,4079.96794 4786.84588,4079.26872 L4786.86812,4079.57052 C4786.89403,4079.75557 4786.97546,4079.95718 4787.27695,4080.11314 L4787.17082,4080.78036 C4786.41914,4079.46926 4785.90355,4079.44358 4785.6046,4078.15353 L4785.58167,4078.3541 C4785.56436,4078.46666 4785.53776,4078.62205 4785.50298,4078.81158 L4785.43333,4078.68036 L4785.43333,4078.68036 L4785.36732,4078.52978 C4785.35306,4078.50113 4785.33692,4078.4703 4785.31854,4078.43666 L4785.36812,4078.42906 C4785.39656,4078.42538 4785.42782,4078.44373 4785.53423,4078.59971 C4785.0841,4077.60656 4784.74553,4077.50825 4784.49776,4077.57315 L4784.90977,4078.31989 L4784.36669,4077.91096 C4784.13112,4077.74002 4783.94743,4077.65956 4783.92842,4077.93273 L4785.10318,4080.98353 L4785.04841,4081.25997 L4785.04841,4081.25997 C4784.71189,4080.89185 4784.67493,4081.36662 4784.23188,4080.4692 C4783.99727,4080.15476 4783.96734,4079.93161 4784.17497,4080.0177 C4784.24617,4080.09394 4784.25831,4080.16978 4784.33204,4080.24885 C4784.07837,4079.78569 4783.75083,4079.24615 4783.31367,4078.85126 L4783.43498,4078.862 C4783.53182,4078.86966 4783.55208,4078.84328 4783.46724,4078.55985 L4783.27188,4078.54693 C4783.36372,4078.25497 4783.01249,4077.04006 4782.60854,4076.42132 C4783.1146,4077.34622 4782.43337,4076.56119 4782.22715,4076.47384 C4782.20004,4076.24816 4782.05571,4075.64571 4781.86177,4075.63151 C4782.04156,4076.01828 4782.00931,4076.76188 4782.48222,4076.93573 L4782.53498,4077.28028 C4782.56586,4077.51486 4782.56321,4077.71346 4782.37751,4077.60167 C4782.24138,4077.0735 4781.9545,4076.83421 4781.61623,4076.21756 C4781.82341,4076.82465 4782.2261,4077.44199 4782.39516,4077.75165 C4781.55896,4077.25931 4780.39878,4075.77506 4780.38544,4076.67005 C4780.40577,4076.82018 4780.45568,4076.22656 4780.79535,4076.84194 C4781.14658,4078.05684 4779.72314,4076.03642 4779.73596,4076.63735 L4780.44033,4077.56996 C4780.46744,4077.79564 4780.37829,4078.08774 4780.33294,4078.23577 C4780.09692,4077.92259 4779.39067,4077.43572 4779.3979,4076.99026 C4778.58909,4076.71824 4780.34954,4079.3539 4779.64538,4079.39085 C4780.04442,4079.48831 4780.03369,4079.4112 4780.21012,4079.27274 C4780.36377,4079.95356 4780.46266,4079.7318 4780.87734,4080.42766 C4780.35304,4079.87646 4780.33151,4080.69716 4780.07294,4079.71272 L4779.93065,4079.76793 C4779.75173,4079.85025 4779.56087,4080.00712 4779.70719,4080.36364 L4780.06229,4080.60785 C4779.82158,4080.74295 4779.98468,4081.49947 4780.34201,4082.26484 C4780.56634,4081.98116 4779.75731,4080.73958 4780.19351,4080.61473 C4781.0187,4081.03533 4780.54943,4081.38136 4781.42488,4082.17522 L4781.24272,4081.26998 L4781.04737,4081.25706 C4780.46729,4080.25845 4781.53824,4081.06256 4780.74248,4079.9009 C4781.60974,4080.62047 4781.33701,4080.0086 4782.19355,4080.65107 C4782.00669,4080.19411 4781.88507,4080.26025 4781.75653,4080.25351 C4781.94115,4080.18933 4781.20966,4079.03104 4781.86251,4079.58897 C4782.0662,4079.67351 4781.36591,4078.73977 4781.19074,4078.87965 C4781.37396,4078.81673 4781.40166,4078.51873 4781.66002,4078.53361 L4780.99785,4077.8973 L4781.1716,4077.75869 L4780.74404,4077.43682 C4781.01796,4077.07786 4781.51956,4076.96047 4782.34162,4077.82539 C4782.53324,4078.80633 4781.82922,4078.8406 4782.45928,4080.21783 C4782.75956,4080.53437 4782.12824,4079.15573 4782.90353,4080.16994 L4782.54493,4079.40317 L4782.53576,4079.25852 C4782.53731,4078.99181 4782.65062,4078.76403 4783.05374,4079.3533 C4783.0928,4080.0684 4783.41445,4080.74595 4783.6552,4081.45552 C4783.7508,4081.60422 4783.77393,4081.70077 4783.75323,4081.7628 C4783.70618,4081.89194 4783.51704,4081.91425 4783.54795,4082.14416 C4783.34568,4082.05836 4783.15347,4081.60111 4783.07154,4081.44776 C4782.14834,4080.79642 4783.3716,4083.25486 4782.61746,4082.91319 C4782.21618,4082.29458 4781.83606,4082.34852 4781.7204,4081.9678 C4781.39777,4081.94954 4781.76315,4082.79187 4781.89801,4083.31863 C4781.50479,4082.77699 4781.45221,4083.37046 4781.17003,4082.6829 L4781.56914,4083.75259 C4781.21418,4083.5057 4781.23534,4084.17824 4780.76838,4083.55753 C4780.74477,4083.85441 4781.351,4084.55896 4780.94249,4084.38581 L4780.82925,4084.19472 C4780.8189,4084.17076 4780.8225,4084.15956 4780.84815,4084.16198 C4780.55873,4083.91986 4780.31817,4084.05228 4780.51829,4084.58917 C4780.78484,4084.67835 4780.66717,4084.74604 4780.92693,4084.75965 C4781.16973,4085.14838 4781.32224,4085.82512 4780.82773,4085.49974 C4780.48723,4084.36195 4780.01655,4084.70925 4779.80936,4084.10216 C4779.31976,4084.29807 4779.895,4085.74763 4780.10823,4086.88009 C4779.77569,4087.30715 4778.99653,4087.26363 4779.20156,4088.32181 L4779.26583,4088.32518 L4779.39605,4088.91481 C4779.44891,4088.90549 4779.48865,4088.89012 4779.5556,4088.89363 C4779.47337,4089.2586 4779.96774,4089.58666 4780.23906,4090.1998 C4780.72411,4090.44948 4780.29178,4089.60365 4780.16779,4089.15132 L4780.50728,4089.58331 C4780.69316,4089.84163 4780.77438,4090.02822 4780.60845,4090.06876 C4781.26734,4091.15207 4780.75496,4089.70715 4781.47571,4090.78834 C4782.12156,4090.30116 4779.74261,4086.88779 4781.39991,4087.72532 L4781.6523,4088.18706 C4781.79404,4087.30149 4782.41837,4087.63501 4782.65163,4086.97581 L4783.73612,4087.85448 C4783.7631,4088.08284 4784.08608,4089.06798 4784.53383,4089.54265 C4783.62986,4088.52437 4783.69904,4089.04903 4783.11739,4088.56734 C4783.28786,4088.87574 4783.50228,4089.03738 4783.65369,4089.19706 C4783.53066,4089.26446 4783.14718,4088.79316 4783.12342,4089.09272 C4783.2819,4089.3226 4783.62754,4089.49112 4783.59165,4089.71484 L4782.93753,4089.15549 C4782.87803,4089.67609 4783.8762,4090.92087 4783.34707,4090.82062 L4783.13413,4090.39078 C4782.84444,4089.78912 4782.5573,4089.11918 4782.58004,4088.93129 C4782.34817,4088.89765 4782.53553,4088.4227 4782.16097,4088.13987 C4782.54261,4089.20999 4781.9705,4088.54617 4782.06031,4089.31765 L4781.96658,4089.07892 C4781.9373,4089.00033 4781.91829,4088.92749 4781.93449,4088.87463 L4781.27568,4088.76355 C4781.72358,4089.23555 4781.31984,4089.58636 4781.87112,4090.36592 C4782.52187,4090.40002 4782.08217,4090.00232 4782.8722,4090.12027 C4782.8469,4090.39826 4783.18961,4091.34011 4783.58754,4092.15058 C4783.56089,4092.12098 4783.53777,4092.10097 4783.51522,4092.09576 C4783.66257,4092.38414 4783.78454,4092.5933 4783.91877,4092.79908 C4784.23061,4093.12563 4784.69869,4093.75043 4784.93965,4094.09743 C4784.84213,4093.5498 4785.30199,4093.94722 4785.22109,4093.31318 C4784.78341,4092.51809 4784.44343,4092.44655 4784.43645,4092.73356 L4784.35046,4092.06836 L4784.52645,4092.45091 L4785.28894,4092.30018 C4785.20087,4092.41777 4785.44622,4092.88586 4785.59994,4093.25783 C4785.67055,4093.24273 4785.807,4093.32912 4785.95995,4093.43382 C4785.92343,4093.33656 4785.88084,4093.2269 4785.82951,4093.10469 L4785.62443,4092.77885 C4785.44712,4092.48598 4785.35849,4092.29879 4785.4069,4092.27817 L4785.49514,4092.28548 L4785.49514,4092.28548 L4785.41809,4092.05962 C4785.30222,4091.67634 4785.34456,4091.48705 4785.85235,4091.9 L4786.02156,4092.20698 C4785.73843,4091.74228 4786.13133,4092.08516 4786.12635,4091.89825 L4786.02609,4091.68485 L4785.82766,4091.42308 C4785.80233,4091.3856 4785.78086,4091.35105 4785.76328,4091.31924 C4785.52975,4091.36877 4785.78926,4092.13035 4785.27828,4091.29919 C4785.02811,4090.69253 4785.32793,4090.81299 4785.20197,4090.37264 C4785.1849,4090.31401 4785.16402,4090.25114 4785.13187,4090.17291 L4784.77931,4089.93152 C4784.44446,4088.86519 4785.46068,4090.71386 4785.35239,4089.88501 L4785.15022,4089.64574 C4784.90967,4089.34634 4785.31072,4089.71838 4785.13433,4089.20349 C4784.6839,4088.72868 4784.75912,4089.77871 4783.99798,4088.39193 C4783.78119,4087.71182 4785.50722,4089.59501 4784.86644,4088.14067 L4784.95358,4088.29698 C4785.36203,4088.26602 4784.98115,4087.43765 4784.78991,4086.88511 L4784.76665,4086.86778 L4784.76665,4086.86778 L4784.7555,4086.79871 C4784.69668,4086.61434 4784.66522,4086.47169 4784.70566,4086.41741 L4784.7555,4086.79871 L4784.78991,4086.88511 L4784.78991,4086.88511 C4785.19083,4087.22841 4784.97897,4086.50559 4785.08578,4086.36347 L4785.32984,4086.75361 L4785.42181,4086.45897 C4785.77787,4087.22293 4785.18111,4086.59407 4785.07855,4086.80893 L4785.55877,4087.50956 C4784.8216,4086.79277 4785.52142,4088.17097 4785.76697,4088.89153 C4785.58568,4088.12331 4786.49265,4088.64891 4785.64806,4087.21478 L4786.2461,4087.84504 L4786.14117,4087.54143 C4786.59033,4088.01483 4787.03353,4088.93509 4786.94282,4089.23114 C4786.79141,4089.07146 4786.71895,4088.9938 4786.63322,4088.83622 L4786.79813,4089.35009 C4786.87037,4089.60732 4786.89109,4089.82385 4786.69742,4089.81451 L4786.57244,4089.35541 C4786.26606,4089.48841 4786.19709,4089.93331 4786.55428,4090.70135 C4787.13809,4090.73195 4787.56342,4090.53268 4787.91121,4090.2501 L4787.28988,4089.09282 C4786.72848,4088.02711 4786.30321,4087.17795 4785.62059,4086.02222 C4785.69224,4085.57746 4785.89369,4085.14084 4786.46053,4085.54655 L4786.631,4085.85495 C4786.83342,4085.93807 4786.87877,4085.79005 4786.85025,4085.56564 C4787.2134,4085.88682 4787.28385,4086.41288 4787.49826,4086.57452 L4787.52925,4085.82951 C4787.94393,4086.52537 4787.64587,4086.72998 4787.53765,4086.87336 C4787.52679,4086.79893 4787.50786,4086.64754 4787.43145,4086.56834 C4787.08849,4086.39996 4787.52432,4087.76835 4786.8215,4086.8318 C4786.85129,4087.05762 4786.52025,4085.99552 4786.21527,4086.12724 C4785.79717,4085.88107 4786.30323,4086.80597 4786.47243,4087.11296 C4786.71791,4087.50183 4787.09676,4087.44648 4787.29308,4087.97915 C4787.40397,4087.8359 4787.14338,4087.29987 4787.56134,4087.54872 C4787.45045,4087.69197 4787.76257,4088.60267 4787.30522,4088.05498 C4787.38579,4088.46475 4787.67754,4089.04673 4787.98844,4089.57063 L4787.96785,4089.50241 L4787.96785,4089.50241 L4788.06793,4089.53988 L4788.06793,4089.53988 L4788.13156,4089.67124 C4788.13875,4089.68878 4788.14351,4089.7032 4788.14478,4089.71311 C4788.15492,4089.67336 4788.15364,4089.62092 4788.14841,4089.56693 L4788.43709,4089.64383 L4788.43709,4089.64383 L4788.50901,4089.83426 C4788.50661,4089.77774 4788.50025,4089.71966 4788.48868,4089.65862 L4788.55112,4089.6713 L4788.55112,4089.6713 C4788.47314,4089.5195 4788.35486,4089.36827 4788.10211,4089.22073 C4787.79578,4088.37881 4788.09257,4088.1728 4788.01393,4087.57244 L4788.09726,4087.72453 L4788.24517,4087.36165 C4788.33797,4087.58943 4788.36776,4087.81525 4788.6121,4088.20003 L4788.31809,4086.9183 C4788.55492,4087.75389 4788.75398,4087.31177 4789.04326,4087.55657 C4788.70372,4086.93851 4788.57168,4086.40921 4788.21785,4086.16641 C4787.78901,4085.84313 4788.33224,4086.54572 4788.22149,4086.68629 L4787.8235,4085.62068 L4787.89977,4085.70256 L4787.53185,4084.85742 C4787.83683,4084.72569 4788.54665,4086.70736 4788.41817,4085.72571 L4787.70814,4084.72163 C4788.20735,4084.59874 4789.47238,4085.41436 4789.45109,4084.7445 C4789.74906,4085.38723 4790.3225,4086.35864 4790.78971,4086.84642 C4790.55431,4086.75216 4790.33011,4086.95661 4790.21669,4087.17358 C4790.06796,4087.01404 4789.65232,4085.79845 4789.98582,4085.89113 C4788.8039,4084.25803 4790.16329,4087.24464 4789.03886,4085.53935 C4788.16423,4085.26791 4789.73796,4087.44392 4788.67647,4086.71551 C4789.16234,4087.48761 4788.79905,4087.16911 4789.21119,4087.86214 C4790.13804,4089.03336 4789.73796,4087.44392 4790.28714,4087.69965 C4790.29533,4087.77394 4790.31566,4087.92406 4790.399,4088.07614 C4790.73362,4088.17291 4790.70651,4087.94723 4790.65639,4087.57129 L4790.57998,4087.49208 C4790.33496,4086.58221 4791.09215,4087.96745 4791.44725,4088.21166 C4791.42959,4088.06168 4791.76183,4088.15295 4791.37001,4087.61004 L4792.08713,4088.17134 L4791.52485,4087.32004 C4791.6332,4087.17397 4792.02741,4087.72238 4791.8191,4087.1112 L4791.33449,4086.34051 L4790.81383,4086.30919 C4790.83052,4085.93944 4790.39082,4085.54173 4790.48279,4085.24709 C4790.80423,4086.23617 4790.90909,4085.56755 4791.38663,4086.26804 L4791.25331,4085.73734 L4791.34865,4085.96794 C4791.71461,4086.28658 4791.29853,4085.59199 4791.49543,4085.60097 L4791.05585,4085.25785 C4790.82183,4085.08869 4790.67172,4085.04962 4790.76967,4085.48639 C4790.63622,4084.95836 4790.61507,4084.28582 4790.66861,4084.21208 C4790.61425,4083.78892 4791.09344,4084.30418 4791.28865,4084.29427 C4791.29822,4084.23971 4791.31795,4084.19643 4791.37404,4084.17654 C4791.37082,4084.26366 4791.33587,4084.29003 4791.28865,4084.29427 C4791.21589,4084.78597 4792.87791,4086.55838 4791.98257,4086.37448 C4791.89797,4086.22099 4791.96224,4086.22436 4792.03724,4086.30483 C4791.33696,4085.37109 4791.75133,4086.58527 4791.87518,4087.04028 C4792.26685,4087.58587 4792.23364,4087.80973 4792.64228,4087.98021 C4792.34326,4087.66508 4792.00969,4086.60016 4792.50533,4086.92963 L4793.24501,4088.1622 L4793.6264,4088.10968 L4793.63586,4088.18537 C4794.24349,4088.88866 4793.84677,4087.82446 4794.33734,4088.14828 C4794.24328,4087.9191 4794.02886,4087.75746 4793.88126,4087.602 C4793.83128,4087.22338 4794.23762,4087.84763 4794.33734,4088.14828 C4794.2053,4087.61899 4794.97627,4087.58823 4793.9278,4086.48315 C4794.59265,4087.1196 4794.13052,4086.04795 4794.22109,4085.75458 L4793.66103,4085.42442 L4793.57937,4085.0807 C4793.45022,4084.49037 4793.58249,4084.776 4793.01675,4083.44753 L4793.35716,4083.88871 C4793.46467,4084.03434 4793.5647,4084.18797 4793.65277,4084.3779 L4794.13738,4084.18799 C4794.46157,4084.03519 4794.71283,4083.76695 4794.44035,4083.00514 C4794.74406,4082.872 4795.7021,4084.26777 4795.72476,4083.45115 C4795.69497,4083.22533 4794.93606,4082.35969 4795.41278,4082.53776 C4795.48524,4082.61542 4795.74255,4083.59846 4795.96292,4083.31323 C4795.56634,4082.24635 4796.76101,4083.50815 4796.50511,4082.52385 C4796.85626,4082.76651 4797.01378,4082.47665 4797.43665,4083.24679 C4797.11275,4083.22713 4796.90169,4083.59073 4797.08021,4083.97608 C4796.82796,4083.51166 4796.65152,4083.65013 4796.5918,4083.20117 C4795.90715,4082.86582 4796.67185,4083.80025 4796.13199,4083.6229 C4796.30119,4083.92988 4796.80643,4084.33237 4796.70023,4084.02734 C4797.34585,4085.03073 4796.42981,4084.90886 4797.4636,4085.93528 C4797.8368,4085.80847 4796.58457,4083.64662 4797.53785,4084.51842 C4797.82003,4085.20598 4797.31606,4084.80491 4797.85459,4085.95577 L4798.3381,4086.2094 L4798.03431,4085.3703 L4798.12159,4085.52393 C4799.10794,4086.17455 4797.82377,4084.23797 4797.85602,4083.49437 C4797.20317,4082.93644 4796.78626,4081.71944 4796.35743,4081.39616 C4796.51226,4081.10616 4796.7733,4081.12118 4797.41878,4082.12725 C4797.49965,4083.24875 4798.07512,4083.20774 4798.30741,4084.48892 C4798.60516,4084.80265 4799.15188,4086.0278 4799.469,4085.9719 C4799.28416,4085.06652 4798.85063,4085.19152 4798.91141,4084.67233 C4798.98514,4084.75139 4799.06028,4084.82919 4799.14474,4084.98536 C4798.9377,4084.37559 4799.41411,4085.07199 4799.19605,4084.39047 L4799.28899,4084.61557 C4799.8705,4085.09994 4799.05187,4083.78534 4799.64045,4084.33991 C4799.09722,4083.63732 4799.35685,4083.65361 4799.15927,4083.11954 C4798.81377,4082.94834 4798.03834,4081.93681 4797.75242,4082.21725 L4798.1238,4082.87124 C4798.25773,4083.11315 4798.34631,4083.30732 4798.37414,4083.52287 L4798.53985,4083.3073 C4798.55594,4083.43572 4798.61927,4083.61092 4798.65454,4083.7578 L4798.66497,4083.76372 L4798.67316,4083.83801 L4798.65454,4083.7578 L4798.65454,4083.7578 L4798.2552,4083.58915 C4798.2421,4082.99358 4797.7178,4082.44238 4797.43434,4081.7534 C4797.83465,4081.85227 4797.5249,4081.46004 4797.7954,4081.55076 C4798.33486,4082.42772 4799.19751,4082.72271 4799.82523,4083.09402 C4799.76237,4083.08938 4799.72151,4083.15169 4799.6788,4083.14677 C4799.83103,4083.82887 4800.27684,4083.77703 4800.43517,4084.00959 L4800.30313,4083.48029 C4800.31245,4083.55867 4800.40524,4083.78645 4800.54606,4083.86634 C4800.63522,4083.57424 4800.07293,4082.72294 4800.16491,4082.4283 C4800.48284,4082.89483 4800.78409,4083.73111 4801.06532,4083.89893 L4801.39949,4084.30098 C4801.76172,4084.71449 4802.21142,4085.14458 4802.20181,4084.70782 C4802.10465,4084.51204 4802.10434,4084.36431 4802.13137,4084.23278 C4802.13758,4084.26802 4802.13618,4084.29481 4802.1531,4084.33061 L4802.65693,4084.73436 C4803.03332,4085.64844 4802.11735,4084.55165 4802.4936,4085.4684 L4802.97764,4086.24981 L4802.98215,4086.24064 L4803.0652,4086.39808 L4802.97764,4086.24981 C4802.86462,4086.33117 4802.9249,4086.76942 4803.11077,4087.21962 C4803.36786,4087.2331 4803.2738,4087.00391 4803.36563,4086.71195 C4803.70612,4087.18368 4803.80178,4087.63856 4803.81575,4087.70509 L4803.56321,4087.24602 C4802.91997,4086.7611 4803.69071,4088.22091 4803.31059,4088.27484 C4803.24758,4088.27288 4803.23685,4088.19578 4803.15225,4088.04228 C4803.39996,4088.9523 4802.5125,4088.07992 4802.91854,4089.2225 L4802.73169,4088.76553 L4802.8417,4089.44921 C4802.9245,4089.92121 4803.03654,4090.51951 4803.14335,4091.10758 L4803.33285,4091.4116 C4803.46154,4091.54726 4803.39254,4091.61533 4803.28241,4091.5809 L4803.22224,4091.54949 L4803.33685,4092.2224 C4803.37064,4092.43281 4803.39944,4092.62635 4803.42153,4092.79403 C4803.57703,4092.95258 4803.72632,4093.07589 4803.81061,4093.08165 C4803.63082,4092.69488 4804.09413,4092.79571 4803.54271,4092.01883 C4803.97974,4092.4164 4803.74149,4091.58208 4804.03105,4091.82151 C4803.52835,4091.42185 4803.66553,4090.98186 4803.41045,4090.51998 C4803.7928,4090.98719 4803.64043,4090.30777 4804.0537,4091.00489 L4804.07366,4091.02677 C4804.02241,4090.97999 4803.71858,4090.70237 4803.86908,4091.06907 C4804.098,4091.82502 4804.55655,4091.40188 4804.71965,4092.15841 C4804.69709,4091.48713 4805.20575,4091.43994 4805.09746,4090.61109 L4804.75309,4090.44398 C4804.94845,4090.4569 4805.16077,4090.09472 4805.39552,4090.40648 C4805.3489,4090.55309 4805.22981,4090.62205 4805.19265,4090.84436 C4805.67853,4091.61646 4805.48831,4090.63426 4805.80625,4091.10078 L4805.35009,4089.58226 L4805.16406,4089.64771 C4804.9652,4089.11223 4805.65634,4089.45194 4805.97092,4089.39323 C4806.5055,4090.54254 4805.61932,4089.67158 4805.63228,4090.26983 C4805.70146,4090.79449 4806.39952,4091.20708 4806.38396,4091.58092 C4806.58626,4091.7943 4806.68321,4091.68658 4806.57165,4091.38127 L4806.54839,4091.36394 L4806.53752,4091.28951 L4806.57165,4091.38127 L4806.57165,4091.38127 L4806.76281,4091.52558 C4807.21859,4092.59019 4806.72711,4092.6168 4807.01923,4093.60166 C4806.97565,4093.48523 4806.92291,4093.3643 4806.85918,4093.24815 C4806.43981,4093.00057 4806.26591,4093.14186 4806.25176,4093.51443 C4806.53864,4093.75373 4806.44331,4093.52313 4806.42678,4093.37723 C4806.58385,4093.60838 4806.48256,4093.82465 4806.58749,4094.12826 C4806.93045,4094.29664 4806.98057,4094.67258 4807.18552,4094.75852 C4807.22477,4095.06004 4807.09496,4095.05189 4806.90088,4095.04038 C4806.60059,4094.72384 4806.63761,4094.5042 4806.31953,4094.04036 C4806.36697,4094.41616 4805.57827,4093.3247 4805.73459,4094.00567 C4806.12277,4094.0287 4806.32526,4095.08407 4806.43965,4095.46338 L4806.50392,4095.46675 L4806.61401,4095.72767 C4806.7515,4096.08744 4806.65908,4096.07178 4806.33822,4095.68232 C4806.29897,4095.3808 4806.50392,4095.46675 4806.11211,4094.92383 C4806.0573,4094.99616 4806.00122,4095.06708 4806.03101,4095.2929 L4805.84288,4094.83452 L4805.56629,4095.19334 L4806.21045,4096.50342 C4806.33581,4096.75037 4806.46936,4097.0061 4806.60989,4097.26234 C4806.23573,4096.86941 4806.36086,4097.32583 4806.39191,4097.55306 L4806.29672,4097.31978 C4805.87677,4097.00637 4805.7616,4097.56434 4805.99413,4098.02101 L4806.92045,4098.41548 C4807.55319,4098.68896 4808.17126,4098.99948 4808.50428,4099.44307 C4807.27153,4101.21416 4805.07538,4102.17871 4803.90198,4103.99587 C4806.12928,4105.5374 4810.19792,4100.20193 4811.9221,4098.84067 C4813.53847,4097.56373 4815.30424,4096.92039 4816.92961,4095.54858 C4819.49069,4093.38517 4821.76196,4090.47472 4824.66875,4088.81152 C4825.18371,4089.97933 4820.70668,4094.82624 4819.65626,4096.18987 L4819.55407,4096.32668 C4816.27244,4100.88962 4812.50038,4105.69005 4808.5324,4109.87324 C4808.02535,4108.96708 4807.07421,4108.18268 4806.25665,4107.20654 C4805.93185,4106.97331 4804.51866,4107.93459 4805.17228,4108.81082 C4806.24193,4108.8454 4804.94793,4110.24802 4806.27408,4109.53866 C4806.80357,4109.96525 4806.83412,4111.07337 4806.09222,4111.2668 C4805.7286,4110.74954 4806.34618,4110.52005 4805.60687,4110.30538 C4805.72588,4111.16031 4805.2738,4110.89624 4806.00658,4111.51746 C4805.92182,4111.90513 4805.94007,4112.223 4805.98327,4112.52607 C4805.30829,4113.21046 4804.63486,4113.89091 4803.97439,4114.5801 C4803.90107,4114.41645 4803.83972,4114.25478 4803.80078,4114.101 C4803.47493,4114.81041 4802.43864,4115.18984 4801.36711,4115.57547 C4800.95444,4115.07176 4800.62173,4114.06731 4799.80333,4115.05439 C4799.2352,4113.93018 4800.0666,4113.07941 4800.8085,4112.88598 C4802.16703,4113.27545 4800.84201,4113.98888 4801.45168,4114.98636 C4801.95175,4114.30891 4801.70311,4114.23679 4801.54508,4113.51142 C4802.70169,4112.88584 4802.64285,4110.67777 4804.28053,4111.42833 C4804.82342,4110.62555 4804.4143,4110.23348 4804.42512,4109.41221 C4803.6938,4108.37881 4802.94104,4109.80442 4802.03731,4109.26825 C4802.16163,4109.30431 4802.40492,4109.37615 4802.4891,4109.53768 L4801.70297,4109.8577 C4802.56793,4109.69892 4802.43303,4110.88969 4802.1856,4111.22989 L4802.02023,4111.39261 C4801.80344,4111.59511 4801.52368,4111.79874 4801.39679,4111.54978 L4801.56652,4111.05241 C4800.86871,4111.12193 4801.18433,4112.58071 4800.27647,4112.45658 C4800.07191,4112.26054 4800.16164,4112.00876 4800.07577,4111.85385 C4800.10801,4112.95535 4799.57067,4113.34482 4799.19093,4114.46769 L4798.83262,4113.13156 C4798.97742,4113.98113 4798.56516,4114.62289 4797.9341,4115.08399 L4798.46631,4115.8139 C4798.8876,4116.41067 4799.24009,4116.98123 4799.42446,4117.54435 C4799.47951,4117.92861 4799.40191,4118.17968 4799.26988,4118.36748 L4799.35896,4118.35872 L4799.35896,4118.35872 C4799.64719,4118.3416 4799.78802,4118.47252 4799.87968,4118.6707 L4799.77131,4118.74022 L4799.77131,4118.74022 L4799.82362,4118.81816 L4799.82362,4118.81816 L4799.89646,4118.70918 L4799.91593,4118.77331 L4799.91593,4118.77331 L4799.84928,4118.84099 L4799.82362,4118.81816 L4799.82362,4118.81816 L4799.73006,4118.96366 L4799.73006,4118.96366 L4798.91078,4119.78821 L4798.91078,4119.78821 C4798.91007,4119.72506 4798.91062,4119.66331 4798.92173,4119.57929 L4798.86555,4119.83149 C4798.60782,4120.08656 4798.33443,4120.33274 4798.06768,4120.58062 C4798.66065,4121.87131 4796.41912,4120.9857 4796.95002,4122.69211 L4796.68309,4122.48788 C4796.50866,4122.36594 4796.34227,4122.30708 4796.18972,4122.51931 C4797.2119,4123.94664 4795.76631,4123.75807 4795.60056,4124.41007 C4795.30894,4124.38942 4795.66709,4123.78107 4795.20586,4123.53801 C4794.8854,4123.78576 4795.36428,4124.81935 4794.6103,4124.55154 C4794.61775,4124.46062 4794.52866,4124.39283 4794.53865,4124.30473 C4794.27105,4125.20922 4794.08698,4123.95608 4793.71678,4123.64125 C4794.14937,4123.73912 4794.03798,4122.94368 4794.38008,4123.02607 C4794.08406,4122.24377 4794.28962,4121.88258 4794.49588,4121.50798 L4794.44893,4121.43032 L4794.44893,4121.43032 C4794.47627,4121.42101 4794.51869,4121.40578 4794.55463,4121.38618 C4794.74961,4121.02174 4794.8899,4120.59937 4794.52255,4119.74351 C4794.02503,4119.85978 4793.3605,4120.62664 4792.84519,4119.95506 C4792.73134,4121.99964 4793.77334,4125.09853 4793.30197,4126.79135 C4793.06337,4126.88627 4792.79384,4126.70026 4792.55755,4126.41796 L4792.52838,4126.46209 L4792.52838,4126.46209 L4792.54613,4126.40527 L4792.54613,4126.40527 C4792.28235,4126.08393 4792.06237,4125.64403 4791.99127,4125.33547 C4791.71027,4125.5732 4791.87907,4125.93925 4792.03322,4126.35422 L4792.11467,4126.28597 L4792.11467,4126.28597 L4792.08117,4126.48968 C4792.11854,4126.59638 4792.13407,4126.70999 4792.15623,4126.8253 C4792.26065,4126.75423 4792.37424,4126.68767 4792.44427,4126.60674 C4792.15023,4127.11907 4791.9199,4127.64549 4791.76822,4128.18274 L4791.67281,4128.23548 L4791.67281,4128.23548 L4792.23499,4130.52365 L4792.66336,4130.0103 C4792.60597,4130.54175 4792.46396,4130.84316 4792.39512,4131.18333 L4792.44604,4131.39011 L4792.87043,4131.36267 C4792.88042,4131.30008 4792.89464,4131.23368 4792.92578,4131.17757 C4792.92254,4131.21366 4792.95089,4131.28766 4792.98727,4131.36208 L4793.13343,4131.36571 C4792.9379,4130.56183 4793.21114,4129.67778 4793.12689,4129.18456 C4793.12057,4129.27957 4793.10649,4129.3688 4793.11483,4129.46593 L4792.98024,4128.88278 L4792.98024,4128.88278 C4793.06552,4128.94634 4793.10938,4129.05741 4793.12689,4129.18456 C4793.15782,4128.85046 4793.27799,4128.60699 4793.42257,4128.46148 C4793.34297,4128.59697 4793.33653,4128.79672 4793.55208,4129.01347 C4794.1252,4129.14557 4795.00097,4130.08716 4794.94585,4128.7817 L4794.6254,4129.02944 L4794.43568,4127.14083 C4795.08046,4127.51974 4794.53131,4128.08316 4794.76217,4128.64852 C4794.87934,4127.5656 4796.57849,4129.01364 4796.03934,4127.64386 L4796.41001,4128.11801 C4796.89963,4128.72738 4797.48496,4129.36196 4797.74371,4129.09486 C4796.92933,4128.49354 4797.62192,4128.42107 4796.81358,4127.7301 C4796.68574,4127.2871 4797.26762,4127.60029 4797.14156,4127.27475 L4797.2334,4127.45668 C4798.63244,4128.09804 4797.65963,4126.21538 4797.54261,4125.45053 C4798.11819,4124.61321 4798.78181,4124.81182 4799.32729,4124.24149 L4799.53099,4124.49118 C4799.97613,4125.01378 4800.75894,4125.81558 4800.94411,4125.62076 C4800.62584,4124.90444 4800.99285,4124.20391 4800.49497,4123.35329 C4799.81223,4123.34033 4800.59328,4124.29576 4800.45355,4124.6819 C4799.64634,4123.99501 4799.85773,4123.85569 4799.20268,4123.57024 C4799.67545,4123.72125 4800.01313,4122.32492 4800.83033,4122.92369 L4800.81275,4123.1054 C4801.57587,4123.27566 4803.03708,4125.21614 4802.92238,4123.48455 L4802.92504,4122.74209 C4802.96311,4122.8354 4803.02656,4122.93138 4803.06675,4123.01003 C4803.68783,4122.68807 4804.16826,4123.71771 4804.28879,4122.54499 C4804.27993,4122.63719 4804.37184,4122.70243 4804.35904,4122.79308 C4805.02674,4122.99056 4804.75248,4121.81864 4804.88799,4121.43631 C4805.51687,4121.9903 4805.3083,4122.12709 4805.54212,4122.68723 C4806.34434,4122.49562 4806.21684,4120.85467 4806.03266,4119.7573 L4806.70669,4119.85977 C4806.66169,4120.30861 4806.86317,4121.22964 4807.21787,4121.58394 C4807.34479,4121.28845 4807.0806,4121.00066 4807.48298,4120.90626 C4807.72833,4121.37436 4807.87559,4121.86953 4808.1035,4122.51666 C4809.24635,4122.76859 4807.18995,4120.88688 4808.55707,4121.88108 C4808.76578,4121.74162 4808.44609,4121.02657 4808.10756,4120.49183 L4808.94516,4120.90636 C4808.52752,4120.21572 4808.95352,4119.84996 4809.18094,4119.53288 C4809.01991,4119.22364 4808.45156,4119.00048 4808.51703,4119.33963 C4808.17991,4118.80361 4808.32414,4118.33177 4808.53411,4118.19372 C4809.57333,4119.52659 4809.71907,4117.0271 4810.61928,4118.83478 C4811.21481,4117.71919 4812.39486,4116.64632 4812.589,4115.63189 C4813.05586,4115.86988 4813.47315,4115.59363 4813.68503,4116.41852 C4814.42164,4115.89044 4813.80434,4114.19293 4814.79248,4114.04061 C4814.97644,4114.16842 4814.47442,4114.29385 4814.82449,4114.73655 C4814.90801,4113.83449 4816.09723,4114.68777 4816.57455,4113.77815 C4816.50334,4113.85589 4816.55293,4114.01993 4816.61855,4114.16651 L4816.71591,4114.36031 C4816.54207,4114.14171 4816.68249,4113.66564 4816.71765,4113.30222 C4816.9061,4113.34433 4816.68994,4113.57472 4816.87517,4113.70394 C4818.76899,4113.3332 4818.52892,4110.66309 4819.98214,4109.68108 C4819.56599,4109.96141 4820.0601,4110.9864 4820.32093,4111.36399 L4820.72468,4111.08972 C4820.5557,4110.52223 4820.85319,4110.30283 4820.85914,4109.77942 C4820.75566,4109.67865 4820.69671,4109.54799 4820.79814,4109.30353 C4820.84977,4109.49693 4820.85953,4109.64381 4820.85914,4109.77942 L4821.06828,4109.94974 C4821.1761,4110.03909 4821.27354,4110.14733 4821.29211,4110.3312 C4822.72533,4110.67893 4821.32987,4107.76562 4822.62018,4107.53514 L4822.76765,4110.22994 L4823.50786,4110.65817 L4823.59199,4111.87116 C4824.25535,4112.15167 4823.69295,4110.79007 4824.21939,4111.45418 C4824.29387,4111.69846 4824.09387,4111.74841 4824.35344,4112.12459 C4824.83789,4112.18086 4824.49654,4111.64865 4824.61952,4111.35161 C4825.04037,4113.1852 4823.88845,4114.00305 4823.52062,4114.79621 C4823.50163,4114.97918 4823.36168,4114.39576 4823.27835,4114.24368 C4823.06092,4114.47265 4822.6015,4114.14374 4822.46109,4114.61981 C4822.68423,4115.358 4822.91783,4114.94858 4823.11796,4114.89596 C4823.46058,4115.42958 4823.36389,4115.4554 4823.24442,4115.65996 C4822.71924,4114.99726 4822.12498,4116.11426 4821.30931,4115.43499 C4820.54009,4116.32931 4822.71845,4117.11357 4821.60519,4117.47554 L4820.77954,4116.88437 C4820.68716,4117.87862 4820.39112,4118.91591 4819.68165,4119.18221 L4819.78846,4119.06561 C4819.63348,4118.66671 4819.34916,4118.55781 4819.1652,4118.43 C4818.48231,4118.41972 4818.7549,4119.67481 4817.9253,4119.0821 C4818.00802,4120.29635 4817.59349,4121.54498 4817.31208,4122.40577 C4816.42362,4121.4756 4817.45481,4120.96296 4817.24053,4120.13258 L4816.71108,4120.52515 C4817.03182,4120.27204 4816.88301,4119.78081 4816.66255,4119.04277 C4816.06144,4119.18852 4816.54751,4120.21309 4816.29112,4120.80125 C4816.12601,4120.49314 4815.945,4120.36011 4815.73615,4120.50225 L4816.16225,4121.2363 C4816.11939,4121.18303 4816.06075,4121.14907 4815.96674,4121.14951 L4815.47548,4122.14568 C4815.85157,4122.32251 4816.28088,4122.91841 4816.49086,4122.78036 C4816.13475,4122.42732 4816.25169,4122.21994 4816.46294,4122.08329 C4816.60021,4122.66658 4816.92713,4122.32114 4817.18529,4122.69859 C4816.76378,4122.97864 4816.32892,4123.43659 4816.19454,4123.82301 L4815.65952,4123.24573 C4815.16032,4123.36863 4814.99838,4124.02486 4814.60471,4124.02974 L4814.44987,4123.62816 C4813.84876,4123.77391 4813.67528,4124.52219 4812.82742,4124.20112 C4812.91969,4125.23325 4812.81941,4126.2244 4813.00949,4127.2348 C4813.39956,4128.19525 4811.06496,4127.08722 4811.40103,4128.59139 C4811.30912,4128.52614 4811.29414,4127.73575 4811.23739,4127.30709 C4810.83487,4127.40416 4811.30054,4128.61298 4810.59718,4127.8147 C4811.50412,4127.5977 4810.08032,4127.14707 4810.22342,4126.67114 C4809.90663,4126.92579 4809.66908,4127.33366 4809.72189,4127.76077 C4810.25261,4127.36961 4810.3673,4129.10121 4810.64395,4128.33147 C4810.73467,4129.36755 4810.36738,4130.07344 4809.67323,4130.14986 C4809.41916,4129.77128 4809.23675,4129.63952 4808.94245,4129.61873 L4809.17008,4130.2712 C4808.86706,4130.33992 4809.17395,4129.30052 4808.57017,4129.44613 C4808.73269,4130.72634 4806.7532,4129.96458 4807.73151,4131.84484 C4806.89405,4131.42763 4807.95535,4130.64799 4806.82472,4130.21407 C4806.71783,4129.35844 4807.65465,4129.74997 4807.16677,4128.81125 C4807.01972,4129.28563 4806.54801,4128.16647 4806.34071,4128.30466 L4806.35328,4129.08956 L4806.45378,4129.06797 C4806.42375,4130.3072 4805.21773,4130.59447 4804.55755,4131.2783 C4804.51599,4132.60959 4804.93579,4134.18126 4804.10079,4134.63972 C4803.979,4133.96594 4803.12642,4134.60611 4802.9694,4133.3235 C4802.30423,4133.12884 4802.31949,4133.91387 4802.57074,4134.29498 C4802.97171,4134.20186 4802.76314,4134.33864 4803.15412,4134.33362 C4803.28858,4134.91944 4802.86608,4135.19272 4802.4914,4135.01463 C4802.59189,4134.99304 4802.5028,4134.92525 4802.42088,4134.7719 C4801.83749,4134.73327 4802.55547,4135.35505 4802.41447,4135.73977 C4801.88889,4135.16165 4801.70007,4135.99776 4801.22617,4135.84266 L4801.49381,4137.01289 C4801.28025,4136.27118 4800.99966,4137.03936 4800.56458,4136.52776 C4800.59727,4137.13376 4800.89107,4138.03545 4800.38947,4138.15285 C4800.3368,4137.72305 4799.72176,4137.95536 4799.29836,4137.34902 C4798.23109,4137.2434 4799.32273,4139.80506 4798.09203,4139.38469 L4797.94896,4139.06268 C4797.86349,4138.89328 4797.74518,4138.72692 4797.57926,4138.71592 C4797.55141,4138.99109 4797.24488,4139.10126 4797.13484,4139.27946 L4797.26969,4139.75519 C4797.22655,4139.70727 4797.20441,4139.66851 4797.17833,4139.6282 C4797.31564,4140.4156 4797.59248,4141.1284 4797.41058,4142.01187 C4797.9218,4142.68459 4798.18242,4142.09261 4798.22434,4141.72821 L4797.92296,4140.92012 C4798.79732,4141.86299 4798.27394,4140.39734 4798.63707,4140.66749 C4798.76711,4141.03017 4798.79452,4141.32704 4798.76371,4141.58191 C4798.91987,4141.54846 4799.09167,4141.49838 4799.30927,4141.3943 C4799.27666,4141.81157 4798.71493,4142.17961 4799.21976,4142.64116 L4798.69522,4142.88895 C4798.73516,4142.51102 4798.72268,4142.15988 4798.70879,4141.81 C4798.53486,4142.43875 4798.03107,4142.85414 4798.01066,4143.62791 C4798.11573,4143.70682 4798.21535,4143.75323 4798.31481,4143.79485 L4798.46456,4143.85716 C4798.46329,4143.85575 4798.4647,4143.85448 4798.46484,4143.8518 L4798.46978,4143.86012 L4798.58621,4143.91859 L4798.58621,4143.91859 C4799.06352,4143.57298 4799.38366,4143.15198 4799.57242,4142.67576 L4799.73902,4143.28878 C4799.66591,4143.50518 4799.51361,4143.798 4799.3169,4144.01597 C4799.6701,4143.96332 4799.97507,4143.78056 4800.23704,4143.5472 L4800.33045,4143.40438 L4800.33045,4143.40438 L4799.82385,4143.20728 L4800.14712,4142.957 L4799.32007,4142.44365 C4799.47243,4142.40597 4799.58277,4142.32447 4799.68282,4142.23437 C4799.71915,4142.07916 4799.75548,4141.92395 4799.77222,4141.75831 C4799.46069,4141.5795 4799.16292,4141.18923 4799.36222,4141.20371 C4800.17727,4141.61303 4799.48695,4140.54015 4799.74047,4140.33993 L4799.73723,4140.32498 C4799.61616,4140.3549 4799.49326,4140.39411 4799.3857,4140.31999 C4799.28227,4140.42334 4799.1915,4140.41321 4799.10776,4140.32019 L4799.26657,4140.15931 L4799.26657,4140.15931 C4799.24485,4140.11252 4799.21976,4140.07897 4799.20057,4140.00948 C4799.26245,4140.03287 4799.30756,4140.04329 4799.3631,4140.05963 C4799.46427,4139.9481 4799.55093,4139.83179 4799.59234,4139.70773 C4799.94989,4139.59756 4800.07654,4139.92245 4800.15213,4140.1453 L4800.33853,4140.11422 C4800.532,4140.09144 4800.76686,4140.11105 4801.22464,4140.33043 C4801.0914,4140.15693 4801.02809,4140.03276 4800.98663,4139.92718 L4800.97098,4139.91831 L4800.98113,4139.90407 L4800.98113,4139.90407 C4800.80003,4139.3628 4801.68227,4139.59167 4801.20385,4138.75416 L4800.90351,4138.82302 L4800.92272,4137.76451 C4801.3793,4138.01941 4801.50015,4138.27552 4801.56602,4138.50457 L4801.6125,4138.33512 L4801.6125,4138.33512 C4801.97783,4138.33279 4802.31583,4138.36527 4802.62509,4138.45937 C4802.58101,4137.99377 4802.38384,4137.45166 4802.65045,4137.18095 C4802.82857,4137.65089 4802.88534,4138.13058 4802.83567,4138.51472 C4803.18723,4138.67281 4803.47666,4138.96595 4803.65958,4139.49791 C4803.81166,4139.49111 4803.96937,4139.42821 4804.13707,4139.32822 C4804.05446,4139.23929 4803.95521,4139.16023 4803.81045,4139.1043 C4804.14512,4138.76464 4804.9309,4138.75883 4804.33408,4137.92586 C4804.06892,4137.73336 4803.75837,4137.51028 4803.51735,4137.52316 C4804.08894,4137.12072 4803.7079,4136.21848 4804.34831,4135.98885 C4804.37959,4136.59612 4804.02333,4138.09086 4805.06064,4138.4608 L4804.63479,4136.97878 C4805.00707,4137.15138 4804.86861,4137.53893 4804.94012,4137.78842 C4805.28343,4138.2321 4805.97475,4138.15822 4805.74376,4137.59554 C4805.48097,4137.30648 4805.16023,4137.55958 4805.0473,4136.7936 L4805.28037,4134.62635 C4805.15203,4134.92311 4805.58443,4135.43458 4805.66889,4135.59075 C4805.96937,4135.51921 4805.38958,4134.51525 4805.96579,4134.63945 L4806.13153,4135.83254 C4806.83335,4134.78966 4806.92757,4135.73327 4807.1818,4134.26407 L4807.26358,4134.4201 C4807.49381,4134.10048 4808.02312,4133.71059 4807.90879,4132.94588 L4808.41693,4133.70303 C4807.81456,4132.00228 4808.89223,4133.85686 4809.09595,4132.8389 L4809.07711,4133.0192 C4809.40797,4132.67531 4809.54243,4133.26114 4809.87955,4133.79715 C4810.67432,4133.69647 4809.33119,4131.55268 4810.29966,4131.67327 C4810.6341,4132.20915 4811.09956,4132.44841 4811.34745,4132.91932 C4811.06173,4132.81168 4810.75857,4132.88308 4810.81532,4133.31174 C4811.30335,4134.24778 4811.53717,4132.96283 4811.80763,4134.13053 C4812.14984,4134.10818 4812.56807,4134.27513 4812.87194,4134.21586 L4813.19761,4133.97107 C4813.12238,4134.12558 4813.00766,4134.18806 4812.87194,4134.21586 L4808.24008,4137.69281 C4808.29168,4137.75863 4808.33469,4137.83475 4808.35698,4137.94737 C4808.26451,4137.86732 4808.18373,4137.82012 4808.11283,4137.78954 L4807.04675,4138.5837 C4807.39187,4138.99256 4806.85394,4139.23965 4806.89757,4139.61123 C4806.88198,4139.21695 4806.78426,4139.00637 4806.65977,4138.87093 L4806.54943,4138.95244 L4806.34316,4139.30151 C4806.37304,4139.91005 4804.75093,4139.50274 4805.89372,4140.72959 C4805.67979,4140.86609 4804.95295,4140.33651 4804.80323,4140.81075 C4804.66381,4140.67855 4804.57555,4140.56918 4804.51478,4140.47334 L4804.4687,4140.50718 C4804.50089,4140.7385 4804.549,4140.97334 4804.66223,4141.19547 C4804.41205,4141.17833 4804.23146,4141.01175 4804.08299,4140.79583 L4803.37316,4141.32531 C4803.21115,4141.0093 4803.45532,4140.60313 4802.9876,4140.35569 L4803.34652,4140.04013 L4803.06985,4140.17412 C4802.78088,4140.30659 4802.43574,4140.42648 4801.8609,4140.46181 L4801.73684,4140.36937 L4801.73684,4140.36937 C4801.78549,4140.4404 4801.81807,4140.56162 4801.83079,4140.72881 L4801.91947,4140.83014 L4801.91947,4140.83014 L4801.97415,4140.78601 L4801.97415,4140.78601 L4801.97203,4140.77515 L4801.99515,4140.76965 L4801.99515,4140.76965 C4802.19018,4140.60933 4802.29334,4140.53685 4802.77762,4140.49375 C4802.14411,4140.6942 4802.4675,4141.59476 4802.65513,4142.34451 C4802.69938,4142.31997 4802.7473,4142.30234 4802.78676,4142.26681 L4802.66162,4142.37439 L4802.66162,4142.37439 C4802.79888,4142.93216 4802.8548,4143.40241 4802.35374,4143.40703 C4802.41599,4143.19275 4802.29587,4143.02531 4802.13614,4142.87057 C4801.89602,4143.12252 4801.63998,4143.37096 4801.30372,4143.56148 L4801.34433,4143.60658 L4802.4088,4143.79129 L4801.83272,4144.30496 L4802.65359,4144.2701 C4801.62308,4145.33335 4800.21693,4146.28828 4798.86531,4145.89514 C4798.98542,4145.39652 4799.27102,4144.94283 4799.58143,4144.50253 C4799.41495,4144.42532 4799.23593,4144.33133 4799.05296,4144.2358 C4798.84706,4144.34721 4798.61732,4144.34994 4798.37935,4144.12529 C4798.40992,4144.05438 4798.42245,4143.99461 4798.43907,4143.93371 C4798.25793,4143.85438 4798.07638,4143.7831 4797.90132,4143.74169 C4798.06192,4144.05897 4798.48264,4144.66517 4798.60175,4145.33881 C4798.27899,4144.70821 4797.90953,4144.53307 4797.87824,4143.9258 C4797.49485,4143.83721 4797.52345,4144.44435 4797.48562,4144.80762 C4798.1695,4144.82467 4797.86075,4145.77132 4798.01264,4146.17811 C4797.7123,4146.24697 4797.69382,4145.54905 4797.72407,4145.27938 C4797.44851,4145.25957 4796.73082,4144.65794 4797.05022,4145.37835 C4797.12056,4145.39412 4797.1768,4145.42258 4797.25686,4145.43215 L4796.93653,4145.60067 L4796.93653,4145.60067 C4797.03127,4145.71441 4796.99255,4145.88964 4796.96396,4145.9996 L4797.0939,4145.92853 C4796.59679,4146.60076 4796.42733,4148.32283 4796.91682,4148.8722 C4796.42865,4147.91333 4797.49557,4148.35868 4797.95136,4148.21874 C4797.82586,4148.58951 4797.65777,4149.49116 4798.15089,4149.22829 C4798.02774,4148.7854 4798.77613,4147.36628 4797.7053,4147.73852 L4797.87488,4147.18251 C4798.00351,4146.79654 4798.18757,4146.4272 4798.57252,4146.35786 C4798.4512,4147.13573 4798.98201,4147.15281 4799.3083,4147.793 C4799.31333,4146.97949 4798.82117,4146.42998 4798.65957,4146.10593 C4800.38525,4145.79218 4802.07007,4146.82184 4802.89706,4145.1584 C4802.98129,4144.90902 4802.3198,4146.0789 4801.99196,4145.44265 C4802.16424,4143.71804 4804.04821,4145.35437 4804.54819,4144.26869 L4803.56254,4143.57916 C4803.68677,4143.20699 4804.18543,4142.5308 4804.42989,4142.19582 C4804.76018,4142.42664 4806.15848,4142.28776 4805.74288,4143.12138 C4806.90404,4142.69076 4806.468,4141.6339 4806.44113,4140.63474 C4807.12745,4140.83589 4807.89024,4140.78187 4808.59307,4141.12891 C4808.52481,4141.56042 4808.67006,4141.88898 4809.02981,4142.12135 C4809.65488,4142.62008 4810.70581,4142.80677 4811.38487,4143.35131 C4813.32766,4141.99479 4815.06019,4141.44774 4816.87451,4139.77562 C4819.50531,4137.3462 4822.59918,4135.65133 4825.60336,4133.72778 L4826.50136,4133.14289 C4830.41459,4130.54275 4834.8688,4128.09855 4838.42856,4125.04346 C4840.36438,4123.38443 4842.33226,4120.83139 4844.59505,4119.6971 C4845.54576,4121.10456 4843.08509,4124.11923 4842.09336,4125.23689 C4841.5804,4125.64778 4841.07887,4126.07135 4840.58481,4126.50605 C4840.06812,4127.21889 4840.39733,4127.70078 4839.88713,4128.41798 C4838.99465,4129.66573 4837.35785,4130.33328 4836.45523,4131.62078 C4836.7375,4132.05052 4837.15024,4132.27089 4837.61652,4132.39202 L4836.77224,4133.00174 C4836.6764,4132.98598 4836.57322,4132.9564 4836.4627,4132.88749 C4836.45441,4133.02 4836.49333,4133.09724 4836.54902,4133.16193 L4828.48437,4138.96206 C4828.96059,4138.79096 4829.51537,4138.86301 4830.03149,4138.72489 C4830.02347,4140.08211 4830.81846,4138.41431 4831.21587,4139.41409 C4831.14749,4139.92482 4830.67296,4140.11481 4830.28845,4140.07317 C4830.48899,4140.57651 4831.09495,4140.72242 4831.40431,4141.27578 C4832.79753,4141.10574 4831.556,4138.89343 4832.77116,4138.5086 C4833.08179,4139.06337 4833.07982,4139.74142 4833.68916,4139.20801 L4833.5952,4139.43809 C4834.25552,4138.11103 4835.21044,4140.05318 4834.90768,4138.14387 L4835.39891,4138.91625 C4835.49343,4138.0094 4836.41944,4137.35159 4836.87248,4136.87982 L4836.9389,4137.04713 C4837.8239,4135.14771 4837.64078,4136.28492 4839.04061,4134.75893 L4838.87757,4136.1792 C4839.69294,4136.14673 4839.17218,4135.09215 4839.6453,4134.90343 C4839.71581,4135.06961 4840.18302,4135.55739 4839.89163,4135.9678 L4840.9763,4133.20464 C4840.98558,4133.10441 4840.9857,4133.02519 4840.98132,4132.95513 C4841.30608,4133.06078 4841.62944,4133.1677 4841.94632,4133.29577 L4841.82208,4133.66476 C4841.78543,4133.77815 4841.75525,4133.87997 4841.73674,4133.96427 C4842.01775,4133.8286 4842.2001,4133.65419 4842.33917,4133.46005 L4844.56775,4134.43898 L4844.56775,4134.43898 C4844.60162,4134.61264 4844.5581,4134.75136 4844.18813,4134.81657 L4844.09344,4134.6377 C4844.07715,4134.59623 4844.08906,4134.56765 4844.16791,4134.53619 C4843.6719,4134.44439 4842.94825,4134.93018 4842.95037,4135.6071 C4843.5309,4135.46967 4843.17464,4135.70882 4843.8056,4135.45452 C4844.04981,4135.84198 4843.80153,4136.81329 4842.87861,4136.79714 C4843.08405,4135.25959 4841.59717,4136.34592 4841.64548,4135.55213 C4840.24874,4136.40415 4840.334,4138.21075 4839.80525,4139.87101 C4838.57996,4140.93614 4836.68215,4141.69073 4836.20088,4143.23934 L4836.35858,4143.17643 L4836.10101,4144.14591 C4835.74052,4144.38887 4835.43453,4143.1562 4835.04806,4143.7926 C4834.65347,4142.79029 4835.91033,4142.96762 4836.05273,4141.94108 C4834.52272,4141.77494 4836.37743,4140.45946 4835.27686,4140.22049 C4836.07281,4142.22414 4833.39448,4141.93604 4833.18242,4143.4719 C4832.23365,4143.84652 4833.05703,4142.45684 4832.58547,4142.64161 L4832.69049,4143.37897 C4832.26387,4143.44927 4832.03833,4143.34613 4831.79412,4142.95867 C4830.73287,4143.27637 4829.93448,4144.26584 4829.69572,4145.51696 C4830.3826,4144.47733 4829.93246,4146.58486 4830.85975,4145.92846 C4830.78586,4146.44159 4830.28549,4147.02234 4829.72109,4147.44127 C4830.10898,4146.8036 4828.15121,4146.70367 4829.5769,4146.14456 C4828.8221,4145.37985 4829.07512,4146.72658 4828.44162,4146.97806 C4828.51282,4146.46479 4828.77604,4145.49024 4828.66186,4145.43994 C4828.61813,4147.1968 4825.5455,4146.56709 4825.77971,4147.63217 C4825.69569,4148.8256 4825.18391,4150.08524 4824.94219,4151.34158 C4823.79443,4151.20891 4823.26131,4152.18408 4822.30887,4152.55179 L4822.22773,4152.10171 C4821.63945,4152.23336 4821.1538,4153.09688 4820.36034,4153.40309 L4819.78219,4152.85445 C4819.43812,4153.37356 4818.61571,4154.07843 4817.88585,4154.55449 C4818.12865,4154.94322 4818.7432,4154.41277 4818.73038,4155.09293 C4819.09722,4154.85701 4819.34747,4154.5653 4818.95106,4154.23835 C4819.31394,4154.00088 4819.72916,4154.60948 4820.22335,4154.71058 L4819.11666,4156.10018 C4818.97544,4156.13038 4818.90158,4156.10502 4818.85872,4156.05175 L4819.21788,4156.83332 C4818.8495,4157.07318 4818.63101,4156.9637 4818.50211,4156.63063 C4817.89848,4157.43962 4818.23686,4158.56657 4817.28189,4158.93146 L4817.25964,4158.40701 C4817.25082,4157.84047 4817.32866,4157.42677 4817.77367,4157.10542 L4816.83595,4157.75591 C4816.83278,4156.79156 4818.56,4155.83332 4817.58686,4154.95645 L4817.05409,4155.79644 C4816.39957,4156.84696 4815.6788,4158.11288 4815.40752,4159.26427 C4814.40316,4158.77788 4814.32724,4160.2524 4813.3088,4160.44476 L4813.01508,4160.32626 C4812.84224,4160.2467 4812.67567,4160.12236 4812.62733,4159.8437 L4812.83265,4159.66646 C4811.67236,4160.20859 4810.82953,4161.58516 4810.30563,4162.84551 L4809.30536,4162.35799 C4807.5096,4163.13807 4810.4477,4163.4653 4808.9503,4164.80354 C4807.99906,4164.20042 4806.67155,4165.7557 4806.1506,4165.08919 L4805.99865,4165.25459 C4805.84733,4165.42727 4805.80317,4165.56143 4806.0372,4165.99774 C4806.35515,4165.87475 4806.86328,4165.29978 4806.90871,4166.14951 C4806.51039,4166.78126 4805.95275,4166.50763 4805.53844,4166.8552 C4805.47484,4166.68535 4805.49569,4166.00561 4805.39905,4166.23555 C4804.53346,4167.32893 4802.49455,4168.67504 4802.38283,4170.83254 C4802.68733,4170.42818 4802.38924,4169.86467 4803.08846,4169.79389 C4803.32703,4170.18643 4803.00782,4170.30801 4803.02127,4170.58937 C4803.54052,4171.26251 4803.24603,4169.73366 4804.12402,4169.8898 L4803.76028,4171.3734 L4804.69554,4171.69234 L4803.82804,4175 C4805.85414,4174.33405 4804.9391,4171.11827 4806.94435,4171.13206 C4806.86438,4171.50521 4807.20308,4171.54982 4807.37028,4171.69019 C4807.58987,4171.03564 4808.12285,4170.67817 4808.09536,4170.0241 L4808.81507,4169.56228 C4809.05237,4169.9534 4809.38117,4171.08387 4808.64497,4171.55289 C4811.22181,4169.90865 4811.91961,4166.66193 4814.89462,4165.61868 C4815.11988,4165.72717 4814.70529,4166.0801 4814.97421,4166.07271 L4815.28414,4165.40553 C4815.40721,4165.1275 4815.48699,4164.87654 4815.38971,4164.75431 C4815.45473,4164.92289 4815.5794,4165.25977 4815.37408,4165.43701 C4816.44259,4164.1609 4817.89097,4164.8599 4818.36994,4163.71403 C4818.72282,4164.15418 4817.92387,4164.46279 4818.14532,4164.56706 C4819.68998,4164.06925 4819.42485,4162.15923 4820.72559,4161.2686 C4820.72891,4162.23026 4821.45876,4161.7542 4822.06444,4161.90546 C4822.74633,4160.57685 4824.9223,4158.86998 4826.23726,4157.29792 C4826.90128,4159.25705 4828.06536,4156.10594 4829.12247,4157.43035 C4829.48676,4157.19162 4829.88268,4156.55436 4829.57487,4155.99706 C4829.54592,4156.39571 4828.78,4156.30454 4828.65378,4155.97161 L4829.03299,4155.5971 C4829.42596,4155.19872 4829.79171,4154.72867 4829.514,4154.18637 L4830.61569,4154.42943 C4830.30661,4153.87071 4830.09516,4153.08882 4830.45818,4152.84868 C4832.13548,4153.63757 4829.75114,4151.96696 4831.36806,4151.90937 L4831.4767,4152.71306 C4831.52911,4153.08229 4831.58926,4153.40724 4831.70476,4153.70899 C4832.34221,4153.45906 4832.05293,4153.18875 4832.35094,4152.78003 C4832.75285,4153.10458 4832.71658,4154.181 4832.48232,4154.7569 L4833.45398,4154.6628 C4833.58689,4153.35644 4833.99631,4151.35958 4835.26571,4150.86211 C4835.41595,4151.47965 4835.05307,4151.71711 4835.79314,4152.19905 C4836.13609,4151.67585 4836.15496,4150.31652 4837.08028,4150.33816 C4837.03111,4150.45644 4837.14388,4150.50801 4837.09627,4150.62234 C4837.69989,4149.12177 4838.04799,4150.24251 4839.09368,4149.6326 C4839.12682,4149.7176 4839.18759,4149.81344 4839.21172,4149.91676 L4839.48438,4148.99239 C4839.93212,4146.87936 4841.42531,4148.79869 4842.51003,4148.7508 L4842.41734,4148.98229 C4843.4307,4149.45035 4844.44088,4147.59643 4845.09741,4147.62279 C4844.21816,4147.49076 4844.58132,4147.24793 4843.61134,4146.66935 C4843.26839,4147.19255 4844.09807,4148.11695 4843.07851,4148.33074 C4842.63222,4147.44389 4843.43497,4146.44793 4843.21407,4145.66689 C4843.62231,4145.30691 4844.79142,4146.39011 4845.14967,4146.83055 C4846.17528,4145.93759 4847.09848,4145.94838 4848.25382,4144.70635 C4848.35017,4143.7902 4847.5459,4141.79149 4849.41887,4142.10049 L4849.55439,4142.43525 C4849.23686,4141.88415 4850.1869,4142.177 4850.14252,4141.6147 C4849.17522,4141.03626 4850.23858,4140.7039 4849.22352,4140.24247 C4849.83441,4139.70511 4850.736,4140.79443 4851.27499,4141.4498 C4851.07408,4140.54358 4851.73386,4140.61039 4852.41038,4140.51157 L4852.18075,4140.86633 C4851.66859,4141.69993 4851.6023,4142.27139 4853.85758,4142.23243 C4854.18275,4142.22799 4854.50255,4142.19775 4854.82319,4142.15144 C4853.88879,4144.40414 4854.20747,4147.52151 4853.38191,4149.90077 C4852.84152,4149.24667 4851.56904,4150.44361 4850.7722,4150.76307 C4850.52603,4149.82359 4850.88913,4149.24908 4851.31142,4148.72333 C4850.94853,4148.90976 4850.36721,4149.2929 4849.92357,4149.5597 L4850.7472,4151.16328 C4848.94835,4152.66835 4850.41845,4149.64741 4849.35495,4149.98244 C4848.92109,4150.49819 4849.10785,4151.18747 4848.89568,4151.59801 C4850.08704,4150.05304 4849.93631,4153.59568 4851.25991,4152.21745 C4851.72755,4153.38876 4850.90459,4154.10435 4850.19903,4154.19359 C4848.95716,4153.62761 4850.23135,4153.11562 4849.72131,4152.0616 C4849.21502,4152.65278 4849.44196,4152.75465 4849.54741,4153.48398 C4848.43361,4153.9332 4848.36362,4156.08886 4846.87755,4155.13542 C4846.32773,4155.83981 4846.68612,4156.27756 4846.6295,4157.07629 C4847.25089,4158.18315 4848.03385,4156.89878 4848.84457,4157.54422 C4848.73321,4157.49138 4848.50895,4157.38966 4848.43999,4157.21953 L4849.19316,4157.01594 C4848.37624,4157.05236 4848.57162,4155.91176 4848.82216,4155.61469 L4848.98509,4155.47861 C4849.19828,4155.31111 4849.47059,4155.15212 4849.57392,4155.41238 L4849.38727,4155.87394 C4850.0438,4155.9003 4849.83318,4154.43628 4850.67159,4154.68165 C4850.85346,4154.90067 4850.754,4155.13314 4850.82465,4155.29665 C4850.85824,4154.22009 4851.38306,4153.91591 4851.79763,4152.8714 L4852.05713,4154.2225 C4851.88891,4152.64119 4853.48033,4151.99408 4854.83862,4151.92696 C4854.61703,4151.82538 4854.3412,4151.83643 4854.32098,4151.55606 C4854.71323,4150.9119 4855.61411,4151.32303 4855.72492,4152.05265 C4855.68828,4150.80455 4858.29393,4151.30101 4858.28087,4149.65397 L4858.10932,4141.96111 C4858.07075,4142.18469 4858.00906,4142.38826 4857.89802,4142.53418 L4857.2107,4142.05132 C4857.0588,4141.9329 4856.97312,4141.82568 4856.92064,4141.6356 C4857.31132,4141.50837 4857.70128,4141.369 4858.09139,4141.22697 L4858.10932,4141.96111 C4858.14845,4141.72682 4858.14303,4141.47139 4858.12282,4141.21653 C4859.31936,4140.77701 4860.52421,4140.30705 4861.78224,4140.05204 L4862.69806,4139.8449 L4862.69806,4139.8449 C4863.13895,4140.52736 4863.85212,4141.0616 4863.19804,4141.91092 L4862.08522,4142.36691 L4862.5852,4143.81789 C4862.01926,4144.24077 4862.26836,4142.58734 4861.45315,4143.3087 C4861.5999,4144.04422 4860.6778,4143.93546 4860.75656,4144.43108 C4860.59455,4144.14058 4860.40265,4143.83107 4859.93055,4144.12861 L4860.05971,4144.3675 C4860.16001,4144.56394 4860.2389,4144.81218 4859.99754,4144.97678 C4858.93669,4143.95432 4860.74648,4144.08543 4859.5942,4143.29586 C4858.50429,4144.03237 4859.77328,4144.87506 4859.81625,4145.43863 C4859.74856,4145.26991 4859.86259,4145.32288 4860.01917,4145.25589 C4860.26873,4145.64363 4859.61206,4145.61995 4859.97467,4146.0539 C4860.17508,4145.97041 4860.27059,4145.73638 4860.34256,4145.5159 C4860.29646,4146.11374 4861.382,4145.94772 4861.69654,4145.73592 C4861.9944,4144.6383 4863.62568,4143.87109 4864.48879,4143.03004 C4864.44513,4143.14592 4864.35511,4143.37754 4864.57938,4143.47927 C4865.9187,4142.44161 4866.73858,4142.39998 4868.09628,4140.96042 L4867.6852,4139.9653 C4868.19618,4139.56639 4868.16675,4139.05188 4867.95056,4138.53966 L4871.15398,4137.66677 C4875.42803,4136.51432 4879.71666,4135.47746 4884.05836,4135.39563 C4885.37268,4135.37321 4886.15116,4134.91715 4887.3324,4134.74407 C4888.66233,4134.55192 4889.71516,4135.00996 4891.07924,4134.37108 C4894.24104,4132.88911 4895.24541,4129.65979 4897.67893,4127.49642 C4900.03636,4125.40157 4902.36587,4123.27572 4904.70793,4121.16663 C4906.11852,4119.89636 4907.47919,4118.50262 4908.95393,4117.31494 C4910.0417,4116.44 4911.3155,4116.08914 4912.4157,4115.36123 C4911.23396,4116.38969 4910.03713,4117.42408 4909.11095,4118.62306 C4908.00188,4120.05819 4907.71104,4121.63693 4907.31863,4123.4628 C4908.62793,4123.68988 4908.7054,4122.82645 4909.73352,4122.42377 C4910.98924,4121.93096 4912.24739,4121.57121 4913.5795,4121.03003 C4916.02286,4120.03681 4918.81001,4119.09383 4921.10813,4117.77205 C4922.82492,4116.78237 4924.00046,4115.74418 4925.85231,4114.89318 C4928.52269,4113.66746 4930.82661,4112.41447 4933.32523,4110.80239 C4937.82627,4107.90004 4942.14936,4104.65264 4946.90193,4102.10053 C4951.42112,4099.67182 4955.70988,4096.08019 4959.99515,4093.22158 C4963.39977,4090.94931 4966.36456,4087.74352 4969.41826,4084.99359 L4974.4671,4080.46778 C4975.3073,4079.71191 4976.14518,4078.95369 4976.97824,4078.19074 C4979.55647,4075.82815 4982.46711,4074.34779 4985.12723,4072.01098 L4971.45676,4084.32157 L4963.06775,4091.88932 C4961.66621,4093.14728 4960.26095,4094.40112 4958.84895,4095.64715 C4956.16275,4098.0202 4954.24216,4100.9262 4951.59094,4103.37494 C4953.84916,4101.37963 4955.8425,4099.82702 4958.37283,4098.17364 C4962.13936,4095.70816 4964.93913,4091.98746 4968.65828,4089.42684 C4972.44705,4086.81884 4975.61392,4083.44638 4979.39425,4080.92254 C4982.79211,4078.65125 4985.65502,4076.18541 4988.69308,4073.45212 L5002.47065,4061.04508 L5002.47065,4061.04508 C5004.356,4059.34983 5005.86401,4058.19344 5007.98709,4056.98334 C5010.30678,4055.66 5012.31743,4053.34152 5014.30296,4051.55349 L5024.87183,4042.03597 C5026.2641,4040.7822 5027.61575,4039.40678 5029.06977,4038.2301 C5030.69297,4036.91574 5032.46154,4036.14261 5034.07923,4034.86961 L5034.76243,4034.2904 C5035.56087,4033.55607 5036.80525,4032.76723 5037.47441,4031.91199 C5038.12484,4031.08127 5038.26445,4030.13381 5038.93446,4029.31353 C5039.52712,4028.58587 5040.59456,4028.20136 5041.14451,4027.44327 C5041.65993,4026.72902 5041.32677,4026.24559 5041.84219,4025.53134 C5043.30448,4023.50506 5045.12182,4024.03003 5043.59457,4021.71009 C5042.37596,4019.85483 5040.673,4019.04311 5038.96828,4017.88081 L5040.74165,4015.93932 L5040.74165,4015.93932 C5039.52151,4014.16455 5038.92331,4014.07546 5040.15527,4011.96056 C5041.30003,4009.99821 5043.35904,4008.42218 5041.45567,4006.36183 C5042.31085,4005.39011 5042.66325,4004.25103 5043.39383,4003.22309 C5044.83497,4001.19033 5047.0737,3999.64386 5048.33762,3997.35472 C5049.88501,3994.55001 5049.36973,3990.82878 5049.95272,3987.82581 C5050.20331,3986.52831 5051.13052,3984.25912 5050.97543,3982.78593 C5050.83489,3981.47061 5050.26695,3981.13736 5049.60141,3979.95029 C5048.42037,3977.83918 5047.92096,3975.14742 5046.86859,3972.9383 C5045.70594,3970.50608 5044.2583,3968.22772 5042.92864,3965.88654 L5042.14823,3964.47255 C5041.34986,3962.97638 5040.19575,3961.55557 5040.11801,3959.9132 C5039.2145,3960.34659 5038.7474,3960.95862 5038.00419,3961.61258 C5036.56879,3962.86947 5034.9729,3963.70434 5033.32403,3964.62775 C5031.01547,3965.9181 5027.62381,3966.86699 5025.93589,3969.02244 C5025.94861,3967.2935 5027.74489,3966.27307 5028.07971,3964.72619 C5028.67953,3961.96581 5025.82753,3964.09516 5024.581,3962.2089 C5026.07428,3960.07816 5028.79258,3958.21977 5030.76417,3956.46727 C5032.74215,3954.70925 5034.46368,3952.61483 5035.72547,3950.3479 L5036.09001,3949.66281 C5037.8984,3946.10501 5040.62309,3942.53614 5043.21609,3939.40487 C5045.16415,3937.05087 5046.33311,3934.29347 5048.10974,3931.80292 C5049.69067,3929.58814 5052.03926,3928.32809 5050.49621,3925.9254 C5049.88795,3924.97769 5048.85536,3924.26153 5048.15226,3923.38136 C5046.794,3921.67993 5045.97859,3919.61215 5045.17065,3917.5555 C5044.08869,3914.80903 5043.70766,3912.65122 5041.72787,3910.53718 C5040.07601,3908.77605 5039.6473,3906.45191 5038.52009,3904.28721 C5034.2473,3907.45043 5028.46667,3907.83915 5023.87238,3910.49936 L5023.02551,3911.026 Z" id="Shape"></path>
        </g>
    </g>
</svg>