<?xml version="1.0" encoding="UTF-8"?>
<svg width="310px" height="278px" viewBox="0 0 310 278" version="1.1" xmlns="http://www.w3.org/2000/svg" xmlns:xlink="http://www.w3.org/1999/xlink">
    <title>Shape 27</title>
    <g id="Page-1" stroke="none" stroke-width="1" fill="none" fill-rule="evenodd">
        <g id="Desktop-HD" transform="translate(-2933.000000, -3292.000000)" fill="#000000">
            <path d="M3013.69072,3525 C3013.69072,3525 3010.36175,3546.62017 3032,3570 L3031.96462,3569.98418 C3030.81822,3569.46672 3002.27238,3556.21812 3013.69072,3525 Z M3135.42121,3295.11501 C3144.57146,3295.26377 3153.71676,3295.61086 3162.8637,3295.90671 C3165.96831,3296.00753 3169.06962,3296.24223 3172.17257,3296.37942 C3179.65239,3296.70667 3186.83479,3298.33304 3193.85362,3300.93622 C3201.98112,3303.95426 3207.19237,3309.74241 3210.77614,3317.44121 C3214.66722,3325.80445 3217.07127,3334.62882 3219.22418,3343.52095 C3221.25812,3351.91228 3222.9963,3360.37799 3223.98931,3368.97923 C3225.59532,3382.90584 3226.13561,3396.87872 3225.97203,3410.88466 C3225.89438,3417.62318 3225.80846,3424.36004 3225.64984,3431.09691 C3225.43835,3440.10144 3224.52465,3449.02828 3222.44775,3457.80637 C3220.45346,3466.23406 3216.57559,3473.58247 3210.30689,3479.69953 C3206.80078,3483.1192 3203.00222,3485.96535 3198.59728,3488.09748 C3191.24139,3491.65433 3183.60296,3494.22446 3175.52172,3495.56158 C3166.31033,3497.08713 3157.03285,3497.88709 3147.75372,3498.82589 C3132.44382,3500.37292 3117.06783,3500.61919 3101.73975,3501.74641 C3091.40812,3502.50505 3081.07319,3503.24882 3070.73827,3503.96614 C3062.80078,3504.51983 3056.24128,3507.59571 3050.76401,3513.55741 C3043.81788,3521.11903 3039.15684,3529.83431 3036.27859,3539.55947 C3035.35002,3542.69816 3035.06252,3546.00709 3035.41611,3549.32429 C3035.65403,3551.54236 3035.79943,3553.77366 3035.98449,3556 C3032.91788,3554.21496 3031.41927,3551.57707 3029.84797,3548.98381 C3026.76319,3543.8948 3025.29102,3538.16284 3024.06008,3532.50361 C3022.85888,3526.97991 3022.768,3521.20663 3022.33015,3515.53087 C3022.22606,3514.19044 3024.10964,3505.91646 3016.0945,3506.07513 C3008.32389,3506.06686 3000.54997,3506.2338 2992.78597,3505.99744 C2981.6563,3505.65862 2970.81248,3503.83226 2960.75182,3498.67052 C2957.77774,3497.14332 2953.51489,3493.27905 2951.78001,3490.38166 C2949.83364,3487.13389 2947.95006,3483.84479 2945.94586,3480.63337 C2943.26423,3476.33936 2941.76563,3471.55943 2940.10345,3466.8423 C2939.01295,3463.74823 2938.28595,3460.64756 2938.14716,3457.27582 C2937.97863,3453.16858 2936.79891,3449.11092 2936.21401,3445.00864 C2935.16812,3437.66849 2933.70256,3430.33331 2933.37872,3422.95515 C2932.75912,3408.81699 2932.89956,3394.66891 2933.8017,3380.5076 C2934.39652,3371.18574 2936.11487,3362.04733 2937.06823,3352.79323 C2937.70105,3346.65799 2939.73334,3340.63845 2942.82969,3335.17259 C2945.8682,3329.80756 2950.3095,3325.79949 2955.45135,3322.41122 C2963.6499,3317.00652 2972.76215,3313.82982 2982.07928,3311.21672 C2991.04944,3308.70279 3000.12865,3306.57562 3009.16985,3304.31622 C3010.67176,3303.94269 3012.21828,3303.72121 3013.75489,3303.50469 C3024.01051,3302.06179 3034.28265,3300.71309 3044.52836,3299.19416 C3057.8605,3297.21739 3071.24551,3295.77283 3084.70983,3295.2555 C3092.46062,3294.958 3100.22627,3295.03403 3107.98532,3295.01584 C3117.13061,3295 3126.27756,3294.96626 3135.42121,3295.11501 Z M3210.56299,3450.17037 C3210.11358,3450.65465 3209.64764,3451.20503 3209.43284,3451.81327 C3208.57366,3454.22968 3207.71118,3456.65601 3207.03045,3459.12697 C3205.77968,3463.67551 3202.98735,3467.09849 3199.21027,3469.67687 C3195.24152,3472.38749 3191.05964,3474.78572 3187.0248,3477.40212 C3186.22841,3477.9178 3184.91155,3477.8021 3184.68354,3479.1194 C3189.93114,3478.73264 3197.47539,3475.85013 3202.42723,3473.00729 C3210.21602,3468.53313 3212.45649,3461.25083 3213.17853,3453.08098 C3213.24958,3452.2711 3212.98522,3451.40007 3212.74564,3450.59845 C3212.51928,3449.84146 3211.11816,3449.57206 3210.56299,3450.17037 Z M3243,3376 L3239.21053,3438 L3235,3376 L3243,3376 Z M3033.38382,3313.50917 C3029.44481,3313.94386 3025.51407,3314.49259 3021.60316,3315.13884 C3017.86242,3315.7603 3014.13987,3316.50903 3010.43383,3317.3156 C2997.23222,3320.19149 2984.40237,3324.10866 2972.79685,3331.27361 C2965.97629,3335.48497 2959.88438,3340.62688 2955.39352,3347.28441 C2950.82666,3354.05598 2947.75179,3361.58124 2946.07474,3369.61391 C2945.84672,3370.70642 2946.04334,3371.88984 2946.04334,3373.05011 C2948.18138,3373.10465 2948.31852,3371.48655 2948.78776,3370.2833 C2950.41029,3366.11656 2951.8428,3361.87214 2953.56777,3357.74506 C2957.31015,3348.79177 2963.91096,3342.42018 2972.20368,3337.66999 C2976.39714,3335.26846 2980.90452,3333.49003 2985.21363,3331.35294 C2993.50471,3327.24074 3002.30138,3324.8045 3011.19883,3322.83269 C3021.79647,3320.4857 3032.55108,3318.85933 3043.23463,3316.89909 C3048.47232,3315.93881 3053.70174,3314.93059 3058.93447,3313.94386 L3058.97082,3312.88937 C3057.04758,3312.21171 3055.0186,3312.1737 3052.9797,3312.08114 C3046.38881,3311.77702 3039.8954,3312.78689 3033.38382,3313.50917 Z M2934,3333 C2938.15385,3290.4399 2988,3301.21839 2988,3301.21839 C2941.19945,3305.08704 2934,3333 2934,3333 Z M3196,3292 C3221.8179,3296.84235 3218.9739,3319.08489 3218.84981,3319.97266 L3218.84588,3320 C3217.40515,3302.70588 3196,3292 3196,3292 Z" id="Shape-27"></path>
        </g>
    </g>
</svg>