<?xml version="1.0" encoding="UTF-8"?>
<svg width="426px" height="275px" viewBox="0 0 426 275" version="1.1" xmlns="http://www.w3.org/2000/svg" xmlns:xlink="http://www.w3.org/1999/xlink">
    <title>Shape 7</title>
    <g id="Page-1" stroke="none" stroke-width="1" fill="none" fill-rule="evenodd">
        <g id="Desktop-HD" transform="translate(-2682.000000, -2134.000000)" fill="#000000">
            <path d="M2819,2134 L2819,2340.25 C2819,2378.21958 2788.33151,2409 2750.5,2409 C2712.66849,2409 2682,2378.21958 2682,2340.25 L2682,2134 L2819,2134 Z M2964,2134 L2964,2340.25 C2964,2378.21958 2933.33151,2409 2895.5,2409 C2857.66849,2409 2827,2378.21958 2827,2340.25 L2827,2134 L2964,2134 Z M3108,2134 L3108,2340.25 C3108,2378.21958 3077.33151,2409 3039.5,2409 C3001.66849,2409 2971,2378.21958 2971,2340.25 L2971,2134 L3108,2134 Z" id="Shape-7"></path>
        </g>
    </g>
</svg>