<?xml version="1.0" encoding="UTF-8"?>
<svg width="426px" height="358px" viewBox="0 0 426 358" version="1.1" xmlns="http://www.w3.org/2000/svg" xmlns:xlink="http://www.w3.org/1999/xlink">
    <title>Shape 2</title>
    <g id="Page-1" stroke="none" stroke-width="1" fill="none" fill-rule="evenodd">
        <g id="Desktop-HD" transform="translate(-1990.000000, -1069.000000)" fill="#000000">
            <path d="M2367.96995,1083.03249 C2386.48541,1101.54768 2386.67534,1131.45647 2368.5361,1150.20537 L2367.96995,1150.78095 L2105.77952,1412.96751 C2087.06926,1431.6775 2056.74031,1431.6775 2038.03005,1412.96751 C2019.51459,1394.45232 2019.32466,1364.54353 2037.4639,1345.79463 L2038.03005,1345.21905 L2038.03005,1345.21905 L2300.22048,1083.03249 C2318.93074,1064.3225 2349.25969,1064.3225 2367.96995,1083.03249 Z M2401.97352,1202.02664 C2420.48354,1220.5347 2420.67424,1250.4328 2402.54138,1269.1755 L2401.97528,1269.75104 L2401.97528,1269.75104 L2286.75451,1384.9716 C2268.05063,1403.67545 2237.73132,1403.67623 2219.02648,1384.97336 C2200.51646,1366.4653 2200.32576,1336.5672 2218.45862,1317.8245 L2219.02472,1317.24896 L2219.02472,1317.24896 L2334.24549,1202.0284 C2352.94937,1183.32455 2383.26868,1183.32377 2401.97352,1202.02664 Z M2187.94061,1111.05952 C2206.49404,1129.61096 2206.68521,1159.57917 2188.50983,1178.36583 L2187.9424,1178.94272 L2187.9424,1178.94272 L2071.94627,1294.93869 C2053.19853,1313.6864 2022.80811,1313.6872 2004.05939,1294.94048 C1985.50596,1276.38904 1985.31479,1246.42083 2003.49017,1227.63417 L2004.0576,1227.05728 L2004.0576,1227.05728 L2120.05373,1111.06131 C2138.80147,1092.3136 2169.19189,1092.3128 2187.94061,1111.05952 Z" id="Shape-2"></path>
        </g>
    </g>
</svg>