<?xml version="1.0" encoding="UTF-8"?>
<svg width="426px" height="244px" viewBox="0 0 426 244" version="1.1" xmlns="http://www.w3.org/2000/svg" xmlns:xlink="http://www.w3.org/1999/xlink">
    <title>Shape 1</title>
    <g id="Page-1" stroke="none" stroke-width="1" fill="none" fill-rule="evenodd">
        <g id="Desktop-HD" transform="translate(-594.000000, -1157.000000)" fill="#000000">
            <path d="M689.275,1196 C693.5414,1196 697,1199.44181 697,1203.6875 L697,1393.3125 C697,1397.55819 693.5414,1401 689.275,1401 L601.725,1401 C597.4586,1401 594,1397.55819 594,1393.3125 L594,1203.6875 C594,1199.44181 597.4586,1196 601.725,1196 L689.275,1196 Z M904.275,1196 C908.5414,1196 912,1199.44181 912,1203.6875 L912,1393.3125 C912,1397.55819 908.5414,1401 904.275,1401 L816.725,1401 C812.4586,1401 809,1397.55819 809,1393.3125 L809,1203.6875 C809,1199.44181 812.4586,1196 816.725,1196 L904.275,1196 Z M797.275,1157 C801.5414,1157 805,1160.44181 805,1164.6875 L805,1354.3125 C805,1358.55819 801.5414,1362 797.275,1362 L709.725,1362 C705.4586,1362 702,1358.55819 702,1354.3125 L702,1164.6875 C702,1160.44181 705.4586,1157 709.725,1157 L797.275,1157 Z M1012.275,1157 C1016.5414,1157 1020,1160.44181 1020,1164.6875 L1020,1354.3125 C1020,1358.55819 1016.5414,1362 1012.275,1362 L924.725,1362 C920.4586,1362 917,1358.55819 917,1354.3125 L917,1164.6875 C917,1160.44181 920.4586,1157 924.725,1157 L1012.275,1157 Z" id="Shape-1"></path>
        </g>
    </g>
</svg>