<?xml version="1.0" encoding="UTF-8"?>
<svg width="309px" height="278px" viewBox="0 0 309 278" version="1.1" xmlns="http://www.w3.org/2000/svg" xmlns:xlink="http://www.w3.org/1999/xlink">
    <title>Shape 30</title>
    <g id="Page-1" stroke="none" stroke-width="1" fill="none" fill-rule="evenodd">
        <g id="Desktop-HD" transform="translate(-4327.000000, -3387.000000)" fill="#000000">
            <path d="M4500.82539,3397 C4503.30363,3397 4505.89504,3397.23034 4508.74732,3397.70445 C4512.32849,3398.30909 4515.89623,3399.23236 4519.35273,3400.44931 C4523.15257,3401.78911 4526.6877,3403.37844 4529.86223,3405.17507 C4533.39161,3407.17901 4536.499,3409.39985 4539.09617,3411.77617 C4541.97913,3414.40778 4544.27323,3417.2179 4545.91708,3420.12592 C4547.73164,3423.34105 4548.83074,3426.7059 4549.18751,3430.12834 C4549.38125,3432.02863 4549.3659,3433.89053 4549.14148,3435.65837 C4548.95158,3437.169 4548.72908,3438.31493 4548.4145,3439.37257 C4548.33202,3439.65857 4548.24187,3439.93689 4548.11527,3440.19218 C4550.77382,3438.20552 4553.6376,3436.7352 4556.62607,3435.81769 C4559.29612,3435.00191 4562.10045,3434.5873 4564.96423,3434.5873 C4566.10937,3434.5873 4567.26984,3434.6564 4568.41114,3434.78884 C4572.38361,3435.24568 4576.33306,3436.3609 4580.15017,3438.10571 C4583.99796,3439.86203 4587.61174,3442.08095 4590.89177,3444.70681 C4597.67624,3450.13318 4602.86289,3456.75348 4605.89164,3463.84788 C4607.23242,3466.99199 4608.33535,3470.3626 4609.17358,3473.8695 C4610.06168,3477.62784 4610.62753,3481.37275 4610.85963,3484.99865 C4611.12241,3489.13706 4611.01692,3492.8359 4610.53738,3496.31016 C4609.98687,3500.32188 4609.07384,3503.76927 4607.7484,3506.85004 C4606.25609,3510.29935 4604.33027,3513.26878 4602.0285,3515.67198 C4599.84949,3517.94464 4597.27534,3519.79694 4594.38279,3521.14826 C4595.7063,3522.10416 4596.87062,3523.46123 4597.75296,3525.07552 C4598.93454,3527.24837 4599.7344,3529.75522 4600.19859,3532.73809 C4600.6436,3535.66338 4600.80089,3538.71536 4600.66278,3541.80572 C4600.54578,3544.69071 4600.22737,3547.48355 4599.71906,3550.10173 C4599.39873,3551.73329 4599.07456,3553.03469 4598.69861,3554.19022 C4598.12316,3555.95807 4597.32713,3557.75662 4596.3297,3559.53214 C4594.10465,3563.50355 4591.13921,3566.95478 4587.512,3569.78793 C4583.94425,3572.5827 4579.8893,3574.69029 4575.46606,3576.05888 C4574.40725,3576.38519 4573.24486,3576.68655 4571.91366,3576.98983 C4570.66112,3577.27391 4569.40857,3577.55224 4568.15027,3577.76146 C4566.90731,3577.97068 4565.4361,3578.18951 4563.9668,3578.2183 L4563.9668,3578.2183 L4563.48535,3578.22406 C4562.96553,3578.22406 4562.45147,3578.20294 4561.95851,3578.12616 C4565.14262,3582.65038 4567.89899,3587.67175 4570.15089,3593.05397 C4572.69051,3599.10418 4574.52809,3605.3521 4575.61376,3611.62304 C4577.36503,3621.71568 4577.3094,3631.36684 4575.4488,3640.30202 C4574.45712,3645.07578 4572.96864,3649.58848 4571.02748,3653.71345 C4570.50191,3654.82099 4569.94757,3655.91893 4569.34911,3656.98808 C4568.8408,3657.91135 4568.22316,3658.98434 4567.47317,3659.99207 C4566.57931,3661.22438 4565.82164,3662.09774 4565.01219,3662.82907 C4564.0723,3663.66596 4563.14392,3664.33394 4562.17717,3664.87139 C4562.02564,3664.95585 4561.85301,3665 4561.68037,3665 C4561.32935,3665 4561.01478,3664.82341 4560.84023,3664.52589 C4560.6465,3664.2015 4560.66568,3663.76961 4560.88435,3663.45866 L4560.88435,3663.45866 L4561.26606,3662.45861 C4561.78395,3660.3395 4562.1062,3658.20887 4562.22321,3656.11856 L4562.22321,3656.11856 C4562.3383,3653.20862 4562.08702,3650.31212 4561.48281,3647.50776 L4561.48281,3647.50776 C4560.53333,3643.40391 4558.93551,3639.21368 4556.61456,3634.72977 C4553.81791,3629.4128 4550.27702,3624.41255 4546.08971,3619.86338 L4546.08971,3619.86338 C4542.19972,3615.70002 4537.92034,3612.12019 4533.41079,3609.24673 C4533.39545,3609.23521 4533.38202,3609.22753 4533.36667,3609.21985 L4533.36667,3609.21985 L4533.36667,3609.22177 L4533.35517,3609.21409 C4529.6052,3606.87233 4525.72288,3605.03922 4521.82905,3603.76468 C4518.44736,3602.69937 4515.02156,3602.04867 4511.46341,3601.82217 C4510.83617,3601.7953 4510.2051,3601.78378 4509.57212,3601.78378 L4509.57212,3601.78378 L4509.19808,3601.76842 C4508.49988,3614.23546 4499.53448,3623.18025 4494.25,3627.40119 C4490.73788,3630.22666 4486.92077,3632.59147 4482.90994,3634.43801 C4478.84156,3636.29607 4474.85374,3637.53029 4471.05965,3638.10422 C4469.01683,3638.41517 4466.91838,3638.57065 4464.82569,3638.57065 C4462.733,3638.57065 4460.62496,3638.41517 4458.55528,3638.10422 C4454.37181,3637.47463 4450.33029,3636.29415 4446.54004,3634.5954 C4442.62895,3632.8506 4439.05545,3630.65279 4435.91928,3628.06149 C4432.57788,3625.30319 4429.77739,3622.24738 4427.59838,3618.9785 C4425.23715,3615.4313 4423.51657,3611.67103 4422.48461,3607.79944 C4421.92835,3605.70336 4421.56391,3603.60921 4421.4047,3601.58031 C4421.22439,3599.16177 4421.25317,3596.82768 4421.39895,3594.67594 C4421.31263,3594.68937 4421.22248,3594.70281 4421.13424,3594.70665 C4420.88872,3594.72968 4420.6432,3594.7412 4420.39768,3594.7412 C4420.22121,3594.7412 4420.04282,3594.73544 4419.86443,3594.722 C4419.03579,3594.67594 4418.22442,3594.50894 4417.44757,3594.22678 C4415.99554,3593.68932 4414.67394,3592.76797 4413.62471,3591.56446 C4412.56782,3590.34751 4411.83509,3588.90789 4411.509,3587.4011 C4411.32678,3586.58148 4411.26924,3585.74651 4411.33445,3584.92113 C4411.35747,3584.70615 4411.38049,3584.48925 4411.44379,3584.29154 C4410.89712,3584.53147 4410.3351,3584.75605 4409.77308,3584.97487 C4406.40483,3586.24557 4402.99245,3586.98265 4399.62995,3587.16116 C4399.04108,3587.19572 4398.45029,3587.21299 4397.8595,3587.21299 C4395.16451,3587.21299 4392.50788,3586.88476 4389.96635,3586.24173 C4383.93571,3584.71958 4378.1832,3581.51597 4373.3303,3576.97831 C4368.58289,3572.53855 4364.75428,3567.0162 4362.25878,3561.0063 C4359.69422,3554.83709 4358.61047,3548.35692 4359.12453,3542.26064 C4359.40266,3538.99176 4360.12197,3535.85917 4361.27093,3532.94923 C4362.47553,3529.87806 4364.15007,3527.02187 4366.24851,3524.4728 C4368.50041,3521.72026 4371.22418,3519.2806 4374.34499,3517.22676 C4377.83793,3514.91762 4381.69148,3513.30525 4385.48173,3512.59697 C4384.93506,3512.34743 4384.40181,3512.06911 4383.87624,3511.77735 C4382.33406,3510.90974 4380.90696,3509.91161 4379.63139,3508.81367 C4377.08218,3506.60242 4374.93194,3503.9305 4373.24398,3500.87469 C4371.5752,3497.84191 4370.32648,3494.56535 4369.53429,3491.13716 C4368.73443,3487.69553 4368.32586,3484.24622 4368.31819,3480.88328 C4368.31244,3476.73912 4368.79389,3472.81954 4369.75104,3469.23395 C4370.8674,3465.08019 4372.55153,3461.08959 4374.75739,3457.37539 C4377.02847,3453.54794 4379.73114,3450.0065 4382.78482,3446.85279 C4385.96702,3443.56855 4389.44269,3440.67397 4393.11402,3438.24967 C4400.91894,3433.09586 4409.43933,3429.93447 4417.75831,3429.10718 C4419.35996,3428.95362 4420.84077,3428.88068 4422.28705,3428.88068 C4425.14124,3428.88068 4427.94557,3429.16476 4430.62137,3429.72141 C4433.44872,3430.32029 4435.84831,3431.09192 4437.96211,3432.07661 C4439.83421,3432.9423 4441.59507,3434.01337 4443.16411,3435.26871 C4443.48636,3433.73313 4444.04645,3432.29927 4444.83097,3431.00554 C4446.00296,3429.05343 4447.45116,3427.48713 4449.1372,3426.3508 C4450.09052,3425.71353 4451.04767,3425.24326 4451.98181,3424.95342 C4452.93896,3424.65974 4453.83857,3424.51002 4454.81299,3424.51002 C4455.89482,3424.52537 4456.9498,3424.72884 4457.95107,3425.11849 C4458.41718,3425.3066 4458.88137,3425.51582 4459.28034,3425.79415 C4460.26243,3411.18113 4474.96499,3402.23251 4488.39774,3398.73329 C4492.10935,3397.76587 4495.66942,3397.19771 4498.98205,3397.04415 C4499.59586,3397.01536 4500.20966,3397 4500.82539,3397 Z M4413.98072,3608 C4414.45648,3608 4414.8921,3608.36163 4414.94751,3608.84829 C4415.10992,3610.27749 4415.36977,3611.68938 4415.72324,3613.07626 C4416.5238,3616.04622 4417.7256,3618.86423 4419.21591,3621.54374 C4421.34055,3625.24658 4423.99444,3628.59933 4426.97124,3631.63278 C4428.56854,3633.21779 4430.24609,3634.73355 4432.04592,3636.08773 C4433.70246,3637.33419 4435.42969,3638.47486 4437.2085,3639.51935 C4440.85402,3641.58332 4444.72691,3643.26643 4448.7622,3644.37632 C4451.87848,3645.16113 4455.06353,3645.63048 4458.27533,3645.66702 C4460.95215,3645.63048 4463.60796,3645.27462 4466.20071,3644.60715 C4468.23747,3644.01854 4470.22072,3643.24527 4472.12373,3642.30273 C4472.75042,3641.98727 4473.60257,3642.03728 4474.24455,3642.29503 C4474.93812,3642.57972 4475.50558,3643.14332 4475.78836,3643.8435 C4476.0654,3644.52443 4476.07304,3645.29962 4475.796,3645.97479 C4475.49794,3646.72883 4474.9534,3647.17701 4474.25984,3647.54056 C4471.73587,3648.8255 4469.04185,3649.7488 4466.26567,3650.3201 C4463.63089,3650.85869 4460.9598,3651.04913 4458.27151,3650.9895 C4453.01722,3650.87601 4447.79351,3649.58145 4442.96529,3647.50209 C4438.96439,3645.78051 4435.17366,3643.44532 4431.77652,3640.71003 C4428.39658,3637.99782 4425.20962,3634.94706 4422.54426,3631.51352 C4417.52116,3625.04845 4413.93869,3617.31192 4413.00629,3609.11374 C4412.94706,3608.58091 4413.312,3608.07694 4413.84889,3608.00962 C4413.89283,3608.00385 4413.93678,3608 4413.98072,3608 Z M4511.16656,3635 C4511.71685,3635 4512.21158,3635.15902 4512.63282,3635.47171 C4513.10963,3635.81477 4513.49143,3636.34187 4513.76747,3637.03693 C4513.93238,3637.45861 4514.01125,3637.84455 4513.99871,3638.18046 C4513.96823,3638.98273 4513.63841,3639.69029 4513.09529,3640.12091 C4512.7332,3640.405 4512.40876,3640.59619 4512.04847,3640.73734 C4511.76346,3640.84634 4511.46053,3640.91959 4511.06259,3640.96962 C4510.90127,3640.99107 4510.73277,3641 4510.56428,3641 C4510.01398,3641 4509.51387,3640.88029 4509.11952,3640.65158 C4508.60866,3640.35676 4508.24478,3639.88684 4508.12648,3639.36689 C4508.05299,3639.23824 4508.01176,3639.08815 4508.00459,3638.93448 C4507.94185,3637.68195 4508.52621,3636.42228 4509.53001,3635.64503 C4509.90643,3635.35021 4510.49616,3635 4511.16656,3635 Z M4501.0876,3629 C4501.19474,3629 4501.30915,3629.00738 4501.42356,3629.02214 C4501.77588,3629.05718 4502.11729,3629.16232 4502.43692,3629.32649 C4503.02532,3629.62163 4503.48115,3630.1086 4503.75719,3630.73207 C4504.03867,3631.37399 4504.07681,3632.17639 4503.86433,3632.87918 C4503.58829,3633.79963 4503.03622,3634.67028 4502.26258,3635.40258 C4501.70687,3635.93014 4501.22743,3636.28799 4500.75526,3636.52963 C4500.27401,3636.78234 4499.81273,3636.93175 4499.38596,3636.97602 C4499.24975,3636.99078 4499.10992,3637 4498.96827,3637 C4498.61777,3637 4498.32357,3636.94835 4498.06569,3636.83952 C4497.5572,3636.63293 4497.19217,3636.38944 4496.91613,3636.07033 C4496.64373,3635.76412 4496.43306,3635.42472 4496.28778,3635.06318 C4495.95726,3634.21835 4495.91004,3633.29237 4496.15339,3632.45861 C4496.29686,3631.95873 4496.48573,3631.55107 4496.71637,3631.24118 C4497.03781,3630.79848 4497.38467,3630.44801 4497.81326,3630.1418 C4498.19826,3629.8688 4498.64138,3629.65299 4499.15714,3629.49251 C4499.55303,3629.30251 4499.93985,3629.12728 4500.33212,3629.07194 C4500.58092,3629.02951 4500.82972,3629 4501.0876,3629 Z M4513.67948,3618 C4514.3871,3618 4515.03368,3618.15296 4515.60207,3618.44713 C4516.22195,3618.78051 4516.74456,3619.25705 4517.15082,3619.86499 C4517.97861,3621.08086 4518.22274,3622.79092 4517.78787,3624.33037 C4517.59714,3625.01478 4517.34728,3625.61487 4517.04783,3626.12083 C4516.76364,3626.59541 4516.43557,3627.04058 4516.08462,3627.4779 C4515.44948,3628.29175 4514.92306,3628.86634 4514.37756,3629.35073 C4513.65087,3629.99004 4512.53508,3630.85488 4511.25144,3630.98039 C4511.10839,3630.99216 4510.96344,3631 4510.81657,3631 C4510.41031,3631 4510.06699,3630.93725 4509.76754,3630.80978 C4509.27545,3630.59406 4508.91496,3630.35677 4508.59834,3630.03907 C4507.98991,3629.42721 4507.52833,3628.54277 4507.26893,3627.48574 C4507.18501,3627.14059 4507.11825,3626.77191 4507.08392,3626.41499 C4507.0267,3626.27772 4507,3626.13456 4507,3625.99532 L4507,3625.99532 L4507.01717,3625.99532 L4507.02098,3625.62076 C4507.00572,3625.19716 4507.02861,3624.77749 4507.07439,3624.36174 C4507.22125,3623.10861 4507.52833,3622.09474 4508.0147,3621.25932 C4508.3275,3620.72394 4508.64794,3620.31407 4508.99507,3620.00422 C4509.42613,3619.61789 4509.82094,3619.35707 4510.2005,3619.21391 C4510.34165,3619.159 4510.4847,3619.11193 4510.62012,3619.06879 C4510.79178,3618.94524 4510.97297,3618.8315 4511.15226,3618.72364 C4512.01056,3618.26475 4512.78303,3618.02746 4513.51545,3618 L4513.51545,3618 Z M4405.236,3601 C4405.58164,3601.02452 4405.91157,3601.34701 4405.86051,3601.70156 C4405.53647,3603.8496 4405.41667,3606.00519 4405.52862,3608.16832 C4405.69555,3610.50873 4406.106,3612.79444 4406.84441,3615.01981 C4407.25683,3616.20415 4407.72423,3617.37341 4408.30554,3618.48987 C4408.80436,3619.44414 4409.35425,3620.36823 4409.9552,3621.26592 C4411.28671,3623.18388 4412.85585,3624.90006 4414.61352,3626.45404 C4414.91006,3626.71995 4415.02789,3627.21217 4414.99451,3627.58181 C4414.96505,3627.98539 4414.75688,3628.36069 4414.4348,3628.6266 C4414.12255,3628.89251 4413.69049,3629.02453 4413.26826,3628.99624 C4412.81853,3628.95852 4412.4886,3628.7605 4412.18027,3628.46441 C4411.19833,3627.53655 4410.28513,3626.54833 4409.47994,3625.47337 C4408.75134,3624.50779 4408.06005,3623.50071 4407.46893,3622.43895 C4406.90137,3621.40736 4406.39665,3620.3456 4405.98227,3619.248 C4405.56789,3618.16549 4405.19083,3617.06224 4404.91589,3615.93258 C4403.78666,3611.22537 4403.76309,3606.35597 4404.50936,3601.59783 C4404.55846,3601.26403 4404.81769,3601 4405.17905,3601 L4405.17905,3601 Z M4356.20891,3498 C4358.18227,3498 4360.04297,3498.46414 4361.59097,3499.34599 C4362.82821,3500.0538 4363.81877,3500.95306 4364.53936,3502.01864 C4365.29879,3503.11902 4365.76494,3504.39153 4365.93197,3505.79747 C4366.11843,3507.37359 4365.92032,3509.09669 4365.35317,3510.77338 C4364.62288,3512.92387 4363.45168,3514.85584 4361.9736,3516.36621 C4361.10735,3517.25387 4360.23138,3517.96554 4359.36706,3518.48383 C4358.37844,3519.07173 4357.48305,3519.46624 4356.63038,3519.68671 C4355.84376,3519.89557 4355.05714,3520 4354.29382,3520 C4354.0219,3520 4353.74804,3519.9884 4353.47612,3519.95745 C4352.45254,3519.86076 4351.43672,3519.56101 4350.53939,3519.09687 C4348.6107,3518.08351 4347.04911,3516.49191 4346.25277,3514.72627 C4345.79051,3513.71484 4345.51082,3512.85619 4345.37098,3512.02848 C4345.33213,3511.87764 4345.29523,3511.72486 4345.26415,3511.57402 C4345,3510.31698 4344.93396,3509.12764 4345.06604,3508.03885 C4345.22142,3506.79923 4345.44867,3505.82841 4345.7808,3504.98136 C4346.12458,3504.11691 4346.44117,3503.47873 4346.80632,3502.9179 C4347.67064,3501.61058 4348.72724,3500.55468 4349.94699,3499.77532 C4351.11819,3499.0327 4352.41369,3498.50475 4353.69365,3498.24754 C4354.50941,3498.08316 4355.35625,3498 4356.20891,3498 Z M4628.42796,3492 C4629.06311,3492 4629.67115,3492.07924 4630.23465,3492.23583 C4631.19319,3492.49618 4631.96002,3492.832 4632.57774,3493.26403 C4633.22451,3493.71871 4633.74347,3494.19413 4634.16174,3494.71861 C4635.9239,3496.92029 4636.45836,3500.24828 4635.59471,3503.62343 C4635.16482,3505.30441 4634.50449,3506.7703 4633.6331,3507.98528 C4633.24,3508.53052 4632.70361,3509.22856 4632.04135,3509.80775 C4631.4062,3510.36431 4630.82527,3510.77559 4630.26757,3511.05669 C4629.03213,3511.67362 4627.66888,3512 4626.32499,3512 C4624.82619,3512 4623.45713,3511.58306 4622.36498,3510.79634 C4619.82631,3508.97953 4619.19891,3505.92133 4619.05174,3504.26111 C4618.93168,3502.93104 4619.02075,3501.58966 4619.31703,3500.27658 C4619.63267,3498.87294 4620.13227,3497.63532 4620.80228,3496.59957 C4621.57685,3495.39402 4622.50247,3494.44505 4623.55395,3493.77908 C4623.7747,3493.63947 4624.00901,3493.50552 4624.24138,3493.38855 C4624.4389,3493.24139 4624.64997,3493.0999 4624.86298,3492.98293 C4625.70727,3492.49429 4626.57673,3492.18677 4627.45006,3492.06603 C4627.77732,3492.02264 4628.10264,3492 4628.42796,3492 Z M4332.87538,3470 C4333.83301,3470 4334.87465,3470.28292 4335.88828,3470.81838 C4336.92805,3471.37473 4337.77554,3472.11717 4338.40276,3473.02669 C4339.02625,3473.93432 4339.48173,3474.99955 4339.71881,3476.10466 C4339.93161,3477.08824 4340.02308,3477.96739 4339.99508,3478.78577 C4339.97268,3479.68011 4339.86441,3480.50988 4339.674,3481.25422 C4339.422,3482.21311 4339.10092,3483.00302 4338.69584,3483.6695 C4338.21796,3484.4518 4337.73821,3485.03284 4337.23232,3485.44678 C4336.49497,3486.0506 4335.77068,3486.45884 4335.01652,3486.69619 C4334.36316,3486.89746 4333.75835,3487 4333.21513,3487 L4333.21513,3487 L4332.98365,3486.9943 C4332.2351,3486.94493 4331.58174,3486.77974 4330.98626,3486.48732 C4330.44304,3486.22149 4329.93715,3485.86072 4329.52274,3485.43728 C4328.62298,3484.51826 4327.93416,3483.30303 4327.52721,3481.92829 C4327.096,3480.50609 4326.92426,3479.01742 4327.03066,3477.6199 C4327.1576,3475.96225 4327.51974,3474.61599 4328.1339,3473.50329 C4328.41764,3472.99631 4328.73685,3472.5444 4329.1382,3472.08489 C4329.38647,3471.7526 4329.64595,3471.41081 4329.96889,3471.13928 C4330.4113,3470.76902 4330.80705,3470.52217 4331.24946,3470.33609 C4331.69188,3470.14241 4332.18283,3470.03038 4332.77831,3470.0038 L4332.77831,3470.0038 Z M4623.84617,3469 C4624.61741,3469.05059 4625.34885,3469.26608 4626.02155,3469.63898 C4626.39296,3469.8451 4626.74163,3470.07183 4627.07703,3470.32854 C4627.42191,3470.59275 4627.72889,3470.83635 4627.98281,3471.13616 C4629.18799,3472.5659 4629.92133,3474.37414 4629.99334,3476.09619 C4630.03692,3477.15116 4629.86638,3478.04497 4629.48739,3478.75515 C4629.07809,3479.52717 4628.45465,3480.13991 4627.73079,3480.48282 C4627.35748,3480.65896 4626.9027,3480.85197 4626.3797,3480.94004 C4626.14472,3480.97939 4625.91544,3481 4625.68236,3481 C4625.53645,3481 4625.38865,3480.9925 4625.24084,3480.97564 C4624.5056,3480.88944 4623.81774,3480.61399 4623.1962,3480.16052 C4622.5235,3479.66771 4621.94176,3479.01749 4621.51161,3478.28107 C4621.29558,3477.9138 4621.10419,3477.53154 4620.94123,3477.13804 C4620.43718,3476.25172 4620.13209,3475.29419 4620.03545,3474.28982 C4619.96344,3473.55715 4620.00134,3472.86758 4620.14725,3472.24172 C4620.31022,3471.57277 4620.52434,3471.04997 4620.801,3470.6396 C4621.22547,3470.02873 4621.66131,3469.62024 4622.13314,3469.38976 C4622.6732,3469.13117 4623.19431,3469 4623.68131,3469 L4623.68131,3469 Z M4354.85916,3463 C4355.08802,3463 4355.29999,3463.01583 4355.52884,3463.04551 C4355.96778,3463.11477 4356.36359,3463.24735 4356.70687,3463.44325 C4357.13456,3463.69653 4357.46095,3463.95377 4357.70106,3464.22882 C4358.06497,3464.65228 4358.33885,3465.07969 4358.53956,3465.53085 C4358.72902,3465.95233 4358.85845,3466.40151 4358.93724,3466.90412 C4359.09106,3467.92912 4358.96162,3468.98777 4358.55457,3470.05235 C4358.34635,3470.60443 4358.06497,3471.13869 4357.6748,3471.70264 C4357.45345,3472.02518 4357.23022,3472.3497 4356.9601,3472.63465 C4356.42361,3473.1986 4355.88525,3473.5805 4355.31312,3473.79817 C4354.96233,3473.93074 4354.59655,3474 4354.22325,3474 C4353.98502,3474 4353.74867,3473.97032 4353.52169,3473.91491 C4353.02084,3473.79223 4352.54625,3473.53697 4352.06979,3473.13725 C4351.73026,3472.85033 4351.43013,3472.50998 4351.18252,3472.13204 C4350.93491,3471.90448 4350.72669,3471.63734 4350.5785,3471.3623 C4350.1358,3470.53715 4349.93321,3469.52995 4350.0195,3468.59795 C4350.12079,3467.52348 4350.3609,3466.64094 4350.75483,3465.90088 C4350.96117,3465.50513 4351.1919,3465.15686 4351.43763,3464.86994 C4351.82968,3464.41284 4352.23299,3464.04479 4352.63629,3463.77568 C4353.05836,3463.50063 4353.61361,3463.17413 4354.27203,3463.07124 C4354.46711,3463.03562 4354.66595,3463 4354.85916,3463 Z M4558.64887,3408 C4558.79678,3408 4558.94099,3408.05233 4559.05008,3408.1628 C4560.22044,3409.37407 4561.34087,3410.66093 4562.36517,3412.00786 C4563.42089,3413.37806 4564.40266,3414.83159 4565.19584,3416.38396 C4565.99827,3417.94408 4566.69161,3419.55653 4567.14644,3421.25812 C4567.60867,3422.98492 4567.92668,3424.75628 4567.99879,3426.55091 C4568.02837,3427.29318 4567.51437,3427.95211 4566.7933,3427.99669 C4566.07038,3428.04901 4565.48612,3427.47535 4565.41401,3426.73308 C4565.30123,3425.5877 4565.15147,3424.45395 4564.95549,3423.32407 C4564.38787,3420.40732 4563.48006,3417.57585 4562.20801,3414.91298 C4561.38155,3413.25402 4560.40163,3411.69003 4559.22572,3410.27526 L4559.22572,3410.27526 L4559.24606,3410.29658 L4559.21278,3410.25975 C4559.1869,3410.23068 4559.16286,3410.19774 4559.13698,3410.16867 L4559.13698,3410.16867 L4559.18875,3410.23262 C4558.87443,3409.87021 4558.54533,3409.51748 4558.21252,3409.16864 C4557.96662,3408.91088 4557.9167,3408.51746 4558.15521,3408.23063 C4558.27539,3408.0814 4558.46397,3408 4558.64887,3408 Z M4507.15223,3387 C4510.2258,3387 4513.30516,3387.33982 4516.32478,3387.90426 C4520.63164,3388.71444 4524.80938,3390.07947 4528.806,3391.87263 C4532.90088,3393.70994 4536.79922,3395.96003 4540.39116,3398.64401 C4542.21218,3400.00903 4543.95034,3401.49309 4545.61527,3403.04627 C4547.12026,3404.45545 4548.53468,3405.97215 4549.80651,3407.5906 C4552.26151,3410.70271 4554.42939,3414.15271 4555.72434,3417.91757 C4555.93439,3418.36874 4556.02496,3418.84871 4555.99412,3419.3498 C4555.94209,3419.58978 4555.89777,3419.82976 4555.84382,3420.06207 C4555.59523,3420.7897 4555.05374,3421.39062 4554.36195,3421.72084 C4553.69135,3422.04337 4552.90899,3422.08753 4552.20756,3421.84755 C4551.54659,3421.62292 4550.77772,3421.05272 4550.54455,3420.37117 C4549.6273,3417.69679 4548.36511,3415.1856 4546.83121,3412.81072 C4544.27793,3409.04202 4541.19472,3405.63617 4537.79355,3402.61238 C4537.9111,3402.71605 4538.0325,3402.81972 4538.14812,3402.91956 C4538.01516,3402.80244 4537.88219,3402.68533 4537.7473,3402.57206 C4537.7396,3402.56438 4537.73189,3402.5567 4537.72418,3402.55094 L4537.72418,3402.55094 L4537.72322,3402.54998 C4533.69481,3399.07598 4529.20103,3396.05026 4524.43169,3393.68306 C4522.50469,3392.75193 4520.51987,3391.93982 4518.50808,3391.21987 C4516.52519,3390.51144 4514.50376,3389.90668 4512.43801,3389.48623 C4509.63421,3388.95059 4506.77646,3388.73364 4503.92257,3388.88723 C4501.61979,3389.03506 4499.34207,3389.39984 4497.13565,3390.09483 C4496.78879,3390.2081 4496.44771,3390.32713 4496.10663,3390.45384 C4495.70774,3390.60551 4495.26453,3390.49224 4495.06797,3390.08715 C4494.90225,3389.73389 4495.04485,3389.20209 4495.43796,3389.06002 C4498.66569,3387.84474 4502.03795,3387.17087 4505.47766,3387.03456 C4506.03649,3387.01152 4506.59532,3387 4507.15223,3387 Z" id="Shape-30"></path>
        </g>
    </g>
</svg>