<?xml version="1.0" encoding="UTF-8"?>
<svg width="310px" height="244px" viewBox="0 0 310 244" version="1.1" xmlns="http://www.w3.org/2000/svg" xmlns:xlink="http://www.w3.org/1999/xlink">
    <title>Shape 24</title>
    <g id="Page-1" stroke="none" stroke-width="1" fill="none" fill-rule="evenodd">
        <g id="Desktop-HD" transform="translate(-3125.000000, -2858.000000)" fill="#000000">
            <path d="M3353.05673,2980 C3352.67566,2979.4598 3351.97419,2978.9026 3352.00073,2978.38109 C3352.02727,2977.90374 3352.84439,2977.45866 3353.31078,2977 C3353.79423,2977.46546 3354.27578,2977.93092 3355,2978.6325 C3354.15823,2979.22537 3353.60843,2979.61268 3353.05673,2980 M3353.8604,2998.51828 C3353.59706,2999.55253 3352.81606,3000.10776 3351.73565,2999.98256 C3350.65523,2999.85373 3350.01492,2999.10435 3350.00049,2998.06284 C3349.97704,2996.34272 3350.79231,2995.21229 3352.59421,2995 C3353.93255,2995.87095 3354.21392,2997.12113 3353.8604,2998.51828 M3347.46763,3016.92184 C3346.40959,3016.58298 3345.89261,3015.78619 3346.01862,3014.68718 C3346.06309,3014.32084 3346.291,3013.94718 3346.51706,3013.63579 C3346.95251,3013.035 3347.45095,3012.48 3348.66649,3011 C3349.34653,3013.05698 3349.90056,3014.10104 3349.99506,3015.1854 C3350.09698,3016.34119 3348.59979,3017.28268 3347.46763,3016.92184 M3343.09361,2948.47349 C3343.02294,2948.07278 3342.96302,2947.62776 3343.02754,2947.2386 C3343.12434,2946.64331 3343.33483,2946.07884 3343.6375,2945 C3344.49328,2945.90546 3345.37979,2946.48534 3345.81152,2947.40428 C3346.2709,2948.37524 3345.85915,2949.41748 3344.91733,2949.87021 C3344.07077,2950.27863 3343.30871,2949.69875 3343.09361,2948.47349 M3342.85133,3030.89663 C3342.09343,3031.14543 3341.2003,3030.87605 3340,3030.80496 C3340.34557,3029.51976 3340.4257,3028.50769 3340.8781,3027.79307 C3341.18861,3027.30481 3342.26037,3026.82964 3342.56754,3027.05974 C3343.2186,3027.54426 3343.80122,3028.43848 3343.99154,3029.28218 C3344.08669,3029.71619 3343.35883,3030.73013 3342.85133,3030.89663 M3338.00077,2932.37276 C3337.97898,2931.50734 3338.42319,2930.62414 3338.86404,2929 C3339.82956,2930.23688 3340.50341,2930.8237 3340.84872,2931.61009 C3341.29292,2932.61777 3340.70288,2933.77166 3339.80777,2933.95739 C3338.7467,2934.17671 3338.03094,2933.53456 3338.00077,2932.37276 M3335.13673,3046.44619 C3334.71102,3046.90854 3333.63715,3047.09726 3332.95832,3046.95195 C3332.06662,3046.76134 3331.825,3045.88003 3332.1184,3045.00438 C3332.58438,3043.60599 3333.40896,3042.54728 3335.29973,3042 C3336.341,3043.90982 3336.16649,3045.32709 3335.13673,3046.44619 M3331.03982,2917.90268 C3331.20635,2917.07117 3331.94712,2916.35357 3332.80082,2915 C3333.79617,2916.48646 3334.64413,2917.34075 3334.96188,2918.36019 C3335.24325,2919.25435 3333.91102,2920.1542 3332.81039,2919.97764 C3331.64086,2919.7897 3330.80439,2919.0683 3331.03982,2917.90268 M3350.10216,2960 C3350.38616,2960.4387 3350.67816,2960.89464 3350.97216,2961.34674 C3350.49216,2961.56322 3350.01016,2961.78352 3349.53016,2962 C3349.34616,2961.50192 3349.11216,2961.01149 3349.02816,2960.5 C3349.01216,2960.40613 3349.61416,2960.22031 3350.10216,2960 M3325.45636,3061.64999 C3325.08226,3062.13201 3323.61283,3062.07342 3322.86282,3061.73316 C3321.84123,3061.26815 3321.78728,3059.99788 3322.3844,3059.12835 C3323.38261,3057.67661 3324.60204,3056.3931 3326.59306,3054 C3327.45997,3057.63691 3326.87723,3059.82208 3325.45636,3061.64999 M3324.49113,2902 C3325.8378,2902.00166 3326.84739,2902.8938 3327,2904.60856 C3326.61931,2904.95946 3326.12123,2905.78705 3325.45376,2905.95753 C3324.35529,2906.23891 3323.24508,2905.07863 3323.01701,2903.76111 C3322.87446,2902.92525 3323.65093,2901.99835 3324.49113,2902 M3318.09861,2895.89734 C3317.59882,2896.13082 3316.42049,2895.94305 3316.09034,2895.56588 C3315.30783,2894.66949 3314.84818,2893.54778 3314,2892.06195 C3316.61202,2891.80397 3317.91255,2892.35422 3318.72242,2893.66534 C3319.25322,2894.52417 3319.01062,2895.47118 3318.09861,2895.89734 M3313.58868,3074.92646 C3313.0499,3075.14229 3312.11304,3074.85272 3311.61373,3074.45163 C3310.77639,3073.77895 3310.88792,3072.73216 3311.39925,3071.84365 C3311.67722,3071.36162 3312.11476,3070.95873 3312.54201,3070.59721 C3313.93185,3069.42452 3315.34914,3068.286 3316.91571,3067 C3317.34468,3071.03967 3316.12127,3073.91564 3313.58868,3074.92646 M3298.93348,3081.52165 C3298.06991,3082.51651 3296.80842,3081.93924 3295,3079.97934 C3297.0133,3077.1702 3297.0133,3077.1702 3302,3077 C3301.56483,3079.01079 3300.09168,3080.1934 3298.93348,3081.52165 M3298.22364,2881.00054 C3299.50036,2880.97582 3300.54539,2881.79711 3300.94303,2883.14298 C3301.21908,2884.07379 3300.44845,2885.11057 3299.56773,2884.99046 C3298.45204,2884.83857 3297.57789,2884.29987 3297.0981,2883.15535 C3296.74154,2882.30049 3297.41194,2881.01644 3298.22364,2881.00054 M3279.90008,3088.8843 C3279.09799,3089.16156 3277.96618,3088.90355 3277.16225,3088.50115 C3276.58615,3088.21234 3275.97486,3087.26119 3276.0008,3086.63351 C3276.02488,3086.02316 3276.7362,3085.12207 3277.32711,3084.91413 C3279.71854,3084.06888 3282.19704,3083.80703 3286,3084.14012 C3283.6771,3086.9281 3281.92659,3088.19308 3279.90008,3088.8843 M3285.87966,2874.24099 C3286.04653,2874.50273 3286.04103,2875.1552 3285.85582,2875.31598 C3285.45973,2875.66371 3284.83074,2876.08436 3284.40531,2875.98527 C3282.62105,2875.57397 3281.30074,2874.58125 3281,2872.32285 C3283.33622,2871.43482 3284.76289,2872.47802 3285.87966,2874.24099 M3262.16945,2868.97963 C3260.60799,2869.04503 3259.00487,2869.05775 3258,2867.3028 C3258.7749,2865.36256 3260.36969,2864.96106 3261.94615,2865.00285 C3262.62772,2865.02283 3263.48261,2865.84399 3263.90089,2866.5525 C3264.3525,2867.31007 3263.17099,2868.93603 3262.16945,2868.97963 M3256.98266,3088.46886 C3256.4761,3088.16828 3255.92349,3087.13602 3256.00877,3086.56056 C3256.09916,3085.93567 3256.92467,3084.98053 3257.40565,3085.0003 C3258.96627,3085.06161 3260.51495,3085.50259 3263,3085.97522 C3260.78102,3088.72792 3259.07713,3089.71272 3256.98266,3088.46886 M3242.79469,2869.54869 C3242.3734,2870.65052 3241.50381,2871.2392 3240.5514,2870.90807 C3239.1885,2870.43558 3237.93723,2869.59323 3236,2868.57466 C3239.55758,2865.62159 3240.36236,2865.44537 3242.13575,2866.8551 C3242.99274,2867.5406 3243.21239,2868.45847 3242.79469,2869.54869 M3234.42803,3084.5073 C3233.35767,3084.24985 3232.72411,3082.53413 3233.1176,3081.3628 C3233.52734,3080.14628 3234.48218,3079.79645 3235.46771,3080.10697 C3237.67342,3080.80072 3240.13002,3080.90096 3242,3083.11979 C3239.70946,3085.55678 3237.06152,3085.15193 3234.42803,3084.5073 M3214.65552,2874.39774 C3213.98983,2874.16015 3212.96859,2873.53113 3213.00074,2873.14483 C3213.06882,2872.37394 3213.54918,2871.40136 3214.22055,2870.95182 C3216.22899,2869.61003 3218.26011,2869.61687 3220,2871.42187 C3218.46436,2875.25922 3217.94429,2875.5686 3214.65552,2874.39774 M3212.02834,3075.95485 C3211.51524,3075.75346 3211.0648,3074.82271 3211.00722,3074.18979 C3210.94965,3073.55687 3211.24091,3072.63289 3211.71337,3072.28597 C3212.16889,3071.94582 3213.23572,3071.89505 3213.70648,3072.20981 C3215.34568,3073.30472 3216.84432,3074.61286 3219,3076.31361 C3216.01456,3077.67421 3213.99097,3076.71976 3212.02834,3075.95485 M3200.19667,2881.06244 C3198.39596,2882.48361 3196.50875,2883.97203 3194.11472,2882.17103 C3193.57329,2879.64853 3195.04016,2878.08561 3196.59005,2876.61355 C3197.55874,2875.69578 3199.24875,2875.84662 3200.18976,2876.80619 C3201.21898,2877.85298 3201.31758,2880.17738 3200.19667,2881.06244 M3196.58422,3065 C3191.8575,3064.53181 3191.49054,3064.23539 3191,3060.20859 C3193.35766,3059.56356 3194.50226,3060.51342 3195.5613,3061.7058 C3196.43402,3062.68934 3197.64897,3063.55837 3196.58422,3065 M3181.96282,3050 C3179.6237,3049.59215 3178.01324,3048.67714 3177.14553,3046.93756 C3176.82696,3046.30273 3177.06281,3044.99583 3177.54858,3044.43371 C3178.25965,3043.61091 3179.43713,3044.07728 3179.96339,3044.84865 C3180.88038,3046.19279 3182.24267,3047.40571 3181.96282,3050 M3170.07799,2903 C3169.66983,2899.97122 3170.93301,2898.01663 3172.256,2896.10792 C3173.32917,2894.56124 3174.74189,2893.37998 3176.69823,2893.00945 C3176.99731,2892.95337 3177.45297,2893.15562 3177.6764,2893.38338 C3177.88927,2893.60263 3178.08104,2894.10573 3177.96492,2894.31989 C3176.14053,2897.6614 3174.04521,2900.78196 3170.07799,2903 M3168.49219,3030 C3166.09499,3029.21266 3165.34375,3027.89928 3165.01297,3026.4117 C3164.91533,3025.97623 3165.39158,3025.0478 3165.68849,3025.01819 C3166.40984,3024.95026 3167.52374,3025.06522 3167.86449,3025.4885 C3168.84688,3026.70086 3169.50646,3028.10308 3168.49219,3030 M3160.91534,2934 C3159.39147,2931.8531 3160.10542,2929.82711 3160.66968,2927.99629 C3161.08231,2926.66636 3162.18012,2925.46596 3163.14933,2924.33292 C3163.7251,2923.66277 3165.46776,2924.07385 3165.68272,2924.9478 C3165.92838,2925.96339 3166.21435,2927.23287 3165.75949,2928.07229 C3164.62138,2930.16737 3163.26064,2932.21409 3160.91534,2934 M3160.67901,3007 C3158.68256,3005.80261 3157.85841,3004.22999 3158.0197,3002.39555 C3158.06494,3001.88524 3158.9363,3001.29822 3159.58932,3001.01972 C3159.87256,3000.89798 3160.83833,3001.36493 3161.02716,3001.73515 C3161.92606,3003.48621 3162.81512,3005.30898 3160.67901,3007 M3155.16226,2977.34476 C3155.28312,2976.78576 3156.22694,2975.99825 3156.78709,2976 C3157.3952,2976.00352 3158.34286,2976.70314 3158.5462,2977.27621 C3159.26558,2979.28016 3159.18501,2981.31751 3157.90356,2984 C3155.22173,2981.79038 3154.66925,2979.67568 3155.16226,2977.34476 M3156.77355,2952.69184 C3156.94523,2952.29834 3157.7756,2951.96079 3158.26823,2952.00369 C3158.75899,2952.04472 3159.48486,2952.50535 3159.62481,2952.93987 C3160.55595,2955.83794 3159.72371,2958.31453 3157.46398,2961 C3155.70433,2957.99004 3155.60357,2955.37357 3156.77355,2952.69184 M3359.5247,3042 C3366.16671,3103.75945 3301,3101.99484 3301,3101.99484 C3354.16303,3091.58828 3359.5247,3042 3359.5247,3042 Z M3239.51749,2858.29898 C3250.91088,2857.61177 3262.16386,2858.08056 3273.50749,2860.00369 C3286.62679,2862.23047 3298.76849,2866.81899 3310.73955,2872.2492 C3313.85185,2873.66269 3316.24784,2875.85929 3318.31679,2878.37906 C3321.74014,2882.54673 3324.824,2886.99318 3328.20114,2891.20169 C3330.40694,2893.95054 3332.07951,2896.93733 3333.34505,2900.19937 C3334.87898,2904.16283 3336.78262,2907.9274 3338.99554,2911.5801 C3344.21055,2920.19422 3348.12625,2929.41032 3351.41096,2938.93184 C3352.85069,2943.10483 3354.90364,2947.07184 3356.7735,2951.08679 C3357.88974,2953.48226 3359.81826,2954.97921 3362.39377,2955.73035 C3370.59311,2958.12405 3378.08858,2962.11947 3385.68003,2965.92133 C3389.1176,2967.64203 3392.7969,2968.87439 3396.34823,2970.37489 C3401.31973,2972.47382 3406.28235,2974.5976 3411.22897,2976.75868 C3411.89373,2977.0499 3412.43585,2977.62347 3414,2978.7777 C3412.13546,2979.23939 3386.71628,2984.90578 3383.12762,2985.6072 C3377.45048,2986.71704 3371.74134,2987.65285 3366.04108,2988.62951 C3363.96325,2988.98466 3362.40088,2990.04478 3361.68635,2992.00342 C3360.89894,2994.16982 3360.18797,2996.39128 3359.72583,2998.64824 C3358.24878,3005.82401 3357.18409,3013.09567 3355.43331,3020.20042 C3353.30216,3028.83762 3349.96413,3037.07351 3345.64494,3044.88677 C3344.80421,3046.40503 3343.87639,3047.90198 3343.26317,3049.5108 C3339.79716,3058.62035 3333.47125,3065.57061 3326.44502,3072.00412 C3325.16349,3073.17788 3323.6811,3074.15099 3322.50977,3075.41709 C3313.49459,3085.16769 3301.77947,3089.99948 3289.36582,3093.38759 C3278.4239,3096.37439 3267.29178,3096.63187 3256.05302,3095.01062 C3249.16544,3094.01798 3242.34184,3092.86197 3235.59112,3091.14483 C3231.2666,3090.04565 3227.12161,3088.53272 3223.01039,3086.88838 C3217.81848,3084.81076 3212.65502,3082.67099 3207.48977,3080.52945 C3199.94631,3077.40237 3192.91476,3073.37499 3186.7186,3068.05132 C3178.94585,3061.37275 3171.98183,3053.96614 3165.91542,3045.63436 C3160.03565,3037.56184 3156.23548,3028.57659 3152.60417,3019.41731 C3145.96898,3002.67918 3143.74362,2985.13663 3143.02554,2967.34548 C3142.85668,2963.1423 3143.56232,2958.88584 3144.05112,2954.67556 C3144.58435,2950.0906 3145.30244,2945.52694 3146.00986,2940.96506 C3146.27825,2939.25325 3146.59819,2937.5219 3147.1492,2935.88289 C3149.23058,2929.68733 3150.6792,2923.26092 3153.78794,2917.43294 C3153.96924,2917.09377 3154.1772,2916.75106 3154.27141,2916.38348 C3156.63185,2907.19224 3162.32144,2899.81936 3167.58444,2892.23872 C3169.88801,2888.92341 3172.4884,2885.80344 3175.1048,2882.7243 C3176.08239,2881.57007 3177.4208,2880.67687 3178.71122,2879.84227 C3189.75269,2872.67005 3201.32916,2866.68048 3213.9881,2862.73478 C3219.92297,2860.88268 3225.9876,2859.95575 3232.02024,2858.75712 C3234.45356,2858.27412 3237.01663,2858.44992 3239.51749,2858.29898 Z M3435,2988 L3388.36373,3002 L3380,2996.96574 L3435,2988 Z M3146,2905 C3146,2905 3118.31952,2929.70427 3135.04948,2978 C3135.04948,2978 3106.32609,2930.37195 3146,2905 Z" id="Shape-24"></path>
        </g>
    </g>
</svg>