<?xml version="1.0" encoding="UTF-8"?>
<svg width="309px" height="314px" viewBox="0 0 309 314" version="1.1" xmlns="http://www.w3.org/2000/svg" xmlns:xlink="http://www.w3.org/1999/xlink">
    <title>Paint 11</title>
    <g id="Page-1" stroke="none" stroke-width="1" fill="none" fill-rule="evenodd">
        <g id="Desktop-HD" transform="translate(-5545.000000, -4956.000000)" fill="#000000">
            <path d="M5831.18484,5128.88288 C5831.49404,5129.27427 5831.80873,5129.66477 5832.11157,5130.06251 C5833.06502,5131.32601 5833.06343,5131.3276 5831.86729,5132.1536 C5831.4128,5131.43286 5830.77171,5131.57099 5830.22543,5131.28278 C5829.63342,5130.97114 5829.55341,5131.26294 5829.5934,5131.71588 C5829.63085,5132.1345 5829.49819,5132.58022 5829.70059,5132.95389 C5830.0039,5133.50777 5830.62366,5134.07268 5830.05931,5134.43359 C5829.59136,5134.73508 5829.23179,5135.32908 5828.32907,5134.85328 C5828.20818,5134.78975 5828.11379,5134.59382 5828.00818,5134.45976 C5827.36183,5135.27566 5826.29416,5134.84482 5825.21957,5134.40707 C5824.33672,5134.04962 5823.73699,5134.14644 5823.8227,5135.08345 C5823.88599,5135.77569 5823.39665,5135.90968 5823.04417,5136.22483 C5822.36076,5136.82901 5822.39146,5136.86284 5823.51979,5138.37087 C5823.51979,5138.37087 5823.74962,5138.74017 5823.75121,5138.73859 C5823.7528,5138.737 5823.55509,5138.96208 5823.55509,5138.96208 C5823.55509,5138.96208 5823.86836,5138.88416 5823.87225,5138.88488 C5823.87384,5138.88329 5824.17565,5139.20375 5824.17565,5139.20375 C5824.61496,5139.76001 5825.05196,5140.31396 5825.48737,5140.86951 L5825.28481,5140.96585 C5825.28481,5140.96585 5825.54455,5141.13946 5825.54296,5141.14105 L5825.48737,5140.86951 C5825.94006,5140.45428 5826.60062,5141.05676 5827.15271,5141.14109 C5827.81232,5141.24703 5827.68204,5141.6443 5827.78463,5142.04855 C5828.12896,5143.40903 5828.24969,5143.48194 5829.48653,5143.38915 C5829.73776,5143.37318 5830.01691,5143.41686 5830.28166,5143.43345 C5830.27839,5143.67164 5830.3308,5143.94635 5830.25413,5144.13347 C5830.12672,5144.45418 5829.6955,5144.70976 5829.78799,5145.01816 C5829.97742,5145.64892 5830.56497,5146.0387 5831.2245,5146.19539 C5831.66986,5146.30339 5832.12819,5146.52283 5832.57482,5146.64799 C5833.31945,5146.85788 5833.50712,5147.59173 5833.98484,5148.04975 L5834.26963,5148.35956 C5834.51792,5148.47091 5834.75738,5148.59567 5834.99652,5148.73918 C5834.99811,5148.73759 5835.29212,5149.05662 5835.29212,5149.05662 L5835.41714,5149.42927 L5835.29657,5149.7155 C5834.86766,5149.97339 5834.44034,5150.22969 5834.00913,5150.48528 C5834.33591,5150.90057 5834.67772,5151.30545 5834.97849,5151.73289 C5835.05483,5151.8409 5835.06207,5152.10546 5834.98723,5152.13873 C5834.46639,5152.37788 5833.62665,5151.69178 5833.11797,5152.18134 C5832.88662,5152.40778 5832.30988,5152.02561 5831.98987,5151.53448 C5831.90533,5151.4024 5831.76536,5151.2658 5831.63454,5151.18916 C5831.09191,5150.86966 5830.7726,5151.11944 5830.54236,5151.37241 C5830.42521,5151.50321 5830.48016,5151.90437 5830.61042,5152.152 C5831.20273,5153.27406 5832.23175,5153.77114 5833.23985,5154.34899 C5833.66103,5154.59169 5833.90907,5155.2238 5833.68869,5155.54062 C5833.50203,5155.80533 5833.03566,5156.19736 5832.63993,5155.74499 C5831.71821,5154.68473 5830.64768,5154.33045 5829.6907,5154.19442 C5828.31096,5154.00153 5827.01459,5152.03024 5825.62536,5152.71742 C5825.37309,5152.84037 5824.61153,5152.56908 5824.31028,5152.26189 C5823.23673,5151.16439 5822.05239,5150.83624 5820.90193,5150.53875 C5819.94297,5150.28954 5819.1135,5149.22929 5818.44419,5149.14225 C5817.41675,5149.0121 5816.67892,5146.97591 5815.69679,5147.9521 C5814.80599,5147.69471 5813.91265,5147.40301 5813.02956,5147.19781 C5812.42761,5147.05732 5813.10869,5147.00362 5812.94708,5147.49667 C5812.91805,5147.59476 5812.99702,5147.77846 5813.07058,5147.91228 C5813.14788,5148.05619 5813.26081,5148.2198 5813.39275,5148.32296 C5814.15335,5148.92687 5815.18922,5149.02096 5815.71926,5150.08083 C5816.1782,5150.9998 5817.16739,5150.75818 5817.70643,5151.42674 C5818.36722,5152.24549 5818.94125,5153.06336 5820.0195,5153.28555 C5820.21896,5153.3259 5820.71353,5154.08031 5820.74073,5154.41245 C5820.79217,5155.01978 5820.82898,5155.56803 5821.41168,5156.10546 C5822.58328,5157.18335 5821.95181,5157.62971 5821.49817,5158.19329 C5821.41426,5158.30011 5821.69308,5158.73105 5821.80481,5159.01101 C5820.01111,5159.39274 5818.96071,5157.899 5817.89163,5156.44696 C5818.31195,5156.32663 5818.30392,5155.92468 5818.09103,5155.52464 C5817.88116,5155.13079 5817.51748,5154.77078 5817.22053,5154.39481 C5818.06808,5153.88467 5817.17291,5153.19404 5816.72605,5152.57623 C5816.31664,5152.00853 5815.84656,5151.46919 5815.27895,5151.88402 C5814.73997,5152.27026 5814.30448,5151.85759 5813.806,5151.28672 C5813.61736,5151.06975 5813.27507,5150.96936 5813.00404,5150.81624 C5812.9964,5151.08183 5813.02828,5151.36782 5812.97102,5151.60927 C5812.91868,5151.83657 5812.77259,5152.01472 5812.66673,5152.21716 C5812.66673,5152.21716 5812.35616,5152.32002 5812.36078,5152.32463 C5812.36237,5152.32304 5812.0468,5152.03014 5812.0468,5152.03014 C5812.0468,5152.03014 5812.24864,5152.39055 5812.24936,5152.39444 C5812.25007,5152.39833 5812.02381,5152.60126 5812.02381,5152.60126 C5810.64,5152.78554 5808.9854,5152.20381 5807.67762,5152.60698 C5807.57622,5152.63915 5807.37819,5152.51446 5807.2251,5152.46006 C5807.25262,5152.22069 5807.1731,5151.83946 5807.31975,5151.76671 C5808.48184,5151.19581 5807.35072,5150.35849 5806.79021,5149.38893 C5806.76859,5149.18942 5806.76859,5149.18942 5806.79021,5149.38893 C5806.556,5149.59979 5806.30874,5149.65786 5806.04128,5149.61632 C5805.19995,5149.48458 5804.25038,5148.68244 5803.49405,5149.1153 C5802.92963,5149.43483 5803.58986,5150.51669 5802.84999,5150.76268 C5802.46547,5150.89333 5802.50387,5151.34786 5802.90517,5151.84074 C5803.45502,5152.51692 5803.92008,5153.48967 5804.53993,5153.81957 C5805.39677,5154.28131 5806.14902,5154.87052 5806.95409,5155.38857 C5807.35475,5155.64255 5807.87002,5155.54716 5808.17763,5156.12439 C5807.75501,5156.24241 5807.76534,5156.64667 5807.97982,5157.04512 C5808.18579,5157.43825 5808.55178,5157.80057 5808.84873,5158.17654 C5808.58899,5158.18719 5808.22944,5158.32054 5808.08859,5158.18942 C5807.5898,5157.72942 5807.1827,5157.16403 5806.70561,5156.66853 C5806.19393,5156.13848 5805.26519,5156.13548 5805.29246,5156.69326 C5805.33419,5157.50375 5804.9176,5158.27907 5805.87456,5159.24426 C5805.95759,5159.32718 5805.80767,5159.63811 5805.76432,5159.84262 C5805.50331,5159.65186 5805.20341,5159.49533 5804.98996,5159.26628 C5804.63065,5158.87887 5804.34984,5158.42689 5803.99372,5158.0363 C5803.74814,5157.76564 5802.91952,5157.80544 5802.85526,5158.09073 C5802.68473,5158.83221 5802.39555,5159.56321 5803.13364,5160.52586 C5803.98959,5161.63798 5804.7754,5162.82936 5805.76639,5163.81584 C5806.89417,5164.94209 5806.4355,5166.12333 5807.30434,5167.21337 C5807.38546,5167.31662 5807.21096,5167.73962 5807.02518,5167.8146 C5806.58426,5167.99696 5806.69528,5168.45728 5806.70243,5168.86471 C5806.73516,5170.80355 5806.49067,5171.4807 5805.72733,5172.32592 C5805.22374,5172.8841 5805.25244,5173.72604 5805.76101,5174.66916 C5806.06647,5175.23472 5806.93738,5175.74228 5806.73696,5176.31094 C5806.58497,5176.74371 5806.0316,5176.91861 5805.68143,5177.23606 C5805.17076,5177.70458 5804.12471,5177.6575 5804.22323,5178.71531 C5804.27635,5179.27031 5803.92944,5179.44171 5803.55892,5179.02404 C5803.04875,5178.45102 5802.54207,5178.2246 5801.955,5177.89883 C5801.07597,5177.40858 5800.34559,5176.59023 5800.31205,5175.61955 C5800.28121,5174.76593 5799.94139,5174.19783 5798.99468,5173.87191 C5798.7755,5173.79598 5798.39647,5173.55725 5798.35973,5173.4189 C5798.21508,5172.8678 5798.68024,5172.77637 5799.04258,5172.70933 C5799.27003,5172.66644 5799.6804,5172.99365 5799.93092,5172.97379 C5800.29508,5172.93717 5800.91024,5172.76044 5800.86356,5172.60899 C5800.35914,5170.96156 5802.70922,5171.33241 5802.17617,5169.71358 C5802.41277,5169.73065 5802.65366,5169.67894 5802.88103,5169.77893 C5803.58104,5170.08405 5803.61772,5169.62825 5803.35122,5169.2541 C5802.51873,5168.09552 5802.59239,5167.25731 5803.11173,5166.50835 C5803.11173,5166.50835 5803.43025,5166.39755 5803.43415,5166.39827 C5803.43733,5166.39509 5803.48146,5166.78862 5803.48607,5166.79323 C5803.48997,5166.79394 5803.11173,5166.50835 5803.11173,5166.50835 C5802.85072,5166.31759 5802.59305,5166.11427 5802.32711,5165.93765 C5801.99858,5165.71758 5801.50987,5165.90621 5801.44554,5165.1367 C5801.33789,5163.83467 5800.57737,5162.8115 5799.0975,5162.39155 C5798.18013,5162.13305 5797.30572,5161.83166 5796.68271,5160.7679 C5796.15242,5159.86029 5795.29876,5159.94814 5794.5826,5159.6269 C5794.30171,5159.50205 5794.08228,5159.76264 5794.32516,5160.10049 C5795.03406,5161.07847 5795.85041,5161.94455 5795.67161,5163.08123 C5795.5764,5163.66919 5795.25153,5163.41782 5794.86454,5163.37129 C5793.90566,5163.25559 5793.71702,5163.22287 5793.74706,5163.9391 C5793.78379,5164.81448 5793.27003,5165.05116 5792.74258,5165.35679 C5792.15027,5164.51112 5791.66903,5164.71993 5791.28219,5165.03254 C5791.13315,5165.15374 5791.10126,5165.51264 5791.19557,5165.75932 C5791.29951,5166.03785 5791.61945,5166.30335 5791.81708,5166.58966 C5792.56049,5167.65294 5792.53599,5168.35916 5791.57965,5168.46203 C5790.5771,5168.56958 5789.49129,5168.56222 5788.39625,5168.36138 C5787.67922,5168.22987 5787.45073,5168.65613 5786.98389,5168.7999 C5786.525,5168.93571 5786.53923,5169.34068 5786.80485,5169.81244 C5787.05981,5170.2672 5787.68911,5170.82258 5787.9145,5170.62514 C5788.63346,5169.99928 5789.57077,5170.69389 5790.42404,5170.95191 C5790.63948,5171.01774 5790.97031,5171.42438 5791.08626,5171.6863 C5791.2819,5172.13583 5791.21668,5172.29308 5790.6156,5172.23925 C5787.63199,5171.97594 5787.42767,5172.08325 5787.30615,5172.51784 C5787.01139,5173.57685 5788.01081,5174.80365 5788.05492,5175.93422 C5788.07893,5176.54592 5788.87938,5177.33575 5788.67529,5178.02783 C5788.21447,5179.56591 5789.43743,5181.48614 5789.38992,5183.13199 C5789.34257,5184.67634 5789.52824,5186.31043 5789.39245,5187.81412 C5789.25913,5189.31074 5789.66773,5190.66232 5791.05326,5192.03326 C5791.50529,5192.48469 5791.55252,5192.92579 5791.26756,5193.17812 C5790.89226,5193.50224 5790.39488,5193.69493 5789.80487,5192.85157 C5789.33803,5192.99533 5789.39656,5193.41594 5789.67188,5193.8688 C5790.00955,5194.42522 5790.81079,5195.16819 5790.74231,5195.4715 C5790.28012,5197.50382 5791.95354,5199.14003 5793.27179,5200.88219 C5793.58759,5201.29923 5793.6081,5201.74859 5793.13895,5201.89005 C5794.43438,5203.08841 5794.26448,5204.43731 5794.74036,5205.69406 C5795.10005,5206.65688 5794.63574,5207.57198 5795.45876,5208.68935 C5795.72009,5209.04563 5795.43983,5209.15968 5794.98604,5208.90348 C5794.41685,5208.58286 5793.77593,5208.71162 5793.25868,5208.04894 C5792.71623,5207.35155 5792.21672,5206.61127 5791.60197,5205.98147 C5791.14707,5205.51448 5790.44968,5205.74569 5789.91518,5205.04036 C5789.52907,5204.5277 5789.07681,5203.4915 5788.53943,5203.69189 C5787.77149,5203.97973 5786.78263,5203.37345 5786.13741,5203.66311 C5785.21176,5204.0762 5784.36071,5204.60826 5783.55968,5205.1871 C5782.53143,5205.93296 5781.43051,5205.89463 5780.05858,5204.50549 C5779.94557,5204.39264 5779.80656,5204.29193 5779.66865,5204.21776 C5779.10146,5203.91819 5778.77109,5204.22048 5778.63405,5204.50933 C5778.39705,5205.0224 5778.95327,5205.23158 5779.36936,5205.31354 C5779.81115,5205.40209 5779.99096,5205.54035 5779.9119,5205.86805 C5779.7471,5206.54853 5780.04939,5206.93301 5780.84165,5207.05387 C5780.95784,5207.07142 5781.09511,5207.18308 5781.2222,5207.24964 C5781.1456,5207.47813 5781.11975,5207.7573 5780.97699,5207.9229 C5780.5752,5208.37942 5779.89739,5207.91855 5779.32367,5207.72684 C5778.56337,5207.4727 5777.82256,5207.13002 5777.3076,5207.66731 C5776.57616,5208.43001 5775.72805,5208.6505 5774.42134,5207.28837 C5774.05177,5206.9066 5773.14998,5207.66438 5773.49775,5208.04027 C5774.33525,5208.94971 5773.79269,5209.77713 5774.46112,5210.60667 C5774.25418,5210.73042 5774.00875,5210.8189 5773.84563,5210.9864 C5773.05478,5211.79461 5771.86447,5211.58758 5770.78559,5210.66583 C5769.76525,5209.79619 5768.93529,5209.40895 5767.97855,5209.58131 C5768.41627,5210.13916 5768.85327,5210.69311 5769.29028,5211.24707 C5769.03904,5211.26304 5768.80014,5211.33579 5768.53992,5211.28243 C5767.21441,5211.02616 5767.22467,5211.02052 5767.02344,5212.18881 C5766.98669,5212.41898 5766.82198,5212.58807 5766.717,5212.78503 C5767.31234,5213.72903 5768.05497,5214.37852 5769.06825,5214.51359 C5769.21259,5214.53067 5769.47002,5214.70197 5769.50995,5214.65289 C5770.11637,5213.88607 5771.59615,5215.18593 5772.21943,5214.43911 C5772.25777,5214.39162 5772.65795,5214.67372 5772.88874,5214.80253 C5772.7836,5215.00887 5772.74558,5215.31401 5772.55344,5215.39534 C5772.11785,5215.5862 5771.92108,5216.2157 5771.15204,5215.83211 C5770.46754,5215.48846 5770.02249,5215.6381 5769.61299,5215.95032 C5768.54609,5216.76242 5767.36794,5216.89794 5765.80237,5215.26459 C5765.43439,5214.88123 5764.93574,5214.96463 5764.67138,5215.24706 C5764.40153,5215.53036 5764.32733,5215.89467 5764.81324,5216.37674 L5765.03051,5216.65726 L5765.25414,5216.93141 L5765.47069,5217.20803 C5766.10738,5218.0186 5766.72356,5218.84044 5767.39032,5219.63019 C5767.77348,5220.0859 5767.91901,5220.5394 5767.64622,5220.76575 C5767.41232,5220.95788 5766.90715,5221.057 5766.57059,5220.89563 C5764.79631,5220.04188 5763.26544,5220.73693 5761.48782,5219.8036 C5761.47311,5219.79526 5761.26139,5220.20016 5761.34879,5220.3478 C5761.60192,5220.77214 5761.96194,5221.16345 5762.28109,5221.56793 C5761.35345,5222.14423 5760.49674,5222.8708 5758.87421,5221.92079 C5758.60795,5221.76291 5758.22009,5221.62972 5758.01411,5221.69724 C5756.93783,5222.04885 5756.0332,5221.59339 5754.81928,5220.61304 C5753.782,5219.77413 5752.4405,5219.5845 5751.7326,5220.52637 C5751.66619,5220.61572 5751.62745,5220.73271 5751.59421,5220.84882 C5751.50489,5221.18216 5751.67524,5221.27921 5752.11392,5221.41231 C5752.85044,5221.63952 5753.78108,5221.80644 5754.28903,5222.32641 C5755.10975,5223.16508 5755.44672,5222.98058 5756.17592,5222.90186 C5756.66543,5222.85062 5758.42859,5222.7942 5758.10726,5224.58912 C5758.53345,5224.76694 5758.95503,5224.94015 5759.38051,5225.11407 C5759.08631,5225.90996 5760.03079,5226.82774 5760.03387,5227.61234 C5760.03577,5227.86839 5759.50324,5228.1054 5759.15729,5228.03631 C5758.42165,5227.89575 5757.47821,5227.23951 5756.93343,5227.36897 C5756.2552,5227.53037 5755.65205,5227.50624 5754.89614,5227.22471 C5754.79124,5227.18666 5754.68546,5227.33836 5754.5765,5227.40111 L5754.48942,5227.41898 L5754.48871,5227.32296 L5754.5765,5227.40111 C5754.68824,5227.68106 5754.86463,5227.97476 5754.89771,5228.23653 C5754.98438,5228.93306 5755.00958,5229.61267 5755.05816,5230.29656 C5755.84812,5230.41512 5756.48926,5231.33179 5757.06545,5231.51643 C5758.02965,5231.82489 5758.89395,5233.22809 5759.46481,5232.94359 C5760.5034,5232.41772 5760.96616,5233.11177 5761.66473,5233.96189 C5761.95047,5234.3076 5762.42685,5234.61495 5762.82823,5234.7807 C5763.7366,5235.15412 5764.64999,5235.46265 5765.55781,5235.73068 C5766.3193,5235.96059 5766.49934,5236.68364 5766.98326,5237.14467 C5766.50545,5237.29018 5766.52794,5237.76059 5766.87277,5238.17167 C5767.56705,5238.99844 5767.25337,5239.60649 5767.33774,5240.30071 C5767.37853,5240.61466 5766.97675,5240.70267 5766.7936,5240.39269 C5766.17576,5239.34681 5765.05153,5239.52981 5764.40998,5238.68264 L5764.13204,5238.33835 C5763.88288,5238.14036 5763.63411,5238.05713 5763.3859,5238.0793 L5763.1112,5238.23385 C5762.29769,5238.48889 5761.36299,5238.14637 5760.63031,5237.41785 C5760.04363,5236.83832 5759.50864,5236.71388 5758.93683,5236.50184 C5758.70453,5236.41599 5758.46999,5236.46134 5758.2357,5236.44657 C5758.35133,5236.72725 5758.47086,5237.00863 5758.5849,5237.29089 C5758.69504,5237.57244 5758.79739,5237.85256 5758.90363,5238.13339 C5758.66521,5238.0859 5758.29054,5238.09615 5758.21118,5237.98195 C5757.77044,5237.32578 5757.19521,5237.17703 5756.60177,5236.85761 C5755.88283,5236.47005 5756.50134,5235.91226 5756.13003,5235.35719 C5754.81473,5233.39559 5752.91258,5232.15363 5751.06814,5232.11618 C5751.28873,5233.12118 5750.83017,5233.23825 5749.91384,5232.78065 C5749.88672,5232.76627 5749.7714,5232.9275 5749.79319,5233.0255 C5749.95963,5233.76674 5751.26634,5235.31313 5751.63449,5235.13434 C5752.54097,5234.69894 5753.12837,5235.00597 5753.84379,5236.06035 C5754.33121,5236.77585 5755.00354,5237.42185 5755.44936,5238.14664 C5756.09679,5239.19984 5756.98417,5239.61265 5757.86638,5239.73121 C5758.99975,5239.88455 5759.68582,5241.42428 5760.81458,5241.38875 C5761.04068,5241.37946 5761.29008,5241.4252 5761.5274,5241.44616 C5761.41566,5241.1662 5761.35276,5240.86512 5761.18281,5240.60645 C5760.89461,5240.17567 5760.52218,5239.77833 5760.22372,5239.3532 C5760.14737,5239.24518 5760.1601,5238.95609 5760.21569,5238.95124 C5760.42318,5238.93289 5760.85391,5238.98181 5760.87721,5239.03685 C5761.5768,5240.60914 5763.19243,5240.90733 5764.29238,5241.92319 C5764.56945,5242.18083 5765.36674,5241.68403 5765.79309,5241.94461 C5766.63887,5242.45884 5767.29378,5243.25582 5767.40638,5244.26733 C5767.47158,5244.84711 5767.2039,5243.94441 5767.06392,5244.45271 C5767.06392,5244.45271 5766.76576,5244.5616 5766.76807,5244.5639 C5766.77268,5244.56851 5766.45855,5244.28339 5766.45855,5244.28339 C5766.45855,5244.28339 5766.64869,5244.64166 5766.64941,5244.64555 C5766.65012,5244.64944 5766.421,5244.8368 5766.421,5244.8368 C5764.68392,5244.92245 5762.85326,5243.7519 5761.07476,5243.2847 C5760.47153,5243.12706 5759.83236,5242.96846 5759.25308,5242.64412 C5757.87612,5241.87265 5756.72147,5240.48764 5755.20358,5240.00431 C5755.16,5239.99256 5755.19469,5239.23933 5754.99603,5238.87574 C5754.79062,5238.49587 5754.34431,5237.98345 5754.01617,5237.87815 C5753.69353,5237.77197 5753.11391,5238.01914 5753.12377,5238.26725 C5753.16963,5239.84749 5752.5781,5239.32348 5751.75499,5238.25687 C5750.23607,5238.06478 5748.90676,5236.74363 5747.45115,5236.13823 C5746.57077,5235.77371 5746.34843,5234.50329 5745.23098,5234.1498 C5743.87398,5233.7223 5742.81417,5234.0713 5741.58648,5233.94767 C5741.45223,5233.93433 5741.34383,5234.01034 5741.21492,5234.00549 C5740.27409,5233.97771 5739.87612,5234.30144 5740.11938,5235.12258 C5740.23628,5235.51253 5740.64878,5236.21993 5740.85747,5236.26949 C5742.96307,5236.76472 5744.95151,5238.12779 5746.99611,5239.03863 C5747.42127,5239.2313 5747.89574,5239.19047 5748.24248,5239.76547 C5748.81197,5240.71224 5749.56033,5241.30074 5750.58561,5241.51134 C5751.3296,5241.6666 5752.11527,5241.94607 5752.86442,5242.30345 C5753.40339,5242.56211 5753.90632,5243.05483 5754.43662,5243.40968 C5754.50079,5243.45153 5754.64411,5243.2992 5754.75076,5243.23415 L5755.02156,5243.07888 C5755.26977,5243.05671 5755.51766,5243.14542 5755.76523,5243.345 L5756.04954,5243.68293 C5756.57442,5244.35642 5757.01778,5244.99615 5757.94159,5245.28967 C5758.73004,5245.54333 5759.17984,5246.31021 5758.98968,5246.68897 C5758.7436,5247.18346 5758.20098,5247.04821 5757.59847,5246.98659 C5756.43631,5246.87122 5755.76368,5245.32267 5754.65274,5245.32198 C5753.44401,5243.53034 5751.78862,5243.0876 5750.15518,5242.54923 C5749.72994,5242.40731 5749.22477,5242.41431 5748.91573,5241.8293 C5748.24525,5240.56882 5747.18831,5240.28848 5746.11388,5239.93349 C5745.10394,5239.60161 5744.12319,5239.34652 5743.13824,5238.37244 C5742.62076,5237.86201 5741.65026,5237.87767 5740.9011,5237.52029 C5739.95257,5237.07182 5739.43418,5237.85667 5738.42918,5237.32639 C5737.54809,5236.86585 5736.59899,5236.58837 5735.70318,5236.39587 C5735.40717,5236.33218 5735.12587,5236.73747 5734.95766,5237.02061 C5734.83765,5237.22798 5735.12077,5237.40588 5735.5371,5237.51984 C5736.60947,5237.81241 5737.07835,5238.74449 5737.52728,5239.60898 C5737.61436,5239.77537 5737.34372,5240.0134 5737.01526,5240.11109 C5735.77462,5239.41539 5734.704,5239.01973 5733.7204,5238.28844 C5734.55863,5238.92538 5735.47122,5239.28077 5736.34953,5239.76713 C5736.64307,5239.93002 5736.94154,5240.07877 5737.23857,5240.21974 C5737.18632,5240.48842 5737.03354,5240.41528 5737.01526,5240.11109 C5738.39713,5241.60546 5736.20507,5241.45913 5736.94164,5242.649 C5736.71745,5242.63797 5736.49405,5242.6722 5736.26692,5242.60422 C5735.82824,5242.47112 5735.29794,5242.39266 5734.96925,5242.08984 C5734.4827,5241.64525 5734.104,5240.92713 5733.51054,5241.25261 C5733.0142,5241.52257 5732.24745,5241.60193 5732.4298,5242.51153 C5732.45357,5242.63059 5732.62933,5242.77751 5732.73653,5242.90999 C5732.73653,5242.90999 5732.8967,5243.05405 5732.89352,5243.05723 C5732.89193,5243.05882 5733.0109,5243.23481 5733.0109,5243.23481 C5733.01162,5243.23871 5733.15588,5243.39866 5733.15588,5243.39866 C5733.15747,5243.39707 5733.31271,5243.55527 5733.31112,5243.55686 C5733.30953,5243.55845 5733.39239,5243.74286 5733.39239,5243.74286 C5733.70462,5244.14044 5734.06162,5244.52555 5734.30712,5244.93909 C5734.40517,5245.10373 5734.24857,5245.53189 5734.23227,5245.52514 C5732.46562,5244.77433 5731.92758,5246.11775 5730.83436,5246.50011 C5730.58433,5246.39972 5730.34025,5246.27035 5730.09984,5246.10969 L5729.81219,5245.7843 L5729.61123,5245.41841 C5729.71707,5245.67661 5729.87971,5245.90574 5730.09984,5246.10969 C5730.33954,5246.26646 5730.58361,5246.39583 5730.83436,5246.50011 C5731.47392,5247.23411 5731.1519,5247.55108 5730.70208,5247.79762 C5730.60975,5247.84837 5730.4526,5247.89475 5730.34643,5247.83956 C5728.59489,5246.93546 5727.05607,5247.54632 5725.32235,5246.69813 C5725.2068,5246.6431 5725.11168,5246.44327 5724.77155,5245.89392 C5724.26321,5245.2592 5723.9746,5245.08217 5723.66587,5244.93906 C5724.25383,5245.25936 5724.88067,5245.54542 5725.00607,5246.30921 C5724.98119,5245.97938 5724.82484,5245.70252 5724.77155,5245.89392 C5724.68859,5246.49729 5724.35194,5246.66305 5724.06213,5246.87876 C5723.52355,5247.28763 5723.0579,5247.40717 5722.24036,5246.47319 C5721.87374,5246.05624 5721.11869,5245.95348 5720.54338,5245.67123 C5720.13556,5245.47046 5720.00044,5245.55473 5720.14987,5246.00894 C5720.19599,5246.14713 5720.26987,5246.35434 5720.36896,5246.412 C5721.58805,5247.13383 5722.64219,5248.26914 5723.98718,5248.71324 C5724.49481,5248.88343 5724.87271,5249.83266 5724.59737,5250.20897 C5723.92963,5251.13376 5723.65539,5252.36575 5722.40828,5252.8327 C5721.22647,5253.27589 5721.47498,5254.2484 5722.76341,5255.4906 C5723.20105,5255.91494 5723.96016,5255.45627 5724.13885,5256.39717 C5724.22163,5256.8166 5723.97357,5257.1979 5724.48104,5257.65385 C5724.2236,5257.6668 5723.96672,5257.69301 5723.70181,5257.68579 C5723.37598,5257.67492 5723.01468,5257.26646 5722.8145,5257.86713 C5722.23064,5259.60639 5721.28797,5259.91671 5719.42406,5259.23078 C5718.11725,5258.74856 5716.72247,5258.65821 5715.54769,5257.30711 C5715.4618,5257.20863 5715.25089,5257.19815 5715.0978,5257.14375 C5715.15871,5257.42379 5715.14495,5257.72774 5715.2931,5257.98053 C5716.22539,5259.56918 5717.47318,5260.67232 5719.15148,5260.9632 C5719.6005,5261.03992 5719.82326,5261.22743 5719.65648,5261.51835 C5719.36635,5262.02919 5718.81576,5262.36254 5719.03922,5263.19884 C5718.80008,5263.14746 5718.42931,5263.15843 5718.34303,5263.03731 C5717.60621,5261.99968 5716.82811,5261.22899 5715.60575,5260.9296 C5714.45108,5260.65014 5713.25035,5260.27386 5712.18906,5259.19177 C5711.96002,5258.95986 5711.86792,5259.22688 5711.86298,5259.60953 C5711.83774,5260.86463 5711.80585,5260.85502 5712.82398,5261.21096 C5713.58872,5261.47908 5714.35538,5261.72686 5715.1175,5262.01141 C5715.40261,5262.11822 5715.83087,5262.26634 5715.94245,5262.46354 C5716.59449,5263.61347 5717.78265,5263.90095 5718.599,5264.67489 C5719.49623,5265.52008 5720.34982,5265.5751 5721.21135,5265.89857 C5721.78618,5266.11681 5722.00337,5266.5402 5722.31734,5266.92681 C5723.09615,5267.88565 5723.85198,5268.86284 5724.61417,5269.83367 C5723.81091,5270.45158 5723.35889,5269.171 5722.72139,5268.86794 C5721.84499,5268.45338 5720.86765,5268.59564 5720.10061,5267.68033 C5719.40864,5266.85587 5718.63252,5266.84325 5717.9368,5266.65361 C5716.978,5266.39503 5716.43492,5265.36662 5715.43659,5265.08763 C5714.53943,5264.8366 5714.07935,5265.08877 5713.56025,5265.40908 C5713.56025,5265.40908 5713.252,5265.51424 5713.2543,5265.51655 C5713.2582,5265.51726 5712.94263,5265.22436 5712.94263,5265.22436 C5712.94263,5265.22436 5713.14288,5265.58636 5713.14519,5265.58866 C5713.1459,5265.59256 5712.91964,5265.79548 5712.91964,5265.79548 C5712.6599,5265.80613 5712.40851,5265.83147 5712.14431,5265.82814 C5711.03742,5265.81879 5710.25798,5264.52892 5709.21282,5264.19998 C5708.15986,5263.86961 5707.09847,5263.48316 5706.04265,5263.0451 C5705.8082,5262.94757 5705.62505,5262.45334 5705.36658,5262.29688 C5704.66387,5261.87469 5704.79882,5262.44469 5704.79651,5262.81091 C5704.78909,5263.7534 5704.15787,5263.77112 5703.31479,5263.37395 C5702.84637,5263.15079 5702.77527,5263.19415 5702.84485,5263.6544 C5702.96842,5264.4799 5702.72147,5264.97987 5701.70979,5264.65894 C5700.96794,5264.42324 5700.19763,5264.11462 5699.49666,5264.04998 C5698.69278,5263.96835 5697.66161,5263.82812 5697.24892,5264.23564 C5696.5073,5264.95322 5698.01802,5265.76615 5698.35298,5266.57402 C5698.4108,5266.71435 5698.40014,5266.88162 5698.35289,5266.99328 C5698.3245,5267.05388 5698.1349,5267.07739 5698.06309,5267.02474 C5696.3289,5265.74402 5694.6103,5264.46617 5692.65191,5263.91145 C5692.33832,5263.82385 5691.95182,5263.19643 5691.64119,5262.79727 C5691.13866,5262.14292 5690.60646,5261.80841 5690.16959,5262.2585 C5689.57208,5262.86902 5688.73026,5262.7654 5687.80925,5262.2618 C5686.83169,5261.72716 5685.9708,5260.81343 5684.87052,5260.64548 C5683.83099,5260.49055 5683.06206,5259.04279 5681.94101,5259.03836 C5680.9873,5259.03266 5680.35045,5257.95509 5679.47548,5257.54831 C5678.51135,5257.09698 5677.50954,5256.47139 5676.66281,5255.737 C5676.03334,5255.19099 5675.68199,5254.9799 5675.15025,5255.26217 C5674.54916,5255.57685 5673.24769,5254.45822 5673.01584,5255.54193 C5672.97337,5255.74096 5673.21449,5256.08978 5673.32623,5256.36974 C5672.87266,5256.79044 5672.21377,5256.22775 5671.65095,5256.08504 C5670.76587,5255.85879 5669.87428,5255.55613 5668.98523,5255.28779 C5668.17926,5256.24928 5667.33843,5254.33897 5666.78586,5254.46701 C5665.7255,5254.71061 5665.02811,5254.48118 5664.2233,5253.25811 C5663.77206,5252.57557 5663.14999,5252.469 5662.78104,5252.8789 C5662.52678,5253.16506 5662.48924,5253.53421 5662.94859,5254.01518 C5663.18829,5254.26408 5663.38344,5254.55746 5663.59769,5254.83177 C5663.34185,5254.84314 5662.97609,5254.97347 5662.83986,5254.84696 C5662.06271,5254.11217 5661.41122,5253.43615 5660.57894,5254.06002 C5660.30575,5254.26374 5659.8332,5253.54721 5659.45664,5253.20928 C5659.08699,5252.87826 5658.62096,5252.69877 5658.72568,5253.39109 C5658.79797,5253.87627 5658.64694,5253.97642 5658.08507,5253.86961 C5656.82175,5253.63415 5655.92827,5252.24628 5654.72348,5251.97079 C5654.08313,5251.00727 5653.55172,5250.99441 5652.88701,5251.37263 C5652.58384,5251.54641 5652.06444,5251.05631 5651.74928,5250.60179 C5651.09461,5249.65256 5650.41465,5248.90363 5649.61617,5249.70103 C5647.96819,5248.22367 5646.14578,5248.03984 5644.40578,5247.23939 C5644.04743,5247.07213 5643.7461,5246.44717 5643.42092,5246.0303 C5642.77356,5245.20274 5641.97461,5245.38336 5641.25782,5245.00747 C5641.24541,5245.00144 5641.12858,5245.20563 5641.17248,5245.29077 C5641.77958,5246.46254 5642.48276,5247.59365 5643.74336,5248.26481 C5644.18419,5248.50172 5644.65969,5248.63029 5645.11125,5248.74131 C5645.51924,5248.84058 5645.8185,5249.0346 5645.71439,5249.22609 C5645.5531,5249.51614 5645.24921,5249.96241 5644.99973,5249.87529 C5644.2862,5249.62974 5643.39293,5249.74793 5642.85954,5248.88487 C5642.10324,5247.65941 5641.11319,5247.26161 5640.0386,5247.00812 C5639.34399,5246.845 5638.87566,5246.38683 5638.50586,5245.78879 C5637.81652,5244.67151 5636.84022,5244.79892 5635.98879,5244.38706 C5635.38069,5245.11409 5634.37578,5244.34881 5633.52084,5244.14312 C5632.90292,5242.96373 5631.53104,5243.18216 5630.80043,5242.05543 C5629.88778,5240.64524 5628.79131,5240.62088 5627.65015,5240.74249 C5626.79401,5240.83742 5626.52338,5240.52268 5626.21777,5239.32159 C5626.11948,5238.94069 5626.34535,5238.53087 5625.6125,5238.3645 C5625.38663,5238.31367 5625.13636,5238.08916 5624.89722,5237.94565 C5625.00467,5237.74161 5625.07291,5237.49842 5625.22807,5237.33886 C5625.39596,5237.16659 5625.64457,5237.07493 5626.27357,5237.09629 C5626.21686,5237.44312 5626.88594,5237.31389 5626.27214,5237.0885 C5626.41195,5237.14235 5626.54945,5237.19389 5626.68926,5237.24774 C5626.68926,5237.24774 5626.68926,5237.24774 5626.27357,5237.09629 C5625.56092,5236.56886 5625.30389,5236.14381 5624.95659,5235.83192 C5624.60858,5235.51615 5624.1796,5235.36415 5623.90164,5235.66476 C5623.08147,5234.83935 5621.82602,5234.73883 5621.2225,5233.49439 C5620.96722,5232.96624 5620.40631,5232.8032 5620.09622,5233.0622 C5619.48717,5233.56908 5618.31859,5232.49739 5617.72649,5233.15779 C5617.53124,5233.37581 5616.8877,5232.8761 5616.61341,5232.40839 C5616.33841,5231.93679 5616.25563,5231.51737 5616.73503,5231.37027 C5615.97125,5230.58529 5614.89713,5230.48794 5614.16023,5229.59319 C5614.08977,5229.50694 5613.71335,5229.62028 5613.47771,5229.63911 L5613.19196,5229.75404 C5612.95114,5229.755 5612.71176,5229.67161 5612.46833,5229.50475 L5612.17893,5229.19033 C5611.55344,5228.50215 5611.10333,5227.29337 5610.05584,5227.97554 C5609.74989,5228.17513 5609.35996,5227.88739 5608.90538,5227.49379 C5608.06398,5226.7679 5607.05691,5225.89881 5606.18051,5225.6685 C5604.3756,5225.19082 5602.8346,5223.62966 5601.03057,5223.1465 C5600.21102,5222.9285 5599.79404,5223.49693 5599.06468,5223.12438 C5598.53455,5222.85229 5598.04299,5222.38046 5597.52049,5222.02704 C5597.46251,5221.98821 5597.31689,5222.13824 5597.21183,5222.2017 C5596.63048,5221.99918 5596.05024,5221.8232 5595.47032,5221.53634 C5594.77699,5220.92973 5594.03945,5220.44099 5593.24941,5220.09679 C5592.75944,5219.80763 5592.24728,5219.58208 5591.76589,5219.24749 C5592.27988,5219.59558 5592.81741,5219.84646 5593.33809,5220.16946 C5594.12502,5220.46608 5594.83338,5220.97016 5595.51533,5221.55588 C5596.07823,5221.83209 5596.64607,5222.00204 5597.21183,5222.2017 C5598.07613,5223.23638 5598.71401,5224.57549 5600.19047,5224.78236 C5600.91082,5226.00686 5602.60583,5225.86649 5603.21372,5227.35992 C5603.31281,5227.60183 5604.01091,5227.83516 5604.43607,5228.02783 C5605.64474,5228.58042 5607.53147,5229.90227 5608.85457,5230.94401 C5609.86983,5231.74504 5611.0369,5232.76757 5612.04079,5232.99493 C5613.36478,5233.29416 5614.25119,5234.50024 5615.44007,5234.88374 C5616.13284,5235.10857 5616.47886,5235.67968 5616.46541,5236.3334 C5616.45641,5236.72471 5616.40368,5237.11364 5617.08444,5237.26293 C5617.52997,5237.36157 5618.1716,5237.78948 5618.40915,5237.65819 C5619.06273,5237.29109 5619.44137,5237.50719 5620.28405,5238.15811 C5621.20315,5238.86629 5622.08647,5239.47202 5622.95205,5240.3396 C5623.56695,5240.96003 5624.76387,5240.91632 5625.57307,5241.4671 C5626.22305,5241.9097 5626.67945,5242.79436 5627.22437,5243.48468 C5626.4185,5243.75052 5625.53716,5243.3501 5624.73504,5242.70474 C5623.3406,5241.58222 5621.71432,5240.99064 5620.39917,5239.66457 C5620.02714,5239.28987 5619.53684,5239.38796 5619.27566,5239.66721 C5619.0129,5239.94805 5618.94561,5240.31927 5619.42619,5240.79285 C5618.27246,5241.00993 5617.22793,5240.55137 5616.33659,5239.26731 C5615.66117,5238.29735 5615.23656,5238.67071 5614.5363,5238.7021 C5613.68431,5238.73762 5612.58641,5238.33696 5611.76124,5237.11579 C5611.01154,5236.00812 5609.97123,5235.80792 5609.0152,5235.98417 C5608.35934,5235.15129 5607.67588,5234.33215 5607.05788,5233.47989 C5606.66446,5232.93769 5606.25091,5232.79792 5605.89302,5232.97106 C5605.38141,5233.21943 5604.93461,5233.2879 5604.39256,5232.52101 C5603.46734,5231.20629 5602.47706,5230.22371 5600.89023,5229.79542 C5598.94376,5229.27485 5598.93478,5229.11339 5595.68352,5226.28907 C5595.2621,5225.92223 5594.80926,5225.97831 5594.53782,5226.2632 C5594.26797,5226.5465 5594.19218,5226.9124 5594.67968,5227.39289 C5594.23995,5227.82741 5593.42225,5226.99493 5593.04425,5227.20199 C5592.37261,5227.5733 5591.84987,5227.55639 5591.21413,5226.59747 C5590.01555,5226.325 5589.11221,5224.87327 5587.8753,5224.74043 C5587.21746,5223.42586 5585.87326,5223.02703 5584.93062,5222.13967 C5584.24803,5221.49931 5583.43413,5221.73171 5582.87362,5220.85428 C5582.54009,5220.33058 5582.19781,5219.67743 5581.44205,5219.47865 C5580.03558,5219.10976 5580.78579,5218.34675 5580.68456,5217.81677 C5580.51964,5216.94044 5581.27062,5217.69675 5581.5811,5217.73678 C5582.01397,5217.79737 5582.48701,5218.02514 5582.94167,5218.18373 C5583.25016,5218.29484 5583.36763,5218.14529 5583.23634,5217.72825 C5583.19642,5217.59307 5583.04476,5217.45433 5582.95489,5217.31375 C5582.49825,5216.58134 5581.8415,5216.67523 5581.27859,5216.39901 C5580.71339,5216.12049 5580.10968,5216.17522 5579.59379,5215.47895 C5579.20856,5214.96081 5578.86382,5214.13047 5578.17398,5214.14684 C5577.65696,5214.16107 5577.27911,5214.54301 5576.84448,5214.76977 C5576.62513,5214.88747 5576.45343,5215.10041 5576.19655,5215.12662 C5575.96782,5215.15236 5575.48826,5215.03244 5575.39768,5214.88797 C5574.48344,5213.38725 5573.15692,5212.4088 5571.75293,5211.48008 C5571.49549,5211.30877 5571.26622,5210.95273 5571.11003,5210.6665 C5570.9668,5210.39956 5570.93738,5210.1065 5570.85929,5209.82519 C5571.14098,5209.90318 5571.43301,5210.0169 5571.70452,5210.04978 C5571.97214,5210.08194 5572.22154,5210.03555 5572.47898,5210.0226 C5571.60426,5208.9108 5570.72954,5207.79899 5569.85323,5206.68878 C5571.07855,5205.75532 5572.39246,5205.22166 5574.30915,5207.31048 C5574.389,5207.39657 5574.65685,5207.46074 5574.69837,5207.41007 C5574.76692,5207.33239 5574.77607,5207.11597 5574.70363,5207.00867 C5573.84195,5205.77329 5572.94401,5204.5557 5572.10675,5203.30975 C5572.02365,5203.18546 5572.29405,5202.91542 5572.40062,5202.71687 C5572.55523,5202.82043 5572.71214,5202.9263 5572.87525,5203.03518 C5572.84447,5202.86784 5572.8098,5202.69978 5572.78062,5202.53086 C5572.65377,5202.58844 5572.52604,5202.6515 5572.40062,5202.71687 C5572.08419,5202.15306 5571.43961,5201.76034 5571.37696,5201.03061 C5571.3085,5200.22838 5571.08709,5200.19153 5570.41842,5199.88276 C5569.50535,5199.46335 5569.0591,5199.82147 5568.51305,5200.11804 C5567.98187,5200.41358 5567.11883,5200.04095 5567.07374,5199.51939 C5566.96298,5198.26191 5566.28701,5197.18656 5565.32814,5196.14958 C5564.74545,5195.52001 5565.01061,5195.00647 5564.82468,5194.44592 C5564.70857,5194.10123 5564.19792,5193.74059 5563.85428,5193.39742 C5563.566,5193.10952 5562.80076,5193.4223 5562.92985,5192.68074 C5563.10714,5191.67915 5562.34798,5190.25387 5563.41822,5189.61347 C5563.72704,5189.42945 5563.6931,5188.52825 5563.45428,5187.99749 C5563.04512,5187.09328 5562.42855,5186.24881 5563.47707,5185.9203 C5562.27941,5183.247 5562.99028,5181.07227 5562.71492,5178.64333 C5562.67946,5178.33788 5562.18432,5177.75446 5561.83957,5177.56902 C5561.27165,5177.26556 5560.32654,5176.84591 5560.10489,5177.05345 C5558.65003,5178.42802 5557.64592,5176.97098 5556.62917,5175.47589 C5556.27067,5174.94949 5555.83198,5174.90852 5555.40022,5174.6902 C5555.00958,5174.4907 5554.93754,5174.03752 5554.90399,5173.25109 C5554.87895,5172.56211 5555.30554,5172.76256 5555.66278,5173.08755 C5556.76464,5174.08307 5558.17961,5174.64154 5559.0618,5175.95777 C5559.11437,5176.03886 5559.41626,5176.12431 5559.46716,5176.07348 C5559.53945,5176.00589 5559.53906,5175.799 5559.47488,5175.66501 C5558.45361,5173.5618 5556.5711,5172.4983 5554.73558,5171.47539 C5554.22597,5171.19203 5553.94396,5170.8564 5553.63086,5170.4643 C5553.55436,5170.36566 5553.57488,5170.17013 5553.6051,5170.04782 C5553.62356,5169.97411 5553.75709,5169.89143 5553.82302,5169.92233 C5554.53726,5170.2639 5555.2644,5170.21489 5555.98444,5170.99749 C5556.37818,5171.42882 5557.10658,5171.58121 5557.68682,5171.84933 C5557.83729,5171.92017 5557.98911,5171.95742 5558.14379,5172.01023 C5558.08057,5171.72789 5558.10261,5171.39726 5557.93521,5171.17289 C5557.52604,5170.6372 5556.97889,5169.8017 5556.57926,5169.71713 C5555.5768,5169.49755 5554.99188,5168.53854 5554.09122,5168.12517 C5552.83682,5167.54916 5552.34797,5166.64162 5552.24795,5165.53464 C5552.16176,5164.53362 5552.44099,5164.34229 5553.43231,5164.9415 C5554.52113,5165.59996 5555.58004,5166.36199 5556.63928,5167.10527 C5557.09354,5167.42549 5557.43734,5167.57504 5557.81368,5167.32819 C5558.28005,5167.02828 5558.25731,5166.80225 5557.54276,5165.83451 C5556.69985,5164.69094 5555.87062,5163.57056 5554.44427,5163.45186 C5553.53557,5163.37356 5553.0328,5162.59509 5552.55142,5161.89198 C5551.92054,5160.96967 5551.21528,5160.32891 5550.18865,5160.1519 C5549.42859,5160.0219 5548.68985,5159.74164 5548.93728,5158.75292 C5548.0636,5157.53414 5548.48569,5156.11304 5547.10055,5154.94899 C5546.978,5154.84566 5547.04775,5154.46738 5547.02851,5154.21943 C5547.30082,5154.3897 5547.63412,5154.51288 5547.83588,5154.73978 C5548.97209,5156.01423 5548.63228,5154.98549 5548.97673,5154.54478 C5549.31005,5154.11518 5550.5211,5154.80358 5551.06891,5154.21966 C5551.50204,5153.75949 5551.63167,5153.49184 5551.05987,5152.81915 C5550.62915,5152.30959 5550.34469,5151.61251 5549.59593,5151.46202 C5549.44784,5151.43487 5549.26946,5151.39651 5549.14055,5151.29954 C5548.882,5151.1017 5548.59172,5150.88489 5548.41311,5150.63027 C5547.92767,5149.93582 5548.44065,5149.28535 5547.70025,5148.50465 C5547.12041,5147.89065 5546.61629,5147.14577 5546.25087,5146.42821 C5546.05038,5146.0342 5546.14472,5145.54385 5546.21391,5145.1523 C5546.32097,5144.55712 5546.90017,5145.2086 5547.23817,5145.1935 C5547.36884,5145.18738 5547.54992,5145.25068 5547.62913,5145.19 C5548.63591,5144.41951 5549.14113,5145.65157 5549.87159,5146.78768 C5549.96924,5147.20607 5549.96924,5147.20607 5549.96924,5147.20607 C5549.87079,5146.92666 5549.80598,5146.64591 5549.77465,5146.37318 C5549.65528,5146.3588 5549.67873,5146.4966 5549.84502,5146.78656 C5549.92781,5146.9296 5549.96845,5147.06867 5549.87159,5146.78768 C5550.2123,5146.24474 5550.14479,5145.84692 5549.9614,5145.41281 C5549.40059,5144.09347 5548.12701,5143.77152 5547.1489,5143.03936 C5547.46369,5142.27357 5547.81483,5141.53137 5548.07697,5140.73525 C5548.18259,5140.40866 5548.03094,5139.80927 5548.68466,5140.26196 C5549.04938,5140.51499 5549.46777,5140.96777 5549.40676,5141.47551 C5549.37328,5141.74387 5549.30893,5142.07991 5549.45566,5142.32492 C5549.69901,5142.72678 5550.16026,5143.46381 5550.52022,5143.26096 C5551.63952,5142.63144 5552.31582,5143.50379 5553.07936,5144.53316 C5553.24748,5144.76141 5553.64814,5145.01539 5553.87075,5145.02802 C5554.26744,5145.05565 5554.59168,5144.79172 5554.98615,5144.85843 C5555.57617,5144.96476 5556.21804,5145.33255 5556.80966,5145.4373 C5557.20325,5145.50948 5557.52376,5145.23547 5557.91973,5145.25921 C5558.33519,5145.28652 5558.82087,5145.55234 5559.24627,5145.59276 C5559.78874,5145.64524 5559.92801,5144.85667 5559.49793,5144.30962 C5558.97766,5143.64074 5558.54607,5142.86028 5557.6163,5142.68787 C5557.38248,5142.64499 5557.08195,5142.34168 5556.84249,5142.12479 C5556.34512,5141.67257 5556.11817,5140.76606 5555.409,5140.76949 C5554.88594,5140.77133 5554.52622,5141.19044 5554.04133,5141.33841 C5553.86135,5141.39377 5553.53696,5141.20643 5553.27865,5141.13273 C5553.27642,5140.98755 5553.21193,5140.78018 5553.28422,5140.71259 C5553.62517,5140.38592 5554.06314,5140.14662 5553.91062,5139.46058 C5553.87794,5139.31357 5553.83714,5139.09175 5553.91071,5139.04131 C5554.52985,5138.6303 5555.07034,5138.01683 5555.84472,5137.94828 C5556.31299,5137.90443 5557.14715,5138.73429 5557.82593,5139.13892 C5559.53873,5140.16001 5561.17406,5141.23082 5562.34176,5143.04502 C5562.59004,5143.43275 5563.11048,5143.35522 5563.00806,5142.75734 C5562.90603,5142.18209 5563.21532,5142.06208 5563.68334,5142.44687 C5564.07581,5142.76891 5564.39297,5143.24448 5564.6741,5143.67772 C5565.56917,5145.064 5566.68106,5145.56124 5567.83423,5145.33089 C5568.26648,5145.24471 5568.67908,5145.16433 5568.99329,5145.58295 C5570.08273,5147.03309 5570.51427,5146.11386 5571.14645,5145.85565 C5571.59445,5145.67082 5571.56551,5145.25751 5571.2307,5144.80879 C5570.89589,5144.36007 5570.57237,5143.79872 5570.87729,5143.61398 C5571.55505,5143.20431 5571.591,5142.74462 5570.84583,5141.87656 C5570.06392,5140.96228 5569.13233,5140.02242 5569.44085,5138.93585 C5569.4966,5138.73738 5569.56333,5138.53716 5569.68613,5138.3961 C5569.72287,5138.3502 5570.0188,5138.46464 5570.1054,5138.56701 C5570.66766,5139.24923 5571.20534,5139.95138 5571.75185,5140.64011 C5572.08022,5141.05381 5572.40151,5141.46997 5572.75533,5141.85826 C5572.84814,5141.96365 5573.06549,5142.00915 5573.19759,5142.01082 C5573.27656,5142.01026 5573.32802,5141.88056 5573.35069,5141.78883 C5573.51819,5141.04116 5572.96508,5139.95826 5573.6531,5139.45082 C5573.04061,5137.49214 5573.13429,5137.40779 5571.93573,5136.12191 C5570.43235,5134.50936 5569.87242,5132.81603 5569.37102,5131.08267 C5569.25213,5130.67167 5569.18303,5129.99905 5568.76184,5130.21699 C5567.33905,5130.9469 5566.0581,5129.44848 5564.69681,5128.81338 C5563.95688,5128.46521 5564.11881,5128.13767 5564.15914,5127.83484 C5564.20988,5127.42486 5564.08272,5127.40906 5563.71665,5127.18963 C5562.60445,5126.52688 5561.78981,5127.40029 5560.83818,5126.71999 C5560.07503,5126.1739 5559.71781,5125.01975 5558.57068,5124.80184 C5558.25042,5124.73935 5557.78408,5123.93371 5557.48139,5123.89511 C5555.35033,5123.60956 5554.11758,5121.94324 5552.86074,5120.26874 C5552.54581,5119.84623 5552.20082,5119.44452 5551.88979,5119.02272 C5551.80191,5118.90319 5551.77646,5118.74435 5551.73972,5118.606 C5551.63483,5118.19944 5551.80336,5118.17395 5552.24983,5118.40061 C5553.26366,5118.91746 5554.34271,5118.81642 5555.3108,5119.77049 C5555.58717,5119.47146 5556.01615,5119.62346 5556.36806,5119.93995 C5556.71305,5120.24953 5556.96849,5120.67617 5557.2357,5121.23847 C5557.14494,5121.65615 5557.05062,5121.87011 5556.92687,5122.0674 C5557.05293,5121.87242 5557.08482,5121.60564 5557.21676,5121.43242 C5557.50729,5121.03634 5556.67089,5120.7062 5557.26544,5121.05215 C5557.38545,5121.12116 5557.36302,5121.2449 5557.2357,5121.23847 C5557.5617,5120.6872 5558.06201,5121.01211 5558.47739,5121.1823 C5558.89348,5121.35638 5559.14241,5121.24598 5558.86048,5120.8596 C5557.97264,5119.64574 5557.0013,5118.46921 5556.01953,5117.3077 C5555.93523,5117.20763 5555.4579,5117.23289 5555.29558,5117.35354 C5554.92656,5117.62993 5554.42322,5117.48309 5554.16126,5117.07217 C5553.18197,5115.53507 5551.57032,5115.18683 5550.35394,5114.12142 C5549.99423,5113.8035 5549.56915,5113.56009 5549.22289,5113.23335 C5548.25576,5112.31518 5548.23103,5111.79172 5549.08876,5111.23456 C5549.39472,5111.03497 5549.71594,5110.85698 5550.03112,5110.6666 C5551.12471,5111.32029 5551.58987,5111.41313 5551.60683,5110.73749 C5551.64081,5109.33546 5552.03345,5109.55601 5552.94244,5110.7211 C5553.08853,5110.91147 5553.51616,5111.00494 5553.793,5111.04632 C5554.24146,5111.10977 5554.37578,5111.25661 5554.25696,5111.62402 C5554.21982,5111.73942 5554.21799,5111.89326 5554.26252,5112.03304 C5554.34626,5112.3041 5554.47533,5112.57596 5554.58722,5112.84655 C5554.84696,5112.8359 5555.17995,5112.70143 5555.35126,5112.83438 C5556.06804,5113.39452 5557.99136,5114.40346 5559.13904,5114.72676 C5559.44252,5114.81062 5559.74958,5114.91394 5560.05385,5115.04307 C5560.55377,5115.25321 5560.78639,5115.22819 5560.7779,5114.6701 C5560.76829,5113.90122 5560.71938,5113.60458 5560.19959,5113.27611 C5559.92267,5113.10122 5559.56916,5113.06271 5559.34052,5112.85344 C5558.46834,5112.05234 5558.13856,5110.70957 5556.87175,5110.31177 C5555.96106,5110.02817 5555.37551,5109.01453 5554.38116,5108.77763 C5553.79249,5108.63771 5553.45578,5107.8408 5553.56427,5107.2534 C5553.63402,5106.87511 5553.53565,5106.63709 5553.1967,5106.61628 C5552.93425,5106.60199 5552.58066,5106.61423 5552.49103,5106.78205 C5552.33101,5107.08926 5552.38182,5107.54982 5552.24025,5107.87545 C5552.19389,5107.98164 5551.74248,5107.95337 5551.60235,5107.82614 C5550.40562,5106.75493 5550.07178,5105.60507 5550.29202,5104.46847 C5550.57819,5102.99425 5550.43991,5102.1604 5549.43793,5101.72845 C5547.74286,5100.99828 5547.00778,5100.13396 5546.92892,5098.51757 C5546.90738,5098.08306 5546.18598,5097.42618 5545.78652,5096.87159 C5544.82639,5095.54106 5544.80476,5095.43368 5545.40076,5095.05038 C5546.29635,5094.47385 5547.75849,5094.69501 5548.54549,5095.58578 C5549.13002,5096.24576 5549.58197,5097.02432 5550.20801,5097.63363 C5550.65949,5098.07179 5551.40524,5097.84757 5551.86808,5098.583 C5552.21299,5099.12758 5552.60101,5099.15927 5553.03007,5099.07626 C5555.40761,5098.61359 5555.45652,5098.63384 5557.85628,5100.17576 C5558.11228,5100.33928 5558.39365,5100.43601 5558.66198,5100.56419 C5558.58548,5100.28129 5558.58859,5099.96035 5558.42063,5099.72273 C5557.5448,5098.49227 5558.02666,5098.52236 5559.02196,5098.88728 C5559.26047,5098.97615 5559.57278,5098.86233 5559.7223,5098.71302 C5559.87572,5098.56442 5560.00893,5098.22409 5559.90054,5098.02372 C5559.58068,5097.43108 5560.0825,5098.17366 5559.48055,5097.84892 C5559.14979,5097.66792 5558.54131,5097.81955 5558.61584,5097.06798 C5558.6942,5096.27575 5558.34627,5095.63284 5557.3691,5095.30509 C5556.75888,5095.09916 5556.14849,5094.90261 5555.53994,5094.64434 C5555.48093,5094.62036 5555.33763,5094.03566 5555.4314,5093.99269 C5556.16188,5093.65474 5556.19664,5093.12714 5555.4191,5092.27759 C5555.17726,5092.01701 5554.91235,5091.7334 5554.78273,5091.44828 C5554.68777,5091.23909 5554.78027,5090.99471 5554.83602,5090.79623 C5554.84517,5090.76407 5555.20321,5090.85794 5555.2627,5090.94593 C5556.08063,5092.17893 5556.73365,5092.07496 5557.42659,5091.55338 C5558.11318,5091.03816 5558.13879,5091.00338 5556.97131,5090.32673 C5556.27838,5089.92702 5555.80107,5089.03099 5554.94557,5088.9963 C5554.67605,5088.98448 5554.42427,5088.52654 5554.67097,5088.36308 C5555.15181,5088.03951 5555.45674,5087.39413 5556.34404,5087.67343 C5556.80204,5087.81948 5557.26045,5087.98816 5557.7167,5088.14517 C5559.67533,5088.82403 5560.17564,5089.51744 5559.85304,5091.11096 C5559.58587,5092.43262 5559.59271,5092.49028 5560.63939,5092.77625 C5561.35531,5092.97336 5562.16315,5093.64986 5562.79096,5093.23479 C5563.25597,5093.42912 5563.70506,5093.73147 5564.14589,5093.96838 C5564.12569,5093.96091 5563.99534,5093.85616 5563.95494,5093.84123 C5563.53861,5093.63514 5563.17461,5093.386 5562.79096,5093.23479 C5562.21049,5092.56615 5562.55533,5092.33233 5562.83489,5091.938 C5563.36767,5091.18023 5563.80787,5090.80972 5564.70607,5090.86164 C5564.70607,5090.86164 5564.91308,5090.96353 5564.90919,5090.96282 C5564.9037,5090.96369 5565.05123,5090.88546 5565.03954,5090.88332 C5565.03174,5090.88189 5565.04359,5091.05892 5565.03898,5091.05431 C5565.03047,5091.04899 5564.89471,5090.89436 5564.89082,5090.89364 C5564.88692,5090.89293 5564.70607,5090.86164 5564.70607,5090.86164 C5564.04162,5090.07419 5564.50393,5089.50656 5564.38648,5088.82695 C5564.38235,5088.79423 5564.95536,5088.79779 5564.99178,5088.86276 C5565.49311,5089.72558 5566.22876,5089.86614 5566.94976,5090.13187 C5567.45867,5090.31922 5567.70966,5090.27124 5567.60382,5089.73666 C5567.49654,5089.19429 5567.86644,5088.72816 5567.2641,5088.1044 C5567.51605,5088.09232 5567.91123,5087.97866 5567.99553,5088.07873 C5569.13261,5089.43983 5570.38836,5090.35077 5571.95516,5090.67009 C5572.27224,5090.73577 5572.64419,5091.34548 5573.03101,5091.58564 C5573.23293,5091.71104 5573.52362,5091.58198 5573.77715,5091.56831 C5572.0705,5089.40332 5570.37323,5087.23817 5568.65863,5085.08112 C5568.31873,5084.6559 5568.0349,5084.19773 5568.24041,5083.88194 C5568.42985,5083.59142 5568.83974,5083.48609 5569.15333,5083.2973 C5568.83651,5082.25022 5569.0596,5081.77408 5569.73002,5081.97977 C5572.03683,5082.68864 5572.08582,5082.75027 5572.93019,5082.24331 C5573.30144,5082.01997 5573.70004,5082.1194 5574.14659,5082.29531 C5575.0459,5082.65014 5574.63522,5081.97316 5574.45844,5081.65683 C5574.21413,5081.21907 5573.77975,5080.83293 5573.51119,5080.39635 C5573.36749,5080.15754 5573.40145,5079.86106 5573.35597,5079.59325 C5573.51065,5079.64606 5573.68792,5079.65789 5573.81206,5079.75963 C5574.32017,5080.17809 5574.71311,5080.84053 5575.38839,5080.89858 C5576.15187,5080.96528 5576.56611,5082.39874 5577.35003,5082.04427 C5578.02604,5081.73769 5578.57154,5081.2436 5579.14972,5080.80439 C5579.22416,5080.74847 5579.22099,5080.47527 5579.14806,5080.39608 C5577.63401,5078.76655 5579.03826,5078.71386 5579.64866,5078.26552 C5580.02547,5077.99055 5579.31887,5077.01487 5580.10804,5077.08817 C5580.58267,5077.13009 5581.47195,5077.79896 5580.89364,5076.58922 C5580.75853,5076.30498 5580.39874,5075.94568 5580.42762,5075.76484 C5580.60602,5074.78978 5579.98713,5074.5879 5579.17148,5074.27849 C5578.83197,5074.1523 5578.2966,5073.54458 5578.46083,5073.12722 C5578.57767,5072.83089 5578.93587,5072.639 5579.2718,5072.56148 C5579.49162,5072.50779 5579.89523,5072.81872 5580.15958,5072.81267 C5580.27999,5072.8122 5580.37312,5072.4382 5580.2936,5072.24123 C5579.73597,5070.82659 5578.29228,5070.53173 5577.33047,5069.62206 C5577.15273,5069.45408 5577.16387,5069.07445 5577.08896,5068.78996 C5577.22678,5068.82276 5577.37884,5068.89201 5577.50012,5068.88605 C5577.80925,5068.86754 5578.4679,5069.58248 5578.38998,5068.73903 C5578.32382,5068.03123 5578.56409,5067.3721 5577.77343,5066.60475 C5577.52188,5066.36308 5577.24171,5066.05786 5577.12998,5065.77791 C5576.92925,5065.25977 5577.09595,5065.01959 5577.6952,5065.3194 C5578.27973,5065.61086 5578.58473,5065.28324 5578.25446,5064.88987 C5577.55629,5064.0624 5577.67957,5063.43258 5577.6733,5062.74329 C5577.66894,5062.12578 5578.10627,5061.83184 5578.72588,5062.03761 C5579.79713,5062.39578 5580.86719,5062.77817 5581.93844,5063.13634 C5582.02863,5063.16604 5582.1686,5063.11838 5582.19166,5063.04929 C5582.23429,5062.93301 5582.26579,5062.73573 5582.18857,5062.6332 C5581.66186,5061.9293 5581.13213,5061.2192 5580.55007,5060.55215 C5580.10535,5060.03815 5580.06473,5059.53056 5580.43128,5059.4455 C5581.37092,5059.22111 5581.24791,5058.13249 5581.83699,5057.65015 C5582.81853,5058.31902 5583.32936,5057.38049 5584.32203,5057.85398 C5584.86259,5058.11105 5584.44474,5058.40857 5584.72922,5058.0001 C5584.79014,5057.91163 5584.79818,5057.66868 5584.72295,5057.58719 C5583.4307,5056.20139 5584.60839,5055.08058 5583.72175,5053.75037 C5584.40428,5053.2438 5583.87901,5052.17917 5584.01001,5051.41728 C5584.05376,5051.14327 5584.30388,5051.00865 5584.58747,5051.34269 C5585.35555,5052.24315 5586.24268,5053.08461 5586.65684,5054.20031 C5587.03968,5055.22754 5587.11086,5055.22555 5587.55471,5055.37652 C5588.50229,5055.69697 5588.52336,5055.69895 5588.16376,5054.59326 C5587.86562,5053.68873 5587.66816,5052.84028 5588.23673,5052.27709 C5588.8269,5053.20321 5589.54551,5053.79377 5590.56603,5054.00914 C5591.66909,5054.24342 5592.01187,5053.94717 5591.38075,5052.71647 C5590.95401,5051.88049 5591.23205,5051.62125 5591.70875,5051.44921 C5592.1336,5051.29211 5592.90399,5051.91849 5593.081,5052.54322 C5593.16283,5052.83461 5593.04171,5053.10758 5593.11964,5053.39826 C5593.19169,5053.66718 5593.39162,5053.9558 5593.55982,5054.22543 C5593.81876,5054.63016 5594.48894,5054.80384 5594.70853,5054.53388 C5595.04948,5054.11508 5595.65721,5051.89135 5595.68895,5051.44969 C5595.73867,5050.77818 5595.18937,5050.29952 5594.7767,5049.78575 C5594.41604,5049.33981 5594.13922,5048.74566 5594.44548,5048.61946 C5595.34449,5048.25601 5594.77286,5046.92904 5595.55313,5046.42161 C5596.01719,5046.1194 5595.07398,5045.95581 5594.7596,5045.73081 C5594.50161,5045.54624 5594.24148,5045.35 5593.98436,5045.15995 C5594.30185,5044.97187 5594.57504,5044.58389 5594.94628,5044.63694 C5595.64589,5044.73517 5596.58353,5045.3189 5596.85609,5044.59989 C5597.12778,5043.88637 5595.97024,5043.22282 5595.75879,5042.55418 C5595.49159,5041.71549 5595.38766,5040.88419 5594.90088,5040.03908 C5595.6188,5039.33595 5595.27956,5038.04409 5595.60389,5037.17664 C5595.87097,5036.45851 5596.84974,5036.13977 5597.63979,5035.83907 C5598.05453,5035.67823 5598.40771,5036.38039 5598.71548,5036.76399 C5599.13968,5037.28927 5599.49357,5037.90319 5600.19788,5037.77102 C5601.86617,5037.45465 5603.66687,5037.76611 5605.59504,5038.53527 C5606.85692,5039.03933 5606.85429,5038.96364 5607.18469,5037.27942 C5607.2068,5037.17443 5607.38471,5037.14877 5607.48977,5037.08531 C5606.79184,5036.28984 5607.16412,5035.77526 5607.68337,5035.81409 C5608.50172,5035.87205 5609.32915,5035.67221 5610.0861,5035.93889 C5611.06772,5036.28062 5611.57633,5035.56542 5612.56908,5036.08029 C5613.3945,5036.50431 5612.8779,5035.61988 5612.95529,5035.34453 C5613.12151,5034.76395 5613.48839,5034.56801 5614.1903,5034.8528 C5614.67018,5035.04611 5615.1266,5035.10161 5614.87116,5034.49071 C5614.71267,5034.11005 5614.36434,5033.53663 5613.79181,5033.50495 C5613.2662,5033.47248 5612.93599,5034.04178 5612.25944,5033.50594 C5612.00869,5033.30953 5611.78617,5032.96977 5611.66593,5032.68449 C5611.48716,5032.25498 5611.64272,5032.11806 5611.99042,5032.26832 C5613.26566,5032.81431 5613.85681,5032.30227 5614.23037,5031.43633 C5614.34108,5031.17837 5613.84969,5030.42078 5614.71854,5030.77379 C5615.48018,5031.08646 5616.2536,5031.25839 5617.00944,5031.59068 C5617.8592,5031.96275 5618.39133,5031.79524 5618.96817,5031.48175 C5619.79671,5031.03205 5620.3392,5029.97899 5621.87743,5030.82893 C5622.5093,5030.49733 5623.43884,5030.45347 5623.26851,5029.34301 C5623.24521,5029.19584 5623.29206,5029.06154 5623.25707,5028.91223 C5622.67942,5026.3752 5624.25427,5025.62242 5625.92471,5024.94921 C5628.01178,5025.93741 5626.79653,5024.06936 5627.02821,5023.45567 C5625.83259,5022.1346 5626.6345,5021.18176 5626.4427,5020.04667 C5626.3895,5019.72669 5626.78024,5019.41479 5627.08841,5019.26825 C5627.59526,5019.02466 5627.70263,5018.59499 5627.69421,5017.98614 C5627.68603,5017.31718 5627.39617,5016.4781 5628.10915,5016.15762 C5628.5511,5015.9604 5629.16221,5015.79234 5628.90017,5015.06365 C5628.7517,5014.64534 5628.24646,5014.24245 5627.96143,5013.80849 C5627.78989,5013.55141 5627.57112,5013.03748 5627.64294,5012.99801 C5628.53288,5012.52384 5627.99911,5010.99324 5629.09797,5010.60064 C5629.85708,5010.32623 5631.02075,5010.21438 5630.8008,5008.89551 C5630.72645,5008.44003 5630.81401,5008.30192 5631.22748,5008.58457 C5631.7631,5008.94791 5632.26675,5009.44452 5632.80731,5009.7016 C5633.36488,5009.96932 5634.06242,5010.37364 5634.46262,5009.91871 C5635.03668,5009.26251 5635.90831,5009.58971 5636.84365,5009.89475 C5638.40798,5010.4054 5638.80205,5010.26522 5639.18246,5008.81203 C5639.337,5008.22932 5639.65456,5008.35901 5639.96559,5008.68868 C5640.57151,5009.3319 5641.05527,5010.07869 5641.63733,5010.74574 C5641.83289,5010.96962 5642.17892,5011.08009 5642.45528,5011.24171 C5642.46379,5010.97064 5642.47621,5010.70029 5642.47852,5010.42621 C5642.48258,5010.14117 5642.51782,5009.86184 5642.46501,5009.56449 C5642.29055,5008.60556 5642.99683,5009.13933 5643.48785,5009.13726 C5644.455,5009.13414 5644.9968,5010.88244 5645.89525,5010.41359 C5646.69977,5009.99709 5647.61331,5010.66477 5648.47596,5010.92263 C5648.91393,5011.05184 5649.00021,5011.08083 5648.97446,5010.66435 C5648.91356,5009.64728 5648.81345,5008.59105 5648.97213,5007.67254 C5649.06185,5007.17759 5649.55086,5007.70724 5649.92035,5008.04763 C5650.55609,5008.63804 5651.18294,5008.73984 5651.39155,5008.3795 C5651.59364,5008.03489 5651.4761,5007.68242 5651.13963,5007.19391 C5650.06824,5005.64744 5650.09655,5005.63759 5650.76429,5005.08131 C5651.6707,5004.32814 5651.67229,5004.32655 5651.03074,5003.47937 C5650.08175,5002.22986 5649.13116,5000.98193 5648.1995,4999.72431 C5648.12387,4999.62019 5648.13636,4999.39121 5648.20332,4999.31513 C5648.25033,4999.26358 5648.5251,4999.33466 5648.60335,4999.42234 C5649.29842,5000.20224 5649.95953,5001.00224 5650.64594,5001.7862 C5651.09455,5002.30092 5652.0967,5002.35498 5652.04708,5001.77807 C5651.95429,5000.75139 5652.41612,5000.304 5653.13372,4999.98813 C5653.73314,4999.72579 5654.02733,4999.29841 5654.06567,4998.51389 C5654.09074,4998.0052 5654.69507,4998.46575 5654.97636,4998.88961 C5655.34449,4999.44786 5655.78937,4999.58398 5656.1327,4999.39312 C5656.7893,4999.03222 5657.34617,4998.65114 5658.43428,4999.12146 C5659.00474,4999.3671 5659.45727,4998.59273 5659.03419,4998.09397 C5657.67228,4996.48294 5659.71404,4996.3648 5659.22814,4995.14569 C5659.1607,4994.9735 5659.78135,4994.70378 5660.14536,4994.5844 C5661.50245,4994.13199 5662.0517,4993.09521 5661.68503,4991.4392 C5661.30658,4989.73967 5662.57428,4989.48709 5663.48085,4988.9088 C5663.56857,4988.85344 5663.76954,4988.85082 5663.87308,4988.92246 C5665.34722,4989.95618 5665.61208,4988.17157 5667.00153,4988.71407 C5668.10514,4989.14586 5668.88923,4988.59776 5668.75795,4987.35156 C5668.71414,4986.93929 5668.83288,4986.99115 5669.2609,4987.10725 C5670.78308,4987.5218 5671.62515,4986.82828 5671.93462,4985.68548 C5672.07476,4985.16781 5672.62113,4984.94462 5672.57772,4984.46285 C5672.48851,4983.45564 5672.931,4983.54807 5673.79469,4983.79109 C5674.28101,4983.92728 5674.68423,4983.38642 5675.35767,4983.78256 C5675.81361,4984.05044 5675.81441,4983.91145 5675.87891,4983.56604 C5676.10925,4982.34104 5676.76682,4981.37114 5677.10953,4980.20435 C5675.62897,4978.85922 5677.23554,4978.58606 5677.08724,4977.69773 C5676.9309,4976.77597 5677.79697,4976.78628 5678.22882,4976.40108 L5680.26583,4975.18216 C5679.90789,4974.02412 5680.97216,4973.6891 5680.96653,4972.68593 C5680.95962,4972.12625 5682.7036,4973.15305 5682.19344,4971.75088 C5682.64899,4971.35122 5682.99782,4970.88311 5682.82311,4970.07643 C5683.24652,4970.18793 5683.75097,4970.45342 5684.07274,4970.38082 C5684.57664,4970.26454 5684.95775,4969.9208 5685.38579,4969.66839 C5686.03101,4969.2866 5686.81017,4969.02902 5687.28067,4968.48545 C5687.87874,4967.79606 5689.05846,4968.85663 5689.62607,4968.34967 C5690.42702,4967.63733 5691.12171,4967.7497 5692.12653,4969.1185 C5692.92896,4970.20577 5694.0531,4970.53415 5694.9218,4970.06737 C5695.64052,4969.6859 5696.13138,4969.32468 5697.12491,4970.62185 C5697.54561,4971.16906 5698.1436,4970.62255 5698.54896,4970.36974 C5699.03163,4970.07659 5699.62508,4970.02749 5700.01738,4970.81955 C5701.07182,4972.94953 5702.81453,4973.22215 5704.45744,4973.80174 C5705.11339,4974.03109 5705.23022,4973.91903 5705.51694,4973.10297 C5705.71577,4972.5359 5706.00288,4972.01886 5706.11948,4971.41414 C5706.19592,4971.01076 5706.24865,4970.89822 5706.77513,4970.92521 C5708.26869,4970.99984 5708.22582,4970.89985 5708.71766,4969.74537 C5709.09615,4968.86529 5709.09289,4968.82709 5710.81637,4968.75963 C5711.15119,4968.74771 5711.35709,4968.9152 5711.30015,4968.493 C5711.11424,4967.10329 5711.32334,4965.97781 5712.63797,4965.6323 C5713.42642,4965.42531 5713.16415,4964.57249 5713.17721,4963.89613 C5713.19074,4963.37592 5713.2103,4963.42088 5714.34924,4963.24621 C5714.68311,4963.19839 5715.06979,4962.89515 5715.06725,4962.58445 C5715.05923,4961.90612 5715.14672,4961.54236 5715.98693,4962.0161 C5716.40279,4962.2503 5716.41313,4962.10178 5716.41926,4961.69491 C5716.439,4960.8092 5716.27534,4960.04215 5715.47005,4959.12358 C5714.77442,4958.33041 5715.03442,4957.61474 5715.90447,4957.75927 C5717.64384,4958.04444 5719.2287,4958.1753 5720.53299,4957.3334 C5721.14013,4956.93899 5722.2964,4957.12473 5723.25305,4957.2795 C5724.13566,4957.4207 5725.34561,4957.62193 5725.95201,4958.23703 C5728.14236,4960.46254 5729.23257,4959.42908 5730.47181,4958.64295 C5730.88672,4958.38061 5731.2695,4958.07666 5731.97952,4958.43626 C5733.29182,4959.10187 5734.34208,4959.13091 5735.12483,4958.34002 C5735.4645,4957.9962 5735.96562,4957.8136 5736.39683,4957.55801 C5737.25146,4957.04541 5737.96446,4956.17216 5739.00589,4956.1225 C5740.04343,4956.07213 5741.41227,4956.76878 5742.62477,4957.28071 C5743.80306,4957.78072 5744.73323,4957.79151 5745.32757,4957.09203 C5745.89558,4956.42345 5746.98408,4957.19279 5747.64919,4956.92933 C5748.24495,4956.69828 5748.70416,4956.26733 5749.28854,4956.0154 C5749.44688,4955.94479 5749.88938,4956.12936 5750.09727,4956.3179 C5751.46077,4957.55883 5753.10852,4958.17503 5754.46725,4959.42073 C5754.87913,4959.79709 5755.28338,4959.79415 5755.62981,4959.55874 C5755.97783,4959.32174 5756.37357,4959.49773 5756.79005,4959.97083 C5757.24042,4960.47459 5757.49426,4961.27134 5758.19976,4961.39133 C5758.58484,4961.4582 5758.90765,4961.18649 5759.24772,4961.04956 C5760.15929,4960.68278 5760.19961,4960.65633 5761.05636,4961.81372 C5761.79469,4962.80838 5762.51258,4963.76357 5763.72913,4963.99045 C5764.45799,4965.22027 5766.24693,4965.02756 5766.72693,4966.59343 C5767.97028,4967.12981 5768.93662,4968.00271 5769.74295,4969.18282 C5769.98709,4969.53783 5770.49965,4969.78601 5770.90087,4970.05326 C5773.45746,4971.75179 5776.01581,4973.43936 5778.57327,4975.13242 C5779.91548,4975.32594 5780.22084,4977.23205 5781.73801,4977.52723 C5782.55779,4977.6851 5783.52325,4979.02413 5784.46002,4979.42908 C5785.51321,4979.88359 5786.31572,4981.01223 5787.3558,4981.18042 C5788.75455,4981.405 5789.75811,4982.29601 5790.46471,4983.54807 C5791.13416,4984.73128 5792.55472,4984.40896 5793.18599,4985.72241 C5793.722,4986.84542 5794.83334,4986.77662 5795.6897,4987.08222 C5796.37277,4987.32595 5796.35448,4987.66667 5796.29355,4988.03153 C5796.22984,4988.4222 5796.31088,4988.5762 5796.69619,4988.67507 C5798.10035,4989.04165 5799.40414,4989.60981 5800.29317,4991.16796 C5800.5339,4991.58627 5800.87316,4992.04897 5801.4192,4992.12091 C5803.16041,4992.34437 5804.17072,4993.71231 5805.33723,4995.09008 C5805.89822,4995.75515 5807.03524,4995.8772 5807.64274,4996.88734 C5808.17955,4997.77924 5808.87549,4998.55366 5809.94818,4998.73536 C5810.12903,4998.76664 5810.46773,4999.21608 5810.60762,4999.49556 C5811.28232,5000.83015 5812.52829,5001.35009 5813.61409,5002.09449 C5814.70378,5002.8396 5815.9694,5003.35375 5816.60959,5004.69516 C5817.1879,5005.9049 5818.66579,5005.56677 5819.3199,5006.87125 C5819.73812,5007.70191 5820.42198,5008.54369 5821.55757,5008.84221 C5821.97549,5008.95458 5822.49695,5009.78349 5822.92258,5010.31656 C5824.24774,5011.9735 5825.5255,5013.65936 5826.87596,5015.30025 C5827.47957,5016.0333 5827.80467,5016.68519 5827.70763,5017.42698 C5827.54028,5018.71806 5827.9736,5020.2246 5827.1833,5021.32245 C5826.75979,5021.90661 5827.22557,5023.25176 5827.2875,5024.25397 C5828.63494,5025.52016 5827.01358,5025.55935 5827.14113,5026.33482 C5827.31575,5027.3765 5826.30445,5027.72312 5826.4759,5028.86011 C5826.63637,5029.90672 5826.67428,5030.75788 5827.54598,5031.86349 C5828.53625,5033.12246 5829.92585,5033.83984 5830.83803,5034.90963 C5831.89058,5036.13865 5833.58486,5036.27078 5834.24095,5037.87269 C5834.80932,5039.25358 5836.64215,5039.05388 5837.22706,5040.47353 C5838.6429,5041.39502 5840.0006,5042.37919 5840.87841,5043.90708 C5842.44959,5043.92261 5842.99154,5045.93792 5844.45733,5046.4963 C5845.56731,5046.92174 5846.4732,5048.40778 5846.81675,5049.53873 C5847.72873,5052.55259 5849.20162,5055.7295 5847.56741,5058.04323 C5847.58067,5059.33359 5847.61023,5060.6307 5847.60328,5061.9136 C5847.59929,5062.60853 5847.80208,5063.55761 5847.43655,5063.90422 C5846.83737,5064.47495 5847.12732,5064.89477 5847.57442,5065.72884 C5847.8829,5066.30059 5847.64668,5067.13531 5847.37922,5067.64655 C5847.2056,5067.97194 5846.95786,5068.24238 5847.0474,5068.67808 C5847.3344,5070.05437 5846.78452,5070.76012 5845.75119,5071.16098 C5845.27822,5071.3431 5844.8898,5071.6573 5844.49087,5071.94513 C5844.41802,5071.99946 5844.45102,5072.21985 5844.50017,5072.36424 C5844.52848,5072.44652 5844.68897,5072.57184 5844.79156,5072.60758 C5845.40305,5072.83066 5846.01884,5073.07709 5846.62668,5073.23934 C5847.40424,5073.44399 5847.58221,5074.19674 5848.07162,5074.6569 C5847.77044,5075.03599 5847.25486,5074.59735 5846.83367,5074.53891 C5845.85014,5074.40177 5845.48183,5074.95844 5846.05872,5075.69974 C5847.57832,5077.64617 5849.00989,5079.6667 5850.67535,5081.49511 C5851.9295,5082.86828 5851.37666,5084.5305 5852.99418,5085.72965 C5853.05979,5085.77929 5853.00833,5086.00111 5853.05748,5086.1455 C5853.44054,5087.29687 5852.05108,5087.76778 5852.57246,5088.64744 C5853.19952,5089.70254 5853.26599,5090.57586 5853.02525,5091.17097 C5852.79754,5091.73463 5852.33548,5091.87362 5852.90457,5092.88989 C5853.62078,5094.1738 5853.25016,5095.18881 5852.10143,5095.52526 C5851.21674,5095.78229 5850.88358,5096.57103 5851.28383,5097.44728 C5852.30661,5099.69178 5851.80729,5101.47099 5851.92329,5103.43262 C5851.97616,5104.32412 5851.97129,5105.11667 5852.87051,5105.9829 C5853.68511,5106.7678 5852.93513,5107.65495 5853.89726,5108.54588 C5854.19207,5108.81805 5853.79092,5109.23709 5853.46763,5109.44478 C5852.77046,5109.89226 5851.89063,5110.09377 5851.96457,5111.35577 C5852.01298,5112.14117 5850.97855,5111.96273 5850.33017,5111.15002 C5849.34276,5109.90662 5848.29395,5108.68768 5847.40031,5107.40131 C5846.3632,5105.90813 5844.89542,5105.23657 5843.54272,5104.37178 C5843.05235,5104.05998 5842.27154,5103.63287 5841.89814,5104.12092 C5841.6959,5104.38278 5841.66519,5104.80959 5841.6181,5105.18827 C5841.5843,5105.47538 5841.36885,5105.5938 5841.03197,5105.26691 C5840.53508,5104.78658 5840.15693,5104.17385 5839.6738,5103.66596 C5839.55475,5103.54071 5839.21818,5103.56359 5839.00981,5103.58742 C5838.95263,5103.59386 5838.94857,5103.8789 5839.02722,5103.98922 C5839.3264,5104.41824 5839.63147,5104.86903 5840.00756,5105.23508 C5840.87504,5106.08233 5841.05683,5106.88655 5841.0079,5107.78758 C5840.96446,5108.59562 5841.03516,5108.62175 5842.27017,5108.77492 C5842.41452,5108.792 5842.68006,5108.85386 5842.70265,5108.90501 C5843.02361,5109.70843 5843.41384,5110.53019 5843.56708,5111.31225 C5843.62839,5111.61493 5843.16847,5111.85773 5842.89051,5112.06621 C5842.49779,5112.35706 5842.12655,5112.5804 5841.39441,5111.86515 C5840.82531,5111.30953 5840.00458,5111.02363 5839.42522,5110.47364 C5838.79353,5109.87458 5838.32424,5109.10412 5837.7604,5108.42349 C5837.67379,5108.32112 5837.36037,5108.22415 5837.33229,5108.26601 C5837.23344,5108.42462 5837.10284,5108.65637 5837.18412,5108.84237 C5837.30826,5109.12837 5837.61261,5109.39101 5837.81254,5109.67962 C5838.81148,5111.1188 5838.65496,5111.40408 5837.0115,5111.17975 C5836.4975,5111.10804 5836.34607,5111.36982 5836.64525,5111.79884 C5836.95827,5112.24169 5837.32139,5112.58844 5837.81431,5112.65816 C5838.98029,5112.825 5840.1208,5113.38577 5840.24327,5114.00049 C5840.41471,5114.8611 5840.73592,5115.69653 5841.03413,5116.5503 C5841.10642,5116.7591 5840.57103,5116.98053 5840.28042,5117.15098 C5840.19994,5117.1945 5839.98275,5117.0475 5839.83252,5117.00866 C5838.43154,5116.63891 5838.32974,5116.55631 5837.8464,5114.81874 C5837.75725,5114.4978 5837.61331,5114.22697 5837.26927,5114.32181 C5836.77674,5114.45898 5836.29908,5114.68725 5835.97428,5115.03004 C5835.71397,5115.30381 5835.94977,5115.82838 5836.35814,5116.22667 C5836.92724,5116.78229 5837.22864,5117.63289 5837.23952,5118.41892 C5837.24921,5118.95279 5836.9248,5119.50247 5837.53367,5120.11051 C5838.93518,5121.50695 5838.47262,5122.68748 5838.57487,5123.93963 C5838.58488,5124.08624 5838.64429,5124.31712 5838.57088,5124.35818 C5837.5047,5124.89779 5836.94384,5126.25019 5835.19492,5125.69817 C5834.32162,5125.42331 5834.82335,5126.12451 5834.72895,5126.38922 C5834.49043,5127.03738 5834.49369,5127.07559 5833.57449,5126.97093 C5833.21088,5126.92868 5832.80259,5126.57177 5832.74842,5127.2293 C5832.66998,5128.16441 5832.98331,5128.95703 5833.7824,5129.78045 C5833.46643,5130.10982 5833.01932,5129.92065 5832.6554,5129.52863 C5832.16249,5128.99826 5831.74235,5128.46432 5831.18484,5128.88288" id="Paint-11"></path>
        </g>
    </g>
</svg>