<?xml version="1.0" encoding="UTF-8"?>
<svg width="250px" height="310px" viewBox="0 0 250 310" version="1.1" xmlns="http://www.w3.org/2000/svg" xmlns:xlink="http://www.w3.org/1999/xlink">
    <title>Shape 33</title>
    <g id="Page-1" stroke="none" stroke-width="1" fill="none" fill-rule="evenodd">
        <g id="Desktop-HD" transform="translate(-696.000000, -4835.000000)" fill="#000000">
            <path d="M776.5,5088 C792.21474,5088 805,5100.78503 805,5116.50081 C805,5132.21497 792.21474,5145 776.5,5145 C760.78526,5145 748,5132.21497 748,5116.50081 C748,5100.78503 760.78526,5088 776.5,5088 Z M776.5,5092.88511 C763.478097,5092.88511 752.884642,5103.47977 752.884642,5116.50081 C752.884642,5129.52347 763.478097,5140.1165 776.5,5140.1165 C789.521903,5140.1165 800.113726,5129.52347 800.113726,5116.50081 C800.113726,5103.47977 789.521903,5092.88511 776.5,5092.88511 Z M739.901293,4852 L921,5052.61122 C866.110339,5103.08264 781.072614,5099.08965 731.064426,5043.69136 C681.056237,4988.2947 685.011632,4902.47143 739.901293,4852 L739.901293,4852 Z M882.000815,4835 C917.347734,4835 946,4863.877 946,4899.5 C946,4935.123 917.347734,4964 882.000815,4964 C846.653896,4964 818,4935.123 818,4899.5 C818,4863.877 846.653896,4835 882.000815,4835 Z" id="Shape-33"></path>
        </g>
    </g>
</svg>