<?xml version="1.0" encoding="UTF-8"?>
<svg width="310px" height="301px" viewBox="0 0 310 301" version="1.1" xmlns="http://www.w3.org/2000/svg" xmlns:xlink="http://www.w3.org/1999/xlink">
    <title>Shape 34</title>
    <g id="Page-1" stroke="none" stroke-width="1" fill="none" fill-rule="evenodd">
        <g id="Desktop-HD" transform="translate(-1129.000000, -5832.000000)" fill="#000000">
            <path d="M1164.59884,6040.55174 C1188.36769,6021.24039 1225.68555,6019.73359 1251.40273,6037.04151 C1272.37456,6051.16014 1275.74581,6067.32275 1274.87858,6078.39063 C1273.38829,6097.36919 1257.87244,6116.11296 1235.35139,6126.15209 C1210.978,6137.0105 1185.25071,6134.85841 1166.53705,6120.38841 C1152.42056,6109.48271 1144.79903,6092.64609 1146.15461,6075.34662 C1147.22223,6061.71618 1153.77445,6049.35097 1164.59884,6040.55174 Z M1238.82791,5851.10108 C1259.61821,5844.65352 1279.72982,5846.11658 1298.48066,5853.33267 C1299.86668,5853.19982 1301.34533,5853.47729 1302.33222,5854.38708 C1302.58988,5854.6242 1302.72798,5854.86804 1302.81892,5855.11525 C1306.01199,5856.51105 1309.16632,5858.0666 1312.2735,5859.7836 C1312.71642,5859.32113 1313.28565,5858.93771 1313.86161,5858.70732 C1315.96843,5857.87657 1319.02172,5857.88834 1320.77656,5859.51285 C1322.52634,5861.12053 1320.81361,5863.03429 1319.14297,5863.70191 C1319.08234,5863.72546 1319.01666,5863.73891 1318.95604,5863.76245 C1321.96722,5865.68125 1324.93293,5867.73458 1327.84644,5869.93086 C1354.40649,5889.93949 1383.68469,5916.59581 1401.07646,5945.20793 C1405.18905,5951.98174 1408.08908,5958.99939 1409.93655,5966.14653 C1410.48557,5965.26029 1412.43071,5965.21993 1413.17172,5965.44023 C1413.90599,5965.65548 1414.56279,5965.975 1414.87604,5966.70822 C1415.72483,5968.69428 1411.97263,5968.70773 1410.97564,5968.24527 C1410.74155,5968.13428 1410.54283,5968.00311 1410.36431,5967.85849 C1415.6642,5990.48718 1410.45862,6014.33173 1398.95449,6035.88079 C1369.24516,6091.53433 1318.11061,6115.08122 1267.53688,6111.67918 C1270.96235,6107.69864 1273.87418,6103.47258 1276.14772,6099.07498 C1276.55191,6098.29468 1276.9123,6097.50429 1277.27607,6096.71727 C1279.83255,6091.17781 1281.4476,6085.42478 1281.904,6079.62971 C1282.73763,6069.04185 1280.38325,6048.76582 1255.253,6031.92884 C1241.06609,6022.42062 1223.65747,6018.11215 1206.5301,6018.85882 C1204.48223,6018.94794 1202.43772,6019.10434 1200.40501,6019.33978 C1185.59665,6021.03996 1171.32048,6026.55923 1159.88876,6035.80511 C1156.59465,6038.47226 1153.65756,6041.43201 1151.08256,6044.62721 C1145.32629,6036.47442 1140.15945,6027.64896 1135.73361,6018.1441 C1121.79089,5988.02856 1131.32462,5959.45176 1147.71435,5932.64577 C1168.29414,5898.96171 1199.67747,5863.25122 1238.82791,5851.10108 Z M1426.18431,6012.5696 C1427.77527,6011.80979 1429.76909,6011.75825 1431.2508,6012.73157 L1431.2508,6012.73157 L1431.47442,6012.8744 C1432.51572,6013.55911 1431.81925,6014.60164 1431.02718,6015.10671 C1430.54579,6015.41152 1430.01149,6015.59705 1429.45329,6015.76491 C1428.19179,6016.13746 1425.30519,6016.25967 1425.08327,6014.63256 C1425.02353,6014.36899 1425.02694,6014.3204 1425.09351,6014.50593 C1424.8477,6013.76674 1425.07474,6013.10264 1425.9146,6012.70065 C1426.00337,6012.65206 1426.09725,6012.61083 1426.18431,6012.5696 Z M1434.06311,5992.13492 C1435.32447,5991.80396 1437.12503,5992.07056 1438.06061,5993.06037 C1438.47625,5993.36221 1438.79881,5993.74986 1438.88065,5994.33056 C1438.8967,5994.47612 1438.9304,5994.61096 1438.97212,5994.74579 C1439.20803,5995.61455 1437.88729,5996.37452 1437.2502,5996.61508 C1436.17981,5997.01651 1434.69218,5997.1682 1433.5897,5996.75451 C1433.12592,5996.57371 1432.66054,5996.40823 1432.20638,5996.19219 C1431.13921,5995.68656 1430.51174,5994.39798 1431.47942,5993.47559 C1432.25453,5992.73248 1432.99594,5992.41224 1434.06311,5992.13492 Z M1416.478,5985.85116 C1414.49445,5983.4071 1419.22047,5982.69452 1420.87113,5983.11224 L1420.87113,5983.11224 L1421.27991,5983.20889 C1422.93057,5983.62825 1423.74124,5985.26144 1422.11128,5986.27871 C1420.81766,5987.0863 1417.76989,5987.45488 1416.66945,5986.08705 L1416.66945,5986.08705 Z M1426.37375,5964.00473 C1428.012,5963.94622 1429.93624,5964.42305 1429.99841,5965.88133 C1430.09012,5968.05779 1426.17946,5968.24062 1424.7153,5967.81645 C1422.62319,5967.21383 1422.33564,5965.18218 1424.46039,5964.38795 C1424.52567,5964.37039 1424.55365,5964.36015 1424.60494,5964.34553 L1424.60494,5964.34553 L1424.56608,5964.34845 C1424.98264,5964.15246 1425.6339,5964.03837 1426.33645,5964.00765 C1426.33645,5964.00765 1426.34267,5964.0018 1426.3551,5964.00326 C1426.36132,5964.00326 1426.36753,5964.01058 1426.37375,5964.00473 Z M1410.6561,5953.35839 C1412.12314,5952.80912 1414.25345,5952.82201 1415.48913,5953.88672 C1416.7111,5954.94499 1415.50455,5956.20783 1414.34085,5956.64112 C1412.87209,5957.19039 1410.7435,5957.17912 1409.51468,5956.11279 C1408.29099,5955.05452 1409.48383,5953.7933 1410.6561,5953.35839 Z M1401.02842,5938.99877 C1401.29367,5936.21118 1407.61956,5936.38256 1406.95047,5939.24295 C1406.92811,5939.33546 1406.91023,5939.41281 1406.89086,5939.50533 C1406.41697,5941.53156 1400.78999,5941.54218 1401.00606,5939.26418 C1401.0165,5939.17167 1401.02246,5939.08673 1401.02842,5938.99877 Z M1315.12539,5849.245 C1316.23611,5848.82554 1318.79382,5848.79972 1318.99762,5850.35173 C1319.0231,5850.54532 1318.83458,5850.81475 1318.87364,5850.95026 C1319.16746,5851.99246 1316.80336,5852.11991 1316.25649,5851.92147 C1315.95758,5851.80693 1315.54828,5851.84888 1315.23068,5851.74562 C1313.65122,5851.27131 1313.5663,5849.83385 1315.12539,5849.245 Z M1288.02396,5844.00982 C1288.80852,5843.92813 1289.52464,5844.36332 1289.87315,5845.04518 C1290.53517,5846.32876 1288.43295,5846.96349 1287.55769,5846.99805 C1286.6872,5847.03419 1284.53724,5846.57228 1285.08945,5845.23214 C1285.50799,5844.23135 1286.86703,5844.07424 1287.82345,5844.07109 L1287.82345,5844.07109 Z M1251.42502,5838.02748 C1253.35239,5836.6248 1256.36935,5836.78397 1258.42767,5837.75059 C1258.44781,5837.75888 1258.4646,5837.76717 1258.48139,5837.77546 C1259.92356,5838.45691 1260.54978,5840.10497 1259.41485,5841.35179 C1258.37394,5842.49085 1256.63965,5842.93354 1255.14208,5842.99322 C1253.47495,5843.05954 1251.06406,5842.65665 1250.21286,5841.00361 C1249.59,5839.78829 1250.44119,5838.74374 1251.38473,5838.05732 C1251.39648,5838.05235 1251.40991,5838.04074 1251.42502,5838.02748 Z M1295.41847,5838.4305 C1293.59496,5836.5309 1298.24098,5835.18408 1299.58099,5836.56872 C1301.4061,5838.46831 1296.75848,5839.81693 1295.41847,5838.4305 Z M1280.75381,5836.04724 C1277.47032,5832.89048 1285.83172,5830.63424 1288.24619,5832.95247 C1291.52968,5836.11087 1283.16828,5838.36547 1280.75381,5836.04724 Z" id="Shape-34"></path>
        </g>
    </g>
</svg>