<?xml version="1.0" encoding="UTF-8"?>
<svg width="426px" height="327px" viewBox="0 0 426 327" version="1.1" xmlns="http://www.w3.org/2000/svg" xmlns:xlink="http://www.w3.org/1999/xlink">
    <title>Shape 9</title>
    <g id="Page-1" stroke="none" stroke-width="1" fill="none" fill-rule="evenodd">
        <g id="Desktop-HD" transform="translate(-519.000000, -2053.000000)" fill="#000000">
            <path d="M645.725,2105 C651.399726,2105 656,2109.61706 656,2115.3125 L656,2369.6875 C656,2375.38294 651.399726,2380 645.725,2380 L529.275,2380 C523.600274,2380 519,2375.38294 519,2369.6875 L519,2115.3125 C519,2109.61706 523.600274,2105 529.275,2105 L645.725,2105 Z M934.725,2105 C940.399726,2105 945,2109.61706 945,2115.3125 L945,2369.6875 C945,2375.38294 940.399726,2380 934.725,2380 L818.275,2380 C812.600274,2380 808,2375.38294 808,2369.6875 L808,2115.3125 C808,2109.61706 812.600274,2105 818.275,2105 L934.725,2105 Z M790.725,2053 C796.399726,2053 801,2057.61706 801,2063.3125 L801,2317.6875 C801,2323.38294 796.399726,2328 790.725,2328 L674.275,2328 C668.600274,2328 664,2323.38294 664,2317.6875 L664,2063.3125 C664,2057.61706 668.600274,2053 674.275,2053 L790.725,2053 Z" id="Shape-9"></path>
        </g>
    </g>
</svg>