<?xml version="1.0" encoding="UTF-8"?>
<svg width="310px" height="220px" viewBox="0 0 310 220" version="1.1" xmlns="http://www.w3.org/2000/svg" xmlns:xlink="http://www.w3.org/1999/xlink">
    <title>Shape 26</title>
    <g id="Page-1" stroke="none" stroke-width="1" fill="none" fill-rule="evenodd">
        <g id="Desktop-HD" transform="translate(-3262.000000, -3164.000000)" fill="#000000">
            <path d="M3262,3335 L3266.12901,3376.3578 L3302,3378.15596 L3262,3384 L3262,3335 Z M3523.07228,3164 C3522.58343,3167.16123 3525.47051,3194.66307 3526.60585,3197.43961 C3536.65218,3196.58474 3546.75873,3196.44939 3557.09554,3196.00949 C3557.29037,3197.32741 3557.5224,3198.24818 3557.54543,3199.17428 C3557.80757,3209.34722 3558.00771,3219.52372 3558.28225,3229.69666 C3558.72328,3245.94272 3560.0145,3262.14248 3560.94262,3278.36362 C3561.52357,3288.51696 3561.69538,3298.70949 3561.58379,3308.88065 C3561.44033,3322.04918 3565.51943,3366.45783 3563.37626,3371.98598 C3561.72195,3372.18367 3560.02335,3372.54877 3558.32122,3372.56302 C3540.61085,3372.72687 3522.90402,3373.39295 3505.18833,3372.66988 C3498.57993,3372.39917 3491.94496,3372.44547 3485.33656,3372.69837 C3473.45348,3373.15074 3461.59698,3372.73399 3449.72807,3372.2834 C3441.95421,3371.98776 3434.16441,3372.09462 3426.38701,3371.84885 C3415.69596,3371.51046 3404.99782,3371.20057 3394.32449,3370.52736 C3381.68687,3369.73126 3369.09354,3369.22547 3356.40456,3369.831 C3339.12813,3370.65559 3321.8092,3370.42228 3304.51861,3369.76332 C3296.11951,3369.44275 3287.80366,3370.2424 3279.45769,3370.76957 C3278.68367,3370.81766 3277.91674,3371.01535 3277.14272,3371.04028 C3275.54154,3371.09015 3274.4735,3370.32611 3274.24324,3368.77132 C3274.01475,3367.23077 3273.92088,3365.65639 3273.93328,3364.09804 C3274.00767,3355.09876 3274.27512,3346.09949 3274.19896,3337.102 C3274.12457,3328.29863 3273.79512,3319.49705 3273.43025,3310.7008 C3273.08132,3302.29459 3272.58538,3293.89729 3272.07704,3285.49999 C3271.64133,3278.28703 3270.97181,3271.08833 3270.63173,3263.87359 C3270.21727,3255.07735 3270.03838,3246.27042 3269.76207,3237.46884 C3269.58495,3231.80177 3269.02879,3226.19704 3267.98554,3220.60121 C3266.70141,3213.71952 3265.79809,3206.75412 3266.03898,3199.43431 C3267.40281,3199.17428 3268.48502,3198.8448 3269.5814,3198.78425 C3275.21387,3198.47792 3280.8481,3198.23749 3286.48233,3197.98637 C3287.45473,3197.94185 3288.43775,3197.86883 3289.40129,3197.95966 C3300.85928,3199.06208 3312.34383,3198.48326 3323.81599,3198.42805 C3331.78114,3198.38709 3339.74806,3197.97925 3347.71321,3197.73347 C3352.37505,3197.58921 3357.03511,3197.40577 3361.69872,3197.30604 C3371.81767,3197.08876 3381.93661,3196.86436 3392.05556,3196.74325 C3396.72448,3196.68804 3401.39517,3196.8982 3406.06586,3196.9356 C3415.02112,3197.00505 3423.97638,3197.04245 3432.92987,3197.08342 C3437.59879,3197.10479 3442.26594,3197.14397 3446.93486,3197.11013 C3454.90887,3197.04958 3462.88288,3196.87148 3470.85688,3196.86614 C3478.05333,3196.86079 3485.24977,3197.02108 3492.44622,3197.10301 C3493.41861,3197.11369 3494.40164,3197.17603 3495.36341,3197.07807 C3496.78038,3196.93381 3522.39036,3164.15138 3523.07228,3164 Z M3572,3202 L3565.87286,3242 L3564,3202 L3572,3202 Z M3262,3178 L3330,3189 L3266.03467,3189 L3262,3178 Z" id="Shape-26"></path>
        </g>
    </g>
</svg>