<?xml version="1.0" encoding="UTF-8"?>
<svg width="308px" height="235px" viewBox="0 0 308 235" version="1.1" xmlns="http://www.w3.org/2000/svg" xmlns:xlink="http://www.w3.org/1999/xlink">
    <title>Paint 2</title>
    <g id="Page-1" stroke="none" stroke-width="1" fill="none" fill-rule="evenodd">
        <g id="Desktop-HD" transform="translate(-5266.000000, -4253.000000)" fill="#000000">
            <path d="M5506.40841,4485.11799 L5506.812,4485.131 L5506.70321,4485.25085 C5502.90673,4489.23298 5497.71163,4487.62295 5493,4487.92227 C5497.33042,4486.40895 5501.69077,4485.01524 5506.40841,4485.11799 Z M5508.90257,4483.0545 L5509,4483.2125 C5508.35879,4483.4575 5507.71626,4483.7015 5507.07505,4483.9455 L5507.07505,4483.9455 L5507,4483.8215 C5507.63463,4483.5655 5508.26794,4483.3105 5508.90257,4483.0545 L5508.90257,4483.0545 Z M5517.64438,4253 C5517.63278,4253.55414 5517.62349,4254.10679 5517.61188,4254.65944 C5520.7018,4255.17913 5523.81726,4256.29641 5526.877,4256.08224 C5531.94135,4255.73028 5536.27328,4256.37129 5540.05616,4261.63116 C5542.3057,4264.75982 5545.74152,4266.46868 5549.01484,4269.11509 C5549.85174,4277.89303 5555.60094,4282.98366 5560.60261,4287.59054 C5568.32509,4294.70304 5569.19333,4305.74697 5573.23623,4314.95924 C5571.51251,4316.48687 5570.31926,4317.54574 5569.52182,4318.25414 C5570.23399,4320.77763 5570.88198,4323.07368 5571.50528,4325.28225 L5571.594,4325.598 L5570.52239,4325.60179 L5570.52239,4325.60179 C5569.02038,4328.88022 5567.51953,4332.15715 5566.01868,4335.43409 C5566.32047,4335.73512 5566.62227,4336.03466 5566.92406,4336.3357 L5569.76747,4332.72478 L5569.76747,4332.72478 L5572.593,4329.136 L5572.598,4329.154 L5572.43061,4329.6775 C5571.46399,4332.68555 5570.48231,4335.74111 5569.22815,4339.64708 C5569.24092,4339.66355 5569.7888,4340.35698 5570.52703,4341.29303 C5569.35119,4343.84509 5568.14169,4346.47203 5567.09818,4348.74102 C5568.10106,4353.55458 5569.04475,4358.08508 5570.21479,4363.6999 C5570.78704,4364.26004 5572.17762,4365.61844 5573.32444,4366.7387 C5572.56183,4370.26725 5571.89788,4373.33751 5571.23393,4376.40776 L5571.15036,4376.28046 L5571.16719,4381.11105 L5571.16719,4381.11105 L5571.183,4385.711 L5571.82479,4385.70274 C5572.5355,4385.69257 5573.25306,4385.68218 5574,4385.67094 C5571.25715,4406.19372 5559.77384,4419.52312 5549.6695,4435.5184 C5552.14135,4434.87939 5553.43191,4434.54602 5554.66522,4434.22722 L5554.691,4434.22 L5554.67557,4434.27749 C5553.07826,4439.8522 5549.33044,4440.28657 5545.23775,4440.17919 C5544.29871,4442.16512 5543.38636,4444.09864 5542.25346,4446.49793 C5540.70154,4446.21936 5538.98595,4445.91533 5537.26804,4445.6098 C5534.68769,4447.39804 5532.10734,4449.18627 5529.52815,4450.97451 C5529.56762,4451.38188 5529.60592,4451.78925 5529.64307,4452.19662 C5533.9274,4452.20111 5538.21173,4452.2071 5543.98066,4452.21459 C5542.50302,4454.52702 5541.86577,4456.57136 5540.88146,4456.90384 C5532.38128,4459.76742 5523.8486,4462.48572 5515.26484,4464.89699 C5511.45758,4465.96634 5507.51451,4466.22993 5503.46001,4466.88741 C5503.60394,4466.35124 5503.95101,4465.05874 5504.69273,4462.3 C5493.21058,4464.64388 5482.3564,4466.86046 5470.49468,4469.28371 C5471.96187,4470.98808 5472.80922,4471.97205 5474.02917,4473.39036 C5472.49118,4473.9475 5471.23408,4474.50913 5469.94217,4474.8551 C5456.14316,4478.57385 5441.85548,4479.26728 5428.46506,4475.45567 C5408.01146,4469.63267 5387.501,4474.30545 5367.16116,4471.24118 C5364.66438,4470.86527 5362.02135,4472.11583 5360.11192,4472.48426 C5357.27156,4470.8428 5355.02551,4469.30018 5352.65409,4468.21586 C5343.34139,4463.95195 5333.98806,4459.83182 5325.12921,4455.87194 C5322.32832,4443.98481 5314.83335,4443.83654 5309.77247,4441.49566 C5304.9925,4436.36908 5301.06452,4432.15909 5297.06341,4427.86972 C5297.95023,4426.9786 5299.16437,4425.75649 5300.7488,4424.16445 C5299.63215,4422.66377 5298.75579,4421.48359 5297.86085,4420.28245 C5297.13654,4421.29039 5296.66411,4421.94787 5296.08374,4422.75662 C5294.67227,4421.45813 5293.38151,4420.27047 5292.42389,4419.38833 C5289.2504,4418.89259 5286.4971,4418.46276 5283.74264,4418.03143 C5283.60567,4417.23016 5283.4687,4416.4289 5283.33289,4415.62465 L5287.62941,4412.13635 L5287.62941,4412.13635 L5291.788,4408.757 L5290.69789,4408.39724 C5287.15494,4407.22764 5283.58774,4406.05094 5279.79492,4404.80088 C5280.20699,4401.95228 5280.52155,4399.78063 5280.86049,4397.44425 C5278.91739,4395.97352 5277.19948,4394.67503 5275.39568,4393.31213 C5275.28424,4388.76965 5275.17746,4384.36796 5275.06951,4379.91833 L5275.46198,4379.22689 C5276.31204,4377.72946 5277.17557,4376.20917 5278.35559,4374.12978 C5276.64697,4371.05953 5274.85825,4367.70621 5272.95694,4364.46222 C5271.00572,4361.12987 5267.92044,4358.24383 5267.1764,4354.54455 C5266.10967,4349.24424 5265.29947,4342.56307 5266.90711,4337.93373 C5270.20132,4328.44889 5272.7422,4318.10437 5280.57727,4311.93541 C5288.27073,4305.87727 5296.87305,4303.15897 5304.94259,4298.57606 C5314.36789,4293.22333 5323.96265,4288.36634 5334.4895,4282.75751 C5335.13604,4282.94621 5336.86324,4283.44944 5338.59044,4283.95116 C5338.52427,4283.60669 5338.45579,4283.26073 5338.38847,4282.91327 C5341.16962,4281.95325 5343.96007,4281.04415 5346.72614,4280.02423 C5353.28322,4277.60846 5359.86468,4275.28855 5366.35095,4272.58822 C5367.91216,4271.93673 5369.03693,4269.70818 5370.54939,4268.6553 C5372.18373,4267.51856 5374.03745,4266.9105 5375.79598,4266.0718 L5375.79947,4265.89657 C5377.8331,4269.53295 5380.58872,4269.24689 5383.28515,4267.80462 C5392.24382,4263.01652 5397.18398,4262.05201 5405.42067,4263.72193 C5407.87114,4262.7288 5410.07307,4261.83507 5412.24739,4260.95449 L5413.032,4260.636 L5413.07221,4260.8377 C5413.69515,4263.78271 5415.4571,4262.98629 5417.22434,4262.69751 C5427.83361,4260.9587 5438.43126,4259.04316 5449.07535,4257.7881 C5453.62201,4257.25043 5458.27198,4258.37669 5462.87319,4258.34674 C5466.23473,4258.32427 5469.59278,4257.5949 5472.95664,4257.2699 C5487.85139,4255.82913 5502.74847,4254.4213 5517.64438,4253 Z M5467.95612,4471.13185 C5467.68567,4471.2322 5467.41521,4471.33404 5467.1436,4471.43289 C5467.16101,4471.51077 5467.17726,4471.58865 5467.19351,4471.66503 C5467.46512,4471.59014 5467.73674,4471.51526 5468.00836,4471.43888 C5467.99094,4471.33704 5467.97353,4471.2337 5467.95612,4471.13185 Z M5529.61753,4445.15151 C5529.37725,4445.39863 5529.17296,4445.70415 5528.95822,4445.99321 C5529.09055,4446.13699 5529.2252,4446.27777 5529.35984,4446.42454 C5529.57458,4446.13699 5529.79048,4445.84793 5530.00638,4445.55888 C5529.87173,4445.4151 5529.64539,4445.12305 5529.61753,4445.15151 Z M5532.20484,4438.09741 C5531.28553,4438.29361 5530.36737,4438.48981 5529.44922,4438.686 C5529.50726,4439.14729 5529.5653,4439.61007 5529.62217,4440.07436 C5530.54149,4439.88115 5531.4608,4439.68945 5532.38012,4439.49775 L5532.20484,4438.09741 L5532.20484,4438.09741 Z M5555.44647,4430 C5555.63125,4430.13439 5555.81523,4430.26742 5556,4430.40317 L5555.4997,4431.60588 L5555.4997,4431.60588 L5555.124,4432.51 L5555.25377,4431.49949 C5555.318,4430.99943 5555.38224,4430.49955 5555.44647,4430 Z M5291.92593,4408.64693 L5291.788,4408.757 L5292.02575,4408.83564 C5292.51617,4408.90378 5293.00659,4408.97193 5293.49701,4409.04007 L5294.96826,4409.24451 L5294.89629,4409.03483 C5293.90617,4408.90603 5292.91605,4408.77573 5291.92593,4408.64693 L5291.92593,4408.64693 Z M5470.63513,4397.12973 C5470.69317,4397.6659 5470.75237,4398.20357 5470.81041,4398.73974 L5473.36986,4397.90385 L5473.36986,4397.90385 L5475.578,4397.181 L5473.20794,4397.15613 C5472.35043,4397.14733 5471.49293,4397.13872 5470.63513,4397.12973 Z M5335.60034,4391.40708 C5333.19411,4392.52135 5331.23708,4393.42596 5328.39556,4394.74242 C5335.4982,4395.89564 5342.47199,4391.88035 5343.95311,4386.32393 C5339.8928,4385.21115 5337.06985,4387.1192 5335.60034,4391.40708 Z M5460.30909,4391.03415 C5457.71133,4392.13345 5456.46237,4392.66214 5455.21456,4393.19232 C5455.33644,4393.54278 5455.45832,4393.89473 5455.5802,4394.24369 C5456.31611,4394.26915 5457.14257,4394.57318 5457.76125,4394.2392 C5458.40778,4393.89174 5458.85351,4392.92723 5460.30909,4391.03415 Z M5479.95364,4388.95087 C5479.23398,4389.03624 5478.51547,4389.12011 5477.79581,4389.20548 L5477.88751,4390.32874 L5480.04766,4390.03669 L5480.04766,4390.03669 L5479.95364,4388.95087 L5479.95364,4388.95087 Z M5571.183,4385.711 L5571.11553,4385.71288 C5570.50846,4386.65492 5569.90139,4387.59547 5569.29316,4388.53751 L5569.29316,4388.53751 L5569.11324,4388.88348 L5569.3895,4388.76816 C5569.98844,4387.82611 5570.58623,4386.88407 5571.18402,4385.94053 L5571.18402,4385.94053 L5571.183,4385.711 Z M5409.31383,4343.50062 C5408.46764,4344.42769 5407.62145,4345.35476 5406.77526,4346.28332 C5406.96795,4346.57387 5407.16179,4346.86442 5407.35448,4347.15497 C5408.20647,4346.38367 5409.05846,4345.61086 5409.91161,4344.84105 C5409.71196,4344.39474 5409.51231,4343.94843 5409.31383,4343.50062 Z M5571.95476,4325.59729 C5572.18807,4326.84936 5572.42254,4328.10292 5572.65469,4329.35498 L5572.61,4329.115 L5572.593,4329.136 L5572.42666,4328.547 C5572.19847,4327.73847 5571.96959,4326.92747 5571.73794,4326.10664 L5571.594,4325.598 Z M5347.70624,4275 C5347.80416,4275.34705 5347.90275,4275.69249 5348,4276.04116 L5347.174,4276.628 L5347.70624,4275 L5347.70624,4275 Z M5361.5255,4268.278 L5361.53169,4268.51065 C5361.9969,4268.44072 5362.4616,4268.37008 5362.92629,4268.3 L5362.92629,4268.3 L5363,4268.444 L5363,4268.444 L5361.534,4268.632 L5361.5365,4268.722 L5361.516,4268.634 L5361,4268.7 L5361.07494,4268.579 C5361.21359,4268.55836 5361.35218,4268.53761 5361.49072,4268.5168 L5361.4635,4268.399 L5361.5255,4268.278 Z" id="Paint-2"></path>
        </g>
    </g>
</svg>