<?xml version="1.0" encoding="UTF-8"?>
<svg width="233px" height="318px" viewBox="0 0 233 318" version="1.1" xmlns="http://www.w3.org/2000/svg" xmlns:xlink="http://www.w3.org/1999/xlink">
    <title>Shape 21</title>
    <g id="Page-1" stroke="none" stroke-width="1" fill="none" fill-rule="evenodd">
        <g id="Desktop-HD" transform="translate(-4743.000000, -3405.000000)" fill="#000000">
            <path d="M4893.95416,3661.66962 C4898.43177,3659.78627 4903.13069,3659.49013 4907.54268,3660.8123 C4911.7256,3662.06627 4915.69258,3664.79438 4919.06063,3668.72501 C4924.2332,3667.04208 4929.25903,3666.84405 4933.64418,3668.15845 C4937.88019,3669.42798 4941.41825,3671.99814 4944.16233,3675.79895 C4944.61152,3676.42055 4945.02969,3677.07386 4945.40372,3677.73973 C4947.81493,3682.02394 4948.56656,3686.97881 4947.57512,3692.06709 C4946.36176,3698.28849 4942.65846,3704.27118 4936.86488,3709.37023 C4934.20134,3711.71425 4931.12381,3713.8381 4927.71698,3715.68556 C4921.93713,3718.8175 4915.27918,3721.13161 4907.92328,3722.56506 C4907.63395,3722.63805 4907.3506,3722.69189 4907.07619,3722.72839 L4907.07619,3722.72839 L4905.65763,3723 L4903.86384,3722.46814 C4903.79285,3722.4466 4903.72246,3722.42506 4903.65147,3722.40113 L4903.65147,3722.40113 L4902.2514,3721.98115 L4901.34824,3721.15913 C4901.06369,3720.93418 4900.79644,3720.69008 4900.54828,3720.43043 C4895.05298,3715.39181 4890.59983,3709.97149 4887.30814,3704.31306 C4885.35448,3700.95557 4883.82853,3697.53467 4882.77147,3694.14607 C4880.46883,3686.76941 4880.40978,3679.72658 4882.60146,3673.78158 C4884.39405,3668.91825 4887.60521,3665.07796 4891.88954,3662.67711 C4892.54991,3662.30618 4893.24488,3661.96756 4893.95416,3661.66962 Z M4831.1574,3534.48232 C4840.1748,3529.55719 4850.17587,3527.93962 4860.88535,3529.67358 C4862.63729,3529.95564 4864.39042,3530.3434 4866.09248,3530.8238 C4877.04729,3533.90988 4886.37751,3540.85638 4893.06778,3550.91509 C4901.2453,3563.21487 4904.95344,3579.25037 4903.79135,3597.29001 C4903.25725,3605.5821 4901.68314,3614.19842 4899.1189,3622.90322 C4894.76515,3637.66675 4887.63351,3652.53599 4877.91827,3667.10535 C4877.56319,3667.70629 4877.18639,3668.26389 4876.79726,3668.77992 L4876.79726,3668.77992 L4874.91443,3671.58097 L4871.1071,3673.67596 C4870.95509,3673.7585 4870.80366,3673.83926 4870.64872,3673.91765 L4870.64872,3673.91765 L4867.66776,3675.5453 L4864.84528,3675.68366 C4864.01068,3675.78461 4863.17256,3675.8244 4862.34031,3675.8054 C4845.09786,3676.58746 4828.94061,3675.01027 4814.2982,3671.11125 C4805.6083,3668.79952 4797.51589,3665.67246 4790.2434,3661.82273 C4774.41306,3653.44335 4762.80619,3641.89653 4756.68288,3628.43049 C4751.67061,3617.41573 4750.65993,3605.73946 4753.7571,3594.66414 C4754.23543,3592.95572 4754.81883,3591.24314 4755.49496,3589.57392 C4759.75598,3579.0354 4766.97447,3570.75341 4776.36867,3565.62162 C4785.27162,3560.75824 4796.23582,3558.69056 4808.179,3559.60504 C4813.90673,3548.24468 4821.82131,3539.58264 4831.1574,3534.48232 Z M4933.50715,3530.11305 C4936.44774,3528.85783 4939.53344,3528.65985 4942.43108,3529.54158 C4945.17779,3530.37721 4947.78346,3532.19622 4949.995,3534.81659 C4953.39183,3533.69434 4956.6923,3533.56255 4959.57252,3534.43896 C4962.35406,3535.28523 4964.67821,3536.99905 4966.47994,3539.53254 C4966.77482,3539.94681 4967.04879,3540.38177 4967.29491,3540.82618 C4968.87897,3543.68234 4969.37178,3546.98588 4968.72109,3550.37864 C4967.92354,3554.52549 4965.49201,3558.51396 4961.68712,3561.91381 C4959.93821,3563.47634 4957.91706,3564.89231 4955.67998,3566.12389 C4951.88438,3568.2118 4947.51181,3569.75482 4942.68125,3570.71042 C4942.49086,3570.75888 4942.30512,3570.79434 4942.1246,3570.81916 L4942.1246,3570.81916 L4941.19296,3571 L4940.01522,3570.64542 C4939.9682,3570.63123 4939.92235,3570.61705 4939.87591,3570.6005 L4939.87591,3570.6005 L4938.95647,3570.32097 L4938.36382,3569.77314 C4938.17634,3569.62304 4938.00104,3569.46052 4937.83793,3569.28736 C4934.22865,3565.92769 4931.30432,3562.31449 4929.14328,3558.54232 C4927.85989,3556.30372 4926.85803,3554.02316 4926.16322,3551.76388 C4924.65113,3546.84581 4924.61224,3542.15114 4926.05235,3538.18808 C4927.22894,3534.94483 4929.33831,3532.38474 4932.1512,3530.78439 C4932.58538,3530.53737 4933.04162,3530.31102 4933.50715,3530.11305 Z M4765.91365,3479.56642 C4768.52388,3478.15915 4771.4194,3477.69717 4774.51894,3478.19232 C4775.02663,3478.27287 4775.53373,3478.38363 4776.02601,3478.52104 C4779.19731,3479.40236 4781.89829,3481.3871 4783.83476,3484.26146 C4786.20242,3487.77548 4787.27593,3492.35739 4786.93964,3497.51145 C4786.78484,3499.88059 4786.32875,3502.34212 4785.58619,3504.82913 C4784.32585,3509.04738 4782.26186,3513.29583 4779.44997,3517.45841 C4779.34677,3517.63017 4779.23764,3517.78949 4779.12495,3517.93697 L4779.12495,3517.93697 L4778.58049,3518.73774 L4777.47792,3519.33595 L4777.47792,3519.33595 L4777.34565,3519.40524 L4776.48269,3519.87019 L4775.6654,3519.90928 C4775.42401,3519.9383 4775.18084,3519.94955 4774.94004,3519.94422 C4769.9491,3520.16811 4765.27132,3519.71738 4761.03303,3518.60329 C4758.51769,3517.94289 4756.17554,3517.04914 4754.07004,3515.94927 C4749.48715,3513.55525 4746.12784,3510.25564 4744.35506,3506.40875 C4742.90493,3503.26135 4742.61194,3499.9256 4743.50871,3496.76103 C4743.6469,3496.27299 4743.81593,3495.78376 4744.01165,3495.30697 C4745.2453,3492.2958 4747.3342,3489.92903 4750.05356,3488.46312 C4752.63118,3487.07363 4755.80486,3486.48312 4759.26204,3486.74432 C4760.92034,3483.498 4763.21089,3481.02344 4765.91365,3479.56642 Z M4854.36785,3409.10234 C4861.13112,3405.41711 4868.63241,3404.20671 4876.66355,3405.50378 C4877.97786,3405.7157 4879.29218,3406.00539 4880.56885,3406.36513 C4888.78464,3408.67433 4895.78255,3413.87271 4900.80105,3421.39929 C4906.93393,3430.60286 4909.71545,3442.6024 4908.84336,3456.10144 C4908.44289,3462.30661 4907.26266,3468.75457 4905.33852,3475.26782 C4902.07362,3486.31579 4896.72462,3497.44211 4889.43856,3508.34404 C4889.17217,3508.79401 4888.8899,3509.21133 4888.59763,3509.59778 L4888.59763,3509.59778 L4887.1857,3511.69387 L4884.3295,3513.26104 C4884.216,3513.32337 4884.10192,3513.38273 4883.98607,3513.44209 L4883.98607,3513.44209 L4881.75085,3514.66021 L4879.63325,3514.7641 C4879.00755,3514.83949 4878.37951,3514.86858 4877.75499,3514.85433 C4864.82296,3515.43964 4852.7054,3514.25952 4841.72338,3511.34244 C4835.20591,3509.61202 4829.13655,3507.27254 4823.68229,3504.39168 C4811.80936,3498.12122 4803.10431,3489.481 4798.51157,3479.40421 C4794.75327,3471.16112 4793.99468,3462.42474 4796.3181,3454.13714 C4796.67564,3452.85787 4797.11375,3451.57683 4797.62065,3450.32784 C4800.81676,3442.44212 4806.22985,3436.24408 4813.27598,3432.40392 C4819.9534,3428.76559 4828.17683,3427.218 4837.13357,3427.90186 C4841.42994,3419.40114 4847.36523,3412.91935 4854.36785,3409.10234 Z M4964.11818,3476.00123 C4966.66739,3475.96476 4969.05709,3476.7393 4971.22299,3478.30401 C4971.57773,3478.5593 4971.92056,3478.83774 4972.24137,3479.13008 C4974.30788,3481.00854 4975.57742,3483.52435 4975.91132,3486.40544 C4976.31903,3489.92792 4975.31554,3493.7439 4973.01036,3497.44004 C4971.95091,3499.13848 4970.62482,3500.7906 4969.07078,3502.34952 C4966.43348,3504.99443 4963.17123,3507.35162 4959.3733,3509.35571 C4959.22688,3509.44312 4959.08047,3509.51953 4958.93584,3509.58552 L4958.93584,3509.58552 L4958.20196,3509.96874 L4957.12407,3509.98784 C4957.08121,3509.98842 4957.03836,3509.98842 4956.99551,3509.98784 L4956.99551,3509.98784 L4956.15331,3510 L4955.51407,3509.71403 C4955.31885,3509.64225 4955.12958,3509.55658 4954.94804,3509.45933 C4951.05489,3507.69837 4947.66943,3505.55826 4944.88096,3503.09512 C4943.22692,3501.63403 4941.79667,3500.06642 4940.62949,3498.43688 C4938.08802,3494.89066 4936.83871,3491.14473 4937.01668,3487.60372 C4937.1619,3484.70758 4938.26539,3482.11883 4940.20631,3480.11591 C4940.50569,3479.80679 4940.82948,3479.50866 4941.16755,3479.23022 C4943.30489,3477.47101 4945.83803,3476.52164 4948.49318,3476.48286 C4951.01025,3476.44639 4953.66362,3477.23309 4956.19497,3478.76191 C4958.74894,3476.99227 4961.47909,3476.04002 4964.11818,3476.00123 Z" id="Shape-21"></path>
        </g>
    </g>
</svg>