<?xml version="1.0" encoding="UTF-8"?>
<svg width="327px" height="333px" viewBox="0 0 327 333" version="1.1" xmlns="http://www.w3.org/2000/svg" xmlns:xlink="http://www.w3.org/1999/xlink">
    <title>GEO Shape 4</title>
    <g id="Page-1" stroke="none" stroke-width="1" fill="none" fill-rule="evenodd">
        <g id="Desktop-HD" transform="translate(-2889.000000, -4610.000000)" fill="#000000">
            <path d="M3190.72997,4941.00004 C3190.82025,4940.995 3191.0287,4941.47166 3190.99669,4941.55614 C3190.55435,4942.7024 3189.6393,4942.44137 3189,4943 C3189.6311,4942.38084 3189.89125,4941.04165 3190.72997,4941.00004 Z M3183.11225,4934.33731 C3183.1914,4934.13139 3184.18665,4933.90774 3184.33505,4934.0394 C3185.21059,4934.81837 3185.15123,4935.76529 3184.56457,4937 C3183.46544,4936.13579 3182.70268,4935.40323 3183.11225,4934.33731 Z M3165,4934 C3165.91494,4932.63286 3164.27576,4929.78756 3167.51456,4930.0126 C3168.80582,4930.10282 3170.30198,4930.62132 3169.94696,4931.98548 C3169.39211,4934.12591 3166.98102,4933.65202 3165,4934 Z M3130.78519,4928.07101 C3132.0742,4928.36832 3134.29185,4927.07431 3133.96811,4929.62472 C3133.79981,4930.94649 3133.8602,4933.29899 3131.995,4932.96855 C3129.77438,4932.57452 3126.18555,4931.97185 3126.00833,4929.76263 C3125.81132,4927.30893 3129.15759,4928.64682 3130.78519,4928.07101 Z M3140.5314,4917 C3141.76486,4917.65898 3143.56573,4917.85697 3143.76688,4919.52916 C3143.97467,4921.25862 3144.67585,4921.66236 3146.20914,4921.62159 C3147.71018,4921.58277 3149.97406,4921.41002 3149.99968,4923.32776 C3150.03479,4925.92098 3147.15796,4926.30142 3145.39505,4926.91673 C3143.29911,4927.6485 3139.02657,4923.39376 3139,4920.56859 C3139.38237,4919.67668 3139.95641,4918.33834 3140.5314,4917 Z M3188.11217,4921.33739 C3188.19231,4921.13063 3189.1876,4920.90783 3189.33502,4921.03948 C3190.2106,4921.81843 3190.15124,4922.76533 3189.56455,4924 C3188.46636,4923.13497 3187.70258,4922.40243 3188.11217,4921.33739 Z M3128.49194,4919 L3129,4924 L3124,4921.9003 L3128.49194,4919 Z M3173.11262,4920.33778 C3173.19177,4920.13183 3174.18706,4919.90814 3174.33448,4920.03898 C3175.21006,4920.8189 3175.15169,4921.76511 3174.565,4923 C3173.46582,4922.13566 3172.70204,4921.40385 3173.11262,4920.33778 Z M3107.26401,4921.78561 C3108.80972,4919.88124 3107.17129,4914.72443 3112.11621,4916.29255 C3113.09793,4916.60412 3114.7832,4915.58921 3114.96482,4917.19744 C3115.13593,4918.71003 3114.6618,4920.47764 3113.9984,4921.87301 C3113.49177,4922.93728 3112.06842,4923.37224 3111.03125,4922.48689 C3109.51518,4921.19435 3108.40919,4921.69306 3107.30321,4923 C3107.04224,4922.73985 3106.95047,4922.47352 3107.02504,4922.19897 C3107.10151,4921.92339 3107.18085,4921.78458 3107.26401,4921.78561 Z M3197,4920 C3197.9148,4918.63355 3196.27688,4915.78662 3199.51419,4916.01271 C3200.80526,4916.10295 3202.3012,4916.62057 3201.94725,4917.98504 C3201.39147,4920.12594 3198.98072,4919.65194 3197,4920 Z M3215.11773,4913 C3215.37791,4914.76684 3215.63703,4916.53472 3216,4919 C3213.19687,4916.86321 3213.7697,4914.98342 3215.11773,4913 Z M3118,4918 C3121.76845,4912.8245 3126.17608,4911.13268 3130.95999,4912.40419 C3130.97428,4912.78314 3130.98666,4913.1621 3131,4913.54105 C3126.61999,4913.84498 3122.88298,4916.40051 3118,4918 Z M3156.54776,4910 C3158.09048,4912.52903 3157.61726,4914.75936 3158,4917 C3154.28661,4915.73221 3154.28661,4915.73221 3156.54776,4910 Z M3190.39667,4909.51595 C3190.85182,4908.72781 3191.34356,4908.96177 3191.79067,4909.42787 C3192.36006,4910.02242 3191.61486,4910.24079 3191.36141,4910.4564 C3190.51804,4911.17757 3189.7657,4911.71982 3190.71884,4913.0392 C3191.12669,4913.60348 3190.53946,4914.52466 3189.87191,4914.98984 C3189.14188,4915.49906 3188.47254,4916.24958 3187.43998,4915.91836 C3187.28023,4915.86698 3187.15618,4915.69632 3187,4915.56787 C3187.29897,4914.86873 3187.8987,4914.59989 3188.42881,4914.24573 C3188.84648,4913.96589 3189.47387,4913.82184 3189.39355,4913.13738 C3189.32305,4912.53916 3188.68316,4912.66211 3188.31904,4912.44741 C3187.9335,4912.22078 3187.36769,4912.19968 3187.36412,4911.61614 C3187.35877,4910.89865 3188.06291,4910.99315 3188.47433,4910.80139 C3189.18561,4910.47017 3189.97275,4910.25088 3190.39667,4909.51595 Z M3139,4912.3715 C3139.42214,4910.89808 3140.65447,4910.91517 3141.85571,4911.06801 C3142.70701,4911.17624 3144.26823,4910.71105 3143.9604,4912.23384 C3143.74181,4913.31992 3142.68194,4914.07561 3141.26311,4913.99397 C3140.09596,4913.92751 3139.40409,4913.34935 3139,4912.3715 Z M3115.95053,4903.08975 C3116.70117,4902.43649 3117.72704,4905.50978 3117.97911,4907.12066 C3118.29512,4909.12776 3114.95431,4912.86359 3112.84882,4913 C3111.66077,4912.74389 3109.70633,4911.72781 3110.03717,4911.13672 C3111.67097,4908.22675 3113.48825,4905.23418 3115.95053,4903.08975 Z M3172.5314,4903 C3173.76486,4903.65898 3175.56573,4903.85697 3175.76688,4905.52916 C3175.97467,4907.25862 3176.67585,4907.66236 3178.21009,4907.62257 C3179.71018,4907.58277 3181.97406,4907.41002 3181.99968,4909.32776 C3182.03479,4911.92098 3179.15796,4912.30142 3177.396,4912.91673 C3175.29911,4913.6485 3171.02752,4909.39376 3171,4906.56859 C3171.38332,4905.67668 3171.95736,4904.33834 3172.5314,4903 Z M3098.26306,4910.78561 C3099.80876,4908.88124 3098.17129,4903.72443 3103.11621,4905.29255 C3104.09793,4905.60412 3105.7832,4904.58921 3105.96482,4906.19744 C3106.13593,4907.71003 3105.6618,4909.47764 3104.9984,4910.87301 C3104.49177,4911.93728 3103.06842,4912.37224 3102.03125,4911.48689 C3100.51518,4910.19435 3099.40919,4910.69306 3098.30321,4912 C3098.04224,4911.73985 3097.95047,4911.47352 3098.02504,4911.2 C3098.10055,4910.92339 3098.18085,4910.78458 3098.26306,4910.78561 Z M3134,4901 C3133.9716,4904.57509 3133.94596,4907.80805 3133.92122,4911 C3128.69448,4908.76825 3128.66517,4907.83509 3134,4901 Z M3205.11225,4906.33731 C3205.1914,4906.13139 3206.18665,4905.90774 3206.33505,4906.0394 C3207.21059,4906.81837 3207.15123,4907.76529 3206.56457,4909 C3205.46544,4908.13494 3204.70268,4907.40323 3205.11225,4906.33731 Z M3164.49292,4901 L3165,4906 L3160,4903.9003 L3164.49292,4901 Z M3141.49804,4892 C3141.5172,4892.08802 3141.53827,4892.17511 3141.55648,4892.26313 C3141.52007,4894.00032 3140.74416,4895.24091 3139.32356,4896.04419 L3139.32356,4896.04419 L3142.79411,4896.04419 C3143.26828,4895.54481 3143.87943,4895.09545 3144.49154,4894.6461 C3144.58063,4894.57939 3144.67451,4894.51546 3144.77126,4894.45709 C3145.02032,4894.307 3145.28279,4894.17729 3145.54238,4894.04572 C3145.66979,4894.34591 3145.78282,4894.67111 3145.87765,4895.0306 C3145.23968,4895.31967 3144.67451,4895.65691 3144.18788,4896.04419 L3144.18788,4896.04419 L3156,4896.04419 C3154.99418,4897.01517 3153.77283,4897.69708 3151.84837,4897.46082 C3150.16531,4897.25328 3150.43831,4898.95156 3150.53602,4899.95219 C3150.78125,4902.46672 3150.06856,4904.62177 3147.36147,4904.9757 C3145.1391,4905.26755 3144.50208,4902.86234 3143.38898,4901.4383 C3143.01826,4900.96393 3142.83434,4900.35244 3142.56517,4899.80302 C3141.07656,4899.39907 3140.45295,4898.12327 3139.61381,4897.06335 C3137.34258,4897.10133 3135.07135,4897.14025 3132.80012,4897.17823 C3132.02708,4898.46886 3130.81914,4897.76564 3129.7731,4897.79621 C3125.85137,4897.84902 3124.60799,4897.86292 3125.10323,4896.04419 L3125.10323,4896.04419 L3127.40033,4896.04419 C3126.48743,4895.33171 3125.86191,4894.48025 3126.36577,4893.08123 C3126.51138,4892.78012 3126.66656,4892.46325 3126.83228,4892.12323 C3127.08134,4893.34992 3125.84658,4895.37248 3128.91192,4895.01299 C3129.38705,4894.9574 3129.58726,4895.4327 3129.6773,4896.04419 L3129.6773,4896.04419 L3134.61443,4896.04419 C3135.21504,4895.93672 3135.84918,4895.9849 3136.48524,4896.04419 L3136.48524,4896.04419 L3138.57351,4896.04419 C3138.58117,4896.04327 3138.58884,4896.04234 3138.59459,4896.04141 C3139.30249,4894.77488 3140.72692,4893.87247 3140.67231,4892.21866 C3140.96256,4892.11952 3141.23174,4892.05652 3141.49804,4892 Z M3211.77614,4901.08582 C3213.57825,4900.61939 3213.96787,4902.11968 3215,4904 C3213.06733,4903.56688 3211.49652,4904.06247 3211.01027,4902.29147 C3210.92186,4901.96872 3211.42353,4901.1764 3211.77614,4901.08582 Z M3096,4902 C3099.76817,4896.8245 3104.17644,4895.13268 3108.95999,4896.40419 C3108.97333,4896.78314 3108.98571,4897.16113 3109,4897.54105 C3104.62031,4897.84498 3100.88357,4900.39955 3096,4902 Z M3186.75452,4895 C3188.99228,4896.38708 3190.50652,4898.31314 3192,4900.43648 C3185.43204,4901.60492 3185.29168,4901.46154 3186.75452,4895 Z M3177.21338,4894.00301 C3177.78524,4893.93278 3179.04973,4895.11378 3178.99849,4895.23742 C3178.23083,4897.09596 3176.83458,4898.20377 3174,4899 C3175.81805,4897.09992 3174.56179,4894.33337 3177.21338,4894.00301 Z M2957.74783,4648.02717 C2959.95095,4647.71763 2960.60105,4650.1261 2961.71781,4651.54552 C2962.09038,4652.01866 2962.27762,4652.63124 2962.54849,4653.17968 C2964.02928,4653.57474 2964.65942,4654.84915 2965.4996,4655.90605 L2965.4996,4655.90605 L2972.25912,4655.73687 C2973.01567,4654.43736 2974.21892,4655.13359 2975.25775,4655.09455 C2979.27221,4655.00776 2980.4548,4654.98931 2979.85209,4657.00033 L2986.8667,4657 C2986.66681,4657.09947 2986.44301,4657.31466 2986.36936,4657.4916 C2985.81081,4658.85833 2987.84703,4658.45472 2987.79156,4659.51253 C2987.83269,4660.1562 2986.48892,4660.79605 2987.72844,4661.4072 C2988.09379,4661.58701 2988.75276,4661.56406 2989.08273,4661.34504 C2990.11566,4660.65546 2989.25201,4660.04047 2988.87232,4659.42741 L2988.89445,4659.46343 C2988.61536,4659.7283 2988.31638,4659.70799 2988,4659.43741 C2988.33274,4659.40841 2988.66637,4659.37841 2989,4659.34841 L2988.85134,4659.36165 C2988.5527,4658.40824 2988.43354,4657.30663 2987.28274,4657 L2987.28274,4657 L3174,4657 L3174,4849.5455 C3173.87853,4849.77408 3173.69108,4849.92233 3173.34007,4849.87642 C3167.29071,4849.09024 3167.39783,4854.36588 3165.56915,4857.73728 C3162.58894,4859.5124 3159.55709,4858.8802 3156.51758,4857.93526 C3155.36223,4857.59764 3154.20687,4857.26002 3153.05056,4856.92336 L3153.05056,4856.92336 L3147.82085,4856.7512 C3148.90926,4858.23653 3150.54856,4857.60529 3151.96311,4857.83005 C3152.16306,4861.75384 3154.80122,4859.41144 3156.4487,4859.61508 C3156.1752,4859.10546 3156.23496,4858.56578 3156.57921,4858 L3156.57921,4858 L3156.72321,4860 C3156.7047,4859.97946 3156.68677,4859.95887 3156.66944,4859.93823 C3156.7229,4860.657 3156.85095,4861.34228 3157.55721,4861.78295 C3158.42679,4865.25203 3164.69027,4868.7211 3158.301,4872.19103 C3158.66087,4872.51697 3159.02109,4872.84408 3159.38197,4873.1712 C3161.71226,4875.63996 3160.06719,4879.36837 3161.94221,4881.98098 C3158.85782,4880.37628 3160.62206,4876.39031 3158.63997,4874.24327 C3157.69036,4875.11705 3156.27804,4875.65746 3156.184,4877.14454 C3156.27804,4877.17079 3156.37393,4877.18537 3156.46517,4877.22036 C3158.02086,4877.83171 3159.10174,4878.86004 3159.57004,4880.42197 C3159.7041,4880.86615 3159.70968,4881.3288 3159.64917,4881.78853 C3160.19528,4881.89927 3160.49354,4882.36886 3160.74356,4882.90942 L3161.16962,4882.50724 C3163.34471,4882.40011 3164.9458,4881.86446 3163.75555,4879.26204 C3163.14617,4877.93191 3162.16625,4876.34486 3164.22536,4875.58642 C3166.81424,4874.63077 3166.32084,4872.66166 3166.52822,4870.78735 C3166.77492,4868.55467 3166.18422,4866.23383 3167.25063,4864.08647 L3167.25063,4864.08647 L3167.83313,4863.82094 C3167.12545,4861.5172 3164.90922,4861.5071 3163.07546,4860.91488 C3161.38013,4861.26009 3159.33923,4860.02869 3158,4861.99968 C3158.66339,4858.90416 3161.18581,4860.49496 3162.91943,4860.09206 C3163.02186,4860.12232 3163.13099,4860.14596 3163.23916,4860.16866 C3163.84607,4859.12926 3165.96547,4859.58228 3166.01908,4858 C3166.23255,4859.6674 3164.89428,4859.80643 3163.89202,4860.27554 C3166.01621,4860.53279 3168.57883,4860.24811 3167.88385,4864 L3167.921,4863.782 L3169.64883,4863 C3169.93682,4863.15738 3170.22504,4863.31499 3170.51327,4863.47273 L3171.3777,4863.94616 C3172.2387,4863.64847 3173.13704,4864.18792 3174,4864.6373 L3174,4864.6373 L3174,4872.85317 C3172.86282,4871.55338 3171.73842,4870.26876 3170.58453,4868.95001 C3169.22227,4872.86549 3170.45479,4875.47455 3174,4876.39037 L3174,4876.39037 L3174,4873 C3174.977,4874.30261 3175.96522,4875.61881 3177,4876.99906 C3175.84708,4877.01265 3174.85197,4876.87773 3174,4876.62148 L3174,4876.62148 L3174,4896 L3162,4896 C3161.76262,4896.71252 3161.28142,4897.2182 3159.93878,4896.90568 C3159.3695,4896.77447 3159.06874,4896.42368 3159,4896 L3159,4896 L3161.00548,4896 C3161.12237,4895.59872 3161.17436,4895.13536 3161.24902,4894.70852 C3160.83513,4894.81778 3160.41838,4894.67672 3160,4894.27199 C3160.66667,4894.26599 3161.33249,4894.25999 3162,4894.25399 L3161.37516,4894.25953 C3162.24528,4893.93053 3162.77153,4893.39859 3162.52106,4892.41065 C3164.43176,4892.66839 3165.09176,4891.39594 3165.75196,4890.12431 L3165.89919,4889.84236 L3165.89919,4889.84236 L3163.97901,4889.43096 C3164.09294,4890.14364 3163.72935,4890.67133 3163.22047,4891.14357 C3163.51839,4891.18537 3163.77348,4891.31366 3163.8703,4891.71119 C3163.91127,4891.88031 3163.59473,4892.04749 3163.22233,4892.13399 C3163.1162,4891.89392 3163.00913,4891.65385 3162.90393,4891.41475 C3161.84446,4892.15246 3160.78126,4892.87365 3159.49649,4892.44307 L3159.49649,4892.44307 L3159.45459,4892.49167 C3159.27119,4892.66856 3159.0794,4892.83768 3158.88203,4893 C3158.87831,4892.73563 3158.91461,4892.47709 3158.99282,4892.22438 C3159.42945,4890.70814 3160.39769,4889.21425 3159.04775,4887.65621 C3157.35706,4885.7055 3158.07579,4883.74118 3159.07754,4881.79047 C3159.00771,4879.80672 3157.74435,4878.78034 3156.24545,4877.94446 C3155.32376,4877.95612 3154.40115,4877.96779 3153.48039,4877.97945 C3153.30723,4877.93182 3153.15734,4877.85407 3153,4877.787 C3153.27557,4877.5411 3153.57815,4877.32921 3153.92075,4877.21064 C3154.51752,4877.00361 3155.1357,4876.96473 3155.77064,4877.04735 C3154.66555,4874.58151 3156.66254,4874.33852 3158.22847,4873.78548 C3157.99283,4873.33447 3157.8032,4872.87731 3157.92807,4872.38556 L3157.82416,4872.43824 L3157.82416,4872.43824 L3157.55913,4872.56664 C3156.97188,4872.61255 3156.38655,4872.65846 3155.80122,4872.70436 C3154.69178,4872.9559 3153.6005,4873.23327 3152.65556,4873.7373 C3153.26958,4872.97312 3153.81665,4872.05878 3154.44406,4871.32424 C3153.77744,4868.17091 3153.48382,4864.76317 3149.35304,4864.03055 C3145.36093,4870.97802 3145.36093,4870.97802 3147.74242,4874.41254 C3149.16558,4875.32306 3150.21094,4875.41487 3151.05546,4875.06865 C3150.78862,4875.40531 3150.54378,4875.77736 3150.3525,4876.2307 C3150.73889,4877.21104 3151.4036,4877.88149 3152.32942,4878.26119 C3152.21847,4878.35683 3152.09796,4878.44291 3152.00041,4878.5529 C3151.34813,4879.297 3150.9713,4880.20178 3150.73219,4881.18594 L3150.7716,4881.02991 C3150.91723,4881.00614 3151.08374,4880.9956 3151.27643,4881.0017 C3151.55974,4882.28326 3151.61621,4883.6872 3152.17435,4884.82485 C3153.39792,4887.32238 3153.55699,4889.51151 3150.5837,4890.36425 C3148.08384,4891.08189 3148.70128,4894.75328 3146,4895 C3146.22401,4894.29313 3146.44708,4893.58529 3146.67014,4892.87744 L3146.55751,4893.24031 C3146.34402,4893.43469 3146.11716,4893.61502 3145.86784,4893.77249 C3145.76837,4893.82318 3145.67177,4893.88439 3145.5723,4893.93699 C3144.83395,4892.14274 3143.51696,4891.38812 3141.53334,4891.82521 C3141.2598,4890.55029 3140.89062,4889.39397 3139.06003,4889.986 C3136.4624,4889.03245 3134.83744,4886.82502 3132.806,4885.14171 C3129.11053,4885.72214 3128.07526,4888.61057 3127.04875,4891.50787 L3126.89054,4891.95337 C3126.67534,4892.31298 3126.53092,4892.63721 3126.42476,4892.94231 C3125.78683,4894.30235 3125.3507,4895.28746 3125.1642,4896 L3125.1642,4896 L2935,4896 L2935,4711.89495 C2935.35674,4712.29473 2935.83687,4712.67635 2936.25961,4713.079 C2936.7426,4710.05288 2936.7426,4710.05288 2940.00208,4711.44543 C2941.31525,4709.4465 2940.46786,4708.2921 2938.55502,4707.35098 C2936.16779,4706.1784 2936.03293,4708.61537 2935.1272,4709.52397 C2935.07938,4709.57179 2935.04208,4709.6177 2935,4709.66552 L2935,4709.66552 L2935.00112,4703.13423 C2934.33263,4703.29779 2933.54369,4703.34097 2932.59169,4703.22123 C2931.28152,4703.056 2932.27424,4705.68507 2930.54708,4705.09414 C2929.50176,4705.07665 2928.96361,4706.62979 2927.74078,4706.06607 C2925.38061,4707.27515 2923.0101,4708.43855 2920,4707.83596 C2920.64334,4706.50636 2921.24536,4705.26229 2921.84738,4704.01821 C2922.65227,4701.16171 2925.2294,4700.4211 2927.33318,4699.1401 C2928.73163,4698.28869 2930.7227,4697.10293 2929.11012,4695.56048 C2926.54426,4693.10441 2928.14745,4690.83884 2929.06786,4689.04369 C2930.47006,4686.30965 2932.50998,4689.89218 2934.34046,4689.19628 C2934.56057,4689.32245 2934.78046,4689.44887 2935.00011,4689.5754 L2935,4665.9255 C2934.34472,4665.6415 2933.68744,4665.3775 2933,4665.2965 C2933.67337,4665.3425 2934.3397,4665.2215 2935,4665.0745 L2935,4665.0745 L2935,4665.60816 C2936.34694,4666.1673 2937.68088,4666.81122 2939.22696,4666.19112 C2939.39508,4666.12348 2939.44411,4665.10045 2939.22996,4664.96043 C2937.863,4664.06313 2936.44901,4664.48987 2935,4664.79754 L2935,4664.79754 L2935,4657 L2943.81417,4657 C2943.70309,4657.49628 2943.66306,4658.05542 2943.54498,4658.51455 C2943.54498,4658.5155 2943.54398,4658.5155 2943.54298,4658.51645 C2942.64135,4658.85365 2942.09297,4659.3928 2942.35815,4660.39678 C2940.41093,4660.15289 2939.7501,4661.43571 2939.08916,4662.7185 L2938.94176,4663.00294 C2939.87741,4663.19345 2940.81207,4663.38396 2941.74872,4663.57447 L2941.74872,4663.57447 L2945,4669.21735 L2945,4669.21735 L2943.81817,4670.33564 C2941.60462,4670.46043 2939.97949,4671.01005 2941.21435,4673.61526 C2941.84579,4674.94787 2942.8565,4676.53386 2940.76604,4677.31399 C2938.1382,4678.29226 2938.65756,4680.26784 2938.46242,4682.15293 C2938.22926,4684.39713 2938.8517,4686.72419 2937.78395,4688.89028 C2936.97238,4689.25987 2936.16181,4689.62946 2935.35025,4690 L2935.565,4689.902 L2935.67035,4689.96216 L2935.67035,4690.31886 C2935.78305,4690.2654 2935.89481,4690.21389 2936,4690.15169 C2935.96619,4690.67847 2935.84691,4691.06044 2935.67035,4691.34619 L2935.67035,4691.34619 L2935.67176,4702.3542 C2937.98058,4700.90442 2938.27809,4697.50632 2939.5736,4695.0724 C2939.71603,4694.98595 2939.85862,4694.90506 2940.00137,4694.8295 C2939.88562,4693.32035 2941.16242,4693.16385 2942.1264,4692.70259 C2940.00176,4692.46176 2937.44378,4692.76707 2938.10671,4689 C2938.77252,4691.48325 2941.05308,4691.46144 2942.93665,4692.05499 C2944.5557,4691.71027 2946.50137,4692.81151 2947.82446,4691.16695 C2947.74448,4691.09246 2947.65466,4691.02498 2947.55302,4690.96264 C2946.62243,4687.37605 2939.90166,4683.83632 2947.46503,4680.17991 L2947.219,4680.3 L2946.70682,4679.83814 C2944.45645,4677.47345 2945.87327,4673.90148 2944.28225,4671.32051 L2944.09997,4671.04787 C2947.1713,4672.62683 2945.4528,4676.62869 2947.43448,4678.7599 C2948.36992,4677.87902 2949.76614,4677.3258 2949.84741,4675.83726 C2949.75414,4675.81198 2949.6581,4675.79837 2949.56853,4675.76337 C2948.02086,4675.16542 2946.94137,4674.14552 2946.46395,4672.58697 C2946.32913,4672.14459 2946.31897,4671.68082 2946.37623,4671.22094 C2945.76584,4671.10135 2945.46203,4670.52674 2945.18962,4669.90643 C2945.60701,4670.21658 2946.02255,4670.52674 2946.43902,4670.83884 C2946.4538,4670.76786 2946.46211,4670.69786 2946.47965,4670.62883 C2947.20455,4667.60119 2944.48966,4664.63188 2945.7446,4661.58771 C2945.82402,4661.39715 2945.92652,4661.21922 2946.04195,4661.05005 C2945.09728,4661.33687 2944.15168,4661.62466 2943.20609,4661.91148 C2942.86719,4662.65623 2942.52921,4663.40099 2942.18939,4664.14672 C2941.7443,4663.15209 2942.14414,4662.48123 2942.76284,4661.893 C2942.46642,4661.85314 2942.21248,4661.72869 2942.11275,4661.33006 C2942.07119,4661.16283 2942.38331,4660.99268 2942.75268,4660.90324 L2942.75268,4660.90324 L2943.07404,4661.61785 C2944.11936,4660.8731 2945.1693,4660.14195 2946.44641,4660.56197 C2946.46026,4660.54739 2946.47226,4660.52794 2946.48796,4660.51433 C2946.66803,4660.33446 2946.85641,4660.16334 2947.05126,4660 C2947.05772,4660.26543 2947.02263,4660.52308 2946.94783,4660.77587 C2946.52675,4662.29747 2945.57654,4663.79962 2946.92752,4665.3465 C2948.61924,4667.28325 2947.92113,4669.25501 2946.94229,4671.21413 C2947.02817,4673.19756 2948.28773,4674.21357 2949.78184,4675.03806 L2949.78184,4675.03806 L2952.52351,4674.97875 C2952.69527,4675.02542 2952.84394,4675.10125 2953,4675.16834 C2952.72943,4675.41627 2952.43209,4675.63017 2952.09227,4675.7517 C2951.50219,4675.96366 2950.88904,4676.00838 2950.25926,4675.9306 C2951.37476,4678.38752 2949.394,4678.64809 2947.84633,4679.21492 C2948.00203,4679.5102 2948.13823,4679.80867 2948.17897,4680.11872 L2948.34279,4680.10435 L2948.34279,4680.10435 L2949.22198,4680.02879 C2950.3276,4679.76769 2951.41792,4679.48172 2952.35808,4678.97003 C2951.74884,4679.739 2951.21133,4680.65716 2950.5887,4681.39744 C2951.28115,4684.54503 2951.60155,4687.95086 2955.73807,4688.65 C2959.67374,4681.67097 2959.67374,4681.67097 2957.26548,4678.25558 C2955.83563,4677.35654 2954.78835,4677.27333 2953.94765,4677.62625 C2954.21163,4677.28768 2954.45264,4676.91276 2954.64201,4676.4575 C2954.24701,4675.48099 2953.57656,4674.81532 2952.64788,4674.44327 C2952.75882,4674.34667 2952.87837,4674.2606 2952.97402,4674.14869 C2953.51382,4673.52357 2953.86019,4672.79009 2954.09403,4671.99149 L2953.96875,4671.99828 L2953.96875,4671.99828 L2953.79059,4671.99923 C2953.49359,4670.72355 2953.42527,4669.32392 2952.85403,4668.19465 C2951.6015,4665.71553 2951.42501,4663.5341 2954.41496,4662.65958 C2956.92857,4661.92365 2956.27858,4658.26938 2959,4658 L2959,4658 L2958.65094,4659.1179 C2958.75821,4659.03429 2958.8696,4658.95477 2958.98608,4658.88033 C2959.08459,4658.82964 2959.18023,4658.76747 2959.2797,4658.71487 C2960.03145,4660.50243 2961.35418,4661.24557 2963.33397,4660.79318 C2963.61802,4662.06714 2963.99772,4663.21963 2965.82353,4662.61326 C2968.42786,4663.54481 2970.07004,4665.73981 2972.11582,4667.40781 C2975.99507,4666.76605 2976.91514,4663.59742 2977.97581,4660.54834 C2978.05592,4660.41254 2978.12591,4660.28188 2978.18761,4660.15542 C2978.23508,4658.96883 2978.70911,4657.55338 2976.13501,4657.87949 C2975.7919,4657.92318 2975.5904,4657.68336 2975.4697,4657.31432 L2975.4697,4657.31432 L2966.27611,4657.31432 C2965.54427,4658.39911 2964.42941,4659.29055 2964.48834,4660.77412 C2964.20131,4660.87637 2963.93518,4660.94144 2963.67191,4661 L2963.67191,4661 L2963.61108,4660.73694 C2963.63104,4659.24965 2964.18895,4658.12211 2965.22208,4657.31432 L2965.22208,4657.31432 L2961.99154,4657.31432 C2961.5933,4657.67964 2961.13709,4658.0245 2960.68088,4658.36844 C2960.59154,4658.43722 2960.5003,4658.50136 2960.40431,4658.56085 C2960.15719,4658.7133 2959.89962,4658.84623 2959.64205,4658.98101 C2959.51375,4658.67984 2959.39874,4658.35356 2959.3018,4657.99383 C2959.73805,4657.78933 2960.13533,4657.56159 2960.50315,4657.31432 L2960.50315,4657.31432 L2949,4657.31432 C2950.03978,4656.19886 2951.282,4655.36134 2953.35776,4655.60302 C2955.03053,4655.7973 2954.74445,4654.09621 2954.6399,4653.09323 C2954.37473,4650.57228 2955.06475,4648.40457 2957.74783,4648.02717 Z M3158.07984,4893 C3158.38684,4893.37617 3158.69384,4893.75337 3159,4894.12953 C3158.50155,4894.69845 3158.28985,4895.41244 3158.35564,4896 L3158.35564,4896 L3156,4896 C3156.7422,4895.09119 3157.35283,4893.95648 3158.07984,4893 Z M3150.36369,4881.64387 L3150.31919,4881.68583 C3149.68583,4882.35161 3150.27519,4883.75989 3149.67057,4884.44352 L3149.67057,4884.44352 L3147.0406,4892.45797 C3147.98778,4891.326 3148.7557,4889.99734 3150.10557,4889.2501 C3151.4035,4888.53247 3151.64727,4887.19706 3151.19172,4885.75983 C3150.76537,4884.41275 3150.28417,4883.0766 3150.36369,4881.64387 Z M3159.58307,4882.17148 C3159.56817,4882.24049 3159.557,4882.31047 3159.54024,4882.37948 L3159.47421,4882.69188 C3158.96767,4885.60667 3161.45556,4888.49651 3160.21149,4891.42349 C3160.13049,4891.61302 3160.02436,4891.78992 3159.90706,4891.95807 C3160.86226,4891.67912 3161.81746,4891.40114 3162.77359,4891.12219 L3162.77359,4891.12219 C3163.12085,4890.37962 3163.46811,4889.63705 3163.81537,4888.89642 L3163.602,4889.35 L3163.14715,4889.25267 L3160,4883.61078 C3160.3902,4883.24388 3160.7804,4882.87603 3161.16962,4882.50724 L3160.66414,4882.98445 C3160.30328,4882.71315 3159.94352,4882.44195 3159.58307,4882.17148 Z M3197.75397,4885 C3199.99196,4886.387 3201.50735,4888.31395 3203,4890.43716 C3196.43233,4891.60452 3196.29196,4891.46114 3197.75397,4885 Z M3190.94471,4888.04544 C3192.04802,4887.75942 3192.12194,4888.89934 3191.89802,4889.35489 C3191.5643,4890.03302 3190.87188,4890.76211 3190.16532,4890.9826 C3189.71421,4891.12301 3188.96418,4890.38352 3188,4889.84476 C3189.48703,4888.90662 3190.15228,4888.25033 3190.94471,4888.04544 Z M3181.94457,4886.04544 C3183.04892,4885.75942 3183.12175,4886.89934 3182.89784,4887.35489 C3182.56414,4888.03302 3181.87283,4888.76211 3181.16631,4888.9826 C3180.71522,4889.12301 3179.96413,4888.38352 3179,4887.84476 C3180.48696,4886.90662 3181.15218,4886.25033 3181.94457,4886.04544 Z M3196.8042,4857 C3198.80307,4865.25487 3198.80307,4865.25487 3192.81306,4874.91144 C3192.01201,4873.20972 3191.26749,4871.62763 3190.52298,4870.04457 C3186.39142,4871.19931 3190.08853,4874.79182 3188.29982,4877 C3186.70902,4876.44434 3184.92125,4875.9726 3183.27202,4875.1941 C3181.91965,4874.55547 3179.22151,4874.87189 3180.21482,4872.02798 C3180.94802,4869.93266 3181.09409,4867.04148 3184.80439,4867.93961 C3186.17373,4868.27146 3188.16977,4869.3471 3189.45523,4867.30581 C3189.92738,4862.43701 3195.03057,4861.38067 3196.8042,4857 Z M3153,4874 C3152.41423,4874.4375 3151.77585,4874.80819 3151,4875 C3151.56426,4874.57184 3152.2373,4874.24425 3153,4874 Z M3212.1358,4864 C3213.95417,4865.80853 3216.45923,4867.35157 3213.92513,4869.90958 C3212.44589,4871.40375 3212.19482,4875.4425 3208.34074,4873.46625 C3205.25391,4871.88295 3203.89458,4869.95654 3206.05021,4866.65768 C3211.31421,4869.01155 3211.31421,4869.01155 3212.1358,4864 Z M3178.31195,4846.89128 C3180.66046,4845.69626 3183.01921,4844.54905 3186,4845.17826 C3185.35095,4846.5079 3184.74473,4847.75071 3184.13945,4848.99548 C3183.31905,4851.85473 3180.75824,4852.57759 3178.66209,4853.84577 C3177.26993,4854.68862 3175.28646,4855.8612 3176.87324,4857.423 C3179.39867,4859.90863 3177.79141,4862.16989 3176.86486,4863.96485 C3176.08544,4865.47105 3175.12909,4865.0467 3174.12245,4864.47895 L3174.12245,4864.47895 L3174.12245,4853.60481 C3173.66896,4854.4145 3172.86532,4854.86031 3171.68548,4854.91299 C3172.1455,4856.86208 3173.77884,4858.42194 3173.41567,4860.6432 C3173.78443,4862.285 3172.42486,4862.8469 3171.63799,4863.76779 C3171.44989,4863.1259 3171.67059,4862.57473 3171.90991,4862.02844 C3171.27855,4862.29378 3170.5848,4862.44889 3170,4862.79422 C3170.12851,4860.99439 3171.19195,4860.82562 3172.30846,4860.74856 C3172.31591,4860.63344 3172.32243,4860.51541 3172.3066,4860.39444 C3172.40065,4858.499 3171.00384,4856.87866 3171.38936,4854.93543 C3171.45268,4854.84178 3171.52159,4854.75398 3171.58957,4854.66423 C3170.49354,4851.89082 3172.19206,4852.01862 3173.709,4851.96009 C3173.8105,4851.77669 3173.90362,4851.58744 3173.98184,4851.3855 C3174.03585,4851.3338 3174.07496,4851.27625 3174.12245,4851.22162 L3174.12245,4851.22162 L3174.12245,4849.36813 C3174.45396,4848.71355 3174.26213,4847.39465 3175.52206,4847.84241 C3176.55849,4847.86973 3177.10418,4846.31475 3178.31195,4846.89128 Z M3194.83023,4844.25315 C3196.01302,4842.33798 3197.29206,4842.90776 3198.45501,4844.04067 C3199.93647,4845.48324 3197.99955,4846.01205 3197.34068,4846.53896 C3195.14677,4848.28739 3193.19001,4849.60705 3195.6687,4852.80853 C3196.72944,4854.17964 3195.20333,4856.41686 3193.46586,4857.54786 C3191.56665,4858.78271 3189.8272,4860.60546 3187.1431,4859.80223 C3186.72734,4859.67741 3186.40683,4859.26198 3186,4858.9485 C3186.77893,4857.25248 3188.33779,4856.5998 3189.71408,4855.7394 C3190.79962,4855.06004 3192.43092,4854.71036 3192.22254,4853.04768 C3192.03996,4851.59654 3190.37691,4851.89287 3189.43029,4851.37263 C3188.42611,4850.82189 3186.95655,4850.77044 3186.94464,4849.3536 C3186.93075,4847.61089 3188.76249,4847.84242 3189.83216,4847.37649 C3191.68076,4846.57041 3193.7298,4846.03778 3194.83023,4844.25315 Z M3153,4857.026 L3152.00016,4857.974 C3151.98873,4857.189 3152.57527,4857.217 3153,4857.026 L3153,4857.026 Z M3182.54591,4838.00985 C3183.77916,4837.92402 3184.10584,4838.40778 3183.97211,4839.13049 C3183.72913,4840.43449 3182.78684,4840.97384 3181.46376,4840.99627 C3180.8063,4841.00895 3179.97019,4841.03528 3180.00082,4840.20041 C3180.06411,4838.48775 3181.90683,4838.71207 3182.54591,4838.00985 Z M3180.25336,4827 C3182.2764,4828.14563 3182.06123,4829.52423 3181.79299,4830.91912 C3182.39332,4832.95442 3181.71144,4834.11635 3179.43884,4833.99076 C3176.32421,4833.8182 3175.62071,4831.98039 3176.16995,4829.13117 C3177.83534,4829.61818 3179.38971,4830.07356 3180.94605,4830.52894 C3180.74267,4829.49739 3180.54125,4828.46584 3180.25336,4827 Z M3186.68413,4822.87819 C3187.17146,4822.38978 3188.10357,4821.60285 3188.47711,4822.23641 C3189.27979,4823.60122 3189.28065,4825.18056 3187.60842,4827 C3187.14888,4825.44074 3184.88593,4824.67755 3186.68413,4822.87819 Z M2917.36954,4726 C2917.8406,4727.55523 2920.10988,4728.29772 2918.32644,4730.11018 C2917.84147,4730.60275 2916.91499,4731.39724 2916.53692,4730.76694 C2915.72342,4729.40964 2915.71039,4727.83252 2917.36954,4726 Z M2926.3394,4719.00052 L2926.54128,4719.0067 C2929.65056,4719.15425 2930.36733,4720.98521 2929.84372,4723.83849 C2928.17779,4723.36422 2926.62168,4722.92157 2925.06557,4722.47892 C2925.27638,4723.50794 2925.4872,4724.536 2925.78528,4726 C2923.75753,4724.87038 2923.9605,4723.49261 2924.21642,4722.09567 C2923.60163,4720.06638 2924.27231,4718.90035 2926.54128,4719.0067 Z M2923.52611,4712.0052 C2924.18448,4711.98967 2925.02306,4711.95666 2924.99951,4712.78668 C2924.94934,4714.49235 2923.10016,4714.28363 2922.46534,4714.98842 C2921.22743,4715.08162 2920.89774,4714.60302 2921.02572,4713.8827 C2921.25815,4712.58282 2922.20015,4712.03821 2923.52611,4712.0052 Z M2935.77281,4710 L2935.77281,4712 C2935.17781,4711.42686 2934.92381,4710.80995 2935.77281,4710 L2935.77281,4710 Z M2912.05652,4695.48171 C2913.81619,4694.23709 2915.42244,4692.40767 2917.92886,4693.1871 C2918.31702,4693.30767 2918.61831,4693.71969 2919,4694.02823 C2918.28837,4695.72475 2916.84015,4696.38646 2915.56569,4697.25418 C2914.55924,4697.93962 2913.04263,4698.30133 2913.24965,4699.95512 C2913.43172,4701.40005 2914.97882,4701.09246 2915.8642,4701.60227 C2916.80319,4702.14436 2918.17284,4702.18423 2918.1941,4703.59594 C2918.2209,4705.33233 2916.51391,4705.11587 2915.5204,4705.58865 C2913.8051,4706.40511 2911.90033,4706.95194 2910.89018,4708.73675 C2909.80333,4710.65637 2908.60742,4710.09719 2907.51502,4708.97789 C2906.12411,4707.55194 2907.92444,4707.00985 2908.53441,4706.48011 C2910.56394,4704.72188 2912.37537,4703.39087 2910.0427,4700.21999 C2909.04364,4698.8624 2910.44749,4696.62095 2912.05652,4695.48171 Z M2917.63601,4677 C2919.23716,4677.54122 2921.03609,4677.99591 2922.69875,4678.75823 C2924.06048,4679.38404 2926.76881,4679.04566 2925.79222,4681.88825 C2925.07303,4683.98198 2924.94906,4686.86398 2921.21778,4686.00072 C2919.83901,4685.68157 2917.82622,4684.62509 2916.55155,4686.66979 C2916.1153,4691.52632 2910.99957,4692.61932 2909.25269,4697 C2907.18123,4688.78947 2907.18123,4688.78947 2913.12024,4679.11776 C2913.9369,4680.80678 2914.69773,4682.37755 2915.45856,4683.94833 C2919.59676,4682.76496 2915.85696,4679.21485 2917.63601,4677 Z M2947.91986,4691.25874 L2947.89637,4691.33969 C2947.12338,4693.89033 2944.74652,4692.48158 2943.10023,4692.878 C2942.99596,4692.84861 2942.88786,4692.8268 2942.77881,4692.80405 C2942.2066,4693.80748 2940.23319,4693.44737 2940.03453,4694.81313 C2942.85195,4693.33715 2945.73283,4693.92931 2948.6223,4694.80268 L2948.40989,4694.73891 C2948.36466,4694.15914 2948.31933,4693.57999 2948.27325,4693 C2948.77885,4693.55312 2948.84808,4694.14823 2948.54866,4694.77973 L2948.6223,4694.80268 C2949.78148,4695.13074 2950.93971,4695.45879 2952.09698,4695.78685 C2952.13098,4695.78768 2952.16497,4695.78852 2952.19897,4695.78936 L2952.49982,4695.5 L2952.49982,4695.5 L2952.99965,4695.021 C2953.01017,4695.51283 2952.78306,4695.68751 2952.50713,4695.79739 C2954.11532,4695.83665 2955.72196,4695.87638 2957.3286,4695.91692 C2956.22872,4694.4402 2954.59515,4695.08483 2953.17773,4694.87059 C2952.93672,4690.78188 2950.09902,4693.52586 2948.47119,4693.08208 C2948.42966,4692.41296 2948.37787,4691.74769 2947.91986,4691.25874 Z M2891.05996,4683.11463 C2892.52992,4681.61122 2892.74943,4677.57567 2896.62368,4679.51833 C2899.72776,4681.07341 2901.10298,4682.98543 2898.97168,4686.29656 C2893.68094,4683.99025 2893.68094,4683.99025 2892.89858,4689 C2891.06183,4687.20951 2888.5431,4685.68984 2891.05996,4683.11463 Z M2928,4676.00294 C2933.76573,4675.89346 2936.10745,4678.8436 2934.50952,4684 C2932.33473,4681.32845 2930.27124,4678.79375 2928,4676.00294 Z M2954,4678 C2953.43803,4678.42633 2952.76534,4678.75374 2952,4679 C2952.58484,4678.5637 2953.22262,4678.19288 2954,4678 Z M2957.54486,4661.07633 C2956.77544,4662.07406 2956.05234,4663.12586 2954.90649,4663.76542 C2953.60366,4664.49256 2953.36738,4665.82582 2953.83803,4667.25473 C2954.23191,4668.45376 2954.6707,4669.64405 2954.70877,4670.90549 C2955.20575,4670.20479 2954.68479,4668.89718 2955.25699,4668.24086 C2956.16177,4665.40793 2957.0675,4662.57404 2957.97132,4659.74111 Z M2902,4662.59885 C2908.5492,4661.37484 2908.69035,4661.5174 2907.28082,4668 C2905.03425,4666.62935 2903.50725,4664.71186 2902,4662.59885 Z M2923.82017,4664.01845 C2924.27117,4663.87434 2925.03046,4664.60527 2926,4665.13506 C2924.51846,4666.08164 2923.8583,4666.74206 2923.06524,4666.95253 C2921.96062,4667.2449 2921.87783,4666.10963 2922.09788,4665.65448 C2922.42687,4664.97643 2923.11535,4664.24343 2923.82017,4664.01845 Z M2914.82019,4662.01845 C2915.27118,4661.87434 2916.03047,4662.60527 2917,4663.13506 C2915.51847,4664.08164 2914.85723,4664.74206 2914.06417,4664.95253 C2912.96065,4665.2449 2912.87785,4664.10963 2913.09791,4663.65448 C2913.4258,4662.9754 2914.11428,4662.24343 2914.82019,4662.01845 Z M2944,4657 C2944.20086,4656.3284 2944.6214,4655.80081 2946.05983,4656.07319 C2946.71471,4656.19706 2947.01704,4656.56793 2946.99926,4657 L2946.99926,4657 L2949,4657 C2948.30762,4657.9439 2947.70854,4659.04928 2947.0061,4660 L2947.0061,4660 L2946,4658.77066 C2946.45732,4658.23275 2946.6878,4657.58112 2946.70152,4657 L2946.70152,4657 Z M2931,4654 C2929.18477,4655.90549 2930.46914,4658.64518 2927.80564,4658.99637 C2927.23154,4659.0731 2925.95085,4657.90837 2926.00146,4657.78442 C2926.75956,4655.9291 2928.15618,4654.81551 2931,4654 Z M2944,4658.74881 C2944.65907,4658.10781 2945.32489,4658.06981 2946,4658.71481 L2946,4658.71481 L2944,4658.75081 Z M2979.40072,4657.31352 L2978.16704,4657.31432 C2978.53137,4657.6941 2978.78524,4658.12842 2978.83764,4658.66363 C2979.06503,4658.15155 2979.25372,4657.70435 2979.40072,4657.31352 Z M2913,4652.59885 C2919.5492,4651.37484 2919.69035,4651.5174 2918.28082,4658 C2916.03524,4656.62935 2914.50725,4654.71288 2913,4652.59885 Z M3009,4650 C3005.26266,4655.13671 3000.85673,4656.84103 2996.04967,4655.62447 C2996.03247,4655.25058 2996.01624,4654.87764 2996,4654.5028 C3000.38873,4654.16877 3004.11557,4651.61702 3009,4650 Z M2940,4647 L2945,4649.06442 L2940.54837,4652 L2940,4647 Z M2890,4649 C2891.92952,4649.42041 2893.4922,4648.90774 2893.98918,4650.68793 C2894.07935,4651.01293 2893.58647,4651.81391 2893.23602,4651.90827 C2891.44279,4652.39368 2891.04315,4650.88398 2890,4649 Z M2971,4641 C2976.31475,4643.18814 2976.35188,4644.12139 2971,4651 L2971,4651 Z M2927.56807,4640.08779 C2929.65523,4639.33685 2933.95265,4643.57075 2934,4646.40601 C2933.62594,4647.30402 2933.06343,4648.65201 2932.50092,4650 C2931.26416,4649.34938 2929.46488,4649.16432 2929.25181,4647.48908 C2929.03116,4645.75441 2928.32755,4645.35508 2926.79722,4645.40865 C2925.30003,4645.46027 2923.04242,4645.65215 2923.00075,4643.72756 C2922.94677,4641.12605 2925.81425,4640.7199 2927.56807,4640.08779 Z M2992.12639,4640 C2993.32174,4640.24617 2995.29198,4641.24471 2994.96361,4641.83607 C2993.34686,4644.7512 2991.54778,4647.75054 2989.09289,4649.90866 C2988.34405,4650.56665 2987.29009,4647.50808 2987.02311,4645.90522 C2986.69102,4643.90627 2990.01382,4640.1527 2992.12639,4640 Z M3006.69006,4641 C3006.95502,4641.2571 3007.0491,4641.52137 3006.97614,4641.79383 C3006.90222,4642.07039 3006.8235,4642.20867 3006.73998,4642.20867 C3005.20205,4644.11796 3006.8859,4649.24149 3001.90732,4647.72246 C3000.91947,4647.42029 2999.23466,4648.44561 2999.04074,4646.84566 C2998.85642,4645.33995 2999.3201,4643.57508 2999.97579,4642.17999 C3000.47691,4641.11472 3001.90252,4640.66915 3002.95084,4641.54185 C3004.48301,4642.8171 3005.58989,4642.3111 3006.69006,4641 Z M2899.41966,4644 C2900.52315,4644.85828 2901.29204,4645.58562 2900.89329,4646.65509 C2900.8163,4646.86205 2899.82532,4647.09267 2899.67628,4646.96173 C2898.79586,4646.18793 2898.8462,4645.24011 2899.41966,4644 Z M2915.10695,4638.02234 C2915.83989,4637.50945 2916.5089,4636.75612 2917.55339,4637.07702 C2917.71547,4637.1273 2917.84063,4637.29552 2918,4637.42351 C2917.70286,4638.12199 2917.09958,4638.39535 2916.56833,4638.7519 C2916.14963,4639.0344 2915.51754,4639.18342 2915.60398,4639.86453 C2915.67962,4640.45878 2916.32432,4640.33262 2916.69349,4640.54289 C2917.08337,4640.76505 2917.65514,4640.78242 2917.66414,4641.36388 C2917.67495,4642.07881 2916.96362,4641.98922 2916.55032,4642.18395 C2915.83539,4642.52039 2915.04212,4642.74529 2914.62072,4643.48034 C2914.16781,4644.27024 2913.66988,4644.03986 2913.21426,4643.57908 C2912.63529,4642.99214 2913.38534,4642.76906 2913.63926,4642.55056 C2914.48566,4641.82648 2915.23931,4641.27977 2914.26775,4639.97332 C2913.85176,4639.41381 2914.43613,4638.49134 2915.10695,4638.02234 Z M2947,4636 C2950.70224,4637.23905 2950.70224,4637.23905 2948.49835,4643 C2946.94511,4640.4797 2947.39776,4638.24079 2947,4636 Z M2963.53008,4639.00002 L2963.72149,4639.00449 C2964.88934,4639.06248 2965.58664,4639.63567 2966,4640.61192 C2965.58864,4642.08912 2964.35658,4642.08246 2963.15362,4641.93893 C2962.2988,4641.83626 2960.74167,4642.31441 2961.03664,4640.78683 C2961.24734,4639.69746 2962.30081,4638.93415 2963.72149,4639.00449 Z M2889,4634 C2891.78458,4636.11759 2891.23379,4638.0038 2889.91974,4640 C2889.64804,4638.2331 2889.37741,4636.46516 2889,4634 Z M2987,4634 C2983.2617,4639.13671 2978.85578,4640.84103 2974.04871,4639.62447 C2974.03247,4639.25058 2974.01719,4638.87764 2974,4638.50375 C2978.38873,4638.16877 2982.11557,4635.61797 2987,4634 Z M2997.69008,4630 C2997.95502,4630.2571 2998.0491,4630.52136 2997.97614,4630.79485 C2997.90223,4631.07038 2997.82351,4631.20969 2997.73904,4631.20969 C2996.20218,4633.11896 2997.88591,4638.24144 2992.90769,4636.72242 C2991.91992,4636.42128 2990.23524,4637.44557 2990.04037,4635.84665 C2989.85702,4634.34094 2990.32067,4632.57507 2990.97631,4631.17998 C2991.47739,4630.11574 2992.90289,4629.67018 2993.95114,4630.54287 C2995.48319,4631.81812 2996.59,4631.31109 2997.69008,4630 Z M2908,4633 C2907.09266,4634.36849 2908.7607,4637.1894 2905.50914,4636.98995 C2904.21076,4636.91097 2902.70565,4636.40543 2903.04985,4635.04385 C2903.58957,4632.90817 2906.01424,4633.36236 2908,4633 Z M2959.56807,4625.08779 C2961.65617,4624.33685 2965.95265,4628.57075 2966,4631.40601 C2965.62594,4632.30402 2965.06343,4633.65201 2964.50092,4635 C2963.2651,4634.34938 2961.46488,4634.16432 2961.25276,4632.48908 C2961.03116,4630.75441 2960.32755,4630.35508 2958.79722,4630.40865 C2957.30003,4630.46027 2955.04147,4630.65215 2955.00075,4628.72756 C2954.94677,4626.12605 2957.81425,4625.7199 2959.56807,4625.08779 Z M2976,4628 L2981,4630.06442 L2976.55012,4633 L2976,4628 Z M2930.41964,4630 C2931.52408,4630.85818 2932.29195,4631.58544 2931.89321,4632.6548 C2931.81623,4632.86174 2930.82529,4633.09318 2930.67626,4632.96141 C2929.79587,4632.18769 2929.8462,4631.23998 2930.41964,4630 Z M2915.4195,4629 C2916.52285,4629.85837 2917.29263,4630.58579 2916.89294,4631.65538 C2916.81596,4631.86236 2915.82512,4632.09216 2915.67708,4631.96206 C2914.79579,4631.18817 2914.84612,4630.24025 2915.4195,4629 Z M2971.02808,4622.38368 C2971.18456,4621.06116 2971.10335,4618.7123 2972.97221,4619.02906 C2975.19662,4619.40577 2978.79074,4619.98202 2978.9898,4622.18861 C2979.20868,4624.63859 2975.84829,4623.3277 2974.22604,4623.9129 C2972.93259,4623.62657 2970.72601,4624.93566 2971.02808,4622.38368 Z M2940,4619 C2939.09367,4620.36849 2940.76172,4623.1894 2937.50913,4622.98995 C2936.21175,4622.91097 2934.70562,4622.40543 2935.04982,4621.04385 C2935.58955,4618.90817 2938.01423,4619.36236 2940,4619 Z M2920.41964,4616 C2921.52408,4616.85816 2922.29195,4617.5854 2921.89321,4618.65556 C2921.81623,4618.8625 2920.82529,4619.09309 2920.67626,4618.96132 C2919.79587,4618.18763 2919.8462,4617.23994 2920.41964,4616 Z M2916,4610 C2915.36902,4610.62218 2915.11531,4611.94757 2914.27346,4611.99994 C2914.18367,4612.00617 2913.97115,4611.53611 2914.00328,4611.45382 C2914.43985,4610.3142 2915.36078,4610.56233 2916,4610 Z" id="GEO-Shape-4"></path>
        </g>
    </g>
</svg>