<?xml version="1.0" encoding="UTF-8"?>
<svg width="309px" height="172px" viewBox="0 0 309 172" version="1.1" xmlns="http://www.w3.org/2000/svg" xmlns:xlink="http://www.w3.org/1999/xlink">
    <title>Paint 6</title>
    <g id="Page-1" stroke="none" stroke-width="1" fill="none" fill-rule="evenodd">
        <g id="Desktop-HD" transform="translate(-5039.000000, -4034.000000)" fill="#000000">
            <path d="M5161.25633,4110.364 C5161.33703,4110.222 5161.31092,4110.104 5161.18038,4109.988 C5161.13528,4109.948 5161.06408,4109.916 5161,4109.886 C5161.00949,4109.884 5161.01661,4109.886 5161.02848,4109.884 C5161.05934,4109.878 5161.08782,4109.872 5161.11392,4109.864 C5161.14715,4109.856 5161.17801,4109.846 5161.20649,4109.836 C5161.26108,4109.82 5161.30854,4109.8 5161.35601,4109.776 C5161.36551,4109.77 5161.37263,4109.766 5161.37975,4109.76 C5161.43434,4109.732 5161.48418,4109.696 5161.52453,4109.656 C5161.53165,4109.648 5161.53639,4109.64 5161.54351,4109.632 C5161.55301,4109.624 5161.55775,4109.612 5161.56487,4109.602 C5162.39082,4109.932 5163.21203,4110.292 5164,4110.398 C5163.08623,4110.376 5162.17247,4110.366 5161.25633,4110.364 M5148.153,4183.802 C5148.143,4183.798 5148.131,4183.79 5148.119,4183.786 C5148.455,4183.786 5148.763,4183.736 5149.079,4183.69 C5149.381,4183.894 5149.637,4184.1 5149.881,4184.31 C5149.445,4184.242 5148.951,4184.108 5148.153,4183.802 M5132.636,4153.12261 C5132.746,4153.03861 5132.786,4152.91061 5132.772,4152.79061 C5132.818,4152.80861 5132.868,4152.82661 5132.928,4152.83461 C5133.102,4152.85861 5133.364,4153.07661 5133.53,4153.20661 C5133.178,4153.21061 5132.826,4153.21061 5132.47,4153.20461 C5132.524,4153.17861 5132.578,4153.16861 5132.636,4153.12261 M5084.98,4136.039 C5084.98,4135.989 5085.004,4135.935 5085.02,4135.881 C5085.016,4135.961 5085.012,4136.041 5085.012,4136.119 C5085,4136.095 5084.98,4136.067 5084.98,4136.039 M5347.94609,4073.06885 C5347.8059,4070.30875 5346.57671,4068.32797 5345.73559,4065.97377 C5344.89649,4063.62769 5344.61205,4061.45208 5342.65755,4059.78994 C5340.3028,4057.78684 5337.94602,4059.02685 5335.40029,4058.1907 C5333.71397,4057.63666 5332.73672,4055.62341 5331.41205,4054.39151 C5329.95328,4053.03176 5328.45185,4052.07384 5326.77772,4050.99213 C5324.97966,4049.82923 5323.55543,4048.299 5321.82035,4047.26194 C5319.76427,4046.0341 5317.40139,4045.74794 5315.27622,4044.93818 C5315.23559,4044.84076 5315.15838,4044.74538 5315.02836,4044.66826 C5314.87395,4044.57287 5314.77846,4044.43487 5314.65655,4044.29686 C5314.42291,4044.02897 5314.06939,4043.9417 5313.75041,4044.08783 C5313.69352,4044.11218 5313.63664,4044.1548 5313.58787,4044.20148 C5311.67197,4043.42215 5309.95112,4043.19485 5308.39889,4041.52053 C5307.27333,4040.30487 5307.39117,4039.52149 5305.78205,4039.05674 C5305.93037,4039.006 5306.03398,4038.89438 5305.96491,4038.70361 C5305.9324,4038.61228 5305.89989,4038.51892 5305.86942,4038.4276 C5305.82066,4038.27944 5305.67437,4038.16579 5305.53215,4038.14144 C5305.3493,4038.11303 5305.20098,4038.0907 5305.0547,4038.2348 C5304.88404,4038.40324 5304.85356,4038.62649 5305.04657,4038.79696 C5305.0994,4038.8477 5305.15629,4038.89235 5305.20911,4038.937 C5304.15465,4038.83958 5303.23429,4039.35507 5302.11279,4038.83146 C5299.79664,4037.75178 5299.87994,4034.92065 5297.34234,4035.21289 C5297.31593,4035.08707 5297.2245,4034.98153 5297.11885,4034.91456 C5297.2245,4034.93283 5297.33015,4034.93689 5297.41548,4034.92268 C5297.59224,4035.02618 5297.89293,4034.95109 5297.84011,4034.69741 C5297.81369,4034.58781 5297.79541,4034.47619 5297.77916,4034.3666 C5297.69789,4033.87344 5296.91365,4033.93026 5296.69219,4034.2286 C5296.4748,4034.51881 5296.61296,4034.71364 5296.83847,4034.82526 C5296.68813,4034.79482 5296.53575,4034.76032 5296.38337,4034.74003 C5296.25334,4034.72176 5295.92217,4034.79076 5295.81856,4034.71567 C5295.63977,4034.58984 5295.11559,4034.69944 5295.33704,4035.00589 C5295.61335,4035.39352 5296.20458,4035.6472 5296.63734,4035.71824 C5296.7633,4035.7365 5296.90958,4035.73447 5297.03961,4035.69185 C5296.99695,4035.92727 5296.95428,4036.16269 5296.91162,4036.39811 C5296.61905,4037.58333 5295.86935,4038.04402 5294.66455,4037.77816 C5293.12451,4038.66099 5292.3037,4038.53516 5290.89776,4038.80305 C5290.69053,4038.52704 5290.48126,4038.25306 5290.27403,4037.97502 C5289.61982,4038.2835 5288.80104,4038.61025 5288.12448,4039.07906 C5286.76324,4040.0248 5286.16388,4041.46979 5284.42271,4041.9244 C5282.87048,4042.33029 5281.18213,4041.18972 5279.65835,4042.09284 C5278.58561,4042.73213 5278.45355,4043.93155 5277.25484,4044.33136 C5275.99722,4042.87622 5273.02686,4039.13183 5271.39133,4038.12114 C5271.40556,4038.01967 5271.36695,4037.90602 5271.24505,4037.78019 C5271.0947,4037.62595 5270.95858,4037.4575 5270.84887,4037.26673 C5270.64976,4036.91969 5269.9732,4037.07393 5270.04837,4037.52448 C5270.10729,4037.86949 5270.2292,4038.16376 5270.50348,4038.36062 C5270.57865,4038.41745 5270.67414,4038.4418 5270.77166,4038.45195 C5270.54614,4040.41649 5272.47627,4044.39428 5273.18127,4045.89812 C5273.11422,4045.89812 5273.04921,4045.90218 5272.98216,4045.90218 C5272.53519,4045.38264 5272.06789,4044.88338 5271.58435,4044.39834 C5271.03172,4043.8382 5270.49535,4043.16644 5270.00571,4042.53933 C5269.62781,4042.05631 5269.08738,4041.89598 5268.64446,4041.49009 C5268.52459,4041.38049 5268.17717,4041.49617 5268.32142,4041.68492 C5269.06503,4042.66516 5269.82082,4043.58451 5270.52989,4044.6094 C5270.64367,4044.77582 5270.74322,4044.9463 5270.85496,4045.11271 C5270.78385,4045.06807 5270.70868,4045.02342 5270.64367,4044.9605 C5270.50145,4044.8225 5270.1012,4044.9605 5270.25967,4045.19186 C5270.47503,4045.50846 5270.7615,4045.77027 5271.13737,4045.65865 C5271.15159,4045.65459 5271.16988,4045.64241 5271.19019,4045.63226 C5271.25318,4045.73374 5271.32022,4045.83521 5271.38524,4045.93668 C5260.29211,4046.31417 5249.60533,4050.12554 5238.3578,4050.01189 C5226.2285,4049.88606 5214.28815,4051.40817 5202.15886,4051.33308 C5191.33798,4051.26611 5269.59937,4053.42142 5258.78052,4053.38083 C5251.11692,4053.35242 5243.42691,4053.52492 5235.74502,4053.58175 C5235.30211,4053.48027 5234.68244,4053.41127 5234.52396,4053.40315 C5234.37768,4053.39706 5234.30454,4053.39504 5234.19889,4053.39504 C5234.16638,4053.37677 5234.09527,4053.35242 5233.91242,4053.31589 C5233.437,4053.22253 5232.94939,4053.19006 5232.46584,4053.17991 C5230.47274,4053.14135 5228.49589,4052.84302 5226.50888,4052.6766 C5224.13787,4052.47568 5220.20042,4053.00335 5218.07729,4051.83639 C5217.74409,4051.65171 5216.77903,4051.92366 5216.70589,4051.87698 C5218.93061,4053.30371 5222.75631,4052.89578 5225.25734,4053.186 C5226.15129,4053.29153 5226.9782,4053.42548 5227.7726,4053.56348 C5225.59867,4053.54319 5223.42881,4053.52898 5221.26097,4053.45592 C5216.32392,4053.29356 5211.52503,4052.12458 5206.59001,4051.95816 C5202.04914,4051.80189 5197.47374,4051.94193 5192.91662,4051.99875 C5193.49565,4051.9886 5194.08079,4051.97034 5194.65779,4051.96222 C5195.34045,4051.95207 5194.94833,4051.75927 5194.50745,4051.75115 C5176.47604,4051.45079 5158.40603,4051.79783 5140.42541,4050.40764 C5139.85044,4050.36299 5137.43068,4050.64103 5139.2328,4050.89471 C5142.09548,4051.29655 5144.98457,4051.58068 5147.87975,4051.8161 C5139.10277,4051.49138 5130.30345,4051.0043 5121.61586,4050.24528 C5121.28266,4050.21484 5120.65893,4050.35081 5121.34971,4050.41372 C5128.16812,4051.02663 5135.04139,4051.61924 5141.91872,4052.02716 L5140.35024,4052.02716 C5136.79272,4052.03122 5133.14987,4051.73086 5129.60047,4051.95816 C5128.03606,4052.05558 5126.54885,4052.34579 5125.06367,4052.63804 C5124.98443,4052.61165 5124.87066,4052.58527 5124.66139,4052.56701 C5123.4444,4052.46553 5122.31274,4052.16314 5121.08152,4052.36203 C5120.16929,4052.50815 5119.22251,4052.4635 5118.3184,4052.73545 C5117.92019,4052.85722 5119.47444,4053.03379 5119.69183,4053.01146 C5120.93524,4052.88361 5122.43464,4052.84099 5123.87106,4052.85722 C5122.37572,4053.14135 5120.87023,4053.39504 5119.27533,4053.41736 C5115.86207,4053.46201 5112.44067,4053.29965 5109.02537,4053.35445 C5105.91889,4053.40315 5103.48896,4054.43007 5100.46985,4054.81567 C5098.54988,4055.05921 5096.4877,4054.64723 5094.55148,4054.71217 C5092.86313,4054.769 5091.53033,4055.20533 5090.12033,4055.62544 C5090.12439,4055.5402 5089.52097,4055.45902 5089.41126,4055.45699 C5088.07846,4055.44278 5086.63798,4055.42858 5085.32346,4055.69241 C5085.04918,4055.74721 5085.27877,4055.81418 5085.42099,4055.8365 C5086.91836,4056.07395 5088.35071,4055.96436 5089.8237,4055.71271 C5089.23653,4055.88318 5088.63515,4056.04554 5087.97891,4056.1734 C5086.77614,4056.40679 5085.47584,4055.81012 5084.27104,4056.03133 C5082.41812,4056.37432 5081.23567,4057.40935 5079.28929,4057.49662 C5076.17672,4057.63666 5073.69194,4058.86652 5070.56514,4058.81376 C5066.92432,4058.75693 5063.28147,4058.87464 5059.64065,4058.8239 C5056.15017,4058.77722 5053.9031,4060.36428 5050.64018,4061.23087 C5048.5719,4061.7768 5045.00219,4060.71944 5044.54099,4063.91182 C5045.65031,4064.81291 5046.912,4065.50293 5048.27934,4065.62876 C5047.38132,4065.61455 5046.37563,4065.63485 5045.54466,4065.86824 C5044.44347,4065.76474 5043.34229,4065.66935 5042.23704,4065.65311 C5042.08263,4065.65108 5040.58526,4065.58817 5040.57916,4065.91898 C5040.57307,4066.24978 5042.07247,4066.24775 5042.22891,4066.24978 C5043.00502,4066.26196 5043.78113,4066.30661 5044.55928,4066.33908 C5044.51864,4066.36749 5044.48411,4066.39996 5044.44753,4066.43041 C5044.19967,4066.45273 5043.9518,4066.45679 5043.70596,4066.48926 C5043.00502,4066.57856 5043.89897,4066.78151 5044.13059,4066.79977 C5044.0351,4066.94792 5043.95789,4067.11434 5043.91116,4067.30308 L5043.9071,4067.30308 C5042.46662,4067.12043 5040.91439,4067.10419 5039.48814,4066.76527 C5039.4028,4066.74701 5038.9091,4066.77948 5039.01475,4066.82413 C5039.9473,4067.19958 5041.26385,4067.47153 5042.22281,4067.58112 C5042.7409,4067.63998 5043.24476,4067.94034 5043.73034,4068.27927 C5043.33619,4068.29753 5042.98674,4068.34218 5042.89328,4068.37059 C5042.79779,4068.40306 5042.75309,4068.42539 5042.72058,4068.44568 C5042.35284,4068.45583 5041.9851,4068.45989 5041.62549,4068.54716 C5041.16226,4068.66081 5040.79656,4068.72575 5041.19477,4069.20674 C5041.45686,4069.51928 5042.64135,4069.39345 5042.95829,4069.23921 C5043.34838,4069.04844 5043.67752,4068.99364 5044.02088,4068.95102 C5044.09402,4069.19862 5044.18544,4069.46042 5044.30531,4069.74252 C5042.70027,4069.62481 5041.11147,4069.56799 5039.65474,4069.62887 C5039.49017,4069.63496 5039.29512,4069.69584 5039.57347,4069.73643 C5041.33089,4069.99215 5043.14115,4070.2641 5044.91889,4070.6497 L5044.94327,4070.67406 C5044.85794,4070.69435 5044.85794,4070.71465 5044.99813,4070.72885 C5045.00625,4070.73291 5045.01438,4070.74103 5045.02251,4070.74712 C5044.62836,4070.74712 5044.23827,4070.75118 5043.84209,4070.76741 C5042.58446,4070.82018 5041.32886,4070.8628 5040.07124,4070.95007 C5039.57347,4070.98457 5039.92292,4071.12663 5040.20736,4071.1449 C5042.05621,4071.26464 5044.00259,4071.48179 5045.90021,4071.4067 C5047.27161,4072.18602 5049.13672,4072.48638 5050.49593,4072.67107 C5050.48171,4073.17641 5050.30088,4073.60463 5049.99613,4073.97603 C5049.78483,4073.96182 5049.57353,4073.96182 5049.36833,4073.96791 C5049.31551,4073.96994 5048.3667,4074.043 5048.55768,4074.21145 C5048.74663,4074.37583 5048.93558,4074.5179 5049.14281,4074.65387 C5049.58776,4074.94612 5050.3598,4074.87509 5050.85148,4074.86291 C5050.86164,4074.86291 5050.92868,4074.85073 5050.97948,4074.84464 C5051.29236,4075.02527 5051.62353,4075.19574 5051.95266,4075.36622 C5051.54835,4075.3784 5051.06278,4075.52046 5051.27407,4076.11713 C5051.37566,4076.41141 5052.29805,4076.36067 5052.50529,4076.36473 C5052.56827,4076.36473 5053.15747,4076.33023 5053.49067,4076.25108 C5053.73041,4076.41343 5053.97421,4076.57376 5054.13065,4076.7483 C5054.33382,4076.97154 5054.46792,4077.20087 5054.58169,4077.43021 C5054.13878,4077.17043 5053.64101,4077.0304 5053.13512,4077.02228 C5052.34072,4077.00604 5052.39558,4077.44644 5051.56664,4077.61895 C5051.05262,4077.72448 5051.01198,4077.90713 5051.56054,4078.01673 C5052.25132,4078.15676 5053.0701,4078.2075 5053.76088,4078.05935 C5054.10221,4077.98628 5054.39884,4077.91931 5054.72391,4077.79348 C5054.72798,4077.79145 5054.7361,4077.78942 5054.74017,4077.78739 C5054.88848,4078.19126 5054.97584,4078.5931 5055.09978,4078.97058 C5054.7808,4078.83461 5053.54959,4078.49771 5053.54146,4079.01117 C5053.53536,4079.36024 5054.8255,4079.12685 5055.12213,4079.0335 C5055.34562,4079.68293 5055.70929,4080.25525 5056.80844,4080.62258 C5058.93971,4081.33087 5060.5671,4079.87776 5062.12746,4079.50028 C5064.47611,4078.93202 5065.28879,4079.81891 5067.11124,4080.25322 C5069.04948,4080.71391 5071.23154,4079.98533 5073.12712,4080.48458 C5073.58019,4080.60635 5073.95403,4080.74841 5074.29535,4080.89453 C5072.76142,4080.91686 5071.22951,4080.93715 5069.70573,4080.83771 C5070.18115,4080.76668 5070.08159,4080.57996 5069.3258,4080.57996 C5068.21242,4080.57793 5067.03809,4080.34251 5065.93284,4080.49675 C5065.82923,4080.39528 5065.46758,4080.30801 5064.81337,4080.30801 C5063.25912,4080.30801 5063.2449,4080.80118 5064.80525,4080.80118 C5065.48181,4080.80118 5065.84954,4080.70782 5065.93691,4080.60229 C5065.95926,4080.60838 5065.98364,4080.61446 5066.00395,4080.61649 C5066.46515,4080.66317 5066.91213,4080.71188 5067.36114,4080.75653 C5066.75365,4080.81538 5066.1604,4080.92903 5066.76991,4081.03051 C5068.77114,4081.36537 5070.78456,4081.30043 5072.80408,4081.28014 C5072.93411,4081.3187 5073.16776,4081.30855 5073.37296,4081.28216 C5074.0353,4081.28419 5074.6956,4081.32681 5075.35387,4081.37755 C5076.05278,4081.68603 5076.79232,4081.92754 5078.04589,4081.90928 C5079.53919,4081.88695 5084.73021,4081.3532 5087.45676,4081.90928 C5087.43847,4081.92145 5087.45269,4081.93566 5087.54006,4081.93566 C5087.56241,4081.93566 5087.55834,4081.9316 5087.5746,4081.92957 C5088.38525,4082.10816 5088.93787,4082.39838 5089.09431,4082.83066 C5088.66969,4082.77992 5088.21662,4082.79413 5087.91592,4082.78804 C5087.46692,4082.77992 5087.01994,4082.80428 5086.57297,4082.83269 C5086.24789,4082.86313 5086.27024,4082.8611 5086.64001,4082.82457 L5085.85374,4082.74745 C5084.28526,4082.64192 5082.55831,4082.08787 5081.02437,4082.70686 C5080.85574,4082.77586 5081.73953,4082.85907 5081.91426,4082.82051 C5082.859,4082.59524 5084.50469,4083.0742 5085.47381,4083.2325 C5085.94923,4083.30962 5086.43278,4083.35224 5086.91429,4083.36239 C5086.97931,4083.36239 5087.04432,4083.36036 5087.11137,4083.36036 C5087.13575,4083.37253 5087.17029,4083.37456 5087.19264,4083.38674 C5085.04106,4083.61404 5082.62942,4083.27106 5080.59771,4083.27106 C5078.65337,4083.27106 5076.70902,4083.26903 5074.76265,4083.27106 C5070.17708,4082.1244 5065.08969,4082.78195 5060.43504,4082.29285 C5060.10997,4082.25632 5058.41756,4082.43085 5059.5289,4082.55465 C5063.40946,4082.98896 5067.32456,4083.05796 5071.22544,4083.27106 C5070.59358,4083.26903 5069.95766,4083.27715 5069.32377,4083.27106 C5067.60494,4083.25888 5066.00802,4083.09855 5064.34202,4083.57548 C5064.28513,4083.58969 5064.23027,4083.59781 5064.17339,4083.61404 C5061.17662,4083.38674 5058.17578,4083.1635 5055.1587,4083.10058 C5054.44557,4083.08638 5053.80355,4083.35833 5054.9027,4083.43139 C5057.41796,4083.59983 5059.92712,4083.79669 5062.43221,4083.98544 C5061.38182,4084.16403 5060.34565,4084.29595 5059.29526,4084.55572 C5057.7857,4084.93118 5057.37326,4085.78153 5055.6524,4086.02101 C5053.96405,4086.2544 5052.40777,4085.71253 5050.73973,4086.2199 C5049.9047,4089.70858 5054.32367,4088.25344 5055.68897,4088.63701 C5057.52767,4089.1525 5058.47851,4091.12922 5060.60774,4091.48844 C5060.67885,4091.50061 5060.76012,4091.50873 5060.83529,4091.51888 C5060.59148,4091.54932 5060.35987,4091.596 5060.51834,4091.64065 C5062.19857,4092.14193 5064.00882,4092.22717 5065.81704,4092.29617 C5065.08969,4092.36314 5064.36437,4092.42403 5063.63498,4092.44838 C5062.57037,4092.48288 5063.17785,4092.77919 5063.87269,4092.77716 C5065.31317,4092.77513 5066.74959,4092.70816 5068.18601,4092.62901 C5069.39284,4093.13638 5070.28883,4093.92788 5070.4412,4095.22877 C5068.76708,4095.79703 5067.16812,4095.04206 5065.52244,4095.42766 C5064.80118,4095.59814 5064.28919,4096.04463 5063.73454,4096.44443 C5063.43384,4096.43023 5063.13925,4096.42211 5063.0722,4096.43632 L5062.53177,4096.51547 C5061.41229,4096.52155 5062.05025,4096.86048 5062.7837,4096.86048 C5062.8609,4096.86048 5062.96249,4096.86657 5063.05798,4096.87266 C5062.75119,4097.02284 5062.41393,4097.13243 5062.00759,4097.15881 C5062.18638,4099.56781 5066.30465,4100.75303 5068.04988,4100.96815 C5071.91216,4101.44711 5075.2787,4102.28326 5079.28929,4102.29138 C5080.83949,4102.29341 5082.75539,4101.93216 5084.27104,4102.22034 C5086.11989,4102.5755 5087.3186,4103.56589 5089.25279,4103.68157 C5090.9005,4103.77899 5092.58479,4103.61866 5094.23454,4103.65519 C5096.88591,4103.71201 5098.80994,4104.77749 5101.40443,4105.08192 C5113.30211,4106.48835 5125.4436,4107.7243 5137.55461,4107.7243 C5140.92928,4107.7243 5144.49696,4107.35291 5147.85537,4107.6553 C5150.46611,4107.88869 5152.68677,4108.99273 5155.33002,4109.11653 C5155.47631,4109.12059 5155.62665,4109.11247 5155.77497,4109.11247 C5155.76887,4109.14088 5155.75262,4109.16321 5155.75262,4109.19568 C5155.74652,4109.56098 5156.13458,4109.7619 5156.42511,4109.7619 C5156.71158,4109.7619 5157.10777,4109.59752 5157.11386,4109.22003 C5157.11386,4109.16524 5157.09354,4109.12059 5157.07729,4109.07188 C5158.1541,4109.00491 5159.24512,4108.90749 5160.27926,4109.05158 C5160.36663,4109.06376 5160.45399,4109.09014 5160.54135,4109.11044 C5160.43367,4109.3073 5160.54338,4109.5549 5160.71608,4109.7132 C5160.72014,4109.71725 5160.72218,4109.72334 5160.72624,4109.7274 L5160.75468,4109.75784 C5160.67748,4109.75784 5160.6023,4109.75987 5160.54542,4109.77814 C5160.21018,4109.87555 5160.30974,4110.22666 5160.61653,4110.2571 C5160.52713,4110.24898 5160.63888,4110.33625 5160.67951,4110.39104 C5160.69373,4110.40931 5160.71405,4110.42149 5160.7303,4110.43772 C5160.59824,4110.43772 5160.46821,4110.43975 5160.33818,4110.43975 C5160.40117,4110.15968 5160.20815,4109.85932 5159.942,4109.70914 C5160.18174,4109.55693 5160.08828,4109.11856 5159.66975,4109.19974 L5159.43814,4109.24641 C5159.22481,4109.28903 5159.18011,4109.51837 5159.31217,4109.63608 C5159.27966,4109.64419 5159.24512,4109.6584 5159.21262,4109.67058 C5159.16182,4109.11247 5158.37555,4108.9907 5157.99969,4109.16118 C5157.36783,4109.44936 5157.55068,4110.2571 5158.17645,4110.38495 C5158.22724,4110.39307 5158.28209,4110.40525 5158.33492,4110.4154 C5158.44463,4110.43772 5158.56653,4110.43163 5158.68844,4110.40931 C5158.6925,4110.42554 5158.70469,4110.44381 5158.71078,4110.46005 C5158.34101,4110.46613 5157.97124,4110.47425 5157.60147,4110.48034 C5157.6096,4110.42757 5157.60757,4110.37278 5157.57709,4110.30783 C5157.46535,4110.0643 5157.35564,4109.95267 5157.11996,4109.85729 C5156.87412,4109.75582 5156.59578,4109.74567 5156.37229,4109.9202 C5156.1935,4110.05821 5156.14474,4110.32204 5156.26258,4110.51078 C5156.18537,4110.51281 5156.10817,4110.51281 5156.03096,4110.51484 C5156.09598,4110.27942 5155.95173,4110.00138 5155.57789,4109.99529 C5155.53522,4109.99529 5155.49662,4109.99529 5155.45396,4109.99326 C5155.06793,4109.98921 5154.90946,4110.29566 5154.98463,4110.54123 C5154.88102,4110.54325 5154.7774,4110.54528 5154.67581,4110.54731 C5154.80178,4110.48034 5154.89524,4110.36466 5154.84444,4110.20433 C5154.81397,4110.09474 5154.76318,4110.01356 5154.70222,4109.95065 C5154.92978,4109.94253 5155.15733,4109.86338 5155.29548,4109.68275 C5155.50678,4109.40877 5155.05168,4109.19771 5154.8546,4109.30933 C5154.68597,4109.40877 5154.3995,4109.31339 5154.20039,4109.39254 C5154.00738,4109.46966 5154.02363,4109.66246 5154.14757,4109.7822 C5154.08865,4109.78423 5154.03379,4109.78423 5153.97691,4109.79032 C5153.46288,4109.84714 5153.62339,4110.52702 5154.08459,4110.51687 C5154.14147,4110.51687 5154.19836,4110.53514 5154.25525,4110.55746 C5152.96308,4110.58587 5151.67295,4110.61023 5150.38281,4110.61429 C5150.58192,4110.48846 5150.53113,4110.19418 5150.21621,4110.15562 C5149.88911,4110.11909 5149.61076,4110.19215 5149.28975,4110.23071 C5149.19833,4110.24289 5149.12925,4110.31392 5149.11503,4110.41134 C5149.11096,4110.43569 5149.10893,4110.45802 5149.10487,4110.48034 C5149.09877,4110.52905 5149.11503,4110.56761 5149.13941,4110.60617 C5147.97321,4110.59602 5146.80904,4110.57167 5145.6469,4110.51281 C5140.87239,4110.26522 5136.4453,4109.05767 5131.61186,4109.08812 C5129.50905,4109.10232 5127.19087,4108.79587 5125.06367,4108.96838 C5125.03523,4108.91764 5125.00272,4108.86893 5124.96209,4108.82225 C5125.13478,4108.58886 5125.02304,4108.20529 5124.59638,4108.20529 C5124.37492,4108.20529 5124.23473,4108.31082 5124.17378,4108.44477 C5123.51957,4108.31488 5122.79628,4108.48333 5122.25991,4108.85472 C5122.07909,4108.97852 5122.1502,4109.26062 5122.3168,4109.34992 C5122.37775,4109.38036 5122.43464,4109.40877 5122.49356,4109.44125 C5121.56101,4109.70508 5120.64064,4110.00747 5119.6959,4110.23477 C5120.05348,4110.08459 5119.79342,4109.54475 5119.37083,4109.62187 C5119.02543,4109.68275 5118.68614,4109.62593 5118.34075,4109.67058 C5117.83892,4109.73349 5117.34724,4109.84105 5116.83932,4109.82076 C5116.45939,4109.80655 5115.67515,4109.74161 5115.42525,4110.13127 C5115.38868,4110.18404 5115.38665,4110.23883 5115.42118,4110.29566 C5115.68937,4110.72591 5116.63411,4110.45193 5117.02827,4110.46816 C5117.48743,4110.4844 5118.22494,4110.07444 5118.65363,4110.2916 C5118.89337,4110.41134 5119.21235,4110.33422 5119.47851,4110.28957 C5119.05185,4110.38495 5118.62112,4110.46816 5118.17821,4110.51281 C5116.70726,4110.66502 5115.24849,4110.60211 5113.78769,4110.5392 C5113.98274,4110.43975 5114.04369,4110.22463 5113.96445,4110.05618 C5114.98843,4110.06024 5114.9803,4108.36968 5113.91772,4108.44274 L5113.76331,4108.45289 C5113.08878,4108.49956 5112.96282,4109.46154 5113.37322,4109.86947 C5113.07659,4109.98515 5113.05018,4110.35857 5113.29399,4110.5189 C5112.07699,4110.47019 5110.86203,4110.44178 5109.63691,4110.5534 C5110.2769,4110.38698 5110.4821,4109.69087 5110.33176,4109.05361 C5110.39474,4109.17132 5110.52274,4109.26265 5110.72184,4109.26265 C5111.3212,4109.26265 5111.33745,4108.47927 5110.73607,4108.47927 C5110.42318,4108.47927 5110.27487,4108.6944 5110.28503,4108.89734 C5110.10624,4108.36562 5109.67552,4107.9171 5109.02943,4107.9171 C5107.4508,4107.9171 5107.75758,4110.54325 5109.29762,4110.58587 C5108.93801,4110.62849 5108.57636,4110.67314 5108.21472,4110.74417 C5107.88964,4110.80912 5107.58489,4110.84971 5107.26388,4110.9045 C5107.24966,4110.63864 5107.09118,4110.37887 5106.77017,4110.29972 C5105.97781,4110.10489 5105.22404,4110.00747 5104.57187,4110.58587 C5104.46012,4110.68532 5104.40933,4110.82535 5104.41136,4110.96539 C5104.11879,4110.85782 5103.92781,4110.69344 5103.57633,4110.72794 C5103.35487,4110.7462 5103.17608,4111.06889 5103.4016,4111.23328 C5103.49506,4111.30025 5103.60274,4111.36114 5103.71245,4111.41593 C5102.38372,4111.5722 5101.05701,4111.68991 5099.68154,4111.74268 C5099.69983,4111.74268 5099.71608,4111.73862 5099.73437,4111.73456 C5100.12039,4111.65744 5100.14274,4111.23531 5099.98224,4110.99786 C5100.1143,4110.79085 5100.03303,4110.47222 5099.64904,4110.47019 C5099.4032,4110.46816 5099.23254,4110.44178 5099.00499,4110.54325 C5098.80791,4110.62646 5098.8201,4110.86188 5098.99686,4110.95727 C5099.07203,4110.99786 5099.14924,4111.01409 5099.22441,4111.04454 C5099.18174,4111.06686 5099.13501,4111.09122 5099.09235,4111.11557 C5098.85261,4111.24343 5098.84448,4111.60264 5099.00702,4111.75892 C5098.51128,4111.77312 5098.01148,4111.7853 5097.49746,4111.78936 C5097.56247,4111.29213 5097.2821,4110.72794 5096.62382,4110.73403 C5096.28453,4110.73808 5095.97571,4110.77665 5095.65876,4110.81115 C5095.74206,4110.70358 5095.69533,4110.52905 5095.5267,4110.4844 C5095.42105,4110.45802 5095.31744,4110.45396 5095.21585,4110.4296 C5095.05738,4110.39307 5094.74653,4110.60211 5094.97408,4110.75432 C5095.04519,4110.80303 5095.10817,4110.82738 5095.17115,4110.85174 C5094.76075,4110.9045 5094.35237,4110.96742 5093.91353,4111.01612 C5093.60877,4111.05265 5093.31011,4110.97959 5093.03176,4110.95321 C5093.02973,4110.92886 5093.02973,4110.9045 5093.01957,4110.88624 C5092.87939,4110.66299 5092.67012,4110.6772 5092.43851,4110.67314 C5092.17845,4110.67111 5092.06467,4111.04048 5092.36333,4111.09122 C5092.37552,4111.09324 5092.38568,4111.09527 5092.39787,4111.0973 C5092.29832,4111.17036 5092.20486,4111.26778 5092.12156,4111.42202 C5092.05045,4111.55597 5092.05858,4111.66962 5092.1175,4111.80153 L5090.74812,4111.80153 C5090.74,4111.50726 5090.60794,4111.21095 5090.26864,4111.13789 C5089.32999,4110.93494 5088.27147,4110.73606 5087.38971,4111.21704 C5087.1581,4111.34287 5087.14591,4111.58844 5087.2414,4111.80153 L5085.82936,4111.80153 C5086.02034,4111.42811 5085.81514,4110.81115 5085.29096,4110.84971 C5084.56767,4110.90247 5083.82406,4110.92277 5083.12109,4111.11557 C5082.79805,4111.20284 5082.68631,4111.53161 5082.76554,4111.80153 L5077.65986,4111.80153 C5078.22874,4111.65541 5078.20436,4110.67923 5077.51155,4110.72388 C5077.07067,4110.74823 5076.9833,4110.79085 5076.6115,4111.01815 C5076.37786,4111.16022 5076.50179,4111.49508 5076.67855,4111.60467 C5076.85734,4111.71427 5076.9508,4111.76906 5077.04629,4111.80153 L5074.74639,4111.80153 C5075.01661,4111.34693 5074.74233,4110.50064 5074.06171,4110.50064 C5073.31607,4110.50064 5072.61107,4110.31595 5072.16206,4111.05671 C5072.07063,4111.2069 5072.06454,4111.36925 5072.158,4111.51944 C5072.23723,4111.65135 5072.34085,4111.72035 5072.43837,4111.80153 L5070.57123,4111.80153 C5069.55132,4111.80153 5068.53343,4111.80356 5067.51351,4111.7995 C5067.5704,4111.75689 5067.61916,4111.71021 5067.66183,4111.65135 C5068.56187,4111.72847 5069.45786,4111.75486 5070.35181,4111.60264 C5071.33109,4111.43623 5071.1076,4109.72943 5070.16489,4109.96079 C5069.62243,4110.09271 5069.01495,4110.1881 5068.42981,4110.19418 C5068.40747,4110.17592 5068.40747,4110.13736 5068.37496,4110.13736 C5068.34042,4110.13736 5068.34651,4110.17592 5068.33026,4110.19621 C5068.1982,4110.19418 5068.05801,4110.22057 5067.93205,4110.2023 C5067.47897,4110.13736 5066.70286,4110.18404 5066.2762,4110.02371 C5066.10757,4109.96079 5065.95316,4109.99935 5065.81501,4110.07444 C5064.98607,4109.92426 5064.15307,4109.81061 5063.31194,4109.87353 C5062.5277,4109.92832 5061.74956,4109.68478 5060.97141,4109.53257 C5060.89015,4109.51025 5060.80888,4109.49807 5060.72558,4109.48995 C5060.26235,4109.41486 5059.79709,4109.37427 5059.32979,4109.5001 C5059.09412,4109.56098 5059.03723,4109.88367 5059.26681,4110.00747 C5060.32127,4110.57573 5061.68454,4110.64473 5062.84059,4110.89436 C5064.10837,4111.16225 5065.38225,4111.50117 5066.66223,4111.79748 C5065.88815,4111.79545 5065.11407,4111.7853 5064.34202,4111.79545 C5061.56061,4111.83401 5059.54922,4110.61632 5056.8694,4110.40931 C5055.88199,4110.33422 5051.41223,4109.78829 5050.80475,4110.67314 C5048.58206,4113.92031 5054.42728,4113.17346 5055.62193,4113.15926 C5059.9068,4113.10852 5062.95639,4115.2963 5067.06247,4115.94574 C5066.78616,4115.99039 5066.53626,4116.09389 5066.24979,4116.06954 C5065.99786,4116.04924 5065.8272,4116.34352 5065.97551,4116.57488 C5066.40623,4117.24055 5067.18641,4117.409 5067.96862,4117.44553 C5068.01738,4117.7053 5068.08646,4117.92854 5068.16366,4118.13961 C5068.03363,4118.13961 5067.89751,4118.1457 5067.76748,4118.13555 C5067.75935,4118.13352 5067.76138,4118.11932 5067.75122,4118.11932 C5067.74106,4118.11932 5067.74716,4118.13352 5067.73903,4118.13555 C5067.73497,4118.13352 5067.73294,4118.13555 5067.72887,4118.13555 C5066.43265,4118.0219 5066.42858,4120.18533 5067.72278,4120.07168 C5068.62892,4119.99253 5069.59601,4120.19954 5070.42292,4119.86264 C5073.19011,4120.28274 5077.28197,4118.52724 5077.83053,4122.30208 C5077.53593,4122.48068 5077.33479,4122.65927 5077.17632,4122.84192 C5076.95283,4123.00225 5076.8167,4123.25188 5076.82483,4123.55224 C5076.7395,4124.0515 5076.87969,4124.62584 5077.02191,4125.38081 C5077.02597,4125.40516 5077.03206,4125.4214 5077.03613,4125.44169 C5076.84312,4125.41531 5076.64604,4125.38892 5076.44896,4125.36051 C5076.8675,4125.38892 5076.87156,4124.70296 5076.44896,4124.72934 C5076.20719,4124.75573 5075.96745,4124.7334 5075.7338,4124.66643 C5075.53673,4124.62381 5075.44124,4124.91808 5075.58752,4125.04391 C5075.79069,4125.21845 5075.94713,4125.28745 5076.15234,4125.32398 C5075.75209,4125.27121 5075.34778,4125.22048 5074.9455,4125.17786 C5074.92722,4124.59946 5074.56964,4124.04744 5073.86463,4124.56901 C5073.83009,4124.5954 5073.79555,4124.61975 5073.76102,4124.64613 C5073.63302,4124.74152 5073.59442,4124.91403 5073.55988,4125.07841 C5073.25715,4125.06827 5072.95646,4125.09059 5072.6517,4125.10277 C5072.67405,4124.91403 5072.62123,4124.72934 5072.44244,4124.62381 C5071.7415,4124.21182 5070.98164,4124.39854 5070.40667,4124.97694 C5070.34165,4125.04188 5070.31118,4125.12103 5070.30711,4125.20018 C5070.30914,4125.11697 5070.27664,4125.03579 5070.18318,4125.00129 C5069.63868,4124.7882 5069.57773,4124.62787 5068.98853,4124.64613 C5068.87476,4124.66237 5068.76911,4124.70702 5068.67565,4124.78211 C5068.26931,4125.06015 5067.95236,4124.75167 5067.57446,4124.61975 C5067.35301,4124.54263 5067.05028,4124.52234 5066.86743,4124.71717 C5066.62769,4124.96679 5066.56674,4125.08653 5066.58096,4125.44778 C5066.59721,4125.91253 5067.02184,4126.1378 5067.38755,4126.13375 C5067.98893,4126.12563 5068.34855,4125.98559 5068.98447,4126.07692 C5069.57163,4126.16216 5069.75449,4125.68523 5070.18115,4125.43357 C5070.25429,4125.39095 5070.29492,4125.30572 5070.30508,4125.22454 C5070.30711,4125.30369 5070.33759,4125.38284 5070.4026,4125.44981 C5070.4473,4125.49446 5070.50012,4125.51475 5070.54482,4125.55331 C5069.98407,4126.11548 5070.11816,4127.22967 5070.7805,4127.50568 C5070.33962,4127.50568 5070.00032,4127.91766 5070.03893,4128.40068 L5070.05112,4128.55492 C5070.13442,4129.63866 5070.92069,4129.48036 5071.4022,4129.0014 C5071.76181,4128.95473 5072.19254,4128.98923 5072.4912,4128.92834 C5073.16979,4128.79237 5073.86057,4128.74163 5074.54322,4128.62798 C5075.14054,4128.52651 5075.20759,4127.81213 5074.89064,4127.45088 C5075.18118,4127.4732 5075.47171,4127.49756 5075.76428,4127.51785 C5076.38598,4127.55844 5076.83296,4127.37782 5077.42418,4127.52394 C5077.16616,4127.72486 5077.20476,4128.15714 5077.42825,4128.36009 C5077.95243,4128.83702 5078.50302,4128.9669 5079.17552,4129.03997 C5079.73627,4129.09882 5080.03899,4128.71119 5080.09385,4128.27485 C5080.22997,4128.32559 5080.36,4128.37429 5080.50019,4128.43518 C5080.76228,4128.55289 5081.00202,4128.6503 5081.2438,4128.74772 C5081.47338,4129.05214 5081.80455,4129.2693 5082.24543,4129.2693 C5082.31451,4129.2693 5082.3592,4129.24088 5082.42219,4129.23074 C5084.22025,4129.9715 5085.28486,4130.64529 5085.55102,4133.50077 C5085.58759,4133.90464 5085.55305,4134.31865 5085.50835,4134.72658 C5085.36613,4134.48913 5085.0695,4134.35315 5084.78506,4134.32068 C5084.59815,4134.30039 5084.43154,4134.41404 5084.34215,4134.58248 C5084.24666,4134.76311 5084.26088,4134.9762 5084.37466,4135.14871 C5084.37263,4135.1548 5084.37263,4135.15277 5084.37059,4135.16292 C5084.34012,4135.29686 5084.30355,4135.42878 5084.2751,4135.56475 C5084.2426,4135.72711 5084.22837,4135.926 5084.33199,4136.06604 C5084.42748,4136.19389 5084.6144,4136.41714 5084.64691,4136.57544 C5084.72817,4136.92451 5085.30721,4136.95292 5085.50632,4136.69315 C5085.55711,4136.90015 5085.62416,4137.10513 5085.73387,4137.30402 C5086.31697,4138.35732 5088.12519,4139.57095 5088.93787,4140.70543 C5089.20809,4141.08698 5089.43361,4141.53143 5089.651,4141.98401 C5089.46002,4141.84803 5089.26498,4141.72424 5089.04759,4141.63697 C5088.86067,4141.56188 5088.51934,4141.62276 5088.57826,4141.91907 C5088.64734,4142.25393 5088.83222,4142.52994 5089.00289,4142.8161 C5089.25685,4143.24229 5089.81354,4143.0982 5090.05531,4142.81204 C5090.15283,4143.02108 5090.25442,4143.22402 5090.35804,4143.41682 C5090.22598,4143.45133 5090.1122,4143.50815 5089.9903,4143.64007 C5089.64288,4144.01958 5090.44134,4144.31589 5090.72984,4144.01552 C5090.74609,4144.04191 5090.76235,4144.07235 5090.78063,4144.09873 C5092.12359,4145.85423 5092.64168,4144.97953 5094.27111,4145.72435 C5096.98547,4146.9603 5098.58645,4146.86086 5101.70919,4147.09019 C5103.6962,4147.23631 5105.00665,4148.15161 5106.9449,4148.54939 C5109.41952,4149.05879 5112.58086,4148.47633 5115.10627,4148.48039 C5117.2741,4148.48241 5119.4399,4148.48039 5121.60977,4148.44791 C5125.05961,4148.39718 5127.98527,4149.59254 5131.35587,4149.90914 C5132.67038,4150.03294 5134.11899,4149.80158 5135.54322,4149.6656 C5135.49446,4149.70822 5135.44163,4149.74678 5135.3949,4149.79549 C5135.26894,4149.92741 5135.22627,4150.1263 5135.26691,4150.30895 C5135.32989,4150.59308 5135.52493,4150.56466 5135.74639,4150.66411 C5136.20759,4150.86909 5136.81913,4151.13698 5137.18484,4150.62352 C5137.37379,4150.36172 5137.07106,4150.1405 5136.85164,4150.13238 C5136.67082,4150.1263 5136.51031,4150.12427 5136.35184,4150.23589 C5136.29089,4150.27851 5136.22587,4150.30286 5136.1568,4150.31504 C5136.36403,4150.19733 5136.5672,4150.07353 5136.79069,4149.98829 C5137.22954,4149.81781 5137.70089,4149.75287 5138.15396,4149.64125 C5138.40386,4149.67169 5138.65376,4149.70822 5138.89351,4149.76911 C5140.2385,4150.11006 5140.91506,4151.55911 5142.40836,4151.15727 C5140.29538,4152.54544 5137.4388,4153.04063 5134.39327,4153.14414 C5134.59035,4152.96351 5134.62895,4152.68142 5134.26731,4152.48253 C5133.87112,4152.26334 5133.3571,4152.05633 5132.90809,4152.06039 C5132.61147,4152.06242 5132.47534,4152.24102 5132.48753,4152.41961 C5132.18074,4152.22478 5131.7744,4152.13954 5131.43307,4152.10301 C5131.17302,4152.07663 5130.81544,4152.27146 5130.80934,4152.59212 C5130.80325,4152.94119 5131.15676,4153.08325 5131.41682,4153.10355 C5131.49403,4153.11167 5131.56107,4153.12993 5131.62812,4153.14617 C5130.17748,4153.10152 5128.72481,4153.01019 5127.31683,4152.90466 C5127.37372,4152.86001 5127.42858,4152.81536 5127.47937,4152.76462 C5127.56064,4152.68142 5127.53626,4152.54544 5127.4814,4152.45614 C5127.30668,4152.15984 5126.91862,4152.13143 5126.63418,4152.24508 C5126.59558,4152.25319 5126.5712,4152.26131 5126.55088,4152.26943 C5126.5265,4152.26131 5126.50009,4152.25117 5126.47368,4152.24305 C5126.26035,4152.16796 5126.06937,4152.19028 5125.84791,4152.20449 C5125.45376,4152.22681 5125.30951,4152.53529 5125.41922,4152.76057 C5124.0661,4152.66315 5122.78613,4152.57791 5121.64227,4152.55965 C5118.86899,4152.51703 5117.36553,4153.74892 5114.7812,4153.88287 C5114.70806,4153.70225 5114.53536,4153.55815 5114.36063,4153.5338 C5113.85474,4153.46277 5113.41183,4153.19487 5112.89984,4153.13602 C5112.32283,4153.06905 5111.64018,4153.47291 5111.08349,4153.6028 C5110.68731,4153.69413 5110.60807,4154.03711 5110.79295,4154.27659 C5109.27121,4154.6216 5107.89371,4155.13303 5106.16269,4155.43745 C5104.03549,4155.36033 5101.92455,4155.02547 5099.79126,4155.0965 C5099.31177,4155.11274 5098.70836,4155.33598 5099.54948,4155.41716 C5101.57713,4155.61402 5103.61493,4155.78247 5105.6507,4155.888 C5106.09565,4157.9256 5108.13548,4156.9758 5108.96035,4158.2219 C5111.15257,4161.52996 5107.92621,4161.36557 5106.65233,4162.0211 C5103.08872,4163.85778 5098.3142,4165.44687 5094.23454,4166.20995 C5093.39544,4166.1998 5092.55431,4166.16327 5091.71522,4166.10442 C5090.47384,4166.26272 5089.85214,4166.9913 5088.97648,4167.19628 C5086.67455,4167.73612 5084.18164,4167.51694 5081.78017,4167.49867 C5079.2832,4167.48041 5077.85694,4167.90051 5075.55298,4168.55603 C5073.11493,4169.24606 5070.55498,4168.30641 5068.17382,4169.16285 C5068.80365,4172.18069 5074.63262,4171.25931 5076.79842,4171.87627 C5080.91872,4173.05134 5084.8643,4172.93363 5089.25279,4172.93363 C5092.9891,4172.93363 5096.72744,4172.96204 5100.46375,4172.93363 C5104.59015,4172.90116 5107.41829,4174.30759 5111.67268,4174.29135 C5113.3204,4174.28527 5115.01688,4174.16147 5116.65646,4174.25888 C5118.91775,4174.39486 5120.62439,4175.54557 5122.88365,4175.67952 C5125.01085,4175.80941 5127.03443,4175.37916 5129.11083,4175.95147 C5130.83575,4176.4284 5132.89387,4177.68059 5134.37092,4178.06822 C5135.99426,4178.49441 5143.76757,4180.52796 5148.09511,4183.05872 C5147.42668,4182.96739 5146.77653,4182.77053 5146.18531,4182.4032 C5145.86023,4182.20025 5145.40513,4182.18807 5144.98457,4182.19619 C5143.88338,4181.60764 5142.78626,4181.07592 5141.56114,4180.89326 C5141.42095,4180.79788 5141.27873,4180.70249 5141.13854,4180.60508 C5140.86223,4180.41633 5139.44613,4180.57666 5139.50505,4180.65784 C5139.88092,4181.15304 5140.14097,4181.14492 5140.72001,4181.16927 C5141.65257,4181.20783 5143.51361,4183.04654 5144.42585,4183.53362 C5145.56767,4184.14044 5146.61603,4184.45704 5147.87162,4184.67825 C5148.36939,4184.76755 5148.83872,4184.86293 5149.34055,4184.90961 C5149.54981,4184.93396 5149.75705,4184.94208 5149.96835,4184.9502 C5149.80581,4184.9847 5149.64124,4185.00905 5149.48277,4185.05776 C5149.32633,4185.10647 5149.32836,4185.17547 5149.4787,4185.22824 C5149.89927,4185.38045 5150.33812,4185.43728 5150.779,4185.4596 C5150.98623,4185.8797 5151.07359,4186.30184 5150.94357,4186.72397 C5147.2743,4186.45608 5143.69849,4184.83452 5140.04345,4185.06588 C5140.00282,4185.06994 5139.62086,4185.13894 5139.84231,4185.20186 C5140.74846,4185.4596 5141.64647,4185.69502 5142.54652,4185.9142 C5142.30881,4185.92841 5142.1036,4185.96291 5142.08329,4186.05221 C5142.05687,4186.17195 5142.03249,4186.29169 5142.00608,4186.41143 C5142.03046,4186.46216 5142.06907,4186.49058 5142.12392,4186.49667 C5142.95895,4186.75238 5143.56643,4187.47691 5144.37709,4187.78539 C5145.04349,4188.03907 5145.70176,4188.06749 5146.40067,4188.05734 C5147.8127,4188.03907 5146.54898,4187.68188 5145.86836,4187.69406 C5145.98213,4187.69203 5144.88298,4186.87821 5144.72451,4186.78079 C5144.41162,4186.59408 5144.07233,4186.48855 5143.73303,4186.39519 C5143.68427,4186.31401 5143.63551,4186.23283 5143.58675,4186.15165 C5145.93744,4186.68135 5148.30438,4187.02027 5150.73024,4187.10551 C5150.6957,4187.16437 5150.66116,4187.22322 5150.62052,4187.28005 C5150.46815,4187.26381 5150.31374,4187.25569 5150.1512,4187.24757 C5150.01101,4187.24149 5148.51567,4187.33078 5148.97281,4187.50126 C5149.16988,4187.57635 5149.32226,4187.71436 5149.42385,4187.91527 C5149.66359,4188.2339 5150.73227,4188.12228 5151.04921,4188.11213 C5151.10813,4188.11213 5151.98177,4188.0411 5151.96348,4187.87671 C5155.17358,4188.85087 5158.3593,4191.85653 5161.15696,4193.07828 C5163.14194,4189.75399 5170.16758,4193.83325 5172.43091,4195.04079 C5173.57273,4195.65166 5175.56583,4196.83079 5176.72187,4197.08245 C5179.07053,4197.59388 5181.5675,4196.8653 5183.91818,4197.31584 C5186.25871,4197.76436 5187.64027,4198.77301 5190.14537,4198.74054 C5192.60983,4198.70401 5195.15962,4198.56803 5197.61799,4198.71213 C5200.29984,4198.87043 5202.31123,4200.13682 5205.09264,4200.09826 C5207.55914,4200.06376 5210.10487,4199.92576 5212.56526,4200.07188 C5214.82859,4200.2038 5216.53319,4201.35857 5218.79448,4201.49252 C5221.26097,4201.63661 5223.79451,4201.46208 5226.2671,4201.46208 C5228.32725,4201.46208 5230.44023,4201.30783 5232.49429,4201.4296 C5235.17614,4201.5879 5237.18753,4202.8543 5239.96894,4202.81574 C5249.5139,4202.67977 5259.07106,4202.81777 5268.61602,4202.81777 C5273.38038,4202.81777 5277.83591,4203.03492 5282.31786,4201.76244 C5284.41255,4201.1678 5197.80491,4200.77002 5199.97071,4200.76799 C5203.20925,4200.7619 5205.40146,4200.56098 5208.38401,4199.71063 C5210.83425,4199.01046 5213.36982,4199.57669 5215.88508,4199.43868 C5218.8981,4199.27429 5221.53932,4198.10531 5224.59907,4198.05457 C5227.09198,4198.01195 5229.58691,4198.03022 5232.07779,4198.05051 C5233.17694,4198.05863 5234.82262,4198.39756 5235.87911,4198.11952 C5237.00874,4197.82321 5237.11236,4196.91806 5238.24199,4196.62176 C5242.24445,4195.56643 5247.854,4196.70903 5252.00884,4196.69076 C5258.54485,4196.66235 5264.37178,4199.15252 5270.75541,4199.43868 C5272.73023,4199.52798 5274.98339,4198.97596 5276.91758,4199.33924 C5279.47753,4199.81616 5281.86276,4201.51281 5284.39223,4202.16428 C5288.66085,4203.2602 5292.77506,4204.14302 5296.53575,4206 C5300.4346,4201.18607 5303.19772,4205.57584 5308.08804,4204.87364 C5310.73129,4204.49412 5312.32618,4202.94563 5314.31929,4200.7964 C5316.5176,4198.42597 5317.26527,4193.28326 5319.5164,4191.46281 C5321.27992,4190.03811 5324.59364,4191.72056 5326.8021,4190.26745 C5328.52296,4189.13296 5329.40878,4187.42414 5330.47949,4185.82288 C5333.08008,4181.93236 5334.677,4178.27117 5335.73349,4173.59118 C5336.3816,4170.73164 5336.8875,4168.5743 5336.73106,4165.44889 C5336.61931,4163.21849 5336.36129,4163.45594 5335.4653,4161.67811 C5334.70138,4160.16006 5333.68959,4161.19916 5334.43929,4158.95455 C5334.93909,4157.46288 5337.02159,4155.94077 5337.64126,4154.27253 C5338.89483,4150.89344 5340.04884,4148.38906 5342.02975,4145.37122 C5344.82538,4141.11133 5346.08504,4136.58964 5346.6397,4131.45099 C5346.92007,4128.82484 5347.95015,4127.56047 5347.91358,4124.68469 C5347.87091,4121.52073 5347.91764,4118.34865 5347.91764,4115.18265 L5347.91764,4081.21925 C5347.91764,4078.52207 5348.08221,4075.75791 5347.94609,4073.06885" id="Paint-6"></path>
        </g>
    </g>
</svg>