<?xml version="1.0" encoding="UTF-8"?>
<svg width="310px" height="373px" viewBox="0 0 310 373" version="1.1" xmlns="http://www.w3.org/2000/svg" xmlns:xlink="http://www.w3.org/1999/xlink">
    <title>GEO Shape 3</title>
    <g id="Page-1" stroke="none" stroke-width="1" fill="none" fill-rule="evenodd">
        <g id="Desktop-HD" transform="translate(-2393.000000, -4572.000000)" fill="#000000">
            <path d="M2625,4944.43326 C2626.00996,4944.43726 2626.94048,4943.66426 2627.91123,4944.22926 C2628.01646,4944.28926 2628.02677,4944.77826 2627.9494,4944.81526 C2626.90437,4945.32126 2625.99036,4944.48626 2625,4944.43326 Z M2670,4933 C2669.23331,4934.76694 2668.46463,4936.53492 2667.39404,4939 C2666.24201,4935.43875 2667.76844,4934.04563 2670,4933 Z M2624.75416,4932.05007 C2624.94854,4931.86523 2625.91138,4932.23383 2625.95135,4932.4785 C2626.18842,4933.91659 2625.54714,4934.95936 2624.28909,4936 C2623.92121,4934.32366 2623.74681,4933.00844 2624.75416,4932.05007 Z M2648,4927.14866 C2649.5992,4926.34667 2649.80913,4922.41255 2652.52728,4924.71257 C2653.61256,4925.62945 2654.62654,4927.11074 2653.52344,4928.26856 C2651.79056,4930.08336 2649.94578,4928.06109 2648,4927.14866 Z M2637.75374,4923.05048 C2637.94819,4922.86455 2638.91135,4923.23428 2638.95133,4923.47792 C2639.18848,4924.91624 2638.54698,4925.96026 2637.28851,4927 C2636.92142,4925.32445 2636.74696,4924.00794 2637.75374,4923.05048 Z M2674.11968,4918.72319 C2674.23005,4918.34656 2675.16604,4917.88751 2675.54702,4918.02488 C2677.50072,4918.72891 2676.97223,4920.46894 2676.81836,4923 C2675.27747,4921.3195 2673.52222,4920.79405 2674.11968,4918.72319 Z M2607,4921.1485 C2608.59941,4920.34643 2608.80936,4916.41307 2611.52786,4918.71218 C2612.61328,4919.62915 2613.6264,4921.11169 2612.52316,4922.26849 C2610.79104,4924.08346 2608.94603,4922.061 2607,4921.1485 Z M2664.75311,4918.05039 C2664.94843,4917.86445 2665.91137,4918.23526 2665.95134,4918.47784 C2666.18844,4919.9162 2665.54709,4920.96024 2664.2889,4922 C2663.92098,4920.32441 2663.74747,4919.00787 2664.75311,4918.05039 Z M2548.50053,4599 L2687,4679.00026 L2687,4824.46566 C2687.66543,4825.2573 2688.32079,4826.03769 2688.97112,4826.81296 C2689.41306,4825.69812 2689.85702,4824.5843 2690.4862,4823 C2691.65398,4825.32583 2690.61506,4826.52147 2689.51574,4827.70075 C2689.02045,4829.36994 2688.18187,4830.18613 2687,4829.96418 L2687,4829.96418 L2687,4824.48551 C2686.45508,4823.84507 2685.90487,4823.20145 2685.3335,4822.53137 C2682.97289,4825.02433 2682.47558,4827.29393 2685.38852,4829.41533 C2685.98317,4829.84935 2686.51645,4830.08647 2687,4830.17645 L2687,4830.17645 L2687,4837.00431 C2686.84023,4836.84023 2686.61591,4836.67615 2686.31753,4836.51207 C2685.27742,4836.81376 2683.69768,4835.48524 2682.55811,4837.12181 C2682.00261,4837.91892 2682.80042,4838.3974 2683.42152,4838.78273 C2684.67113,4839.55655 2685.89323,4839.59889 2686.9418,4838.46939 C2686.96402,4838.44398 2686.9799,4838.42069 2687,4838.39634 L2687,4838.39634 L2687,4838.99974 L2680.17846,4842.93978 C2678.84949,4842.58092 2677.48137,4842.39249 2676.1069,4842.22524 C2675.23397,4840.86284 2673.69444,4842.02199 2672.6501,4841.31168 C2671.2841,4839.58831 2670.60269,4842.81487 2669.38482,4841.78381 C2663.85733,4837.10805 2660.57194,4842.43907 2656.57974,4844.62504 C2652.46798,4844.47896 2649.85025,4841.89602 2647.42827,4838.99868 C2646.49185,4837.91786 2645.5565,4836.83811 2644.6222,4835.7573 C2642.92078,4834.57909 2641.21936,4833.39983 2639.51794,4832.22163 C2639.64703,4834.40337 2641.68704,4834.8268 2642.95358,4835.96372 C2640.7522,4839.79243 2644.34995,4839.42094 2646.02003,4840.4458 C2646.03967,4839.7747 2646.37618,4839.30177 2646.98229,4839 L2646.98229,4839 L2646.24683,4840.60403 C2646.32395,4840.66567 2646.39471,4840.7319 2646.458,4840.80356 C2645.97656,4841.64831 2645.51206,4842.49518 2645.98926,4843.50612 C2644.5767,4847.67059 2648.93711,4855.56126 2639.05556,4854.26344 C2638.44186,4853.9321 2637.82816,4853.60077 2637.21447,4853.26943 C2635.94687,4852.80683 2634.67927,4852.38128 2633.41379,4852.27648 C2634.51844,4851.91021 2635.6506,4851.34916 2636.74891,4851.01888 C2638.11173,4847.44511 2640.01102,4843.85757 2636.36376,4840.46799 C2627.91486,4844.83041 2627.91486,4844.83041 2628.08098,4849.78775 C2628.91371,4851.61275 2629.89668,4852.37704 2630.96112,4852.57394 C2630.47863,4852.73802 2629.99508,4852.95291 2629.51259,4853.28107 C2629.27134,4854.49633 2629.47132,4855.5909 2630.13475,4856.55845 C2629.97603,4856.58173 2629.81732,4856.61349 2629.6639,4856.65795 C2628.53279,4856.98082 2627.57627,4857.64032 2626.70546,4858.46919 C2626.63245,4858.54329 2626.57214,4858.62374 2626.50336,4858.6989 C2624.99134,4858.38979 2624.7501,4860.69856 2623.55128,4861.03519 C2620.80975,4863.25716 2618.06716,4865.47912 2615.32458,4867.70109 C2614.81352,4867.81647 2614.29505,4867.90116 2613.75966,4867.89481 C2613.62739,4867.88105 2613.49302,4867.87999 2613.35864,4867.86728 C2613.77764,4865.60509 2612.94915,4864.00452 2610.69224,4863.164 C2611.23927,4861.7148 2611.61278,4860.32382 2609.40665,4859.73631 C2607.43013,4857.1142 2607.23015,4853.86647 2606.28632,4850.88021 C2602.0222,4848.98852 2599.04472,4851.53441 2596.00798,4853.86859 C2595.56146,4854.08983 2595.20912,4854.3206 2594.90756,4854.55561 C2589.41816,4857.99494 2589.73453,4858.19925 2595.16785,4861.59836 C2595.29374,4861.67443 2595.41503,4861.7625 2595.53375,4861.85729 C2594.96764,4859.42545 2592.53394,4856.79472 2595.28723,4854.71104 C2595.65675,4854.48754 2596.04436,4854.25199 2596.46247,4854 C2595.8579,4855.47247 2593.11077,4856.8069 2596.62407,4858.46234 C2597.60358,4858.92339 2596.4418,4860.60384 2595.71784,4861.75388 L2595.61309,4861.92187 C2596.46302,4862.62634 2597.20223,4863.61948 2598.59291,4862.90888 L2598.59291,4862.90888 L2599.12932,4863.23824 C2601.96877,4862.12551 2603.33268,4865.22244 2605.47066,4866.11282 C2607.00385,4865.17274 2609.00297,4865.15752 2610.03874,4863.23638 C2610.39134,4863.33004 2610.69987,4863.44945 2611,4863.57355 L2611,4863.57355 L2610.88247,4863.91539 C2609.57595,4866.07769 2607.77202,4866.89485 2605.55042,4866.56354 C2605.63437,4867.04236 2605.71832,4867.52118 2605.80332,4868 C2605.70783,4867.50596 2605.40665,4867.05758 2605.40245,4866.54247 C2605.33319,4866.53076 2605.26603,4866.52842 2605.19571,4866.51437 C2602.98461,4865.79555 2601.66025,4862.9437 2599,4863.2914 L2599.182,4863.274 L2605.45254,4867.1665 C2605.56156,4868.52098 2605.42441,4869.93391 2606.07099,4871.16063 C2606.52629,4868.35648 2609.02507,4868.19698 2611.5092,4868.01489 C2611.6478,4868.00454 2611.7875,4867.99833 2611.9261,4868.0004 C2612.28516,4868.00661 2612.64312,4868.03974 2613,4868.0708 C2612.92579,4868.45389 2612.81883,4868.85354 2612.66823,4869.27389 C2610.05061,4868.93685 2607.77298,4869.35178 2606.29451,4871.5247 C2606.37548,4871.64794 2606.46851,4871.76752 2606.57201,4871.8846 C2606.47572,4872.6235 2606.25141,4873.37085 2606.30643,4874.0981 C2606.46937,4876.27984 2605.50651,4879.16554 2607.91156,4880.29293 C2610.84249,4881.66697 2612.98301,4879.90549 2614.40827,4877.15952 C2614.97435,4876.06495 2615.83035,4874.1415 2617.36882,4875.43721 C2618.8237,4876.66093 2620.2151,4876.92663 2621.58533,4876.78372 L2621.58533,4876.78372 L2595.23451,4892.00508 C2595.34032,4890.61834 2594.0632,4889.45919 2593.37332,4888.245 C2591.94701,4889.1882 2590.52281,4890.13245 2589.57264,4890.76019 C2588.8415,4891.91934 2588.69442,4893.79409 2588.94836,4895.63602 L2588.94836,4895.63602 L2548.50053,4919 L2410,4838.99974 L2410,4679.00026 L2421.0825,4672.59796 C2420.87828,4672.75039 2420.67301,4672.90071 2420.46774,4673.04256 C2418.49122,4674.40496 2416.76758,4677.08529 2417.99391,4678.7081 C2420.85924,4682.501 2418.63406,4684.09205 2416.14225,4686.19545 C2415.39312,4686.82742 2413.18275,4687.47739 2414.89052,4689.18171 C2416.23219,4690.51976 2417.69976,4691.18878 2419.03402,4688.89484 C2420.27623,4686.75862 2422.61356,4686.10547 2424.72023,4685.1284 C2425.93916,4684.56312 2428.0363,4684.82247 2428.0035,4682.74553 C2427.97705,4681.05815 2426.29574,4681.01051 2425.14241,4680.36266 C2424.05363,4679.75186 2422.15541,4680.12025 2421.93321,4678.39158 C2421.67715,4676.41309 2423.54045,4675.98119 2424.77525,4675.16184 C2426.34123,4674.12443 2428.11778,4673.33261 2428.99282,4671.30437 C2428.52409,4670.93387 2428.15375,4670.44268 2427.67655,4670.29872 C2426.78987,4670.02984 2425.99735,4670.0256 2425.26409,4670.18333 L2425.26409,4670.18333 L2445.59189,4658.44188 C2443.42888,4656.00094 2441.29472,4653.59302 2439,4651.00357 C2444.8993,4650.89919 2448.00354,4653.08896 2448,4657.05085 L2452.00385,4654.73725 C2452.17786,4653.4835 2452.69001,4652.37815 2454.44834,4651.68696 C2456.8163,4650.75599 2455.66987,4648.85903 2454.95387,4647.26673 C2453.55573,4644.15432 2455.39806,4643.49511 2457.90775,4643.34649 C2458.35405,4642.90065 2458.80036,4642.45587 2459.24667,4642.01002 L2459.24667,4642.01002 L2455.56093,4635.26611 C2454.50016,4635.03894 2453.44045,4634.81071 2452.37968,4634.58354 C2453.19191,4632.94666 2453.88147,4631.15479 2456.2526,4631.46688 C2455.95225,4630.26841 2456.572,4629.623 2457.5947,4629.22068 L2457.5947,4629.22068 C2457.95957,4627.71967 2457.67402,4625.33759 2460.13505,4625.99256 C2461.47185,4626.34923 2461.49724,4628.0307 2460.28523,4629.17928 C2460.70086,4629.59009 2461.1165,4630.0009 2461.53214,4630.40959 C2463.66108,4628.08484 2465.01587,4624.81213 2469.20502,4625.31211 C2471.20176,4625.5499 2470.86016,4623.46505 2470.73536,4622.23685 C2470.41914,4619.14992 2471.24301,4616.49502 2474.44436,4616.03326 C2477.07355,4615.65429 2477.84983,4618.60323 2479.18346,4620.34308 C2479.62765,4620.92268 2479.84975,4621.67212 2480.17443,4622.34407 C2481.94062,4622.82813 2482.69257,4624.38858 2483.69623,4625.68259 L2483.69623,4625.68259 L2491.76254,4625.47665 C2492.66573,4623.88435 2494.10195,4624.73676 2495.34251,4624.68899 C2499.67761,4624.59346 2501.24285,4624.56692 2500.96999,4626.38639 L2500.96999,4626.38639 L2498.94575,4627.56044 C2499.56233,4628.28759 2499.84894,4629.18565 2499.42167,4630.44887 C2499.25139,4630.82041 2499.0716,4631.21105 2498.87912,4631.63248 C2498.63058,4630.41596 2499.52214,4628.55297 2497.96112,4628.13048 L2497.96112,4628.13048 L2486.20591,4634.94234 C2485.66125,4634.6122 2485.09226,4634.31391 2484.46616,4634.08887 C2482.30126,4634.81177 2481.85178,4633.43921 2481.51441,4631.92334 C2479.16654,4632.4626 2477.59706,4631.57622 2476.70551,4629.44891 C2476.58811,4629.5126 2476.47389,4629.58585 2476.3565,4629.64635 C2475.9049,4629.93721 2475.51782,4630.29176 2475.15401,4630.67073 L2475.15401,4630.67073 L2471.93468,4640.7882 C2471.37627,4641.43255 2471.69778,4642.60342 2471.50212,4643.46432 L2471.50212,4643.46432 L2470.81151,4643.86452 C2470.80093,4644.03118 2470.77343,4644.20209 2470.74805,4644.37193 C2470.49,4644.4749 2470.16108,4644.53541 2469.71372,4644.52586 C2469.71372,4644.51843 2469.71161,4644.511 2469.71055,4644.5025 L2469.71055,4644.5025 L2464.25017,4647.66587 C2464.45851,4647.78689 2464.67003,4647.90578 2464.88578,4648.01936 C2466.00895,4647.99707 2467.13106,4647.97265 2468.25423,4647.95036 C2468.47633,4648.00662 2468.66776,4648.10004 2468.8687,4648.18284 C2468.53344,4648.47688 2468.14636,4648.71254 2467.72438,4648.85585 C2466.99992,4649.10425 2466.24691,4649.15626 2465.47275,4649.06497 C2466.84234,4651.94279 2464.41092,4652.24745 2462.50936,4652.9109 C2462.87423,4653.57118 2463.15238,4654.24313 2462.69338,4655 L2462.715,4654.96 L2462.76619,4654.93551 L2462.76619,4654.93551 L2464.85064,4654.75555 C2466.16373,4654.4475 2467.45673,4654.10664 2468.57302,4653.49901 C2467.85034,4654.41257 2467.21231,4655.50291 2466.47376,4656.38153 C2467.29484,4660.11727 2467.67469,4664.15999 2472.58426,4664.99098 C2477.2547,4656.70546 2477.2547,4656.70546 2474.39678,4652.65108 C2472.69853,4651.58403 2471.45633,4651.48453 2470.4596,4651.90478 C2470.7728,4651.50146 2471.05849,4651.05792 2471.28174,4650.51804 C2470.81724,4649.36736 2470.03319,4648.58083 2468.94441,4648.13623 C2469.07138,4648.02508 2469.19412,4647.90546 2469.30416,4647.77737 C2470.07234,4646.88604 2470.50933,4645.81052 2470.78444,4644.63867 C2470.80454,4644.53705 2470.81089,4644.43754 2470.8257,4644.33592 C2471.27963,4644.1549 2471.48913,4643.82886 2471.57907,4643.43189 L2471.57907,4643.43189 L2486.29084,4634.93253 C2488.43983,4636.23035 2490.08093,4638.19508 2492.01619,4639.77343 C2496.61891,4639.01231 2497.71086,4635.2501 2498.96894,4631.63187 C2499.22183,4631.20208 2499.39006,4630.8157 2499.5128,4630.45261 C2500.38573,4628.55033 2500.93171,4627.26733 2501.06185,4626.40141 L2501.06185,4626.40141 L2523.65749,4613.35015 C2523.63422,4613.74923 2523.63951,4614.14197 2523.68924,4614.51882 C2523.91884,4616.29301 2525.91018,4615.15715 2527.07832,4615.4906 C2532.96239,4617.17586 2530.97211,4611.49763 2532.78992,4609.38046 C2532.88938,4609.38046 2532.98249,4609.22697 2533.07032,4608.91998 C2533.15179,4608.63416 2533.04915,4608.35575 2532.77299,4608.08476 L2532.77299,4608.08476 L2548.50053,4599 Z M2643.95182,4912.39853 C2644.4133,4911.6068 2645.0824,4912.22408 2645.63329,4912.31242 C2646.58811,4912.46675 2647.5491,4912.79887 2648.46589,4912.30124 C2649.45257,4911.76559 2649.81025,4912.38288 2649.97058,4913.22046 C2650.17511,4914.28729 2649.26038,4913.98536 2648.85543,4914.0368 C2647.51004,4914.2146 2646.37639,4914.26381 2646.50692,4916.40641 C2646.56345,4917.32339 2645.35476,4917.90713 2644.35677,4917.93173 C2643.26834,4917.95857 2642.08432,4918.29517 2641.22817,4917.18025 C2641.09661,4917.00804 2641.08017,4916.72959 2641,4916.47351 C2641.76776,4915.92444 2642.5643,4916.06646 2643.3444,4916.0631 C2643.95902,4916.05975 2644.7052,4916.35944 2645.06698,4915.5487 C2645.38354,4914.83971 2644.63942,4914.50759 2644.402,4914.00772 C2644.14916,4913.47766 2643.57565,4913.04265 2643.95182,4912.39853 Z M2623.7533,4912.05047 C2623.94768,4911.86458 2624.91138,4912.23422 2624.95135,4912.47779 C2625.18841,4913.9168 2624.54715,4914.95947 2623.28916,4916 C2622.9213,4914.32383 2622.7469,4913.00874 2623.7533,4912.05047 Z M2634.38211,4895 C2635.17467,4896.46653 2636.79856,4897.84623 2635.97234,4899.64294 C2635.11653,4901.50076 2635.55004,4902.36374 2637.06071,4903.33071 C2638.53772,4904.2773 2640.83687,4905.59268 2639.69036,4907.51804 C2638.13991,4910.12306 2635.11959,4908.61365 2633.03566,4908.06798 C2630.55698,4907.41834 2629.01775,4900.37728 2630.71815,4897.54713 C2631.63414,4896.91035 2633.00812,4895.95517 2634.38211,4895 Z M2653.08405,4896 C2654.51128,4898.57624 2654.83175,4901.20612 2655,4904 C2647.38199,4901.1383 2647.32934,4900.92572 2653.08405,4896 Z M2595.13089,4892 C2595.11128,4892.26504 2595.05967,4892.53534 2594.92446,4892.82036 C2594.0585,4894.64304 2594.49716,4895.48969 2596.02472,4896.43837 C2597.52132,4897.36706 2599.84672,4898.6565 2598.6866,4900.54649 C2597.11775,4903.10223 2594.0616,4901.62032 2591.95294,4901.08498 C2590.48524,4900.71266 2589.34989,4898.19163 2589,4895.60749 L2589,4895.60749 Z M2672.08311,4893 C2673.51019,4895.57624 2673.83063,4898.20612 2674,4901 C2666.3828,4898.1383 2666.32901,4897.92572 2672.08311,4893 Z M2614,4892 C2613.96467,4895.57189 2612.03718,4897.49602 2610.98771,4900 C2607.96295,4896.23934 2607.96295,4896.23934 2614,4892 Z M2658,4892.08881 C2659.73108,4892.07407 2660.63653,4891.88864 2661.39615,4892.1018 C2662.4553,4892.39902 2661.88681,4893.28894 2661.45428,4893.52723 C2660.80796,4893.88251 2659.84045,4894.10867 2659.14289,4893.94663 C2658.69657,4893.84351 2658.49065,4892.9406 2658,4892.08881 Z M2627,4887 L2624.22346,4893 L2621,4887.29172 L2627,4887 Z M2638,4891.17847 C2641.25265,4890.53621 2641.68664,4886.82784 2644.8252,4888.37374 C2645.50079,4888.70772 2646.11821,4890.80764 2645.98063,4890.897 C2643.91249,4892.24407 2641.64525,4892.38034 2638,4891.17847 Z M2691.41543,4881 C2695.18719,4886.55655 2695.18719,4886.55655 2699.15697,4882.29406 C2699.83502,4885.16411 2701.36218,4888.21164 2697.22548,4889.05643 C2694.80981,4889.55033 2692.01987,4893.24489 2689.41862,4888.93372 C2687.33575,4885.48053 2687.19164,4882.78897 2691.41543,4881 Z M2652,4884.08879 C2653.73108,4884.07406 2654.63653,4883.88866 2655.39615,4884.10178 C2656.4553,4884.3998 2655.88681,4885.28867 2655.45428,4885.52778 C2654.80796,4885.88212 2653.84045,4886.10823 2653.14289,4885.94709 C2652.69657,4885.84313 2652.49065,4884.9404 2652,4884.08879 Z M2639.31425,4855 C2639.50615,4855.65923 2639.69805,4856.31846 2639.88996,4856.97769 C2640.70686,4860.89023 2636.69892,4863.4279 2636.96318,4867.18268 L2636.96204,4867.12234 C2637.31991,4867.37861 2637.66731,4867.59703 2638,4867.76118 L2638,4867.76118 L2635,4870 C2635.05332,4869.14337 2635.10477,4868.28796 2635.15809,4867.43133 L2635.15809,4867.43133 L2636.7942,4867 C2636.83222,4867.02819 2636.87013,4867.05598 2636.90793,4867.08337 C2634.91995,4863.56486 2639.12239,4860.87312 2638.46484,4857.53244 C2636.95269,4857.75915 2635.17942,4857.36215 2634.15175,4858.74121 C2634.23145,4858.82792 2634.32058,4858.90418 2634.38874,4858.99821 C2635.58525,4860.60502 2636.03722,4862.30585 2635.53387,4864.12474 C2635.3902,4864.64188 2635.10602,4865.0953 2634.75682,4865.50066 C2635.30107,4866.02198 2635.24549,4866.77628 2635.12909,4867.5567 C2634.90258,4866.98001 2634.67502,4866.40331 2634.44956,4865.82661 C2634.39084,4865.88512 2634.33526,4865.94676 2634.27549,4866.00213 C2632.70566,4867.43656 2632.36485,4869.64722 2631.69476,4871.65103 L2631.69476,4871.65103 L2634.95187,4869.77781 L2634.52821,4875.10284 L2636.79539,4877.38977 C2635.23395,4878.29556 2633.69034,4879.39776 2631.89506,4877.85363 C2631.49447,4879.00389 2630.63143,4879.19717 2629.56391,4878.97359 C2629.56286,4878.97464 2629.56181,4878.97464 2629.56076,4878.97464 C2628.44814,4880.01102 2627.39425,4882.12661 2625.70907,4880.25235 C2624.79465,4879.23478 2625.68495,4877.83796 2627.31246,4877.54961 C2627.19081,4876.9865 2627.06707,4876.42443 2626.94543,4875.86132 C2625.28227,4876.27817 2623.65896,4877.05336 2622,4877.22575 L2622,4877.22575 L2630.30845,4872.44712 C2630.49406,4871.98639 2630.57376,4871.45357 2630.46575,4870.79225 C2629.97288,4867.79908 2631.9349,4866.3657 2634.17482,4865.12873 C2635.34721,4863.16149 2634.70963,4861.34365 2633.71132,4859.55506 C2632.76858,4858.96582 2631.82584,4858.37555 2630.88311,4857.78631 C2630.72896,4857.61707 2630.59683,4857.4426 2630.47414,4857.26499 C2630.91876,4857.19917 2631.37702,4857.21589 2631.81326,4857.32872 C2632.54836,4857.51677 2633.19957,4857.88348 2633.79311,4858.37659 C2634.21781,4855.26745 2636.39796,4856.33413 2638.33376,4856.81993 C2638.38934,4856.07817 2638.52357,4855.37297 2639.31425,4855 Z M2637.82676,4874.00106 C2640.63134,4874.50609 2641.14845,4877.47129 2643,4879 C2641.03626,4877.5373 2638.05219,4877.72381 2637.01156,4875.21229 C2636.90045,4874.94196 2637.62163,4873.96334 2637.82676,4874.00106 Z M2688,4864 C2684.70778,4873.40272 2684.70778,4873.40272 2672.29556,4879 C2672.57395,4876.80985 2672.83298,4874.77314 2673.09202,4872.73748 C2668.0994,4871.19155 2669.57193,4877.11672 2666.30227,4878.12457 C2665.02752,4876.54817 2663.4948,4874.92552 2662.30388,4873.09164 C2661.32793,4871.58775 2658.34848,4870.15007 2661.21292,4868.00196 C2663.32283,4866.41925 2665.34674,4863.67631 2668.5777,4866.96154 C2669.77185,4868.17537 2671.12614,4870.52631 2673.77024,4869.35557 C2677.40964,4864.88068 2683.33951,4867.15281 2688,4864 Z M2654.40503,4859 C2654.93812,4863.00768 2655.44316,4866.8123 2656,4871 C2649.91255,4867.27492 2649.38701,4862.88731 2654.40503,4859 Z M2626.0594,4859 C2626.32964,4859.05619 2626.63445,4859.18658 2627,4859.43994 C2626.48571,4860.87745 2625.66976,4862.28527 2625.52102,4863.75988 C2625.19527,4866.9985 2623.99282,4869.23851 2620.48182,4868.12433 C2617.5291,4867.18826 2615.86473,4871.17426 2613,4869.64771 C2613.66407,4869.10281 2614.32919,4868.55898 2614.99327,4868.01514 C2616.8776,4867.5805 2618.64567,4866.55114 2620.69445,4866.72499 C2622.44262,4866.87447 2623.51728,4865.73061 2623.95511,4864.02914 C2624.41389,4862.24498 2624.7962,4860.43008 2626.0594,4859 Z M2641,4866 C2640.53172,4868.08105 2639.39678,4868.2851 2638,4867.74606 L2638,4867.74606 Z M2654.08525,4852 C2655.07671,4852.14081 2656.06817,4852.28052 2657.06068,4852.42133 C2657.40847,4853.121 2657.75522,4853.81959 2658.10405,4854.51926 C2658.45807,4854.60549 2658.74668,4854.8107 2659,4855.07485 L2659,4855.07485 L2641,4866 C2641.03426,4865.83954 2641.06852,4865.67472 2641.09551,4865.49135 C2641.36336,4863.7176 2641.44019,4861.43848 2643.88511,4861.97988 C2646.95709,4862.65991 2647.74092,4860.29783 2649.13104,4858.48698 C2650.78798,4856.33011 2651.70158,4853.54015 2654.08525,4852 Z M2683.21261,4850.86403 C2684.34183,4849.14733 2685.9771,4850.48588 2687.32658,4850.67858 C2689.65915,4851.01218 2692.00892,4851.73222 2694.25017,4850.65268 C2696.66225,4849.49336 2697.53576,4850.8288 2697.92792,4852.64496 C2698.4286,4854.95633 2696.19165,4854.29949 2695.20318,4854.41553 C2691.91545,4854.79782 2689.14236,4854.90246 2689.46039,4859.54594 C2689.59791,4861.53304 2686.64217,4862.79906 2684.20538,4862.8519 C2681.54188,4862.90992 2678.64953,4863.64032 2676.55763,4861.22326 C2676.23315,4860.84926 2676.19232,4860.24836 2676,4859.69305 C2677.87272,4858.50369 2679.82173,4858.81139 2681.72883,4858.8031 C2683.2341,4858.79585 2685.05525,4859.44337 2685.94165,4857.68834 C2686.71523,4856.15398 2684.89731,4855.43498 2684.31389,4854.35129 C2683.6961,4853.20234 2682.29505,4852.25955 2683.21261,4850.86403 Z M2673,4842 C2671.7329,4842.99976 2671.56241,4845.177 2669.48706,4845.30819 C2668.19575,4847.1215 2666.59503,4847.51717 2664.6586,4846.37671 C2663.90507,4848.58569 2664.58914,4851.18929 2662.8274,4853.12109 L2662.889,4853.049 L2668,4850 C2667.55139,4850.3358 2667.32236,4850.88023 2667.48661,4851.75263 L2667.52789,4851.94464 C2668.55649,4856.22019 2665.4568,4857.41876 2663.3558,4858.60849 C2660.66093,4860.13705 2660.39924,4856.79409 2659,4855.36817 L2659,4855.36817 L2659.88668,4854.84005 C2659.60348,4854.88023 2659.3233,4854.92648 2659.05662,4855 C2659.26815,4854.2478 2659.83856,4853.85531 2660.42475,4853.47974 C2659.6165,4853.3221 2658.81141,4853.0153 2658,4852.96663 C2659.25868,4851.29191 2660.44791,4851.8304 2661.63292,4852.49162 C2661.71395,4852.38477 2661.79289,4852.27368 2661.85287,4852.14461 C2663.13787,4850.35457 2662.73164,4847.84725 2664.34393,4846.20215 C2664.46601,4846.15348 2664.59124,4846.11328 2664.71543,4846.07096 C2665.34056,4842.63582 2666.98969,4843.88314 2668.57146,4844.82788 C2668.79036,4844.71574 2669.004,4844.5909 2669.21027,4844.44596 C2670.82046,4844.17196 2671.64029,4842.6591 2673,4842 Z M2631,4852.62527 C2631.66552,4852.36327 2632.33362,4852.28027 2633,4852.34427 C2632.31204,4852.60827 2631.63876,4852.76227 2631,4852.62527 Z M2646,4844.01048 C2648.77638,4841.4352 2650.31295,4844.51462 2652.3782,4845.19153 C2652.46503,4845.28347 2652.56175,4845.37238 2652.65847,4845.46128 C2653.98731,4844.83388 2655.8745,4846.56858 2657,4845.07939 C2656.09432,4846.8151 2654.61711,4846.1291 2653.26189,4845.96442 C2655.28647,4847.51625 2658.1299,4848.81349 2654.8765,4852 C2655.88439,4849.21357 2653.51908,4847.81732 2651.98471,4846.07858 C2649.9964,4845.37238 2648.71703,4842.93349 2646,4844.01048 Z M2676.19802,4843 L2676.60022,4843.18662 C2677.40132,4843.56234 2678.17763,4843.95685 2678.84007,4844.43851 L2678.84007,4844.43851 L2680.20062,4843.67955 C2681.89611,4844.12186 2683.52503,4844.84764 2685,4846.23388 C2683.52295,4847.0622 2682.14159,4847.83725 2680.76024,4848.61129 C2678.16188,4850.75247 2675.136,4849.81558 2672.23911,4849.67886 C2671.16877,4849.6286 2669.84982,4849.55823 2669,4849.92917 L2669,4849.92917 L2677.8259,4845.00346 C2677.28397,4844.33597 2676.741,4843.66748 2676.19802,4843 L2676.19802,4843 Z M2687.35022,4838 C2687.78722,4838.33942 2687.71022,4838.67732 2687.35022,4839 L2687.35022,4839 Z M2643,4836.70557 C2643.56472,4835.98957 2644.30584,4836.40357 2645,4836.51157 L2645,4836.51157 Z M2700.75259,4823.12502 C2701.56176,4822.9638 2703.01669,4822.80259 2702.99986,4823.71372 C2702.96321,4825.67432 2701.96982,4827.29689 2699.10353,4828 C2699.61459,4826.07996 2697.77042,4823.721 2700.75259,4823.12502 Z M2431.12264,4683.2562 L2430.83817,4683.8227 C2430.25471,4684.98867 2429.66556,4686.1675 2429.04255,4687.4107 C2432.25244,4688.03187 2434.8601,4687.04663 2437.38749,4685.83609 C2434.94857,4686.19196 2432.6052,4686.21796 2431.12264,4683.2562 Z M2459.5301,4650.40144 L2452.06532,4654.72713 C2451.95434,4655.58024 2451.99384,4656.49783 2451.90483,4657.39883 C2451.64031,4660.07492 2452.34606,4662.84735 2451.13454,4665.42924 C2450.21505,4665.87066 2449.29557,4666.31209 2448.37608,4666.75246 C2447.70737,4666.37984 2447.03865,4666.00828 2446.37099,4665.63566 C2444.15851,4666.44971 2441.69421,4662.26407 2440.00019,4665.45782 C2438.88602,4667.55593 2436.9497,4670.20238 2440.05098,4673.07114 C2441.99788,4674.87285 2439.59283,4676.25748 2437.90305,4677.25254 C2435.3615,4678.74938 2432.24753,4679.61318 2431.27514,4682.94984 C2431.25295,4682.99412 2431.23078,4683.03841 2431.2086,4683.0827 C2433.47267,4683.96868 2435.73633,4684.85441 2438,4685.74128 L2437.7708,4685.65067 C2437.97916,4685.54901 2438.18715,4685.44629 2438.39506,4685.34329 C2439.87322,4686.00173 2440.52289,4684.18732 2441.78732,4684.20637 C2441.92019,4684.25046 2442.03972,4684.27928 2442.1475,4684.29465 C2442.28392,4682.87435 2441.68821,4681.28267 2443.20732,4680.18475 C2443.30175,4677.90384 2444.50233,4676.66157 2446.89674,4676.54352 C2446.28184,4674.22795 2444.1516,4672.38676 2444.599,4669.73762 C2444.10551,4667.78704 2445.86141,4667.10471 2446.86976,4666 C2447.12044,4666.76247 2446.83941,4667.42097 2446.53364,4668.07405 C2447.34864,4667.7513 2448.24683,4667.5596 2449,4667.14262 C2448.85161,4669.28707 2447.47567,4669.49934 2446.03115,4669.60115 C2446.02216,4669.73978 2446.01542,4669.87841 2446.0379,4670.02354 C2445.93335,4672.28062 2447.75895,4674.19546 2447.27895,4676.51536 C2447.19801,4676.62583 2447.1092,4676.73089 2447.02264,4676.83811 C2448.40805,4679.99341 2446.44535,4679.99955 2444.55091,4680.06989 L2444.30448,4680.07969 C2444.17633,4680.29847 2444.05605,4680.52482 2443.95712,4680.76635 C2442.8918,4681.72045 2442.81925,4683.10192 2442.34282,4684.30713 C2443.65213,4684.28879 2442.83949,4681.84705 2444.25691,4682.0204 C2451.44244,4682.89479 2451.26468,4676.63327 2453.4031,4672.61489 L2453.39293,4672.63398 C2453.36335,4671.02596 2454.83392,4670.83862 2455.95194,4670.3188 C2453.40137,4670.03727 2450.33276,4670.39511 2451.12801,4666 C2451.92861,4668.89776 2454.66435,4668.87095 2456.92486,4669.56394 C2458.95419,4669.14319 2461.41271,4670.56629 2463,4668.24808 C2462.23472,4671.8739 2459.19394,4670.03727 2457.12073,4670.52401 C2456.9955,4670.48895 2456.86492,4670.4642 2456.73434,4670.43842 C2456.08191,4671.55 2453.90993,4671.22494 2453.49197,4672.5595 C2456.98281,4670.49207 2460.55601,4671.20996 2464.14065,4672.29309 C2464.21764,4672.31496 2464.29463,4672.33684 2464.37162,4672.35871 L2464.34112,4672 L2464.34112,4672 L2464.25699,4671 C2464.70253,4671.45506 2464.83194,4671.93888 2464.68534,4672.44774 C2465.87773,4672.78646 2467.07089,4673.12451 2468.26405,4673.46176 C2468.3531,4673.46399 2468.44214,4673.46622 2468.53117,4673.46846 L2468.99963,4673 C2469.004,4673.20734 2468.96969,4673.36067 2468.90908,4673.47736 C2470.763,4673.52437 2472.61692,4673.57066 2474.47085,4673.61525 C2473.16621,4671.8633 2471.22672,4672.62866 2469.54541,4672.37565 C2469.25866,4667.52099 2465.8918,4670.77825 2463.96184,4670.25214 C2463.90152,4669.28248 2463.82323,4668.31811 2462.87094,4667.73695 C2461.76734,4663.47827 2453.79459,4659.27675 2462.76619,4654.93551 L2462.672,4654.982 L2461.11016,4653.64124 C2460.23121,4652.761 2459.81097,4651.73614 2459.58013,4650.65251 L2459.5301,4650.40144 Z M2426.77815,4651 C2428.7344,4651.64862 2430.93329,4652.19398 2432.96502,4653.10936 C2434.6301,4653.86016 2437.93975,4653.45464 2436.74595,4656.86554 C2435.86812,4659.37827 2435.71498,4662.8365 2431.15544,4661.80065 C2429.46988,4661.41664 2427.01001,4660.14952 2425.4517,4662.60416 C2424.91896,4668.43098 2418.66631,4669.74328 2416.53212,4675 C2413.99892,4665.14701 2413.99892,4665.14701 2421.25774,4653.5407 C2422.25743,4655.5683 2423.18703,4657.45285 2424.11554,4659.3374 C2429.17439,4657.91753 2424.60191,4653.65687 2426.77815,4651 Z M2425,4671 L2421,4673 C2422.25911,4672.18983 2423.49798,4671.2797 2425,4671 L2425,4671 Z M2395.2728,4657.93694 C2397.03517,4656.13397 2397.29864,4651.29036 2401.94861,4653.62223 C2405.67279,4655.48944 2407.3239,4657.78384 2404.76589,4661.75594 C2398.41757,4658.98939 2398.41757,4658.98939 2397.47708,4665 C2395.2749,4662.85121 2392.25084,4661.0279 2395.2728,4657.93694 Z M2447.63182,4658.13626 L2446.49655,4658.77063 C2446.7423,4659.05738 2446.98913,4659.34482 2447.23863,4659.63455 C2447.4083,4659.11398 2447.53767,4658.61544 2447.63182,4658.13626 Z M2471,4652 C2470.4369,4652.85468 2469.765,4653.50896 2469,4654 C2469.58441,4653.12674 2470.22266,4652.3862 2471,4652 Z M2408,4634.69911 C2415.64041,4633.27011 2415.80578,4633.43738 2414.16065,4641 C2411.54154,4639.40152 2409.75896,4637.16497 2408,4634.69911 Z M2434.82025,4637.01844 C2435.27022,4636.8744 2436.02998,4637.60523 2437,4638.13595 C2435.51806,4639.08235 2434.85682,4639.74164 2434.06456,4639.95239 C2432.96046,4640.2453 2432.87819,4639.10942 2433.09759,4638.6541 C2433.42566,4637.97547 2434.11433,4637.24271 2434.82025,4637.01844 Z M2446,4637.57976 C2448.36409,4637.7185 2450.65944,4636.24324 2452.84397,4637.53234 C2453.07792,4637.67109 2453.02559,4638.68269 2452.83987,4638.74943 C2450.31673,4639.65918 2448.30869,4637.81686 2446,4637.57976 Z M2423.81949,4634.01844 C2424.27042,4633.8744 2425.03009,4634.60523 2426,4635.13498 C2424.51823,4636.08235 2423.85707,4636.74164 2423.06388,4636.95239 C2421.96093,4637.2453 2421.87765,4636.10942 2422.09804,4635.6541 C2422.42608,4634.97547 2423.11466,4634.24271 2423.81949,4634.01844 Z M2443,4624 C2440.82181,4626.28627 2442.36281,4629.57422 2439.16758,4629.99581 C2438.47892,4630.08607 2436.94101,4628.69031 2437.00175,4628.54171 C2437.91173,4626.31599 2439.58757,4624.97857 2443,4624 Z M2422,4622.69867 C2429.63989,4621.27068 2429.80632,4621.43686 2428.16023,4629 C2425.5413,4627.4014 2423.75991,4625.16581 2422,4622.69867 Z M2454,4616 L2460,4618.4775 L2454.65949,4622 L2454,4616 Z M2394,4619 C2395.92968,4619.42024 2397.49158,4618.90911 2397.98928,4620.68781 C2398.07908,4621.01227 2397.58519,4621.81366 2397.23556,4621.90846 C2395.44248,4622.3932 2395.04317,4620.88424 2394,4619 Z M2490,4609 C2496.64339,4611.62656 2496.68991,4612.74478 2490,4621 L2490,4621 Z M2587,4619.67349 C2589.66477,4618.6927 2590.8,4618.87169 2592,4619.64271 C2590.26591,4620.52307 2589.4125,4619.47425 2587,4619.67349 Z M2438.39902,4607.10557 C2440.86485,4606.20327 2445.94365,4611.28579 2446,4614.68793 C2445.55755,4615.76459 2444.89387,4617.38175 2444.22915,4619 C2442.76719,4618.21866 2440.63945,4617.99745 2440.38797,4615.9858 C2440.12709,4613.9055 2439.29541,4613.42602 2437.48699,4613.48922 C2435.71823,4613.55243 2433.04996,4613.78236 2433.00091,4611.47322 C2432.93621,4608.35114 2436.3266,4607.86403 2438.39902,4607.10557 Z M2515.40826,4607 C2516.90227,4607.29408 2519.36446,4608.49214 2518.95463,4609.20352 C2516.93371,4612.70036 2514.68511,4616.29971 2511.61577,4618.8905 C2510.6812,4619.67954 2509.36283,4616.01081 2509.0289,4614.08584 C2508.61366,4611.68662 2512.76718,4607.18328 2515.40826,4607 Z M2405.41954,4612 C2406.52269,4613.14374 2407.29186,4614.11419 2406.89348,4615.54046 C2406.81619,4615.81668 2405.82437,4616.12336 2405.67624,4615.94901 C2404.79574,4614.9166 2404.84635,4613.65312 2405.41954,4612 Z M2525.17395,4610.16732 C2525.78498,4609.03809 2527.52733,4608.56471 2528.80731,4609.4912 C2529.62383,4610.08217 2530.3376,4610.29606 2531,4610.25145 L2531,4610.25145 L2524,4614 C2524.08089,4612.69338 2524.55418,4611.31378 2525.17395,4610.16732 Z M2423.52776,4605.31534 C2424.40741,4604.6545 2425.21148,4603.68679 2426.46395,4604.09886 C2426.65842,4604.16352 2426.80956,4604.38052 2427,4604.54491 C2426.64431,4605.44357 2425.91984,4605.79317 2425.28302,4606.25236 C2424.77922,4606.61512 2424.02149,4606.8069 2424.12528,4607.68255 C2424.21596,4608.44751 2424.9888,4608.28531 2425.43215,4608.55491 C2425.9017,4608.84095 2426.58587,4608.86287 2426.59695,4609.61029 C2426.61106,4610.52868 2425.7566,4610.4147 2425.26086,4610.66458 C2424.40237,4611.09747 2423.45118,4611.38679 2422.94536,4612.33148 C2422.40125,4613.34741 2421.80373,4613.05151 2421.2576,4612.45861 C2420.56235,4611.70461 2421.46114,4611.41748 2421.76746,4611.13692 C2422.78212,4610.20648 2423.68696,4609.5018 2422.52115,4607.82283 C2422.02138,4607.10281 2422.72368,4605.91701 2423.52776,4605.31534 Z M2461,4603 C2465.93622,4604.41729 2465.93622,4604.41729 2462.99821,4611 C2460.92728,4608.12044 2461.53032,4605.56172 2461,4603 Z M2533,4609 C2532.3626,4609.58547 2531.71633,4609.95556 2531,4610 L2531,4610 Z M2482.07035,4606.00005 L2482.26513,4606.00593 C2483.66737,4606.08272 2484.50489,4606.84707 2485,4608.14895 C2484.50714,4610.11831 2483.02856,4610.11004 2481.58479,4609.91865 C2480.55865,4609.78043 2478.68937,4610.41838 2479.04414,4608.38286 C2479.29563,4606.93095 2480.55977,4605.9126 2482.26513,4606.00593 Z M2509,4601 C2504.68816,4606.9926 2499.60355,4608.98188 2494.05652,4607.56141 L2494.05652,4607.56141 L2494,4606.25346 C2499.06508,4605.86325 2503.36562,4602.88708 2509,4601 Z M2393,4600 C2395.78344,4602.47026 2395.23464,4604.67193 2393.92026,4607 C2393.64832,4604.93713 2393.37835,4602.87538 2393,4600 Z M2416,4599 C2414.91087,4600.71003 2416.91368,4604.23712 2413.0106,4603.98741 C2411.45324,4603.88844 2409.64639,4603.25667 2410.05994,4601.55584 C2410.70817,4598.88492 2413.61668,4599.4534 2416,4599 Z M2521.65218,4595 C2521.94923,4595.2925 2522.05497,4595.59592 2521.9734,4595.90808 C2521.88982,4596.2235 2521.80121,4596.38285 2521.70655,4596.38285 C2519.97656,4598.56463 2521.87069,4604.4191 2516.27089,4602.68262 C2515.15918,4602.33882 2513.26405,4603.50884 2513.04554,4601.67959 C2512.83911,4599.96058 2513.35972,4597.94251 2514.09783,4596.34792 C2514.65972,4595.13097 2516.26485,4594.62236 2517.44402,4595.61884 C2519.16796,4597.077 2520.41259,4596.49745 2521.65218,4595 Z M2476.39902,4590.10557 C2478.86485,4589.20327 2483.94365,4594.28579 2484,4597.68793 C2483.55755,4598.76459 2482.89283,4600.38175 2482.22811,4602 C2480.76719,4601.21866 2478.63945,4600.99854 2478.38797,4598.98689 C2478.12709,4596.9055 2477.29541,4596.42602 2475.48699,4596.49031 C2473.71823,4596.55243 2471.04891,4596.78236 2471.00091,4594.47322 C2470.93621,4591.35114 2474.3266,4590.86403 2476.39902,4590.10557 Z M2442.41946,4596 C2443.5233,4597.14468 2444.29231,4598.11398 2443.89309,4599.5401 C2443.81582,4599.81629 2442.82512,4600.12399 2442.6761,4599.94861 C2441.79579,4598.9163 2441.84638,4597.65296 2442.41946,4596 Z M2497,4593 L2503,4595.47708 L2497.65936,4599 L2497,4593 Z M2424.41965,4594 C2425.52308,4595.14468 2426.29244,4596.11398 2425.89303,4597.5401 C2425.81573,4597.81629 2424.82458,4598.12399 2424.67641,4597.94861 C2423.79569,4596.91735 2423.84631,4595.65296 2424.41965,4594 Z M2491.03156,4587.0602 C2491.20715,4585.47412 2491.11468,4582.65443 2493.21961,4583.03492 C2495.72247,4583.48652 2499.76506,4584.17842 2499.98844,4586.82689 C2500.23571,4589.76674 2496.45493,4588.19268 2494.62948,4588.8966 C2493.17494,4588.55115 2490.69182,4590.12321 2491.03156,4587.0602 Z M2453,4582 C2451.91087,4583.71003 2453.91368,4587.23712 2450.00946,4586.98741 C2448.45324,4586.88844 2446.64639,4586.25667 2447.05994,4584.55584 C2447.70703,4581.88492 2450.61668,4582.4534 2453,4582 Z M2430.41912,4579 C2431.52407,4580.14374 2432.29228,4581.11419 2431.89299,4582.54046 C2431.81571,4582.81668 2430.82577,4583.12336 2430.67672,4582.94901 C2429.79626,4581.9166 2429.84594,4580.65312 2430.41912,4579 Z M2425,4572 C2424.05455,4572.62091 2423.67452,4573.94762 2422.41239,4573.99995 C2422.2765,4574.00576 2421.95751,4573.53717 2422.00472,4573.45229 C2422.66228,4572.31511 2424.04188,4572.56161 2425,4572 Z" id="GEO-Shape-3"></path>
        </g>
    </g>
</svg>