<?xml version="1.0" encoding="UTF-8"?>
<svg width="313px" height="257px" viewBox="0 0 313 257" version="1.1" xmlns="http://www.w3.org/2000/svg" xmlns:xlink="http://www.w3.org/1999/xlink">
    <title>Paint 16</title>
    <g id="Page-1" stroke="none" stroke-width="1" fill="none" fill-rule="evenodd">
        <g id="Desktop-HD" transform="translate(-5634.000000, -4652.000000)" fill="#000000">
            <path d="M5931.56998,4698.36714 C5930.88915,4698.35863 5930.20796,4698.3494 5929.52606,4698.34053 C5928.45766,4698.81406 5927.38961,4699.2883 5926.32192,4699.76148 C5926.13661,4699.56001 5925.96031,4699.35147 5925.79194,4699.1355 C5924.43968,4699.83127 5923.086,4700.52774 5921.7341,4701.22423 C5921.29001,4701.09391 5920.84665,4700.96324 5920.40256,4700.83292 C5919.0548,4701.4722 5917.70776,4702.11114 5916.35999,4702.75042 L5908.92792,4706.18294 C5908.75081,4705.9837 5908.5755,4705.78268 5908.40343,4705.5792 C5906.50325,4706.52644 5904.60379,4707.47334 5902.70396,4708.42131 C5900.47563,4709.4798 5898.24695,4710.53758 5896.01862,4711.59608 C5894.63543,4712.2758 5893.25224,4712.95552 5891.86833,4713.6356 L5886.06471,4716.41908 C5883.12116,4717.40397 5880.38892,4718.81706 5877.78386,4720.49115 C5876.13909,4721.23627 5874.4947,4721.98032 5872.84958,4722.72472 C5872.64349,4722.56455 5872.44283,4722.39727 5872.24867,4722.22326 C5871.74606,4722.44549 5871.24311,4722.667 5870.73979,4722.88958 C5870.18233,4723.16529 5869.62487,4723.441 5869.06741,4723.71672 C5868.84092,4723.92163 5868.60772,4724.11826 5868.36709,4724.30694 C5867.92953,4724.16809 5867.49159,4724.03032 5867.05403,4723.89147 C5865.48113,4724.85161 5864.16846,4724.39679 5863.07148,4723.0908 C5862.58818,4722.51501 5862.22237,4721.84092 5861.80323,4721.21067 L5861.80288,4721.20995 C5862.00386,4721.01838 5862.21332,4720.83691 5862.43057,4720.66231 C5862.56056,4720.27576 5862.68984,4719.88777 5862.82054,4719.50087 C5862.75635,4719.23226 5862.71435,4718.95993 5862.6949,4718.6846 C5863.39786,4718.18922 5864.10082,4717.69384 5864.80271,4717.19809 C5864.99001,4716.87078 5865.17697,4716.54275 5865.36427,4716.21544 C5865.51886,4715.79908 5865.67272,4715.38307 5865.82731,4714.96671 C5866.11063,4714.83462 5866.39323,4714.70289 5866.67655,4714.5708 C5866.25789,4713.16596 5866.24948,4713.14871 5867.50713,4712.98509 C5867.64599,4712.96714 5867.78489,4712.94562 5867.92377,4712.92588 C5868.03479,4712.10623 5868.55349,4711.6287 5869.25155,4711.26744 C5870.30925,4710.71903 5871.34977,4710.13718 5872.39836,4709.57007 L5872.49862,4709.69736 C5874.49247,4708.56642 5874.49247,4708.56642 5874.19249,4706.79746 C5874.22187,4705.99274 5874.60323,4705.56002 5875.4433,4705.58691 C5875.84636,4705.60019 5876.25008,4705.582 5876.65367,4705.57811 C5876.59781,4705.44339 5876.51652,4705.31307 5876.49467,4705.17332 C5876.15058,4703.05652 5876.1531,4703.0544 5878.33724,4702.70816 C5877.96985,4702.23155 5877.46754,4701.80656 5877.26231,4701.26858 C5876.65428,4699.67582 5875.81777,4698.34414 5874.18996,4697.94882 C5873.857,4696.73445 5873.58063,4695.72565 5873.30463,4694.71577 C5873.10165,4693.40501 5872.72393,4692.08966 5872.74754,4690.78221 C5872.77017,4689.53664 5872.47853,4688.4454 5872.00714,4687.35023 C5873.37515,4685.92582 5872.776,4684.59218 5871.82104,4683.27471 C5871.50755,4682.44157 5871.23536,4681.58916 5870.8673,4680.78088 C5870.55067,4680.08545 5870.2609,4679.42141 5870.60083,4678.65912 C5870.63815,4677.95466 5870.67547,4677.2502 5870.71352,4676.54539 C5871.76104,4675.94143 5872.80893,4675.33639 5873.85646,4674.73242 C5873.9449,4674.13652 5874.03369,4673.54133 5874.12248,4672.94615 C5874.3077,4672.82991 5874.48941,4672.70827 5874.66652,4672.58086 L5874.35447,4671.1667 C5874.7558,4670.77495 5875.15748,4670.38393 5875.55882,4669.99219 C5875.42767,4669.55333 5875.29511,4669.11338 5875.16505,4668.6731 C5874.60609,4666.77958 5874.60609,4666.77958 5876.51526,4665.46391 C5876.57173,4664.81152 5877.22501,4664.17038 5876.54885,4663.5054 C5876.01868,4662.38997 5875.48816,4661.27383 5874.95762,4660.15947 C5875.12471,4659.74324 5875.29146,4659.32628 5875.45855,4658.91004 C5875.19088,4657.96107 5874.35911,4657.09169 5875.04572,4656.00616 C5875.53103,4654.09325 5874.85896,4652.75961 5873.04208,4652 C5872.22723,4652.38802 5871.4131,4652.77569 5870.59825,4653.1637 C5869.53641,4653.58864 5868.47421,4654.01286 5867.41236,4654.43779 C5866.98849,4654.43289 5866.50306,4654.29071 5866.15124,4654.44645 C5864.16233,4655.33021 5862.20487,4656.28584 5860.23766,4657.21597 C5856.91642,4658.76886 5853.59553,4660.32247 5850.27464,4661.87608 C5850.08287,4661.71247 5849.88531,4661.55704 5849.68232,4661.4087 C5849.55264,4661.65536 5849.36111,4661.72216 5849.10736,4661.61018 C5847.75308,4662.33097 5846.62847,4663.50305 5845.00558,4663.69633 L5845.0487,4663.60051 C5844.58406,4664.14154 5844.11836,4664.6822 5843.65372,4665.22323 L5841.52102,4666.08017 C5841.24406,4665.96616 5840.98602,4665.818 5840.74869,4665.63569 C5839.90751,4666.3383 5839.06669,4667.03983 5838.22623,4667.74208 L5838.01081,4667.65767 L5837.84729,4667.82028 C5836.91052,4667.59493 5836.72851,4668.50976 5836.20592,4668.90997 C5834.81788,4669.57426 5833.42912,4670.2389 5832.04036,4670.90354 C5828.54805,4672.15099 5825.3063,4673.90717 5822.12831,4675.79422 C5819.52518,4676.8737 5816.96534,4678.02195 5815.03527,4680.18893 C5814.07744,4680.46784 5813.21781,4681.2293 5812.11307,4680.78333 C5811.03454,4681.30542 5809.91665,4681.7595 5808.89404,4682.37445 C5808.28421,4682.74159 5807.82559,4683.36067 5807.29874,4683.8671 C5807.0394,4683.88779 5806.8569,4684.01694 5806.75161,4684.25525 C5805.37236,4684.93394 5803.99276,4685.61191 5802.61352,4686.2906 C5800.17476,4687.01214 5798.05604,4688.55472 5795.5039,4689.02899 C5795.04304,4689.11424 5794.70881,4689.87909 5794.31618,4690.33067 C5793.7657,4690.55135 5793.21556,4690.77275 5792.66508,4690.99344 C5790.24514,4691.87223 5787.91328,4692.84598 5785.85238,4694.50541 C5784.59638,4695.51734 5783.13002,4696.33112 5781.41264,4696.68268 C5780.11933,4696.94648 5778.94467,4697.7932 5777.71717,4698.38 C5776.63844,4698.95826 5775.55973,4699.53473 5774.48066,4700.11226 C5772.8054,4700.90431 5771.1298,4701.69563 5769.45455,4702.48768 C5769.19858,4702.63757 5768.94296,4702.78817 5768.68663,4702.93734 C5767.97556,4703.56753 5767.26413,4704.19699 5766.5527,4704.82646 L5766.54979,4704.83144 C5765.06279,4704.40209 5763.94572,4704.95457 5763.06758,4706.14339 C5762.97238,4706.01007 5762.88581,4705.87255 5762.80822,4705.72974 C5762.65087,4706.02729 5762.40487,4706.18121 5762.06842,4706.19149 L5760.70334,4707.49965 C5759.99375,4707.57994 5759.20081,4707.48553 5758.5889,4707.77359 C5756.71222,4708.65774 5754.90557,4709.68927 5753.07125,4710.664 C5752.80204,4710.99659 5752.56978,4711.56925 5752.25402,4711.62015 C5750.95588,4711.83023 5750.0611,4712.64 5749.13606,4713.43695 C5748.70992,4713.33614 5748.28342,4713.23461 5747.85621,4713.13344 C5746.35337,4714.20268 5744.85125,4715.27156 5743.34913,4716.34045 C5740.03027,4717.94202 5736.71212,4719.54325 5733.39398,4721.14447 C5730.6596,4722.48384 5727.93218,4723.73526 5725.54192,4725.77355 C5723.87224,4727.19749 5721.67427,4728.22158 5719.239,4728.04513 L5719.29363,4728.05139 C5718.04629,4728.69238 5716.82364,4729.43881 5715.31921,4729.00106 L5715.00575,4729.18079 C5714.99752,4729.43581 5715.01326,4729.68891 5715.05403,4729.94048 C5713.14498,4730.91697 5710.81945,4731.1026 5709.36867,4732.94659 C5708.64683,4733.1824 5708.16473,4733.64561 5707.99712,4734.40388 C5707.7548,4734.5836 5707.5114,4734.76295 5707.26872,4734.94195 C5706.41413,4735.15533 5705.5697,4735.46256 5704.70192,4735.56312 C5702.51978,4735.81492 5700.62853,4736.50859 5699.47334,4738.53581 C5699.17122,4738.58006 5698.82097,4738.54011 5698.57402,4738.68114 C5696.98524,4739.58495 5695.49159,4740.62923 5693.54443,4740.75742 C5692.85269,4740.80318 5692.15905,4741.36878 5691.53716,4741.79878 C5690.40783,4742.57975 5689.33135,4743.43817 5688.23267,4744.26381 C5686.93137,4744.64989 5685.77605,4745.67319 5684.27157,4745.16782 C5684.19264,4745.34343 5684.05974,4745.4083 5683.87327,4745.36138 C5683.5279,4746.53042 5682.40914,4746.78198 5681.54159,4747.33191 C5680.56036,4746.97518 5679.63273,4747.38176 5678.97969,4747.92665 C5676.98344,4749.59102 5674.53584,4750.4842 5672.44558,4751.96839 C5668.07197,4754.10803 5663.69907,4756.24911 5659.32407,4758.38587 C5658.6262,4758.72746 5658.03392,4759.16347 5657.80417,4759.95297 C5655.90802,4760.27342 5654.15062,4760.84212 5652.70531,4762.23929 C5652.08354,4762.83923 5651.20914,4763.17622 5650.44974,4763.6324 C5649.785,4763.65876 5649.12026,4763.68511 5648.45625,4763.71111 C5648.24871,4763.91479 5648.05641,4764.27747 5647.83245,4764.2978 C5644.63653,4764.59505 5642.81946,4767.55598 5639.90471,4768.37372 C5638.22171,4770.46013 5636.08053,4772.28693 5636.0315,4775.84886 C5636.46138,4776.73109 5637.06575,4778.11558 5637.80886,4779.42166 C5638.07906,4779.89588 5638.68032,4780.18088 5639.13096,4780.55277 C5639.3747,4781.06394 5639.61988,4781.57441 5639.86434,4782.08523 C5637.35365,4784.73771 5638.32915,4787.70689 5639.15071,4790.6284 C5639.24364,4790.95597 5639.85952,4791.13593 5640.23274,4791.38363 C5640.2646,4791.59682 5640.3532,4791.78231 5640.49747,4791.94151 C5640.42244,4793.53397 5640.5434,4793.6289 5642.30066,4793.32818 C5642.96486,4794.44493 5643.29363,4795.83135 5644.72384,4796.32847 C5645.08891,4796.49737 5645.45469,4796.66592 5645.81976,4796.83481 C5646.49802,4797.75778 5646.86162,4798.80144 5648.43506,4798.90999 C5650.43928,4799.04856 5651.9814,4800.26807 5652.86856,4802.22744 C5653.5,4803.62186 5654.48868,4804.74575 5656.091,4805.11613 C5656.52155,4805.53075 5656.91334,4805.99902 5657.39138,4806.34685 C5658.40994,4807.08677 5658.46013,4808.05113 5658.16745,4809.13303 L5658.16745,4809.13303 C5657.47666,4809.44535 5656.9649,4809.90791 5656.85124,4810.70571 C5654.57479,4812.18556 5652.97336,4814.30068 5651.43531,4816.47654 C5650.27381,4817.2937 5649.41057,4818.34885 5648.8885,4819.67536 C5647.41457,4821.18531 5645.97078,4822.71881 5645.03139,4824.64512 C5644.63983,4825.17006 5644.24862,4825.69571 5643.85813,4826.22101 C5642.76237,4827.43952 5641.30709,4828.36183 5640.7414,4830.0167 C5639.39774,4831.58231 5638.12304,4833.18546 5637.90583,4835.35111 C5636.55157,4836.57745 5635.33735,4837.88316 5635.33272,4839.87738 C5635.02294,4840.69972 5634.71316,4841.52206 5634.4041,4842.34405 C5633.69719,4844.54672 5633.74017,4846.53282 5635.99264,4847.88528 C5635.99078,4848.90887 5635.96665,4849.90684 5636.99619,4850.58355 C5638.33791,4851.46477 5639.66881,4852.39132 5639.89417,4854.18781 C5639.49892,4854.9424 5639.75517,4855.59787 5640.27303,4856.14967 C5640.6646,4856.56642 5641.14783,4856.89569 5641.59064,4857.26429 C5641.05717,4858.91411 5640.52371,4860.56393 5639.98917,4862.21339 C5639.77467,4863.81341 5640.77672,4865.17642 5640.93105,4866.63554 C5641.18968,4869.08244 5642.73653,4870.3664 5644.43848,4871.65296 C5644.91001,4872.00932 5645.45142,4872.27369 5645.98299,4872.5945 C5645.88889,4873.76459 5645.80696,4874.7881 5645.72714,4875.77944 C5646.6606,4876.1221 5647.53563,4875.57654 5648.34745,4876.36666 C5649.04846,4877.04799 5649.80436,4878.03542 5651.29344,4877.70987 C5651.29592,4876.87734 5651.29876,4876.00903 5651.30141,4875.2681 C5650.41678,4874.79389 5649.77109,4874.44691 5649.19935,4874.14038 C5648.87421,4872.8581 5649.3511,4871.9079 5649.98317,4871.02434 C5650.35937,4870.4989 5650.94651,4870.18555 5651.56891,4870.42998 C5651.93956,4870.57568 5652.40304,4870.98669 5652.46318,4871.34005 C5652.82316,4873.4402 5653.80119,4875.24662 5654.73397,4877.10985 C5656.24071,4876.76944 5657.53608,4876.47705 5658.72578,4876.20865 C5659.60918,4877.35189 5660.33199,4878.28782 5661.07281,4879.24611 C5664.37102,4875.93236 5664.37102,4875.93236 5667.68178,4874.68097 C5668.90559,4875.05011 5670.05562,4875.39742 5671.2053,4875.74401 C5671.83242,4876.52372 5672.45955,4877.30343 5673.06797,4878.05935 C5672.86014,4878.29343 5672.79022,4878.42369 5672.67986,4878.48735 C5671.40725,4879.22613 5671.21418,4879.34086 5671.78618,4880.27387 C5672.42081,4881.30804 5671.38008,4881.94785 5671.55582,4882.79394 C5671.39984,4883.17094 5671.24458,4883.54758 5671.08894,4883.92529 C5668.97087,4884.96734 5667.22331,4886.42307 5666.00533,4888.47293 C5665.24368,4889.15807 5664.55244,4889.95124 5663.70487,4890.50388 C5662.06548,4891.57391 5660.71875,4892.87045 5659.8247,4894.62154 C5659.6381,4897.63471 5660.28524,4900.62713 5660.05323,4903.64199 C5659.93033,4904.76027 5659.80672,4905.8789 5659.68382,4906.99718 C5659.5949,4907.42421 5659.333,4907.92144 5659.46614,4908.26054 C5659.60193,4908.59744 5660.12375,4908.96395 5660.49386,4908.98442 C5661.22513,4909.02527 5662.0446,4909.00259 5662.69195,4908.7088 C5664.34105,4907.95979 5665.91634,4907.04655 5667.521,4906.19906 C5667.80738,4906.01119 5668.09412,4905.82225 5668.38014,4905.63367 C5669.76014,4904.98754 5671.36103,4904.59584 5672.46357,4903.63213 C5673.86932,4902.40379 5675.42925,4901.49004 5676.95015,4900.47429 C5677.30168,4900.23948 5677.48379,4899.75004 5677.74373,4899.37837 C5679.44849,4899.47356 5680.85692,4898.88031 5681.99725,4897.59998 C5682.38145,4897.16943 5682.84573,4896.81015 5683.27314,4896.41902 C5684.30275,4896.07391 5685.14456,4895.48938 5685.84245,4894.63688 C5686.25018,4894.13966 5686.87317,4894.0696 5687.48843,4894.34866 C5688.17344,4894.87671 5688.93354,4894.89459 5689.61946,4894.45914 C5691.69057,4893.14185 5693.98635,4893.29117 5696.27609,4893.32772 C5697.23602,4893.34328 5698.07437,4893.65317 5698.77134,4894.30977 C5699.40526,4894.90816 5700.01787,4895.52851 5700.6112,4896.11111 C5703.37376,4894.99384 5705.63271,4896.77749 5707.90923,4897.10444 C5709.59983,4896.49537 5711.04698,4895.31002 5712.72229,4895.70974 C5713.80458,4895.96729 5714.7098,4896.9637 5715.69842,4897.62212 C5715.82412,4897.70672 5715.97156,4897.76113 5716.11364,4897.81548 C5717.20326,4898.23589 5717.10642,4899.21239 5717.23842,4900.10922 C5717.26889,4900.31775 5717.60686,4900.4803 5717.79953,4900.66037 L5720.74756,4899.22115 C5722.24666,4900.0549 5723.58763,4900.72109 5724.84475,4901.51811 C5726.67198,4902.67854 5728.4507,4902.88536 5730.35114,4901.69411 C5730.82121,4901.39965 5731.52757,4901.13936 5732.01237,4901.27295 C5733.94263,4901.8072 5735.50783,4900.97543 5737.2773,4900.23441 C5737.07919,4899.5541 5736.89136,4898.99161 5736.75083,4898.4167 C5736.40586,4897.00615 5737.02603,4896.06165 5738.24085,4895.41962 C5738.94232,4896.05445 5739.76777,4896.33236 5740.70984,4896.27297 C5743.12863,4897.32439 5743.38025,4897.28966 5744.66573,4895.82544 C5745.97579,4894.33319 5747.29967,4892.85289 5748.61717,4891.3668 C5748.60145,4890.49509 5749.17891,4890.07611 5749.85961,4889.73578 C5750.13618,4889.59897 5750.41204,4889.46252 5750.68826,4889.325 C5752.39752,4888.52792 5754.01471,4887.42511 5756.04832,4887.70064 C5756.12733,4886.6474 5756.94165,4886.27655 5757.73262,4885.8815 C5758.52647,4885.48505 5759.31609,4885.08175 5759.41885,4884.04807 C5759.55411,4883.63402 5759.68865,4883.22032 5759.82284,4882.80591 C5760.65605,4882.40447 5761.48926,4882.00304 5762.3221,4881.60268 C5763.01214,4881.25779 5763.70308,4881.07535 5764.3986,4881.58847 L5764.79013,4881.39377 L5765.18654,4881.21092 C5765.2111,4880.35071 5765.79597,4879.94145 5766.47411,4879.60683 L5766.50064,4879.56272 C5766.37333,4879.31424 5766.24425,4879.06574 5766.11263,4878.81936 C5766.64706,4878.52375 5767.18041,4878.22776 5767.71483,4877.93214 C5768.66541,4876.10361 5768.99873,4875.9391 5771.03188,4876.29763 C5771.5828,4876.03223 5772.13301,4875.76718 5772.68428,4875.5025 C5772.56012,4875.22579 5772.43631,4874.94979 5772.31214,4874.67307 C5773.13311,4874.28118 5773.953,4873.88892 5774.77397,4873.49702 C5775.05664,4873.35813 5775.34003,4873.21889 5775.62307,4873.07893 C5776.17084,4872.80706 5776.71863,4872.5334 5777.26677,4872.26046 L5777.27514,4872.2448 C5777.36324,4870.95838 5778.44177,4870.68996 5779.33735,4870.23404 C5779.48428,4870.4863 5779.63155,4870.73927 5779.77776,4870.99187 C5780.60046,4870.60536 5781.42387,4870.2185 5782.24585,4869.83234 C5782.79466,4869.56442 5783.34418,4869.29614 5783.89192,4869.02785 C5784.14934,4868.87547 5784.41274,4868.73353 5784.6821,4868.60381 C5784.70459,4867.7357 5785.296,4867.31614 5785.97253,4866.9636 C5787.32471,4866.31148 5788.6762,4865.65613 5790.0312,4865.00797 C5790.73725,4864.6704 5791.45387,4864.56621 5792.17808,4864.96119 C5792.46917,4864.83777 5792.76099,4864.71399 5793.05281,4864.59022 C5795.2381,4863.47441 5797.42338,4862.3586 5799.60867,4861.24279 C5800.69782,4860.73154 5801.78802,4860.22245 5802.87506,4859.70689 C5803.58468,4859.36935 5804.11181,4858.8708 5804.27737,4858.06636 C5806.00904,4857.38829 5808.04037,4857.71388 5809.60142,4856.46848 C5812.3428,4855.107 5815.08311,4853.74515 5817.82449,4852.38367 C5817.84383,4851.50909 5818.45959,4851.12125 5819.12925,4850.77652 C5819.81301,4850.77826 5820.49641,4850.78107 5821.18017,4850.78281 C5821.36212,4849.61968 5822.08286,4849.13341 5823.21399,4849.14995 C5823.63035,4849.15585 5824.0469,4849.14207 5824.46443,4849.1376 C5824.84775,4847.59936 5826.43056,4847.5191 5827.41257,4846.70769 L5827.81909,4846.51456 L5828.19683,4846.26785 C5829.15747,4845.84871 5830.24744,4845.58004 5830.48903,4844.31482 C5831.26379,4843.89563 5832.03928,4843.4761 5832.81439,4843.05763 C5833.63892,4842.63107 5834.46309,4842.20379 5835.28761,4841.77723 C5836.12033,4841.38939 5836.9534,4841.00226 5837.78575,4840.61549 C5839.49843,4840.99519 5840.8659,4840.06057 5842.31088,4839.42189 C5842.41694,4839.14136 5842.47286,4838.6539 5842.63732,4838.61366 C5843.93545,4838.29589 5845.02716,4837.34281 5846.43193,4837.37528 C5846.68636,4836.11268 5847.56397,4835.30418 5848.45327,4834.47038 C5849.10372,4833.86178 5849.63109,4833.12102 5850.21365,4832.43876 C5850.76039,4832.19943 5851.31133,4831.96874 5851.85281,4831.71863 C5852.55945,4831.39323 5853.26142,4831.25168 5853.97484,4831.6902 C5856.18579,4830.58145 5858.3971,4829.47341 5860.60768,4828.36572 L5863.07914,4827.22769 C5863.63187,4826.96052 5864.18425,4826.69263 5864.73663,4826.42474 C5866.08486,4826.68062 5867.3029,4826.29336 5868.47043,4825.66196 C5868.74485,4825.52621 5869.02071,4825.38975 5869.29585,4825.25365 C5870.94239,4824.43735 5872.58927,4823.62177 5874.23688,4822.80584 C5874.26346,4821.55924 5875.34505,4820.94487 5875.91209,4820.02275 C5876.62456,4820.52137 5877.31795,4820.23448 5878.01324,4819.97337 C5878.29192,4819.84088 5878.57059,4819.70839 5878.84962,4819.57662 C5879.72191,4818.14767 5881.07084,4817.35383 5882.57819,4816.77015 C5883.54656,4817.30672 5884.33021,4816.89299 5885.07327,4816.28101 C5885.89129,4815.60751 5886.70542,4814.92969 5887.52132,4814.25367 C5888.44722,4813.8052 5889.54565,4813.54843 5889.72588,4812.27043 C5891.07561,4811.57678 5892.42499,4810.88241 5893.77365,4810.1884 C5895.4339,4809.39477 5897.09488,4808.6008 5898.75513,4807.80717 C5899.42083,4807.79192 5900.08618,4807.77595 5900.75081,4807.76033 C5901.88852,4805.87604 5903.02587,4803.99104 5904.16322,4802.10603 C5904.71339,4802.82452 5905.17465,4803.64159 5905.83722,4804.23489 C5906.57418,4804.89511 5907.78148,4804.47304 5908.06474,4803.54883 C5908.33062,4802.68384 5908.51417,4801.79407 5908.73373,4800.91431 L5909.9598,4801.19868 C5910.20516,4801.18214 5910.44546,4801.13514 5910.67929,4801.05659 C5910.85148,4801.28405 5911.0179,4801.5161 5911.17784,4801.7531 L5911.20432,4801.75086 C5911.88875,4801.64813 5912.65422,4801.30113 5913.24137,4801.49512 C5914.45167,4801.89311 5915.11801,4801.41382 5915.70353,4800.50225 L5915.6894,4800.52251 C5915.54874,4800.25028 5915.42497,4799.97071 5915.32022,4799.68273 C5915.84637,4799.42854 5916.36519,4799.15566 5916.90114,4798.92339 C5918.06494,4798.41753 5918.3288,4797.57577 5917.86743,4796.44278 C5918.64084,4795.79818 5919.41497,4795.15323 5920.23919,4794.46692 C5921.20649,4794.56878 5922.21235,4794.67495 5923.2182,4794.78112 L5923.5434,4794.60723 L5923.87807,4794.45096 C5923.69932,4793.72827 5923.55985,4793.00955 5924.07532,4792.35203 L5924.07569,4792.35096 C5924.0921,4791.66561 5924.10922,4790.97992 5924.12562,4790.29458 C5924.53215,4789.73831 5924.93759,4789.18346 5925.34411,4788.62719 C5925.89859,4788.98042 5926.55654,4789.1354 5926.95001,4788.56147 C5927.78045,4787.35321 5929.03027,4786.85965 5930.2745,4786.3163 C5930.56074,4786.39641 5930.90274,4786.62018 5931.1245,4786.53328 C5933.13856,4785.74493 5935.24396,4785.91778 5937.32972,4785.86967 C5937.03951,4785.17737 5936.83329,4784.48589 5937.34691,4783.79901 C5937.49748,4783.39084 5937.64912,4782.98304 5937.79969,4782.57487 C5937.8918,4781.75109 5938.40301,4781.27278 5939.11331,4780.93847 C5939.64945,4780.68652 5940.16912,4780.40077 5940.69543,4780.13048 L5940.6969,4780.1262 C5940.41876,4779.44224 5940.21818,4778.75869 5940.74161,4778.09195 C5941.01128,4777.60338 5941.27456,4777.11081 5941.55205,4776.62733 C5941.8328,4776.13958 5942.12883,4775.66129 5942.41739,4775.17863 C5942.70571,4774.35787 5942.99331,4773.53746 5943.28162,4772.71669 C5943.00342,4772.18408 5942.72559,4771.65039 5942.44704,4771.11705 C5941.88927,4771.31548 5941.33257,4771.51428 5940.77551,4771.71235 L5939.61309,4769.39427 C5940.13805,4769.11573 5940.66264,4768.83827 5941.18761,4768.55973 C5940.94418,4768.01636 5940.70113,4767.47193 5940.45735,4766.92784 L5940.45735,4766.92784 C5941.1216,4766.22528 5941.78585,4765.52272 5942.44975,4764.81944 C5942.77399,4764.01763 5943.09894,4763.21548 5943.42389,4762.41333 C5944.06937,4761.72882 5944.71523,4761.04325 5945.36071,4760.35875 C5945.66418,4759.88662 5945.86924,4759.28185 5946.29125,4758.96723 C5947.21883,4758.27586 5947.13018,4757.55012 5946.6288,4756.70546 C5945.98407,4756.65974 5945.33898,4756.61509 5944.69426,4756.56937 C5944.12593,4755.48147 5943.55796,4754.39251 5942.98963,4753.30462 C5943.89396,4752.79548 5944.79757,4752.28669 5945.82124,4751.7104 C5945.57509,4750.6815 5945.21464,4749.82678 5945.20414,4748.96944 C5945.19188,4747.92782 5945.47491,4746.88267 5945.62995,4745.83949 C5945.32238,4745.3123 5945.01447,4744.7844 5944.70691,4744.25722 L5943.8858,4742.77649 C5943.22058,4742.70696 5942.55608,4742.63707 5941.89051,4742.56681 C5941.05499,4742.87592 5940.21875,4743.18537 5939.38252,4743.49482 C5938.83516,4743.17994 5938.28816,4742.86578 5937.74118,4742.54982 L5934.87964,4742.90189 C5934.47482,4742.77733 5934.06891,4742.65418 5933.66444,4742.53033 C5933.50011,4742.9194 5933.33579,4743.30848 5933.17253,4743.69792 C5932.5472,4744.29604 5932.00123,4745.25594 5931.28016,4745.41304 C5929.9075,4745.7129 5928.47498,4746.32058 5927.0101,4745.714 C5926.30656,4746.37789 5925.60301,4747.04178 5924.89912,4747.70495 C5924.35886,4747.32252 5923.81898,4746.93902 5923.27944,4746.55623 C5923.00634,4746.7038 5922.73395,4746.85102 5922.46084,4746.9986 C5921.93341,4747.27389 5921.40598,4747.54918 5920.8782,4747.82376 C5920.57932,4747.93851 5920.28081,4748.0522 5919.98231,4748.16589 C5919.40674,4748.284 5918.45283,4748.23881 5918.32039,4748.54734 C5917.68059,4750.03368 5916.3231,4750.75337 5915.27905,4751.80245 C5915.09168,4751.99094 5915.08059,4752.35505 5914.98737,4752.63821 C5914.73156,4752.69901 5914.47366,4752.75371 5914.21512,4752.8016 L5909.20422,4751.34856 L5909.2117,4751.35114 C5908.02692,4750.90331 5908.02692,4750.90331 5908.37113,4749.63337 C5908.20529,4749.37879 5908.04088,4749.1235 5907.87612,4748.86749 C5908.04071,4748.45158 5908.20636,4748.03605 5908.37095,4747.62014 C5908.20527,4746.65966 5907.37226,4745.7713 5908.05747,4744.71939 L5908.06151,4744.70762 C5907.93602,4744.45737 5907.83994,4744.19632 5907.77399,4743.92411 C5908.0051,4743.75788 5908.23481,4743.58877 5908.46311,4743.41857 C5909.02142,4743.20119 5909.57867,4742.98343 5910.13698,4742.76605 C5910.46413,4741.88628 5910.79164,4741.00544 5911.11916,4740.1246 C5911.18842,4739.69738 5911.25768,4739.27015 5911.32623,4738.84328 C5911.62174,4738.74352 5911.91725,4738.64375 5912.21241,4738.54327 C5912.27374,4737.72384 5912.79609,4737.27569 5913.49006,4736.96627 C5913.75888,4736.70953 5914.02735,4736.45207 5914.29689,4736.19499 L5914.30203,4736.47196 C5914.72369,4735.93945 5915.14463,4735.40729 5915.56701,4734.87444 L5915.5674,4734.87158 C5915.19744,4734.18349 5914.96692,4733.49142 5915.52041,4732.78419 C5915.50489,4731.8928 5916.02933,4731.41247 5916.79856,4731.1206 C5917.54194,4730.83957 5918.18292,4730.46701 5918.20098,4729.54054 C5918.38557,4729.34451 5918.55844,4729.13906 5918.71999,4728.92313 C5918.55348,4728.70002 5918.43544,4728.45413 5918.36447,4728.18438 L5918.7171,4728.05584 L5919.04772,4727.87485 C5918.9853,4727.57155 5918.92323,4727.26897 5918.86116,4726.96639 C5919.54727,4726.91091 5920.26855,4726.69585 5920.91162,4726.83672 C5921.92278,4727.0578 5922.8634,4727.14687 5923.80431,4726.6617 C5923.361,4725.5822 5922.91912,4724.50199 5922.47581,4723.42249 C5923.13279,4723.05903 5923.78371,4722.40392 5924.44869,4722.38902 C5926.32565,4722.34672 5926.91709,4721.01661 5927.60592,4719.70571 C5927.27832,4718.81804 5927.33012,4718.05935 5928.27171,4717.54092 C5928.6293,4717.34409 5928.94196,4717.06417 5929.27324,4716.817 L5928.16988,4714.34458 C5928.40837,4714.19166 5928.62957,4714.01603 5928.83312,4713.81696 C5928.68464,4713.65092 5928.60076,4713.45689 5928.57865,4713.23449 C5926.78195,4712.27722 5926.77557,4712.27144 5927.2688,4710.60655 C5927.2894,4709.71266 5927.99946,4709.40339 5928.6163,4709.01413 C5928.80556,4708.56126 5929.02546,4708.11836 5929.17445,4707.65221 C5929.29284,4707.282 5929.32357,4706.88338 5929.39243,4706.4973 C5929.39341,4705.1288 5930.59506,4704.95247 5931.44417,4704.4249 C5931.72028,4703.6101 5931.99603,4702.79458 5932.27214,4701.97978 C5932.32029,4701.30119 5932.36881,4700.62153 5932.4166,4699.94222 C5932.13439,4699.41779 5931.85255,4698.89229 5931.56998,4698.36714" id="Paint-16"></path>
        </g>
    </g>
</svg>