<?xml version="1.0" encoding="UTF-8"?>
<svg width="310px" height="244px" viewBox="0 0 310 244" version="1.1" xmlns="http://www.w3.org/2000/svg" xmlns:xlink="http://www.w3.org/1999/xlink">
    <title>Shape 36</title>
    <g id="Page-1" stroke="none" stroke-width="1" fill="none" fill-rule="evenodd">
        <g id="Desktop-HD" transform="translate(-937.000000, -5588.000000)" fill="#000000">
            <path d="M1205.45748,5598.79951 C1192.90081,5593.81827 1179.70662,5593.7208 1166.79609,5597.3794 C1153.11604,5601.25611 1140.54814,5608.21287 1126.89266,5612.15619 C1119.50638,5614.2888 1111.70867,5615.45294 1104.04646,5614.27688 C1094.82626,5612.86239 1086.54759,5608.36154 1078.56452,5603.77934 C1065.86813,5596.49228 1053.64848,5590.14774 1038.89278,5588.50393 C1012.37452,5585.55012 984.845901,5595.76224 965.931563,5614.3961 C949.793397,5630.29635 941.455754,5652.17156 940.289538,5674.67862 C932.041064,5705.40476 939.567761,5740.49008 959.91512,5765.38853 C970.047375,5777.78937 983.865043,5788.25746 999.803106,5789.92511 C1023.38582,5792.39364 1051.54985,5776.68554 1068.50809,5793.23939 C1079.34387,5803.81758 1079.64016,5823.94449 1093.46626,5830.13614 C1098.07004,5832.19792 1103.31626,5832.16215 1108.35044,5831.82904 C1126.23899,5830.64667 1144.65061,5825.74889 1157.85252,5813.63488 C1166.69498,5805.52101 1172.49798,5793.60897 1172.94032,5781.82526 C1174.14375,5779.69967 1175.20745,5777.47519 1176.08791,5775.1343 C1176.28591,5774.60693 1176.46003,5774.07185 1176.63977,5773.53747 C1190.79025,5759.60783 1208.55171,5749.04577 1221.47979,5733.83348 C1231.18937,5722.40743 1237.73591,5708.14678 1240.04728,5693.37841 C1244.29509,5683.67121 1246.73355,5673.16314 1246.98139,5662.57373 C1247.62804,5634.9557 1231.37192,5609.08106 1205.45748,5598.79951 M1240.90296,5681 C1240.97186,5673.07934 1239.76331,5665.17965 1237.09312,5657.65457 C1228.17629,5632.52764 1201.95591,5613.65588 1175.25606,5615.9993 C1148.81984,5618.31966 1125.11358,5639.31258 1098.88266,5635.29739 C1083.34026,5632.91833 1070.62343,5622.12937 1056.2945,5615.68619 C1019.1311,5598.97684 971.182153,5615.67431 949.813548,5650.21196 C947.582057,5653.8183 945.658503,5657.5742 944,5661.43423 C946.315858,5648.06144 951.489628,5635.24148 959.799016,5624.29038 C975.993851,5602.948 1002.86104,5589.95052 1029.70361,5590 C1044.35595,5590.0267 1057.55648,5594.42978 1070.21566,5601.5523 C1082.79118,5608.62728 1095.24999,5616.63321 1110.22151,5616.64649 C1136.49461,5616.67025 1158.08468,5596.64251 1184.36552,5596.6488 C1212.88558,5596.65579 1237.66892,5619.80273 1242.82441,5647.02916 C1244.95677,5658.28708 1244.1131,5669.99928 1240.90296,5681" id="Shape-36"></path>
        </g>
    </g>
</svg>