<?xml version="1.0" encoding="UTF-8"?>
<svg width="309px" height="302px" viewBox="0 0 309 302" version="1.1" xmlns="http://www.w3.org/2000/svg" xmlns:xlink="http://www.w3.org/1999/xlink">
    <title>Paint 10</title>
    <g id="Page-1" stroke="none" stroke-width="1" fill="none" fill-rule="evenodd">
        <g id="Desktop-HD" transform="translate(-5246.000000, -5153.000000)" fill="#000000">
            <path d="M5527.80626,5383.41664 C5527.32759,5383.41664 5526.85231,5383.41664 5526.37703,5383.41664 C5526.37703,5381.98577 5526.37703,5380.55151 5526.37703,5379.12065 L5526.394,5378.83515 C5526.394,5378.83175 5526.63504,5378.99149 5526.63504,5378.99149 L5526.37703,5379.12065 C5525.97304,5379.28718 5525.3382,5379.34496 5525.20241,5379.63725 C5524.45894,5381.21766 5524.11266,5383.05977 5523.101,5384.41926 C5522.02483,5385.86372 5520.62615,5387.05667 5520.17803,5388.90558 C5517.33993,5391.05357 5517.01402,5394.75479 5514.93977,5397.3786 C5515.10272,5399.80529 5513.30005,5399.05078 5512.04735,5399.14934 C5510.72336,5399.2547 5510.40424,5399.74412 5511.47702,5400.66857 C5511.97946,5401.10021 5512.09149,5401.31433 5511.70787,5401.69498 C5509.52158,5403.85318 5507.35906,5406.03856 5505.18296,5408.20694 C5504.85366,5408.54002 5504.44288,5409.17558 5504.17469,5409.1246 C5501.58441,5408.63178 5501.34338,5412.21064 5498.97038,5412.0713 C5498.60373,5412.0509 5497.85347,5412.61509 5497.88402,5412.68986 C5498.79045,5415.20492 5495.68076,5416.76494 5496.35634,5419.19503 C5497.87044,5419.45333 5498.91945,5418.7362 5500.12123,5417.87292 C5500.71873,5417.44468 5501.92729,5417.52625 5502.42294,5416.66977 C5503.32258,5415.12335 5505.20333,5415.21852 5506.36437,5414.14792 C5506.09957,5411.7858 5508.33678,5411.12985 5509.45029,5409.73297 C5510.27863,5408.69636 5511.11037,5407.56119 5512.85533,5407.57818 C5513.52072,5407.58498 5514.75305,5406.34784 5514.75984,5405.6681 C5514.77682,5403.94494 5515.84619,5403.04428 5516.91897,5402.27957 C5518.05285,5401.47067 5517.44178,5400.07039 5518.37536,5399.2649 C5519.45153,5398.33364 5520.33759,5397.17808 5521.44431,5396.29441 C5521.96372,5395.87976 5522.35073,5394.1804 5523.37598,5395.53309 C5523.96668,5396.3114 5523.05347,5397.13389 5522.68343,5397.96658 C5521.91619,5399.67954 5520.48017,5400.92687 5519.72312,5402.4563 C5518.8744,5404.16586 5517.8186,5405.52535 5516.55911,5406.84405 C5515.7749,5407.66655 5514.77003,5408.28851 5514.86169,5409.74317 C5514.89224,5410.23258 5514.10124,5411.03468 5513.52072,5411.2556 C5510.08513,5412.54032 5508.02785,5415.44963 5505.59034,5417.88312 C5504.10679,5419.36496 5501.63534,5419.31058 5500.59651,5421.37701 C5499.68669,5423.19872 5497.51398,5423.24291 5496.1832,5424.43586 C5495.13419,5425.37731 5495.11043,5424.12998 5494.65552,5423.89546 C5493.56916,5423.33467 5492.58805,5423.31428 5492.23159,5424.0722 C5491.95321,5424.66697 5492.04148,5425.47247 5491.67823,5425.97548 C5490.34745,5427.804 5487.88278,5428.79643 5487.67909,5431.46103 C5486.16499,5432.97346 5484.80705,5434.70001 5483.09265,5435.93035 C5481.83316,5436.83101 5482.73279,5439.04359 5481.03536,5439.15914 C5479.31078,5439.2781 5478.71668,5440.607 5477.70162,5441.48047 C5476.62545,5442.40832 5475.7326,5443.55709 5474.63267,5444.45436 C5474.16418,5444.83501 5473.20344,5444.63109 5472.76211,5445.02534 C5470.55206,5447 5467.66304,5447.70694 5465.1685,5449.1412 C5463.73281,5449.97049 5462.19936,5451.5509 5460.11899,5450.67742 C5459.16334,5452.11509 5457.13729,5451.73103 5456.10661,5453.04634 C5455.96098,5453.22987 5455.77358,5453.51876 5455.6018,5453.51876 C5453.70068,5453.55275 5451.80024,5453.54255 5449.90048,5453.54255 C5448.84638,5455.2895 5447.13741,5454.98021 5445.50313,5454.97681 C5434.57476,5454.96662 5423.64638,5454.97341 5412.71801,5454.97341 C5410.34331,5454.97341 5407.96657,5454.97341 5405.59221,5454.97341 C5404.60024,5452.41757 5401.47324,5454.54518 5400.15603,5452.49914 C5399.90889,5452.11509 5398.89111,5452.20005 5398.22232,5452.11509 C5396.17828,5451.85678 5393.82259,5452.91039 5392.12924,5451.40475 C5390.39956,5449.86513 5388.42885,5451.36397 5386.80679,5450.43272 C5386.50499,5450.25938 5386.45135,5449.65441 5386.28534,5449.24656 C5383.81049,5449.56604 5382.54455,5448.29152 5381.98881,5446.03137 C5381.81432,5445.32443 5381.43206,5444.79423 5380.56637,5444.95397 C5380.26015,5444.93018 5379.95496,5444.90979 5379.64874,5444.886 C5377.86339,5444.49174 5376.26339,5443.37696 5374.33919,5443.52651 C5374.03297,5443.52651 5373.72574,5443.52311 5373.41918,5443.52311 C5372.55146,5443.34297 5371.51195,5443.98193 5370.81295,5443.04389 C5370.18491,5442.2078 5369.3861,5441.91551 5368.39174,5442.09564 C5367.37295,5442.27577 5366.60775,5441.9291 5365.98513,5441.10321 C5364.95649,5439.73353 5363.7004,5438.96202 5361.84307,5439.19653 C5359.73487,5439.46503 5357.70746,5439.28829 5356.32813,5437.21507 C5356.0209,5436.75624 5355.20851,5436.46055 5354.59845,5436.39598 C5351.41714,5436.0833 5349.07367,5433.89452 5346.2685,5432.75254 C5346.18635,5432.71856 5346.25764,5432.31071 5346.25764,5432.0728 C5346.19551,5431.75672 5346.13101,5431.44403 5346.06685,5431.12795 C5343.58114,5429.03774 5340.77936,5427.56949 5337.60042,5426.86255 C5337.02567,5426.63824 5336.46416,5426.37313 5335.9271,5426.06725 C5335.20162,5425.51666 5334.55897,5424.8675 5333.89766,5424.23873 C5333.73029,5423.99063 5333.56156,5423.73572 5333.39284,5423.48762 C5333.5507,5422.70931 5333.07101,5422.24368 5332.46095,5422.09074 C5331.85395,5421.9344 5331.17804,5422.05675 5330.53336,5422.05675 L5329.96234,5422.08054 L5329.39065,5422.11793 L5328.81692,5422.11113 L5328.24658,5422.07375 L5327.67387,5422.05675 C5326.16044,5422.31506 5325.1576,5421.32263 5323.91916,5420.77883 C5322.74081,5420.26223 5321.8208,5420.22144 5321.90975,5418.66482 C5321.92638,5418.37933 5321.36487,5417.86952 5321.00774,5417.80155 C5320.09995,5417.63161 5319.15245,5417.68259 5318.22939,5417.58403 C5318.04505,5417.56364 5317.83083,5417.29854 5317.73102,5417.09801 C5316.7068,5415.01799 5314.21701,5415.07917 5312.7321,5413.60072 C5310.28984,5411.16723 5308.24954,5408.21714 5304.78746,5406.98 C5304.38246,5406.83386 5304.13531,5406.29686 5303.76222,5406.00117 C5302.91452,5405.33162 5303.98866,5403.35356 5302.09365,5403.47252 C5300.91937,5403.54729 5300.59312,5402.28636 5299.80552,5402.11983 C5298.86786,5401.9261 5298.07448,5401.81734 5297.36428,5401.05263 C5295.74867,5399.30908 5293.90458,5397.76946 5292.37554,5395.95454 C5290.9884,5394.30955 5288.98238,5393.68419 5287.41328,5392.41306 C5285.76033,5391.07057 5284.44211,5389.32022 5282.81767,5387.93354 C5281.27946,5386.62163 5279.52975,5385.56123 5277.8863,5384.37168 C5275.96482,5382.9816 5274.96401,5380.91517 5273.82334,5378.92012 C5272.78656,5377.1052 5273.70554,5375.21551 5273.35248,5373.39719 C5274.99491,5373.51275 5275.40093,5375.2495 5276.60169,5375.89186 C5277.57126,5376.40846 5277.58247,5375.53159 5277.63814,5374.89603 C5277.65919,5374.65812 5277.58247,5374.39642 5277.65919,5374.18909 C5277.73354,5373.98517 5277.98849,5373.66229 5278.08966,5373.68608 C5278.43457,5373.77445 5279.04734,5374.08373 5279.02799,5374.14831 C5278.20814,5376.86389 5281.35517,5378.6992 5280.63274,5381.3808 C5280.60287,5381.49636 5280.96238,5381.87361 5281.1087,5381.85662 C5282.99081,5381.6357 5283.31026,5382.81166 5283.59984,5384.3037 C5283.76415,5385.14999 5284.85458,5384.97665 5285.44868,5384.79652 C5286.16432,5384.579 5286.47257,5383.69873 5286.18163,5383.05977 C5285.54272,5381.6527 5284.70487,5380.33739 5283.94272,5378.99149 C5283.17243,5377.6286 5282.9796,5375.85787 5281.41492,5375.05577 C5280.14762,5374.40321 5280.62391,5373.01653 5279.97686,5372.05469 C5278.66101,5370.09363 5278.7985,5369.83533 5279.73514,5367.72472 C5280.76921,5365.38979 5280.93896,5365.27763 5279.69508,5363.39474 C5278.96281,5362.28676 5279.34677,5359.84647 5276.82338,5360.41066 C5275.95361,5359.37745 5276.251,5357.66449 5274.80853,5356.96435 C5274.91513,5355.02708 5273.68993,5354.01765 5272.13882,5353.38209 C5268.95309,5352.06679 5267.31982,5349.02493 5264.8443,5346.92451 C5264.60462,5346.72059 5264.73125,5346.01026 5264.78896,5345.54803 C5264.91321,5344.53521 5264.63551,5343.7569 5263.8255,5343.07716 C5262.92043,5342.31244 5262.02351,5341.48995 5261.32112,5340.5451 C5260.67236,5339.67503 5260.20081,5338.64182 5259.79886,5337.6188 C5259.11989,5335.89225 5258.30988,5334.26086 5256.75096,5333.18346 C5254.98462,5331.96672 5254.52055,5330.33873 5254.74155,5328.2825 C5254.96222,5326.20588 5252.47684,5324.76142 5253.24238,5322.49447 C5251.77784,5321.6176 5251.86204,5320.20033 5251.89972,5318.76267 C5251.94385,5317.10069 5251.7534,5315.41153 5251.95336,5313.77334 C5252.17063,5311.99241 5249.8825,5311.32966 5250.39953,5309.3448 C5250.80556,5307.78478 5250.48169,5306.03444 5250.48169,5304.36567 C5248.02721,5301.79963 5249.56304,5298.56404 5248.9703,5295.69891 C5248.73504,5294.56714 5247.06409,5293.69027 5248.97505,5292.50071 C5249.25241,5292.33078 5249.35562,5291.10044 5248.57106,5290.6586 C5248.20035,5290.45128 5247.67414,5290.53965 5247.26371,5290.37991 C5246.36034,5290.02304 5245.68714,5288.70094 5246.27173,5288.24891 C5248.41999,5286.59373 5247.44703,5284.41514 5247.50474,5282.4031 C5245.43728,5281.09799 5246.26188,5279.01797 5246.22081,5277.23363 C5246.12983,5273.19255 5246.05446,5269.14127 5246.24729,5265.10698 C5246.35389,5262.87742 5245.11137,5260.33857 5247.3625,5258.44888 C5247.17748,5256.32127 5248.39453,5254.58792 5249.11662,5252.75261 C5249.57526,5251.58685 5251.03199,5250.66919 5249.07011,5249.62238 C5250.69488,5248.80669 5250.13779,5246.6383 5251.54462,5245.66287 C5253.01798,5244.63985 5253.48444,5243.22598 5253.38429,5241.41446 C5253.26818,5239.31405 5253.44981,5237.18984 5253.60393,5235.08603 C5253.61717,5234.88551 5254.36404,5234.74616 5254.76905,5234.57622 C5254.76905,5235.03165 5254.71914,5235.49388 5254.78025,5235.93911 C5254.9466,5237.17965 5255.43274,5237.5807 5256.41997,5237.44475 C5257.18143,5237.34279 5257.74056,5236.95533 5257.60545,5236.18722 C5257.17906,5233.76053 5259.35617,5232.35346 5259.83315,5230.29043 C5259.84435,5230.23945 5260.26056,5230.28363 5260.48802,5230.28363 C5260.27482,5231.83685 5261.12931,5233.62458 5259.48688,5234.87531 C5259.33411,5234.99087 5259.25433,5235.20499 5259.1389,5235.37492 C5261.63107,5236.93834 5259.567,5238.31142 5259.22853,5239.9734 C5258.89889,5241.5844 5257.99144,5242.9065 5257.74735,5244.36795 C5257.5053,5245.80561 5255.6955,5246.39359 5256.18301,5248.04538 C5256.57986,5249.39127 5255.5682,5250.14239 5254.84,5251.07364 C5254.54397,5251.4509 5254.5253,5252.40934 5255.2518,5252.97353 C5256.30149,5253.79262 5256.85315,5254.9244 5255.59468,5255.86924 C5253.86907,5257.16076 5255.66122,5259.52627 5253.68371,5260.89596 C5252.55866,5261.67427 5254.04561,5264.20292 5252.09492,5265.16136 C5251.84981,5268.19302 5251.68686,5271.22129 5252.22155,5274.24615 C5254.16103,5275.70761 5253.42435,5276.98213 5251.9374,5278.19887 C5254.65804,5280.45903 5253.00576,5283.50768 5253.27565,5286.17908 C5253.56184,5289.00682 5253.32114,5291.88894 5253.34898,5294.74727 C5253.36086,5296.14075 5255.17304,5296.74912 5254.83253,5298.45188 C5254.56264,5299.80457 5254.8512,5301.26603 5254.89126,5302.6799 C5256.95737,5303.98841 5256.39043,5306.1398 5256.09406,5307.83237 C5255.7488,5309.79683 5257.78945,5310.53095 5257.66724,5312.2643 C5257.55656,5313.84131 5257.12134,5315.63244 5258.91926,5316.72683 C5258.30105,5318.96319 5260.57119,5320.45863 5260.45034,5322.50467 C5260.33253,5324.52691 5260.57221,5326.26026 5262.4387,5327.41922 C5262.6373,5327.54158 5262.82028,5327.72511 5262.9425,5327.92224 C5263.88321,5329.43467 5262.54496,5331.85796 5264.95734,5332.813 C5266.69313,5333.50294 5265.8064,5335.91604 5267.44509,5336.8269 C5267.77813,5337.01383 5267.64132,5338.14221 5267.62264,5338.83555 C5267.59175,5340.00131 5268.08876,5340.50432 5269.26507,5340.51452 C5269.65311,5340.51791 5270.3976,5341.03792 5270.37248,5341.10929 C5269.7064,5343.01938 5272.71357,5343.60056 5271.93682,5345.50385 C5272.88569,5346.53706 5273.8763,5347.53968 5274.75523,5348.63067 C5274.99932,5348.93656 5274.86081,5349.52454 5274.98269,5349.95958 C5275.03904,5350.1601 5275.28109,5350.39801 5275.47426,5350.4354 C5275.60972,5350.46259 5275.95124,5350.1737 5275.95124,5350.02415 C5275.94479,5347.09785 5277.36282,5344.0322 5274.98846,5341.32001 C5274.62181,5340.90197 5274.83297,5339.97412 5274.78409,5339.28418 C5274.6819,5337.83972 5274.66866,5336.42925 5276.12879,5335.55577 C5274.97522,5334.59394 5274.52438,5333.37719 5274.78273,5331.89535 C5275.69187,5331.66423 5276.03,5332.44254 5276.49272,5332.92176 C5276.90553,5333.35 5277.38285,5333.37719 5277.47587,5332.72803 C5277.67107,5331.39234 5278.1528,5329.94448 5276.75921,5328.85009 C5275.42096,5327.79648 5274.57123,5326.61713 5274.7128,5324.66286 C5274.87609,5322.4231 5275.42436,5319.94203 5273.35248,5318.10332 C5273.35248,5315.95872 5273.35248,5313.81073 5273.35248,5311.66273 C5270.83587,5308.31499 5272.25967,5304.44044 5271.97009,5300.8038 C5271.88251,5299.71961 5270.8817,5299.15542 5270.80158,5298.44508 C5270.67835,5297.3473 5272.98312,5296.42284 5271.48734,5295.04636 C5270.43426,5294.07432 5270.48451,5293.02752 5270.48994,5291.85495 C5270.50318,5288.75192 5270.50182,5285.65228 5270.47432,5282.55264 C5270.47228,5282.37931 5270.11481,5282.03603 5270.02179,5282.06662 C5269.67992,5282.17878 5269.08515,5282.47447 5269.10959,5282.60362 C5269.37371,5284.05828 5268.28192,5284.70743 5267.48413,5285.53332 C5267.31846,5285.70326 5267.1477,5285.8698 5266.97932,5286.03973 C5266.72063,5285.71006 5266.25893,5285.38378 5266.24467,5285.04391 C5266.20903,5284.12625 5266.01586,5282.75996 5266.51083,5282.36911 C5267.74452,5281.40047 5267.27773,5279.68752 5268.46151,5278.82424 C5269.8439,5277.81822 5268.24865,5275.86735 5269.50916,5275.00067 C5270.8284,5274.09661 5270.03842,5272.18993 5271.49719,5271.49998 C5271.87673,5269.52872 5272.32961,5267.58465 5273.35248,5265.82751 C5272.48951,5263.13912 5275.18366,5261.19845 5274.85504,5258.54064 C5274.70193,5257.3137 5276.36405,5257.81331 5276.90112,5257.35109 C5277.67684,5256.68494 5277.88868,5255.40362 5278.51469,5254.50295 C5279.04938,5253.73144 5279.99689,5253.22503 5280.43754,5252.41954 C5280.7003,5251.94371 5280.83372,5250.87312 5279.97244,5250.56723 C5279.41229,5250.36671 5278.6566,5250.46867 5278.07404,5250.67599 C5277.81977,5250.77115 5277.80313,5251.47129 5277.63475,5251.87914 C5277.46704,5252.28699 5277.24298,5252.67104 5277.04302,5253.06529 C5276.76566,5252.7798 5276.30396,5252.52829 5276.24625,5252.20542 C5276.08669,5251.29456 5276.11793,5250.34971 5276.01133,5249.42526 C5275.98926,5249.23833 5275.71394,5248.98682 5275.52077,5248.94944 C5275.3843,5248.92565 5275.07231,5249.19414 5275.0404,5249.36748 C5274.83501,5250.48226 5274.82517,5251.65822 5274.46226,5252.71522 C5274.25381,5253.3236 5273.49574,5253.73484 5273.00315,5254.25485 C5272.64906,5254.62531 5272.15206,5254.57433 5272.03018,5253.95236 C5271.85025,5253.0415 5271.54642,5251.7228 5272.0054,5251.19939 C5273.01333,5250.04383 5273.60675,5248.93584 5273.3484,5247.42681 C5273.11993,5246.08091 5275.05262,5245.86339 5274.816,5244.43593 C5274.61434,5243.21918 5276.60577,5242.85892 5276.20891,5241.45864 C5275.75366,5239.85105 5277.29526,5238.99797 5277.5733,5237.74044 C5277.8751,5236.37755 5277.64221,5234.89231 5277.64221,5233.46144 C5277.64221,5232.03058 5277.56447,5230.59292 5277.67752,5229.17225 C5277.72776,5228.54688 5278.11953,5227.93171 5278.43593,5227.35393 C5280.56722,5223.47938 5282.18623,5219.34653 5284.4197,5215.50937 C5285.0912,5214.3572 5285.48059,5213.08608 5286.4814,5212.06646 C5287.57114,5210.95168 5288.7315,5210.01703 5289.25974,5208.20551 C5289.72823,5206.59791 5291.74647,5205.43894 5293.08574,5204.09305 C5294.2607,5202.9035 5295.44245,5201.72754 5296.6208,5200.54818 C5297.80153,5199.36542 5298.8923,5198.0773 5300.18065,5197.0305 C5302.33434,5195.28015 5303.73438,5192.82627 5306.45196,5191.50417 C5308.67321,5190.42337 5310.27015,5188.09185 5312.23068,5186.41288 C5312.68661,5186.02202 5313.68334,5186.23614 5314.09717,5185.83169 C5314.96693,5184.98541 5315.94805,5184.65913 5317.04628,5184.25469 C5318.06032,5183.88422 5318.63643,5182.40578 5319.64708,5181.89937 C5320.64143,5181.40655 5321.82759,5181.34538 5322.56326,5180.31556 C5323.44864,5179.07163 5324.59372,5178.48365 5326.20933,5178.73176 C5327.64298,5178.95267 5328.28426,5177.23971 5329.86321,5177.11056 C5330.97638,5177.0188 5331.85497,5174.81642 5333.02891,5174.6023 C5334.97858,5174.24544 5335.46336,5172.11783 5336.89158,5171.83574 C5338.4729,5171.52646 5339.47472,5170.73115 5340.27489,5169.65376 C5341.19557,5168.40982 5342.90454,5168.9944 5343.85408,5167.72328 C5344.23465,5167.21687 5345.58104,5167.31883 5346.48272,5167.33923 C5347.71573,5167.37321 5348.82517,5167.27805 5349.57305,5166.14287 C5351.52577,5166.41477 5352.44035,5163.89632 5354.60389,5164.38913 C5356.17401,5164.7494 5357.09503,5162.40428 5359.01448,5162.97526 C5360.44032,5163.3967 5360.99096,5161.08897 5362.71182,5161.5342 C5363.82906,5161.81969 5365.08074,5161.58858 5366.27132,5161.58858 C5366.43767,5161.18413 5366.56973,5160.44661 5366.77613,5160.42622 C5368.39412,5160.25968 5370.02942,5160.28007 5371.65148,5160.14412 C5373.42733,5159.99118 5375.3624,5160.81027 5376.89348,5158.96816 C5377.29984,5158.47875 5378.6846,5158.62489 5379.57881,5158.76084 C5381.53628,5159.04973 5383.01949,5158.0675 5384.71182,5157.39455 C5386.30944,5156.75219 5388.50863,5157.98253 5389.79053,5155.9297 C5391.38034,5155.83794 5393.13106,5156.2118 5394.14341,5154.43426 C5395.32617,5154.43426 5396.5232,5154.54642 5397.69205,5154.41047 C5399.89904,5154.14877 5402.46114,5155.42669 5404.20304,5153 C5406.80723,5153 5409.41142,5153 5412.01561,5153 C5412.18434,5153.40785 5412.33303,5154.16236 5412.52348,5154.17256 C5415.11036,5154.31871 5417.70912,5154.49884 5420.29227,5154.38328 C5422.11191,5154.30511 5423.44541,5154.83531 5424.56367,5156.22879 C5424.97445,5156.7386 5425.37844,5157.28239 5426.25057,5157.33677 C5427.61666,5157.42174 5429.26453,5156.60605 5430.29826,5157.8024 C5431.49664,5159.18228 5432.92486,5158.77783 5434.23052,5158.66908 C5436.1924,5158.51273 5437.1691,5160.88165 5439.38492,5160.24948 C5440.89937,5159.81445 5442.65824,5160.24269 5444.30814,5160.28687 C5445.76182,5162.63539 5448.4227,5160.76269 5450.06276,5161.87407 C5451.7646,5163.02624 5453.6742,5163.58023 5455.39743,5164.53528 C5456.62467,5165.21502 5457.61325,5165.93555 5459.13788,5165.96954 C5460.14106,5165.98993 5461.12964,5166.82942 5462.11958,5167.31543 C5463.50434,5167.99858 5465.12878,5168.43362 5466.19985,5169.45323 C5467.46274,5170.65298 5469.2722,5169.45323 5470.04962,5170.45926 C5471.15634,5171.89012 5473.06085,5171.4007 5474.19473,5172.84176 C5474.88389,5173.72203 5476.94457,5172.42372 5477.96981,5173.92596 C5478.65218,5174.92858 5480.07123,5174.3508 5480.98784,5175.37721 C5481.79242,5176.27448 5483.3201,5176.83187 5484.45738,5177.16494 C5485.65237,5177.51161 5486.3551,5178.74535 5487.38714,5178.69097 C5489.7228,5178.57202 5489.90612,5181.49492 5491.92266,5181.61727 C5493.84754,5181.73283 5494.30585,5184.25469 5495.74866,5184.34645 C5497.52417,5184.46201 5498.27104,5186.54543 5500.08389,5186.073 C5501.2653,5187.25236 5502.26678,5188.7512 5503.66885,5189.52951 C5505.28141,5190.42337 5507.0026,5191.11331 5508.055,5192.66653 C5509.0497,5194.13138 5510.78447,5194.23334 5512.03377,5195.18159 C5514.66818,5197.17664 5515.45579,5200.57877 5517.79823,5202.80153 C5517.53683,5205.21463 5521.24062,5205.45934 5520.68386,5208.05596 C5520.65331,5208.19191 5520.94526,5208.44682 5521.13538,5208.56237 C5521.87885,5209.0144 5523.46425,5208.58277 5523.43709,5209.60238 C5523.34543,5213.26961 5525.8712,5215.78467 5527.13748,5218.83332 C5528.31889,5221.68146 5529.97218,5224.31547 5531.22488,5227.15001 C5531.59153,5227.9827 5532.21618,5228.64885 5532.10754,5229.65487 C5532.05662,5230.1137 5531.95817,5230.87841 5532.18223,5231.01776 C5535.01693,5232.75111 5534.99317,5235.60264 5535.18668,5238.3862 C5536.85355,5239.1781 5535.95731,5241.60819 5537.70905,5242.34571 C5537.77355,5244.39854 5540.16014,5245.8362 5539.24353,5248.14734 C5541.25328,5249.42866 5540.63881,5251.4577 5540.65578,5253.27941 C5540.66936,5254.46897 5540.54715,5255.64153 5541.74214,5256.41644 C5542.15631,5256.68494 5541.98996,5257.0452 5541.44679,5257.42586 C5540.24501,5258.26874 5540.5777,5259.58745 5540.73047,5260.66824 C5540.88324,5261.74224 5542.87941,5262.70748 5540.76781,5263.81886 C5542.77417,5265.39587 5541.93904,5267.62544 5542.10199,5269.62729 C5539.54567,5271.64273 5540.907,5274.44668 5540.71689,5276.90736 C5540.55733,5278.9398 5540.56412,5280.88387 5541.97299,5282.84153 C5542.89978,5284.12625 5541.27704,5286.57333 5543.24606,5288.01779 C5543.51425,5288.21152 5543.48709,5288.86408 5543.52104,5289.30931 C5543.64326,5290.89312 5543.16798,5292.48712 5544.71942,5293.867 C5545.64961,5294.69629 5544.28488,5296.68115 5545.7922,5297.67357 C5545.9857,5297.80273 5546.27427,5297.99985 5546.27766,5298.17319 C5546.33877,5301.02132 5546.35914,5303.87285 5546.38969,5306.72098 C5544.03027,5308.49512 5545.26939,5311.05436 5544.95367,5313.27713 C5544.7364,5314.83034 5542.85225,5315.84656 5543.53123,5317.69547 C5542.48222,5319.2181 5541.7693,5320.84609 5541.93904,5322.75617 C5539.76633,5323.7622 5541.51808,5326.4268 5539.90892,5327.62655 C5538.37444,5328.77532 5540.07866,5330.85534 5538.44234,5332.07208 C5537.39672,5332.84699 5537.5461,5334.49877 5536.4903,5335.57957 C5535.8928,5336.18794 5536.38506,5337.85671 5536.38506,5339.04967 C5537.82787,5339.10065 5538.15717,5337.6358 5539.11792,5337.02742 C5538.55098,5335.18531 5541.2363,5334.52596 5540.68973,5332.66346 C5540.56073,5332.22502 5540.49283,5331.60645 5540.70331,5331.25639 C5541.62332,5329.72696 5543.98274,5329.0914 5543.52444,5326.70549 C5543.18495,5324.91436 5545.58851,5324.19043 5545.17094,5322.38231 C5546.26069,5321.63119 5546.66128,5320.547 5546.36593,5319.31666 C5545.94157,5317.50514 5547.23841,5316.33938 5547.80195,5314.89152 C5548.45037,5313.23974 5549.92034,5311.83267 5549.27192,5309.76624 C5548.96978,5308.801 5549.59104,5308.09067 5550.15458,5307.27158 C5551.01688,5306.02424 5551.48876,5304.50501 5552.10663,5303.09114 C5552.67696,5301.78263 5553.43062,5300.68484 5554.96849,5300.40955 C5554.75461,5301.95937 5555.58635,5303.70971 5553.99756,5305.00463 C5553.7056,5305.23914 5553.63091,5305.79653 5553.54604,5306.22137 C5553.19298,5308.02269 5554.45926,5310.23187 5552.92818,5311.61175 C5551.43105,5312.95764 5552.9825,5314.96969 5551.48876,5316.03009 C5549.76078,5317.25703 5551.53629,5319.64974 5549.58085,5321.01942 C5548.47753,5321.79433 5549.94071,5324.30939 5548.00564,5325.26783 C5548.08372,5327.16432 5546.54246,5328.0242 5545.51382,5329.22055 C5545.23884,5329.54003 5544.96046,5330.02265 5544.99101,5330.4067 C5545.11662,5331.90214 5544.65832,5332.99993 5543.60931,5334.1555 C5542.95071,5334.87603 5544.15248,5336.5618 5542.98805,5337.39449 C5541.74553,5338.28495 5542.46185,5340.17804 5541.00545,5340.86458 C5541.20915,5344.61678 5537.57326,5347.15223 5537.81429,5350.92142 C5536.57857,5352.76013 5535.3666,5354.61243 5534.95243,5356.84879 C5532.97323,5358.12671 5533.60128,5360.13536 5533.5232,5361.94688 L5533.5232,5362.46349 L5533.53338,5362.9767 L5533.63183,5363.48311 L5533.86608,5363.94533 C5533.86608,5363.94873 5534.15124,5364.38037 5534.15124,5364.38037 L5534.43302,5364.82221 C5534.43302,5364.8256 5534.95243,5364.81201 5534.95243,5364.81201 C5536.60912,5364.34298 5537.71924,5363.40833 5537.82108,5361.55943 C5537.85503,5360.89328 5537.72942,5359.86686 5538.08588,5359.63575 C5539.38271,5358.79286 5538.87349,5357.06291 5539.99039,5356.24042 C5540.13977,5356.12826 5540.43851,5356.22343 5540.67276,5356.22343 C5540.67276,5357.40279 5541.13785,5358.94581 5540.56412,5359.67313 C5539.63054,5360.86609 5539.2571,5361.93329 5539.16205,5363.40154 C5539.09755,5364.40756 5538.09267,5365.32182 5537.86182,5366.35843 C5537.57326,5367.67034 5536.55141,5368.2923 5535.71288,5368.98225 C5533.92379,5370.45729 5533.23463,5372.19744 5533.49604,5374.46439 C5533.59788,5375.35826 5533.45869,5376.3031 5533.25161,5377.18337 C5533.1939,5377.43148 5532.49795,5377.52664 5532.09396,5377.68978 C5532.09396,5377.68978 5531.49986,5377.98207 5531.49986,5377.98887 C5531.20791,5378.34913 5530.97366,5378.73319 5530.79373,5379.16823 C5530.6851,5379.64745 5530.54252,5380.10628 5530.36938,5380.5651 C5529.80923,5381.43858 5529.18457,5382.25087 5528.48523,5383.00879 C5528.26117,5383.14474 5528.03372,5383.28069 5527.80626,5383.41664" id="Paint-10"></path>
        </g>
    </g>
</svg>