<?xml version="1.0" encoding="UTF-8"?>
<svg width="426px" height="394px" viewBox="0 0 426 394" version="1.1" xmlns="http://www.w3.org/2000/svg" xmlns:xlink="http://www.w3.org/1999/xlink">
    <title>Shape 13</title>
    <g id="Page-1" stroke="none" stroke-width="1" fill="none" fill-rule="evenodd">
        <g id="Desktop-HD" transform="translate(-2216.000000, -1592.000000)" fill="#000000">
            <path d="M2278,1862 C2312.24165,1862 2340,1889.75835 2340,1924 C2340,1958.24165 2312.24165,1986 2278,1986 C2243.75835,1986 2216,1958.24165 2216,1924 C2216,1889.75835 2243.75835,1862 2278,1862 Z M2572,1906 C2576.97056,1906 2581,1910.02944 2581,1915 C2581,1919.97056 2576.97056,1924 2572,1924 C2567.02944,1924 2563,1919.97056 2563,1915 C2563,1910.02944 2567.02944,1906 2572,1906 Z M2434,1665 C2502.48331,1665 2558,1720.51669 2558,1789 C2558,1857.48331 2502.48331,1913 2434,1913 C2365.51669,1913 2310,1857.48331 2310,1789 C2310,1720.51669 2365.51669,1665 2434,1665 Z M2623,1817 C2633.49341,1817 2642,1825.50659 2642,1836 C2642,1846.49341 2633.49341,1855 2623,1855 C2612.50659,1855 2604,1846.49341 2604,1836 C2604,1825.50659 2612.50659,1817 2623,1817 Z M2240.5,1809 C2246.85127,1809 2252,1814.14873 2252,1820.5 C2252,1826.85127 2246.85127,1832 2240.5,1832 C2234.14873,1832 2229,1826.85127 2229,1820.5 C2229,1814.14873 2234.14873,1809 2240.5,1809 Z M2567,1600 C2592.4051,1600 2613,1620.5949 2613,1646 C2613,1671.4051 2592.4051,1692 2567,1692 C2541.5949,1692 2521,1671.4051 2521,1646 C2521,1620.5949 2541.5949,1600 2567,1600 Z M2278,1592 C2292.91169,1592 2305,1604.08831 2305,1619 C2305,1633.91169 2292.91169,1646 2278,1646 C2263.08831,1646 2251,1633.91169 2251,1619 C2251,1604.08831 2263.08831,1592 2278,1592 Z" id="Shape-13"></path>
        </g>
    </g>
</svg>