<?xml version="1.0" encoding="UTF-8"?>
<svg width="261px" height="310px" viewBox="0 0 261 310" version="1.1" xmlns="http://www.w3.org/2000/svg" xmlns:xlink="http://www.w3.org/1999/xlink">
    <title>Shape 35</title>
    <g id="Page-1" stroke="none" stroke-width="1" fill="none" fill-rule="evenodd">
        <g id="Desktop-HD" transform="translate(-1019.000000, -5194.000000)" fill="#000000">
            <path d="M1278.93939,5372.14583 C1278.48702,5364.15932 1277.82119,5356.23961 1276.70936,5348.31354 C1275.78231,5341.70105 1274.68959,5335.1172 1273.64147,5328.53016 C1271.58985,5315.70595 1269.53184,5302.904 1266.28555,5290.32788 C1264.71179,5284.20203 1263.19855,5278.07936 1261.50373,5271.99168 C1260.41738,5268.11134 1258.87229,5264.33277 1257.13605,5260.69734 C1255.89679,5258.10833 1254.08728,5255.78966 1252.2045,5253.63639 C1250.37587,5251.55627 1248.28601,5249.96915 1246.06554,5248.28343 C1241.93042,5245.14099 1237.01479,5243.31214 1231.98448,5241.91585 C1231.31228,5240.33509 1230.60504,5238.76069 1229.84365,5237.20219 C1227.15805,5231.69974 1223.21089,5226.59169 1218.73809,5222.82903 C1214.10281,5218.94869 1209.92946,5216.14339 1206.0046,5214.28273 C1199.34318,5211.14029 1192.54158,5208.82799 1185.59025,5206.54114 L1182.5383,5205.52652 C1178.56247,5204.20021 1174.45602,5202.83573 1170.35914,5201.70025 C1156.071,5197.72131 1143.48725,5195.33267 1131.89108,5194.38485 C1128.734,5194.1304 1125.42081,5194 1122.03753,5194 C1119.66414,5194 1117.14739,5194.06361 1114.35985,5194.18448 C1109.53661,5194.41984 1104.65921,5195.15456 1099.95065,5195.86702 C1098.03601,5196.15009 1096.12456,5196.44271 1094.22266,5196.69716 C1088.3736,5197.48595 1082.59782,5198.5101 1078.2174,5199.30843 C1076.43019,5199.63922 1074.63979,5199.92229 1072.83984,5200.20537 C1069.1571,5200.77787 1065.35967,5201.37901 1061.70561,5202.36818 C1059.38956,5203.00748 1056.97794,5203.76765 1054.53765,5204.65185 C1052.02408,5205.55515 1049.27158,5206.74788 1046.11768,5208.30319 C1043.85579,5209.41959 1040.95675,5211.90046 1039.4021,5213.23631 L1038.74265,5213.812 L1038.07364,5214.37815 C1036.1144,5216.06069 1034.02135,5218.55111 1031.68619,5222.01479 C1030.80055,5223.3093 1030.00092,5224.74693 1029.22678,5226.43266 L1027.61797,5227.87029 C1023.81099,5231.66157 1021.88042,5236.2989 1021.37388,5242.89866 C1020.55514,5253.70318 1019.55482,5267.98093 1019.06421,5282.51949 C1018.93359,5286.82603 1019.02598,5291.22799 1019.13111,5295.48683 C1019.16934,5297.1312 1019.20757,5298.76921 1019.23624,5300.39768 C1019.34774,5307.40138 1019.42101,5314.40826 1019.49747,5321.4056 C1019.6026,5330.49895 1019.4688,5339.7418 1019.34774,5348.67613 C1019.14067,5364.16569 1018.92404,5380.18322 1019.87339,5395.90497 C1020.32577,5403.214 1021.26875,5410.76477 1022.7565,5418.993 C1023.83966,5424.9471 1026.13978,5431.03796 1029.23634,5436.14601 C1034.2125,5444.3647 1042.82042,5451.3684 1053.49272,5455.86578 C1056.2484,5457.03306 1059.18248,5458.19081 1062.2663,5459.2245 C1062.54665,5462.57368 1062.9385,5465.92922 1063.59158,5469.20207 C1064.15546,5472.01055 1065.34374,5474.79994 1066.75822,5477.26173 C1068.81941,5480.84627 1071.73756,5483.29534 1074.93288,5485.75713 C1077.44963,5487.68458 1080.24036,5489.17947 1083.15214,5490.43899 C1087.03877,5492.11517 1090.94451,5493.56234 1094.99043,5494.81868 C1101.21859,5496.75885 1107.57736,5498.40959 1114.00304,5499.56415 C1128.29436,5502.12454 1142.78001,5503.55899 1157.30071,5503.80708 C1171.21292,5504.03926 1185.12832,5504.28417 1199.00549,5503.10417 C1202.17851,5502.83063 1205.36427,5502.51893 1208.52454,5502.13726 C1212.74249,5501.63154 1216.8776,5501.02087 1220.98723,5499.949 C1222.97833,5499.42738 1224.95988,5498.84533 1226.93823,5498.28236 C1230.10806,5497.38861 1233.26515,5496.43761 1236.37764,5495.38165 C1239.55384,5494.30342 1242.66952,5493.04708 1245.75652,5491.75894 L1245.77245,5491.75258 L1246.46057,5491.46314 C1247.01489,5491.23414 1247.56603,5490.99877 1248.11717,5490.76023 L1248.47397,5490.60438 C1251.62787,5489.24626 1254.70532,5487.8118 1257.6617,5486.0084 C1261.00994,5483.96645 1264.23074,5481.3838 1266.72838,5478.3495 C1268.95204,5475.6428 1270.96862,5472.9202 1272.39903,5469.71733 C1274.25314,5465.58254 1275.63576,5461.35551 1276.35574,5456.87721 C1277.58545,5449.1706 1278.47427,5441.429 1278.91391,5433.63652 C1279.32806,5426.3084 1279.6084,5418.9771 1279.85052,5411.62989 C1280.29334,5398.46536 1279.68168,5385.29446 1278.93939,5372.14583 M1250.91768,5434.42046 C1250.84712,5440.73874 1250.64182,5447.12124 1249.9265,5453.41384 C1249.53837,5455.75751 1249.03155,5458.04661 1248.27133,5460.28434 C1247.78697,5461.20896 1247.25449,5462.08864 1246.68672,5462.95548 C1246.06122,5463.62327 1245.41006,5464.25574 1244.73644,5464.87216 C1242.38198,5466.46778 1239.87677,5467.79693 1237.30098,5469.00087 C1236.71718,5469.20956 1236.14942,5469.4664 1235.61052,5469.75855 C1231.9794,5471.22255 1228.31299,5472.5838 1224.5664,5473.72675 C1218.87593,5475.46042 1213.08602,5477.26473 1207.21272,5478.25678 C1201.24318,5478.92135 1195.24477,5479.46393 1189.23674,5479.70151 C1182.68661,5479.96477 1176.15252,5480.05145 1169.59597,5479.97119 C1156.06267,5479.81709 1142.51974,5479.65656 1129.07626,5477.97104 C1125.48363,5477.46699 1121.9327,5476.92121 1118.36253,5476.26305 C1115.26388,5475.69158 1112.21015,5474.95637 1109.16925,5474.17622 C1103.75785,5472.77322 1098.40419,5471.13586 1093.2045,5469.11324 C1091.19969,5468.14046 1089.27507,5467.07778 1087.43064,5465.84815 L1086.14114,5464.59605 L1086,5464.35526 C1089.63754,5464.78547 1093.17563,5465.15468 1096.38655,5465.48215 C1101.85568,5466.02473 1107.57502,5466.45173 1113.86532,5466.78241 C1119.58466,5467.07778 1124.63679,5467.22867 1129.31363,5467.22867 C1137.46119,5467.22867 1144.72664,5466.78241 1151.5366,5465.88347 L1154.4492,5465.51426 C1158.08994,5465.05516 1161.84616,5464.58321 1165.47728,5463.74527 C1168.63687,5463.00364 1171.774,5462.11433 1175.06832,5461.02275 C1181.56392,5458.83639 1188.345,5455.95336 1195.22232,5452.43142 C1197.60885,5451.19859 1199.89595,5449.67681 1202.10605,5448.20639 L1202.42041,5447.99771 C1205.79491,5445.74714 1209.68586,5443.00536 1212.97375,5439.75954 C1218.27609,5434.54567 1222.61932,5428.59659 1225.87514,5422.08246 C1229.95213,5413.97592 1232.94813,5405.25296 1234.78935,5396.14795 C1236.49585,5387.70109 1237.45495,5379.22534 1238.16385,5372.05627 C1239.2673,5361.02495 1239.4726,5349.70148 1239.68431,5338.73758 L1239.75167,5335.24455 C1239.95696,5325.04154 1240.08527,5315.39717 1240.13338,5306 C1241.45496,5312.97323 1242.63219,5319.96251 1243.60091,5326.99996 C1244.79418,5335.79676 1246.17349,5344.57108 1247.41808,5353.35825 C1248.97382,5365.98198 1249.59611,5378.69882 1250.28577,5391.39318 C1250.65145,5398.31183 1250.94335,5405.22085 1250.97863,5412.15556 C1251.01712,5419.58468 1251.0075,5426.99775 1250.91768,5434.42046" id="Shape-35"></path>
        </g>
    </g>
</svg>