<?xml version="1.0" encoding="UTF-8"?>
<svg width="426px" height="205px" viewBox="0 0 426 205" version="1.1" xmlns="http://www.w3.org/2000/svg" xmlns:xlink="http://www.w3.org/1999/xlink">
    <title>Shape 5</title>
    <g id="Page-1" stroke="none" stroke-width="1" fill="none" fill-rule="evenodd">
        <g id="Desktop-HD" transform="translate(-519.000000, -1736.000000)" fill="#000000">
            <path d="M614.275,1736 C618.5414,1736 622,1739.44181 622,1743.6875 L622,1933.3125 C622,1937.55819 618.5414,1941 614.275,1941 L526.725,1941 C522.4586,1941 519,1937.55819 519,1933.3125 L519,1743.6875 C519,1739.44181 522.4586,1736 526.725,1736 L614.275,1736 Z M722.275,1736 C726.5414,1736 730,1739.44181 730,1743.6875 L730,1933.3125 C730,1937.55819 726.5414,1941 722.275,1941 L634.725,1941 C630.4586,1941 627,1937.55819 627,1933.3125 L627,1743.6875 C627,1739.44181 630.4586,1736 634.725,1736 L722.275,1736 Z M829.275,1736 C833.5414,1736 837,1739.44181 837,1743.6875 L837,1933.3125 C837,1937.55819 833.5414,1941 829.275,1941 L741.725,1941 C737.4586,1941 734,1937.55819 734,1933.3125 L734,1743.6875 C734,1739.44181 737.4586,1736 741.725,1736 L829.275,1736 Z M937.275,1736 C941.5414,1736 945,1739.44181 945,1743.6875 L945,1933.3125 C945,1937.55819 941.5414,1941 937.275,1941 L849.725,1941 C845.4586,1941 842,1937.55819 842,1933.3125 L842,1743.6875 C842,1739.44181 845.4586,1736 849.725,1736 L937.275,1736 Z" id="Shape-5"></path>
        </g>
    </g>
</svg>