<?xml version="1.0" encoding="UTF-8"?>
<svg width="426px" height="275px" viewBox="0 0 426 275" version="1.1" xmlns="http://www.w3.org/2000/svg" xmlns:xlink="http://www.w3.org/1999/xlink">
    <title>Shape 11</title>
    <g id="Page-1" stroke="none" stroke-width="1" fill="none" fill-rule="evenodd">
        <g id="Desktop-HD" transform="translate(-1068.000000, -2105.000000)" fill="#000000">
            <path d="M1194.725,2105 C1200.39973,2105 1205,2109.61706 1205,2115.3125 L1205,2369.6875 C1205,2375.38294 1200.39973,2380 1194.725,2380 L1078.275,2380 C1072.60027,2380 1068,2375.38294 1068,2369.6875 L1068,2115.3125 C1068,2109.61706 1072.60027,2105 1078.275,2105 L1194.725,2105 Z M1339.725,2105 C1345.39973,2105 1350,2109.61706 1350,2115.3125 L1350,2369.6875 C1350,2375.38294 1345.39973,2380 1339.725,2380 L1223.275,2380 C1217.60027,2380 1213,2375.38294 1213,2369.6875 L1213,2115.3125 C1213,2109.61706 1217.60027,2105 1223.275,2105 L1339.725,2105 Z M1483.725,2105 C1489.39973,2105 1494,2109.61706 1494,2115.3125 L1494,2369.6875 C1494,2375.38294 1489.39973,2380 1483.725,2380 L1367.275,2380 C1361.60027,2380 1357,2375.38294 1357,2369.6875 L1357,2115.3125 C1357,2109.61706 1361.60027,2105 1367.275,2105 L1483.725,2105 Z" id="Shape-11"></path>
        </g>
    </g>
</svg>