<?xml version="1.0" encoding="UTF-8"?>
<svg width="310px" height="272px" viewBox="0 0 310 272" version="1.1" xmlns="http://www.w3.org/2000/svg" xmlns:xlink="http://www.w3.org/1999/xlink">
    <title>Shape 25</title>
    <g id="Page-1" stroke="none" stroke-width="1" fill="none" fill-rule="evenodd">
        <g id="Desktop-HD" transform="translate(-3510.000000, -2858.000000)" fill="#000000">
            <path d="M3727.11573,2861.77271 C3733.4938,2863.67872 3739.94918,2865.64668 3746.11923,2868.62234 C3758.82135,2874.7519 3769.6645,2884.28608 3778.08114,2897.65524 C3782.68985,2904.97527 3786.65005,2912.65228 3789.73412,2920.7749 C3793.80713,2931.50217 3794.33477,2942.30874 3793.67871,2952.9815 C3792.6531,2969.70855 3787.74133,2984.41094 3781.4042,2998.46572 C3777.05389,3008.11489 3771.29406,3016.30123 3765.11802,3024.17273 C3763.31922,3026.46873 3761.58221,3028.83262 3759.88898,3031.23674 C3751.86572,3042.64076 3742.03421,3051.88644 3732.33615,3061.20328 C3691.01982,3096.42167 3646.2909,3108.53604 3637.14697,3111.38977 C3628.35096,3114.13924 3619.18972,3115.52142 3609.83503,3116.08888 C3605.37428,3116.35865 3600.92171,3116.67228 3596.45802,3116.92218 C3589.72152,3117.29825 3582.97507,3116.84653 3576.15419,3113.80174 C3572.51094,3112.17191 3569.3775,3112.51465 3566.41821,3115 C3562.55419,3118.24789 3540.659,3129.65488 3533.66349,3129.99988 C3533.5407,3130.00616 3533.37889,3129.76258 3532.83912,3129.28777 C3535.14545,3126.08932 3538.03716,3123.62263 3540.42137,3120.59872 C3543.00026,3117.32975 3545.69931,3114.19036 3548.16603,3110.80619 C3550.49152,3107.61324 3553.28109,3104.79729 3554.43726,3100.27443 C3543.8109,3083.81372 3536.52186,3058.54254 3535.80575,3047.21149 C3534.97818,3034.04983 3536.87871,3021.74871 3538.06899,3009.21786 C3539.01928,2999.20716 3540.86735,2989.50765 3543.53716,2980.16151 C3552.07514,2950.47782 3575.9873,2926.24277 3581.30983,2921.18061 C3588.98456,2913.87572 3596.58071,2906.40475 3604.78077,2899.87837 C3611.87399,2894.23468 3619.67963,2889.66358 3627.30974,2884.87263 C3643.84333,2874.4904 3661.90712,2867.54435 3680.30438,2861.51547 C3695.17876,2856.6394 3710.93784,2856.93919 3727.11573,2861.77271 Z M3522.98517,2994.99495 C3522.98517,2994.99495 3506.00731,3038.8271 3534.10343,3087.10312 C3534.10343,3087.10312 3488.29018,3043.882 3522.98517,2994.99495 Z M3788.74799,2884.52188 C3850.61545,2940.70406 3801.52959,2990.99479 3801.52959,2990.99479 C3830.01731,2940.58279 3788.74799,2884.52188 3788.74799,2884.52188 Z" id="Shape-25"></path>
        </g>
    </g>
</svg>