<?xml version="1.0" encoding="UTF-8"?>
<svg width="1069px" height="215px" viewBox="0 0 1069 215" version="1.1" xmlns="http://www.w3.org/2000/svg" xmlns:xlink="http://www.w3.org/1999/xlink">
    <!-- Generator: Sketch 52.5 (67469) - http://www.bohemiancoding.com/sketch -->
    <title>Group@2x</title>
    <desc>Created with Sketch.</desc>
    <defs>
        <rect id="path-1" x="0" y="0" width="1069" height="215" rx="2"></rect>
        <linearGradient x1="1.70094242%" y1="24.4746892%" x2="98.5175899%" y2="88.9920713%" id="linearGradient-3">
            <stop stop-color="#5D38F9" offset="0%"></stop>
            <stop stop-color="#973FFF" offset="100%"></stop>
        </linearGradient>
        <linearGradient x1="91.9582057%" y1="34.9119305%" x2="12.533414%" y2="87.2110528%" id="linearGradient-4">
            <stop stop-color="#5D38F9" offset="0%"></stop>
            <stop stop-color="#973FFF" offset="100%"></stop>
        </linearGradient>
        <linearGradient x1="92.5952664%" y1="33.0591616%" x2="9.31591579%" y2="80.319614%" id="linearGradient-5">
            <stop stop-color="#3411FF" offset="0%"></stop>
            <stop stop-color="#835DFF" offset="100%"></stop>
        </linearGradient>
    </defs>
    <g id="Page-1" stroke="none" stroke-width="1" fill="none" fill-rule="evenodd">
        <g id="Setting-main-Page-" transform="translate(-307.000000, -183.000000)">
            <g id="Group-6" transform="translate(307.000000, 183.000000)">
                <g id="Group">
                    <mask id="mask-2" fill="white">
                        <use xlink:href="#path-1"></use>
                    </mask>
                    <use id="Rectangle-Copy-4" fill="#310EA1" fill-rule="nonzero" xlink:href="#path-1"></use>
                    <g id="Group-7" mask="url(#mask-2)" fill-rule="nonzero" opacity="0.477585565">
                        <g transform="translate(-27.000000, -65.000000)">
                            <path d="M0,16 L2.18532298e-13,215.593535 C65.8279098,233.129117 121.683958,241.896907 167.568145,241.896907 C296.714087,241.896907 308.007442,263.065292 397.713606,264.57732 C487.419769,266.089347 480.258957,280 599.351622,280 C718.444287,280 805.808811,225.572917 919.488173,235.854704 C995.274414,242.709228 1059.97627,235.149091 1113.59375,213.174291 L1113.59375,16 L0,16 Z" id="Path" fill="url(#linearGradient-3)"></path>
                            <path d="M1100.59375,58 L1100.59375,222.850902 C1062.7136,239.241757 1003.89968,255.014474 924.151997,255.014474 C831.445313,255.014474 785.839605,263.60207 698.366363,263.60207 C610.909611,263.60207 565.287413,280.019531 450.151693,280.019531 C335.015972,280.019531 330.530165,227.73623 198.19885,234.808367 C109.977973,239.523126 51.9116898,229.420072 24,224.705314 L24,58 L1100.59375,58 Z" id="Path-Copy" fill="url(#linearGradient-4)"></path>
                            <path d="M24,0 L24,212.176198 C53.6804052,250.725399 108.39445,270 188.142136,270 C280.84882,270 367.526758,202 455,202 C542.456751,202 624.758896,280 739.894617,280 C855.030337,280 922.192025,218.321677 987,202 C1021.88961,193.213165 1059.7542,195.808673 1100.59375,209.786524 L1100.59375,0 L24,0 Z" id="Path-Copy-2" fill="url(#linearGradient-3)"></path>
                            <path d="M1113.59375,65 L1113.59375,122.405984 C1078.02358,158.51306 940.238793,213.186073 858.935552,213.186073 C764.420535,213.186073 745.858832,200.845679 655.397456,213.186073 C564.936079,225.526466 520.433318,240.549164 382,233.007813 C243.566682,225.466461 231.072117,186.815999 165,152.007813 C129.429832,133.268697 54.1108941,105.486811 16,127.865813 L16,65 L1113.59375,65 Z" id="Path-Copy-3" fill="url(#linearGradient-5)"></path>
                        </g>
                    </g>
                    <g id="Group-13" opacity="0.468656994" mask="url(#mask-2)" fill="#FFFFFF" fill-rule="nonzero">
                        <g transform="translate(-64.000000, -313.000000)">
                            <circle id="Oval" stroke="none" opacity="0.46468099" cx="1062.5" cy="495.5" r="7.5"></circle>
                            <circle id="Oval-Copy-15" stroke="#FFFFFF" stroke-width="2" fill-opacity="0" opacity="0.366815476" cx="541" cy="429" r="4"></circle>
                            <circle id="Oval-Copy-17" stroke="#FFFFFF" stroke-width="2" fill-opacity="0" opacity="0.366815476" cx="581" cy="374" r="4"></circle>
                            <circle id="Oval-Copy-10" stroke="none" opacity="0.46468099" cx="827.5" cy="485.5" r="5.5"></circle>
                            <circle id="Oval-Copy-11" stroke="none" opacity="0.46468099" cx="716" cy="346" r="5"></circle>
                            <circle id="Oval-Copy-12" stroke="#FFFFFF" stroke-width="2" fill-opacity="0" opacity="0.366815476" cx="186" cy="490" r="4"></circle>
                            <circle id="Oval-Copy-13" stroke="none" opacity="0.46468099" cx="839.5" cy="385.5" r="7.5"></circle>
                            <circle id="Oval-Copy-14" stroke="#FFFFFF" stroke-width="2" fill-opacity="0" opacity="0.366815476" cx="436.5" cy="348.5" r="6.5"></circle>
                            <circle id="Oval-Copy-4" stroke="none" opacity="0.46468099" cx="671" cy="479" r="5"></circle>
                            <circle id="Oval-Copy-16" stroke="#FFFFFF" stroke-width="2" fill-opacity="0" opacity="0.366815476" cx="402" cy="491" r="4"></circle>
                            <circle id="Oval-Copy-9" stroke="none" opacity="0.46468099" cx="205" cy="359" r="3"></circle>
                            <circle id="Oval-Copy-19" stroke="none" opacity="0.46468099" cx="996" cy="460" r="3"></circle>
                            <circle id="Oval-Copy-18" stroke="#FFFFFF" stroke-width="2" fill-opacity="0" opacity="0.366815476" cx="1002" cy="347" r="2"></circle>
                        </g>
                    </g>
                </g>
            </g>
        </g>
    </g>
</svg>