<?xml version="1.0" encoding="UTF-8"?>
<svg width="32px" height="32px" viewBox="0 0 32 32" version="1.1" xmlns="http://www.w3.org/2000/svg" xmlns:xlink="http://www.w3.org/1999/xlink">
    <!-- Generator: Sketch 60.1 (88133) - https://sketch.com -->
    <title>32_32 copy 2@2x</title>
    <desc>Created with Sketch.</desc>
    <g id="Page-3" stroke="none" stroke-width="1" fill="none" fill-rule="evenodd">
        <g id="Avator" transform="translate(-94.000000, -28.000000)">
            <g id="32_32-copy-2" transform="translate(94.000000, 28.000000)">
                <path d="M4,0 L28,0 C30.209139,0 32,1.790861 32,4 L32,28 C32,30.209139 30.209139,32 28,32 L4,32 C1.790861,32 0,30.209139 0,28 L0,4 C0,1.790861 1.790861,0 4,0 Z" id="Rectangle" fill="#5B49FF"></path>
                <path d="M11.8846325,18.8950836 L15.5104682,15.2692479 C15.6643372,15.1153789 15.9138409,15.1153789 16.0678354,15.2692479 L16.7307521,15.9322901 C16.8846211,16.0861591 16.8846211,16.3355373 16.7307521,16.4895318 L13.1049164,20.1153675 C12.9509219,20.2692365 12.7014182,20.2692365 12.5475492,20.1153675 L11.8846325,19.4523253 C11.7307635,19.2985818 11.7307635,19.0490781 11.8846325,18.8950836 M5.15863722,16.3829443 L6.35432123,17.5786266 C6.56583752,17.7901426 6.90872574,17.7901426 7.12011739,17.5786266 L15.6675193,9.03123677 C15.851116,8.84764039 16.148884,8.84764039 16.3326053,9.03123677 L22.9687575,15.6673796 C23.1524788,15.8511006 23.1524788,16.1488682 22.9687575,16.3325893 L16.3326053,22.9686074 C16.148884,23.1523285 15.851116,23.1523285 15.6675193,22.9686074 L15.1298167,22.4311549 C14.9460955,22.2474339 14.9460955,21.9496662 15.1298167,21.7659452 L20.5302751,16.3656192 C20.7416667,16.1542278 20.7416667,15.8113401 20.5302751,15.5998241 L16.2720296,11.3417093 C16.060638,11.130318 15.7177498,11.130318 15.5063581,11.3417093 L8.1947747,18.6531577 C7.98325841,18.8646737 7.98325841,19.2075615 8.1947747,19.4189528 L15.6171642,26.8414565 C15.8286805,27.0528478 16.1714441,27.0528478 16.3829604,26.8414565 L26.8413628,16.3829443 C27.0528791,16.1714283 27.0528791,15.8285406 26.8413628,15.6171492 L16.3829604,5.15863699 C16.1714441,4.947121 15.8286805,4.947121 15.6171642,5.15863699 L5.15863722,15.6171492 C4.94712093,15.8285406 4.94712093,16.1714283 5.15863722,16.3829443" id="Fill-1" fill="#FFFFFF"></path>
            </g>
        </g>
    </g>
</svg>