<svg xmlns="http://www.w3.org/2000/svg" viewBox="0 0 751.83 176.51"><defs><style>.cls-1{fill:#6555ff;}.cls-2{fill:#8c9093;}</style></defs><title>Normal color logo</title><g id="Layer_2" data-name="Layer 2"><g id="Layer_1-2" data-name="Layer 1"><g id="Logo_black" data-name="Logo black"><path class="cls-1" d="M234.72,29.16V47.84H258.4v11H234.72v19.7h26.74v11H220.33V18.14h41.13v11Z"/><path class="cls-1" d="M312.18,54l22.25,35.62H318.2L303.5,66.1,289.83,89.58H273.6L296,54,273.6,18.34h16.23l14.69,23.48L318.3,18.34h16.13Z"/><path class="cls-1" d="M400.3,23.24a32.47,32.47,0,0,1,12.91,16.64H396q-4.8-9.39-16.33-9.39a22.39,22.39,0,0,0-11.38,2.85,19.7,19.7,0,0,0-7.71,8.17,26.3,26.3,0,0,0-2.75,12.25A26.25,26.25,0,0,0,360.55,66a20,20,0,0,0,7.71,8.22,22,22,0,0,0,11.38,2.91q11.43,0,16.33-9.39h17.24A32.2,32.2,0,0,1,400.3,84.32a39,39,0,0,1-39,1.23,34.36,34.36,0,0,1-13.22-13,36.75,36.75,0,0,1-4.85-18.83A36.52,36.52,0,0,1,348.05,35a34.63,34.63,0,0,1,13.22-13,38.65,38.65,0,0,1,39,1.22Z"/><path class="cls-1" d="M440.05,78.66h22.86V89.58H425.66V18.34h14.39Z"/><path class="cls-1" d="M486.79,18.34V62.23q0,7.35,3.73,11.12t10.66,3.78q6.94,0,10.72-3.78t3.78-11.12V18.34H530V62.23q0,9.08-4,15.41a25.47,25.47,0,0,1-10.61,9.49,32.88,32.88,0,0,1-14.44,3.16,32,32,0,0,1-14.24-3.16,24.66,24.66,0,0,1-10.36-9.49,29,29,0,0,1-3.88-15.41V18.34Z"/><path class="cls-1" d="M591.76,79.47a22.29,22.29,0,0,1-8.88,7.86,28.94,28.94,0,0,1-13.42,3q-11.75,0-18.88-5.46t-7.15-15.36h15.31a10.07,10.07,0,0,0,3.12,7q2.7,2.4,7.6,2.4a11.25,11.25,0,0,0,7.76-2.55,8.48,8.48,0,0,0,2.85-6.63,7.27,7.27,0,0,0-2-5.31,13.59,13.59,0,0,0-4.9-3.16q-2.91-1.12-8.21-2.56a75.8,75.8,0,0,1-11.13-3.57,18.41,18.41,0,0,1-7.34-5.76q-3.06-3.93-3.07-10.67a20,20,0,0,1,3.22-11.28,20.77,20.77,0,0,1,8.93-7.45,31,31,0,0,1,13-2.6q11.12,0,17.86,5.05t7.35,15.36H578A9.66,9.66,0,0,0,575,31.25a9.81,9.81,0,0,0-6.84-2.4,10.92,10.92,0,0,0-7.09,2.2c-1.81,1.46-2.7,3.69-2.7,6.68a7.6,7.6,0,0,0,2,5.46,13.16,13.16,0,0,0,4.95,3.22,81.2,81.2,0,0,0,8.17,2.45,75.23,75.23,0,0,1,11.12,3.57,18.06,18.06,0,0,1,7.3,5.77q3,3.93,3,10.66A19.43,19.43,0,0,1,591.76,79.47Z"/><path class="cls-1" d="M623,18.34V89.58H608.65V18.34Z"/><path class="cls-1" d="M647.32,18.34l19.5,56.85,19.49-56.85h15.31L675.49,89.58H658.14l-26-71.24Z"/><path class="cls-1" d="M725.09,29.16V47.84h23.68v11H725.09v19.7h26.74v11H710.7V18.14h41.13v11Z"/><path class="cls-2" d="M243.33,151.73H228.78l-2.5,7.1h-5.95L232.78,124h6.6l12.45,34.8h-6Zm-1.55-4.45-5.7-16.35-5.75,16.35Z"/><path class="cls-2" d="M349.75,150.78a14.94,14.94,0,0,1-6.45,6,21.6,21.6,0,0,1-9.72,2.07H322.23V124.08h11.35a21.09,21.09,0,0,1,9.72,2.13,15.15,15.15,0,0,1,6.45,6.1,18.31,18.31,0,0,1,2.28,9.27A17.89,17.89,0,0,1,349.75,150.78Zm-6.85.25q3.28-3.45,3.28-9.45t-3.28-9.47q-3.27-3.42-9.32-3.43h-5.65v25.8h5.65Q339.63,154.48,342.9,151Z"/><path class="cls-2" d="M450.2,150.78a14.94,14.94,0,0,1-6.45,6,21.6,21.6,0,0,1-9.72,2.07H422.68V124.08H434a21.09,21.09,0,0,1,9.72,2.13,15.15,15.15,0,0,1,6.45,6.1,18.31,18.31,0,0,1,2.28,9.27A17.89,17.89,0,0,1,450.2,150.78Zm-6.85.25q3.28-3.45,3.28-9.45t-3.28-9.47q-3.27-3.42-9.32-3.43h-5.65v25.8H434Q440.08,154.48,443.35,151Z"/><path class="cls-2" d="M548,125.91a16.75,16.75,0,0,1,6.43,6.32,19,19,0,0,1,0,18.33,16.69,16.69,0,0,1-6.43,6.35,18.78,18.78,0,0,1-17.9,0,17,17,0,0,1-6.45-6.35,18.91,18.91,0,0,1,0-18.33,17,17,0,0,1,6.45-6.32,18.71,18.71,0,0,1,17.9,0Zm-15.12,4.47a10.94,10.94,0,0,0-4.23,4.4,13.85,13.85,0,0,0-1.52,6.6A14,14,0,0,0,528.6,148a11,11,0,0,0,4.23,4.45,12.83,12.83,0,0,0,12.3,0,10.92,10.92,0,0,0,4.22-4.45,13.92,13.92,0,0,0,1.53-6.63,13.74,13.74,0,0,0-1.53-6.6,10.85,10.85,0,0,0-4.22-4.4,13,13,0,0,0-12.3,0Z"/><path class="cls-2" d="M655.88,158.83h-5.7l-17.15-26v26h-5.7V124H633l17.15,25.9V124h5.7Z"/><path class="cls-2" d="M750.4,153.93a10.35,10.35,0,0,1-4.17,3.8,13.58,13.58,0,0,1-6.45,1.45,14.17,14.17,0,0,1-8.75-2.55,8.31,8.31,0,0,1-3.4-7h6.1a5.29,5.29,0,0,0,1.7,3.65,6.3,6.3,0,0,0,4.35,1.35,6.65,6.65,0,0,0,4.62-1.5,4.92,4.92,0,0,0,1.68-3.85,4,4,0,0,0-1-2.92,6.63,6.63,0,0,0-2.57-1.65,41.06,41.06,0,0,0-4.25-1.23,36.28,36.28,0,0,1-5.5-1.67,8.83,8.83,0,0,1-3.6-2.8,8.3,8.3,0,0,1-1.5-5.23,9.5,9.5,0,0,1,1.5-5.3,9.85,9.85,0,0,1,4.2-3.55,14.67,14.67,0,0,1,6.2-1.25,13.12,13.12,0,0,1,8.22,2.4,9.16,9.16,0,0,1,3.48,6.95h-6.3a5.07,5.07,0,0,0-1.7-3.35,5.75,5.75,0,0,0-4-1.35,6.5,6.5,0,0,0-4.2,1.3,4.66,4.66,0,0,0-1.6,3.85,4.26,4.26,0,0,0,1,3,6.51,6.51,0,0,0,2.58,1.7,38.47,38.47,0,0,0,4.3,1.22,38,38,0,0,1,5.45,1.68,8.75,8.75,0,0,1,3.57,2.75,8.11,8.11,0,0,1,1.48,5.17A9.46,9.46,0,0,1,750.4,153.93Z"/><path class="cls-1" d="M1.27,91.33l9.6,9.59a4.35,4.35,0,0,0,6.14,0L85.58,32.34a3.78,3.78,0,0,1,5.34,0l53.24,53.24a3.77,3.77,0,0,1,0,5.34L90.92,144.16a3.77,3.77,0,0,1-5.34,0l-4.31-4.31a3.78,3.78,0,0,1,0-5.34L124.6,91.19a4.35,4.35,0,0,0,0-6.15L90.44,50.88a4.35,4.35,0,0,0-6.15,0L25.63,109.54a4.33,4.33,0,0,0,0,6.14l59.55,59.55a4.35,4.35,0,0,0,6.15,0l83.9-83.9a4.35,4.35,0,0,0,0-6.15L91.33,1.27a4.36,4.36,0,0,0-6.15,0L1.27,85.18A4.36,4.36,0,0,0,1.27,91.33Zm55,19.06L85.14,81.5a3.15,3.15,0,0,1,4.44,0l5.29,5.28a3.15,3.15,0,0,1,0,4.44L66,120.11a3.13,3.13,0,0,1-4.44,0l-5.29-5.28A3.15,3.15,0,0,1,56.25,110.39Z"/></g></g></g></svg>